{
  "header": {
	"keySignatures": [],
	"meta": [],
	"name": "Grand Piano (Classic)",
	"ppq": 384,
	"tempos": [
	  {
		"bpm": 160,
		"ticks": 0
	  }
	],
	"timeSignatures": [
	  {
		"ticks": 0,
		"timeSignature": [
		  4,
		  4
		],
		"measures": 0
	  }
	]
  },
  "tracks": [
	{
	  "channel": 0,
	  "controlChanges": {},
	  "pitchBends": [],
	  "instrument": {
		"family": "piano",
		"number": 0,
		"name": "acoustic grand piano"
	  },
	  "name": "Grand Piano (Classic)",
	  "notes": [
		{
		  "duration": 0.09375,
		  "durationTicks": 96,
		  "midi": 37,
		  "name": "C#2",
		  "ticks": 0,
		  "time": 0,
		  "velocity": 0.3937007874015748
		},
		{
		  "duration": 0.09375,
		  "durationTicks": 96,
		  "midi": 44,
		  "name": "G#2",
		  "ticks": 100,
		  "time": 0.09765625,
		  "velocity": 0.3937007874015748
		},
		{
		  "duration": 0.09375,
		  "durationTicks": 96,
		  "midi": 44,
		  "name": "G#2",
		  "ticks": 172,
		  "time": 0.16796875,
		  "velocity": 0.3937007874015748
		},
		{
		  "duration": 0.09375,
		  "durationTicks": 96,
		  "midi": 49,
		  "name": "C#3",
		  "ticks": 192,
		  "time": 0.1875,
		  "velocity": 0.3937007874015748
		},
		{
		  "duration": 0.09375,
		  "durationTicks": 96,
		  "midi": 52,
		  "name": "E3",
		  "ticks": 288,
		  "time": 0.28125,
		  "velocity": 0.3937007874015748
		},
		{
		  "duration": 0.09375,
		  "durationTicks": 96,
		  "midi": 37,
		  "name": "C#2",
		  "ticks": 368,
		  "time": 0.359375,
		  "velocity": 0.3937007874015748
		},
		{
		  "duration": 0.09375,
		  "durationTicks": 96,
		  "midi": 56,
		  "name": "G#3",
		  "ticks": 384,
		  "time": 0.375,
		  "velocity": 0.3937007874015748
		},
		{
		  "duration": 0.09375,
		  "durationTicks": 96,
		  "midi": 49,
		  "name": "C#3",
		  "ticks": 480,
		  "time": 0.46875,
		  "velocity": 0.3937007874015748
		},
		{
		  "duration": 0.09375,
		  "durationTicks": 96,
		  "midi": 44,
		  "name": "G#2",
		  "ticks": 560,
		  "time": 0.546875,
		  "velocity": 0.3937007874015748
		},
		{
		  "duration": 0.09375,
		  "durationTicks": 96,
		  "midi": 52,
		  "name": "E3",
		  "ticks": 576,
		  "time": 0.5625,
		  "velocity": 0.3937007874015748
		},
		{
		  "duration": 0.09375,
		  "durationTicks": 96,
		  "midi": 56,
		  "name": "G#3",
		  "ticks": 672,
		  "time": 0.65625,
		  "velocity": 0.3937007874015748
		},
		{
		  "duration": 0.09375,
		  "durationTicks": 96,
		  "midi": 37,
		  "name": "C#2",
		  "ticks": 752,
		  "time": 0.734375,
		  "velocity": 0.3937007874015748
		},
		{
		  "duration": 0.09375,
		  "durationTicks": 96,
		  "midi": 61,
		  "name": "C#4",
		  "ticks": 768,
		  "time": 0.75,
		  "velocity": 0.3937007874015748
		},
		{
		  "duration": 0.09375,
		  "durationTicks": 96,
		  "midi": 52,
		  "name": "E3",
		  "ticks": 864,
		  "time": 0.84375,
		  "velocity": 0.3937007874015748
		},
		{
		  "duration": 0.09375,
		  "durationTicks": 96,
		  "midi": 44,
		  "name": "G#2",
		  "ticks": 944,
		  "time": 0.921875,
		  "velocity": 0.3937007874015748
		},
		{
		  "duration": 0.09375,
		  "durationTicks": 96,
		  "midi": 56,
		  "name": "G#3",
		  "ticks": 960,
		  "time": 0.9375,
		  "velocity": 0.3937007874015748
		},
		{
		  "duration": 0.09375,
		  "durationTicks": 96,
		  "midi": 61,
		  "name": "C#4",
		  "ticks": 1056,
		  "time": 1.03125,
		  "velocity": 0.3937007874015748
		},
		{
		  "duration": 0.09375,
		  "durationTicks": 96,
		  "midi": 37,
		  "name": "C#2",
		  "ticks": 1136,
		  "time": 1.109375,
		  "velocity": 0.3937007874015748
		},
		{
		  "duration": 0.09375,
		  "durationTicks": 96,
		  "midi": 64,
		  "name": "E4",
		  "ticks": 1152,
		  "time": 1.125,
		  "velocity": 0.3937007874015748
		},
		{
		  "duration": 0.09375,
		  "durationTicks": 96,
		  "midi": 56,
		  "name": "G#3",
		  "ticks": 1248,
		  "time": 1.21875,
		  "velocity": 0.3937007874015748
		},
		{
		  "duration": 0.09375,
		  "durationTicks": 96,
		  "midi": 44,
		  "name": "G#2",
		  "ticks": 1328,
		  "time": 1.296875,
		  "velocity": 0.3937007874015748
		},
		{
		  "duration": 0.09375,
		  "durationTicks": 96,
		  "midi": 61,
		  "name": "C#4",
		  "ticks": 1344,
		  "time": 1.3125,
		  "velocity": 0.3937007874015748
		},
		{
		  "duration": 0.09375,
		  "durationTicks": 96,
		  "midi": 64,
		  "name": "E4",
		  "ticks": 1440,
		  "time": 1.40625,
		  "velocity": 0.3937007874015748
		},
		{
		  "duration": 0.09375,
		  "durationTicks": 96,
		  "midi": 37,
		  "name": "C#2",
		  "ticks": 1520,
		  "time": 1.484375,
		  "velocity": 0.3937007874015748
		},
		{
		  "duration": 0.09375,
		  "durationTicks": 96,
		  "midi": 68,
		  "name": "G#4",
		  "ticks": 1536,
		  "time": 1.5,
		  "velocity": 0.3937007874015748
		},
		{
		  "duration": 0.09375,
		  "durationTicks": 96,
		  "midi": 61,
		  "name": "C#4",
		  "ticks": 1632,
		  "time": 1.59375,
		  "velocity": 0.3937007874015748
		},
		{
		  "duration": 0.09375,
		  "durationTicks": 96,
		  "midi": 44,
		  "name": "G#2",
		  "ticks": 1712,
		  "time": 1.671875,
		  "velocity": 0.3937007874015748
		},
		{
		  "duration": 0.09375,
		  "durationTicks": 96,
		  "midi": 64,
		  "name": "E4",
		  "ticks": 1728,
		  "time": 1.6875,
		  "velocity": 0.3937007874015748
		},
		{
		  "duration": 0.09375,
		  "durationTicks": 96,
		  "midi": 68,
		  "name": "G#4",
		  "ticks": 1824,
		  "time": 1.78125,
		  "velocity": 0.3937007874015748
		},
		{
		  "duration": 0.09375,
		  "durationTicks": 96,
		  "midi": 37,
		  "name": "C#2",
		  "ticks": 1904,
		  "time": 1.859375,
		  "velocity": 0.3937007874015748
		},
		{
		  "duration": 0.09375,
		  "durationTicks": 96,
		  "midi": 73,
		  "name": "C#5",
		  "ticks": 1920,
		  "time": 1.875,
		  "velocity": 0.3937007874015748
		},
		{
		  "duration": 0.09375,
		  "durationTicks": 96,
		  "midi": 64,
		  "name": "E4",
		  "ticks": 2016,
		  "time": 1.96875,
		  "velocity": 0.3937007874015748
		},
		{
		  "duration": 0.09375,
		  "durationTicks": 96,
		  "midi": 44,
		  "name": "G#2",
		  "ticks": 2096,
		  "time": 2.046875,
		  "velocity": 0.3937007874015748
		},
		{
		  "duration": 0.09375,
		  "durationTicks": 96,
		  "midi": 68,
		  "name": "G#4",
		  "ticks": 2112,
		  "time": 2.0625,
		  "velocity": 0.3937007874015748
		},
		{
		  "duration": 0.09375,
		  "durationTicks": 96,
		  "midi": 73,
		  "name": "C#5",
		  "ticks": 2208,
		  "time": 2.15625,
		  "velocity": 0.3937007874015748
		},
		{
		  "duration": 0.09375,
		  "durationTicks": 96,
		  "midi": 37,
		  "name": "C#2",
		  "ticks": 2288,
		  "time": 2.234375,
		  "velocity": 0.3937007874015748
		},
		{
		  "duration": 0.09375,
		  "durationTicks": 96,
		  "midi": 76,
		  "name": "E5",
		  "ticks": 2304,
		  "time": 2.25,
		  "velocity": 0.3937007874015748
		},
		{
		  "duration": 0.09375,
		  "durationTicks": 96,
		  "midi": 68,
		  "name": "G#4",
		  "ticks": 2400,
		  "time": 2.34375,
		  "velocity": 0.3937007874015748
		},
		{
		  "duration": 0.09375,
		  "durationTicks": 96,
		  "midi": 44,
		  "name": "G#2",
		  "ticks": 2480,
		  "time": 2.421875,
		  "velocity": 0.3937007874015748
		},
		{
		  "duration": 0.09375,
		  "durationTicks": 96,
		  "midi": 73,
		  "name": "C#5",
		  "ticks": 2496,
		  "time": 2.4375,
		  "velocity": 0.3937007874015748
		},
		{
		  "duration": 0.09375,
		  "durationTicks": 96,
		  "midi": 76,
		  "name": "E5",
		  "ticks": 2592,
		  "time": 2.53125,
		  "velocity": 0.3937007874015748
		},
		{
		  "duration": 0.1875,
		  "durationTicks": 192,
		  "midi": 80,
		  "name": "G#5",
		  "ticks": 2672,
		  "time": 2.609375,
		  "velocity": 0.3937007874015748
		},
		{
		  "duration": 0.1875,
		  "durationTicks": 192,
		  "midi": 68,
		  "name": "G#4",
		  "ticks": 2672,
		  "time": 2.609375,
		  "velocity": 0.3937007874015748
		},
		{
		  "duration": 0.1875,
		  "durationTicks": 192,
		  "midi": 73,
		  "name": "C#5",
		  "ticks": 2672,
		  "time": 2.609375,
		  "velocity": 0.3937007874015748
		},
		{
		  "duration": 0.1875,
		  "durationTicks": 192,
		  "midi": 76,
		  "name": "E5",
		  "ticks": 2672,
		  "time": 2.609375,
		  "velocity": 0.3937007874015748
		},
		{
		  "duration": 0.1875,
		  "durationTicks": 192,
		  "midi": 49,
		  "name": "C#3",
		  "ticks": 2672,
		  "time": 2.609375,
		  "velocity": 0.3937007874015748
		},
		{
		  "duration": 0.1875,
		  "durationTicks": 192,
		  "midi": 37,
		  "name": "C#2",
		  "ticks": 2672,
		  "time": 2.609375,
		  "velocity": 0.3937007874015748
		},
		{
		  "duration": 0.1875,
		  "durationTicks": 192,
		  "midi": 80,
		  "name": "G#5",
		  "ticks": 2864,
		  "time": 2.796875,
		  "velocity": 0.3937007874015748
		},
		{
		  "duration": 0.1875,
		  "durationTicks": 192,
		  "midi": 76,
		  "name": "E5",
		  "ticks": 2864,
		  "time": 2.796875,
		  "velocity": 0.3937007874015748
		},
		{
		  "duration": 0.1875,
		  "durationTicks": 192,
		  "midi": 68,
		  "name": "G#4",
		  "ticks": 2864,
		  "time": 2.796875,
		  "velocity": 0.3937007874015748
		},
		{
		  "duration": 0.1875,
		  "durationTicks": 192,
		  "midi": 73,
		  "name": "C#5",
		  "ticks": 2864,
		  "time": 2.796875,
		  "velocity": 0.3937007874015748
		},
		{
		  "duration": 0.1875,
		  "durationTicks": 192,
		  "midi": 44,
		  "name": "G#2",
		  "ticks": 2864,
		  "time": 2.796875,
		  "velocity": 0.3937007874015748
		},
		{
		  "duration": 0.09375,
		  "durationTicks": 96,
		  "midi": 36,
		  "name": "C2",
		  "ticks": 3056,
		  "time": 2.984375,
		  "velocity": 0.3937007874015748
		},
		{
		  "duration": 0.09375,
		  "durationTicks": 96,
		  "midi": 44,
		  "name": "G#2",
		  "ticks": 3168,
		  "time": 3.09375,
		  "velocity": 0.3937007874015748
		},
		{
		  "duration": 0.09375,
		  "durationTicks": 96,
		  "midi": 44,
		  "name": "G#2",
		  "ticks": 3248,
		  "time": 3.171875,
		  "velocity": 0.3937007874015748
		},
		{
		  "duration": 0.09375,
		  "durationTicks": 96,
		  "midi": 48,
		  "name": "C3",
		  "ticks": 3264,
		  "time": 3.1875,
		  "velocity": 0.3937007874015748
		},
		{
		  "duration": 0.09375,
		  "durationTicks": 96,
		  "midi": 51,
		  "name": "D#3",
		  "ticks": 3360,
		  "time": 3.28125,
		  "velocity": 0.3937007874015748
		},
		{
		  "duration": 0.09375,
		  "durationTicks": 96,
		  "midi": 36,
		  "name": "C2",
		  "ticks": 3440,
		  "time": 3.359375,
		  "velocity": 0.3937007874015748
		},
		{
		  "duration": 0.09375,
		  "durationTicks": 96,
		  "midi": 56,
		  "name": "G#3",
		  "ticks": 3456,
		  "time": 3.375,
		  "velocity": 0.3937007874015748
		},
		{
		  "duration": 0.09375,
		  "durationTicks": 96,
		  "midi": 48,
		  "name": "C3",
		  "ticks": 3552,
		  "time": 3.46875,
		  "velocity": 0.3937007874015748
		},
		{
		  "duration": 0.09375,
		  "durationTicks": 96,
		  "midi": 44,
		  "name": "G#2",
		  "ticks": 3632,
		  "time": 3.546875,
		  "velocity": 0.3937007874015748
		},
		{
		  "duration": 0.09375,
		  "durationTicks": 96,
		  "midi": 51,
		  "name": "D#3",
		  "ticks": 3648,
		  "time": 3.5625,
		  "velocity": 0.3937007874015748
		},
		{
		  "duration": 0.09375,
		  "durationTicks": 96,
		  "midi": 56,
		  "name": "G#3",
		  "ticks": 3744,
		  "time": 3.65625,
		  "velocity": 0.3937007874015748
		},
		{
		  "duration": 0.09375,
		  "durationTicks": 96,
		  "midi": 36,
		  "name": "C2",
		  "ticks": 3824,
		  "time": 3.734375,
		  "velocity": 0.3937007874015748
		},
		{
		  "duration": 0.09375,
		  "durationTicks": 96,
		  "midi": 60,
		  "name": "C4",
		  "ticks": 3840,
		  "time": 3.75,
		  "velocity": 0.3937007874015748
		},
		{
		  "duration": 0.09375,
		  "durationTicks": 96,
		  "midi": 51,
		  "name": "D#3",
		  "ticks": 3936,
		  "time": 3.84375,
		  "velocity": 0.3937007874015748
		},
		{
		  "duration": 0.09375,
		  "durationTicks": 96,
		  "midi": 44,
		  "name": "G#2",
		  "ticks": 4016,
		  "time": 3.921875,
		  "velocity": 0.3937007874015748
		},
		{
		  "duration": 0.09375,
		  "durationTicks": 96,
		  "midi": 56,
		  "name": "G#3",
		  "ticks": 4032,
		  "time": 3.9375,
		  "velocity": 0.3937007874015748
		},
		{
		  "duration": 0.09375,
		  "durationTicks": 96,
		  "midi": 60,
		  "name": "C4",
		  "ticks": 4128,
		  "time": 4.03125,
		  "velocity": 0.3937007874015748
		},
		{
		  "duration": 0.09375,
		  "durationTicks": 96,
		  "midi": 36,
		  "name": "C2",
		  "ticks": 4208,
		  "time": 4.109375,
		  "velocity": 0.3937007874015748
		},
		{
		  "duration": 0.09375,
		  "durationTicks": 96,
		  "midi": 63,
		  "name": "D#4",
		  "ticks": 4224,
		  "time": 4.125,
		  "velocity": 0.3937007874015748
		},
		{
		  "duration": 0.09375,
		  "durationTicks": 96,
		  "midi": 56,
		  "name": "G#3",
		  "ticks": 4320,
		  "time": 4.21875,
		  "velocity": 0.3937007874015748
		},
		{
		  "duration": 0.09375,
		  "durationTicks": 96,
		  "midi": 44,
		  "name": "G#2",
		  "ticks": 4400,
		  "time": 4.296875,
		  "velocity": 0.3937007874015748
		},
		{
		  "duration": 0.09375,
		  "durationTicks": 96,
		  "midi": 60,
		  "name": "C4",
		  "ticks": 4416,
		  "time": 4.3125,
		  "velocity": 0.3937007874015748
		},
		{
		  "duration": 0.09375,
		  "durationTicks": 96,
		  "midi": 63,
		  "name": "D#4",
		  "ticks": 4512,
		  "time": 4.40625,
		  "velocity": 0.3937007874015748
		},
		{
		  "duration": 0.09375,
		  "durationTicks": 96,
		  "midi": 36,
		  "name": "C2",
		  "ticks": 4592,
		  "time": 4.484375,
		  "velocity": 0.3937007874015748
		},
		{
		  "duration": 0.09375,
		  "durationTicks": 96,
		  "midi": 68,
		  "name": "G#4",
		  "ticks": 4608,
		  "time": 4.5,
		  "velocity": 0.3937007874015748
		},
		{
		  "duration": 0.09375,
		  "durationTicks": 96,
		  "midi": 60,
		  "name": "C4",
		  "ticks": 4704,
		  "time": 4.59375,
		  "velocity": 0.3937007874015748
		},
		{
		  "duration": 0.09375,
		  "durationTicks": 96,
		  "midi": 44,
		  "name": "G#2",
		  "ticks": 4784,
		  "time": 4.671875,
		  "velocity": 0.3937007874015748
		},
		{
		  "duration": 0.09375,
		  "durationTicks": 96,
		  "midi": 63,
		  "name": "D#4",
		  "ticks": 4800,
		  "time": 4.6875,
		  "velocity": 0.3937007874015748
		},
		{
		  "duration": 0.09375,
		  "durationTicks": 96,
		  "midi": 68,
		  "name": "G#4",
		  "ticks": 4896,
		  "time": 4.78125,
		  "velocity": 0.3937007874015748
		},
		{
		  "duration": 0.09375,
		  "durationTicks": 96,
		  "midi": 36,
		  "name": "C2",
		  "ticks": 4976,
		  "time": 4.859375,
		  "velocity": 0.3937007874015748
		},
		{
		  "duration": 0.09375,
		  "durationTicks": 96,
		  "midi": 72,
		  "name": "C5",
		  "ticks": 4992,
		  "time": 4.875,
		  "velocity": 0.3937007874015748
		},
		{
		  "duration": 0.09375,
		  "durationTicks": 96,
		  "midi": 63,
		  "name": "D#4",
		  "ticks": 5088,
		  "time": 4.96875,
		  "velocity": 0.3937007874015748
		},
		{
		  "duration": 0.09375,
		  "durationTicks": 96,
		  "midi": 44,
		  "name": "G#2",
		  "ticks": 5168,
		  "time": 5.046875,
		  "velocity": 0.3937007874015748
		},
		{
		  "duration": 0.09375,
		  "durationTicks": 96,
		  "midi": 68,
		  "name": "G#4",
		  "ticks": 5184,
		  "time": 5.0625,
		  "velocity": 0.3937007874015748
		},
		{
		  "duration": 0.09375,
		  "durationTicks": 96,
		  "midi": 72,
		  "name": "C5",
		  "ticks": 5280,
		  "time": 5.15625,
		  "velocity": 0.3937007874015748
		},
		{
		  "duration": 0.09375,
		  "durationTicks": 96,
		  "midi": 36,
		  "name": "C2",
		  "ticks": 5360,
		  "time": 5.234375,
		  "velocity": 0.3937007874015748
		},
		{
		  "duration": 0.09375,
		  "durationTicks": 96,
		  "midi": 75,
		  "name": "D#5",
		  "ticks": 5376,
		  "time": 5.25,
		  "velocity": 0.3937007874015748
		},
		{
		  "duration": 0.09375,
		  "durationTicks": 96,
		  "midi": 68,
		  "name": "G#4",
		  "ticks": 5472,
		  "time": 5.34375,
		  "velocity": 0.3937007874015748
		},
		{
		  "duration": 0.09375,
		  "durationTicks": 96,
		  "midi": 44,
		  "name": "G#2",
		  "ticks": 5552,
		  "time": 5.421875,
		  "velocity": 0.3937007874015748
		},
		{
		  "duration": 0.09375,
		  "durationTicks": 96,
		  "midi": 72,
		  "name": "C5",
		  "ticks": 5568,
		  "time": 5.4375,
		  "velocity": 0.3937007874015748
		},
		{
		  "duration": 0.09375,
		  "durationTicks": 96,
		  "midi": 75,
		  "name": "D#5",
		  "ticks": 5664,
		  "time": 5.53125,
		  "velocity": 0.3937007874015748
		},
		{
		  "duration": 0.1875,
		  "durationTicks": 192,
		  "midi": 80,
		  "name": "G#5",
		  "ticks": 5744,
		  "time": 5.609375,
		  "velocity": 0.3937007874015748
		},
		{
		  "duration": 0.1875,
		  "durationTicks": 192,
		  "midi": 75,
		  "name": "D#5",
		  "ticks": 5744,
		  "time": 5.609375,
		  "velocity": 0.3937007874015748
		},
		{
		  "duration": 0.1875,
		  "durationTicks": 192,
		  "midi": 72,
		  "name": "C5",
		  "ticks": 5744,
		  "time": 5.609375,
		  "velocity": 0.3937007874015748
		},
		{
		  "duration": 0.1875,
		  "durationTicks": 192,
		  "midi": 68,
		  "name": "G#4",
		  "ticks": 5744,
		  "time": 5.609375,
		  "velocity": 0.3937007874015748
		},
		{
		  "duration": 0.1875,
		  "durationTicks": 192,
		  "midi": 48,
		  "name": "C3",
		  "ticks": 5744,
		  "time": 5.609375,
		  "velocity": 0.3937007874015748
		},
		{
		  "duration": 0.1875,
		  "durationTicks": 192,
		  "midi": 36,
		  "name": "C2",
		  "ticks": 5744,
		  "time": 5.609375,
		  "velocity": 0.3937007874015748
		},
		{
		  "duration": 0.1875,
		  "durationTicks": 192,
		  "midi": 68,
		  "name": "G#4",
		  "ticks": 5936,
		  "time": 5.796875,
		  "velocity": 0.3937007874015748
		},
		{
		  "duration": 0.1875,
		  "durationTicks": 192,
		  "midi": 72,
		  "name": "C5",
		  "ticks": 5936,
		  "time": 5.796875,
		  "velocity": 0.3937007874015748
		},
		{
		  "duration": 0.1875,
		  "durationTicks": 192,
		  "midi": 80,
		  "name": "G#5",
		  "ticks": 5936,
		  "time": 5.796875,
		  "velocity": 0.3937007874015748
		},
		{
		  "duration": 0.1875,
		  "durationTicks": 192,
		  "midi": 75,
		  "name": "D#5",
		  "ticks": 5936,
		  "time": 5.796875,
		  "velocity": 0.3937007874015748
		},
		{
		  "duration": 0.1875,
		  "durationTicks": 192,
		  "midi": 44,
		  "name": "G#2",
		  "ticks": 5936,
		  "time": 5.796875,
		  "velocity": 0.3937007874015748
		},
		{
		  "duration": 0.09375,
		  "durationTicks": 96,
		  "midi": 35,
		  "name": "B1",
		  "ticks": 6128,
		  "time": 5.984375,
		  "velocity": 0.3937007874015748
		},
		{
		  "duration": 0.09375,
		  "durationTicks": 96,
		  "midi": 49,
		  "name": "C#3",
		  "ticks": 6240,
		  "time": 6.09375,
		  "velocity": 0.3937007874015748
		},
		{
		  "duration": 0.09375,
		  "durationTicks": 96,
		  "midi": 44,
		  "name": "G#2",
		  "ticks": 6320,
		  "time": 6.171875,
		  "velocity": 0.3937007874015748
		},
		{
		  "duration": 0.09375,
		  "durationTicks": 96,
		  "midi": 53,
		  "name": "F3",
		  "ticks": 6336,
		  "time": 6.1875,
		  "velocity": 0.3937007874015748
		},
		{
		  "duration": 0.09375,
		  "durationTicks": 96,
		  "midi": 56,
		  "name": "G#3",
		  "ticks": 6432,
		  "time": 6.28125,
		  "velocity": 0.3937007874015748
		},
		{
		  "duration": 0.09375,
		  "durationTicks": 96,
		  "midi": 35,
		  "name": "B1",
		  "ticks": 6512,
		  "time": 6.359375,
		  "velocity": 0.3937007874015748
		},
		{
		  "duration": 0.09375,
		  "durationTicks": 96,
		  "midi": 61,
		  "name": "C#4",
		  "ticks": 6528,
		  "time": 6.375,
		  "velocity": 0.3937007874015748
		},
		{
		  "duration": 0.09375,
		  "durationTicks": 96,
		  "midi": 53,
		  "name": "F3",
		  "ticks": 6624,
		  "time": 6.46875,
		  "velocity": 0.3937007874015748
		},
		{
		  "duration": 0.09375,
		  "durationTicks": 96,
		  "midi": 44,
		  "name": "G#2",
		  "ticks": 6704,
		  "time": 6.546875,
		  "velocity": 0.3937007874015748
		},
		{
		  "duration": 0.09375,
		  "durationTicks": 96,
		  "midi": 56,
		  "name": "G#3",
		  "ticks": 6720,
		  "time": 6.5625,
		  "velocity": 0.3937007874015748
		},
		{
		  "duration": 0.09375,
		  "durationTicks": 96,
		  "midi": 61,
		  "name": "C#4",
		  "ticks": 6816,
		  "time": 6.65625,
		  "velocity": 0.3937007874015748
		},
		{
		  "duration": 0.09375,
		  "durationTicks": 96,
		  "midi": 35,
		  "name": "B1",
		  "ticks": 6896,
		  "time": 6.734375,
		  "velocity": 0.3937007874015748
		},
		{
		  "duration": 0.09375,
		  "durationTicks": 96,
		  "midi": 65,
		  "name": "F4",
		  "ticks": 6912,
		  "time": 6.75,
		  "velocity": 0.3937007874015748
		},
		{
		  "duration": 0.09375,
		  "durationTicks": 96,
		  "midi": 56,
		  "name": "G#3",
		  "ticks": 7008,
		  "time": 6.84375,
		  "velocity": 0.3937007874015748
		},
		{
		  "duration": 0.09375,
		  "durationTicks": 96,
		  "midi": 44,
		  "name": "G#2",
		  "ticks": 7088,
		  "time": 6.921875,
		  "velocity": 0.3937007874015748
		},
		{
		  "duration": 0.09375,
		  "durationTicks": 96,
		  "midi": 61,
		  "name": "C#4",
		  "ticks": 7104,
		  "time": 6.9375,
		  "velocity": 0.3937007874015748
		},
		{
		  "duration": 0.09375,
		  "durationTicks": 96,
		  "midi": 65,
		  "name": "F4",
		  "ticks": 7200,
		  "time": 7.03125,
		  "velocity": 0.3937007874015748
		},
		{
		  "duration": 0.09375,
		  "durationTicks": 96,
		  "midi": 35,
		  "name": "B1",
		  "ticks": 7280,
		  "time": 7.109375,
		  "velocity": 0.3937007874015748
		},
		{
		  "duration": 0.09375,
		  "durationTicks": 96,
		  "midi": 68,
		  "name": "G#4",
		  "ticks": 7296,
		  "time": 7.125,
		  "velocity": 0.3937007874015748
		},
		{
		  "duration": 0.09375,
		  "durationTicks": 96,
		  "midi": 61,
		  "name": "C#4",
		  "ticks": 7392,
		  "time": 7.21875,
		  "velocity": 0.3937007874015748
		},
		{
		  "duration": 0.09375,
		  "durationTicks": 96,
		  "midi": 44,
		  "name": "G#2",
		  "ticks": 7472,
		  "time": 7.296875,
		  "velocity": 0.3937007874015748
		},
		{
		  "duration": 0.09375,
		  "durationTicks": 96,
		  "midi": 65,
		  "name": "F4",
		  "ticks": 7488,
		  "time": 7.3125,
		  "velocity": 0.3937007874015748
		},
		{
		  "duration": 0.09375,
		  "durationTicks": 96,
		  "midi": 68,
		  "name": "G#4",
		  "ticks": 7584,
		  "time": 7.40625,
		  "velocity": 0.3937007874015748
		},
		{
		  "duration": 0.09375,
		  "durationTicks": 96,
		  "midi": 35,
		  "name": "B1",
		  "ticks": 7664,
		  "time": 7.484375,
		  "velocity": 0.3937007874015748
		},
		{
		  "duration": 0.09375,
		  "durationTicks": 96,
		  "midi": 73,
		  "name": "C#5",
		  "ticks": 7680,
		  "time": 7.5,
		  "velocity": 0.3937007874015748
		},
		{
		  "duration": 0.09375,
		  "durationTicks": 96,
		  "midi": 65,
		  "name": "F4",
		  "ticks": 7776,
		  "time": 7.59375,
		  "velocity": 0.3937007874015748
		},
		{
		  "duration": 0.09375,
		  "durationTicks": 96,
		  "midi": 44,
		  "name": "G#2",
		  "ticks": 7856,
		  "time": 7.671875,
		  "velocity": 0.3937007874015748
		},
		{
		  "duration": 0.09375,
		  "durationTicks": 96,
		  "midi": 68,
		  "name": "G#4",
		  "ticks": 7872,
		  "time": 7.6875,
		  "velocity": 0.3937007874015748
		},
		{
		  "duration": 0.09375,
		  "durationTicks": 96,
		  "midi": 73,
		  "name": "C#5",
		  "ticks": 7968,
		  "time": 7.78125,
		  "velocity": 0.3937007874015748
		},
		{
		  "duration": 0.09375,
		  "durationTicks": 96,
		  "midi": 35,
		  "name": "B1",
		  "ticks": 8048,
		  "time": 7.859375,
		  "velocity": 0.3937007874015748
		},
		{
		  "duration": 0.09375,
		  "durationTicks": 96,
		  "midi": 77,
		  "name": "F5",
		  "ticks": 8064,
		  "time": 7.875,
		  "velocity": 0.3937007874015748
		},
		{
		  "duration": 0.09375,
		  "durationTicks": 96,
		  "midi": 68,
		  "name": "G#4",
		  "ticks": 8160,
		  "time": 7.96875,
		  "velocity": 0.3937007874015748
		},
		{
		  "duration": 0.09375,
		  "durationTicks": 96,
		  "midi": 44,
		  "name": "G#2",
		  "ticks": 8240,
		  "time": 8.046875,
		  "velocity": 0.3937007874015748
		},
		{
		  "duration": 0.09375,
		  "durationTicks": 96,
		  "midi": 73,
		  "name": "C#5",
		  "ticks": 8256,
		  "time": 8.0625,
		  "velocity": 0.3937007874015748
		},
		{
		  "duration": 0.09375,
		  "durationTicks": 96,
		  "midi": 77,
		  "name": "F5",
		  "ticks": 8352,
		  "time": 8.15625,
		  "velocity": 0.3937007874015748
		},
		{
		  "duration": 0.09375,
		  "durationTicks": 96,
		  "midi": 35,
		  "name": "B1",
		  "ticks": 8432,
		  "time": 8.234375,
		  "velocity": 0.3937007874015748
		},
		{
		  "duration": 0.09375,
		  "durationTicks": 96,
		  "midi": 80,
		  "name": "G#5",
		  "ticks": 8448,
		  "time": 8.25,
		  "velocity": 0.3937007874015748
		},
		{
		  "duration": 0.09375,
		  "durationTicks": 96,
		  "midi": 73,
		  "name": "C#5",
		  "ticks": 8544,
		  "time": 8.34375,
		  "velocity": 0.3937007874015748
		},
		{
		  "duration": 0.09375,
		  "durationTicks": 96,
		  "midi": 44,
		  "name": "G#2",
		  "ticks": 8624,
		  "time": 8.421875,
		  "velocity": 0.3937007874015748
		},
		{
		  "duration": 0.09375,
		  "durationTicks": 96,
		  "midi": 77,
		  "name": "F5",
		  "ticks": 8640,
		  "time": 8.4375,
		  "velocity": 0.3937007874015748
		},
		{
		  "duration": 0.0947265625,
		  "durationTicks": 97,
		  "midi": 80,
		  "name": "G#5",
		  "ticks": 8736,
		  "time": 8.53125,
		  "velocity": 0.3937007874015748
		},
		{
		  "duration": 0.1884765625,
		  "durationTicks": 193,
		  "midi": 77,
		  "name": "F5",
		  "ticks": 8816,
		  "time": 8.609375,
		  "velocity": 0.3937007874015748
		},
		{
		  "duration": 0.1884765625,
		  "durationTicks": 193,
		  "midi": 80,
		  "name": "G#5",
		  "ticks": 8816,
		  "time": 8.609375,
		  "velocity": 0.3937007874015748
		},
		{
		  "duration": 0.1884765625,
		  "durationTicks": 193,
		  "midi": 85,
		  "name": "C#6",
		  "ticks": 8816,
		  "time": 8.609375,
		  "velocity": 0.3937007874015748
		},
		{
		  "duration": 0.1884765625,
		  "durationTicks": 193,
		  "midi": 73,
		  "name": "C#5",
		  "ticks": 8816,
		  "time": 8.609375,
		  "velocity": 0.3937007874015748
		},
		{
		  "duration": 0.1884765625,
		  "durationTicks": 193,
		  "midi": 47,
		  "name": "B2",
		  "ticks": 8821,
		  "time": 8.6142578125,
		  "velocity": 0.3937007874015748
		},
		{
		  "duration": 0.1884765625,
		  "durationTicks": 193,
		  "midi": 35,
		  "name": "B1",
		  "ticks": 8821,
		  "time": 8.6142578125,
		  "velocity": 0.3937007874015748
		},
		{
		  "duration": 0.1884765625,
		  "durationTicks": 193,
		  "midi": 44,
		  "name": "G#2",
		  "ticks": 9009,
		  "time": 8.7978515625,
		  "velocity": 0.3937007874015748
		},
		{
		  "duration": 0.1875,
		  "durationTicks": 192,
		  "midi": 73,
		  "name": "C#5",
		  "ticks": 9026,
		  "time": 8.814453125,
		  "velocity": 0.3937007874015748
		},
		{
		  "duration": 0.1875,
		  "durationTicks": 192,
		  "midi": 77,
		  "name": "F5",
		  "ticks": 9026,
		  "time": 8.814453125,
		  "velocity": 0.3937007874015748
		},
		{
		  "duration": 0.1875,
		  "durationTicks": 192,
		  "midi": 85,
		  "name": "C#6",
		  "ticks": 9026,
		  "time": 8.814453125,
		  "velocity": 0.3937007874015748
		},
		{
		  "duration": 0.1875,
		  "durationTicks": 192,
		  "midi": 80,
		  "name": "G#5",
		  "ticks": 9026,
		  "time": 8.814453125,
		  "velocity": 0.3937007874015748
		},
		{
		  "duration": 0.09375,
		  "durationTicks": 96,
		  "midi": 33,
		  "name": "A1",
		  "ticks": 9202,
		  "time": 8.986328125,
		  "velocity": 0.3937007874015748
		},
		{
		  "duration": 0.09375,
		  "durationTicks": 96,
		  "midi": 49,
		  "name": "C#3",
		  "ticks": 9303,
		  "time": 9.0849609375,
		  "velocity": 0.3937007874015748
		},
		{
		  "duration": 0.09375,
		  "durationTicks": 96,
		  "midi": 45,
		  "name": "A2",
		  "ticks": 9394,
		  "time": 9.173828125,
		  "velocity": 0.3937007874015748
		},
		{
		  "duration": 0.09375,
		  "durationTicks": 96,
		  "midi": 54,
		  "name": "F#3",
		  "ticks": 9403,
		  "time": 9.1826171875,
		  "velocity": 0.3937007874015748
		},
		{
		  "duration": 0.09375,
		  "durationTicks": 96,
		  "midi": 57,
		  "name": "A3",
		  "ticks": 9499,
		  "time": 9.2763671875,
		  "velocity": 0.3937007874015748
		},
		{
		  "duration": 0.0947265625,
		  "durationTicks": 97,
		  "midi": 33,
		  "name": "A1",
		  "ticks": 9586,
		  "time": 9.361328125,
		  "velocity": 0.3937007874015748
		},
		{
		  "duration": 0.09375,
		  "durationTicks": 96,
		  "midi": 61,
		  "name": "C#4",
		  "ticks": 9607,
		  "time": 9.3818359375,
		  "velocity": 0.3937007874015748
		},
		{
		  "duration": 0.09375,
		  "durationTicks": 96,
		  "midi": 61,
		  "name": "C#4",
		  "ticks": 9703,
		  "time": 9.4755859375,
		  "velocity": 0.3937007874015748
		},
		{
		  "duration": 0.09375,
		  "durationTicks": 96,
		  "midi": 45,
		  "name": "A2",
		  "ticks": 9779,
		  "time": 9.5498046875,
		  "velocity": 0.3937007874015748
		},
		{
		  "duration": 0.09375,
		  "durationTicks": 96,
		  "midi": 66,
		  "name": "F#4",
		  "ticks": 9784,
		  "time": 9.5546875,
		  "velocity": 0.3937007874015748
		},
		{
		  "duration": 0.09375,
		  "durationTicks": 96,
		  "midi": 69,
		  "name": "A4",
		  "ticks": 9880,
		  "time": 9.6484375,
		  "velocity": 0.3937007874015748
		},
		{
		  "duration": 0.09375,
		  "durationTicks": 96,
		  "midi": 33,
		  "name": "A1",
		  "ticks": 9971,
		  "time": 9.7373046875,
		  "velocity": 0.3937007874015748
		},
		{
		  "duration": 0.09375,
		  "durationTicks": 96,
		  "midi": 73,
		  "name": "C#5",
		  "ticks": 9991,
		  "time": 9.7568359375,
		  "velocity": 0.3937007874015748
		},
		{
		  "duration": 0.09375,
		  "durationTicks": 96,
		  "midi": 73,
		  "name": "C#5",
		  "ticks": 10091,
		  "time": 9.8544921875,
		  "velocity": 0.3937007874015748
		},
		{
		  "duration": 0.09375,
		  "durationTicks": 96,
		  "midi": 45,
		  "name": "A2",
		  "ticks": 10163,
		  "time": 9.9248046875,
		  "velocity": 0.3937007874015748
		},
		{
		  "duration": 0.09375,
		  "durationTicks": 96,
		  "midi": 78,
		  "name": "F#5",
		  "ticks": 10168,
		  "time": 9.9296875,
		  "velocity": 0.3937007874015748
		},
		{
		  "duration": 0.09375,
		  "durationTicks": 96,
		  "midi": 81,
		  "name": "A5",
		  "ticks": 10264,
		  "time": 10.0234375,
		  "velocity": 0.3937007874015748
		},
		{
		  "duration": 0.09375,
		  "durationTicks": 96,
		  "midi": 33,
		  "name": "A1",
		  "ticks": 10355,
		  "time": 10.1123046875,
		  "velocity": 0.3937007874015748
		},
		{
		  "duration": 0.1875,
		  "durationTicks": 192,
		  "midi": 73,
		  "name": "C#5",
		  "ticks": 10360,
		  "time": 10.1171875,
		  "velocity": 0.3937007874015748
		},
		{
		  "duration": 0.1875,
		  "durationTicks": 192,
		  "midi": 85,
		  "name": "C#6",
		  "ticks": 10360,
		  "time": 10.1171875,
		  "velocity": 0.3937007874015748
		},
		{
		  "duration": 0.1875,
		  "durationTicks": 192,
		  "midi": 78,
		  "name": "F#5",
		  "ticks": 10360,
		  "time": 10.1171875,
		  "velocity": 0.3937007874015748
		},
		{
		  "duration": 0.09375,
		  "durationTicks": 96,
		  "midi": 45,
		  "name": "A2",
		  "ticks": 10547,
		  "time": 10.2998046875,
		  "velocity": 0.3937007874015748
		},
		{
		  "duration": 0.1875,
		  "durationTicks": 192,
		  "midi": 85,
		  "name": "C#6",
		  "ticks": 10567,
		  "time": 10.3193359375,
		  "velocity": 0.3937007874015748
		},
		{
		  "duration": 0.1875,
		  "durationTicks": 192,
		  "midi": 78,
		  "name": "F#5",
		  "ticks": 10567,
		  "time": 10.3193359375,
		  "velocity": 0.3937007874015748
		},
		{
		  "duration": 0.1875,
		  "durationTicks": 192,
		  "midi": 73,
		  "name": "C#5",
		  "ticks": 10567,
		  "time": 10.3193359375,
		  "velocity": 0.3937007874015748
		},
		{
		  "duration": 0.09375,
		  "durationTicks": 96,
		  "midi": 33,
		  "name": "A1",
		  "ticks": 10739,
		  "time": 10.4873046875,
		  "velocity": 0.3937007874015748
		},
		{
		  "duration": 0.09375,
		  "durationTicks": 96,
		  "midi": 49,
		  "name": "C#3",
		  "ticks": 10840,
		  "time": 10.5859375,
		  "velocity": 0.3937007874015748
		},
		{
		  "duration": 0.09375,
		  "durationTicks": 96,
		  "midi": 45,
		  "name": "A2",
		  "ticks": 10931,
		  "time": 10.6748046875,
		  "velocity": 0.3937007874015748
		},
		{
		  "duration": 0.09375,
		  "durationTicks": 96,
		  "midi": 52,
		  "name": "E3",
		  "ticks": 10936,
		  "time": 10.6796875,
		  "velocity": 0.3937007874015748
		},
		{
		  "duration": 0.09375,
		  "durationTicks": 96,
		  "midi": 55,
		  "name": "G3",
		  "ticks": 11032,
		  "time": 10.7734375,
		  "velocity": 0.3937007874015748
		},
		{
		  "duration": 0.0947265625,
		  "durationTicks": 97,
		  "midi": 33,
		  "name": "A1",
		  "ticks": 11123,
		  "time": 10.8623046875,
		  "velocity": 0.3937007874015748
		},
		{
		  "duration": 0.09375,
		  "durationTicks": 96,
		  "midi": 61,
		  "name": "C#4",
		  "ticks": 11140,
		  "time": 10.87890625,
		  "velocity": 0.3937007874015748
		},
		{
		  "duration": 0.09375,
		  "durationTicks": 96,
		  "midi": 61,
		  "name": "C#4",
		  "ticks": 11244,
		  "time": 10.98046875,
		  "velocity": 0.3937007874015748
		},
		{
		  "duration": 0.09375,
		  "durationTicks": 96,
		  "midi": 45,
		  "name": "A2",
		  "ticks": 11316,
		  "time": 11.05078125,
		  "velocity": 0.3937007874015748
		},
		{
		  "duration": 0.09375,
		  "durationTicks": 96,
		  "midi": 64,
		  "name": "E4",
		  "ticks": 11321,
		  "time": 11.0556640625,
		  "velocity": 0.3937007874015748
		},
		{
		  "duration": 0.09375,
		  "durationTicks": 96,
		  "midi": 67,
		  "name": "G4",
		  "ticks": 11417,
		  "time": 11.1494140625,
		  "velocity": 0.3937007874015748
		},
		{
		  "duration": 0.09375,
		  "durationTicks": 96,
		  "midi": 33,
		  "name": "A1",
		  "ticks": 11508,
		  "time": 11.23828125,
		  "velocity": 0.3937007874015748
		},
		{
		  "duration": 0.09375,
		  "durationTicks": 96,
		  "midi": 73,
		  "name": "C#5",
		  "ticks": 11528,
		  "time": 11.2578125,
		  "velocity": 0.3937007874015748
		},
		{
		  "duration": 0.0947265625,
		  "durationTicks": 97,
		  "midi": 73,
		  "name": "C#5",
		  "ticks": 11624,
		  "time": 11.3515625,
		  "velocity": 0.3937007874015748
		},
		{
		  "duration": 0.0947265625,
		  "durationTicks": 97,
		  "midi": 45,
		  "name": "A2",
		  "ticks": 11700,
		  "time": 11.42578125,
		  "velocity": 0.3937007874015748
		},
		{
		  "duration": 0.0947265625,
		  "durationTicks": 97,
		  "midi": 76,
		  "name": "E5",
		  "ticks": 11709,
		  "time": 11.4345703125,
		  "velocity": 0.3937007874015748
		},
		{
		  "duration": 0.09375,
		  "durationTicks": 96,
		  "midi": 79,
		  "name": "G5",
		  "ticks": 11806,
		  "time": 11.529296875,
		  "velocity": 0.3937007874015748
		},
		{
		  "duration": 0.09375,
		  "durationTicks": 96,
		  "midi": 33,
		  "name": "A1",
		  "ticks": 11893,
		  "time": 11.6142578125,
		  "velocity": 0.3937007874015748
		},
		{
		  "duration": 0.1875,
		  "durationTicks": 192,
		  "midi": 73,
		  "name": "C#5",
		  "ticks": 11902,
		  "time": 11.623046875,
		  "velocity": 0.3937007874015748
		},
		{
		  "duration": 0.1875,
		  "durationTicks": 192,
		  "midi": 79,
		  "name": "G5",
		  "ticks": 11902,
		  "time": 11.623046875,
		  "velocity": 0.3937007874015748
		},
		{
		  "duration": 0.1875,
		  "durationTicks": 192,
		  "midi": 85,
		  "name": "C#6",
		  "ticks": 11902,
		  "time": 11.623046875,
		  "velocity": 0.3937007874015748
		},
		{
		  "duration": 0.0947265625,
		  "durationTicks": 97,
		  "midi": 45,
		  "name": "A2",
		  "ticks": 12085,
		  "time": 11.8017578125,
		  "velocity": 0.3937007874015748
		},
		{
		  "duration": 0.1884765625,
		  "durationTicks": 193,
		  "midi": 85,
		  "name": "C#6",
		  "ticks": 12102,
		  "time": 11.818359375,
		  "velocity": 0.3937007874015748
		},
		{
		  "duration": 0.1884765625,
		  "durationTicks": 193,
		  "midi": 73,
		  "name": "C#5",
		  "ticks": 12102,
		  "time": 11.818359375,
		  "velocity": 0.3937007874015748
		},
		{
		  "duration": 0.1884765625,
		  "durationTicks": 193,
		  "midi": 79,
		  "name": "G5",
		  "ticks": 12102,
		  "time": 11.818359375,
		  "velocity": 0.3937007874015748
		},
		{
		  "duration": 0.1875,
		  "durationTicks": 192,
		  "midi": 32,
		  "name": "G#1",
		  "ticks": 12283,
		  "time": 11.9951171875,
		  "velocity": 0.3937007874015748
		},
		{
		  "duration": 0.1875,
		  "durationTicks": 192,
		  "midi": 44,
		  "name": "G#2",
		  "ticks": 12283,
		  "time": 11.9951171875,
		  "velocity": 0.3937007874015748
		},
		{
		  "duration": 0.1875,
		  "durationTicks": 192,
		  "midi": 72,
		  "name": "C5",
		  "ticks": 12295,
		  "time": 12.0068359375,
		  "velocity": 0.3937007874015748
		},
		{
		  "duration": 0.1875,
		  "durationTicks": 192,
		  "midi": 80,
		  "name": "G#5",
		  "ticks": 12295,
		  "time": 12.0068359375,
		  "velocity": 0.3937007874015748
		},
		{
		  "duration": 0.1875,
		  "durationTicks": 192,
		  "midi": 84,
		  "name": "C6",
		  "ticks": 12295,
		  "time": 12.0068359375,
		  "velocity": 0.3937007874015748
		},
		{
		  "duration": 0.09375,
		  "durationTicks": 96,
		  "midi": 68,
		  "name": "G#4",
		  "ticks": 12487,
		  "time": 12.1943359375,
		  "velocity": 0.3937007874015748
		},
		{
		  "duration": 0.1875,
		  "durationTicks": 192,
		  "midi": 60,
		  "name": "C4",
		  "ticks": 12487,
		  "time": 12.1943359375,
		  "velocity": 0.3937007874015748
		},
		{
		  "duration": 2.8125,
		  "durationTicks": 2880,
		  "midi": 56,
		  "name": "G#3",
		  "ticks": 12487,
		  "time": 12.1943359375,
		  "velocity": 0.3937007874015748
		},
		{
		  "duration": 0.09375,
		  "durationTicks": 96,
		  "midi": 80,
		  "name": "G#5",
		  "ticks": 12583,
		  "time": 12.2880859375,
		  "velocity": 0.3937007874015748
		},
		{
		  "duration": 0.09375,
		  "durationTicks": 96,
		  "midi": 68,
		  "name": "G#4",
		  "ticks": 12679,
		  "time": 12.3818359375,
		  "velocity": 0.3937007874015748
		},
		{
		  "duration": 0.1875,
		  "durationTicks": 192,
		  "midi": 60,
		  "name": "C4",
		  "ticks": 12679,
		  "time": 12.3818359375,
		  "velocity": 0.3937007874015748
		},
		{
		  "duration": 0.09375,
		  "durationTicks": 96,
		  "midi": 80,
		  "name": "G#5",
		  "ticks": 12775,
		  "time": 12.4755859375,
		  "velocity": 0.3937007874015748
		},
		{
		  "duration": 0.09375,
		  "durationTicks": 96,
		  "midi": 70,
		  "name": "A#4",
		  "ticks": 12871,
		  "time": 12.5693359375,
		  "velocity": 0.3937007874015748
		},
		{
		  "duration": 0.1875,
		  "durationTicks": 192,
		  "midi": 61,
		  "name": "C#4",
		  "ticks": 12871,
		  "time": 12.5693359375,
		  "velocity": 0.3937007874015748
		},
		{
		  "duration": 0.09375,
		  "durationTicks": 96,
		  "midi": 80,
		  "name": "G#5",
		  "ticks": 12967,
		  "time": 12.6630859375,
		  "velocity": 0.3937007874015748
		},
		{
		  "duration": 0.09375,
		  "durationTicks": 96,
		  "midi": 72,
		  "name": "C5",
		  "ticks": 13063,
		  "time": 12.7568359375,
		  "velocity": 0.3937007874015748
		},
		{
		  "duration": 0.1875,
		  "durationTicks": 192,
		  "midi": 63,
		  "name": "D#4",
		  "ticks": 13063,
		  "time": 12.7568359375,
		  "velocity": 0.3937007874015748
		},
		{
		  "duration": 0.09375,
		  "durationTicks": 96,
		  "midi": 80,
		  "name": "G#5",
		  "ticks": 13159,
		  "time": 12.8505859375,
		  "velocity": 0.3937007874015748
		},
		{
		  "duration": 0.09375,
		  "durationTicks": 96,
		  "midi": 73,
		  "name": "C#5",
		  "ticks": 13255,
		  "time": 12.9443359375,
		  "velocity": 0.3937007874015748
		},
		{
		  "duration": 0.1875,
		  "durationTicks": 192,
		  "midi": 64,
		  "name": "E4",
		  "ticks": 13255,
		  "time": 12.9443359375,
		  "velocity": 0.3937007874015748
		},
		{
		  "duration": 0.09375,
		  "durationTicks": 96,
		  "midi": 80,
		  "name": "G#5",
		  "ticks": 13351,
		  "time": 13.0380859375,
		  "velocity": 0.3937007874015748
		},
		{
		  "duration": 0.09375,
		  "durationTicks": 96,
		  "midi": 75,
		  "name": "D#5",
		  "ticks": 13447,
		  "time": 13.1318359375,
		  "velocity": 0.3937007874015748
		},
		{
		  "duration": 0.1875,
		  "durationTicks": 192,
		  "midi": 66,
		  "name": "F#4",
		  "ticks": 13447,
		  "time": 13.1318359375,
		  "velocity": 0.3937007874015748
		},
		{
		  "duration": 0.09375,
		  "durationTicks": 96,
		  "midi": 80,
		  "name": "G#5",
		  "ticks": 13543,
		  "time": 13.2255859375,
		  "velocity": 0.3937007874015748
		},
		{
		  "duration": 0.09375,
		  "durationTicks": 96,
		  "midi": 72,
		  "name": "C5",
		  "ticks": 13639,
		  "time": 13.3193359375,
		  "velocity": 0.3937007874015748
		},
		{
		  "duration": 0.1875,
		  "durationTicks": 192,
		  "midi": 63,
		  "name": "D#4",
		  "ticks": 13639,
		  "time": 13.3193359375,
		  "velocity": 0.3937007874015748
		},
		{
		  "duration": 0.09375,
		  "durationTicks": 96,
		  "midi": 80,
		  "name": "G#5",
		  "ticks": 13735,
		  "time": 13.4130859375,
		  "velocity": 0.3937007874015748
		},
		{
		  "duration": 0.09375,
		  "durationTicks": 96,
		  "midi": 75,
		  "name": "D#5",
		  "ticks": 13831,
		  "time": 13.5068359375,
		  "velocity": 0.3937007874015748
		},
		{
		  "duration": 0.1875,
		  "durationTicks": 192,
		  "midi": 66,
		  "name": "F#4",
		  "ticks": 13831,
		  "time": 13.5068359375,
		  "velocity": 0.3937007874015748
		},
		{
		  "duration": 0.09375,
		  "durationTicks": 96,
		  "midi": 80,
		  "name": "G#5",
		  "ticks": 13927,
		  "time": 13.6005859375,
		  "velocity": 0.3937007874015748
		},
		{
		  "duration": 0.09375,
		  "durationTicks": 96,
		  "midi": 73,
		  "name": "C#5",
		  "ticks": 14023,
		  "time": 13.6943359375,
		  "velocity": 0.3937007874015748
		},
		{
		  "duration": 0.1875,
		  "durationTicks": 192,
		  "midi": 64,
		  "name": "E4",
		  "ticks": 14023,
		  "time": 13.6943359375,
		  "velocity": 0.3937007874015748
		},
		{
		  "duration": 0.09375,
		  "durationTicks": 96,
		  "midi": 80,
		  "name": "G#5",
		  "ticks": 14119,
		  "time": 13.7880859375,
		  "velocity": 0.3937007874015748
		},
		{
		  "duration": 0.09375,
		  "durationTicks": 96,
		  "midi": 78,
		  "name": "F#5",
		  "ticks": 14215,
		  "time": 13.8818359375,
		  "velocity": 0.3937007874015748
		},
		{
		  "duration": 0.1875,
		  "durationTicks": 192,
		  "midi": 69,
		  "name": "A4",
		  "ticks": 14215,
		  "time": 13.8818359375,
		  "velocity": 0.3937007874015748
		},
		{
		  "duration": 0.09375,
		  "durationTicks": 96,
		  "midi": 80,
		  "name": "G#5",
		  "ticks": 14311,
		  "time": 13.9755859375,
		  "velocity": 0.3937007874015748
		},
		{
		  "duration": 0.09375,
		  "durationTicks": 96,
		  "midi": 76,
		  "name": "E5",
		  "ticks": 14407,
		  "time": 14.0693359375,
		  "velocity": 0.3937007874015748
		},
		{
		  "duration": 0.1875,
		  "durationTicks": 192,
		  "midi": 68,
		  "name": "G#4",
		  "ticks": 14407,
		  "time": 14.0693359375,
		  "velocity": 0.3937007874015748
		},
		{
		  "duration": 0.09375,
		  "durationTicks": 96,
		  "midi": 80,
		  "name": "G#5",
		  "ticks": 14503,
		  "time": 14.1630859375,
		  "velocity": 0.3937007874015748
		},
		{
		  "duration": 0.09375,
		  "durationTicks": 96,
		  "midi": 75,
		  "name": "D#5",
		  "ticks": 14599,
		  "time": 14.2568359375,
		  "velocity": 0.3937007874015748
		},
		{
		  "duration": 0.1875,
		  "durationTicks": 192,
		  "midi": 66,
		  "name": "F#4",
		  "ticks": 14599,
		  "time": 14.2568359375,
		  "velocity": 0.3937007874015748
		},
		{
		  "duration": 0.09375,
		  "durationTicks": 96,
		  "midi": 80,
		  "name": "G#5",
		  "ticks": 14695,
		  "time": 14.3505859375,
		  "velocity": 0.3937007874015748
		},
		{
		  "duration": 0.09375,
		  "durationTicks": 96,
		  "midi": 73,
		  "name": "C#5",
		  "ticks": 14791,
		  "time": 14.4443359375,
		  "velocity": 0.3937007874015748
		},
		{
		  "duration": 0.1875,
		  "durationTicks": 192,
		  "midi": 64,
		  "name": "E4",
		  "ticks": 14791,
		  "time": 14.4443359375,
		  "velocity": 0.3937007874015748
		},
		{
		  "duration": 0.09375,
		  "durationTicks": 96,
		  "midi": 80,
		  "name": "G#5",
		  "ticks": 14887,
		  "time": 14.5380859375,
		  "velocity": 0.3937007874015748
		},
		{
		  "duration": 0.09375,
		  "durationTicks": 96,
		  "midi": 72,
		  "name": "C5",
		  "ticks": 14983,
		  "time": 14.6318359375,
		  "velocity": 0.3937007874015748
		},
		{
		  "duration": 0.1875,
		  "durationTicks": 192,
		  "midi": 63,
		  "name": "D#4",
		  "ticks": 14983,
		  "time": 14.6318359375,
		  "velocity": 0.3937007874015748
		},
		{
		  "duration": 0.09375,
		  "durationTicks": 96,
		  "midi": 80,
		  "name": "G#5",
		  "ticks": 15079,
		  "time": 14.7255859375,
		  "velocity": 0.3937007874015748
		},
		{
		  "duration": 0.09375,
		  "durationTicks": 96,
		  "midi": 69,
		  "name": "A4",
		  "ticks": 15175,
		  "time": 14.8193359375,
		  "velocity": 0.3937007874015748
		},
		{
		  "duration": 0.1875,
		  "durationTicks": 192,
		  "midi": 61,
		  "name": "C#4",
		  "ticks": 15175,
		  "time": 14.8193359375,
		  "velocity": 0.3937007874015748
		},
		{
		  "duration": 0.09375,
		  "durationTicks": 96,
		  "midi": 79,
		  "name": "G5",
		  "ticks": 15271,
		  "time": 14.9130859375,
		  "velocity": 0.3937007874015748
		},
		{
		  "duration": 0.09375,
		  "durationTicks": 96,
		  "midi": 68,
		  "name": "G#4",
		  "ticks": 15367,
		  "time": 15.0068359375,
		  "velocity": 0.3937007874015748
		},
		{
		  "duration": 0.1875,
		  "durationTicks": 192,
		  "midi": 60,
		  "name": "C4",
		  "ticks": 15367,
		  "time": 15.0068359375,
		  "velocity": 0.3937007874015748
		},
		{
		  "duration": 3,
		  "durationTicks": 3072,
		  "midi": 56,
		  "name": "G#3",
		  "ticks": 15367,
		  "time": 15.0068359375,
		  "velocity": 0.3937007874015748
		},
		{
		  "duration": 0.09375,
		  "durationTicks": 96,
		  "midi": 80,
		  "name": "G#5",
		  "ticks": 15463,
		  "time": 15.1005859375,
		  "velocity": 0.3937007874015748
		},
		{
		  "duration": 0.09375,
		  "durationTicks": 96,
		  "midi": 68,
		  "name": "G#4",
		  "ticks": 15559,
		  "time": 15.1943359375,
		  "velocity": 0.3937007874015748
		},
		{
		  "duration": 0.1875,
		  "durationTicks": 192,
		  "midi": 60,
		  "name": "C4",
		  "ticks": 15559,
		  "time": 15.1943359375,
		  "velocity": 0.3937007874015748
		},
		{
		  "duration": 0.09375,
		  "durationTicks": 96,
		  "midi": 80,
		  "name": "G#5",
		  "ticks": 15655,
		  "time": 15.2880859375,
		  "velocity": 0.3937007874015748
		},
		{
		  "duration": 0.09375,
		  "durationTicks": 96,
		  "midi": 68,
		  "name": "G#4",
		  "ticks": 15751,
		  "time": 15.3818359375,
		  "velocity": 0.3937007874015748
		},
		{
		  "duration": 0.1875,
		  "durationTicks": 192,
		  "midi": 60,
		  "name": "C4",
		  "ticks": 15751,
		  "time": 15.3818359375,
		  "velocity": 0.3937007874015748
		},
		{
		  "duration": 0.09375,
		  "durationTicks": 96,
		  "midi": 80,
		  "name": "G#5",
		  "ticks": 15847,
		  "time": 15.4755859375,
		  "velocity": 0.3937007874015748
		},
		{
		  "duration": 0.09375,
		  "durationTicks": 96,
		  "midi": 70,
		  "name": "A#4",
		  "ticks": 15943,
		  "time": 15.5693359375,
		  "velocity": 0.3937007874015748
		},
		{
		  "duration": 0.1875,
		  "durationTicks": 192,
		  "midi": 61,
		  "name": "C#4",
		  "ticks": 15943,
		  "time": 15.5693359375,
		  "velocity": 0.3937007874015748
		},
		{
		  "duration": 0.09375,
		  "durationTicks": 96,
		  "midi": 80,
		  "name": "G#5",
		  "ticks": 16039,
		  "time": 15.6630859375,
		  "velocity": 0.3937007874015748
		},
		{
		  "duration": 0.09375,
		  "durationTicks": 96,
		  "midi": 72,
		  "name": "C5",
		  "ticks": 16135,
		  "time": 15.7568359375,
		  "velocity": 0.3937007874015748
		},
		{
		  "duration": 0.1875,
		  "durationTicks": 192,
		  "midi": 63,
		  "name": "D#4",
		  "ticks": 16135,
		  "time": 15.7568359375,
		  "velocity": 0.3937007874015748
		},
		{
		  "duration": 0.09375,
		  "durationTicks": 96,
		  "midi": 80,
		  "name": "G#5",
		  "ticks": 16231,
		  "time": 15.8505859375,
		  "velocity": 0.3937007874015748
		},
		{
		  "duration": 0.09375,
		  "durationTicks": 96,
		  "midi": 73,
		  "name": "C#5",
		  "ticks": 16327,
		  "time": 15.9443359375,
		  "velocity": 0.3937007874015748
		},
		{
		  "duration": 0.1875,
		  "durationTicks": 192,
		  "midi": 64,
		  "name": "E4",
		  "ticks": 16327,
		  "time": 15.9443359375,
		  "velocity": 0.3937007874015748
		},
		{
		  "duration": 0.09375,
		  "durationTicks": 96,
		  "midi": 80,
		  "name": "G#5",
		  "ticks": 16423,
		  "time": 16.0380859375,
		  "velocity": 0.3937007874015748
		},
		{
		  "duration": 0.09375,
		  "durationTicks": 96,
		  "midi": 75,
		  "name": "D#5",
		  "ticks": 16519,
		  "time": 16.1318359375,
		  "velocity": 0.3937007874015748
		},
		{
		  "duration": 0.1875,
		  "durationTicks": 192,
		  "midi": 66,
		  "name": "F#4",
		  "ticks": 16519,
		  "time": 16.1318359375,
		  "velocity": 0.3937007874015748
		},
		{
		  "duration": 0.09375,
		  "durationTicks": 96,
		  "midi": 80,
		  "name": "G#5",
		  "ticks": 16615,
		  "time": 16.2255859375,
		  "velocity": 0.3937007874015748
		},
		{
		  "duration": 0.09375,
		  "durationTicks": 96,
		  "midi": 72,
		  "name": "C5",
		  "ticks": 16711,
		  "time": 16.3193359375,
		  "velocity": 0.3937007874015748
		},
		{
		  "duration": 0.1875,
		  "durationTicks": 192,
		  "midi": 63,
		  "name": "D#4",
		  "ticks": 16711,
		  "time": 16.3193359375,
		  "velocity": 0.3937007874015748
		},
		{
		  "duration": 0.09375,
		  "durationTicks": 96,
		  "midi": 80,
		  "name": "G#5",
		  "ticks": 16807,
		  "time": 16.4130859375,
		  "velocity": 0.3937007874015748
		},
		{
		  "duration": 0.09375,
		  "durationTicks": 96,
		  "midi": 75,
		  "name": "D#5",
		  "ticks": 16903,
		  "time": 16.5068359375,
		  "velocity": 0.3937007874015748
		},
		{
		  "duration": 0.1875,
		  "durationTicks": 192,
		  "midi": 66,
		  "name": "F#4",
		  "ticks": 16903,
		  "time": 16.5068359375,
		  "velocity": 0.3937007874015748
		},
		{
		  "duration": 0.09375,
		  "durationTicks": 96,
		  "midi": 80,
		  "name": "G#5",
		  "ticks": 16999,
		  "time": 16.6005859375,
		  "velocity": 0.3937007874015748
		},
		{
		  "duration": 0.09375,
		  "durationTicks": 96,
		  "midi": 73,
		  "name": "C#5",
		  "ticks": 17095,
		  "time": 16.6943359375,
		  "velocity": 0.3937007874015748
		},
		{
		  "duration": 0.1875,
		  "durationTicks": 192,
		  "midi": 64,
		  "name": "E4",
		  "ticks": 17095,
		  "time": 16.6943359375,
		  "velocity": 0.3937007874015748
		},
		{
		  "duration": 0.09375,
		  "durationTicks": 96,
		  "midi": 80,
		  "name": "G#5",
		  "ticks": 17191,
		  "time": 16.7880859375,
		  "velocity": 0.3937007874015748
		},
		{
		  "duration": 0.09375,
		  "durationTicks": 96,
		  "midi": 78,
		  "name": "F#5",
		  "ticks": 17287,
		  "time": 16.8818359375,
		  "velocity": 0.3937007874015748
		},
		{
		  "duration": 0.1875,
		  "durationTicks": 192,
		  "midi": 69,
		  "name": "A4",
		  "ticks": 17287,
		  "time": 16.8818359375,
		  "velocity": 0.3937007874015748
		},
		{
		  "duration": 0.09375,
		  "durationTicks": 96,
		  "midi": 80,
		  "name": "G#5",
		  "ticks": 17383,
		  "time": 16.9755859375,
		  "velocity": 0.3937007874015748
		},
		{
		  "duration": 0.09375,
		  "durationTicks": 96,
		  "midi": 76,
		  "name": "E5",
		  "ticks": 17479,
		  "time": 17.0693359375,
		  "velocity": 0.3937007874015748
		},
		{
		  "duration": 0.1875,
		  "durationTicks": 192,
		  "midi": 68,
		  "name": "G#4",
		  "ticks": 17479,
		  "time": 17.0693359375,
		  "velocity": 0.3937007874015748
		},
		{
		  "duration": 0.09375,
		  "durationTicks": 96,
		  "midi": 80,
		  "name": "G#5",
		  "ticks": 17575,
		  "time": 17.1630859375,
		  "velocity": 0.3937007874015748
		},
		{
		  "duration": 0.09375,
		  "durationTicks": 96,
		  "midi": 75,
		  "name": "D#5",
		  "ticks": 17671,
		  "time": 17.2568359375,
		  "velocity": 0.3937007874015748
		},
		{
		  "duration": 0.1875,
		  "durationTicks": 192,
		  "midi": 66,
		  "name": "F#4",
		  "ticks": 17671,
		  "time": 17.2568359375,
		  "velocity": 0.3937007874015748
		},
		{
		  "duration": 0.09375,
		  "durationTicks": 96,
		  "midi": 80,
		  "name": "G#5",
		  "ticks": 17767,
		  "time": 17.3505859375,
		  "velocity": 0.3937007874015748
		},
		{
		  "duration": 0.09375,
		  "durationTicks": 96,
		  "midi": 73,
		  "name": "C#5",
		  "ticks": 17863,
		  "time": 17.4443359375,
		  "velocity": 0.3937007874015748
		},
		{
		  "duration": 0.1875,
		  "durationTicks": 192,
		  "midi": 64,
		  "name": "E4",
		  "ticks": 17863,
		  "time": 17.4443359375,
		  "velocity": 0.3937007874015748
		},
		{
		  "duration": 0.09375,
		  "durationTicks": 96,
		  "midi": 80,
		  "name": "G#5",
		  "ticks": 17959,
		  "time": 17.5380859375,
		  "velocity": 0.3937007874015748
		},
		{
		  "duration": 0.09375,
		  "durationTicks": 96,
		  "midi": 72,
		  "name": "C5",
		  "ticks": 18055,
		  "time": 17.6318359375,
		  "velocity": 0.3937007874015748
		},
		{
		  "duration": 0.1875,
		  "durationTicks": 192,
		  "midi": 63,
		  "name": "D#4",
		  "ticks": 18055,
		  "time": 17.6318359375,
		  "velocity": 0.3937007874015748
		},
		{
		  "duration": 0.09375,
		  "durationTicks": 96,
		  "midi": 80,
		  "name": "G#5",
		  "ticks": 18151,
		  "time": 17.7255859375,
		  "velocity": 0.3937007874015748
		},
		{
		  "duration": 0.1875,
		  "durationTicks": 192,
		  "midi": 61,
		  "name": "C#4",
		  "ticks": 18247,
		  "time": 17.8193359375,
		  "velocity": 0.3937007874015748
		},
		{
		  "duration": 0.09375,
		  "durationTicks": 96,
		  "midi": 69,
		  "name": "A4",
		  "ticks": 18247,
		  "time": 17.8193359375,
		  "velocity": 0.3937007874015748
		},
		{
		  "duration": 0.09375,
		  "durationTicks": 96,
		  "midi": 79,
		  "name": "G5",
		  "ticks": 18343,
		  "time": 17.9130859375,
		  "velocity": 0.3937007874015748
		},
		{
		  "duration": 0.09375,
		  "durationTicks": 96,
		  "midi": 68,
		  "name": "G#4",
		  "ticks": 18439,
		  "time": 18.0068359375,
		  "velocity": 0.3937007874015748
		},
		{
		  "duration": 0.09375,
		  "durationTicks": 96,
		  "midi": 60,
		  "name": "C4",
		  "ticks": 18439,
		  "time": 18.0068359375,
		  "velocity": 0.3937007874015748
		},
		{
		  "duration": 0.09375,
		  "durationTicks": 96,
		  "midi": 56,
		  "name": "G#3",
		  "ticks": 18439,
		  "time": 18.0068359375,
		  "velocity": 0.3937007874015748
		},
		{
		  "duration": 0.09375,
		  "durationTicks": 96,
		  "midi": 80,
		  "name": "G#5",
		  "ticks": 18535,
		  "time": 18.1005859375,
		  "velocity": 0.3937007874015748
		},
		{
		  "duration": 0.09375,
		  "durationTicks": 96,
		  "midi": 69,
		  "name": "A4",
		  "ticks": 18631,
		  "time": 18.1943359375,
		  "velocity": 0.3937007874015748
		},
		{
		  "duration": 0.09375,
		  "durationTicks": 96,
		  "midi": 61,
		  "name": "C#4",
		  "ticks": 18631,
		  "time": 18.1943359375,
		  "velocity": 0.3937007874015748
		},
		{
		  "duration": 0.09375,
		  "durationTicks": 96,
		  "midi": 56,
		  "name": "G#3",
		  "ticks": 18631,
		  "time": 18.1943359375,
		  "velocity": 0.3937007874015748
		},
		{
		  "duration": 0.09375,
		  "durationTicks": 96,
		  "midi": 79,
		  "name": "G5",
		  "ticks": 18727,
		  "time": 18.2880859375,
		  "velocity": 0.3937007874015748
		},
		{
		  "duration": 0.09375,
		  "durationTicks": 96,
		  "midi": 68,
		  "name": "G#4",
		  "ticks": 18823,
		  "time": 18.3818359375,
		  "velocity": 0.3937007874015748
		},
		{
		  "duration": 0.09375,
		  "durationTicks": 96,
		  "midi": 60,
		  "name": "C4",
		  "ticks": 18823,
		  "time": 18.3818359375,
		  "velocity": 0.3937007874015748
		},
		{
		  "duration": 0.09375,
		  "durationTicks": 96,
		  "midi": 56,
		  "name": "G#3",
		  "ticks": 18823,
		  "time": 18.3818359375,
		  "velocity": 0.3937007874015748
		},
		{
		  "duration": 0.09375,
		  "durationTicks": 96,
		  "midi": 80,
		  "name": "G#5",
		  "ticks": 18919,
		  "time": 18.4755859375,
		  "velocity": 0.3937007874015748
		},
		{
		  "duration": 0.09375,
		  "durationTicks": 96,
		  "midi": 69,
		  "name": "A4",
		  "ticks": 19015,
		  "time": 18.5693359375,
		  "velocity": 0.3937007874015748
		},
		{
		  "duration": 0.09375,
		  "durationTicks": 96,
		  "midi": 61,
		  "name": "C#4",
		  "ticks": 19015,
		  "time": 18.5693359375,
		  "velocity": 0.3937007874015748
		},
		{
		  "duration": 0.09375,
		  "durationTicks": 96,
		  "midi": 56,
		  "name": "G#3",
		  "ticks": 19015,
		  "time": 18.5693359375,
		  "velocity": 0.3937007874015748
		},
		{
		  "duration": 0.09375,
		  "durationTicks": 96,
		  "midi": 79,
		  "name": "G5",
		  "ticks": 19111,
		  "time": 18.6630859375,
		  "velocity": 0.3937007874015748
		},
		{
		  "duration": 0.09375,
		  "durationTicks": 96,
		  "midi": 68,
		  "name": "G#4",
		  "ticks": 19207,
		  "time": 18.7568359375,
		  "velocity": 0.3937007874015748
		},
		{
		  "duration": 0.09375,
		  "durationTicks": 96,
		  "midi": 60,
		  "name": "C4",
		  "ticks": 19207,
		  "time": 18.7568359375,
		  "velocity": 0.3937007874015748
		},
		{
		  "duration": 0.09375,
		  "durationTicks": 96,
		  "midi": 56,
		  "name": "G#3",
		  "ticks": 19207,
		  "time": 18.7568359375,
		  "velocity": 0.3937007874015748
		},
		{
		  "duration": 0.09375,
		  "durationTicks": 96,
		  "midi": 80,
		  "name": "G#5",
		  "ticks": 19303,
		  "time": 18.8505859375,
		  "velocity": 0.3937007874015748
		},
		{
		  "duration": 0.09375,
		  "durationTicks": 96,
		  "midi": 69,
		  "name": "A4",
		  "ticks": 19399,
		  "time": 18.9443359375,
		  "velocity": 0.3937007874015748
		},
		{
		  "duration": 0.09375,
		  "durationTicks": 96,
		  "midi": 61,
		  "name": "C#4",
		  "ticks": 19399,
		  "time": 18.9443359375,
		  "velocity": 0.3937007874015748
		},
		{
		  "duration": 0.09375,
		  "durationTicks": 96,
		  "midi": 56,
		  "name": "G#3",
		  "ticks": 19399,
		  "time": 18.9443359375,
		  "velocity": 0.3937007874015748
		},
		{
		  "duration": 0.09375,
		  "durationTicks": 96,
		  "midi": 79,
		  "name": "G5",
		  "ticks": 19495,
		  "time": 19.0380859375,
		  "velocity": 0.3937007874015748
		},
		{
		  "duration": 0.09375,
		  "durationTicks": 96,
		  "midi": 68,
		  "name": "G#4",
		  "ticks": 19591,
		  "time": 19.1318359375,
		  "velocity": 0.3937007874015748
		},
		{
		  "duration": 0.09375,
		  "durationTicks": 96,
		  "midi": 60,
		  "name": "C4",
		  "ticks": 19591,
		  "time": 19.1318359375,
		  "velocity": 0.3937007874015748
		},
		{
		  "duration": 0.09375,
		  "durationTicks": 96,
		  "midi": 56,
		  "name": "G#3",
		  "ticks": 19591,
		  "time": 19.1318359375,
		  "velocity": 0.3937007874015748
		},
		{
		  "duration": 0.09375,
		  "durationTicks": 96,
		  "midi": 80,
		  "name": "G#5",
		  "ticks": 19687,
		  "time": 19.2255859375,
		  "velocity": 0.3937007874015748
		},
		{
		  "duration": 0.09375,
		  "durationTicks": 96,
		  "midi": 69,
		  "name": "A4",
		  "ticks": 19783,
		  "time": 19.3193359375,
		  "velocity": 0.3937007874015748
		},
		{
		  "duration": 0.09375,
		  "durationTicks": 96,
		  "midi": 61,
		  "name": "C#4",
		  "ticks": 19783,
		  "time": 19.3193359375,
		  "velocity": 0.3937007874015748
		},
		{
		  "duration": 0.09375,
		  "durationTicks": 96,
		  "midi": 56,
		  "name": "G#3",
		  "ticks": 19783,
		  "time": 19.3193359375,
		  "velocity": 0.3937007874015748
		},
		{
		  "duration": 0.09375,
		  "durationTicks": 96,
		  "midi": 79,
		  "name": "G5",
		  "ticks": 19879,
		  "time": 19.4130859375,
		  "velocity": 0.3937007874015748
		},
		{
		  "duration": 0.09375,
		  "durationTicks": 96,
		  "midi": 68,
		  "name": "G#4",
		  "ticks": 19975,
		  "time": 19.5068359375,
		  "velocity": 0.3937007874015748
		},
		{
		  "duration": 0.09375,
		  "durationTicks": 96,
		  "midi": 80,
		  "name": "G#5",
		  "ticks": 19975,
		  "time": 19.5068359375,
		  "velocity": 0.3937007874015748
		},
		{
		  "duration": 0.09375,
		  "durationTicks": 96,
		  "midi": 56,
		  "name": "G#3",
		  "ticks": 19975,
		  "time": 19.5068359375,
		  "velocity": 0.3937007874015748
		},
		{
		  "duration": 0.09375,
		  "durationTicks": 96,
		  "midi": 60,
		  "name": "C4",
		  "ticks": 19975,
		  "time": 19.5068359375,
		  "velocity": 0.3937007874015748
		},
		{
		  "duration": 1.5,
		  "durationTicks": 1536,
		  "midi": 56,
		  "name": "G#3",
		  "ticks": 20355,
		  "time": 19.8779296875,
		  "velocity": 0.3937007874015748
		},
		{
		  "duration": 1.5,
		  "durationTicks": 1536,
		  "midi": 44,
		  "name": "G#2",
		  "ticks": 20355,
		  "time": 19.8779296875,
		  "velocity": 0.3937007874015748
		},
		{
		  "duration": 1.5,
		  "durationTicks": 1536,
		  "midi": 32,
		  "name": "G#1",
		  "ticks": 20355,
		  "time": 19.8779296875,
		  "velocity": 0.3937007874015748
		},
		{
		  "duration": 0.09375,
		  "durationTicks": 96,
		  "midi": 37,
		  "name": "C#2",
		  "ticks": 21863,
		  "time": 21.3505859375,
		  "velocity": 0.3937007874015748
		},
		{
		  "duration": 0.09375,
		  "durationTicks": 96,
		  "midi": 44,
		  "name": "G#2",
		  "ticks": 21955,
		  "time": 21.4404296875,
		  "velocity": 0.3937007874015748
		},
		{
		  "duration": 0.09375,
		  "durationTicks": 96,
		  "midi": 44,
		  "name": "G#2",
		  "ticks": 22035,
		  "time": 21.5185546875,
		  "velocity": 0.3937007874015748
		},
		{
		  "duration": 0.09375,
		  "durationTicks": 96,
		  "midi": 49,
		  "name": "C#3",
		  "ticks": 22055,
		  "time": 21.5380859375,
		  "velocity": 0.3937007874015748
		},
		{
		  "duration": 0.09375,
		  "durationTicks": 96,
		  "midi": 52,
		  "name": "E3",
		  "ticks": 22147,
		  "time": 21.6279296875,
		  "velocity": 0.3937007874015748
		},
		{
		  "duration": 0.09375,
		  "durationTicks": 96,
		  "midi": 37,
		  "name": "C#2",
		  "ticks": 22231,
		  "time": 21.7099609375,
		  "velocity": 0.3937007874015748
		},
		{
		  "duration": 0.09375,
		  "durationTicks": 96,
		  "midi": 56,
		  "name": "G#3",
		  "ticks": 22243,
		  "time": 21.7216796875,
		  "velocity": 0.3937007874015748
		},
		{
		  "duration": 0.09375,
		  "durationTicks": 96,
		  "midi": 49,
		  "name": "C#3",
		  "ticks": 22339,
		  "time": 21.8154296875,
		  "velocity": 0.3937007874015748
		},
		{
		  "duration": 0.09375,
		  "durationTicks": 96,
		  "midi": 44,
		  "name": "G#2",
		  "ticks": 22423,
		  "time": 21.8974609375,
		  "velocity": 0.3937007874015748
		},
		{
		  "duration": 0.09375,
		  "durationTicks": 96,
		  "midi": 52,
		  "name": "E3",
		  "ticks": 22435,
		  "time": 21.9091796875,
		  "velocity": 0.3937007874015748
		},
		{
		  "duration": 0.09375,
		  "durationTicks": 96,
		  "midi": 56,
		  "name": "G#3",
		  "ticks": 22531,
		  "time": 22.0029296875,
		  "velocity": 0.3937007874015748
		},
		{
		  "duration": 0.09375,
		  "durationTicks": 96,
		  "midi": 37,
		  "name": "C#2",
		  "ticks": 22615,
		  "time": 22.0849609375,
		  "velocity": 0.3937007874015748
		},
		{
		  "duration": 0.09375,
		  "durationTicks": 96,
		  "midi": 61,
		  "name": "C#4",
		  "ticks": 22627,
		  "time": 22.0966796875,
		  "velocity": 0.3937007874015748
		},
		{
		  "duration": 0.09375,
		  "durationTicks": 96,
		  "midi": 52,
		  "name": "E3",
		  "ticks": 22723,
		  "time": 22.1904296875,
		  "velocity": 0.3937007874015748
		},
		{
		  "duration": 0.09375,
		  "durationTicks": 96,
		  "midi": 44,
		  "name": "G#2",
		  "ticks": 22803,
		  "time": 22.2685546875,
		  "velocity": 0.3937007874015748
		},
		{
		  "duration": 0.09375,
		  "durationTicks": 96,
		  "midi": 56,
		  "name": "G#3",
		  "ticks": 22819,
		  "time": 22.2841796875,
		  "velocity": 0.3937007874015748
		},
		{
		  "duration": 0.09375,
		  "durationTicks": 96,
		  "midi": 61,
		  "name": "C#4",
		  "ticks": 22919,
		  "time": 22.3818359375,
		  "velocity": 0.3937007874015748
		},
		{
		  "duration": 0.09375,
		  "durationTicks": 96,
		  "midi": 37,
		  "name": "C#2",
		  "ticks": 22995,
		  "time": 22.4560546875,
		  "velocity": 0.3937007874015748
		},
		{
		  "duration": 0.09375,
		  "durationTicks": 96,
		  "midi": 64,
		  "name": "E4",
		  "ticks": 23023,
		  "time": 22.4833984375,
		  "velocity": 0.3937007874015748
		},
		{
		  "duration": 0.09375,
		  "durationTicks": 96,
		  "midi": 56,
		  "name": "G#3",
		  "ticks": 23111,
		  "time": 22.5693359375,
		  "velocity": 0.3937007874015748
		},
		{
		  "duration": 0.09375,
		  "durationTicks": 96,
		  "midi": 44,
		  "name": "G#2",
		  "ticks": 23187,
		  "time": 22.6435546875,
		  "velocity": 0.3937007874015748
		},
		{
		  "duration": 0.09375,
		  "durationTicks": 96,
		  "midi": 61,
		  "name": "C#4",
		  "ticks": 23203,
		  "time": 22.6591796875,
		  "velocity": 0.3937007874015748
		},
		{
		  "duration": 0.09375,
		  "durationTicks": 96,
		  "midi": 64,
		  "name": "E4",
		  "ticks": 23299,
		  "time": 22.7529296875,
		  "velocity": 0.3937007874015748
		},
		{
		  "duration": 0.09375,
		  "durationTicks": 96,
		  "midi": 37,
		  "name": "C#2",
		  "ticks": 23383,
		  "time": 22.8349609375,
		  "velocity": 0.3937007874015748
		},
		{
		  "duration": 0.09375,
		  "durationTicks": 96,
		  "midi": 68,
		  "name": "G#4",
		  "ticks": 23395,
		  "time": 22.8466796875,
		  "velocity": 0.3937007874015748
		},
		{
		  "duration": 0.09375,
		  "durationTicks": 96,
		  "midi": 61,
		  "name": "C#4",
		  "ticks": 23491,
		  "time": 22.9404296875,
		  "velocity": 0.3937007874015748
		},
		{
		  "duration": 0.09375,
		  "durationTicks": 96,
		  "midi": 44,
		  "name": "G#2",
		  "ticks": 23575,
		  "time": 23.0224609375,
		  "velocity": 0.3937007874015748
		},
		{
		  "duration": 0.09375,
		  "durationTicks": 96,
		  "midi": 64,
		  "name": "E4",
		  "ticks": 23587,
		  "time": 23.0341796875,
		  "velocity": 0.3937007874015748
		},
		{
		  "duration": 0.09375,
		  "durationTicks": 96,
		  "midi": 68,
		  "name": "G#4",
		  "ticks": 23683,
		  "time": 23.1279296875,
		  "velocity": 0.3937007874015748
		},
		{
		  "duration": 0.09375,
		  "durationTicks": 96,
		  "midi": 37,
		  "name": "C#2",
		  "ticks": 23763,
		  "time": 23.2060546875,
		  "velocity": 0.3937007874015748
		},
		{
		  "duration": 0.09375,
		  "durationTicks": 96,
		  "midi": 73,
		  "name": "C#5",
		  "ticks": 23779,
		  "time": 23.2216796875,
		  "velocity": 0.3937007874015748
		},
		{
		  "duration": 0.09375,
		  "durationTicks": 96,
		  "midi": 64,
		  "name": "E4",
		  "ticks": 23875,
		  "time": 23.3154296875,
		  "velocity": 0.3937007874015748
		},
		{
		  "duration": 0.09375,
		  "durationTicks": 96,
		  "midi": 44,
		  "name": "G#2",
		  "ticks": 23955,
		  "time": 23.3935546875,
		  "velocity": 0.3937007874015748
		},
		{
		  "duration": 0.09375,
		  "durationTicks": 96,
		  "midi": 68,
		  "name": "G#4",
		  "ticks": 23975,
		  "time": 23.4130859375,
		  "velocity": 0.3937007874015748
		},
		{
		  "duration": 0.09375,
		  "durationTicks": 96,
		  "midi": 73,
		  "name": "C#5",
		  "ticks": 24071,
		  "time": 23.5068359375,
		  "velocity": 0.3937007874015748
		},
		{
		  "duration": 0.09375,
		  "durationTicks": 96,
		  "midi": 37,
		  "name": "C#2",
		  "ticks": 24147,
		  "time": 23.5810546875,
		  "velocity": 0.3937007874015748
		},
		{
		  "duration": 0.09375,
		  "durationTicks": 96,
		  "midi": 76,
		  "name": "E5",
		  "ticks": 24163,
		  "time": 23.5966796875,
		  "velocity": 0.3937007874015748
		},
		{
		  "duration": 0.09375,
		  "durationTicks": 96,
		  "midi": 76,
		  "name": "E5",
		  "ticks": 24259,
		  "time": 23.6904296875,
		  "velocity": 0.3937007874015748
		},
		{
		  "duration": 0.09375,
		  "durationTicks": 96,
		  "midi": 44,
		  "name": "G#2",
		  "ticks": 24343,
		  "time": 23.7724609375,
		  "velocity": 0.3937007874015748
		},
		{
		  "duration": 0.09375,
		  "durationTicks": 96,
		  "midi": 80,
		  "name": "G#5",
		  "ticks": 24355,
		  "time": 23.7841796875,
		  "velocity": 0.3937007874015748
		},
		{
		  "duration": 0.09375,
		  "durationTicks": 96,
		  "midi": 85,
		  "name": "C#6",
		  "ticks": 24451,
		  "time": 23.8779296875,
		  "velocity": 0.3937007874015748
		},
		{
		  "duration": 0.1875,
		  "durationTicks": 192,
		  "midi": 88,
		  "name": "E6",
		  "ticks": 24535,
		  "time": 23.9599609375,
		  "velocity": 0.3937007874015748
		},
		{
		  "duration": 0.1875,
		  "durationTicks": 192,
		  "midi": 76,
		  "name": "E5",
		  "ticks": 24535,
		  "time": 23.9599609375,
		  "velocity": 0.3937007874015748
		},
		{
		  "duration": 0.1875,
		  "durationTicks": 192,
		  "midi": 49,
		  "name": "C#3",
		  "ticks": 24535,
		  "time": 23.9599609375,
		  "velocity": 0.3937007874015748
		},
		{
		  "duration": 0.1875,
		  "durationTicks": 192,
		  "midi": 37,
		  "name": "C#2",
		  "ticks": 24535,
		  "time": 23.9599609375,
		  "velocity": 0.3937007874015748
		},
		{
		  "duration": 0.1875,
		  "durationTicks": 192,
		  "midi": 88,
		  "name": "E6",
		  "ticks": 24723,
		  "time": 24.1435546875,
		  "velocity": 0.3937007874015748
		},
		{
		  "duration": 0.1875,
		  "durationTicks": 192,
		  "midi": 76,
		  "name": "E5",
		  "ticks": 24723,
		  "time": 24.1435546875,
		  "velocity": 0.3937007874015748
		},
		{
		  "duration": 0.1875,
		  "durationTicks": 192,
		  "midi": 44,
		  "name": "G#2",
		  "ticks": 24723,
		  "time": 24.1435546875,
		  "velocity": 0.3937007874015748
		},
		{
		  "duration": 0.09375,
		  "durationTicks": 96,
		  "midi": 34,
		  "name": "A#1",
		  "ticks": 24915,
		  "time": 24.3310546875,
		  "velocity": 0.3937007874015748
		},
		{
		  "duration": 0.09375,
		  "durationTicks": 96,
		  "midi": 52,
		  "name": "E3",
		  "ticks": 25031,
		  "time": 24.4443359375,
		  "velocity": 0.3937007874015748
		},
		{
		  "duration": 0.09375,
		  "durationTicks": 96,
		  "midi": 49,
		  "name": "C#3",
		  "ticks": 25107,
		  "time": 24.5185546875,
		  "velocity": 0.3937007874015748
		},
		{
		  "duration": 0.09375,
		  "durationTicks": 96,
		  "midi": 55,
		  "name": "G3",
		  "ticks": 25127,
		  "time": 24.5380859375,
		  "velocity": 0.3937007874015748
		},
		{
		  "duration": 0.09375,
		  "durationTicks": 96,
		  "midi": 61,
		  "name": "C#4",
		  "ticks": 25223,
		  "time": 24.6318359375,
		  "velocity": 0.3937007874015748
		},
		{
		  "duration": 0.09375,
		  "durationTicks": 96,
		  "midi": 46,
		  "name": "A#2",
		  "ticks": 25299,
		  "time": 24.7060546875,
		  "velocity": 0.3937007874015748
		},
		{
		  "duration": 0.09375,
		  "durationTicks": 96,
		  "midi": 64,
		  "name": "E4",
		  "ticks": 25319,
		  "time": 24.7255859375,
		  "velocity": 0.3937007874015748
		},
		{
		  "duration": 0.09375,
		  "durationTicks": 96,
		  "midi": 55,
		  "name": "G3",
		  "ticks": 25411,
		  "time": 24.8154296875,
		  "velocity": 0.3937007874015748
		},
		{
		  "duration": 0.09375,
		  "durationTicks": 96,
		  "midi": 49,
		  "name": "C#3",
		  "ticks": 25495,
		  "time": 24.8974609375,
		  "velocity": 0.3937007874015748
		},
		{
		  "duration": 0.09375,
		  "durationTicks": 96,
		  "midi": 61,
		  "name": "C#4",
		  "ticks": 25507,
		  "time": 24.9091796875,
		  "velocity": 0.3937007874015748
		},
		{
		  "duration": 0.09375,
		  "durationTicks": 96,
		  "midi": 64,
		  "name": "E4",
		  "ticks": 25603,
		  "time": 25.0029296875,
		  "velocity": 0.3937007874015748
		},
		{
		  "duration": 0.09375,
		  "durationTicks": 96,
		  "midi": 46,
		  "name": "A#2",
		  "ticks": 25687,
		  "time": 25.0849609375,
		  "velocity": 0.3937007874015748
		},
		{
		  "duration": 0.09375,
		  "durationTicks": 96,
		  "midi": 67,
		  "name": "G4",
		  "ticks": 25699,
		  "time": 25.0966796875,
		  "velocity": 0.3937007874015748
		},
		{
		  "duration": 0.09375,
		  "durationTicks": 96,
		  "midi": 61,
		  "name": "C#4",
		  "ticks": 25795,
		  "time": 25.1904296875,
		  "velocity": 0.3937007874015748
		},
		{
		  "duration": 0.09375,
		  "durationTicks": 96,
		  "midi": 49,
		  "name": "C#3",
		  "ticks": 25875,
		  "time": 25.2685546875,
		  "velocity": 0.3937007874015748
		},
		{
		  "duration": 0.09375,
		  "durationTicks": 96,
		  "midi": 64,
		  "name": "E4",
		  "ticks": 25891,
		  "time": 25.2841796875,
		  "velocity": 0.3937007874015748
		},
		{
		  "duration": 0.09375,
		  "durationTicks": 96,
		  "midi": 67,
		  "name": "G4",
		  "ticks": 25987,
		  "time": 25.3779296875,
		  "velocity": 0.3937007874015748
		},
		{
		  "duration": 0.09375,
		  "durationTicks": 96,
		  "midi": 46,
		  "name": "A#2",
		  "ticks": 26067,
		  "time": 25.4560546875,
		  "velocity": 0.3937007874015748
		},
		{
		  "duration": 0.09375,
		  "durationTicks": 96,
		  "midi": 73,
		  "name": "C#5",
		  "ticks": 26083,
		  "time": 25.4716796875,
		  "velocity": 0.3937007874015748
		},
		{
		  "duration": 0.09375,
		  "durationTicks": 96,
		  "midi": 64,
		  "name": "E4",
		  "ticks": 26183,
		  "time": 25.5693359375,
		  "velocity": 0.3937007874015748
		},
		{
		  "duration": 0.09375,
		  "durationTicks": 96,
		  "midi": 49,
		  "name": "C#3",
		  "ticks": 26259,
		  "time": 25.6435546875,
		  "velocity": 0.3937007874015748
		},
		{
		  "duration": 0.09375,
		  "durationTicks": 96,
		  "midi": 67,
		  "name": "G4",
		  "ticks": 26279,
		  "time": 25.6630859375,
		  "velocity": 0.3937007874015748
		},
		{
		  "duration": 0.09375,
		  "durationTicks": 96,
		  "midi": 73,
		  "name": "C#5",
		  "ticks": 26375,
		  "time": 25.7568359375,
		  "velocity": 0.3937007874015748
		},
		{
		  "duration": 0.09375,
		  "durationTicks": 96,
		  "midi": 46,
		  "name": "A#2",
		  "ticks": 26451,
		  "time": 25.8310546875,
		  "velocity": 0.3937007874015748
		},
		{
		  "duration": 0.09375,
		  "durationTicks": 96,
		  "midi": 76,
		  "name": "E5",
		  "ticks": 26467,
		  "time": 25.8466796875,
		  "velocity": 0.3937007874015748
		},
		{
		  "duration": 0.09375,
		  "durationTicks": 96,
		  "midi": 67,
		  "name": "G4",
		  "ticks": 26563,
		  "time": 25.9404296875,
		  "velocity": 0.3937007874015748
		},
		{
		  "duration": 0.09375,
		  "durationTicks": 96,
		  "midi": 49,
		  "name": "C#3",
		  "ticks": 26647,
		  "time": 26.0224609375,
		  "velocity": 0.3937007874015748
		},
		{
		  "duration": 0.09375,
		  "durationTicks": 96,
		  "midi": 73,
		  "name": "C#5",
		  "ticks": 26659,
		  "time": 26.0341796875,
		  "velocity": 0.3937007874015748
		},
		{
		  "duration": 0.09375,
		  "durationTicks": 96,
		  "midi": 76,
		  "name": "E5",
		  "ticks": 26755,
		  "time": 26.1279296875,
		  "velocity": 0.3937007874015748
		},
		{
		  "duration": 0.09375,
		  "durationTicks": 96,
		  "midi": 46,
		  "name": "A#2",
		  "ticks": 26839,
		  "time": 26.2099609375,
		  "velocity": 0.3937007874015748
		},
		{
		  "duration": 0.09375,
		  "durationTicks": 96,
		  "midi": 79,
		  "name": "G5",
		  "ticks": 26851,
		  "time": 26.2216796875,
		  "velocity": 0.3937007874015748
		},
		{
		  "duration": 0.09375,
		  "durationTicks": 96,
		  "midi": 73,
		  "name": "C#5",
		  "ticks": 26947,
		  "time": 26.3154296875,
		  "velocity": 0.3937007874015748
		},
		{
		  "duration": 0.09375,
		  "durationTicks": 96,
		  "midi": 49,
		  "name": "C#3",
		  "ticks": 27027,
		  "time": 26.3935546875,
		  "velocity": 0.3937007874015748
		},
		{
		  "duration": 0.09375,
		  "durationTicks": 96,
		  "midi": 76,
		  "name": "E5",
		  "ticks": 27043,
		  "time": 26.4091796875,
		  "velocity": 0.3937007874015748
		},
		{
		  "duration": 0.09375,
		  "durationTicks": 96,
		  "midi": 79,
		  "name": "G5",
		  "ticks": 27139,
		  "time": 26.5029296875,
		  "velocity": 0.3937007874015748
		},
		{
		  "duration": 0.09375,
		  "durationTicks": 96,
		  "midi": 46,
		  "name": "A#2",
		  "ticks": 27219,
		  "time": 26.5810546875,
		  "velocity": 0.3937007874015748
		},
		{
		  "duration": 0.09375,
		  "durationTicks": 96,
		  "midi": 85,
		  "name": "C#6",
		  "ticks": 27239,
		  "time": 26.6005859375,
		  "velocity": 0.3937007874015748
		},
		{
		  "duration": 0.09375,
		  "durationTicks": 96,
		  "midi": 76,
		  "name": "E5",
		  "ticks": 27335,
		  "time": 26.6943359375,
		  "velocity": 0.3937007874015748
		},
		{
		  "duration": 0.09375,
		  "durationTicks": 96,
		  "midi": 49,
		  "name": "C#3",
		  "ticks": 27411,
		  "time": 26.7685546875,
		  "velocity": 0.3937007874015748
		},
		{
		  "duration": 0.09375,
		  "durationTicks": 96,
		  "midi": 79,
		  "name": "G5",
		  "ticks": 27431,
		  "time": 26.7880859375,
		  "velocity": 0.3937007874015748
		},
		{
		  "duration": 0.09375,
		  "durationTicks": 96,
		  "midi": 85,
		  "name": "C#6",
		  "ticks": 27523,
		  "time": 26.8779296875,
		  "velocity": 0.3937007874015748
		},
		{
		  "duration": 0.1875,
		  "durationTicks": 192,
		  "midi": 88,
		  "name": "E6",
		  "ticks": 27607,
		  "time": 26.9599609375,
		  "velocity": 0.3937007874015748
		},
		{
		  "duration": 0.1875,
		  "durationTicks": 192,
		  "midi": 76,
		  "name": "E5",
		  "ticks": 27607,
		  "time": 26.9599609375,
		  "velocity": 0.3937007874015748
		},
		{
		  "duration": 0.1875,
		  "durationTicks": 192,
		  "midi": 46,
		  "name": "A#2",
		  "ticks": 27607,
		  "time": 26.9599609375,
		  "velocity": 0.3937007874015748
		},
		{
		  "duration": 0.1875,
		  "durationTicks": 192,
		  "midi": 34,
		  "name": "A#1",
		  "ticks": 27607,
		  "time": 26.9599609375,
		  "velocity": 0.3937007874015748
		},
		{
		  "duration": 0.1875,
		  "durationTicks": 192,
		  "midi": 76,
		  "name": "E5",
		  "ticks": 27799,
		  "time": 27.1474609375,
		  "velocity": 0.3937007874015748
		},
		{
		  "duration": 0.1875,
		  "durationTicks": 192,
		  "midi": 88,
		  "name": "E6",
		  "ticks": 27799,
		  "time": 27.1474609375,
		  "velocity": 0.3937007874015748
		},
		{
		  "duration": 0.1875,
		  "durationTicks": 192,
		  "midi": 49,
		  "name": "C#3",
		  "ticks": 27799,
		  "time": 27.1474609375,
		  "velocity": 0.3937007874015748
		},
		{
		  "duration": 0.09375,
		  "durationTicks": 96,
		  "midi": 31,
		  "name": "G1",
		  "ticks": 27987,
		  "time": 27.3310546875,
		  "velocity": 0.3937007874015748
		},
		{
		  "duration": 0.09375,
		  "durationTicks": 96,
		  "midi": 51,
		  "name": "D#3",
		  "ticks": 28099,
		  "time": 27.4404296875,
		  "velocity": 0.3937007874015748
		},
		{
		  "duration": 0.09375,
		  "durationTicks": 96,
		  "midi": 51,
		  "name": "D#3",
		  "ticks": 28179,
		  "time": 27.5185546875,
		  "velocity": 0.3937007874015748
		},
		{
		  "duration": 0.09375,
		  "durationTicks": 96,
		  "midi": 58,
		  "name": "A#3",
		  "ticks": 28195,
		  "time": 27.5341796875,
		  "velocity": 0.3937007874015748
		},
		{
		  "duration": 0.09375,
		  "durationTicks": 96,
		  "midi": 61,
		  "name": "C#4",
		  "ticks": 28291,
		  "time": 27.6279296875,
		  "velocity": 0.3937007874015748
		},
		{
		  "duration": 0.09375,
		  "durationTicks": 96,
		  "midi": 43,
		  "name": "G2",
		  "ticks": 28371,
		  "time": 27.7060546875,
		  "velocity": 0.3937007874015748
		},
		{
		  "duration": 0.09375,
		  "durationTicks": 96,
		  "midi": 63,
		  "name": "D#4",
		  "ticks": 28391,
		  "time": 27.7255859375,
		  "velocity": 0.3937007874015748
		},
		{
		  "duration": 0.09375,
		  "durationTicks": 96,
		  "midi": 58,
		  "name": "A#3",
		  "ticks": 28487,
		  "time": 27.8193359375,
		  "velocity": 0.3937007874015748
		},
		{
		  "duration": 0.09375,
		  "durationTicks": 96,
		  "midi": 51,
		  "name": "D#3",
		  "ticks": 28563,
		  "time": 27.8935546875,
		  "velocity": 0.3937007874015748
		},
		{
		  "duration": 0.09375,
		  "durationTicks": 96,
		  "midi": 61,
		  "name": "C#4",
		  "ticks": 28583,
		  "time": 27.9130859375,
		  "velocity": 0.3937007874015748
		},
		{
		  "duration": 0.09375,
		  "durationTicks": 96,
		  "midi": 63,
		  "name": "D#4",
		  "ticks": 28675,
		  "time": 28.0029296875,
		  "velocity": 0.3937007874015748
		},
		{
		  "duration": 0.09375,
		  "durationTicks": 96,
		  "midi": 43,
		  "name": "G2",
		  "ticks": 28759,
		  "time": 28.0849609375,
		  "velocity": 0.3937007874015748
		},
		{
		  "duration": 0.09375,
		  "durationTicks": 96,
		  "midi": 70,
		  "name": "A#4",
		  "ticks": 28771,
		  "time": 28.0966796875,
		  "velocity": 0.3937007874015748
		},
		{
		  "duration": 0.09375,
		  "durationTicks": 96,
		  "midi": 61,
		  "name": "C#4",
		  "ticks": 28867,
		  "time": 28.1904296875,
		  "velocity": 0.3937007874015748
		},
		{
		  "duration": 0.09375,
		  "durationTicks": 96,
		  "midi": 51,
		  "name": "D#3",
		  "ticks": 28951,
		  "time": 28.2724609375,
		  "velocity": 0.3937007874015748
		},
		{
		  "duration": 0.09375,
		  "durationTicks": 96,
		  "midi": 63,
		  "name": "D#4",
		  "ticks": 28963,
		  "time": 28.2841796875,
		  "velocity": 0.3937007874015748
		},
		{
		  "duration": 0.09375,
		  "durationTicks": 96,
		  "midi": 70,
		  "name": "A#4",
		  "ticks": 29059,
		  "time": 28.3779296875,
		  "velocity": 0.3937007874015748
		},
		{
		  "duration": 0.09375,
		  "durationTicks": 96,
		  "midi": 43,
		  "name": "G2",
		  "ticks": 29139,
		  "time": 28.4560546875,
		  "velocity": 0.3937007874015748
		},
		{
		  "duration": 0.09375,
		  "durationTicks": 96,
		  "midi": 73,
		  "name": "C#5",
		  "ticks": 29155,
		  "time": 28.4716796875,
		  "velocity": 0.3937007874015748
		},
		{
		  "duration": 0.09375,
		  "durationTicks": 96,
		  "midi": 63,
		  "name": "D#4",
		  "ticks": 29251,
		  "time": 28.5654296875,
		  "velocity": 0.3937007874015748
		},
		{
		  "duration": 0.09375,
		  "durationTicks": 96,
		  "midi": 51,
		  "name": "D#3",
		  "ticks": 29331,
		  "time": 28.6435546875,
		  "velocity": 0.3937007874015748
		},
		{
		  "duration": 0.09375,
		  "durationTicks": 96,
		  "midi": 70,
		  "name": "A#4",
		  "ticks": 29347,
		  "time": 28.6591796875,
		  "velocity": 0.3937007874015748
		},
		{
		  "duration": 0.09375,
		  "durationTicks": 96,
		  "midi": 73,
		  "name": "C#5",
		  "ticks": 29447,
		  "time": 28.7568359375,
		  "velocity": 0.3937007874015748
		},
		{
		  "duration": 0.09375,
		  "durationTicks": 96,
		  "midi": 43,
		  "name": "G2",
		  "ticks": 29523,
		  "time": 28.8310546875,
		  "velocity": 0.3937007874015748
		},
		{
		  "duration": 0.09375,
		  "durationTicks": 96,
		  "midi": 75,
		  "name": "D#5",
		  "ticks": 29543,
		  "time": 28.8505859375,
		  "velocity": 0.3937007874015748
		},
		{
		  "duration": 0.09375,
		  "durationTicks": 96,
		  "midi": 70,
		  "name": "A#4",
		  "ticks": 29639,
		  "time": 28.9443359375,
		  "velocity": 0.3937007874015748
		},
		{
		  "duration": 0.09375,
		  "durationTicks": 96,
		  "midi": 51,
		  "name": "D#3",
		  "ticks": 29715,
		  "time": 29.0185546875,
		  "velocity": 0.3937007874015748
		},
		{
		  "duration": 0.09375,
		  "durationTicks": 96,
		  "midi": 73,
		  "name": "C#5",
		  "ticks": 29731,
		  "time": 29.0341796875,
		  "velocity": 0.3937007874015748
		},
		{
		  "duration": 0.09375,
		  "durationTicks": 96,
		  "midi": 75,
		  "name": "D#5",
		  "ticks": 29827,
		  "time": 29.1279296875,
		  "velocity": 0.3937007874015748
		},
		{
		  "duration": 0.09375,
		  "durationTicks": 96,
		  "midi": 43,
		  "name": "G2",
		  "ticks": 29911,
		  "time": 29.2099609375,
		  "velocity": 0.3937007874015748
		},
		{
		  "duration": 0.09375,
		  "durationTicks": 96,
		  "midi": 82,
		  "name": "A#5",
		  "ticks": 29923,
		  "time": 29.2216796875,
		  "velocity": 0.3937007874015748
		},
		{
		  "duration": 0.09375,
		  "durationTicks": 96,
		  "midi": 73,
		  "name": "C#5",
		  "ticks": 30019,
		  "time": 29.3154296875,
		  "velocity": 0.3937007874015748
		},
		{
		  "duration": 0.09375,
		  "durationTicks": 96,
		  "midi": 51,
		  "name": "D#3",
		  "ticks": 30103,
		  "time": 29.3974609375,
		  "velocity": 0.3937007874015748
		},
		{
		  "duration": 0.09375,
		  "durationTicks": 96,
		  "midi": 75,
		  "name": "D#5",
		  "ticks": 30115,
		  "time": 29.4091796875,
		  "velocity": 0.3937007874015748
		},
		{
		  "duration": 0.09375,
		  "durationTicks": 96,
		  "midi": 82,
		  "name": "A#5",
		  "ticks": 30211,
		  "time": 29.5029296875,
		  "velocity": 0.3937007874015748
		},
		{
		  "duration": 0.09375,
		  "durationTicks": 96,
		  "midi": 43,
		  "name": "G2",
		  "ticks": 30291,
		  "time": 29.5810546875,
		  "velocity": 0.3937007874015748
		},
		{
		  "duration": 0.09375,
		  "durationTicks": 96,
		  "midi": 85,
		  "name": "C#6",
		  "ticks": 30307,
		  "time": 29.5966796875,
		  "velocity": 0.3937007874015748
		},
		{
		  "duration": 0.09375,
		  "durationTicks": 96,
		  "midi": 82,
		  "name": "A#5",
		  "ticks": 30403,
		  "time": 29.6904296875,
		  "velocity": 0.3937007874015748
		},
		{
		  "duration": 0.09375,
		  "durationTicks": 96,
		  "midi": 51,
		  "name": "D#3",
		  "ticks": 30483,
		  "time": 29.7685546875,
		  "velocity": 0.3937007874015748
		},
		{
		  "duration": 0.09375,
		  "durationTicks": 96,
		  "midi": 75,
		  "name": "D#5",
		  "ticks": 30503,
		  "time": 29.7880859375,
		  "velocity": 0.3937007874015748
		},
		{
		  "duration": 0.09375,
		  "durationTicks": 96,
		  "midi": 73,
		  "name": "C#5",
		  "ticks": 30599,
		  "time": 29.8818359375,
		  "velocity": 0.3937007874015748
		},
		{
		  "duration": 0.09375,
		  "durationTicks": 96,
		  "midi": 43,
		  "name": "G2",
		  "ticks": 30675,
		  "time": 29.9560546875,
		  "velocity": 0.3937007874015748
		},
		{
		  "duration": 0.09375,
		  "durationTicks": 96,
		  "midi": 82,
		  "name": "A#5",
		  "ticks": 30695,
		  "time": 29.9755859375,
		  "velocity": 0.3937007874015748
		},
		{
		  "duration": 0.09375,
		  "durationTicks": 96,
		  "midi": 75,
		  "name": "D#5",
		  "ticks": 30787,
		  "time": 30.0654296875,
		  "velocity": 0.3937007874015748
		},
		{
		  "duration": 0.09375,
		  "durationTicks": 96,
		  "midi": 51,
		  "name": "D#3",
		  "ticks": 30871,
		  "time": 30.1474609375,
		  "velocity": 0.3937007874015748
		},
		{
		  "duration": 0.09375,
		  "durationTicks": 96,
		  "midi": 73,
		  "name": "C#5",
		  "ticks": 30883,
		  "time": 30.1591796875,
		  "velocity": 0.3937007874015748
		},
		{
		  "duration": 0.09375,
		  "durationTicks": 96,
		  "midi": 70,
		  "name": "A#4",
		  "ticks": 30979,
		  "time": 30.2529296875,
		  "velocity": 0.3937007874015748
		},
		{
		  "duration": 0.09375,
		  "durationTicks": 96,
		  "midi": 44,
		  "name": "G#2",
		  "ticks": 31063,
		  "time": 30.3349609375,
		  "velocity": 0.3937007874015748
		},
		{
		  "duration": 0.28125,
		  "durationTicks": 288,
		  "midi": 71,
		  "name": "B4",
		  "ticks": 31075,
		  "time": 30.3466796875,
		  "velocity": 0.3937007874015748
		},
		{
		  "duration": 0.09375,
		  "durationTicks": 96,
		  "midi": 51,
		  "name": "D#3",
		  "ticks": 31171,
		  "time": 30.4404296875,
		  "velocity": 0.3937007874015748
		},
		{
		  "duration": 0.09375,
		  "durationTicks": 96,
		  "midi": 47,
		  "name": "B2",
		  "ticks": 31267,
		  "time": 30.5341796875,
		  "velocity": 0.3937007874015748
		},
		{
		  "duration": 0.09375,
		  "durationTicks": 96,
		  "midi": 51,
		  "name": "D#3",
		  "ticks": 31363,
		  "time": 30.6279296875,
		  "velocity": 0.3937007874015748
		},
		{
		  "duration": 0.75,
		  "durationTicks": 768,
		  "midi": 75,
		  "name": "D#5",
		  "ticks": 31443,
		  "time": 30.7060546875,
		  "velocity": 0.3937007874015748
		},
		{
		  "duration": 0.09375,
		  "durationTicks": 96,
		  "midi": 44,
		  "name": "G#2",
		  "ticks": 31459,
		  "time": 30.7216796875,
		  "velocity": 0.3937007874015748
		},
		{
		  "duration": 0.09375,
		  "durationTicks": 96,
		  "midi": 51,
		  "name": "D#3",
		  "ticks": 31555,
		  "time": 30.8154296875,
		  "velocity": 0.3937007874015748
		},
		{
		  "duration": 0.09375,
		  "durationTicks": 96,
		  "midi": 47,
		  "name": "B2",
		  "ticks": 31655,
		  "time": 30.9130859375,
		  "velocity": 0.3937007874015748
		},
		{
		  "duration": 0.09375,
		  "durationTicks": 96,
		  "midi": 51,
		  "name": "D#3",
		  "ticks": 31751,
		  "time": 31.0068359375,
		  "velocity": 0.3937007874015748
		},
		{
		  "duration": 0.09375,
		  "durationTicks": 96,
		  "midi": 44,
		  "name": "G#2",
		  "ticks": 31847,
		  "time": 31.1005859375,
		  "velocity": 0.3937007874015748
		},
		{
		  "duration": 0.09375,
		  "durationTicks": 96,
		  "midi": 51,
		  "name": "D#3",
		  "ticks": 31939,
		  "time": 31.1904296875,
		  "velocity": 0.3937007874015748
		},
		{
		  "duration": 0.09375,
		  "durationTicks": 96,
		  "midi": 47,
		  "name": "B2",
		  "ticks": 32035,
		  "time": 31.2841796875,
		  "velocity": 0.3937007874015748
		},
		{
		  "duration": 0.09375,
		  "durationTicks": 96,
		  "midi": 51,
		  "name": "D#3",
		  "ticks": 32131,
		  "time": 31.3779296875,
		  "velocity": 0.3937007874015748
		},
		{
		  "duration": 0.28125,
		  "durationTicks": 288,
		  "midi": 71,
		  "name": "B4",
		  "ticks": 32227,
		  "time": 31.4716796875,
		  "velocity": 0.3937007874015748
		},
		{
		  "duration": 0.09375,
		  "durationTicks": 96,
		  "midi": 44,
		  "name": "G#2",
		  "ticks": 32227,
		  "time": 31.4716796875,
		  "velocity": 0.3937007874015748
		},
		{
		  "duration": 0.09375,
		  "durationTicks": 96,
		  "midi": 51,
		  "name": "D#3",
		  "ticks": 32323,
		  "time": 31.5654296875,
		  "velocity": 0.3937007874015748
		},
		{
		  "duration": 0.09375,
		  "durationTicks": 96,
		  "midi": 47,
		  "name": "B2",
		  "ticks": 32419,
		  "time": 31.6591796875,
		  "velocity": 0.3937007874015748
		},
		{
		  "duration": 0.09375,
		  "durationTicks": 96,
		  "midi": 68,
		  "name": "G#4",
		  "ticks": 32515,
		  "time": 31.7529296875,
		  "velocity": 0.3937007874015748
		},
		{
		  "duration": 0.09375,
		  "durationTicks": 96,
		  "midi": 51,
		  "name": "D#3",
		  "ticks": 32515,
		  "time": 31.7529296875,
		  "velocity": 0.3937007874015748
		},
		{
		  "duration": 0.09375,
		  "durationTicks": 96,
		  "midi": 46,
		  "name": "A#2",
		  "ticks": 32611,
		  "time": 31.8466796875,
		  "velocity": 0.3937007874015748
		},
		{
		  "duration": 0.09375,
		  "durationTicks": 96,
		  "midi": 51,
		  "name": "D#3",
		  "ticks": 32711,
		  "time": 31.9443359375,
		  "velocity": 0.3937007874015748
		},
		{
		  "duration": 0.28125,
		  "durationTicks": 288,
		  "midi": 68,
		  "name": "G#4",
		  "ticks": 32731,
		  "time": 31.9638671875,
		  "velocity": 0.3937007874015748
		},
		{
		  "duration": 0.09375,
		  "durationTicks": 96,
		  "midi": 49,
		  "name": "C#3",
		  "ticks": 32807,
		  "time": 32.0380859375,
		  "velocity": 0.3937007874015748
		},
		{
		  "duration": 0.09375,
		  "durationTicks": 96,
		  "midi": 51,
		  "name": "D#3",
		  "ticks": 32903,
		  "time": 32.1318359375,
		  "velocity": 0.3937007874015748
		},
		{
		  "duration": 0.5625,
		  "durationTicks": 576,
		  "midi": 67,
		  "name": "G4",
		  "ticks": 32995,
		  "time": 32.2216796875,
		  "velocity": 0.3937007874015748
		},
		{
		  "duration": 0.09375,
		  "durationTicks": 96,
		  "midi": 46,
		  "name": "A#2",
		  "ticks": 32999,
		  "time": 32.2255859375,
		  "velocity": 0.3937007874015748
		},
		{
		  "duration": 0.09375,
		  "durationTicks": 96,
		  "midi": 51,
		  "name": "D#3",
		  "ticks": 33091,
		  "time": 32.3154296875,
		  "velocity": 0.3937007874015748
		},
		{
		  "duration": 0.09375,
		  "durationTicks": 96,
		  "midi": 49,
		  "name": "C#3",
		  "ticks": 33187,
		  "time": 32.4091796875,
		  "velocity": 0.3937007874015748
		},
		{
		  "duration": 0.09375,
		  "durationTicks": 96,
		  "midi": 51,
		  "name": "D#3",
		  "ticks": 33283,
		  "time": 32.5029296875,
		  "velocity": 0.3937007874015748
		},
		{
		  "duration": 0.09375,
		  "durationTicks": 96,
		  "midi": 46,
		  "name": "A#2",
		  "ticks": 33379,
		  "time": 32.5966796875,
		  "velocity": 0.3937007874015748
		},
		{
		  "duration": 0.09375,
		  "durationTicks": 96,
		  "midi": 51,
		  "name": "D#3",
		  "ticks": 33475,
		  "time": 32.6904296875,
		  "velocity": 0.3937007874015748
		},
		{
		  "duration": 0.1875,
		  "durationTicks": 192,
		  "midi": 67,
		  "name": "G4",
		  "ticks": 33571,
		  "time": 32.7841796875,
		  "velocity": 0.3937007874015748
		},
		{
		  "duration": 0.09375,
		  "durationTicks": 96,
		  "midi": 49,
		  "name": "C#3",
		  "ticks": 33571,
		  "time": 32.7841796875,
		  "velocity": 0.3937007874015748
		},
		{
		  "duration": 0.09375,
		  "durationTicks": 96,
		  "midi": 51,
		  "name": "D#3",
		  "ticks": 33667,
		  "time": 32.8779296875,
		  "velocity": 0.3937007874015748
		},
		{
		  "duration": 0.28125,
		  "durationTicks": 288,
		  "midi": 75,
		  "name": "D#5",
		  "ticks": 33767,
		  "time": 32.9755859375,
		  "velocity": 0.3937007874015748
		},
		{
		  "duration": 0.09375,
		  "durationTicks": 96,
		  "midi": 46,
		  "name": "A#2",
		  "ticks": 33767,
		  "time": 32.9755859375,
		  "velocity": 0.3937007874015748
		},
		{
		  "duration": 0.09375,
		  "durationTicks": 96,
		  "midi": 51,
		  "name": "D#3",
		  "ticks": 33863,
		  "time": 33.0693359375,
		  "velocity": 0.3937007874015748
		},
		{
		  "duration": 0.09375,
		  "durationTicks": 96,
		  "midi": 49,
		  "name": "C#3",
		  "ticks": 33959,
		  "time": 33.1630859375,
		  "velocity": 0.3937007874015748
		},
		{
		  "duration": 0.09375,
		  "durationTicks": 96,
		  "midi": 67,
		  "name": "G4",
		  "ticks": 34051,
		  "time": 33.2529296875,
		  "velocity": 0.3937007874015748
		},
		{
		  "duration": 0.09375,
		  "durationTicks": 96,
		  "midi": 51,
		  "name": "D#3",
		  "ticks": 34055,
		  "time": 33.2568359375,
		  "velocity": 0.3937007874015748
		},
		{
		  "duration": 0.375,
		  "durationTicks": 384,
		  "midi": 70,
		  "name": "A#4",
		  "ticks": 34147,
		  "time": 33.3466796875,
		  "velocity": 0.3937007874015748
		},
		{
		  "duration": 0.09375,
		  "durationTicks": 96,
		  "midi": 47,
		  "name": "B2",
		  "ticks": 34147,
		  "time": 33.3466796875,
		  "velocity": 0.3937007874015748
		},
		{
		  "duration": 0.09375,
		  "durationTicks": 96,
		  "midi": 51,
		  "name": "D#3",
		  "ticks": 34243,
		  "time": 33.4404296875,
		  "velocity": 0.3937007874015748
		},
		{
		  "duration": 0.09375,
		  "durationTicks": 96,
		  "midi": 47,
		  "name": "B2",
		  "ticks": 34339,
		  "time": 33.5341796875,
		  "velocity": 0.3937007874015748
		},
		{
		  "duration": 0.09375,
		  "durationTicks": 96,
		  "midi": 51,
		  "name": "D#3",
		  "ticks": 34435,
		  "time": 33.6279296875,
		  "velocity": 0.3937007874015748
		},
		{
		  "duration": 0.5625,
		  "durationTicks": 576,
		  "midi": 68,
		  "name": "G#4",
		  "ticks": 34531,
		  "time": 33.7216796875,
		  "velocity": 0.3937007874015748
		},
		{
		  "duration": 0.09375,
		  "durationTicks": 96,
		  "midi": 47,
		  "name": "B2",
		  "ticks": 34531,
		  "time": 33.7216796875,
		  "velocity": 0.3937007874015748
		},
		{
		  "duration": 0.09375,
		  "durationTicks": 96,
		  "midi": 51,
		  "name": "D#3",
		  "ticks": 34627,
		  "time": 33.8154296875,
		  "velocity": 0.3937007874015748
		},
		{
		  "duration": 0.09375,
		  "durationTicks": 96,
		  "midi": 47,
		  "name": "B2",
		  "ticks": 34723,
		  "time": 33.9091796875,
		  "velocity": 0.3937007874015748
		},
		{
		  "duration": 0.09375,
		  "durationTicks": 96,
		  "midi": 51,
		  "name": "D#3",
		  "ticks": 34819,
		  "time": 34.0029296875,
		  "velocity": 0.3937007874015748
		},
		{
		  "duration": 0.09375,
		  "durationTicks": 96,
		  "midi": 47,
		  "name": "B2",
		  "ticks": 34919,
		  "time": 34.1005859375,
		  "velocity": 0.3937007874015748
		},
		{
		  "duration": 0.09375,
		  "durationTicks": 96,
		  "midi": 51,
		  "name": "D#3",
		  "ticks": 35015,
		  "time": 34.1943359375,
		  "velocity": 0.3937007874015748
		},
		{
		  "duration": 0.1875,
		  "durationTicks": 192,
		  "midi": 68,
		  "name": "G#4",
		  "ticks": 35111,
		  "time": 34.2880859375,
		  "velocity": 0.3937007874015748
		},
		{
		  "duration": 0.09375,
		  "durationTicks": 96,
		  "midi": 47,
		  "name": "B2",
		  "ticks": 35111,
		  "time": 34.2880859375,
		  "velocity": 0.3937007874015748
		},
		{
		  "duration": 0.09375,
		  "durationTicks": 96,
		  "midi": 51,
		  "name": "D#3",
		  "ticks": 35203,
		  "time": 34.3779296875,
		  "velocity": 0.3937007874015748
		},
		{
		  "duration": 0.28125,
		  "durationTicks": 288,
		  "midi": 75,
		  "name": "D#5",
		  "ticks": 35299,
		  "time": 34.4716796875,
		  "velocity": 0.3937007874015748
		},
		{
		  "duration": 0.09375,
		  "durationTicks": 96,
		  "midi": 47,
		  "name": "B2",
		  "ticks": 35299,
		  "time": 34.4716796875,
		  "velocity": 0.3937007874015748
		},
		{
		  "duration": 0.09375,
		  "durationTicks": 96,
		  "midi": 51,
		  "name": "D#3",
		  "ticks": 35395,
		  "time": 34.5654296875,
		  "velocity": 0.3937007874015748
		},
		{
		  "duration": 0.09375,
		  "durationTicks": 96,
		  "midi": 47,
		  "name": "B2",
		  "ticks": 35491,
		  "time": 34.6591796875,
		  "velocity": 0.3937007874015748
		},
		{
		  "duration": 0.09375,
		  "durationTicks": 96,
		  "midi": 68,
		  "name": "G#4",
		  "ticks": 35587,
		  "time": 34.7529296875,
		  "velocity": 0.3937007874015748
		},
		{
		  "duration": 0.09375,
		  "durationTicks": 96,
		  "midi": 51,
		  "name": "D#3",
		  "ticks": 35587,
		  "time": 34.7529296875,
		  "velocity": 0.3937007874015748
		},
		{
		  "duration": 0.375,
		  "durationTicks": 384,
		  "midi": 71,
		  "name": "B4",
		  "ticks": 35683,
		  "time": 34.8466796875,
		  "velocity": 0.3937007874015748
		},
		{
		  "duration": 0.09375,
		  "durationTicks": 96,
		  "midi": 43,
		  "name": "G2",
		  "ticks": 35683,
		  "time": 34.8466796875,
		  "velocity": 0.3937007874015748
		},
		{
		  "duration": 0.09375,
		  "durationTicks": 96,
		  "midi": 51,
		  "name": "D#3",
		  "ticks": 35779,
		  "time": 34.9404296875,
		  "velocity": 0.3937007874015748
		},
		{
		  "duration": 0.09375,
		  "durationTicks": 96,
		  "midi": 43,
		  "name": "G2",
		  "ticks": 35875,
		  "time": 35.0341796875,
		  "velocity": 0.3937007874015748
		},
		{
		  "duration": 0.09375,
		  "durationTicks": 96,
		  "midi": 51,
		  "name": "D#3",
		  "ticks": 35975,
		  "time": 35.1318359375,
		  "velocity": 0.3937007874015748
		},
		{
		  "duration": 0.5625,
		  "durationTicks": 576,
		  "midi": 70,
		  "name": "A#4",
		  "ticks": 36071,
		  "time": 35.2255859375,
		  "velocity": 0.3937007874015748
		},
		{
		  "duration": 0.09375,
		  "durationTicks": 96,
		  "midi": 43,
		  "name": "G2",
		  "ticks": 36071,
		  "time": 35.2255859375,
		  "velocity": 0.3937007874015748
		},
		{
		  "duration": 0.09375,
		  "durationTicks": 96,
		  "midi": 51,
		  "name": "D#3",
		  "ticks": 36167,
		  "time": 35.3193359375,
		  "velocity": 0.3937007874015748
		},
		{
		  "duration": 0.09375,
		  "durationTicks": 96,
		  "midi": 43,
		  "name": "G2",
		  "ticks": 36259,
		  "time": 35.4091796875,
		  "velocity": 0.3937007874015748
		},
		{
		  "duration": 0.09375,
		  "durationTicks": 96,
		  "midi": 51,
		  "name": "D#3",
		  "ticks": 36355,
		  "time": 35.5029296875,
		  "velocity": 0.3937007874015748
		},
		{
		  "duration": 0.09375,
		  "durationTicks": 96,
		  "midi": 43,
		  "name": "G2",
		  "ticks": 36451,
		  "time": 35.5966796875,
		  "velocity": 0.3937007874015748
		},
		{
		  "duration": 0.09375,
		  "durationTicks": 96,
		  "midi": 51,
		  "name": "D#3",
		  "ticks": 36547,
		  "time": 35.6904296875,
		  "velocity": 0.3937007874015748
		},
		{
		  "duration": 0.1875,
		  "durationTicks": 192,
		  "midi": 70,
		  "name": "A#4",
		  "ticks": 36643,
		  "time": 35.7841796875,
		  "velocity": 0.3937007874015748
		},
		{
		  "duration": 0.09375,
		  "durationTicks": 96,
		  "midi": 43,
		  "name": "G2",
		  "ticks": 36643,
		  "time": 35.7841796875,
		  "velocity": 0.3937007874015748
		},
		{
		  "duration": 0.09375,
		  "durationTicks": 96,
		  "midi": 51,
		  "name": "D#3",
		  "ticks": 36739,
		  "time": 35.8779296875,
		  "velocity": 0.3937007874015748
		},
		{
		  "duration": 0.28125,
		  "durationTicks": 288,
		  "midi": 75,
		  "name": "D#5",
		  "ticks": 36835,
		  "time": 35.9716796875,
		  "velocity": 0.3937007874015748
		},
		{
		  "duration": 0.09375,
		  "durationTicks": 96,
		  "midi": 43,
		  "name": "G2",
		  "ticks": 36835,
		  "time": 35.9716796875,
		  "velocity": 0.3937007874015748
		},
		{
		  "duration": 0.09375,
		  "durationTicks": 96,
		  "midi": 51,
		  "name": "D#3",
		  "ticks": 36931,
		  "time": 36.0654296875,
		  "velocity": 0.3937007874015748
		},
		{
		  "duration": 0.09375,
		  "durationTicks": 96,
		  "midi": 43,
		  "name": "G2",
		  "ticks": 37031,
		  "time": 36.1630859375,
		  "velocity": 0.3937007874015748
		},
		{
		  "duration": 0.09375,
		  "durationTicks": 96,
		  "midi": 70,
		  "name": "A#4",
		  "ticks": 37127,
		  "time": 36.2568359375,
		  "velocity": 0.3937007874015748
		},
		{
		  "duration": 0.09375,
		  "durationTicks": 96,
		  "midi": 51,
		  "name": "D#3",
		  "ticks": 37127,
		  "time": 36.2568359375,
		  "velocity": 0.3937007874015748
		},
		{
		  "duration": 0.1875,
		  "durationTicks": 192,
		  "midi": 71,
		  "name": "B4",
		  "ticks": 37219,
		  "time": 36.3466796875,
		  "velocity": 0.3937007874015748
		},
		{
		  "duration": 0.09375,
		  "durationTicks": 96,
		  "midi": 44,
		  "name": "G#2",
		  "ticks": 37223,
		  "time": 36.3505859375,
		  "velocity": 0.3937007874015748
		},
		{
		  "duration": 0.09375,
		  "durationTicks": 96,
		  "midi": 51,
		  "name": "D#3",
		  "ticks": 37315,
		  "time": 36.4404296875,
		  "velocity": 0.3937007874015748
		},
		{
		  "duration": 0.375,
		  "durationTicks": 384,
		  "midi": 87,
		  "name": "D#6",
		  "ticks": 37399,
		  "time": 36.5224609375,
		  "velocity": 0.3937007874015748
		},
		{
		  "duration": 0.375,
		  "durationTicks": 384,
		  "midi": 75,
		  "name": "D#5",
		  "ticks": 37399,
		  "time": 36.5224609375,
		  "velocity": 0.3937007874015748
		},
		{
		  "duration": 0.09375,
		  "durationTicks": 96,
		  "midi": 47,
		  "name": "B2",
		  "ticks": 37411,
		  "time": 36.5341796875,
		  "velocity": 0.3937007874015748
		},
		{
		  "duration": 0.09375,
		  "durationTicks": 96,
		  "midi": 51,
		  "name": "D#3",
		  "ticks": 37507,
		  "time": 36.6279296875,
		  "velocity": 0.3937007874015748
		},
		{
		  "duration": 0.09375,
		  "durationTicks": 96,
		  "midi": 44,
		  "name": "G#2",
		  "ticks": 37603,
		  "time": 36.7216796875,
		  "velocity": 0.3937007874015748
		},
		{
		  "duration": 0.09375,
		  "durationTicks": 96,
		  "midi": 51,
		  "name": "D#3",
		  "ticks": 37699,
		  "time": 36.8154296875,
		  "velocity": 0.3937007874015748
		},
		{
		  "duration": 0.375,
		  "durationTicks": 384,
		  "midi": 75,
		  "name": "D#5",
		  "ticks": 37795,
		  "time": 36.9091796875,
		  "velocity": 0.3937007874015748
		},
		{
		  "duration": 0.375,
		  "durationTicks": 384,
		  "midi": 87,
		  "name": "D#6",
		  "ticks": 37795,
		  "time": 36.9091796875,
		  "velocity": 0.3937007874015748
		},
		{
		  "duration": 0.09375,
		  "durationTicks": 96,
		  "midi": 47,
		  "name": "B2",
		  "ticks": 37795,
		  "time": 36.9091796875,
		  "velocity": 0.3937007874015748
		},
		{
		  "duration": 0.09375,
		  "durationTicks": 96,
		  "midi": 51,
		  "name": "D#3",
		  "ticks": 37891,
		  "time": 37.0029296875,
		  "velocity": 0.3937007874015748
		},
		{
		  "duration": 0.09375,
		  "durationTicks": 96,
		  "midi": 44,
		  "name": "G#2",
		  "ticks": 37987,
		  "time": 37.0966796875,
		  "velocity": 0.3937007874015748
		},
		{
		  "duration": 0.09375,
		  "durationTicks": 96,
		  "midi": 51,
		  "name": "D#3",
		  "ticks": 38083,
		  "time": 37.1904296875,
		  "velocity": 0.3937007874015748
		},
		{
		  "duration": 0.1875,
		  "durationTicks": 192,
		  "midi": 75,
		  "name": "D#5",
		  "ticks": 38183,
		  "time": 37.2880859375,
		  "velocity": 0.3937007874015748
		},
		{
		  "duration": 0.1875,
		  "durationTicks": 192,
		  "midi": 87,
		  "name": "D#6",
		  "ticks": 38183,
		  "time": 37.2880859375,
		  "velocity": 0.3937007874015748
		},
		{
		  "duration": 0.09375,
		  "durationTicks": 96,
		  "midi": 47,
		  "name": "B2",
		  "ticks": 38183,
		  "time": 37.2880859375,
		  "velocity": 0.3937007874015748
		},
		{
		  "duration": 0.09375,
		  "durationTicks": 96,
		  "midi": 51,
		  "name": "D#3",
		  "ticks": 38279,
		  "time": 37.3818359375,
		  "velocity": 0.3937007874015748
		},
		{
		  "duration": 0.09375,
		  "durationTicks": 96,
		  "midi": 71,
		  "name": "B4",
		  "ticks": 38355,
		  "time": 37.4560546875,
		  "velocity": 0.3937007874015748
		},
		{
		  "duration": 0.09375,
		  "durationTicks": 96,
		  "midi": 83,
		  "name": "B5",
		  "ticks": 38355,
		  "time": 37.4560546875,
		  "velocity": 0.3937007874015748
		},
		{
		  "duration": 0.09375,
		  "durationTicks": 96,
		  "midi": 44,
		  "name": "G#2",
		  "ticks": 38375,
		  "time": 37.4755859375,
		  "velocity": 0.3937007874015748
		},
		{
		  "duration": 0.09375,
		  "durationTicks": 96,
		  "midi": 51,
		  "name": "D#3",
		  "ticks": 38467,
		  "time": 37.5654296875,
		  "velocity": 0.3937007874015748
		},
		{
		  "duration": 0.09375,
		  "durationTicks": 96,
		  "midi": 80,
		  "name": "G#5",
		  "ticks": 38551,
		  "time": 37.6474609375,
		  "velocity": 0.3937007874015748
		},
		{
		  "duration": 0.09375,
		  "durationTicks": 96,
		  "midi": 68,
		  "name": "G#4",
		  "ticks": 38551,
		  "time": 37.6474609375,
		  "velocity": 0.3937007874015748
		},
		{
		  "duration": 0.09375,
		  "durationTicks": 96,
		  "midi": 47,
		  "name": "B2",
		  "ticks": 38563,
		  "time": 37.6591796875,
		  "velocity": 0.3937007874015748
		},
		{
		  "duration": 0.09375,
		  "durationTicks": 96,
		  "midi": 51,
		  "name": "D#3",
		  "ticks": 38659,
		  "time": 37.7529296875,
		  "velocity": 0.3937007874015748
		},
		{
		  "duration": 0.09375,
		  "durationTicks": 96,
		  "midi": 80,
		  "name": "G#5",
		  "ticks": 38743,
		  "time": 37.8349609375,
		  "velocity": 0.3937007874015748
		},
		{
		  "duration": 0.09375,
		  "durationTicks": 96,
		  "midi": 68,
		  "name": "G#4",
		  "ticks": 38743,
		  "time": 37.8349609375,
		  "velocity": 0.3937007874015748
		},
		{
		  "duration": 0.09375,
		  "durationTicks": 96,
		  "midi": 46,
		  "name": "A#2",
		  "ticks": 38755,
		  "time": 37.8466796875,
		  "velocity": 0.3937007874015748
		},
		{
		  "duration": 0.09375,
		  "durationTicks": 96,
		  "midi": 51,
		  "name": "D#3",
		  "ticks": 38851,
		  "time": 37.9404296875,
		  "velocity": 0.3937007874015748
		},
		{
		  "duration": 0.375,
		  "durationTicks": 384,
		  "midi": 79,
		  "name": "G5",
		  "ticks": 38931,
		  "time": 38.0185546875,
		  "velocity": 0.3937007874015748
		},
		{
		  "duration": 0.375,
		  "durationTicks": 384,
		  "midi": 67,
		  "name": "G4",
		  "ticks": 38931,
		  "time": 38.0185546875,
		  "velocity": 0.3937007874015748
		},
		{
		  "duration": 0.09375,
		  "durationTicks": 96,
		  "midi": 49,
		  "name": "C#3",
		  "ticks": 38947,
		  "time": 38.0341796875,
		  "velocity": 0.3937007874015748
		},
		{
		  "duration": 0.09375,
		  "durationTicks": 96,
		  "midi": 51,
		  "name": "D#3",
		  "ticks": 39043,
		  "time": 38.1279296875,
		  "velocity": 0.3937007874015748
		},
		{
		  "duration": 0.09375,
		  "durationTicks": 96,
		  "midi": 46,
		  "name": "A#2",
		  "ticks": 39139,
		  "time": 38.2216796875,
		  "velocity": 0.3937007874015748
		},
		{
		  "duration": 0.09375,
		  "durationTicks": 96,
		  "midi": 51,
		  "name": "D#3",
		  "ticks": 39239,
		  "time": 38.3193359375,
		  "velocity": 0.3937007874015748
		},
		{
		  "duration": 0.375,
		  "durationTicks": 384,
		  "midi": 67,
		  "name": "G4",
		  "ticks": 39335,
		  "time": 38.4130859375,
		  "velocity": 0.3937007874015748
		},
		{
		  "duration": 0.375,
		  "durationTicks": 384,
		  "midi": 79,
		  "name": "G5",
		  "ticks": 39335,
		  "time": 38.4130859375,
		  "velocity": 0.3937007874015748
		},
		{
		  "duration": 0.09375,
		  "durationTicks": 96,
		  "midi": 49,
		  "name": "C#3",
		  "ticks": 39335,
		  "time": 38.4130859375,
		  "velocity": 0.3937007874015748
		},
		{
		  "duration": 0.09375,
		  "durationTicks": 96,
		  "midi": 51,
		  "name": "D#3",
		  "ticks": 39431,
		  "time": 38.5068359375,
		  "velocity": 0.3937007874015748
		},
		{
		  "duration": 0.09375,
		  "durationTicks": 96,
		  "midi": 46,
		  "name": "A#2",
		  "ticks": 39523,
		  "time": 38.5966796875,
		  "velocity": 0.3937007874015748
		},
		{
		  "duration": 0.09375,
		  "durationTicks": 96,
		  "midi": 51,
		  "name": "D#3",
		  "ticks": 39619,
		  "time": 38.6904296875,
		  "velocity": 0.3937007874015748
		},
		{
		  "duration": 0.1875,
		  "durationTicks": 192,
		  "midi": 67,
		  "name": "G4",
		  "ticks": 39715,
		  "time": 38.7841796875,
		  "velocity": 0.3937007874015748
		},
		{
		  "duration": 0.1875,
		  "durationTicks": 192,
		  "midi": 79,
		  "name": "G5",
		  "ticks": 39715,
		  "time": 38.7841796875,
		  "velocity": 0.3937007874015748
		},
		{
		  "duration": 0.09375,
		  "durationTicks": 96,
		  "midi": 49,
		  "name": "C#3",
		  "ticks": 39715,
		  "time": 38.7841796875,
		  "velocity": 0.3937007874015748
		},
		{
		  "duration": 0.09375,
		  "durationTicks": 96,
		  "midi": 51,
		  "name": "D#3",
		  "ticks": 39811,
		  "time": 38.8779296875,
		  "velocity": 0.3937007874015748
		},
		{
		  "duration": 0.09375,
		  "durationTicks": 96,
		  "midi": 75,
		  "name": "D#5",
		  "ticks": 39891,
		  "time": 38.9560546875,
		  "velocity": 0.3937007874015748
		},
		{
		  "duration": 0.09375,
		  "durationTicks": 96,
		  "midi": 87,
		  "name": "D#6",
		  "ticks": 39891,
		  "time": 38.9560546875,
		  "velocity": 0.3937007874015748
		},
		{
		  "duration": 0.09375,
		  "durationTicks": 96,
		  "midi": 46,
		  "name": "A#2",
		  "ticks": 39907,
		  "time": 38.9716796875,
		  "velocity": 0.3937007874015748
		},
		{
		  "duration": 0.09375,
		  "durationTicks": 96,
		  "midi": 51,
		  "name": "D#3",
		  "ticks": 40003,
		  "time": 39.0654296875,
		  "velocity": 0.3937007874015748
		},
		{
		  "duration": 0.09375,
		  "durationTicks": 96,
		  "midi": 67,
		  "name": "G4",
		  "ticks": 40083,
		  "time": 39.1435546875,
		  "velocity": 0.3937007874015748
		},
		{
		  "duration": 0.09375,
		  "durationTicks": 96,
		  "midi": 79,
		  "name": "G5",
		  "ticks": 40083,
		  "time": 39.1435546875,
		  "velocity": 0.3937007874015748
		},
		{
		  "duration": 0.09375,
		  "durationTicks": 96,
		  "midi": 49,
		  "name": "C#3",
		  "ticks": 40099,
		  "time": 39.1591796875,
		  "velocity": 0.3937007874015748
		},
		{
		  "duration": 0.09375,
		  "durationTicks": 96,
		  "midi": 51,
		  "name": "D#3",
		  "ticks": 40195,
		  "time": 39.2529296875,
		  "velocity": 0.3937007874015748
		},
		{
		  "duration": 0.09375,
		  "durationTicks": 96,
		  "midi": 70,
		  "name": "A#4",
		  "ticks": 40275,
		  "time": 39.3310546875,
		  "velocity": 0.3937007874015748
		},
		{
		  "duration": 0.09375,
		  "durationTicks": 96,
		  "midi": 82,
		  "name": "A#5",
		  "ticks": 40275,
		  "time": 39.3310546875,
		  "velocity": 0.3937007874015748
		},
		{
		  "duration": 0.09375,
		  "durationTicks": 96,
		  "midi": 47,
		  "name": "B2",
		  "ticks": 40295,
		  "time": 39.3505859375,
		  "velocity": 0.3937007874015748
		},
		{
		  "duration": 0.09375,
		  "durationTicks": 96,
		  "midi": 51,
		  "name": "D#3",
		  "ticks": 40391,
		  "time": 39.4443359375,
		  "velocity": 0.3937007874015748
		},
		{
		  "duration": 0.375,
		  "durationTicks": 384,
		  "midi": 68,
		  "name": "G#4",
		  "ticks": 40467,
		  "time": 39.5185546875,
		  "velocity": 0.3937007874015748
		},
		{
		  "duration": 0.375,
		  "durationTicks": 384,
		  "midi": 80,
		  "name": "G#5",
		  "ticks": 40467,
		  "time": 39.5185546875,
		  "velocity": 0.3937007874015748
		},
		{
		  "duration": 0.09375,
		  "durationTicks": 96,
		  "midi": 47,
		  "name": "B2",
		  "ticks": 40487,
		  "time": 39.5380859375,
		  "velocity": 0.3937007874015748
		},
		{
		  "duration": 0.09375,
		  "durationTicks": 96,
		  "midi": 51,
		  "name": "D#3",
		  "ticks": 40579,
		  "time": 39.6279296875,
		  "velocity": 0.3937007874015748
		},
		{
		  "duration": 0.09375,
		  "durationTicks": 96,
		  "midi": 47,
		  "name": "B2",
		  "ticks": 40675,
		  "time": 39.7216796875,
		  "velocity": 0.3937007874015748
		},
		{
		  "duration": 0.09375,
		  "durationTicks": 96,
		  "midi": 51,
		  "name": "D#3",
		  "ticks": 40771,
		  "time": 39.8154296875,
		  "velocity": 0.3937007874015748
		},
		{
		  "duration": 0.375,
		  "durationTicks": 384,
		  "midi": 68,
		  "name": "G#4",
		  "ticks": 40867,
		  "time": 39.9091796875,
		  "velocity": 0.3937007874015748
		},
		{
		  "duration": 0.375,
		  "durationTicks": 384,
		  "midi": 80,
		  "name": "G#5",
		  "ticks": 40867,
		  "time": 39.9091796875,
		  "velocity": 0.3937007874015748
		},
		{
		  "duration": 0.09375,
		  "durationTicks": 96,
		  "midi": 47,
		  "name": "B2",
		  "ticks": 40867,
		  "time": 39.9091796875,
		  "velocity": 0.3937007874015748
		},
		{
		  "duration": 0.09375,
		  "durationTicks": 96,
		  "midi": 51,
		  "name": "D#3",
		  "ticks": 40963,
		  "time": 40.0029296875,
		  "velocity": 0.3937007874015748
		},
		{
		  "duration": 0.09375,
		  "durationTicks": 96,
		  "midi": 47,
		  "name": "B2",
		  "ticks": 41059,
		  "time": 40.0966796875,
		  "velocity": 0.3937007874015748
		},
		{
		  "duration": 0.09375,
		  "durationTicks": 96,
		  "midi": 51,
		  "name": "D#3",
		  "ticks": 41155,
		  "time": 40.1904296875,
		  "velocity": 0.3937007874015748
		},
		{
		  "duration": 0.1875,
		  "durationTicks": 192,
		  "midi": 68,
		  "name": "G#4",
		  "ticks": 41251,
		  "time": 40.2841796875,
		  "velocity": 0.3937007874015748
		},
		{
		  "duration": 0.1875,
		  "durationTicks": 192,
		  "midi": 80,
		  "name": "G#5",
		  "ticks": 41251,
		  "time": 40.2841796875,
		  "velocity": 0.3937007874015748
		},
		{
		  "duration": 0.09375,
		  "durationTicks": 96,
		  "midi": 47,
		  "name": "B2",
		  "ticks": 41251,
		  "time": 40.2841796875,
		  "velocity": 0.3937007874015748
		},
		{
		  "duration": 0.09375,
		  "durationTicks": 96,
		  "midi": 51,
		  "name": "D#3",
		  "ticks": 41347,
		  "time": 40.3779296875,
		  "velocity": 0.3937007874015748
		},
		{
		  "duration": 0.09375,
		  "durationTicks": 96,
		  "midi": 75,
		  "name": "D#5",
		  "ticks": 41427,
		  "time": 40.4560546875,
		  "velocity": 0.3937007874015748
		},
		{
		  "duration": 0.09375,
		  "durationTicks": 96,
		  "midi": 87,
		  "name": "D#6",
		  "ticks": 41427,
		  "time": 40.4560546875,
		  "velocity": 0.3937007874015748
		},
		{
		  "duration": 0.09375,
		  "durationTicks": 96,
		  "midi": 47,
		  "name": "B2",
		  "ticks": 41447,
		  "time": 40.4755859375,
		  "velocity": 0.3937007874015748
		},
		{
		  "duration": 0.09375,
		  "durationTicks": 96,
		  "midi": 51,
		  "name": "D#3",
		  "ticks": 41543,
		  "time": 40.5693359375,
		  "velocity": 0.3937007874015748
		},
		{
		  "duration": 0.09375,
		  "durationTicks": 96,
		  "midi": 68,
		  "name": "G#4",
		  "ticks": 41619,
		  "time": 40.6435546875,
		  "velocity": 0.3937007874015748
		},
		{
		  "duration": 0.09375,
		  "durationTicks": 96,
		  "midi": 80,
		  "name": "G#5",
		  "ticks": 41619,
		  "time": 40.6435546875,
		  "velocity": 0.3937007874015748
		},
		{
		  "duration": 0.09375,
		  "durationTicks": 96,
		  "midi": 47,
		  "name": "B2",
		  "ticks": 41639,
		  "time": 40.6630859375,
		  "velocity": 0.3937007874015748
		},
		{
		  "duration": 0.09375,
		  "durationTicks": 96,
		  "midi": 51,
		  "name": "D#3",
		  "ticks": 41731,
		  "time": 40.7529296875,
		  "velocity": 0.3937007874015748
		},
		{
		  "duration": 0.09375,
		  "durationTicks": 96,
		  "midi": 71,
		  "name": "B4",
		  "ticks": 41815,
		  "time": 40.8349609375,
		  "velocity": 0.3937007874015748
		},
		{
		  "duration": 0.09375,
		  "durationTicks": 96,
		  "midi": 83,
		  "name": "B5",
		  "ticks": 41815,
		  "time": 40.8349609375,
		  "velocity": 0.3937007874015748
		},
		{
		  "duration": 0.09375,
		  "durationTicks": 96,
		  "midi": 43,
		  "name": "G2",
		  "ticks": 41827,
		  "time": 40.8466796875,
		  "velocity": 0.3937007874015748
		},
		{
		  "duration": 0.09375,
		  "durationTicks": 96,
		  "midi": 51,
		  "name": "D#3",
		  "ticks": 41923,
		  "time": 40.9404296875,
		  "velocity": 0.3937007874015748
		},
		{
		  "duration": 0.375,
		  "durationTicks": 384,
		  "midi": 70,
		  "name": "A#4",
		  "ticks": 42007,
		  "time": 41.0224609375,
		  "velocity": 0.3937007874015748
		},
		{
		  "duration": 0.375,
		  "durationTicks": 384,
		  "midi": 82,
		  "name": "A#5",
		  "ticks": 42007,
		  "time": 41.0224609375,
		  "velocity": 0.3937007874015748
		},
		{
		  "duration": 0.09375,
		  "durationTicks": 96,
		  "midi": 43,
		  "name": "G2",
		  "ticks": 42019,
		  "time": 41.0341796875,
		  "velocity": 0.3937007874015748
		},
		{
		  "duration": 0.09375,
		  "durationTicks": 96,
		  "midi": 51,
		  "name": "D#3",
		  "ticks": 42115,
		  "time": 41.1279296875,
		  "velocity": 0.3937007874015748
		},
		{
		  "duration": 0.09375,
		  "durationTicks": 96,
		  "midi": 43,
		  "name": "G2",
		  "ticks": 42211,
		  "time": 41.2216796875,
		  "velocity": 0.3937007874015748
		},
		{
		  "duration": 0.09375,
		  "durationTicks": 96,
		  "midi": 51,
		  "name": "D#3",
		  "ticks": 42307,
		  "time": 41.3154296875,
		  "velocity": 0.3937007874015748
		},
		{
		  "duration": 0.375,
		  "durationTicks": 384,
		  "midi": 70,
		  "name": "A#4",
		  "ticks": 42403,
		  "time": 41.4091796875,
		  "velocity": 0.3937007874015748
		},
		{
		  "duration": 0.375,
		  "durationTicks": 384,
		  "midi": 82,
		  "name": "A#5",
		  "ticks": 42403,
		  "time": 41.4091796875,
		  "velocity": 0.3937007874015748
		},
		{
		  "duration": 0.09375,
		  "durationTicks": 96,
		  "midi": 43,
		  "name": "G2",
		  "ticks": 42403,
		  "time": 41.4091796875,
		  "velocity": 0.3937007874015748
		},
		{
		  "duration": 0.09375,
		  "durationTicks": 96,
		  "midi": 51,
		  "name": "D#3",
		  "ticks": 42503,
		  "time": 41.5068359375,
		  "velocity": 0.3937007874015748
		},
		{
		  "duration": 0.09375,
		  "durationTicks": 96,
		  "midi": 43,
		  "name": "G2",
		  "ticks": 42599,
		  "time": 41.6005859375,
		  "velocity": 0.3937007874015748
		},
		{
		  "duration": 0.09375,
		  "durationTicks": 96,
		  "midi": 51,
		  "name": "D#3",
		  "ticks": 42695,
		  "time": 41.6943359375,
		  "velocity": 0.3937007874015748
		},
		{
		  "duration": 0.1875,
		  "durationTicks": 192,
		  "midi": 70,
		  "name": "A#4",
		  "ticks": 42787,
		  "time": 41.7841796875,
		  "velocity": 0.3937007874015748
		},
		{
		  "duration": 0.1875,
		  "durationTicks": 192,
		  "midi": 82,
		  "name": "A#5",
		  "ticks": 42787,
		  "time": 41.7841796875,
		  "velocity": 0.3937007874015748
		},
		{
		  "duration": 0.09375,
		  "durationTicks": 96,
		  "midi": 43,
		  "name": "G2",
		  "ticks": 42791,
		  "time": 41.7880859375,
		  "velocity": 0.3937007874015748
		},
		{
		  "duration": 0.09375,
		  "durationTicks": 96,
		  "midi": 51,
		  "name": "D#3",
		  "ticks": 42883,
		  "time": 41.8779296875,
		  "velocity": 0.3937007874015748
		},
		{
		  "duration": 0.09375,
		  "durationTicks": 96,
		  "midi": 75,
		  "name": "D#5",
		  "ticks": 42967,
		  "time": 41.9599609375,
		  "velocity": 0.3937007874015748
		},
		{
		  "duration": 0.09375,
		  "durationTicks": 96,
		  "midi": 87,
		  "name": "D#6",
		  "ticks": 42967,
		  "time": 41.9599609375,
		  "velocity": 0.3937007874015748
		},
		{
		  "duration": 0.09375,
		  "durationTicks": 96,
		  "midi": 43,
		  "name": "G2",
		  "ticks": 42979,
		  "time": 41.9716796875,
		  "velocity": 0.3937007874015748
		},
		{
		  "duration": 0.09375,
		  "durationTicks": 96,
		  "midi": 51,
		  "name": "D#3",
		  "ticks": 43075,
		  "time": 42.0654296875,
		  "velocity": 0.3937007874015748
		},
		{
		  "duration": 0.09375,
		  "durationTicks": 96,
		  "midi": 70,
		  "name": "A#4",
		  "ticks": 43155,
		  "time": 42.1435546875,
		  "velocity": 0.3937007874015748
		},
		{
		  "duration": 0.09375,
		  "durationTicks": 96,
		  "midi": 82,
		  "name": "A#5",
		  "ticks": 43155,
		  "time": 42.1435546875,
		  "velocity": 0.3937007874015748
		},
		{
		  "duration": 0.09375,
		  "durationTicks": 96,
		  "midi": 43,
		  "name": "G2",
		  "ticks": 43171,
		  "time": 42.1591796875,
		  "velocity": 0.3937007874015748
		},
		{
		  "duration": 0.09375,
		  "durationTicks": 96,
		  "midi": 51,
		  "name": "D#3",
		  "ticks": 43267,
		  "time": 42.2529296875,
		  "velocity": 0.3937007874015748
		},
		{
		  "duration": 0.75,
		  "durationTicks": 768,
		  "midi": 72,
		  "name": "C5",
		  "ticks": 43347,
		  "time": 42.3310546875,
		  "velocity": 0.3937007874015748
		},
		{
		  "duration": 0.75,
		  "durationTicks": 768,
		  "midi": 84,
		  "name": "C6",
		  "ticks": 43347,
		  "time": 42.3310546875,
		  "velocity": 0.3937007874015748
		},
		{
		  "duration": 0.09375,
		  "durationTicks": 96,
		  "midi": 42,
		  "name": "F#2",
		  "ticks": 43363,
		  "time": 42.3466796875,
		  "velocity": 0.3937007874015748
		},
		{
		  "duration": 0.09375,
		  "durationTicks": 96,
		  "midi": 51,
		  "name": "D#3",
		  "ticks": 43459,
		  "time": 42.4404296875,
		  "velocity": 0.3937007874015748
		},
		{
		  "duration": 0.09375,
		  "durationTicks": 96,
		  "midi": 44,
		  "name": "G#2",
		  "ticks": 43559,
		  "time": 42.5380859375,
		  "velocity": 0.3937007874015748
		},
		{
		  "duration": 0.09375,
		  "durationTicks": 96,
		  "midi": 51,
		  "name": "D#3",
		  "ticks": 43655,
		  "time": 42.6318359375,
		  "velocity": 0.3937007874015748
		},
		{
		  "duration": 0.09375,
		  "durationTicks": 96,
		  "midi": 42,
		  "name": "F#2",
		  "ticks": 43751,
		  "time": 42.7255859375,
		  "velocity": 0.3937007874015748
		},
		{
		  "duration": 0.09375,
		  "durationTicks": 96,
		  "midi": 51,
		  "name": "D#3",
		  "ticks": 43843,
		  "time": 42.8154296875,
		  "velocity": 0.3937007874015748
		},
		{
		  "duration": 0.09375,
		  "durationTicks": 96,
		  "midi": 44,
		  "name": "G#2",
		  "ticks": 43939,
		  "time": 42.9091796875,
		  "velocity": 0.3937007874015748
		},
		{
		  "duration": 0.09375,
		  "durationTicks": 96,
		  "midi": 51,
		  "name": "D#3",
		  "ticks": 44035,
		  "time": 43.0029296875,
		  "velocity": 0.3937007874015748
		},
		{
		  "duration": 0.75,
		  "durationTicks": 768,
		  "midi": 73,
		  "name": "C#5",
		  "ticks": 44131,
		  "time": 43.0966796875,
		  "velocity": 0.3937007874015748
		},
		{
		  "duration": 0.75,
		  "durationTicks": 768,
		  "midi": 85,
		  "name": "C#6",
		  "ticks": 44131,
		  "time": 43.0966796875,
		  "velocity": 0.3937007874015748
		},
		{
		  "duration": 0.09375,
		  "durationTicks": 96,
		  "midi": 40,
		  "name": "E2",
		  "ticks": 44131,
		  "time": 43.0966796875,
		  "velocity": 0.3937007874015748
		},
		{
		  "duration": 0.09375,
		  "durationTicks": 96,
		  "midi": 49,
		  "name": "C#3",
		  "ticks": 44227,
		  "time": 43.1904296875,
		  "velocity": 0.3937007874015748
		},
		{
		  "duration": 0.09375,
		  "durationTicks": 96,
		  "midi": 44,
		  "name": "G#2",
		  "ticks": 44323,
		  "time": 43.2841796875,
		  "velocity": 0.3937007874015748
		},
		{
		  "duration": 0.09375,
		  "durationTicks": 96,
		  "midi": 49,
		  "name": "C#3",
		  "ticks": 44419,
		  "time": 43.3779296875,
		  "velocity": 0.3937007874015748
		},
		{
		  "duration": 0.09375,
		  "durationTicks": 96,
		  "midi": 40,
		  "name": "E2",
		  "ticks": 44515,
		  "time": 43.4716796875,
		  "velocity": 0.3937007874015748
		},
		{
		  "duration": 0.09375,
		  "durationTicks": 96,
		  "midi": 49,
		  "name": "C#3",
		  "ticks": 44615,
		  "time": 43.5693359375,
		  "velocity": 0.3937007874015748
		},
		{
		  "duration": 0.09375,
		  "durationTicks": 96,
		  "midi": 44,
		  "name": "G#2",
		  "ticks": 44711,
		  "time": 43.6630859375,
		  "velocity": 0.3937007874015748
		},
		{
		  "duration": 0.09375,
		  "durationTicks": 96,
		  "midi": 49,
		  "name": "C#3",
		  "ticks": 44807,
		  "time": 43.7568359375,
		  "velocity": 0.3937007874015748
		},
		{
		  "duration": 0.375,
		  "durationTicks": 384,
		  "midi": 70,
		  "name": "A#4",
		  "ticks": 44903,
		  "time": 43.8505859375,
		  "velocity": 0.3937007874015748
		},
		{
		  "duration": 0.09375,
		  "durationTicks": 96,
		  "midi": 40,
		  "name": "E2",
		  "ticks": 44903,
		  "time": 43.8505859375,
		  "velocity": 0.3937007874015748
		},
		{
		  "duration": 0.09375,
		  "durationTicks": 96,
		  "midi": 49,
		  "name": "C#3",
		  "ticks": 44995,
		  "time": 43.9404296875,
		  "velocity": 0.3937007874015748
		},
		{
		  "duration": 0.09375,
		  "durationTicks": 96,
		  "midi": 42,
		  "name": "F#2",
		  "ticks": 45091,
		  "time": 44.0341796875,
		  "velocity": 0.3937007874015748
		},
		{
		  "duration": 0.09375,
		  "durationTicks": 96,
		  "midi": 49,
		  "name": "C#3",
		  "ticks": 45187,
		  "time": 44.1279296875,
		  "velocity": 0.3937007874015748
		},
		{
		  "duration": 1.125,
		  "durationTicks": 1152,
		  "midi": 71,
		  "name": "B4",
		  "ticks": 45283,
		  "time": 44.2216796875,
		  "velocity": 0.3937007874015748
		},
		{
		  "duration": 1.125,
		  "durationTicks": 1152,
		  "midi": 83,
		  "name": "B5",
		  "ticks": 45283,
		  "time": 44.2216796875,
		  "velocity": 0.3937007874015748
		},
		{
		  "duration": 0.09375,
		  "durationTicks": 96,
		  "midi": 39,
		  "name": "D#2",
		  "ticks": 45283,
		  "time": 44.2216796875,
		  "velocity": 0.3937007874015748
		},
		{
		  "duration": 0.09375,
		  "durationTicks": 96,
		  "midi": 47,
		  "name": "B2",
		  "ticks": 45379,
		  "time": 44.3154296875,
		  "velocity": 0.3937007874015748
		},
		{
		  "duration": 0.09375,
		  "durationTicks": 96,
		  "midi": 42,
		  "name": "F#2",
		  "ticks": 45475,
		  "time": 44.4091796875,
		  "velocity": 0.3937007874015748
		},
		{
		  "duration": 0.09375,
		  "durationTicks": 96,
		  "midi": 47,
		  "name": "B2",
		  "ticks": 45571,
		  "time": 44.5029296875,
		  "velocity": 0.3937007874015748
		},
		{
		  "duration": 0.09375,
		  "durationTicks": 96,
		  "midi": 39,
		  "name": "D#2",
		  "ticks": 45667,
		  "time": 44.5966796875,
		  "velocity": 0.3937007874015748
		},
		{
		  "duration": 0.09375,
		  "durationTicks": 96,
		  "midi": 47,
		  "name": "B2",
		  "ticks": 45767,
		  "time": 44.6943359375,
		  "velocity": 0.3937007874015748
		},
		{
		  "duration": 0.09375,
		  "durationTicks": 96,
		  "midi": 42,
		  "name": "F#2",
		  "ticks": 45863,
		  "time": 44.7880859375,
		  "velocity": 0.3937007874015748
		},
		{
		  "duration": 0.09375,
		  "durationTicks": 96,
		  "midi": 47,
		  "name": "B2",
		  "ticks": 45959,
		  "time": 44.8818359375,
		  "velocity": 0.3937007874015748
		},
		{
		  "duration": 0.09375,
		  "durationTicks": 96,
		  "midi": 39,
		  "name": "D#2",
		  "ticks": 46051,
		  "time": 44.9716796875,
		  "velocity": 0.3937007874015748
		},
		{
		  "duration": 0.09375,
		  "durationTicks": 96,
		  "midi": 47,
		  "name": "B2",
		  "ticks": 46147,
		  "time": 45.0654296875,
		  "velocity": 0.3937007874015748
		},
		{
		  "duration": 0.09375,
		  "durationTicks": 96,
		  "midi": 42,
		  "name": "F#2",
		  "ticks": 46243,
		  "time": 45.1591796875,
		  "velocity": 0.3937007874015748
		},
		{
		  "duration": 0.09375,
		  "durationTicks": 96,
		  "midi": 47,
		  "name": "B2",
		  "ticks": 46339,
		  "time": 45.2529296875,
		  "velocity": 0.3937007874015748
		},
		{
		  "duration": 0.75,
		  "durationTicks": 768,
		  "midi": 68,
		  "name": "G#4",
		  "ticks": 46435,
		  "time": 45.3466796875,
		  "velocity": 0.3937007874015748
		},
		{
		  "duration": 0.75,
		  "durationTicks": 768,
		  "midi": 80,
		  "name": "G#5",
		  "ticks": 46435,
		  "time": 45.3466796875,
		  "velocity": 0.3937007874015748
		},
		{
		  "duration": 0.09375,
		  "durationTicks": 96,
		  "midi": 38,
		  "name": "D2",
		  "ticks": 46435,
		  "time": 45.3466796875,
		  "velocity": 0.3937007874015748
		},
		{
		  "duration": 0.09375,
		  "durationTicks": 96,
		  "midi": 47,
		  "name": "B2",
		  "ticks": 46531,
		  "time": 45.4404296875,
		  "velocity": 0.3937007874015748
		},
		{
		  "duration": 0.09375,
		  "durationTicks": 96,
		  "midi": 40,
		  "name": "E2",
		  "ticks": 46627,
		  "time": 45.5341796875,
		  "velocity": 0.3937007874015748
		},
		{
		  "duration": 0.09375,
		  "durationTicks": 96,
		  "midi": 47,
		  "name": "B2",
		  "ticks": 46723,
		  "time": 45.6279296875,
		  "velocity": 0.3937007874015748
		},
		{
		  "duration": 0.09375,
		  "durationTicks": 96,
		  "midi": 38,
		  "name": "D2",
		  "ticks": 46823,
		  "time": 45.7255859375,
		  "velocity": 0.3937007874015748
		},
		{
		  "duration": 0.09375,
		  "durationTicks": 96,
		  "midi": 47,
		  "name": "B2",
		  "ticks": 46919,
		  "time": 45.8193359375,
		  "velocity": 0.3937007874015748
		},
		{
		  "duration": 0.09375,
		  "durationTicks": 96,
		  "midi": 40,
		  "name": "E2",
		  "ticks": 47015,
		  "time": 45.9130859375,
		  "velocity": 0.3937007874015748
		},
		{
		  "duration": 0.09375,
		  "durationTicks": 96,
		  "midi": 47,
		  "name": "B2",
		  "ticks": 47107,
		  "time": 46.0029296875,
		  "velocity": 0.3937007874015748
		},
		{
		  "duration": 0.75,
		  "durationTicks": 768,
		  "midi": 81,
		  "name": "A5",
		  "ticks": 47203,
		  "time": 46.0966796875,
		  "velocity": 0.3937007874015748
		},
		{
		  "duration": 0.75,
		  "durationTicks": 768,
		  "midi": 69,
		  "name": "A4",
		  "ticks": 47203,
		  "time": 46.0966796875,
		  "velocity": 0.3937007874015748
		},
		{
		  "duration": 0.09375,
		  "durationTicks": 96,
		  "midi": 37,
		  "name": "C#2",
		  "ticks": 47203,
		  "time": 46.0966796875,
		  "velocity": 0.3937007874015748
		},
		{
		  "duration": 0.09375,
		  "durationTicks": 96,
		  "midi": 45,
		  "name": "A2",
		  "ticks": 47299,
		  "time": 46.1904296875,
		  "velocity": 0.3937007874015748
		},
		{
		  "duration": 0.09375,
		  "durationTicks": 96,
		  "midi": 40,
		  "name": "E2",
		  "ticks": 47395,
		  "time": 46.2841796875,
		  "velocity": 0.3937007874015748
		},
		{
		  "duration": 0.09375,
		  "durationTicks": 96,
		  "midi": 45,
		  "name": "A2",
		  "ticks": 47491,
		  "time": 46.3779296875,
		  "velocity": 0.3937007874015748
		},
		{
		  "duration": 0.09375,
		  "durationTicks": 96,
		  "midi": 37,
		  "name": "C#2",
		  "ticks": 47587,
		  "time": 46.4716796875,
		  "velocity": 0.3937007874015748
		},
		{
		  "duration": 0.09375,
		  "durationTicks": 96,
		  "midi": 45,
		  "name": "A2",
		  "ticks": 47683,
		  "time": 46.5654296875,
		  "velocity": 0.3937007874015748
		},
		{
		  "duration": 0.09375,
		  "durationTicks": 96,
		  "midi": 40,
		  "name": "E2",
		  "ticks": 47779,
		  "time": 46.6591796875,
		  "velocity": 0.3937007874015748
		},
		{
		  "duration": 0.09375,
		  "durationTicks": 96,
		  "midi": 45,
		  "name": "A2",
		  "ticks": 47879,
		  "time": 46.7568359375,
		  "velocity": 0.3937007874015748
		},
		{
		  "duration": 0.375,
		  "durationTicks": 384,
		  "midi": 67,
		  "name": "G4",
		  "ticks": 47971,
		  "time": 46.8466796875,
		  "velocity": 0.3937007874015748
		},
		{
		  "duration": 0.09375,
		  "durationTicks": 96,
		  "midi": 37,
		  "name": "C#2",
		  "ticks": 47971,
		  "time": 46.8466796875,
		  "velocity": 0.3937007874015748
		},
		{
		  "duration": 0.09375,
		  "durationTicks": 96,
		  "midi": 46,
		  "name": "A#2",
		  "ticks": 48071,
		  "time": 46.9443359375,
		  "velocity": 0.3937007874015748
		},
		{
		  "duration": 0.09375,
		  "durationTicks": 96,
		  "midi": 39,
		  "name": "D#2",
		  "ticks": 48167,
		  "time": 47.0380859375,
		  "velocity": 0.3937007874015748
		},
		{
		  "duration": 0.09375,
		  "durationTicks": 96,
		  "midi": 46,
		  "name": "A#2",
		  "ticks": 48259,
		  "time": 47.1279296875,
		  "velocity": 0.3937007874015748
		},
		{
		  "duration": 1.1259765625,
		  "durationTicks": 1153,
		  "midi": 68,
		  "name": "G#4",
		  "ticks": 48355,
		  "time": 47.2216796875,
		  "velocity": 0.3937007874015748
		},
		{
		  "duration": 1.1259765625,
		  "durationTicks": 1153,
		  "midi": 80,
		  "name": "G#5",
		  "ticks": 48355,
		  "time": 47.2216796875,
		  "velocity": 0.3937007874015748
		},
		{
		  "duration": 0.09375,
		  "durationTicks": 96,
		  "midi": 35,
		  "name": "B1",
		  "ticks": 48355,
		  "time": 47.2216796875,
		  "velocity": 0.3937007874015748
		},
		{
		  "duration": 0.09375,
		  "durationTicks": 96,
		  "midi": 44,
		  "name": "G#2",
		  "ticks": 48451,
		  "time": 47.3154296875,
		  "velocity": 0.3937007874015748
		},
		{
		  "duration": 0.09375,
		  "durationTicks": 96,
		  "midi": 39,
		  "name": "D#2",
		  "ticks": 48547,
		  "time": 47.4091796875,
		  "velocity": 0.3937007874015748
		},
		{
		  "duration": 0.09375,
		  "durationTicks": 96,
		  "midi": 44,
		  "name": "G#2",
		  "ticks": 48643,
		  "time": 47.5029296875,
		  "velocity": 0.3937007874015748
		},
		{
		  "duration": 0.09375,
		  "durationTicks": 96,
		  "midi": 35,
		  "name": "B1",
		  "ticks": 48739,
		  "time": 47.5966796875,
		  "velocity": 0.3937007874015748
		},
		{
		  "duration": 0.09375,
		  "durationTicks": 96,
		  "midi": 44,
		  "name": "G#2",
		  "ticks": 48835,
		  "time": 47.6904296875,
		  "velocity": 0.3937007874015748
		},
		{
		  "duration": 0.09375,
		  "durationTicks": 96,
		  "midi": 39,
		  "name": "D#2",
		  "ticks": 48931,
		  "time": 47.7841796875,
		  "velocity": 0.3937007874015748
		},
		{
		  "duration": 0.09375,
		  "durationTicks": 96,
		  "midi": 44,
		  "name": "G#2",
		  "ticks": 49027,
		  "time": 47.8779296875,
		  "velocity": 0.3937007874015748
		},
		{
		  "duration": 0.09375,
		  "durationTicks": 96,
		  "midi": 35,
		  "name": "B1",
		  "ticks": 49127,
		  "time": 47.9755859375,
		  "velocity": 0.3937007874015748
		},
		{
		  "duration": 0.09375,
		  "durationTicks": 96,
		  "midi": 44,
		  "name": "G#2",
		  "ticks": 49223,
		  "time": 48.0693359375,
		  "velocity": 0.3937007874015748
		},
		{
		  "duration": 0.09375,
		  "durationTicks": 96,
		  "midi": 39,
		  "name": "D#2",
		  "ticks": 49315,
		  "time": 48.1591796875,
		  "velocity": 0.3937007874015748
		},
		{
		  "duration": 0.0947265625,
		  "durationTicks": 97,
		  "midi": 44,
		  "name": "G#2",
		  "ticks": 49411,
		  "time": 48.2529296875,
		  "velocity": 0.3937007874015748
		},
		{
		  "duration": 1.1259765625,
		  "durationTicks": 1153,
		  "midi": 40,
		  "name": "E2",
		  "ticks": 49495,
		  "time": 48.3349609375,
		  "velocity": 0.3937007874015748
		},
		{
		  "duration": 1.1259765625,
		  "durationTicks": 1153,
		  "midi": 37,
		  "name": "C#2",
		  "ticks": 49495,
		  "time": 48.3349609375,
		  "velocity": 0.3937007874015748
		},
		{
		  "duration": 1.1259765625,
		  "durationTicks": 1153,
		  "midi": 45,
		  "name": "A2",
		  "ticks": 49495,
		  "time": 48.3349609375,
		  "velocity": 0.3937007874015748
		},
		{
		  "duration": 1.1259765625,
		  "durationTicks": 1153,
		  "midi": 49,
		  "name": "C#3",
		  "ticks": 49495,
		  "time": 48.3349609375,
		  "velocity": 0.3937007874015748
		},
		{
		  "duration": 0.84375,
		  "durationTicks": 864,
		  "midi": 81,
		  "name": "A5",
		  "ticks": 49499,
		  "time": 48.3388671875,
		  "velocity": 0.3937007874015748
		},
		{
		  "duration": 0.84375,
		  "durationTicks": 864,
		  "midi": 76,
		  "name": "E5",
		  "ticks": 49499,
		  "time": 48.3388671875,
		  "velocity": 0.3937007874015748
		},
		{
		  "duration": 0.84375,
		  "durationTicks": 864,
		  "midi": 73,
		  "name": "C#5",
		  "ticks": 49499,
		  "time": 48.3388671875,
		  "velocity": 0.3937007874015748
		},
		{
		  "duration": 0.84375,
		  "durationTicks": 864,
		  "midi": 69,
		  "name": "A4",
		  "ticks": 49499,
		  "time": 48.3388671875,
		  "velocity": 0.3937007874015748
		},
		{
		  "duration": 0.09375,
		  "durationTicks": 96,
		  "midi": 76,
		  "name": "E5",
		  "ticks": 50372,
		  "time": 49.19140625,
		  "velocity": 0.3937007874015748
		},
		{
		  "duration": 0.09375,
		  "durationTicks": 96,
		  "midi": 78,
		  "name": "F#5",
		  "ticks": 50468,
		  "time": 49.28515625,
		  "velocity": 0.3937007874015748
		},
		{
		  "duration": 0.09375,
		  "durationTicks": 96,
		  "midi": 80,
		  "name": "G#5",
		  "ticks": 50564,
		  "time": 49.37890625,
		  "velocity": 0.3937007874015748
		},
		{
		  "duration": 0.09375,
		  "durationTicks": 96,
		  "midi": 81,
		  "name": "A5",
		  "ticks": 50660,
		  "time": 49.47265625,
		  "velocity": 0.3937007874015748
		},
		{
		  "duration": 0.09375,
		  "durationTicks": 96,
		  "midi": 83,
		  "name": "B5",
		  "ticks": 50756,
		  "time": 49.56640625,
		  "velocity": 0.3937007874015748
		},
		{
		  "duration": 0.09375,
		  "durationTicks": 96,
		  "midi": 85,
		  "name": "C#6",
		  "ticks": 50852,
		  "time": 49.66015625,
		  "velocity": 0.3937007874015748
		},
		{
		  "duration": 0.09375,
		  "durationTicks": 96,
		  "midi": 83,
		  "name": "B5",
		  "ticks": 50948,
		  "time": 49.75390625,
		  "velocity": 0.3937007874015748
		},
		{
		  "duration": 0.09375,
		  "durationTicks": 96,
		  "midi": 61,
		  "name": "C#4",
		  "ticks": 51028,
		  "time": 49.83203125,
		  "velocity": 0.3937007874015748
		},
		{
		  "duration": 0.09375,
		  "durationTicks": 96,
		  "midi": 69,
		  "name": "A4",
		  "ticks": 51028,
		  "time": 49.83203125,
		  "velocity": 0.3937007874015748
		},
		{
		  "duration": 0.09375,
		  "durationTicks": 96,
		  "midi": 64,
		  "name": "E4",
		  "ticks": 51028,
		  "time": 49.83203125,
		  "velocity": 0.3937007874015748
		},
		{
		  "duration": 0.09375,
		  "durationTicks": 96,
		  "midi": 81,
		  "name": "A5",
		  "ticks": 51044,
		  "time": 49.84765625,
		  "velocity": 0.3937007874015748
		},
		{
		  "duration": 0.09375,
		  "durationTicks": 96,
		  "midi": 76,
		  "name": "E5",
		  "ticks": 51144,
		  "time": 49.9453125,
		  "velocity": 0.3937007874015748
		},
		{
		  "duration": 0.09375,
		  "durationTicks": 96,
		  "midi": 78,
		  "name": "F#5",
		  "ticks": 51240,
		  "time": 50.0390625,
		  "velocity": 0.3937007874015748
		},
		{
		  "duration": 0.09375,
		  "durationTicks": 96,
		  "midi": 80,
		  "name": "G#5",
		  "ticks": 51336,
		  "time": 50.1328125,
		  "velocity": 0.3937007874015748
		},
		{
		  "duration": 0.09375,
		  "durationTicks": 96,
		  "midi": 81,
		  "name": "A5",
		  "ticks": 51432,
		  "time": 50.2265625,
		  "velocity": 0.3937007874015748
		},
		{
		  "duration": 0.09375,
		  "durationTicks": 96,
		  "midi": 83,
		  "name": "B5",
		  "ticks": 51524,
		  "time": 50.31640625,
		  "velocity": 0.3937007874015748
		},
		{
		  "duration": 0.09375,
		  "durationTicks": 96,
		  "midi": 85,
		  "name": "C#6",
		  "ticks": 51620,
		  "time": 50.41015625,
		  "velocity": 0.3937007874015748
		},
		{
		  "duration": 0.09375,
		  "durationTicks": 96,
		  "midi": 83,
		  "name": "B5",
		  "ticks": 51716,
		  "time": 50.50390625,
		  "velocity": 0.3937007874015748
		},
		{
		  "duration": 0.09375,
		  "durationTicks": 96,
		  "midi": 69,
		  "name": "A4",
		  "ticks": 51803,
		  "time": 50.5888671875,
		  "velocity": 0.3937007874015748
		},
		{
		  "duration": 0.09375,
		  "durationTicks": 96,
		  "midi": 64,
		  "name": "E4",
		  "ticks": 51803,
		  "time": 50.5888671875,
		  "velocity": 0.3937007874015748
		},
		{
		  "duration": 0.09375,
		  "durationTicks": 96,
		  "midi": 61,
		  "name": "C#4",
		  "ticks": 51803,
		  "time": 50.5888671875,
		  "velocity": 0.3937007874015748
		},
		{
		  "duration": 0.09375,
		  "durationTicks": 96,
		  "midi": 81,
		  "name": "A5",
		  "ticks": 51812,
		  "time": 50.59765625,
		  "velocity": 0.3937007874015748
		},
		{
		  "duration": 0.09375,
		  "durationTicks": 96,
		  "midi": 76,
		  "name": "E5",
		  "ticks": 51908,
		  "time": 50.69140625,
		  "velocity": 0.3937007874015748
		},
		{
		  "duration": 0.09375,
		  "durationTicks": 96,
		  "midi": 78,
		  "name": "F#5",
		  "ticks": 52004,
		  "time": 50.78515625,
		  "velocity": 0.3937007874015748
		},
		{
		  "duration": 0.09375,
		  "durationTicks": 96,
		  "midi": 80,
		  "name": "G#5",
		  "ticks": 52100,
		  "time": 50.87890625,
		  "velocity": 0.3937007874015748
		},
		{
		  "duration": 0.09375,
		  "durationTicks": 96,
		  "midi": 81,
		  "name": "A5",
		  "ticks": 52196,
		  "time": 50.97265625,
		  "velocity": 0.3937007874015748
		},
		{
		  "duration": 0.09375,
		  "durationTicks": 96,
		  "midi": 83,
		  "name": "B5",
		  "ticks": 52296,
		  "time": 51.0703125,
		  "velocity": 0.3937007874015748
		},
		{
		  "duration": 0.09375,
		  "durationTicks": 96,
		  "midi": 85,
		  "name": "C#6",
		  "ticks": 52392,
		  "time": 51.1640625,
		  "velocity": 0.3937007874015748
		},
		{
		  "duration": 0.09375,
		  "durationTicks": 96,
		  "midi": 83,
		  "name": "B5",
		  "ticks": 52488,
		  "time": 51.2578125,
		  "velocity": 0.3937007874015748
		},
		{
		  "duration": 0.09375,
		  "durationTicks": 96,
		  "midi": 69,
		  "name": "A4",
		  "ticks": 52564,
		  "time": 51.33203125,
		  "velocity": 0.3937007874015748
		},
		{
		  "duration": 0.09375,
		  "durationTicks": 96,
		  "midi": 61,
		  "name": "C#4",
		  "ticks": 52564,
		  "time": 51.33203125,
		  "velocity": 0.3937007874015748
		},
		{
		  "duration": 0.09375,
		  "durationTicks": 96,
		  "midi": 64,
		  "name": "E4",
		  "ticks": 52564,
		  "time": 51.33203125,
		  "velocity": 0.3937007874015748
		},
		{
		  "duration": 0.09375,
		  "durationTicks": 96,
		  "midi": 81,
		  "name": "A5",
		  "ticks": 52580,
		  "time": 51.34765625,
		  "velocity": 0.3937007874015748
		},
		{
		  "duration": 0.09375,
		  "durationTicks": 96,
		  "midi": 76,
		  "name": "E5",
		  "ticks": 52676,
		  "time": 51.44140625,
		  "velocity": 0.3937007874015748
		},
		{
		  "duration": 0.09375,
		  "durationTicks": 96,
		  "midi": 78,
		  "name": "F#5",
		  "ticks": 52772,
		  "time": 51.53515625,
		  "velocity": 0.3937007874015748
		},
		{
		  "duration": 0.09375,
		  "durationTicks": 96,
		  "midi": 80,
		  "name": "G#5",
		  "ticks": 52868,
		  "time": 51.62890625,
		  "velocity": 0.3937007874015748
		},
		{
		  "duration": 0.09375,
		  "durationTicks": 96,
		  "midi": 81,
		  "name": "A5",
		  "ticks": 52964,
		  "time": 51.72265625,
		  "velocity": 0.3937007874015748
		},
		{
		  "duration": 0.09375,
		  "durationTicks": 96,
		  "midi": 61,
		  "name": "C#4",
		  "ticks": 52964,
		  "time": 51.72265625,
		  "velocity": 0.3937007874015748
		},
		{
		  "duration": 0.09375,
		  "durationTicks": 96,
		  "midi": 64,
		  "name": "E4",
		  "ticks": 52964,
		  "time": 51.72265625,
		  "velocity": 0.3937007874015748
		},
		{
		  "duration": 0.09375,
		  "durationTicks": 96,
		  "midi": 69,
		  "name": "A4",
		  "ticks": 52964,
		  "time": 51.72265625,
		  "velocity": 0.3937007874015748
		},
		{
		  "duration": 0.09375,
		  "durationTicks": 96,
		  "midi": 83,
		  "name": "B5",
		  "ticks": 53060,
		  "time": 51.81640625,
		  "velocity": 0.3937007874015748
		},
		{
		  "duration": 0.09375,
		  "durationTicks": 96,
		  "midi": 85,
		  "name": "C#6",
		  "ticks": 53156,
		  "time": 51.91015625,
		  "velocity": 0.3937007874015748
		},
		{
		  "duration": 0.09375,
		  "durationTicks": 96,
		  "midi": 86,
		  "name": "D6",
		  "ticks": 53252,
		  "time": 52.00390625,
		  "velocity": 0.3937007874015748
		},
		{
		  "duration": 0.09375,
		  "durationTicks": 96,
		  "midi": 88,
		  "name": "E6",
		  "ticks": 53352,
		  "time": 52.1015625,
		  "velocity": 0.3937007874015748
		},
		{
		  "duration": 0.09375,
		  "durationTicks": 96,
		  "midi": 61,
		  "name": "C#4",
		  "ticks": 53356,
		  "time": 52.10546875,
		  "velocity": 0.3937007874015748
		},
		{
		  "duration": 0.09375,
		  "durationTicks": 96,
		  "midi": 69,
		  "name": "A4",
		  "ticks": 53356,
		  "time": 52.10546875,
		  "velocity": 0.3937007874015748
		},
		{
		  "duration": 0.09375,
		  "durationTicks": 96,
		  "midi": 64,
		  "name": "E4",
		  "ticks": 53356,
		  "time": 52.10546875,
		  "velocity": 0.3937007874015748
		},
		{
		  "duration": 0.09375,
		  "durationTicks": 96,
		  "midi": 87,
		  "name": "D#6",
		  "ticks": 53448,
		  "time": 52.1953125,
		  "velocity": 0.3937007874015748
		},
		{
		  "duration": 0.09375,
		  "durationTicks": 96,
		  "midi": 88,
		  "name": "E6",
		  "ticks": 53544,
		  "time": 52.2890625,
		  "velocity": 0.3937007874015748
		},
		{
		  "duration": 0.09375,
		  "durationTicks": 96,
		  "midi": 87,
		  "name": "D#6",
		  "ticks": 53636,
		  "time": 52.37890625,
		  "velocity": 0.3937007874015748
		},
		{
		  "duration": 0.09375,
		  "durationTicks": 96,
		  "midi": 88,
		  "name": "E6",
		  "ticks": 53732,
		  "time": 52.47265625,
		  "velocity": 0.3937007874015748
		},
		{
		  "duration": 0.09375,
		  "durationTicks": 96,
		  "midi": 61,
		  "name": "C#4",
		  "ticks": 53732,
		  "time": 52.47265625,
		  "velocity": 0.3937007874015748
		},
		{
		  "duration": 0.09375,
		  "durationTicks": 96,
		  "midi": 64,
		  "name": "E4",
		  "ticks": 53732,
		  "time": 52.47265625,
		  "velocity": 0.3937007874015748
		},
		{
		  "duration": 0.09375,
		  "durationTicks": 96,
		  "midi": 69,
		  "name": "A4",
		  "ticks": 53732,
		  "time": 52.47265625,
		  "velocity": 0.3937007874015748
		},
		{
		  "duration": 0.09375,
		  "durationTicks": 96,
		  "midi": 85,
		  "name": "C#6",
		  "ticks": 53828,
		  "time": 52.56640625,
		  "velocity": 0.3937007874015748
		},
		{
		  "duration": 0.09375,
		  "durationTicks": 96,
		  "midi": 83,
		  "name": "B5",
		  "ticks": 53924,
		  "time": 52.66015625,
		  "velocity": 0.3937007874015748
		},
		{
		  "duration": 0.09375,
		  "durationTicks": 96,
		  "midi": 81,
		  "name": "A5",
		  "ticks": 54020,
		  "time": 52.75390625,
		  "velocity": 0.3937007874015748
		},
		{
		  "duration": 0.75,
		  "durationTicks": 768,
		  "midi": 80,
		  "name": "G#5",
		  "ticks": 54116,
		  "time": 52.84765625,
		  "velocity": 0.3937007874015748
		},
		{
		  "duration": 0.09375,
		  "durationTicks": 96,
		  "midi": 63,
		  "name": "D#4",
		  "ticks": 54116,
		  "time": 52.84765625,
		  "velocity": 0.3937007874015748
		},
		{
		  "duration": 0.09375,
		  "durationTicks": 96,
		  "midi": 71,
		  "name": "B4",
		  "ticks": 54212,
		  "time": 52.94140625,
		  "velocity": 0.3937007874015748
		},
		{
		  "duration": 0.09375,
		  "durationTicks": 96,
		  "midi": 68,
		  "name": "G#4",
		  "ticks": 54308,
		  "time": 53.03515625,
		  "velocity": 0.3937007874015748
		},
		{
		  "duration": 0.09375,
		  "durationTicks": 96,
		  "midi": 71,
		  "name": "B4",
		  "ticks": 54408,
		  "time": 53.1328125,
		  "velocity": 0.3937007874015748
		},
		{
		  "duration": 0.09375,
		  "durationTicks": 96,
		  "midi": 63,
		  "name": "D#4",
		  "ticks": 54504,
		  "time": 53.2265625,
		  "velocity": 0.3937007874015748
		},
		{
		  "duration": 0.09375,
		  "durationTicks": 96,
		  "midi": 71,
		  "name": "B4",
		  "ticks": 54600,
		  "time": 53.3203125,
		  "velocity": 0.3937007874015748
		},
		{
		  "duration": 0.09375,
		  "durationTicks": 96,
		  "midi": 68,
		  "name": "G#4",
		  "ticks": 54692,
		  "time": 53.41015625,
		  "velocity": 0.3937007874015748
		},
		{
		  "duration": 0.09375,
		  "durationTicks": 96,
		  "midi": 71,
		  "name": "B4",
		  "ticks": 54788,
		  "time": 53.50390625,
		  "velocity": 0.3937007874015748
		},
		{
		  "duration": 0.09375,
		  "durationTicks": 96,
		  "midi": 63,
		  "name": "D#4",
		  "ticks": 54884,
		  "time": 53.59765625,
		  "velocity": 0.3937007874015748
		},
		{
		  "duration": 0.09375,
		  "durationTicks": 96,
		  "midi": 73,
		  "name": "C#5",
		  "ticks": 54980,
		  "time": 53.69140625,
		  "velocity": 0.3937007874015748
		},
		{
		  "duration": 0.09375,
		  "durationTicks": 96,
		  "midi": 67,
		  "name": "G4",
		  "ticks": 55076,
		  "time": 53.78515625,
		  "velocity": 0.3937007874015748
		},
		{
		  "duration": 0.09375,
		  "durationTicks": 96,
		  "midi": 73,
		  "name": "C#5",
		  "ticks": 55172,
		  "time": 53.87890625,
		  "velocity": 0.3937007874015748
		},
		{
		  "duration": 0.09375,
		  "durationTicks": 96,
		  "midi": 63,
		  "name": "D#4",
		  "ticks": 55268,
		  "time": 53.97265625,
		  "velocity": 0.3937007874015748
		},
		{
		  "duration": 0.09375,
		  "durationTicks": 96,
		  "midi": 73,
		  "name": "C#5",
		  "ticks": 55364,
		  "time": 54.06640625,
		  "velocity": 0.3937007874015748
		},
		{
		  "duration": 0.09375,
		  "durationTicks": 96,
		  "midi": 80,
		  "name": "G#5",
		  "ticks": 55460,
		  "time": 54.16015625,
		  "velocity": 0.3937007874015748
		},
		{
		  "duration": 0.09375,
		  "durationTicks": 96,
		  "midi": 67,
		  "name": "G4",
		  "ticks": 55460,
		  "time": 54.16015625,
		  "velocity": 0.3937007874015748
		},
		{
		  "duration": 0.09375,
		  "durationTicks": 96,
		  "midi": 82,
		  "name": "A#5",
		  "ticks": 55560,
		  "time": 54.2578125,
		  "velocity": 0.3937007874015748
		},
		{
		  "duration": 0.09375,
		  "durationTicks": 96,
		  "midi": 73,
		  "name": "C#5",
		  "ticks": 55560,
		  "time": 54.2578125,
		  "velocity": 0.3937007874015748
		},
		{
		  "duration": 0.09375,
		  "durationTicks": 96,
		  "midi": 71,
		  "name": "B4",
		  "ticks": 55644,
		  "time": 54.33984375,
		  "velocity": 0.3937007874015748
		},
		{
		  "duration": 0.09375,
		  "durationTicks": 96,
		  "midi": 64,
		  "name": "E4",
		  "ticks": 55644,
		  "time": 54.33984375,
		  "velocity": 0.3937007874015748
		},
		{
		  "duration": 0.09375,
		  "durationTicks": 96,
		  "midi": 68,
		  "name": "G#4",
		  "ticks": 55644,
		  "time": 54.33984375,
		  "velocity": 0.3937007874015748
		},
		{
		  "duration": 0.09375,
		  "durationTicks": 96,
		  "midi": 80,
		  "name": "G#5",
		  "ticks": 55656,
		  "time": 54.3515625,
		  "velocity": 0.3937007874015748
		},
		{
		  "duration": 0.46875,
		  "durationTicks": 480,
		  "midi": 57,
		  "name": "A3",
		  "ticks": 56024,
		  "time": 54.7109375,
		  "velocity": 0.3937007874015748
		},
		{
		  "duration": 0.46875,
		  "durationTicks": 480,
		  "midi": 69,
		  "name": "A4",
		  "ticks": 56024,
		  "time": 54.7109375,
		  "velocity": 0.3937007874015748
		},
		{
		  "duration": 0.46875,
		  "durationTicks": 480,
		  "midi": 64,
		  "name": "E4",
		  "ticks": 56024,
		  "time": 54.7109375,
		  "velocity": 0.3937007874015748
		},
		{
		  "duration": 0.46875,
		  "durationTicks": 480,
		  "midi": 61,
		  "name": "C#4",
		  "ticks": 56024,
		  "time": 54.7109375,
		  "velocity": 0.3937007874015748
		},
		{
		  "duration": 0.7490234375,
		  "durationTicks": 767,
		  "midi": 49,
		  "name": "C#3",
		  "ticks": 56028,
		  "time": 54.71484375,
		  "velocity": 0.3937007874015748
		},
		{
		  "duration": 0.7490234375,
		  "durationTicks": 767,
		  "midi": 45,
		  "name": "A2",
		  "ticks": 56028,
		  "time": 54.71484375,
		  "velocity": 0.3937007874015748
		},
		{
		  "duration": 0.7490234375,
		  "durationTicks": 767,
		  "midi": 40,
		  "name": "E2",
		  "ticks": 56028,
		  "time": 54.71484375,
		  "velocity": 0.3937007874015748
		},
		{
		  "duration": 0.7490234375,
		  "durationTicks": 767,
		  "midi": 37,
		  "name": "C#2",
		  "ticks": 56028,
		  "time": 54.71484375,
		  "velocity": 0.3937007874015748
		},
		{
		  "duration": 0.09375,
		  "durationTicks": 96,
		  "midi": 64,
		  "name": "E4",
		  "ticks": 56516,
		  "time": 55.19140625,
		  "velocity": 0.3937007874015748
		},
		{
		  "duration": 0.09375,
		  "durationTicks": 96,
		  "midi": 66,
		  "name": "F#4",
		  "ticks": 56612,
		  "time": 55.28515625,
		  "velocity": 0.3937007874015748
		},
		{
		  "duration": 0.09375,
		  "durationTicks": 96,
		  "midi": 68,
		  "name": "G#4",
		  "ticks": 56708,
		  "time": 55.37890625,
		  "velocity": 0.3937007874015748
		},
		{
		  "duration": 0.09375,
		  "durationTicks": 96,
		  "midi": 69,
		  "name": "A4",
		  "ticks": 56804,
		  "time": 55.47265625,
		  "velocity": 0.3937007874015748
		},
		{
		  "duration": 0.09375,
		  "durationTicks": 96,
		  "midi": 71,
		  "name": "B4",
		  "ticks": 56900,
		  "time": 55.56640625,
		  "velocity": 0.3937007874015748
		},
		{
		  "duration": 0.09375,
		  "durationTicks": 96,
		  "midi": 73,
		  "name": "C#5",
		  "ticks": 56996,
		  "time": 55.66015625,
		  "velocity": 0.3937007874015748
		},
		{
		  "duration": 0.09375,
		  "durationTicks": 96,
		  "midi": 71,
		  "name": "B4",
		  "ticks": 57092,
		  "time": 55.75390625,
		  "velocity": 0.3937007874015748
		},
		{
		  "duration": 0.09375,
		  "durationTicks": 96,
		  "midi": 69,
		  "name": "A4",
		  "ticks": 57188,
		  "time": 55.84765625,
		  "velocity": 0.3937007874015748
		},
		{
		  "duration": 0.09375,
		  "durationTicks": 96,
		  "midi": 64,
		  "name": "E4",
		  "ticks": 57284,
		  "time": 55.94140625,
		  "velocity": 0.3937007874015748
		},
		{
		  "duration": 0.09375,
		  "durationTicks": 96,
		  "midi": 66,
		  "name": "F#4",
		  "ticks": 57380,
		  "time": 56.03515625,
		  "velocity": 0.3937007874015748
		},
		{
		  "duration": 0.09375,
		  "durationTicks": 96,
		  "midi": 68,
		  "name": "G#4",
		  "ticks": 57476,
		  "time": 56.12890625,
		  "velocity": 0.3937007874015748
		},
		{
		  "duration": 0.09375,
		  "durationTicks": 96,
		  "midi": 57,
		  "name": "A3",
		  "ticks": 57556,
		  "time": 56.20703125,
		  "velocity": 0.3937007874015748
		},
		{
		  "duration": 0.09375,
		  "durationTicks": 96,
		  "midi": 49,
		  "name": "C#3",
		  "ticks": 57556,
		  "time": 56.20703125,
		  "velocity": 0.3937007874015748
		},
		{
		  "duration": 0.09375,
		  "durationTicks": 96,
		  "midi": 52,
		  "name": "E3",
		  "ticks": 57556,
		  "time": 56.20703125,
		  "velocity": 0.3937007874015748
		},
		{
		  "duration": 0.09375,
		  "durationTicks": 96,
		  "midi": 69,
		  "name": "A4",
		  "ticks": 57572,
		  "time": 56.22265625,
		  "velocity": 0.3937007874015748
		},
		{
		  "duration": 0.09375,
		  "durationTicks": 96,
		  "midi": 71,
		  "name": "B4",
		  "ticks": 57668,
		  "time": 56.31640625,
		  "velocity": 0.3937007874015748
		},
		{
		  "duration": 0.09375,
		  "durationTicks": 96,
		  "midi": 73,
		  "name": "C#5",
		  "ticks": 57764,
		  "time": 56.41015625,
		  "velocity": 0.3937007874015748
		},
		{
		  "duration": 0.09375,
		  "durationTicks": 96,
		  "midi": 71,
		  "name": "B4",
		  "ticks": 57860,
		  "time": 56.50390625,
		  "velocity": 0.3937007874015748
		},
		{
		  "duration": 0.09375,
		  "durationTicks": 96,
		  "midi": 69,
		  "name": "A4",
		  "ticks": 57956,
		  "time": 56.59765625,
		  "velocity": 0.3937007874015748
		},
		{
		  "duration": 0.09375,
		  "durationTicks": 96,
		  "midi": 64,
		  "name": "E4",
		  "ticks": 58052,
		  "time": 56.69140625,
		  "velocity": 0.3937007874015748
		},
		{
		  "duration": 0.09375,
		  "durationTicks": 96,
		  "midi": 66,
		  "name": "F#4",
		  "ticks": 58148,
		  "time": 56.78515625,
		  "velocity": 0.3937007874015748
		},
		{
		  "duration": 0.09375,
		  "durationTicks": 96,
		  "midi": 68,
		  "name": "G#4",
		  "ticks": 58244,
		  "time": 56.87890625,
		  "velocity": 0.3937007874015748
		},
		{
		  "duration": 0.09375,
		  "durationTicks": 96,
		  "midi": 49,
		  "name": "C#3",
		  "ticks": 58331,
		  "time": 56.9638671875,
		  "velocity": 0.3937007874015748
		},
		{
		  "duration": 0.09375,
		  "durationTicks": 96,
		  "midi": 52,
		  "name": "E3",
		  "ticks": 58331,
		  "time": 56.9638671875,
		  "velocity": 0.3937007874015748
		},
		{
		  "duration": 0.09375,
		  "durationTicks": 96,
		  "midi": 57,
		  "name": "A3",
		  "ticks": 58331,
		  "time": 56.9638671875,
		  "velocity": 0.3937007874015748
		},
		{
		  "duration": 0.09375,
		  "durationTicks": 96,
		  "midi": 69,
		  "name": "A4",
		  "ticks": 58340,
		  "time": 56.97265625,
		  "velocity": 0.3937007874015748
		},
		{
		  "duration": 0.09375,
		  "durationTicks": 96,
		  "midi": 71,
		  "name": "B4",
		  "ticks": 58436,
		  "time": 57.06640625,
		  "velocity": 0.3937007874015748
		},
		{
		  "duration": 0.09375,
		  "durationTicks": 96,
		  "midi": 73,
		  "name": "C#5",
		  "ticks": 58532,
		  "time": 57.16015625,
		  "velocity": 0.3937007874015748
		},
		{
		  "duration": 0.09375,
		  "durationTicks": 96,
		  "midi": 71,
		  "name": "B4",
		  "ticks": 58628,
		  "time": 57.25390625,
		  "velocity": 0.3937007874015748
		},
		{
		  "duration": 0.09375,
		  "durationTicks": 96,
		  "midi": 69,
		  "name": "A4",
		  "ticks": 58724,
		  "time": 57.34765625,
		  "velocity": 0.3937007874015748
		},
		{
		  "duration": 0.09375,
		  "durationTicks": 96,
		  "midi": 64,
		  "name": "E4",
		  "ticks": 58820,
		  "time": 57.44140625,
		  "velocity": 0.3937007874015748
		},
		{
		  "duration": 0.09375,
		  "durationTicks": 96,
		  "midi": 57,
		  "name": "A3",
		  "ticks": 58900,
		  "time": 57.51953125,
		  "velocity": 0.3937007874015748
		},
		{
		  "duration": 0.09375,
		  "durationTicks": 96,
		  "midi": 49,
		  "name": "C#3",
		  "ticks": 58900,
		  "time": 57.51953125,
		  "velocity": 0.3937007874015748
		},
		{
		  "duration": 0.09375,
		  "durationTicks": 96,
		  "midi": 52,
		  "name": "E3",
		  "ticks": 58900,
		  "time": 57.51953125,
		  "velocity": 0.3937007874015748
		},
		{
		  "duration": 0.09375,
		  "durationTicks": 96,
		  "midi": 66,
		  "name": "F#4",
		  "ticks": 58916,
		  "time": 57.53515625,
		  "velocity": 0.3937007874015748
		},
		{
		  "duration": 0.09375,
		  "durationTicks": 96,
		  "midi": 68,
		  "name": "G#4",
		  "ticks": 59012,
		  "time": 57.62890625,
		  "velocity": 0.3937007874015748
		},
		{
		  "duration": 0.09375,
		  "durationTicks": 96,
		  "midi": 69,
		  "name": "A4",
		  "ticks": 59108,
		  "time": 57.72265625,
		  "velocity": 0.3937007874015748
		},
		{
		  "duration": 0.09375,
		  "durationTicks": 96,
		  "midi": 71,
		  "name": "B4",
		  "ticks": 59204,
		  "time": 57.81640625,
		  "velocity": 0.3937007874015748
		},
		{
		  "duration": 0.09375,
		  "durationTicks": 96,
		  "midi": 49,
		  "name": "C#3",
		  "ticks": 59291,
		  "time": 57.9013671875,
		  "velocity": 0.3937007874015748
		},
		{
		  "duration": 0.09375,
		  "durationTicks": 96,
		  "midi": 52,
		  "name": "E3",
		  "ticks": 59291,
		  "time": 57.9013671875,
		  "velocity": 0.3937007874015748
		},
		{
		  "duration": 0.09375,
		  "durationTicks": 96,
		  "midi": 57,
		  "name": "A3",
		  "ticks": 59291,
		  "time": 57.9013671875,
		  "velocity": 0.3937007874015748
		},
		{
		  "duration": 0.09375,
		  "durationTicks": 96,
		  "midi": 73,
		  "name": "C#5",
		  "ticks": 59300,
		  "time": 57.91015625,
		  "velocity": 0.3937007874015748
		},
		{
		  "duration": 0.09375,
		  "durationTicks": 96,
		  "midi": 71,
		  "name": "B4",
		  "ticks": 59396,
		  "time": 58.00390625,
		  "velocity": 0.3937007874015748
		},
		{
		  "duration": 0.09375,
		  "durationTicks": 96,
		  "midi": 69,
		  "name": "A4",
		  "ticks": 59492,
		  "time": 58.09765625,
		  "velocity": 0.3937007874015748
		},
		{
		  "duration": 0.09375,
		  "durationTicks": 96,
		  "midi": 64,
		  "name": "E4",
		  "ticks": 59588,
		  "time": 58.19140625,
		  "velocity": 0.3937007874015748
		},
		{
		  "duration": 0.09375,
		  "durationTicks": 96,
		  "midi": 49,
		  "name": "C#3",
		  "ticks": 59668,
		  "time": 58.26953125,
		  "velocity": 0.3937007874015748
		},
		{
		  "duration": 0.09375,
		  "durationTicks": 96,
		  "midi": 52,
		  "name": "E3",
		  "ticks": 59668,
		  "time": 58.26953125,
		  "velocity": 0.3937007874015748
		},
		{
		  "duration": 0.09375,
		  "durationTicks": 96,
		  "midi": 57,
		  "name": "A3",
		  "ticks": 59668,
		  "time": 58.26953125,
		  "velocity": 0.3937007874015748
		},
		{
		  "duration": 0.09375,
		  "durationTicks": 96,
		  "midi": 66,
		  "name": "F#4",
		  "ticks": 59684,
		  "time": 58.28515625,
		  "velocity": 0.3937007874015748
		},
		{
		  "duration": 0.09375,
		  "durationTicks": 96,
		  "midi": 68,
		  "name": "G#4",
		  "ticks": 59780,
		  "time": 58.37890625,
		  "velocity": 0.3937007874015748
		},
		{
		  "duration": 0.09375,
		  "durationTicks": 96,
		  "midi": 69,
		  "name": "A4",
		  "ticks": 59876,
		  "time": 58.47265625,
		  "velocity": 0.3937007874015748
		},
		{
		  "duration": 0.09375,
		  "durationTicks": 96,
		  "midi": 71,
		  "name": "B4",
		  "ticks": 59972,
		  "time": 58.56640625,
		  "velocity": 0.3937007874015748
		},
		{
		  "duration": 0.09375,
		  "durationTicks": 96,
		  "midi": 57,
		  "name": "A3",
		  "ticks": 60044,
		  "time": 58.63671875,
		  "velocity": 0.3937007874015748
		},
		{
		  "duration": 0.09375,
		  "durationTicks": 96,
		  "midi": 49,
		  "name": "C#3",
		  "ticks": 60044,
		  "time": 58.63671875,
		  "velocity": 0.3937007874015748
		},
		{
		  "duration": 0.09375,
		  "durationTicks": 96,
		  "midi": 52,
		  "name": "E3",
		  "ticks": 60044,
		  "time": 58.63671875,
		  "velocity": 0.3937007874015748
		},
		{
		  "duration": 0.09375,
		  "durationTicks": 96,
		  "midi": 73,
		  "name": "C#5",
		  "ticks": 60068,
		  "time": 58.66015625,
		  "velocity": 0.3937007874015748
		},
		{
		  "duration": 0.09375,
		  "durationTicks": 96,
		  "midi": 71,
		  "name": "B4",
		  "ticks": 60164,
		  "time": 58.75390625,
		  "velocity": 0.3937007874015748
		},
		{
		  "duration": 0.09375,
		  "durationTicks": 96,
		  "midi": 69,
		  "name": "A4",
		  "ticks": 60260,
		  "time": 58.84765625,
		  "velocity": 0.3937007874015748
		},
		{
		  "duration": 0.09375,
		  "durationTicks": 96,
		  "midi": 57,
		  "name": "A3",
		  "ticks": 60260,
		  "time": 58.84765625,
		  "velocity": 0.3937007874015748
		},
		{
		  "duration": 0.09375,
		  "durationTicks": 96,
		  "midi": 52,
		  "name": "E3",
		  "ticks": 60260,
		  "time": 58.84765625,
		  "velocity": 0.3937007874015748
		},
		{
		  "duration": 0.09375,
		  "durationTicks": 96,
		  "midi": 49,
		  "name": "C#3",
		  "ticks": 60260,
		  "time": 58.84765625,
		  "velocity": 0.3937007874015748
		},
		{
		  "duration": 0.09375,
		  "durationTicks": 96,
		  "midi": 64,
		  "name": "E4",
		  "ticks": 60356,
		  "time": 58.94140625,
		  "velocity": 0.3937007874015748
		},
		{
		  "duration": 0.09375,
		  "durationTicks": 96,
		  "midi": 66,
		  "name": "F#4",
		  "ticks": 60452,
		  "time": 59.03515625,
		  "velocity": 0.3937007874015748
		},
		{
		  "duration": 0.09375,
		  "durationTicks": 96,
		  "midi": 68,
		  "name": "G#4",
		  "ticks": 60548,
		  "time": 59.12890625,
		  "velocity": 0.3937007874015748
		},
		{
		  "duration": 0.09375,
		  "durationTicks": 96,
		  "midi": 69,
		  "name": "A4",
		  "ticks": 60644,
		  "time": 59.22265625,
		  "velocity": 0.3937007874015748
		},
		{
		  "duration": 0.09375,
		  "durationTicks": 96,
		  "midi": 71,
		  "name": "B4",
		  "ticks": 60740,
		  "time": 59.31640625,
		  "velocity": 0.3937007874015748
		},
		{
		  "duration": 0.09375,
		  "durationTicks": 96,
		  "midi": 73,
		  "name": "C#5",
		  "ticks": 60836,
		  "time": 59.41015625,
		  "velocity": 0.3937007874015748
		},
		{
		  "duration": 0.09375,
		  "durationTicks": 96,
		  "midi": 74,
		  "name": "D5",
		  "ticks": 60932,
		  "time": 59.50390625,
		  "velocity": 0.3937007874015748
		},
		{
		  "duration": 0.09375,
		  "durationTicks": 96,
		  "midi": 76,
		  "name": "E5",
		  "ticks": 61028,
		  "time": 59.59765625,
		  "velocity": 0.3937007874015748
		},
		{
		  "duration": 0.09375,
		  "durationTicks": 96,
		  "midi": 78,
		  "name": "F#5",
		  "ticks": 61124,
		  "time": 59.69140625,
		  "velocity": 0.3937007874015748
		},
		{
		  "duration": 0.09375,
		  "durationTicks": 96,
		  "midi": 80,
		  "name": "G#5",
		  "ticks": 61220,
		  "time": 59.78515625,
		  "velocity": 0.3937007874015748
		},
		{
		  "duration": 0.09375,
		  "durationTicks": 96,
		  "midi": 81,
		  "name": "A5",
		  "ticks": 61316,
		  "time": 59.87890625,
		  "velocity": 0.3937007874015748
		},
		{
		  "duration": 0.09375,
		  "durationTicks": 96,
		  "midi": 83,
		  "name": "B5",
		  "ticks": 61412,
		  "time": 59.97265625,
		  "velocity": 0.3937007874015748
		},
		{
		  "duration": 0.09375,
		  "durationTicks": 96,
		  "midi": 85,
		  "name": "C#6",
		  "ticks": 61508,
		  "time": 60.06640625,
		  "velocity": 0.3937007874015748
		},
		{
		  "duration": 0.09375,
		  "durationTicks": 96,
		  "midi": 86,
		  "name": "D6",
		  "ticks": 61604,
		  "time": 60.16015625,
		  "velocity": 0.3937007874015748
		},
		{
		  "duration": 0.09375,
		  "durationTicks": 96,
		  "midi": 87,
		  "name": "D#6",
		  "ticks": 61700,
		  "time": 60.25390625,
		  "velocity": 0.3937007874015748
		},
		{
		  "duration": 0.75,
		  "durationTicks": 768,
		  "midi": 88,
		  "name": "E6",
		  "ticks": 61780,
		  "time": 60.33203125,
		  "velocity": 0.3937007874015748
		},
		{
		  "duration": 0.75,
		  "durationTicks": 768,
		  "midi": 76,
		  "name": "E5",
		  "ticks": 61780,
		  "time": 60.33203125,
		  "velocity": 0.3937007874015748
		},
		{
		  "duration": 0.09375,
		  "durationTicks": 96,
		  "midi": 49,
		  "name": "C#3",
		  "ticks": 61780,
		  "time": 60.33203125,
		  "velocity": 0.3937007874015748
		},
		{
		  "duration": 0.09375,
		  "durationTicks": 96,
		  "midi": 57,
		  "name": "A3",
		  "ticks": 61892,
		  "time": 60.44140625,
		  "velocity": 0.3937007874015748
		},
		{
		  "duration": 0.09375,
		  "durationTicks": 96,
		  "midi": 52,
		  "name": "E3",
		  "ticks": 61992,
		  "time": 60.5390625,
		  "velocity": 0.3937007874015748
		},
		{
		  "duration": 0.09375,
		  "durationTicks": 96,
		  "midi": 57,
		  "name": "A3",
		  "ticks": 62088,
		  "time": 60.6328125,
		  "velocity": 0.3937007874015748
		},
		{
		  "duration": 0.09375,
		  "durationTicks": 96,
		  "midi": 49,
		  "name": "C#3",
		  "ticks": 62184,
		  "time": 60.7265625,
		  "velocity": 0.3937007874015748
		},
		{
		  "duration": 0.09375,
		  "durationTicks": 96,
		  "midi": 57,
		  "name": "A3",
		  "ticks": 62280,
		  "time": 60.8203125,
		  "velocity": 0.3937007874015748
		},
		{
		  "duration": 0.09375,
		  "durationTicks": 96,
		  "midi": 52,
		  "name": "E3",
		  "ticks": 62372,
		  "time": 60.91015625,
		  "velocity": 0.3937007874015748
		},
		{
		  "duration": 0.09375,
		  "durationTicks": 96,
		  "midi": 57,
		  "name": "A3",
		  "ticks": 62468,
		  "time": 61.00390625,
		  "velocity": 0.3937007874015748
		},
		{
		  "duration": 0.75,
		  "durationTicks": 768,
		  "midi": 80,
		  "name": "G#5",
		  "ticks": 62564,
		  "time": 61.09765625,
		  "velocity": 0.3937007874015748
		},
		{
		  "duration": 0.75,
		  "durationTicks": 768,
		  "midi": 68,
		  "name": "G#4",
		  "ticks": 62564,
		  "time": 61.09765625,
		  "velocity": 0.3937007874015748
		},
		{
		  "duration": 0.09375,
		  "durationTicks": 96,
		  "midi": 50,
		  "name": "D3",
		  "ticks": 62564,
		  "time": 61.09765625,
		  "velocity": 0.3937007874015748
		},
		{
		  "duration": 0.09375,
		  "durationTicks": 96,
		  "midi": 59,
		  "name": "B3",
		  "ticks": 62660,
		  "time": 61.19140625,
		  "velocity": 0.3937007874015748
		},
		{
		  "duration": 0.09375,
		  "durationTicks": 96,
		  "midi": 53,
		  "name": "F3",
		  "ticks": 62756,
		  "time": 61.28515625,
		  "velocity": 0.3937007874015748
		},
		{
		  "duration": 0.09375,
		  "durationTicks": 96,
		  "midi": 59,
		  "name": "B3",
		  "ticks": 62852,
		  "time": 61.37890625,
		  "velocity": 0.3937007874015748
		},
		{
		  "duration": 0.09375,
		  "durationTicks": 96,
		  "midi": 50,
		  "name": "D3",
		  "ticks": 62948,
		  "time": 61.47265625,
		  "velocity": 0.3937007874015748
		},
		{
		  "duration": 0.09375,
		  "durationTicks": 96,
		  "midi": 59,
		  "name": "B3",
		  "ticks": 63044,
		  "time": 61.56640625,
		  "velocity": 0.3937007874015748
		},
		{
		  "duration": 0.09375,
		  "durationTicks": 96,
		  "midi": 53,
		  "name": "F3",
		  "ticks": 63144,
		  "time": 61.6640625,
		  "velocity": 0.3937007874015748
		},
		{
		  "duration": 0.09375,
		  "durationTicks": 96,
		  "midi": 59,
		  "name": "B3",
		  "ticks": 63240,
		  "time": 61.7578125,
		  "velocity": 0.3937007874015748
		},
		{
		  "duration": 0.75,
		  "durationTicks": 768,
		  "midi": 83,
		  "name": "B5",
		  "ticks": 63336,
		  "time": 61.8515625,
		  "velocity": 0.3937007874015748
		},
		{
		  "duration": 0.75,
		  "durationTicks": 768,
		  "midi": 71,
		  "name": "B4",
		  "ticks": 63336,
		  "time": 61.8515625,
		  "velocity": 0.3937007874015748
		},
		{
		  "duration": 0.09375,
		  "durationTicks": 96,
		  "midi": 51,
		  "name": "D#3",
		  "ticks": 63336,
		  "time": 61.8515625,
		  "velocity": 0.3937007874015748
		},
		{
		  "duration": 0.09375,
		  "durationTicks": 96,
		  "midi": 59,
		  "name": "B3",
		  "ticks": 63432,
		  "time": 61.9453125,
		  "velocity": 0.3937007874015748
		},
		{
		  "duration": 0.09375,
		  "durationTicks": 96,
		  "midi": 56,
		  "name": "G#3",
		  "ticks": 63524,
		  "time": 62.03515625,
		  "velocity": 0.3937007874015748
		},
		{
		  "duration": 0.09375,
		  "durationTicks": 96,
		  "midi": 59,
		  "name": "B3",
		  "ticks": 63620,
		  "time": 62.12890625,
		  "velocity": 0.3937007874015748
		},
		{
		  "duration": 0.09375,
		  "durationTicks": 96,
		  "midi": 51,
		  "name": "D#3",
		  "ticks": 63716,
		  "time": 62.22265625,
		  "velocity": 0.3937007874015748
		},
		{
		  "duration": 0.09375,
		  "durationTicks": 96,
		  "midi": 59,
		  "name": "B3",
		  "ticks": 63812,
		  "time": 62.31640625,
		  "velocity": 0.3937007874015748
		},
		{
		  "duration": 0.09375,
		  "durationTicks": 96,
		  "midi": 56,
		  "name": "G#3",
		  "ticks": 63908,
		  "time": 62.41015625,
		  "velocity": 0.3937007874015748
		},
		{
		  "duration": 0.09375,
		  "durationTicks": 96,
		  "midi": 59,
		  "name": "B3",
		  "ticks": 64004,
		  "time": 62.50390625,
		  "velocity": 0.3937007874015748
		},
		{
		  "duration": 0.75,
		  "durationTicks": 768,
		  "midi": 61,
		  "name": "C#4",
		  "ticks": 64100,
		  "time": 62.59765625,
		  "velocity": 0.3937007874015748
		},
		{
		  "duration": 0.75,
		  "durationTicks": 768,
		  "midi": 67,
		  "name": "G4",
		  "ticks": 64100,
		  "time": 62.59765625,
		  "velocity": 0.3937007874015748
		},
		{
		  "duration": 0.75,
		  "durationTicks": 768,
		  "midi": 55,
		  "name": "G3",
		  "ticks": 64100,
		  "time": 62.59765625,
		  "velocity": 0.3937007874015748
		},
		{
		  "duration": 0.09375,
		  "durationTicks": 96,
		  "midi": 39,
		  "name": "D#2",
		  "ticks": 64100,
		  "time": 62.59765625,
		  "velocity": 0.3937007874015748
		},
		{
		  "duration": 0.09375,
		  "durationTicks": 96,
		  "midi": 51,
		  "name": "D#3",
		  "ticks": 64200,
		  "time": 62.6953125,
		  "velocity": 0.3937007874015748
		},
		{
		  "duration": 0.09375,
		  "durationTicks": 96,
		  "midi": 50,
		  "name": "D3",
		  "ticks": 64296,
		  "time": 62.7890625,
		  "velocity": 0.3937007874015748
		},
		{
		  "duration": 0.09375,
		  "durationTicks": 96,
		  "midi": 51,
		  "name": "D#3",
		  "ticks": 64392,
		  "time": 62.8828125,
		  "velocity": 0.3937007874015748
		},
		{
		  "duration": 0.09375,
		  "durationTicks": 96,
		  "midi": 50,
		  "name": "D3",
		  "ticks": 64488,
		  "time": 62.9765625,
		  "velocity": 0.3937007874015748
		},
		{
		  "duration": 0.09375,
		  "durationTicks": 96,
		  "midi": 51,
		  "name": "D#3",
		  "ticks": 64580,
		  "time": 63.06640625,
		  "velocity": 0.3937007874015748
		},
		{
		  "duration": 0.09375,
		  "durationTicks": 96,
		  "midi": 50,
		  "name": "D3",
		  "ticks": 64676,
		  "time": 63.16015625,
		  "velocity": 0.3937007874015748
		},
		{
		  "duration": 0.09375,
		  "durationTicks": 96,
		  "midi": 51,
		  "name": "D#3",
		  "ticks": 64772,
		  "time": 63.25390625,
		  "velocity": 0.3937007874015748
		},
		{
		  "duration": 0.1875,
		  "durationTicks": 192,
		  "midi": 56,
		  "name": "G#3",
		  "ticks": 64868,
		  "time": 63.34765625,
		  "velocity": 0.3937007874015748
		},
		{
		  "duration": 0.1875,
		  "durationTicks": 192,
		  "midi": 59,
		  "name": "B3",
		  "ticks": 64868,
		  "time": 63.34765625,
		  "velocity": 0.3937007874015748
		},
		{
		  "duration": 0.1875,
		  "durationTicks": 192,
		  "midi": 68,
		  "name": "G#4",
		  "ticks": 64868,
		  "time": 63.34765625,
		  "velocity": 0.3937007874015748
		},
		{
		  "duration": 0.1875,
		  "durationTicks": 192,
		  "midi": 44,
		  "name": "G#2",
		  "ticks": 64868,
		  "time": 63.34765625,
		  "velocity": 0.3937007874015748
		},
		{
		  "duration": 0.1875,
		  "durationTicks": 192,
		  "midi": 63,
		  "name": "D#4",
		  "ticks": 65060,
		  "time": 63.53515625,
		  "velocity": 0.3937007874015748
		},
		{
		  "duration": 0.1875,
		  "durationTicks": 192,
		  "midi": 71,
		  "name": "B4",
		  "ticks": 65060,
		  "time": 63.53515625,
		  "velocity": 0.3937007874015748
		},
		{
		  "duration": 0.1875,
		  "durationTicks": 192,
		  "midi": 56,
		  "name": "G#3",
		  "ticks": 65060,
		  "time": 63.53515625,
		  "velocity": 0.3937007874015748
		},
		{
		  "duration": 0.1875,
		  "durationTicks": 192,
		  "midi": 71,
		  "name": "B4",
		  "ticks": 65236,
		  "time": 63.70703125,
		  "velocity": 0.3937007874015748
		},
		{
		  "duration": 0.1875,
		  "durationTicks": 192,
		  "midi": 63,
		  "name": "D#4",
		  "ticks": 65236,
		  "time": 63.70703125,
		  "velocity": 0.3937007874015748
		},
		{
		  "duration": 0.1875,
		  "durationTicks": 192,
		  "midi": 56,
		  "name": "G#3",
		  "ticks": 65236,
		  "time": 63.70703125,
		  "velocity": 0.3937007874015748
		},
		{
		  "duration": 0.1875,
		  "durationTicks": 192,
		  "midi": 71,
		  "name": "B4",
		  "ticks": 65428,
		  "time": 63.89453125,
		  "velocity": 0.3937007874015748
		},
		{
		  "duration": 0.1875,
		  "durationTicks": 192,
		  "midi": 63,
		  "name": "D#4",
		  "ticks": 65428,
		  "time": 63.89453125,
		  "velocity": 0.3937007874015748
		},
		{
		  "duration": 0.1875,
		  "durationTicks": 192,
		  "midi": 56,
		  "name": "G#3",
		  "ticks": 65428,
		  "time": 63.89453125,
		  "velocity": 0.3937007874015748
		},
		{
		  "duration": 0.1875,
		  "durationTicks": 192,
		  "midi": 63,
		  "name": "D#4",
		  "ticks": 65624,
		  "time": 64.0859375,
		  "velocity": 0.3937007874015748
		},
		{
		  "duration": 0.1875,
		  "durationTicks": 192,
		  "midi": 71,
		  "name": "B4",
		  "ticks": 65624,
		  "time": 64.0859375,
		  "velocity": 0.3937007874015748
		},
		{
		  "duration": 0.1875,
		  "durationTicks": 192,
		  "midi": 56,
		  "name": "G#3",
		  "ticks": 65624,
		  "time": 64.0859375,
		  "velocity": 0.3937007874015748
		},
		{
		  "duration": 0.1875,
		  "durationTicks": 192,
		  "midi": 63,
		  "name": "D#4",
		  "ticks": 65816,
		  "time": 64.2734375,
		  "velocity": 0.3937007874015748
		},
		{
		  "duration": 0.1875,
		  "durationTicks": 192,
		  "midi": 71,
		  "name": "B4",
		  "ticks": 65816,
		  "time": 64.2734375,
		  "velocity": 0.3937007874015748
		},
		{
		  "duration": 0.1875,
		  "durationTicks": 192,
		  "midi": 56,
		  "name": "G#3",
		  "ticks": 65816,
		  "time": 64.2734375,
		  "velocity": 0.3937007874015748
		},
		{
		  "duration": 0.1875,
		  "durationTicks": 192,
		  "midi": 70,
		  "name": "A#4",
		  "ticks": 66004,
		  "time": 64.45703125,
		  "velocity": 0.3937007874015748
		},
		{
		  "duration": 0.1875,
		  "durationTicks": 192,
		  "midi": 63,
		  "name": "D#4",
		  "ticks": 66004,
		  "time": 64.45703125,
		  "velocity": 0.3937007874015748
		},
		{
		  "duration": 0.1875,
		  "durationTicks": 192,
		  "midi": 58,
		  "name": "A#3",
		  "ticks": 66004,
		  "time": 64.45703125,
		  "velocity": 0.3937007874015748
		},
		{
		  "duration": 0.1875,
		  "durationTicks": 192,
		  "midi": 68,
		  "name": "G#4",
		  "ticks": 66196,
		  "time": 64.64453125,
		  "velocity": 0.3937007874015748
		},
		{
		  "duration": 0.1875,
		  "durationTicks": 192,
		  "midi": 63,
		  "name": "D#4",
		  "ticks": 66196,
		  "time": 64.64453125,
		  "velocity": 0.3937007874015748
		},
		{
		  "duration": 0.1875,
		  "durationTicks": 192,
		  "midi": 59,
		  "name": "B3",
		  "ticks": 66196,
		  "time": 64.64453125,
		  "velocity": 0.3937007874015748
		},
		{
		  "duration": 0.1875,
		  "durationTicks": 192,
		  "midi": 63,
		  "name": "D#4",
		  "ticks": 66388,
		  "time": 64.83203125,
		  "velocity": 0.3937007874015748
		},
		{
		  "duration": 0.1875,
		  "durationTicks": 192,
		  "midi": 67,
		  "name": "G4",
		  "ticks": 66388,
		  "time": 64.83203125,
		  "velocity": 0.3937007874015748
		},
		{
		  "duration": 0.1875,
		  "durationTicks": 192,
		  "midi": 51,
		  "name": "D#3",
		  "ticks": 66388,
		  "time": 64.83203125,
		  "velocity": 0.3937007874015748
		},
		{
		  "duration": 0.1875,
		  "durationTicks": 192,
		  "midi": 61,
		  "name": "C#4",
		  "ticks": 66388,
		  "time": 64.83203125,
		  "velocity": 0.3937007874015748
		},
		{
		  "duration": 0.1875,
		  "durationTicks": 192,
		  "midi": 63,
		  "name": "D#4",
		  "ticks": 66600,
		  "time": 65.0390625,
		  "velocity": 0.3937007874015748
		},
		{
		  "duration": 0.1875,
		  "durationTicks": 192,
		  "midi": 67,
		  "name": "G4",
		  "ticks": 66600,
		  "time": 65.0390625,
		  "velocity": 0.3937007874015748
		},
		{
		  "duration": 0.1875,
		  "durationTicks": 192,
		  "midi": 75,
		  "name": "D#5",
		  "ticks": 66600,
		  "time": 65.0390625,
		  "velocity": 0.3937007874015748
		},
		{
		  "duration": 0.1875,
		  "durationTicks": 192,
		  "midi": 61,
		  "name": "C#4",
		  "ticks": 66600,
		  "time": 65.0390625,
		  "velocity": 0.3937007874015748
		},
		{
		  "duration": 0.1875,
		  "durationTicks": 192,
		  "midi": 63,
		  "name": "D#4",
		  "ticks": 66788,
		  "time": 65.22265625,
		  "velocity": 0.3937007874015748
		},
		{
		  "duration": 0.1875,
		  "durationTicks": 192,
		  "midi": 67,
		  "name": "G4",
		  "ticks": 66788,
		  "time": 65.22265625,
		  "velocity": 0.3937007874015748
		},
		{
		  "duration": 0.1875,
		  "durationTicks": 192,
		  "midi": 75,
		  "name": "D#5",
		  "ticks": 66788,
		  "time": 65.22265625,
		  "velocity": 0.3937007874015748
		},
		{
		  "duration": 0.1875,
		  "durationTicks": 192,
		  "midi": 61,
		  "name": "C#4",
		  "ticks": 66788,
		  "time": 65.22265625,
		  "velocity": 0.3937007874015748
		},
		{
		  "duration": 0.1875,
		  "durationTicks": 192,
		  "midi": 75,
		  "name": "D#5",
		  "ticks": 66980,
		  "time": 65.41015625,
		  "velocity": 0.3937007874015748
		},
		{
		  "duration": 0.1875,
		  "durationTicks": 192,
		  "midi": 67,
		  "name": "G4",
		  "ticks": 66980,
		  "time": 65.41015625,
		  "velocity": 0.3937007874015748
		},
		{
		  "duration": 0.1875,
		  "durationTicks": 192,
		  "midi": 63,
		  "name": "D#4",
		  "ticks": 66980,
		  "time": 65.41015625,
		  "velocity": 0.3937007874015748
		},
		{
		  "duration": 0.1875,
		  "durationTicks": 192,
		  "midi": 61,
		  "name": "C#4",
		  "ticks": 66980,
		  "time": 65.41015625,
		  "velocity": 0.3937007874015748
		},
		{
		  "duration": 0.1875,
		  "durationTicks": 192,
		  "midi": 75,
		  "name": "D#5",
		  "ticks": 67172,
		  "time": 65.59765625,
		  "velocity": 0.3937007874015748
		},
		{
		  "duration": 0.1875,
		  "durationTicks": 192,
		  "midi": 67,
		  "name": "G4",
		  "ticks": 67172,
		  "time": 65.59765625,
		  "velocity": 0.3937007874015748
		},
		{
		  "duration": 0.1875,
		  "durationTicks": 192,
		  "midi": 63,
		  "name": "D#4",
		  "ticks": 67172,
		  "time": 65.59765625,
		  "velocity": 0.3937007874015748
		},
		{
		  "duration": 0.1875,
		  "durationTicks": 192,
		  "midi": 61,
		  "name": "C#4",
		  "ticks": 67172,
		  "time": 65.59765625,
		  "velocity": 0.3937007874015748
		},
		{
		  "duration": 0.1875,
		  "durationTicks": 192,
		  "midi": 63,
		  "name": "D#4",
		  "ticks": 67364,
		  "time": 65.78515625,
		  "velocity": 0.3937007874015748
		},
		{
		  "duration": 0.1875,
		  "durationTicks": 192,
		  "midi": 67,
		  "name": "G4",
		  "ticks": 67364,
		  "time": 65.78515625,
		  "velocity": 0.3937007874015748
		},
		{
		  "duration": 0.1875,
		  "durationTicks": 192,
		  "midi": 75,
		  "name": "D#5",
		  "ticks": 67364,
		  "time": 65.78515625,
		  "velocity": 0.3937007874015748
		},
		{
		  "duration": 0.1875,
		  "durationTicks": 192,
		  "midi": 61,
		  "name": "C#4",
		  "ticks": 67364,
		  "time": 65.78515625,
		  "velocity": 0.3937007874015748
		},
		{
		  "duration": 0.1875,
		  "durationTicks": 192,
		  "midi": 63,
		  "name": "D#4",
		  "ticks": 67560,
		  "time": 65.9765625,
		  "velocity": 0.3937007874015748
		},
		{
		  "duration": 0.1875,
		  "durationTicks": 192,
		  "midi": 75,
		  "name": "D#5",
		  "ticks": 67560,
		  "time": 65.9765625,
		  "velocity": 0.3937007874015748
		},
		{
		  "duration": 0.1875,
		  "durationTicks": 192,
		  "midi": 68,
		  "name": "G#4",
		  "ticks": 67560,
		  "time": 65.9765625,
		  "velocity": 0.3937007874015748
		},
		{
		  "duration": 0.1875,
		  "durationTicks": 192,
		  "midi": 59,
		  "name": "B3",
		  "ticks": 67560,
		  "time": 65.9765625,
		  "velocity": 0.3937007874015748
		},
		{
		  "duration": 0.1875,
		  "durationTicks": 192,
		  "midi": 63,
		  "name": "D#4",
		  "ticks": 67748,
		  "time": 66.16015625,
		  "velocity": 0.3937007874015748
		},
		{
		  "duration": 0.1875,
		  "durationTicks": 192,
		  "midi": 75,
		  "name": "D#5",
		  "ticks": 67748,
		  "time": 66.16015625,
		  "velocity": 0.3937007874015748
		},
		{
		  "duration": 0.1875,
		  "durationTicks": 192,
		  "midi": 70,
		  "name": "A#4",
		  "ticks": 67752,
		  "time": 66.1640625,
		  "velocity": 0.3937007874015748
		},
		{
		  "duration": 0.1875,
		  "durationTicks": 192,
		  "midi": 58,
		  "name": "A#3",
		  "ticks": 67752,
		  "time": 66.1640625,
		  "velocity": 0.3937007874015748
		},
		{
		  "duration": 0.1875,
		  "durationTicks": 192,
		  "midi": 63,
		  "name": "D#4",
		  "ticks": 67940,
		  "time": 66.34765625,
		  "velocity": 0.3937007874015748
		},
		{
		  "duration": 0.1875,
		  "durationTicks": 192,
		  "midi": 75,
		  "name": "D#5",
		  "ticks": 67940,
		  "time": 66.34765625,
		  "velocity": 0.3937007874015748
		},
		{
		  "duration": 0.1875,
		  "durationTicks": 192,
		  "midi": 71,
		  "name": "B4",
		  "ticks": 67940,
		  "time": 66.34765625,
		  "velocity": 0.3937007874015748
		},
		{
		  "duration": 0.1875,
		  "durationTicks": 192,
		  "midi": 56,
		  "name": "G#3",
		  "ticks": 67940,
		  "time": 66.34765625,
		  "velocity": 0.3937007874015748
		},
		{
		  "duration": 0.1875,
		  "durationTicks": 192,
		  "midi": 44,
		  "name": "G#2",
		  "ticks": 67940,
		  "time": 66.34765625,
		  "velocity": 0.3937007874015748
		},
		{
		  "duration": 0.1875,
		  "durationTicks": 192,
		  "midi": 71,
		  "name": "B4",
		  "ticks": 68132,
		  "time": 66.53515625,
		  "velocity": 0.3937007874015748
		},
		{
		  "duration": 0.1875,
		  "durationTicks": 192,
		  "midi": 63,
		  "name": "D#4",
		  "ticks": 68132,
		  "time": 66.53515625,
		  "velocity": 0.3937007874015748
		},
		{
		  "duration": 0.1875,
		  "durationTicks": 192,
		  "midi": 56,
		  "name": "G#3",
		  "ticks": 68132,
		  "time": 66.53515625,
		  "velocity": 0.3937007874015748
		},
		{
		  "duration": 0.1875,
		  "durationTicks": 192,
		  "midi": 71,
		  "name": "B4",
		  "ticks": 68324,
		  "time": 66.72265625,
		  "velocity": 0.3937007874015748
		},
		{
		  "duration": 0.1875,
		  "durationTicks": 192,
		  "midi": 63,
		  "name": "D#4",
		  "ticks": 68324,
		  "time": 66.72265625,
		  "velocity": 0.3937007874015748
		},
		{
		  "duration": 0.1875,
		  "durationTicks": 192,
		  "midi": 56,
		  "name": "G#3",
		  "ticks": 68324,
		  "time": 66.72265625,
		  "velocity": 0.3937007874015748
		},
		{
		  "duration": 0.1875,
		  "durationTicks": 192,
		  "midi": 71,
		  "name": "B4",
		  "ticks": 68520,
		  "time": 66.9140625,
		  "velocity": 0.3937007874015748
		},
		{
		  "duration": 0.1875,
		  "durationTicks": 192,
		  "midi": 63,
		  "name": "D#4",
		  "ticks": 68520,
		  "time": 66.9140625,
		  "velocity": 0.3937007874015748
		},
		{
		  "duration": 0.1875,
		  "durationTicks": 192,
		  "midi": 56,
		  "name": "G#3",
		  "ticks": 68520,
		  "time": 66.9140625,
		  "velocity": 0.3937007874015748
		},
		{
		  "duration": 0.1875,
		  "durationTicks": 192,
		  "midi": 71,
		  "name": "B4",
		  "ticks": 68708,
		  "time": 67.09765625,
		  "velocity": 0.3937007874015748
		},
		{
		  "duration": 0.1875,
		  "durationTicks": 192,
		  "midi": 63,
		  "name": "D#4",
		  "ticks": 68712,
		  "time": 67.1015625,
		  "velocity": 0.3937007874015748
		},
		{
		  "duration": 0.1875,
		  "durationTicks": 192,
		  "midi": 56,
		  "name": "G#3",
		  "ticks": 68712,
		  "time": 67.1015625,
		  "velocity": 0.3937007874015748
		},
		{
		  "duration": 0.1875,
		  "durationTicks": 192,
		  "midi": 71,
		  "name": "B4",
		  "ticks": 68900,
		  "time": 67.28515625,
		  "velocity": 0.3937007874015748
		},
		{
		  "duration": 0.1875,
		  "durationTicks": 192,
		  "midi": 63,
		  "name": "D#4",
		  "ticks": 68900,
		  "time": 67.28515625,
		  "velocity": 0.3937007874015748
		},
		{
		  "duration": 0.1875,
		  "durationTicks": 192,
		  "midi": 56,
		  "name": "G#3",
		  "ticks": 68900,
		  "time": 67.28515625,
		  "velocity": 0.3937007874015748
		},
		{
		  "duration": 0.1875,
		  "durationTicks": 192,
		  "midi": 70,
		  "name": "A#4",
		  "ticks": 69092,
		  "time": 67.47265625,
		  "velocity": 0.3937007874015748
		},
		{
		  "duration": 0.1875,
		  "durationTicks": 192,
		  "midi": 63,
		  "name": "D#4",
		  "ticks": 69092,
		  "time": 67.47265625,
		  "velocity": 0.3937007874015748
		},
		{
		  "duration": 0.1875,
		  "durationTicks": 192,
		  "midi": 58,
		  "name": "A#3",
		  "ticks": 69092,
		  "time": 67.47265625,
		  "velocity": 0.3937007874015748
		},
		{
		  "duration": 0.1875,
		  "durationTicks": 192,
		  "midi": 68,
		  "name": "G#4",
		  "ticks": 69284,
		  "time": 67.66015625,
		  "velocity": 0.3937007874015748
		},
		{
		  "duration": 0.1875,
		  "durationTicks": 192,
		  "midi": 63,
		  "name": "D#4",
		  "ticks": 69284,
		  "time": 67.66015625,
		  "velocity": 0.3937007874015748
		},
		{
		  "duration": 0.1875,
		  "durationTicks": 192,
		  "midi": 59,
		  "name": "B3",
		  "ticks": 69284,
		  "time": 67.66015625,
		  "velocity": 0.3937007874015748
		},
		{
		  "duration": 0.1875,
		  "durationTicks": 192,
		  "midi": 67,
		  "name": "G4",
		  "ticks": 69476,
		  "time": 67.84765625,
		  "velocity": 0.3937007874015748
		},
		{
		  "duration": 0.1875,
		  "durationTicks": 192,
		  "midi": 63,
		  "name": "D#4",
		  "ticks": 69476,
		  "time": 67.84765625,
		  "velocity": 0.3937007874015748
		},
		{
		  "duration": 0.1875,
		  "durationTicks": 192,
		  "midi": 61,
		  "name": "C#4",
		  "ticks": 69476,
		  "time": 67.84765625,
		  "velocity": 0.3937007874015748
		},
		{
		  "duration": 0.1875,
		  "durationTicks": 192,
		  "midi": 51,
		  "name": "D#3",
		  "ticks": 69476,
		  "time": 67.84765625,
		  "velocity": 0.3937007874015748
		},
		{
		  "duration": 0.1875,
		  "durationTicks": 192,
		  "midi": 63,
		  "name": "D#4",
		  "ticks": 69672,
		  "time": 68.0390625,
		  "velocity": 0.3937007874015748
		},
		{
		  "duration": 0.1875,
		  "durationTicks": 192,
		  "midi": 75,
		  "name": "D#5",
		  "ticks": 69672,
		  "time": 68.0390625,
		  "velocity": 0.3937007874015748
		},
		{
		  "duration": 0.1875,
		  "durationTicks": 192,
		  "midi": 67,
		  "name": "G4",
		  "ticks": 69672,
		  "time": 68.0390625,
		  "velocity": 0.3937007874015748
		},
		{
		  "duration": 0.1875,
		  "durationTicks": 192,
		  "midi": 61,
		  "name": "C#4",
		  "ticks": 69672,
		  "time": 68.0390625,
		  "velocity": 0.3937007874015748
		},
		{
		  "duration": 0.1875,
		  "durationTicks": 192,
		  "midi": 75,
		  "name": "D#5",
		  "ticks": 69864,
		  "time": 68.2265625,
		  "velocity": 0.3937007874015748
		},
		{
		  "duration": 0.1875,
		  "durationTicks": 192,
		  "midi": 67,
		  "name": "G4",
		  "ticks": 69864,
		  "time": 68.2265625,
		  "velocity": 0.3937007874015748
		},
		{
		  "duration": 0.1875,
		  "durationTicks": 192,
		  "midi": 63,
		  "name": "D#4",
		  "ticks": 69864,
		  "time": 68.2265625,
		  "velocity": 0.3937007874015748
		},
		{
		  "duration": 0.1875,
		  "durationTicks": 192,
		  "midi": 61,
		  "name": "C#4",
		  "ticks": 69864,
		  "time": 68.2265625,
		  "velocity": 0.3937007874015748
		},
		{
		  "duration": 0.1875,
		  "durationTicks": 192,
		  "midi": 75,
		  "name": "D#5",
		  "ticks": 70052,
		  "time": 68.41015625,
		  "velocity": 0.3937007874015748
		},
		{
		  "duration": 0.1875,
		  "durationTicks": 192,
		  "midi": 67,
		  "name": "G4",
		  "ticks": 70052,
		  "time": 68.41015625,
		  "velocity": 0.3937007874015748
		},
		{
		  "duration": 0.1875,
		  "durationTicks": 192,
		  "midi": 63,
		  "name": "D#4",
		  "ticks": 70052,
		  "time": 68.41015625,
		  "velocity": 0.3937007874015748
		},
		{
		  "duration": 0.1875,
		  "durationTicks": 192,
		  "midi": 61,
		  "name": "C#4",
		  "ticks": 70052,
		  "time": 68.41015625,
		  "velocity": 0.3937007874015748
		},
		{
		  "duration": 0.1875,
		  "durationTicks": 192,
		  "midi": 75,
		  "name": "D#5",
		  "ticks": 70244,
		  "time": 68.59765625,
		  "velocity": 0.3937007874015748
		},
		{
		  "duration": 0.1875,
		  "durationTicks": 192,
		  "midi": 67,
		  "name": "G4",
		  "ticks": 70244,
		  "time": 68.59765625,
		  "velocity": 0.3937007874015748
		},
		{
		  "duration": 0.1875,
		  "durationTicks": 192,
		  "midi": 63,
		  "name": "D#4",
		  "ticks": 70244,
		  "time": 68.59765625,
		  "velocity": 0.3937007874015748
		},
		{
		  "duration": 0.1875,
		  "durationTicks": 192,
		  "midi": 61,
		  "name": "C#4",
		  "ticks": 70244,
		  "time": 68.59765625,
		  "velocity": 0.3937007874015748
		},
		{
		  "duration": 0.1875,
		  "durationTicks": 192,
		  "midi": 75,
		  "name": "D#5",
		  "ticks": 70436,
		  "time": 68.78515625,
		  "velocity": 0.3937007874015748
		},
		{
		  "duration": 0.1875,
		  "durationTicks": 192,
		  "midi": 67,
		  "name": "G4",
		  "ticks": 70436,
		  "time": 68.78515625,
		  "velocity": 0.3937007874015748
		},
		{
		  "duration": 0.1875,
		  "durationTicks": 192,
		  "midi": 63,
		  "name": "D#4",
		  "ticks": 70436,
		  "time": 68.78515625,
		  "velocity": 0.3937007874015748
		},
		{
		  "duration": 0.1875,
		  "durationTicks": 192,
		  "midi": 61,
		  "name": "C#4",
		  "ticks": 70436,
		  "time": 68.78515625,
		  "velocity": 0.3937007874015748
		},
		{
		  "duration": 0.1875,
		  "durationTicks": 192,
		  "midi": 75,
		  "name": "D#5",
		  "ticks": 70628,
		  "time": 68.97265625,
		  "velocity": 0.3937007874015748
		},
		{
		  "duration": 0.1875,
		  "durationTicks": 192,
		  "midi": 68,
		  "name": "G#4",
		  "ticks": 70628,
		  "time": 68.97265625,
		  "velocity": 0.3937007874015748
		},
		{
		  "duration": 0.1875,
		  "durationTicks": 192,
		  "midi": 63,
		  "name": "D#4",
		  "ticks": 70628,
		  "time": 68.97265625,
		  "velocity": 0.3937007874015748
		},
		{
		  "duration": 0.1875,
		  "durationTicks": 192,
		  "midi": 59,
		  "name": "B3",
		  "ticks": 70628,
		  "time": 68.97265625,
		  "velocity": 0.3937007874015748
		},
		{
		  "duration": 0.1875,
		  "durationTicks": 192,
		  "midi": 63,
		  "name": "D#4",
		  "ticks": 70824,
		  "time": 69.1640625,
		  "velocity": 0.3937007874015748
		},
		{
		  "duration": 0.1875,
		  "durationTicks": 192,
		  "midi": 75,
		  "name": "D#5",
		  "ticks": 70824,
		  "time": 69.1640625,
		  "velocity": 0.3937007874015748
		},
		{
		  "duration": 0.1875,
		  "durationTicks": 192,
		  "midi": 70,
		  "name": "A#4",
		  "ticks": 70824,
		  "time": 69.1640625,
		  "velocity": 0.3937007874015748
		},
		{
		  "duration": 0.1875,
		  "durationTicks": 192,
		  "midi": 58,
		  "name": "A#3",
		  "ticks": 70824,
		  "time": 69.1640625,
		  "velocity": 0.3937007874015748
		},
		{
		  "duration": 0.1884765625,
		  "durationTicks": 193,
		  "midi": 63,
		  "name": "D#4",
		  "ticks": 71007,
		  "time": 69.3427734375,
		  "velocity": 0.3937007874015748
		},
		{
		  "duration": 0.1884765625,
		  "durationTicks": 193,
		  "midi": 75,
		  "name": "D#5",
		  "ticks": 71012,
		  "time": 69.34765625,
		  "velocity": 0.3937007874015748
		},
		{
		  "duration": 0.1884765625,
		  "durationTicks": 193,
		  "midi": 71,
		  "name": "B4",
		  "ticks": 71016,
		  "time": 69.3515625,
		  "velocity": 0.3937007874015748
		},
		{
		  "duration": 0.1884765625,
		  "durationTicks": 193,
		  "midi": 56,
		  "name": "G#3",
		  "ticks": 71016,
		  "time": 69.3515625,
		  "velocity": 0.3937007874015748
		},
		{
		  "duration": 0.1884765625,
		  "durationTicks": 193,
		  "midi": 44,
		  "name": "G#2",
		  "ticks": 71016,
		  "time": 69.3515625,
		  "velocity": 0.3937007874015748
		},
		{
		  "duration": 0.1884765625,
		  "durationTicks": 193,
		  "midi": 75,
		  "name": "D#5",
		  "ticks": 71192,
		  "time": 69.5234375,
		  "velocity": 0.3937007874015748
		},
		{
		  "duration": 0.1884765625,
		  "durationTicks": 193,
		  "midi": 71,
		  "name": "B4",
		  "ticks": 71192,
		  "time": 69.5234375,
		  "velocity": 0.3937007874015748
		},
		{
		  "duration": 0.1884765625,
		  "durationTicks": 193,
		  "midi": 59,
		  "name": "B3",
		  "ticks": 71192,
		  "time": 69.5234375,
		  "velocity": 0.3937007874015748
		},
		{
		  "duration": 0.1884765625,
		  "durationTicks": 193,
		  "midi": 56,
		  "name": "G#3",
		  "ticks": 71192,
		  "time": 69.5234375,
		  "velocity": 0.3937007874015748
		},
		{
		  "duration": 0.1875,
		  "durationTicks": 192,
		  "midi": 75,
		  "name": "D#5",
		  "ticks": 71381,
		  "time": 69.7080078125,
		  "velocity": 0.3937007874015748
		},
		{
		  "duration": 0.1875,
		  "durationTicks": 192,
		  "midi": 71,
		  "name": "B4",
		  "ticks": 71385,
		  "time": 69.7119140625,
		  "velocity": 0.3937007874015748
		},
		{
		  "duration": 0.1875,
		  "durationTicks": 192,
		  "midi": 59,
		  "name": "B3",
		  "ticks": 71385,
		  "time": 69.7119140625,
		  "velocity": 0.3937007874015748
		},
		{
		  "duration": 0.1875,
		  "durationTicks": 192,
		  "midi": 56,
		  "name": "G#3",
		  "ticks": 71385,
		  "time": 69.7119140625,
		  "velocity": 0.3937007874015748
		},
		{
		  "duration": 0.1875,
		  "durationTicks": 192,
		  "midi": 71,
		  "name": "B4",
		  "ticks": 71589,
		  "time": 69.9111328125,
		  "velocity": 0.3937007874015748
		},
		{
		  "duration": 0.1875,
		  "durationTicks": 192,
		  "midi": 68,
		  "name": "G#4",
		  "ticks": 71589,
		  "time": 69.9111328125,
		  "velocity": 0.3937007874015748
		},
		{
		  "duration": 0.1875,
		  "durationTicks": 192,
		  "midi": 63,
		  "name": "D#4",
		  "ticks": 71589,
		  "time": 69.9111328125,
		  "velocity": 0.3937007874015748
		},
		{
		  "duration": 0.1875,
		  "durationTicks": 192,
		  "midi": 59,
		  "name": "B3",
		  "ticks": 71589,
		  "time": 69.9111328125,
		  "velocity": 0.3937007874015748
		},
		{
		  "duration": 0.1875,
		  "durationTicks": 192,
		  "midi": 49,
		  "name": "C#3",
		  "ticks": 71785,
		  "time": 70.1025390625,
		  "velocity": 0.3937007874015748
		},
		{
		  "duration": 0.1875,
		  "durationTicks": 192,
		  "midi": 76,
		  "name": "E5",
		  "ticks": 71957,
		  "time": 70.2705078125,
		  "velocity": 0.3937007874015748
		},
		{
		  "duration": 0.1875,
		  "durationTicks": 192,
		  "midi": 73,
		  "name": "C#5",
		  "ticks": 71957,
		  "time": 70.2705078125,
		  "velocity": 0.3937007874015748
		},
		{
		  "duration": 0.1875,
		  "durationTicks": 192,
		  "midi": 61,
		  "name": "C#4",
		  "ticks": 71957,
		  "time": 70.2705078125,
		  "velocity": 0.3937007874015748
		},
		{
		  "duration": 0.1875,
		  "durationTicks": 192,
		  "midi": 56,
		  "name": "G#3",
		  "ticks": 71957,
		  "time": 70.2705078125,
		  "velocity": 0.3937007874015748
		},
		{
		  "duration": 0.1875,
		  "durationTicks": 192,
		  "midi": 76,
		  "name": "E5",
		  "ticks": 72153,
		  "time": 70.4619140625,
		  "velocity": 0.3937007874015748
		},
		{
		  "duration": 0.1875,
		  "durationTicks": 192,
		  "midi": 73,
		  "name": "C#5",
		  "ticks": 72153,
		  "time": 70.4619140625,
		  "velocity": 0.3937007874015748
		},
		{
		  "duration": 0.1875,
		  "durationTicks": 192,
		  "midi": 61,
		  "name": "C#4",
		  "ticks": 72153,
		  "time": 70.4619140625,
		  "velocity": 0.3937007874015748
		},
		{
		  "duration": 0.1875,
		  "durationTicks": 192,
		  "midi": 56,
		  "name": "G#3",
		  "ticks": 72153,
		  "time": 70.4619140625,
		  "velocity": 0.3937007874015748
		},
		{
		  "duration": 0.1875,
		  "durationTicks": 192,
		  "midi": 73,
		  "name": "C#5",
		  "ticks": 72357,
		  "time": 70.6611328125,
		  "velocity": 0.3937007874015748
		},
		{
		  "duration": 0.1875,
		  "durationTicks": 192,
		  "midi": 68,
		  "name": "G#4",
		  "ticks": 72357,
		  "time": 70.6611328125,
		  "velocity": 0.3937007874015748
		},
		{
		  "duration": 0.1875,
		  "durationTicks": 192,
		  "midi": 64,
		  "name": "E4",
		  "ticks": 72357,
		  "time": 70.6611328125,
		  "velocity": 0.3937007874015748
		},
		{
		  "duration": 0.1875,
		  "durationTicks": 192,
		  "midi": 61,
		  "name": "C#4",
		  "ticks": 72357,
		  "time": 70.6611328125,
		  "velocity": 0.3937007874015748
		},
		{
		  "duration": 0.1875,
		  "durationTicks": 192,
		  "midi": 51,
		  "name": "D#3",
		  "ticks": 72549,
		  "time": 70.8486328125,
		  "velocity": 0.3937007874015748
		},
		{
		  "duration": 0.1875,
		  "durationTicks": 192,
		  "midi": 75,
		  "name": "D#5",
		  "ticks": 72725,
		  "time": 71.0205078125,
		  "velocity": 0.3937007874015748
		},
		{
		  "duration": 0.1875,
		  "durationTicks": 192,
		  "midi": 71,
		  "name": "B4",
		  "ticks": 72725,
		  "time": 71.0205078125,
		  "velocity": 0.3937007874015748
		},
		{
		  "duration": 0.1875,
		  "durationTicks": 192,
		  "midi": 59,
		  "name": "B3",
		  "ticks": 72725,
		  "time": 71.0205078125,
		  "velocity": 0.3937007874015748
		},
		{
		  "duration": 0.1875,
		  "durationTicks": 192,
		  "midi": 56,
		  "name": "G#3",
		  "ticks": 72725,
		  "time": 71.0205078125,
		  "velocity": 0.3937007874015748
		},
		{
		  "duration": 0.1875,
		  "durationTicks": 192,
		  "midi": 75,
		  "name": "D#5",
		  "ticks": 72917,
		  "time": 71.2080078125,
		  "velocity": 0.3937007874015748
		},
		{
		  "duration": 0.1875,
		  "durationTicks": 192,
		  "midi": 71,
		  "name": "B4",
		  "ticks": 72917,
		  "time": 71.2080078125,
		  "velocity": 0.3937007874015748
		},
		{
		  "duration": 0.1875,
		  "durationTicks": 192,
		  "midi": 59,
		  "name": "B3",
		  "ticks": 72917,
		  "time": 71.2080078125,
		  "velocity": 0.3937007874015748
		},
		{
		  "duration": 0.1875,
		  "durationTicks": 192,
		  "midi": 56,
		  "name": "G#3",
		  "ticks": 72917,
		  "time": 71.2080078125,
		  "velocity": 0.3937007874015748
		},
		{
		  "duration": 0.1875,
		  "durationTicks": 192,
		  "midi": 71,
		  "name": "B4",
		  "ticks": 73129,
		  "time": 71.4150390625,
		  "velocity": 0.3937007874015748
		},
		{
		  "duration": 0.1875,
		  "durationTicks": 192,
		  "midi": 68,
		  "name": "G#4",
		  "ticks": 73129,
		  "time": 71.4150390625,
		  "velocity": 0.3937007874015748
		},
		{
		  "duration": 0.1875,
		  "durationTicks": 192,
		  "midi": 63,
		  "name": "D#4",
		  "ticks": 73129,
		  "time": 71.4150390625,
		  "velocity": 0.3937007874015748
		},
		{
		  "duration": 0.1875,
		  "durationTicks": 192,
		  "midi": 59,
		  "name": "B3",
		  "ticks": 73129,
		  "time": 71.4150390625,
		  "velocity": 0.3937007874015748
		},
		{
		  "duration": 0.1875,
		  "durationTicks": 192,
		  "midi": 51,
		  "name": "D#3",
		  "ticks": 73317,
		  "time": 71.5986328125,
		  "velocity": 0.3937007874015748
		},
		{
		  "duration": 0.1875,
		  "durationTicks": 192,
		  "midi": 75,
		  "name": "D#5",
		  "ticks": 73497,
		  "time": 71.7744140625,
		  "velocity": 0.3937007874015748
		},
		{
		  "duration": 0.1875,
		  "durationTicks": 192,
		  "midi": 70,
		  "name": "A#4",
		  "ticks": 73497,
		  "time": 71.7744140625,
		  "velocity": 0.3937007874015748
		},
		{
		  "duration": 0.1875,
		  "durationTicks": 192,
		  "midi": 58,
		  "name": "A#3",
		  "ticks": 73497,
		  "time": 71.7744140625,
		  "velocity": 0.3937007874015748
		},
		{
		  "duration": 0.1875,
		  "durationTicks": 192,
		  "midi": 55,
		  "name": "G3",
		  "ticks": 73497,
		  "time": 71.7744140625,
		  "velocity": 0.3937007874015748
		},
		{
		  "duration": 0.1875,
		  "durationTicks": 192,
		  "midi": 55,
		  "name": "G3",
		  "ticks": 73681,
		  "time": 71.9541015625,
		  "velocity": 0.3937007874015748
		},
		{
		  "duration": 0.1875,
		  "durationTicks": 192,
		  "midi": 70,
		  "name": "A#4",
		  "ticks": 73685,
		  "time": 71.9580078125,
		  "velocity": 0.3937007874015748
		},
		{
		  "duration": 0.1875,
		  "durationTicks": 192,
		  "midi": 75,
		  "name": "D#5",
		  "ticks": 73685,
		  "time": 71.9580078125,
		  "velocity": 0.3937007874015748
		},
		{
		  "duration": 0.1875,
		  "durationTicks": 192,
		  "midi": 58,
		  "name": "A#3",
		  "ticks": 73685,
		  "time": 71.9580078125,
		  "velocity": 0.3937007874015748
		},
		{
		  "duration": 0.1875,
		  "durationTicks": 192,
		  "midi": 70,
		  "name": "A#4",
		  "ticks": 73893,
		  "time": 72.1611328125,
		  "velocity": 0.3937007874015748
		},
		{
		  "duration": 0.1875,
		  "durationTicks": 192,
		  "midi": 67,
		  "name": "G4",
		  "ticks": 73893,
		  "time": 72.1611328125,
		  "velocity": 0.3937007874015748
		},
		{
		  "duration": 0.1875,
		  "durationTicks": 192,
		  "midi": 63,
		  "name": "D#4",
		  "ticks": 73893,
		  "time": 72.1611328125,
		  "velocity": 0.3937007874015748
		},
		{
		  "duration": 0.1875,
		  "durationTicks": 192,
		  "midi": 58,
		  "name": "A#3",
		  "ticks": 73893,
		  "time": 72.1611328125,
		  "velocity": 0.3937007874015748
		},
		{
		  "duration": 0.1875,
		  "durationTicks": 192,
		  "midi": 32,
		  "name": "G#1",
		  "ticks": 74073,
		  "time": 72.3369140625,
		  "velocity": 0.3937007874015748
		},
		{
		  "duration": 0.1875,
		  "durationTicks": 192,
		  "midi": 44,
		  "name": "G#2",
		  "ticks": 74073,
		  "time": 72.3369140625,
		  "velocity": 0.3937007874015748
		},
		{
		  "duration": 0.1884765625,
		  "durationTicks": 193,
		  "midi": 68,
		  "name": "G#4",
		  "ticks": 74089,
		  "time": 72.3525390625,
		  "velocity": 0.3937007874015748
		},
		{
		  "duration": 0.1884765625,
		  "durationTicks": 193,
		  "midi": 71,
		  "name": "B4",
		  "ticks": 74089,
		  "time": 72.3525390625,
		  "velocity": 0.3937007874015748
		},
		{
		  "duration": 0.1875,
		  "durationTicks": 192,
		  "midi": 75,
		  "name": "D#5",
		  "ticks": 74273,
		  "time": 72.5322265625,
		  "velocity": 0.3937007874015748
		},
		{
		  "duration": 0.1875,
		  "durationTicks": 192,
		  "midi": 44,
		  "name": "G#2",
		  "ticks": 74273,
		  "time": 72.5322265625,
		  "velocity": 0.3937007874015748
		},
		{
		  "duration": 0.1875,
		  "durationTicks": 192,
		  "midi": 71,
		  "name": "B4",
		  "ticks": 74278,
		  "time": 72.537109375,
		  "velocity": 0.3937007874015748
		},
		{
		  "duration": 0.1875,
		  "durationTicks": 192,
		  "midi": 83,
		  "name": "B5",
		  "ticks": 74278,
		  "time": 72.537109375,
		  "velocity": 0.3937007874015748
		},
		{
		  "duration": 0.1875,
		  "durationTicks": 192,
		  "midi": 51,
		  "name": "D#3",
		  "ticks": 74282,
		  "time": 72.541015625,
		  "velocity": 0.3937007874015748
		},
		{
		  "duration": 0.1875,
		  "durationTicks": 192,
		  "midi": 71,
		  "name": "B4",
		  "ticks": 74470,
		  "time": 72.724609375,
		  "velocity": 0.3937007874015748
		},
		{
		  "duration": 0.1875,
		  "durationTicks": 192,
		  "midi": 83,
		  "name": "B5",
		  "ticks": 74470,
		  "time": 72.724609375,
		  "velocity": 0.3937007874015748
		},
		{
		  "duration": 0.1875,
		  "durationTicks": 192,
		  "midi": 75,
		  "name": "D#5",
		  "ticks": 74470,
		  "time": 72.724609375,
		  "velocity": 0.3937007874015748
		},
		{
		  "duration": 0.1875,
		  "durationTicks": 192,
		  "midi": 44,
		  "name": "G#2",
		  "ticks": 74470,
		  "time": 72.724609375,
		  "velocity": 0.3937007874015748
		},
		{
		  "duration": 0.1875,
		  "durationTicks": 192,
		  "midi": 51,
		  "name": "D#3",
		  "ticks": 74474,
		  "time": 72.728515625,
		  "velocity": 0.3937007874015748
		},
		{
		  "duration": 0.1875,
		  "durationTicks": 192,
		  "midi": 71,
		  "name": "B4",
		  "ticks": 74662,
		  "time": 72.912109375,
		  "velocity": 0.3937007874015748
		},
		{
		  "duration": 0.1875,
		  "durationTicks": 192,
		  "midi": 83,
		  "name": "B5",
		  "ticks": 74662,
		  "time": 72.912109375,
		  "velocity": 0.3937007874015748
		},
		{
		  "duration": 0.1875,
		  "durationTicks": 192,
		  "midi": 75,
		  "name": "D#5",
		  "ticks": 74662,
		  "time": 72.912109375,
		  "velocity": 0.3937007874015748
		},
		{
		  "duration": 0.1875,
		  "durationTicks": 192,
		  "midi": 44,
		  "name": "G#2",
		  "ticks": 74662,
		  "time": 72.912109375,
		  "velocity": 0.3937007874015748
		},
		{
		  "duration": 0.1875,
		  "durationTicks": 192,
		  "midi": 51,
		  "name": "D#3",
		  "ticks": 74666,
		  "time": 72.916015625,
		  "velocity": 0.3937007874015748
		},
		{
		  "duration": 0.1875,
		  "durationTicks": 192,
		  "midi": 83,
		  "name": "B5",
		  "ticks": 74854,
		  "time": 73.099609375,
		  "velocity": 0.3937007874015748
		},
		{
		  "duration": 0.1875,
		  "durationTicks": 192,
		  "midi": 75,
		  "name": "D#5",
		  "ticks": 74854,
		  "time": 73.099609375,
		  "velocity": 0.3937007874015748
		},
		{
		  "duration": 0.1875,
		  "durationTicks": 192,
		  "midi": 71,
		  "name": "B4",
		  "ticks": 74854,
		  "time": 73.099609375,
		  "velocity": 0.3937007874015748
		},
		{
		  "duration": 0.1875,
		  "durationTicks": 192,
		  "midi": 44,
		  "name": "G#2",
		  "ticks": 74854,
		  "time": 73.099609375,
		  "velocity": 0.3937007874015748
		},
		{
		  "duration": 0.1875,
		  "durationTicks": 192,
		  "midi": 51,
		  "name": "D#3",
		  "ticks": 74854,
		  "time": 73.099609375,
		  "velocity": 0.3937007874015748
		},
		{
		  "duration": 0.1875,
		  "durationTicks": 192,
		  "midi": 83,
		  "name": "B5",
		  "ticks": 75050,
		  "time": 73.291015625,
		  "velocity": 0.3937007874015748
		},
		{
		  "duration": 0.1875,
		  "durationTicks": 192,
		  "midi": 75,
		  "name": "D#5",
		  "ticks": 75050,
		  "time": 73.291015625,
		  "velocity": 0.3937007874015748
		},
		{
		  "duration": 0.1875,
		  "durationTicks": 192,
		  "midi": 71,
		  "name": "B4",
		  "ticks": 75050,
		  "time": 73.291015625,
		  "velocity": 0.3937007874015748
		},
		{
		  "duration": 0.1875,
		  "durationTicks": 192,
		  "midi": 44,
		  "name": "G#2",
		  "ticks": 75050,
		  "time": 73.291015625,
		  "velocity": 0.3937007874015748
		},
		{
		  "duration": 0.1875,
		  "durationTicks": 192,
		  "midi": 51,
		  "name": "D#3",
		  "ticks": 75050,
		  "time": 73.291015625,
		  "velocity": 0.3937007874015748
		},
		{
		  "duration": 0.1875,
		  "durationTicks": 192,
		  "midi": 82,
		  "name": "A#5",
		  "ticks": 75242,
		  "time": 73.478515625,
		  "velocity": 0.3937007874015748
		},
		{
		  "duration": 0.1875,
		  "durationTicks": 192,
		  "midi": 73,
		  "name": "C#5",
		  "ticks": 75242,
		  "time": 73.478515625,
		  "velocity": 0.3937007874015748
		},
		{
		  "duration": 0.1875,
		  "durationTicks": 192,
		  "midi": 70,
		  "name": "A#4",
		  "ticks": 75242,
		  "time": 73.478515625,
		  "velocity": 0.3937007874015748
		},
		{
		  "duration": 0.1875,
		  "durationTicks": 192,
		  "midi": 46,
		  "name": "A#2",
		  "ticks": 75242,
		  "time": 73.478515625,
		  "velocity": 0.3937007874015748
		},
		{
		  "duration": 0.1875,
		  "durationTicks": 192,
		  "midi": 51,
		  "name": "D#3",
		  "ticks": 75242,
		  "time": 73.478515625,
		  "velocity": 0.3937007874015748
		},
		{
		  "duration": 0.1884765625,
		  "durationTicks": 193,
		  "midi": 68,
		  "name": "G#4",
		  "ticks": 75430,
		  "time": 73.662109375,
		  "velocity": 0.3937007874015748
		},
		{
		  "duration": 0.1884765625,
		  "durationTicks": 193,
		  "midi": 80,
		  "name": "G#5",
		  "ticks": 75430,
		  "time": 73.662109375,
		  "velocity": 0.3937007874015748
		},
		{
		  "duration": 0.1884765625,
		  "durationTicks": 193,
		  "midi": 71,
		  "name": "B4",
		  "ticks": 75430,
		  "time": 73.662109375,
		  "velocity": 0.3937007874015748
		},
		{
		  "duration": 0.1884765625,
		  "durationTicks": 193,
		  "midi": 47,
		  "name": "B2",
		  "ticks": 75434,
		  "time": 73.666015625,
		  "velocity": 0.3937007874015748
		},
		{
		  "duration": 0.1884765625,
		  "durationTicks": 193,
		  "midi": 51,
		  "name": "D#3",
		  "ticks": 75434,
		  "time": 73.666015625,
		  "velocity": 0.3937007874015748
		},
		{
		  "duration": 0.1884765625,
		  "durationTicks": 193,
		  "midi": 49,
		  "name": "C#3",
		  "ticks": 75610,
		  "time": 73.837890625,
		  "velocity": 0.3937007874015748
		},
		{
		  "duration": 0.1884765625,
		  "durationTicks": 193,
		  "midi": 39,
		  "name": "D#2",
		  "ticks": 75614,
		  "time": 73.841796875,
		  "velocity": 0.3937007874015748
		},
		{
		  "duration": 0.1884765625,
		  "durationTicks": 193,
		  "midi": 67,
		  "name": "G4",
		  "ticks": 75623,
		  "time": 73.8505859375,
		  "velocity": 0.3937007874015748
		},
		{
		  "duration": 0.1884765625,
		  "durationTicks": 193,
		  "midi": 79,
		  "name": "G5",
		  "ticks": 75623,
		  "time": 73.8505859375,
		  "velocity": 0.3937007874015748
		},
		{
		  "duration": 0.1884765625,
		  "durationTicks": 193,
		  "midi": 70,
		  "name": "A#4",
		  "ticks": 75623,
		  "time": 73.8505859375,
		  "velocity": 0.3937007874015748
		},
		{
		  "duration": 0.1884765625,
		  "durationTicks": 193,
		  "midi": 51,
		  "name": "D#3",
		  "ticks": 75623,
		  "time": 73.8505859375,
		  "velocity": 0.3937007874015748
		},
		{
		  "duration": 0.1875,
		  "durationTicks": 192,
		  "midi": 88,
		  "name": "E6",
		  "ticks": 75816,
		  "time": 74.0390625,
		  "velocity": 0.3937007874015748
		},
		{
		  "duration": 0.1875,
		  "durationTicks": 192,
		  "midi": 79,
		  "name": "G5",
		  "ticks": 75816,
		  "time": 74.0390625,
		  "velocity": 0.3937007874015748
		},
		{
		  "duration": 0.1875,
		  "durationTicks": 192,
		  "midi": 76,
		  "name": "E5",
		  "ticks": 75816,
		  "time": 74.0390625,
		  "velocity": 0.3937007874015748
		},
		{
		  "duration": 0.1875,
		  "durationTicks": 192,
		  "midi": 51,
		  "name": "D#3",
		  "ticks": 75816,
		  "time": 74.0390625,
		  "velocity": 0.3937007874015748
		},
		{
		  "duration": 0.1875,
		  "durationTicks": 192,
		  "midi": 61,
		  "name": "C#4",
		  "ticks": 75820,
		  "time": 74.04296875,
		  "velocity": 0.3937007874015748
		},
		{
		  "duration": 0.1875,
		  "durationTicks": 192,
		  "midi": 88,
		  "name": "E6",
		  "ticks": 76008,
		  "time": 74.2265625,
		  "velocity": 0.3937007874015748
		},
		{
		  "duration": 0.1875,
		  "durationTicks": 192,
		  "midi": 79,
		  "name": "G5",
		  "ticks": 76008,
		  "time": 74.2265625,
		  "velocity": 0.3937007874015748
		},
		{
		  "duration": 0.1875,
		  "durationTicks": 192,
		  "midi": 76,
		  "name": "E5",
		  "ticks": 76008,
		  "time": 74.2265625,
		  "velocity": 0.3937007874015748
		},
		{
		  "duration": 0.1875,
		  "durationTicks": 192,
		  "midi": 51,
		  "name": "D#3",
		  "ticks": 76008,
		  "time": 74.2265625,
		  "velocity": 0.3937007874015748
		},
		{
		  "duration": 0.1875,
		  "durationTicks": 192,
		  "midi": 61,
		  "name": "C#4",
		  "ticks": 76008,
		  "time": 74.2265625,
		  "velocity": 0.3937007874015748
		},
		{
		  "duration": 0.1875,
		  "durationTicks": 192,
		  "midi": 76,
		  "name": "E5",
		  "ticks": 76204,
		  "time": 74.41796875,
		  "velocity": 0.3937007874015748
		},
		{
		  "duration": 0.1875,
		  "durationTicks": 192,
		  "midi": 79,
		  "name": "G5",
		  "ticks": 76204,
		  "time": 74.41796875,
		  "velocity": 0.3937007874015748
		},
		{
		  "duration": 0.1875,
		  "durationTicks": 192,
		  "midi": 88,
		  "name": "E6",
		  "ticks": 76204,
		  "time": 74.41796875,
		  "velocity": 0.3937007874015748
		},
		{
		  "duration": 0.1875,
		  "durationTicks": 192,
		  "midi": 61,
		  "name": "C#4",
		  "ticks": 76204,
		  "time": 74.41796875,
		  "velocity": 0.3937007874015748
		},
		{
		  "duration": 0.1875,
		  "durationTicks": 192,
		  "midi": 51,
		  "name": "D#3",
		  "ticks": 76204,
		  "time": 74.41796875,
		  "velocity": 0.3937007874015748
		},
		{
		  "duration": 0.1875,
		  "durationTicks": 192,
		  "midi": 76,
		  "name": "E5",
		  "ticks": 76392,
		  "time": 74.6015625,
		  "velocity": 0.3937007874015748
		},
		{
		  "duration": 0.1875,
		  "durationTicks": 192,
		  "midi": 79,
		  "name": "G5",
		  "ticks": 76392,
		  "time": 74.6015625,
		  "velocity": 0.3937007874015748
		},
		{
		  "duration": 0.1875,
		  "durationTicks": 192,
		  "midi": 88,
		  "name": "E6",
		  "ticks": 76392,
		  "time": 74.6015625,
		  "velocity": 0.3937007874015748
		},
		{
		  "duration": 0.1875,
		  "durationTicks": 192,
		  "midi": 51,
		  "name": "D#3",
		  "ticks": 76392,
		  "time": 74.6015625,
		  "velocity": 0.3937007874015748
		},
		{
		  "duration": 0.1875,
		  "durationTicks": 192,
		  "midi": 61,
		  "name": "C#4",
		  "ticks": 76392,
		  "time": 74.6015625,
		  "velocity": 0.3937007874015748
		},
		{
		  "duration": 0.1875,
		  "durationTicks": 192,
		  "midi": 76,
		  "name": "E5",
		  "ticks": 76584,
		  "time": 74.7890625,
		  "velocity": 0.3937007874015748
		},
		{
		  "duration": 0.1875,
		  "durationTicks": 192,
		  "midi": 88,
		  "name": "E6",
		  "ticks": 76584,
		  "time": 74.7890625,
		  "velocity": 0.3937007874015748
		},
		{
		  "duration": 0.1875,
		  "durationTicks": 192,
		  "midi": 79,
		  "name": "G5",
		  "ticks": 76584,
		  "time": 74.7890625,
		  "velocity": 0.3937007874015748
		},
		{
		  "duration": 0.1875,
		  "durationTicks": 192,
		  "midi": 51,
		  "name": "D#3",
		  "ticks": 76584,
		  "time": 74.7890625,
		  "velocity": 0.3937007874015748
		},
		{
		  "duration": 0.1875,
		  "durationTicks": 192,
		  "midi": 61,
		  "name": "C#4",
		  "ticks": 76588,
		  "time": 74.79296875,
		  "velocity": 0.3937007874015748
		},
		{
		  "duration": 0.1875,
		  "durationTicks": 192,
		  "midi": 87,
		  "name": "D#6",
		  "ticks": 76776,
		  "time": 74.9765625,
		  "velocity": 0.3937007874015748
		},
		{
		  "duration": 0.1875,
		  "durationTicks": 192,
		  "midi": 79,
		  "name": "G5",
		  "ticks": 76776,
		  "time": 74.9765625,
		  "velocity": 0.3937007874015748
		},
		{
		  "duration": 0.1875,
		  "durationTicks": 192,
		  "midi": 75,
		  "name": "D#5",
		  "ticks": 76776,
		  "time": 74.9765625,
		  "velocity": 0.3937007874015748
		},
		{
		  "duration": 0.1875,
		  "durationTicks": 192,
		  "midi": 51,
		  "name": "D#3",
		  "ticks": 76776,
		  "time": 74.9765625,
		  "velocity": 0.3937007874015748
		},
		{
		  "duration": 0.1875,
		  "durationTicks": 192,
		  "midi": 59,
		  "name": "B3",
		  "ticks": 76780,
		  "time": 74.98046875,
		  "velocity": 0.3937007874015748
		},
		{
		  "duration": 0.1875,
		  "durationTicks": 192,
		  "midi": 73,
		  "name": "C#5",
		  "ticks": 76968,
		  "time": 75.1640625,
		  "velocity": 0.3937007874015748
		},
		{
		  "duration": 0.1875,
		  "durationTicks": 192,
		  "midi": 79,
		  "name": "G5",
		  "ticks": 76968,
		  "time": 75.1640625,
		  "velocity": 0.3937007874015748
		},
		{
		  "duration": 0.1875,
		  "durationTicks": 192,
		  "midi": 85,
		  "name": "C#6",
		  "ticks": 76968,
		  "time": 75.1640625,
		  "velocity": 0.3937007874015748
		},
		{
		  "duration": 0.1875,
		  "durationTicks": 192,
		  "midi": 51,
		  "name": "D#3",
		  "ticks": 76968,
		  "time": 75.1640625,
		  "velocity": 0.3937007874015748
		},
		{
		  "duration": 0.1875,
		  "durationTicks": 192,
		  "midi": 58,
		  "name": "A#3",
		  "ticks": 76972,
		  "time": 75.16796875,
		  "velocity": 0.3937007874015748
		},
		{
		  "duration": 0.1875,
		  "durationTicks": 192,
		  "midi": 71,
		  "name": "B4",
		  "ticks": 77160,
		  "time": 75.3515625,
		  "velocity": 0.3937007874015748
		},
		{
		  "duration": 0.1875,
		  "durationTicks": 192,
		  "midi": 80,
		  "name": "G#5",
		  "ticks": 77160,
		  "time": 75.3515625,
		  "velocity": 0.3937007874015748
		},
		{
		  "duration": 0.1875,
		  "durationTicks": 192,
		  "midi": 83,
		  "name": "B5",
		  "ticks": 77160,
		  "time": 75.3515625,
		  "velocity": 0.3937007874015748
		},
		{
		  "duration": 0.1875,
		  "durationTicks": 192,
		  "midi": 32,
		  "name": "G#1",
		  "ticks": 77160,
		  "time": 75.3515625,
		  "velocity": 0.3937007874015748
		},
		{
		  "duration": 0.1875,
		  "durationTicks": 192,
		  "midi": 44,
		  "name": "G#2",
		  "ticks": 77160,
		  "time": 75.3515625,
		  "velocity": 0.3937007874015748
		},
		{
		  "duration": 0.1875,
		  "durationTicks": 192,
		  "midi": 83,
		  "name": "B5",
		  "ticks": 77356,
		  "time": 75.54296875,
		  "velocity": 0.3937007874015748
		},
		{
		  "duration": 0.1875,
		  "durationTicks": 192,
		  "midi": 75,
		  "name": "D#5",
		  "ticks": 77356,
		  "time": 75.54296875,
		  "velocity": 0.3937007874015748
		},
		{
		  "duration": 0.1875,
		  "durationTicks": 192,
		  "midi": 71,
		  "name": "B4",
		  "ticks": 77356,
		  "time": 75.54296875,
		  "velocity": 0.3937007874015748
		},
		{
		  "duration": 0.1875,
		  "durationTicks": 192,
		  "midi": 44,
		  "name": "G#2",
		  "ticks": 77356,
		  "time": 75.54296875,
		  "velocity": 0.3937007874015748
		},
		{
		  "duration": 0.1875,
		  "durationTicks": 192,
		  "midi": 51,
		  "name": "D#3",
		  "ticks": 77356,
		  "time": 75.54296875,
		  "velocity": 0.3937007874015748
		},
		{
		  "duration": 0.1875,
		  "durationTicks": 192,
		  "midi": 75,
		  "name": "D#5",
		  "ticks": 77539,
		  "time": 75.7216796875,
		  "velocity": 0.3937007874015748
		},
		{
		  "duration": 0.1875,
		  "durationTicks": 192,
		  "midi": 71,
		  "name": "B4",
		  "ticks": 77539,
		  "time": 75.7216796875,
		  "velocity": 0.3937007874015748
		},
		{
		  "duration": 0.1875,
		  "durationTicks": 192,
		  "midi": 83,
		  "name": "B5",
		  "ticks": 77544,
		  "time": 75.7265625,
		  "velocity": 0.3937007874015748
		},
		{
		  "duration": 0.1875,
		  "durationTicks": 192,
		  "midi": 44,
		  "name": "G#2",
		  "ticks": 77548,
		  "time": 75.73046875,
		  "velocity": 0.3937007874015748
		},
		{
		  "duration": 0.1875,
		  "durationTicks": 192,
		  "midi": 51,
		  "name": "D#3",
		  "ticks": 77548,
		  "time": 75.73046875,
		  "velocity": 0.3937007874015748
		},
		{
		  "duration": 0.1875,
		  "durationTicks": 192,
		  "midi": 71,
		  "name": "B4",
		  "ticks": 77736,
		  "time": 75.9140625,
		  "velocity": 0.3937007874015748
		},
		{
		  "duration": 0.1875,
		  "durationTicks": 192,
		  "midi": 75,
		  "name": "D#5",
		  "ticks": 77736,
		  "time": 75.9140625,
		  "velocity": 0.3937007874015748
		},
		{
		  "duration": 0.1875,
		  "durationTicks": 192,
		  "midi": 83,
		  "name": "B5",
		  "ticks": 77736,
		  "time": 75.9140625,
		  "velocity": 0.3937007874015748
		},
		{
		  "duration": 0.1875,
		  "durationTicks": 192,
		  "midi": 44,
		  "name": "G#2",
		  "ticks": 77736,
		  "time": 75.9140625,
		  "velocity": 0.3937007874015748
		},
		{
		  "duration": 0.1875,
		  "durationTicks": 192,
		  "midi": 51,
		  "name": "D#3",
		  "ticks": 77740,
		  "time": 75.91796875,
		  "velocity": 0.3937007874015748
		},
		{
		  "duration": 0.1875,
		  "durationTicks": 192,
		  "midi": 71,
		  "name": "B4",
		  "ticks": 77928,
		  "time": 76.1015625,
		  "velocity": 0.3937007874015748
		},
		{
		  "duration": 0.1875,
		  "durationTicks": 192,
		  "midi": 75,
		  "name": "D#5",
		  "ticks": 77928,
		  "time": 76.1015625,
		  "velocity": 0.3937007874015748
		},
		{
		  "duration": 0.1875,
		  "durationTicks": 192,
		  "midi": 83,
		  "name": "B5",
		  "ticks": 77928,
		  "time": 76.1015625,
		  "velocity": 0.3937007874015748
		},
		{
		  "duration": 0.1875,
		  "durationTicks": 192,
		  "midi": 44,
		  "name": "G#2",
		  "ticks": 77928,
		  "time": 76.1015625,
		  "velocity": 0.3937007874015748
		},
		{
		  "duration": 0.1875,
		  "durationTicks": 192,
		  "midi": 51,
		  "name": "D#3",
		  "ticks": 77932,
		  "time": 76.10546875,
		  "velocity": 0.3937007874015748
		},
		{
		  "duration": 0.1875,
		  "durationTicks": 192,
		  "midi": 83,
		  "name": "B5",
		  "ticks": 78120,
		  "time": 76.2890625,
		  "velocity": 0.3937007874015748
		},
		{
		  "duration": 0.1875,
		  "durationTicks": 192,
		  "midi": 75,
		  "name": "D#5",
		  "ticks": 78120,
		  "time": 76.2890625,
		  "velocity": 0.3937007874015748
		},
		{
		  "duration": 0.1875,
		  "durationTicks": 192,
		  "midi": 71,
		  "name": "B4",
		  "ticks": 78120,
		  "time": 76.2890625,
		  "velocity": 0.3937007874015748
		},
		{
		  "duration": 0.1875,
		  "durationTicks": 192,
		  "midi": 44,
		  "name": "G#2",
		  "ticks": 78120,
		  "time": 76.2890625,
		  "velocity": 0.3937007874015748
		},
		{
		  "duration": 0.1875,
		  "durationTicks": 192,
		  "midi": 51,
		  "name": "D#3",
		  "ticks": 78120,
		  "time": 76.2890625,
		  "velocity": 0.3937007874015748
		},
		{
		  "duration": 0.1875,
		  "durationTicks": 192,
		  "midi": 82,
		  "name": "A#5",
		  "ticks": 78316,
		  "time": 76.48046875,
		  "velocity": 0.3937007874015748
		},
		{
		  "duration": 0.1875,
		  "durationTicks": 192,
		  "midi": 73,
		  "name": "C#5",
		  "ticks": 78316,
		  "time": 76.48046875,
		  "velocity": 0.3937007874015748
		},
		{
		  "duration": 0.1875,
		  "durationTicks": 192,
		  "midi": 70,
		  "name": "A#4",
		  "ticks": 78316,
		  "time": 76.48046875,
		  "velocity": 0.3937007874015748
		},
		{
		  "duration": 0.1875,
		  "durationTicks": 192,
		  "midi": 46,
		  "name": "A#2",
		  "ticks": 78316,
		  "time": 76.48046875,
		  "velocity": 0.3937007874015748
		},
		{
		  "duration": 0.1875,
		  "durationTicks": 192,
		  "midi": 51,
		  "name": "D#3",
		  "ticks": 78316,
		  "time": 76.48046875,
		  "velocity": 0.3937007874015748
		},
		{
		  "duration": 0.1875,
		  "durationTicks": 192,
		  "midi": 80,
		  "name": "G#5",
		  "ticks": 78508,
		  "time": 76.66796875,
		  "velocity": 0.3937007874015748
		},
		{
		  "duration": 0.1875,
		  "durationTicks": 192,
		  "midi": 71,
		  "name": "B4",
		  "ticks": 78508,
		  "time": 76.66796875,
		  "velocity": 0.3937007874015748
		},
		{
		  "duration": 0.1875,
		  "durationTicks": 192,
		  "midi": 68,
		  "name": "G#4",
		  "ticks": 78508,
		  "time": 76.66796875,
		  "velocity": 0.3937007874015748
		},
		{
		  "duration": 0.1875,
		  "durationTicks": 192,
		  "midi": 47,
		  "name": "B2",
		  "ticks": 78508,
		  "time": 76.66796875,
		  "velocity": 0.3937007874015748
		},
		{
		  "duration": 0.1875,
		  "durationTicks": 192,
		  "midi": 51,
		  "name": "D#3",
		  "ticks": 78508,
		  "time": 76.66796875,
		  "velocity": 0.3937007874015748
		},
		{
		  "duration": 0.1875,
		  "durationTicks": 192,
		  "midi": 67,
		  "name": "G4",
		  "ticks": 78696,
		  "time": 76.8515625,
		  "velocity": 0.3937007874015748
		},
		{
		  "duration": 0.1875,
		  "durationTicks": 192,
		  "midi": 79,
		  "name": "G5",
		  "ticks": 78696,
		  "time": 76.8515625,
		  "velocity": 0.3937007874015748
		},
		{
		  "duration": 0.1875,
		  "durationTicks": 192,
		  "midi": 70,
		  "name": "A#4",
		  "ticks": 78696,
		  "time": 76.8515625,
		  "velocity": 0.3937007874015748
		},
		{
		  "duration": 0.1875,
		  "durationTicks": 192,
		  "midi": 51,
		  "name": "D#3",
		  "ticks": 78700,
		  "time": 76.85546875,
		  "velocity": 0.3937007874015748
		},
		{
		  "duration": 0.1875,
		  "durationTicks": 192,
		  "midi": 49,
		  "name": "C#3",
		  "ticks": 78700,
		  "time": 76.85546875,
		  "velocity": 0.3937007874015748
		},
		{
		  "duration": 0.1875,
		  "durationTicks": 192,
		  "midi": 39,
		  "name": "D#2",
		  "ticks": 78704,
		  "time": 76.859375,
		  "velocity": 0.3937007874015748
		},
		{
		  "duration": 0.1875,
		  "durationTicks": 192,
		  "midi": 76,
		  "name": "E5",
		  "ticks": 78888,
		  "time": 77.0390625,
		  "velocity": 0.3937007874015748
		},
		{
		  "duration": 0.1875,
		  "durationTicks": 192,
		  "midi": 79,
		  "name": "G5",
		  "ticks": 78888,
		  "time": 77.0390625,
		  "velocity": 0.3937007874015748
		},
		{
		  "duration": 0.1875,
		  "durationTicks": 192,
		  "midi": 88,
		  "name": "E6",
		  "ticks": 78888,
		  "time": 77.0390625,
		  "velocity": 0.3937007874015748
		},
		{
		  "duration": 0.1875,
		  "durationTicks": 192,
		  "midi": 51,
		  "name": "D#3",
		  "ticks": 78888,
		  "time": 77.0390625,
		  "velocity": 0.3937007874015748
		},
		{
		  "duration": 0.1875,
		  "durationTicks": 192,
		  "midi": 61,
		  "name": "C#4",
		  "ticks": 78892,
		  "time": 77.04296875,
		  "velocity": 0.3937007874015748
		},
		{
		  "duration": 0.1875,
		  "durationTicks": 192,
		  "midi": 76,
		  "name": "E5",
		  "ticks": 79080,
		  "time": 77.2265625,
		  "velocity": 0.3937007874015748
		},
		{
		  "duration": 0.1875,
		  "durationTicks": 192,
		  "midi": 79,
		  "name": "G5",
		  "ticks": 79080,
		  "time": 77.2265625,
		  "velocity": 0.3937007874015748
		},
		{
		  "duration": 0.1875,
		  "durationTicks": 192,
		  "midi": 88,
		  "name": "E6",
		  "ticks": 79080,
		  "time": 77.2265625,
		  "velocity": 0.3937007874015748
		},
		{
		  "duration": 0.1875,
		  "durationTicks": 192,
		  "midi": 51,
		  "name": "D#3",
		  "ticks": 79080,
		  "time": 77.2265625,
		  "velocity": 0.3937007874015748
		},
		{
		  "duration": 0.1875,
		  "durationTicks": 192,
		  "midi": 61,
		  "name": "C#4",
		  "ticks": 79084,
		  "time": 77.23046875,
		  "velocity": 0.3937007874015748
		},
		{
		  "duration": 0.1875,
		  "durationTicks": 192,
		  "midi": 79,
		  "name": "G5",
		  "ticks": 79272,
		  "time": 77.4140625,
		  "velocity": 0.3937007874015748
		},
		{
		  "duration": 0.1875,
		  "durationTicks": 192,
		  "midi": 88,
		  "name": "E6",
		  "ticks": 79272,
		  "time": 77.4140625,
		  "velocity": 0.3937007874015748
		},
		{
		  "duration": 0.1875,
		  "durationTicks": 192,
		  "midi": 76,
		  "name": "E5",
		  "ticks": 79272,
		  "time": 77.4140625,
		  "velocity": 0.3937007874015748
		},
		{
		  "duration": 0.1875,
		  "durationTicks": 192,
		  "midi": 51,
		  "name": "D#3",
		  "ticks": 79272,
		  "time": 77.4140625,
		  "velocity": 0.3937007874015748
		},
		{
		  "duration": 0.1875,
		  "durationTicks": 192,
		  "midi": 61,
		  "name": "C#4",
		  "ticks": 79272,
		  "time": 77.4140625,
		  "velocity": 0.3937007874015748
		},
		{
		  "duration": 0.1875,
		  "durationTicks": 192,
		  "midi": 79,
		  "name": "G5",
		  "ticks": 79468,
		  "time": 77.60546875,
		  "velocity": 0.3937007874015748
		},
		{
		  "duration": 0.1875,
		  "durationTicks": 192,
		  "midi": 88,
		  "name": "E6",
		  "ticks": 79468,
		  "time": 77.60546875,
		  "velocity": 0.3937007874015748
		},
		{
		  "duration": 0.1875,
		  "durationTicks": 192,
		  "midi": 76,
		  "name": "E5",
		  "ticks": 79468,
		  "time": 77.60546875,
		  "velocity": 0.3937007874015748
		},
		{
		  "duration": 0.1875,
		  "durationTicks": 192,
		  "midi": 51,
		  "name": "D#3",
		  "ticks": 79468,
		  "time": 77.60546875,
		  "velocity": 0.3937007874015748
		},
		{
		  "duration": 0.1875,
		  "durationTicks": 192,
		  "midi": 61,
		  "name": "C#4",
		  "ticks": 79468,
		  "time": 77.60546875,
		  "velocity": 0.3937007874015748
		},
		{
		  "duration": 0.1875,
		  "durationTicks": 192,
		  "midi": 79,
		  "name": "G5",
		  "ticks": 79656,
		  "time": 77.7890625,
		  "velocity": 0.3937007874015748
		},
		{
		  "duration": 0.1875,
		  "durationTicks": 192,
		  "midi": 88,
		  "name": "E6",
		  "ticks": 79660,
		  "time": 77.79296875,
		  "velocity": 0.3937007874015748
		},
		{
		  "duration": 0.1875,
		  "durationTicks": 192,
		  "midi": 76,
		  "name": "E5",
		  "ticks": 79660,
		  "time": 77.79296875,
		  "velocity": 0.3937007874015748
		},
		{
		  "duration": 0.1875,
		  "durationTicks": 192,
		  "midi": 51,
		  "name": "D#3",
		  "ticks": 79660,
		  "time": 77.79296875,
		  "velocity": 0.3937007874015748
		},
		{
		  "duration": 0.1875,
		  "durationTicks": 192,
		  "midi": 61,
		  "name": "C#4",
		  "ticks": 79660,
		  "time": 77.79296875,
		  "velocity": 0.3937007874015748
		},
		{
		  "duration": 0.1875,
		  "durationTicks": 192,
		  "midi": 79,
		  "name": "G5",
		  "ticks": 79848,
		  "time": 77.9765625,
		  "velocity": 0.3937007874015748
		},
		{
		  "duration": 0.1875,
		  "durationTicks": 192,
		  "midi": 87,
		  "name": "D#6",
		  "ticks": 79848,
		  "time": 77.9765625,
		  "velocity": 0.3937007874015748
		},
		{
		  "duration": 0.1875,
		  "durationTicks": 192,
		  "midi": 75,
		  "name": "D#5",
		  "ticks": 79848,
		  "time": 77.9765625,
		  "velocity": 0.3937007874015748
		},
		{
		  "duration": 0.1875,
		  "durationTicks": 192,
		  "midi": 51,
		  "name": "D#3",
		  "ticks": 79848,
		  "time": 77.9765625,
		  "velocity": 0.3937007874015748
		},
		{
		  "duration": 0.1875,
		  "durationTicks": 192,
		  "midi": 59,
		  "name": "B3",
		  "ticks": 79852,
		  "time": 77.98046875,
		  "velocity": 0.3937007874015748
		},
		{
		  "duration": 0.1875,
		  "durationTicks": 192,
		  "midi": 79,
		  "name": "G5",
		  "ticks": 80040,
		  "time": 78.1640625,
		  "velocity": 0.3937007874015748
		},
		{
		  "duration": 0.1875,
		  "durationTicks": 192,
		  "midi": 85,
		  "name": "C#6",
		  "ticks": 80040,
		  "time": 78.1640625,
		  "velocity": 0.3937007874015748
		},
		{
		  "duration": 0.1875,
		  "durationTicks": 192,
		  "midi": 73,
		  "name": "C#5",
		  "ticks": 80040,
		  "time": 78.1640625,
		  "velocity": 0.3937007874015748
		},
		{
		  "duration": 0.1875,
		  "durationTicks": 192,
		  "midi": 51,
		  "name": "D#3",
		  "ticks": 80040,
		  "time": 78.1640625,
		  "velocity": 0.3937007874015748
		},
		{
		  "duration": 0.1875,
		  "durationTicks": 192,
		  "midi": 58,
		  "name": "A#3",
		  "ticks": 80044,
		  "time": 78.16796875,
		  "velocity": 0.3937007874015748
		},
		{
		  "duration": 0.1875,
		  "durationTicks": 192,
		  "midi": 71,
		  "name": "B4",
		  "ticks": 80232,
		  "time": 78.3515625,
		  "velocity": 0.3937007874015748
		},
		{
		  "duration": 0.1875,
		  "durationTicks": 192,
		  "midi": 83,
		  "name": "B5",
		  "ticks": 80232,
		  "time": 78.3515625,
		  "velocity": 0.3937007874015748
		},
		{
		  "duration": 0.1875,
		  "durationTicks": 192,
		  "midi": 80,
		  "name": "G#5",
		  "ticks": 80232,
		  "time": 78.3515625,
		  "velocity": 0.3937007874015748
		},
		{
		  "duration": 0.1875,
		  "durationTicks": 192,
		  "midi": 56,
		  "name": "G#3",
		  "ticks": 80232,
		  "time": 78.3515625,
		  "velocity": 0.3937007874015748
		},
		{
		  "duration": 0.1875,
		  "durationTicks": 192,
		  "midi": 44,
		  "name": "G#2",
		  "ticks": 80232,
		  "time": 78.3515625,
		  "velocity": 0.3937007874015748
		},
		{
		  "duration": 0.1875,
		  "durationTicks": 192,
		  "midi": 83,
		  "name": "B5",
		  "ticks": 80424,
		  "time": 78.5390625,
		  "velocity": 0.3937007874015748
		},
		{
		  "duration": 0.1875,
		  "durationTicks": 192,
		  "midi": 80,
		  "name": "G#5",
		  "ticks": 80424,
		  "time": 78.5390625,
		  "velocity": 0.3937007874015748
		},
		{
		  "duration": 0.1875,
		  "durationTicks": 192,
		  "midi": 63,
		  "name": "D#4",
		  "ticks": 80424,
		  "time": 78.5390625,
		  "velocity": 0.3937007874015748
		},
		{
		  "duration": 0.1875,
		  "durationTicks": 192,
		  "midi": 59,
		  "name": "B3",
		  "ticks": 80424,
		  "time": 78.5390625,
		  "velocity": 0.3937007874015748
		},
		{
		  "duration": 0.1875,
		  "durationTicks": 192,
		  "midi": 80,
		  "name": "G#5",
		  "ticks": 80600,
		  "time": 78.7109375,
		  "velocity": 0.3937007874015748
		},
		{
		  "duration": 0.1875,
		  "durationTicks": 192,
		  "midi": 83,
		  "name": "B5",
		  "ticks": 80600,
		  "time": 78.7109375,
		  "velocity": 0.3937007874015748
		},
		{
		  "duration": 0.1875,
		  "durationTicks": 192,
		  "midi": 59,
		  "name": "B3",
		  "ticks": 80600,
		  "time": 78.7109375,
		  "velocity": 0.3937007874015748
		},
		{
		  "duration": 0.1875,
		  "durationTicks": 192,
		  "midi": 63,
		  "name": "D#4",
		  "ticks": 80600,
		  "time": 78.7109375,
		  "velocity": 0.3937007874015748
		},
		{
		  "duration": 0.1875,
		  "durationTicks": 192,
		  "midi": 59,
		  "name": "B3",
		  "ticks": 80796,
		  "time": 78.90234375,
		  "velocity": 0.3937007874015748
		},
		{
		  "duration": 0.1875,
		  "durationTicks": 192,
		  "midi": 87,
		  "name": "D#6",
		  "ticks": 80808,
		  "time": 78.9140625,
		  "velocity": 0.3937007874015748
		},
		{
		  "duration": 0.1875,
		  "durationTicks": 192,
		  "midi": 83,
		  "name": "B5",
		  "ticks": 80812,
		  "time": 78.91796875,
		  "velocity": 0.3937007874015748
		},
		{
		  "duration": 0.1875,
		  "durationTicks": 192,
		  "midi": 56,
		  "name": "G#3",
		  "ticks": 80812,
		  "time": 78.91796875,
		  "velocity": 0.3937007874015748
		},
		{
		  "duration": 0.1875,
		  "durationTicks": 192,
		  "midi": 49,
		  "name": "C#3",
		  "ticks": 81000,
		  "time": 79.1015625,
		  "velocity": 0.3937007874015748
		},
		{
		  "duration": 0.1875,
		  "durationTicks": 192,
		  "midi": 85,
		  "name": "C#6",
		  "ticks": 81176,
		  "time": 79.2734375,
		  "velocity": 0.3937007874015748
		},
		{
		  "duration": 0.1875,
		  "durationTicks": 192,
		  "midi": 80,
		  "name": "G#5",
		  "ticks": 81180,
		  "time": 79.27734375,
		  "velocity": 0.3937007874015748
		},
		{
		  "duration": 0.1875,
		  "durationTicks": 192,
		  "midi": 64,
		  "name": "E4",
		  "ticks": 81180,
		  "time": 79.27734375,
		  "velocity": 0.3937007874015748
		},
		{
		  "duration": 0.1875,
		  "durationTicks": 192,
		  "midi": 61,
		  "name": "C#4",
		  "ticks": 81180,
		  "time": 79.27734375,
		  "velocity": 0.3937007874015748
		},
		{
		  "duration": 0.1875,
		  "durationTicks": 192,
		  "midi": 85,
		  "name": "C#6",
		  "ticks": 81368,
		  "time": 79.4609375,
		  "velocity": 0.3937007874015748
		},
		{
		  "duration": 0.1875,
		  "durationTicks": 192,
		  "midi": 80,
		  "name": "G#5",
		  "ticks": 81368,
		  "time": 79.4609375,
		  "velocity": 0.3937007874015748
		},
		{
		  "duration": 0.1875,
		  "durationTicks": 192,
		  "midi": 64,
		  "name": "E4",
		  "ticks": 81368,
		  "time": 79.4609375,
		  "velocity": 0.3937007874015748
		},
		{
		  "duration": 0.1875,
		  "durationTicks": 192,
		  "midi": 61,
		  "name": "C#4",
		  "ticks": 81368,
		  "time": 79.4609375,
		  "velocity": 0.3937007874015748
		},
		{
		  "duration": 0.1875,
		  "durationTicks": 192,
		  "midi": 88,
		  "name": "E6",
		  "ticks": 81580,
		  "time": 79.66796875,
		  "velocity": 0.3937007874015748
		},
		{
		  "duration": 0.1875,
		  "durationTicks": 192,
		  "midi": 85,
		  "name": "C#6",
		  "ticks": 81580,
		  "time": 79.66796875,
		  "velocity": 0.3937007874015748
		},
		{
		  "duration": 0.1875,
		  "durationTicks": 192,
		  "midi": 61,
		  "name": "C#4",
		  "ticks": 81580,
		  "time": 79.66796875,
		  "velocity": 0.3937007874015748
		},
		{
		  "duration": 0.1875,
		  "durationTicks": 192,
		  "midi": 56,
		  "name": "G#3",
		  "ticks": 81580,
		  "time": 79.66796875,
		  "velocity": 0.3937007874015748
		},
		{
		  "duration": 0.1875,
		  "durationTicks": 192,
		  "midi": 51,
		  "name": "D#3",
		  "ticks": 81752,
		  "time": 79.8359375,
		  "velocity": 0.3937007874015748
		},
		{
		  "duration": 0.1875,
		  "durationTicks": 192,
		  "midi": 83,
		  "name": "B5",
		  "ticks": 81948,
		  "time": 80.02734375,
		  "velocity": 0.3937007874015748
		},
		{
		  "duration": 0.1875,
		  "durationTicks": 192,
		  "midi": 80,
		  "name": "G#5",
		  "ticks": 81948,
		  "time": 80.02734375,
		  "velocity": 0.3937007874015748
		},
		{
		  "duration": 0.1875,
		  "durationTicks": 192,
		  "midi": 63,
		  "name": "D#4",
		  "ticks": 81948,
		  "time": 80.02734375,
		  "velocity": 0.3937007874015748
		},
		{
		  "duration": 0.1875,
		  "durationTicks": 192,
		  "midi": 59,
		  "name": "B3",
		  "ticks": 81948,
		  "time": 80.02734375,
		  "velocity": 0.3937007874015748
		},
		{
		  "duration": 0.1875,
		  "durationTicks": 192,
		  "midi": 83,
		  "name": "B5",
		  "ticks": 82140,
		  "time": 80.21484375,
		  "velocity": 0.3937007874015748
		},
		{
		  "duration": 0.1875,
		  "durationTicks": 192,
		  "midi": 80,
		  "name": "G#5",
		  "ticks": 82140,
		  "time": 80.21484375,
		  "velocity": 0.3937007874015748
		},
		{
		  "duration": 0.1875,
		  "durationTicks": 192,
		  "midi": 63,
		  "name": "D#4",
		  "ticks": 82140,
		  "time": 80.21484375,
		  "velocity": 0.3937007874015748
		},
		{
		  "duration": 0.1875,
		  "durationTicks": 192,
		  "midi": 59,
		  "name": "B3",
		  "ticks": 82140,
		  "time": 80.21484375,
		  "velocity": 0.3937007874015748
		},
		{
		  "duration": 0.1875,
		  "durationTicks": 192,
		  "midi": 87,
		  "name": "D#6",
		  "ticks": 82344,
		  "time": 80.4140625,
		  "velocity": 0.3937007874015748
		},
		{
		  "duration": 0.1875,
		  "durationTicks": 192,
		  "midi": 83,
		  "name": "B5",
		  "ticks": 82344,
		  "time": 80.4140625,
		  "velocity": 0.3937007874015748
		},
		{
		  "duration": 0.1875,
		  "durationTicks": 192,
		  "midi": 59,
		  "name": "B3",
		  "ticks": 82344,
		  "time": 80.4140625,
		  "velocity": 0.3937007874015748
		},
		{
		  "duration": 0.1875,
		  "durationTicks": 192,
		  "midi": 56,
		  "name": "G#3",
		  "ticks": 82344,
		  "time": 80.4140625,
		  "velocity": 0.3937007874015748
		},
		{
		  "duration": 0.1875,
		  "durationTicks": 192,
		  "midi": 49,
		  "name": "C#3",
		  "ticks": 82536,
		  "time": 80.6015625,
		  "velocity": 0.3937007874015748
		},
		{
		  "duration": 0.1875,
		  "durationTicks": 192,
		  "midi": 82,
		  "name": "A#5",
		  "ticks": 82712,
		  "time": 80.7734375,
		  "velocity": 0.3937007874015748
		},
		{
		  "duration": 0.1875,
		  "durationTicks": 192,
		  "midi": 79,
		  "name": "G5",
		  "ticks": 82712,
		  "time": 80.7734375,
		  "velocity": 0.3937007874015748
		},
		{
		  "duration": 0.1875,
		  "durationTicks": 192,
		  "midi": 63,
		  "name": "D#4",
		  "ticks": 82712,
		  "time": 80.7734375,
		  "velocity": 0.3937007874015748
		},
		{
		  "duration": 0.1875,
		  "durationTicks": 192,
		  "midi": 58,
		  "name": "A#3",
		  "ticks": 82712,
		  "time": 80.7734375,
		  "velocity": 0.3937007874015748
		},
		{
		  "duration": 0.1875,
		  "durationTicks": 192,
		  "midi": 82,
		  "name": "A#5",
		  "ticks": 82904,
		  "time": 80.9609375,
		  "velocity": 0.3937007874015748
		},
		{
		  "duration": 0.1875,
		  "durationTicks": 192,
		  "midi": 79,
		  "name": "G5",
		  "ticks": 82904,
		  "time": 80.9609375,
		  "velocity": 0.3937007874015748
		},
		{
		  "duration": 0.1875,
		  "durationTicks": 192,
		  "midi": 63,
		  "name": "D#4",
		  "ticks": 82904,
		  "time": 80.9609375,
		  "velocity": 0.3937007874015748
		},
		{
		  "duration": 0.1875,
		  "durationTicks": 192,
		  "midi": 58,
		  "name": "A#3",
		  "ticks": 82904,
		  "time": 80.9609375,
		  "velocity": 0.3937007874015748
		},
		{
		  "duration": 0.1875,
		  "durationTicks": 192,
		  "midi": 87,
		  "name": "D#6",
		  "ticks": 83112,
		  "time": 81.1640625,
		  "velocity": 0.3937007874015748
		},
		{
		  "duration": 0.1875,
		  "durationTicks": 192,
		  "midi": 82,
		  "name": "A#5",
		  "ticks": 83112,
		  "time": 81.1640625,
		  "velocity": 0.3937007874015748
		},
		{
		  "duration": 0.1875,
		  "durationTicks": 192,
		  "midi": 58,
		  "name": "A#3",
		  "ticks": 83112,
		  "time": 81.1640625,
		  "velocity": 0.3937007874015748
		},
		{
		  "duration": 0.1875,
		  "durationTicks": 192,
		  "midi": 55,
		  "name": "G3",
		  "ticks": 83112,
		  "time": 81.1640625,
		  "velocity": 0.3937007874015748
		},
		{
		  "duration": 0.1875,
		  "durationTicks": 192,
		  "midi": 47,
		  "name": "B2",
		  "ticks": 83304,
		  "time": 81.3515625,
		  "velocity": 0.3937007874015748
		},
		{
		  "duration": 0.1875,
		  "durationTicks": 192,
		  "midi": 83,
		  "name": "B5",
		  "ticks": 83480,
		  "time": 81.5234375,
		  "velocity": 0.3937007874015748
		},
		{
		  "duration": 0.1875,
		  "durationTicks": 192,
		  "midi": 75,
		  "name": "D#5",
		  "ticks": 83480,
		  "time": 81.5234375,
		  "velocity": 0.3937007874015748
		},
		{
		  "duration": 0.1875,
		  "durationTicks": 192,
		  "midi": 68,
		  "name": "G#4",
		  "ticks": 83480,
		  "time": 81.5234375,
		  "velocity": 0.3937007874015748
		},
		{
		  "duration": 0.1875,
		  "durationTicks": 192,
		  "midi": 63,
		  "name": "D#4",
		  "ticks": 83484,
		  "time": 81.52734375,
		  "velocity": 0.3937007874015748
		},
		{
		  "duration": 0.1875,
		  "durationTicks": 192,
		  "midi": 75,
		  "name": "D#5",
		  "ticks": 83668,
		  "time": 81.70703125,
		  "velocity": 0.3937007874015748
		},
		{
		  "duration": 0.1875,
		  "durationTicks": 192,
		  "midi": 68,
		  "name": "G#4",
		  "ticks": 83668,
		  "time": 81.70703125,
		  "velocity": 0.3937007874015748
		},
		{
		  "duration": 0.1875,
		  "durationTicks": 192,
		  "midi": 63,
		  "name": "D#4",
		  "ticks": 83668,
		  "time": 81.70703125,
		  "velocity": 0.3937007874015748
		},
		{
		  "duration": 0.1875,
		  "durationTicks": 192,
		  "midi": 83,
		  "name": "B5",
		  "ticks": 83672,
		  "time": 81.7109375,
		  "velocity": 0.3937007874015748
		},
		{
		  "duration": 0.1875,
		  "durationTicks": 192,
		  "midi": 80,
		  "name": "G#5",
		  "ticks": 83864,
		  "time": 81.8984375,
		  "velocity": 0.3937007874015748
		},
		{
		  "duration": 0.1875,
		  "durationTicks": 192,
		  "midi": 87,
		  "name": "D#6",
		  "ticks": 83864,
		  "time": 81.8984375,
		  "velocity": 0.3937007874015748
		},
		{
		  "duration": 0.1875,
		  "durationTicks": 192,
		  "midi": 63,
		  "name": "D#4",
		  "ticks": 83864,
		  "time": 81.8984375,
		  "velocity": 0.3937007874015748
		},
		{
		  "duration": 0.1875,
		  "durationTicks": 192,
		  "midi": 59,
		  "name": "B3",
		  "ticks": 83864,
		  "time": 81.8984375,
		  "velocity": 0.3937007874015748
		},
		{
		  "duration": 0.1875,
		  "durationTicks": 192,
		  "midi": 49,
		  "name": "C#3",
		  "ticks": 84072,
		  "time": 82.1015625,
		  "velocity": 0.3937007874015748
		},
		{
		  "duration": 0.1875,
		  "durationTicks": 192,
		  "midi": 81,
		  "name": "A5",
		  "ticks": 84252,
		  "time": 82.27734375,
		  "velocity": 0.3937007874015748
		},
		{
		  "duration": 0.1875,
		  "durationTicks": 192,
		  "midi": 73,
		  "name": "C#5",
		  "ticks": 84252,
		  "time": 82.27734375,
		  "velocity": 0.3937007874015748
		},
		{
		  "duration": 0.1875,
		  "durationTicks": 192,
		  "midi": 69,
		  "name": "A4",
		  "ticks": 84252,
		  "time": 82.27734375,
		  "velocity": 0.3937007874015748
		},
		{
		  "duration": 0.1875,
		  "durationTicks": 192,
		  "midi": 64,
		  "name": "E4",
		  "ticks": 84252,
		  "time": 82.27734375,
		  "velocity": 0.3937007874015748
		},
		{
		  "duration": 0.1875,
		  "durationTicks": 192,
		  "midi": 73,
		  "name": "C#5",
		  "ticks": 84436,
		  "time": 82.45703125,
		  "velocity": 0.3937007874015748
		},
		{
		  "duration": 0.1875,
		  "durationTicks": 192,
		  "midi": 69,
		  "name": "A4",
		  "ticks": 84436,
		  "time": 82.45703125,
		  "velocity": 0.3937007874015748
		},
		{
		  "duration": 0.1875,
		  "durationTicks": 192,
		  "midi": 64,
		  "name": "E4",
		  "ticks": 84436,
		  "time": 82.45703125,
		  "velocity": 0.3937007874015748
		},
		{
		  "duration": 0.1875,
		  "durationTicks": 192,
		  "midi": 81,
		  "name": "A5",
		  "ticks": 84440,
		  "time": 82.4609375,
		  "velocity": 0.3937007874015748
		},
		{
		  "duration": 0.1875,
		  "durationTicks": 192,
		  "midi": 85,
		  "name": "C#6",
		  "ticks": 84632,
		  "time": 82.6484375,
		  "velocity": 0.3937007874015748
		},
		{
		  "duration": 0.1875,
		  "durationTicks": 192,
		  "midi": 76,
		  "name": "E5",
		  "ticks": 84632,
		  "time": 82.6484375,
		  "velocity": 0.3937007874015748
		},
		{
		  "duration": 0.1875,
		  "durationTicks": 192,
		  "midi": 64,
		  "name": "E4",
		  "ticks": 84632,
		  "time": 82.6484375,
		  "velocity": 0.3937007874015748
		},
		{
		  "duration": 0.1875,
		  "durationTicks": 192,
		  "midi": 61,
		  "name": "C#4",
		  "ticks": 84632,
		  "time": 82.6484375,
		  "velocity": 0.3937007874015748
		},
		{
		  "duration": 0.1875,
		  "durationTicks": 192,
		  "midi": 51,
		  "name": "D#3",
		  "ticks": 84844,
		  "time": 82.85546875,
		  "velocity": 0.3937007874015748
		},
		{
		  "duration": 0.1875,
		  "durationTicks": 192,
		  "midi": 80,
		  "name": "G#5",
		  "ticks": 85016,
		  "time": 83.0234375,
		  "velocity": 0.3937007874015748
		},
		{
		  "duration": 0.1875,
		  "durationTicks": 192,
		  "midi": 71,
		  "name": "B4",
		  "ticks": 85016,
		  "time": 83.0234375,
		  "velocity": 0.3937007874015748
		},
		{
		  "duration": 0.1875,
		  "durationTicks": 192,
		  "midi": 68,
		  "name": "G#4",
		  "ticks": 85016,
		  "time": 83.0234375,
		  "velocity": 0.3937007874015748
		},
		{
		  "duration": 0.1875,
		  "durationTicks": 192,
		  "midi": 63,
		  "name": "D#4",
		  "ticks": 85016,
		  "time": 83.0234375,
		  "velocity": 0.3937007874015748
		},
		{
		  "duration": 0.1875,
		  "durationTicks": 192,
		  "midi": 71,
		  "name": "B4",
		  "ticks": 85212,
		  "time": 83.21484375,
		  "velocity": 0.3937007874015748
		},
		{
		  "duration": 0.1875,
		  "durationTicks": 192,
		  "midi": 80,
		  "name": "G#5",
		  "ticks": 85212,
		  "time": 83.21484375,
		  "velocity": 0.3937007874015748
		},
		{
		  "duration": 0.1875,
		  "durationTicks": 192,
		  "midi": 63,
		  "name": "D#4",
		  "ticks": 85212,
		  "time": 83.21484375,
		  "velocity": 0.3937007874015748
		},
		{
		  "duration": 0.1875,
		  "durationTicks": 192,
		  "midi": 68,
		  "name": "G#4",
		  "ticks": 85212,
		  "time": 83.21484375,
		  "velocity": 0.3937007874015748
		},
		{
		  "duration": 0.1875,
		  "durationTicks": 192,
		  "midi": 83,
		  "name": "B5",
		  "ticks": 85404,
		  "time": 83.40234375,
		  "velocity": 0.3937007874015748
		},
		{
		  "duration": 0.1875,
		  "durationTicks": 192,
		  "midi": 75,
		  "name": "D#5",
		  "ticks": 85404,
		  "time": 83.40234375,
		  "velocity": 0.3937007874015748
		},
		{
		  "duration": 0.1875,
		  "durationTicks": 192,
		  "midi": 63,
		  "name": "D#4",
		  "ticks": 85404,
		  "time": 83.40234375,
		  "velocity": 0.3937007874015748
		},
		{
		  "duration": 0.1875,
		  "durationTicks": 192,
		  "midi": 59,
		  "name": "B3",
		  "ticks": 85404,
		  "time": 83.40234375,
		  "velocity": 0.3937007874015748
		},
		{
		  "duration": 0.1875,
		  "durationTicks": 192,
		  "midi": 51,
		  "name": "D#3",
		  "ticks": 85608,
		  "time": 83.6015625,
		  "velocity": 0.3937007874015748
		},
		{
		  "duration": 0.1875,
		  "durationTicks": 192,
		  "midi": 79,
		  "name": "G5",
		  "ticks": 85784,
		  "time": 83.7734375,
		  "velocity": 0.3937007874015748
		},
		{
		  "duration": 0.1875,
		  "durationTicks": 192,
		  "midi": 70,
		  "name": "A#4",
		  "ticks": 85784,
		  "time": 83.7734375,
		  "velocity": 0.3937007874015748
		},
		{
		  "duration": 0.1875,
		  "durationTicks": 192,
		  "midi": 67,
		  "name": "G4",
		  "ticks": 85784,
		  "time": 83.7734375,
		  "velocity": 0.3937007874015748
		},
		{
		  "duration": 0.1875,
		  "durationTicks": 192,
		  "midi": 61,
		  "name": "C#4",
		  "ticks": 85784,
		  "time": 83.7734375,
		  "velocity": 0.3937007874015748
		},
		{
		  "duration": 0.1875,
		  "durationTicks": 192,
		  "midi": 79,
		  "name": "G5",
		  "ticks": 85976,
		  "time": 83.9609375,
		  "velocity": 0.3937007874015748
		},
		{
		  "duration": 0.1875,
		  "durationTicks": 192,
		  "midi": 70,
		  "name": "A#4",
		  "ticks": 85976,
		  "time": 83.9609375,
		  "velocity": 0.3937007874015748
		},
		{
		  "duration": 0.1875,
		  "durationTicks": 192,
		  "midi": 67,
		  "name": "G4",
		  "ticks": 85976,
		  "time": 83.9609375,
		  "velocity": 0.3937007874015748
		},
		{
		  "duration": 0.1875,
		  "durationTicks": 192,
		  "midi": 61,
		  "name": "C#4",
		  "ticks": 85976,
		  "time": 83.9609375,
		  "velocity": 0.3937007874015748
		},
		{
		  "duration": 0.1875,
		  "durationTicks": 192,
		  "midi": 73,
		  "name": "C#5",
		  "ticks": 86180,
		  "time": 84.16015625,
		  "velocity": 0.3937007874015748
		},
		{
		  "duration": 0.1875,
		  "durationTicks": 192,
		  "midi": 82,
		  "name": "A#5",
		  "ticks": 86185,
		  "time": 84.1650390625,
		  "velocity": 0.3937007874015748
		},
		{
		  "duration": 0.1875,
		  "durationTicks": 192,
		  "midi": 61,
		  "name": "C#4",
		  "ticks": 86189,
		  "time": 84.1689453125,
		  "velocity": 0.3937007874015748
		},
		{
		  "duration": 0.1875,
		  "durationTicks": 192,
		  "midi": 58,
		  "name": "A#3",
		  "ticks": 86189,
		  "time": 84.1689453125,
		  "velocity": 0.3937007874015748
		},
		{
		  "duration": 0.375,
		  "durationTicks": 384,
		  "midi": 71,
		  "name": "B4",
		  "ticks": 86377,
		  "time": 84.3525390625,
		  "velocity": 0.3937007874015748
		},
		{
		  "duration": 0.375,
		  "durationTicks": 384,
		  "midi": 80,
		  "name": "G#5",
		  "ticks": 86377,
		  "time": 84.3525390625,
		  "velocity": 0.3937007874015748
		},
		{
		  "duration": 0.09375,
		  "durationTicks": 96,
		  "midi": 44,
		  "name": "G#2",
		  "ticks": 86377,
		  "time": 84.3525390625,
		  "velocity": 0.3937007874015748
		},
		{
		  "duration": 0.09375,
		  "durationTicks": 96,
		  "midi": 56,
		  "name": "G#3",
		  "ticks": 86473,
		  "time": 84.4462890625,
		  "velocity": 0.3937007874015748
		},
		{
		  "duration": 0.09375,
		  "durationTicks": 96,
		  "midi": 51,
		  "name": "D#3",
		  "ticks": 86569,
		  "time": 84.5400390625,
		  "velocity": 0.3937007874015748
		},
		{
		  "duration": 0.09375,
		  "durationTicks": 96,
		  "midi": 56,
		  "name": "G#3",
		  "ticks": 86665,
		  "time": 84.6337890625,
		  "velocity": 0.3937007874015748
		},
		{
		  "duration": 0.09375,
		  "durationTicks": 96,
		  "midi": 44,
		  "name": "G#2",
		  "ticks": 86761,
		  "time": 84.7275390625,
		  "velocity": 0.3937007874015748
		},
		{
		  "duration": 0.09375,
		  "durationTicks": 96,
		  "midi": 56,
		  "name": "G#3",
		  "ticks": 86857,
		  "time": 84.8212890625,
		  "velocity": 0.3937007874015748
		},
		{
		  "duration": 0.09375,
		  "durationTicks": 96,
		  "midi": 51,
		  "name": "D#3",
		  "ticks": 86953,
		  "time": 84.9150390625,
		  "velocity": 0.3937007874015748
		},
		{
		  "duration": 0.09375,
		  "durationTicks": 96,
		  "midi": 56,
		  "name": "G#3",
		  "ticks": 87053,
		  "time": 85.0126953125,
		  "velocity": 0.3937007874015748
		},
		{
		  "duration": 0.09375,
		  "durationTicks": 96,
		  "midi": 44,
		  "name": "G#2",
		  "ticks": 87145,
		  "time": 85.1025390625,
		  "velocity": 0.3937007874015748
		},
		{
		  "duration": 0.09375,
		  "durationTicks": 96,
		  "midi": 56,
		  "name": "G#3",
		  "ticks": 87245,
		  "time": 85.2001953125,
		  "velocity": 0.3937007874015748
		},
		{
		  "duration": 0.09375,
		  "durationTicks": 96,
		  "midi": 51,
		  "name": "D#3",
		  "ticks": 87337,
		  "time": 85.2900390625,
		  "velocity": 0.3937007874015748
		},
		{
		  "duration": 0.09375,
		  "durationTicks": 96,
		  "midi": 56,
		  "name": "G#3",
		  "ticks": 87433,
		  "time": 85.3837890625,
		  "velocity": 0.3937007874015748
		},
		{
		  "duration": 0.28125,
		  "durationTicks": 288,
		  "midi": 71,
		  "name": "B4",
		  "ticks": 87517,
		  "time": 85.4658203125,
		  "velocity": 0.3937007874015748
		},
		{
		  "duration": 0.09375,
		  "durationTicks": 96,
		  "midi": 44,
		  "name": "G#2",
		  "ticks": 87529,
		  "time": 85.4775390625,
		  "velocity": 0.3937007874015748
		},
		{
		  "duration": 0.09375,
		  "durationTicks": 96,
		  "midi": 56,
		  "name": "G#3",
		  "ticks": 87625,
		  "time": 85.5712890625,
		  "velocity": 0.3937007874015748
		},
		{
		  "duration": 0.09375,
		  "durationTicks": 96,
		  "midi": 51,
		  "name": "D#3",
		  "ticks": 87721,
		  "time": 85.6650390625,
		  "velocity": 0.3937007874015748
		},
		{
		  "duration": 0.09375,
		  "durationTicks": 96,
		  "midi": 68,
		  "name": "G#4",
		  "ticks": 87817,
		  "time": 85.7587890625,
		  "velocity": 0.3937007874015748
		},
		{
		  "duration": 0.09375,
		  "durationTicks": 96,
		  "midi": 56,
		  "name": "G#3",
		  "ticks": 87817,
		  "time": 85.7587890625,
		  "velocity": 0.3937007874015748
		},
		{
		  "duration": 0.09375,
		  "durationTicks": 96,
		  "midi": 44,
		  "name": "G#2",
		  "ticks": 87897,
		  "time": 85.8369140625,
		  "velocity": 0.3937007874015748
		},
		{
		  "duration": 0.3759765625,
		  "durationTicks": 385,
		  "midi": 67,
		  "name": "G4",
		  "ticks": 87913,
		  "time": 85.8525390625,
		  "velocity": 0.3937007874015748
		},
		{
		  "duration": 0.09375,
		  "durationTicks": 96,
		  "midi": 58,
		  "name": "A#3",
		  "ticks": 88009,
		  "time": 85.9462890625,
		  "velocity": 0.3937007874015748
		},
		{
		  "duration": 0.09375,
		  "durationTicks": 96,
		  "midi": 51,
		  "name": "D#3",
		  "ticks": 88109,
		  "time": 86.0439453125,
		  "velocity": 0.3937007874015748
		},
		{
		  "duration": 0.0947265625,
		  "durationTicks": 97,
		  "midi": 58,
		  "name": "A#3",
		  "ticks": 88205,
		  "time": 86.1376953125,
		  "velocity": 0.3937007874015748
		},
		{
		  "duration": 0.2822265625,
		  "durationTicks": 289,
		  "midi": 67,
		  "name": "G4",
		  "ticks": 88289,
		  "time": 86.2197265625,
		  "velocity": 0.3937007874015748
		},
		{
		  "duration": 0.2822265625,
		  "durationTicks": 289,
		  "midi": 75,
		  "name": "D#5",
		  "ticks": 88289,
		  "time": 86.2197265625,
		  "velocity": 0.3937007874015748
		},
		{
		  "duration": 0.2822265625,
		  "durationTicks": 289,
		  "midi": 61,
		  "name": "C#4",
		  "ticks": 88289,
		  "time": 86.2197265625,
		  "velocity": 0.3937007874015748
		},
		{
		  "duration": 0.09375,
		  "durationTicks": 96,
		  "midi": 44,
		  "name": "G#2",
		  "ticks": 88302,
		  "time": 86.232421875,
		  "velocity": 0.3937007874015748
		},
		{
		  "duration": 0.09375,
		  "durationTicks": 96,
		  "midi": 58,
		  "name": "A#3",
		  "ticks": 88398,
		  "time": 86.326171875,
		  "velocity": 0.3937007874015748
		},
		{
		  "duration": 0.0947265625,
		  "durationTicks": 97,
		  "midi": 51,
		  "name": "D#3",
		  "ticks": 88490,
		  "time": 86.416015625,
		  "velocity": 0.3937007874015748
		},
		{
		  "duration": 0.09375,
		  "durationTicks": 96,
		  "midi": 58,
		  "name": "A#3",
		  "ticks": 88587,
		  "time": 86.5107421875,
		  "velocity": 0.3937007874015748
		},
		{
		  "duration": 0.28125,
		  "durationTicks": 288,
		  "midi": 61,
		  "name": "C#4",
		  "ticks": 88671,
		  "time": 86.5927734375,
		  "velocity": 0.3937007874015748
		},
		{
		  "duration": 0.28125,
		  "durationTicks": 288,
		  "midi": 75,
		  "name": "D#5",
		  "ticks": 88671,
		  "time": 86.5927734375,
		  "velocity": 0.3937007874015748
		},
		{
		  "duration": 0.28125,
		  "durationTicks": 288,
		  "midi": 67,
		  "name": "G4",
		  "ticks": 88671,
		  "time": 86.5927734375,
		  "velocity": 0.3937007874015748
		},
		{
		  "duration": 0.09375,
		  "durationTicks": 96,
		  "midi": 44,
		  "name": "G#2",
		  "ticks": 88683,
		  "time": 86.6044921875,
		  "velocity": 0.3937007874015748
		},
		{
		  "duration": 0.09375,
		  "durationTicks": 96,
		  "midi": 58,
		  "name": "A#3",
		  "ticks": 88779,
		  "time": 86.6982421875,
		  "velocity": 0.3937007874015748
		},
		{
		  "duration": 0.09375,
		  "durationTicks": 96,
		  "midi": 51,
		  "name": "D#3",
		  "ticks": 88875,
		  "time": 86.7919921875,
		  "velocity": 0.3937007874015748
		},
		{
		  "duration": 0.09375,
		  "durationTicks": 96,
		  "midi": 58,
		  "name": "A#3",
		  "ticks": 88971,
		  "time": 86.8857421875,
		  "velocity": 0.3937007874015748
		},
		{
		  "duration": 0.28125,
		  "durationTicks": 288,
		  "midi": 61,
		  "name": "C#4",
		  "ticks": 89051,
		  "time": 86.9638671875,
		  "velocity": 0.3937007874015748
		},
		{
		  "duration": 0.28125,
		  "durationTicks": 288,
		  "midi": 67,
		  "name": "G4",
		  "ticks": 89051,
		  "time": 86.9638671875,
		  "velocity": 0.3937007874015748
		},
		{
		  "duration": 0.28125,
		  "durationTicks": 288,
		  "midi": 75,
		  "name": "D#5",
		  "ticks": 89051,
		  "time": 86.9638671875,
		  "velocity": 0.3937007874015748
		},
		{
		  "duration": 0.09375,
		  "durationTicks": 96,
		  "midi": 44,
		  "name": "G#2",
		  "ticks": 89067,
		  "time": 86.9794921875,
		  "velocity": 0.3937007874015748
		},
		{
		  "duration": 0.09375,
		  "durationTicks": 96,
		  "midi": 58,
		  "name": "A#3",
		  "ticks": 89167,
		  "time": 87.0771484375,
		  "velocity": 0.3937007874015748
		},
		{
		  "duration": 0.09375,
		  "durationTicks": 96,
		  "midi": 51,
		  "name": "D#3",
		  "ticks": 89263,
		  "time": 87.1708984375,
		  "velocity": 0.3937007874015748
		},
		{
		  "duration": 0.09375,
		  "durationTicks": 96,
		  "midi": 58,
		  "name": "A#3",
		  "ticks": 89359,
		  "time": 87.2646484375,
		  "velocity": 0.3937007874015748
		},
		{
		  "duration": 0.09375,
		  "durationTicks": 96,
		  "midi": 59,
		  "name": "B3",
		  "ticks": 89431,
		  "time": 87.3349609375,
		  "velocity": 0.3937007874015748
		},
		{
		  "duration": 0.09375,
		  "durationTicks": 96,
		  "midi": 44,
		  "name": "G#2",
		  "ticks": 89455,
		  "time": 87.3583984375,
		  "velocity": 0.3937007874015748
		},
		{
		  "duration": 0.0947265625,
		  "durationTicks": 97,
		  "midi": 68,
		  "name": "G#4",
		  "ticks": 89494,
		  "time": 87.396484375,
		  "velocity": 0.3937007874015748
		},
		{
		  "duration": 0.0947265625,
		  "durationTicks": 97,
		  "midi": 56,
		  "name": "G#3",
		  "ticks": 89547,
		  "time": 87.4482421875,
		  "velocity": 0.3937007874015748
		},
		{
		  "duration": 1.0322265625,
		  "durationTicks": 1057,
		  "midi": 75,
		  "name": "D#5",
		  "ticks": 89563,
		  "time": 87.4638671875,
		  "velocity": 0.3937007874015748
		},
		{
		  "duration": 0.09375,
		  "durationTicks": 96,
		  "midi": 51,
		  "name": "D#3",
		  "ticks": 89644,
		  "time": 87.54296875,
		  "velocity": 0.3937007874015748
		},
		{
		  "duration": 0.09375,
		  "durationTicks": 96,
		  "midi": 56,
		  "name": "G#3",
		  "ticks": 89740,
		  "time": 87.63671875,
		  "velocity": 0.3937007874015748
		},
		{
		  "duration": 0.09375,
		  "durationTicks": 96,
		  "midi": 44,
		  "name": "G#2",
		  "ticks": 89836,
		  "time": 87.73046875,
		  "velocity": 0.3937007874015748
		},
		{
		  "duration": 0.09375,
		  "durationTicks": 96,
		  "midi": 56,
		  "name": "G#3",
		  "ticks": 89932,
		  "time": 87.82421875,
		  "velocity": 0.3937007874015748
		},
		{
		  "duration": 0.09375,
		  "durationTicks": 96,
		  "midi": 51,
		  "name": "D#3",
		  "ticks": 90028,
		  "time": 87.91796875,
		  "velocity": 0.3937007874015748
		},
		{
		  "duration": 0.09375,
		  "durationTicks": 96,
		  "midi": 56,
		  "name": "G#3",
		  "ticks": 90124,
		  "time": 88.01171875,
		  "velocity": 0.3937007874015748
		},
		{
		  "duration": 0.09375,
		  "durationTicks": 96,
		  "midi": 44,
		  "name": "G#2",
		  "ticks": 90224,
		  "time": 88.109375,
		  "velocity": 0.3937007874015748
		},
		{
		  "duration": 0.09375,
		  "durationTicks": 96,
		  "midi": 56,
		  "name": "G#3",
		  "ticks": 90320,
		  "time": 88.203125,
		  "velocity": 0.3937007874015748
		},
		{
		  "duration": 0.09375,
		  "durationTicks": 96,
		  "midi": 51,
		  "name": "D#3",
		  "ticks": 90416,
		  "time": 88.296875,
		  "velocity": 0.3937007874015748
		},
		{
		  "duration": 0.09375,
		  "durationTicks": 96,
		  "midi": 56,
		  "name": "G#3",
		  "ticks": 90512,
		  "time": 88.390625,
		  "velocity": 0.3937007874015748
		},
		{
		  "duration": 0.2822265625,
		  "durationTicks": 289,
		  "midi": 83,
		  "name": "B5",
		  "ticks": 90599,
		  "time": 88.4755859375,
		  "velocity": 0.3937007874015748
		},
		{
		  "duration": 0.0947265625,
		  "durationTicks": 97,
		  "midi": 44,
		  "name": "G#2",
		  "ticks": 90608,
		  "time": 88.484375,
		  "velocity": 0.3937007874015748
		},
		{
		  "duration": 0.09375,
		  "durationTicks": 96,
		  "midi": 56,
		  "name": "G#3",
		  "ticks": 90701,
		  "time": 88.5751953125,
		  "velocity": 0.3937007874015748
		},
		{
		  "duration": 0.09375,
		  "durationTicks": 96,
		  "midi": 51,
		  "name": "D#3",
		  "ticks": 90797,
		  "time": 88.6689453125,
		  "velocity": 0.3937007874015748
		},
		{
		  "duration": 0.09375,
		  "durationTicks": 96,
		  "midi": 80,
		  "name": "G#5",
		  "ticks": 90888,
		  "time": 88.7578125,
		  "velocity": 0.3937007874015748
		},
		{
		  "duration": 0.09375,
		  "durationTicks": 96,
		  "midi": 56,
		  "name": "G#3",
		  "ticks": 90893,
		  "time": 88.7626953125,
		  "velocity": 0.3937007874015748
		},
		{
		  "duration": 0.375,
		  "durationTicks": 384,
		  "midi": 79,
		  "name": "G5",
		  "ticks": 90984,
		  "time": 88.8515625,
		  "velocity": 0.3937007874015748
		},
		{
		  "duration": 0.09375,
		  "durationTicks": 96,
		  "midi": 44,
		  "name": "G#2",
		  "ticks": 90989,
		  "time": 88.8564453125,
		  "velocity": 0.3937007874015748
		},
		{
		  "duration": 0.09375,
		  "durationTicks": 96,
		  "midi": 58,
		  "name": "A#3",
		  "ticks": 91085,
		  "time": 88.9501953125,
		  "velocity": 0.3937007874015748
		},
		{
		  "duration": 0.09375,
		  "durationTicks": 96,
		  "midi": 51,
		  "name": "D#3",
		  "ticks": 91181,
		  "time": 89.0439453125,
		  "velocity": 0.3937007874015748
		},
		{
		  "duration": 0.09375,
		  "durationTicks": 96,
		  "midi": 58,
		  "name": "A#3",
		  "ticks": 91277,
		  "time": 89.1376953125,
		  "velocity": 0.3937007874015748
		},
		{
		  "duration": 0.28125,
		  "durationTicks": 288,
		  "midi": 79,
		  "name": "G5",
		  "ticks": 91353,
		  "time": 89.2119140625,
		  "velocity": 0.3937007874015748
		},
		{
		  "duration": 0.28125,
		  "durationTicks": 288,
		  "midi": 87,
		  "name": "D#6",
		  "ticks": 91353,
		  "time": 89.2119140625,
		  "velocity": 0.3937007874015748
		},
		{
		  "duration": 0.28125,
		  "durationTicks": 288,
		  "midi": 73,
		  "name": "C#5",
		  "ticks": 91353,
		  "time": 89.2119140625,
		  "velocity": 0.3937007874015748
		},
		{
		  "duration": 0.09375,
		  "durationTicks": 96,
		  "midi": 44,
		  "name": "G#2",
		  "ticks": 91377,
		  "time": 89.2353515625,
		  "velocity": 0.3937007874015748
		},
		{
		  "duration": 0.09375,
		  "durationTicks": 96,
		  "midi": 58,
		  "name": "A#3",
		  "ticks": 91473,
		  "time": 89.3291015625,
		  "velocity": 0.3937007874015748
		},
		{
		  "duration": 0.09375,
		  "durationTicks": 96,
		  "midi": 51,
		  "name": "D#3",
		  "ticks": 91569,
		  "time": 89.4228515625,
		  "velocity": 0.3937007874015748
		},
		{
		  "duration": 0.09375,
		  "durationTicks": 96,
		  "midi": 58,
		  "name": "A#3",
		  "ticks": 91665,
		  "time": 89.5166015625,
		  "velocity": 0.3937007874015748
		},
		{
		  "duration": 0.28125,
		  "durationTicks": 288,
		  "midi": 79,
		  "name": "G5",
		  "ticks": 91737,
		  "time": 89.5869140625,
		  "velocity": 0.3937007874015748
		},
		{
		  "duration": 0.28125,
		  "durationTicks": 288,
		  "midi": 73,
		  "name": "C#5",
		  "ticks": 91737,
		  "time": 89.5869140625,
		  "velocity": 0.3937007874015748
		},
		{
		  "duration": 0.28125,
		  "durationTicks": 288,
		  "midi": 87,
		  "name": "D#6",
		  "ticks": 91737,
		  "time": 89.5869140625,
		  "velocity": 0.3937007874015748
		},
		{
		  "duration": 0.09375,
		  "durationTicks": 96,
		  "midi": 44,
		  "name": "G#2",
		  "ticks": 91757,
		  "time": 89.6064453125,
		  "velocity": 0.3937007874015748
		},
		{
		  "duration": 0.09375,
		  "durationTicks": 96,
		  "midi": 58,
		  "name": "A#3",
		  "ticks": 91853,
		  "time": 89.7001953125,
		  "velocity": 0.3937007874015748
		},
		{
		  "duration": 0.09375,
		  "durationTicks": 96,
		  "midi": 51,
		  "name": "D#3",
		  "ticks": 91949,
		  "time": 89.7939453125,
		  "velocity": 0.3937007874015748
		},
		{
		  "duration": 0.09375,
		  "durationTicks": 96,
		  "midi": 58,
		  "name": "A#3",
		  "ticks": 92045,
		  "time": 89.8876953125,
		  "velocity": 0.3937007874015748
		},
		{
		  "duration": 0.28125,
		  "durationTicks": 288,
		  "midi": 73,
		  "name": "C#5",
		  "ticks": 92121,
		  "time": 89.9619140625,
		  "velocity": 0.3937007874015748
		},
		{
		  "duration": 0.28125,
		  "durationTicks": 288,
		  "midi": 79,
		  "name": "G5",
		  "ticks": 92121,
		  "time": 89.9619140625,
		  "velocity": 0.3937007874015748
		},
		{
		  "duration": 0.28125,
		  "durationTicks": 288,
		  "midi": 87,
		  "name": "D#6",
		  "ticks": 92121,
		  "time": 89.9619140625,
		  "velocity": 0.3937007874015748
		},
		{
		  "duration": 0.09375,
		  "durationTicks": 96,
		  "midi": 44,
		  "name": "G#2",
		  "ticks": 92141,
		  "time": 89.9814453125,
		  "velocity": 0.3937007874015748
		},
		{
		  "duration": 0.09375,
		  "durationTicks": 96,
		  "midi": 58,
		  "name": "A#3",
		  "ticks": 92237,
		  "time": 90.0751953125,
		  "velocity": 0.3937007874015748
		},
		{
		  "duration": 0.09375,
		  "durationTicks": 96,
		  "midi": 51,
		  "name": "D#3",
		  "ticks": 92333,
		  "time": 90.1689453125,
		  "velocity": 0.3937007874015748
		},
		{
		  "duration": 0.09375,
		  "durationTicks": 96,
		  "midi": 58,
		  "name": "A#3",
		  "ticks": 92433,
		  "time": 90.2666015625,
		  "velocity": 0.3937007874015748
		},
		{
		  "duration": 0.09375,
		  "durationTicks": 96,
		  "midi": 71,
		  "name": "B4",
		  "ticks": 92505,
		  "time": 90.3369140625,
		  "velocity": 0.3937007874015748
		},
		{
		  "duration": 0.09375,
		  "durationTicks": 96,
		  "midi": 44,
		  "name": "G#2",
		  "ticks": 92529,
		  "time": 90.3603515625,
		  "velocity": 0.3937007874015748
		},
		{
		  "duration": 0.0947265625,
		  "durationTicks": 97,
		  "midi": 80,
		  "name": "G#5",
		  "ticks": 92568,
		  "time": 90.3984375,
		  "velocity": 0.3937007874015748
		},
		{
		  "duration": 0.0947265625,
		  "durationTicks": 97,
		  "midi": 56,
		  "name": "G#3",
		  "ticks": 92621,
		  "time": 90.4501953125,
		  "velocity": 0.3937007874015748
		},
		{
		  "duration": 0.6572265625,
		  "durationTicks": 673,
		  "midi": 87,
		  "name": "D#6",
		  "ticks": 92637,
		  "time": 90.4658203125,
		  "velocity": 0.3937007874015748
		},
		{
		  "duration": 0.09375,
		  "durationTicks": 96,
		  "midi": 51,
		  "name": "D#3",
		  "ticks": 92718,
		  "time": 90.544921875,
		  "velocity": 0.3937007874015748
		},
		{
		  "duration": 0.09375,
		  "durationTicks": 96,
		  "midi": 56,
		  "name": "G#3",
		  "ticks": 92814,
		  "time": 90.638671875,
		  "velocity": 0.3937007874015748
		},
		{
		  "duration": 0.09375,
		  "durationTicks": 96,
		  "midi": 44,
		  "name": "G#2",
		  "ticks": 92910,
		  "time": 90.732421875,
		  "velocity": 0.3937007874015748
		},
		{
		  "duration": 0.09375,
		  "durationTicks": 96,
		  "midi": 56,
		  "name": "G#3",
		  "ticks": 93006,
		  "time": 90.826171875,
		  "velocity": 0.3937007874015748
		},
		{
		  "duration": 0.09375,
		  "durationTicks": 96,
		  "midi": 51,
		  "name": "D#3",
		  "ticks": 93102,
		  "time": 90.919921875,
		  "velocity": 0.3937007874015748
		},
		{
		  "duration": 0.09375,
		  "durationTicks": 96,
		  "midi": 56,
		  "name": "G#3",
		  "ticks": 93198,
		  "time": 91.013671875,
		  "velocity": 0.3937007874015748
		},
		{
		  "duration": 0.09375,
		  "durationTicks": 96,
		  "midi": 44,
		  "name": "G#2",
		  "ticks": 93294,
		  "time": 91.107421875,
		  "velocity": 0.3937007874015748
		},
		{
		  "duration": 0.09375,
		  "durationTicks": 96,
		  "midi": 73,
		  "name": "C#5",
		  "ticks": 93302,
		  "time": 91.115234375,
		  "velocity": 0.3937007874015748
		},
		{
		  "duration": 0.09375,
		  "durationTicks": 96,
		  "midi": 79,
		  "name": "G5",
		  "ticks": 93350,
		  "time": 91.162109375,
		  "velocity": 0.3937007874015748
		},
		{
		  "duration": 0.09375,
		  "durationTicks": 96,
		  "midi": 58,
		  "name": "A#3",
		  "ticks": 93390,
		  "time": 91.201171875,
		  "velocity": 0.3937007874015748
		},
		{
		  "duration": 0.65625,
		  "durationTicks": 672,
		  "midi": 87,
		  "name": "D#6",
		  "ticks": 93414,
		  "time": 91.224609375,
		  "velocity": 0.3937007874015748
		},
		{
		  "duration": 0.09375,
		  "durationTicks": 96,
		  "midi": 51,
		  "name": "D#3",
		  "ticks": 93486,
		  "time": 91.294921875,
		  "velocity": 0.3937007874015748
		},
		{
		  "duration": 0.09375,
		  "durationTicks": 96,
		  "midi": 58,
		  "name": "A#3",
		  "ticks": 93586,
		  "time": 91.392578125,
		  "velocity": 0.3937007874015748
		},
		{
		  "duration": 0.09375,
		  "durationTicks": 96,
		  "midi": 44,
		  "name": "G#2",
		  "ticks": 93682,
		  "time": 91.486328125,
		  "velocity": 0.3937007874015748
		},
		{
		  "duration": 0.09375,
		  "durationTicks": 96,
		  "midi": 58,
		  "name": "A#3",
		  "ticks": 93778,
		  "time": 91.580078125,
		  "velocity": 0.3937007874015748
		},
		{
		  "duration": 0.09375,
		  "durationTicks": 96,
		  "midi": 51,
		  "name": "D#3",
		  "ticks": 93870,
		  "time": 91.669921875,
		  "velocity": 0.3937007874015748
		},
		{
		  "duration": 0.09375,
		  "durationTicks": 96,
		  "midi": 58,
		  "name": "A#3",
		  "ticks": 93966,
		  "time": 91.763671875,
		  "velocity": 0.3937007874015748
		},
		{
		  "duration": 0.09375,
		  "durationTicks": 96,
		  "midi": 44,
		  "name": "G#2",
		  "ticks": 94062,
		  "time": 91.857421875,
		  "velocity": 0.3937007874015748
		},
		{
		  "duration": 0.09375,
		  "durationTicks": 96,
		  "midi": 71,
		  "name": "B4",
		  "ticks": 94070,
		  "time": 91.865234375,
		  "velocity": 0.3937007874015748
		},
		{
		  "duration": 0.09375,
		  "durationTicks": 96,
		  "midi": 56,
		  "name": "G#3",
		  "ticks": 94158,
		  "time": 91.951171875,
		  "velocity": 0.3937007874015748
		},
		{
		  "duration": 0.65625,
		  "durationTicks": 672,
		  "midi": 87,
		  "name": "D#6",
		  "ticks": 94182,
		  "time": 91.974609375,
		  "velocity": 0.3937007874015748
		},
		{
		  "duration": 0.09375,
		  "durationTicks": 96,
		  "midi": 51,
		  "name": "D#3",
		  "ticks": 94254,
		  "time": 92.044921875,
		  "velocity": 0.3937007874015748
		},
		{
		  "duration": 0.09375,
		  "durationTicks": 96,
		  "midi": 56,
		  "name": "G#3",
		  "ticks": 94350,
		  "time": 92.138671875,
		  "velocity": 0.3937007874015748
		},
		{
		  "duration": 0.09375,
		  "durationTicks": 96,
		  "midi": 44,
		  "name": "G#2",
		  "ticks": 94446,
		  "time": 92.232421875,
		  "velocity": 0.3937007874015748
		},
		{
		  "duration": 0.09375,
		  "durationTicks": 96,
		  "midi": 56,
		  "name": "G#3",
		  "ticks": 94542,
		  "time": 92.326171875,
		  "velocity": 0.3937007874015748
		},
		{
		  "duration": 0.09375,
		  "durationTicks": 96,
		  "midi": 51,
		  "name": "D#3",
		  "ticks": 94642,
		  "time": 92.423828125,
		  "velocity": 0.3937007874015748
		},
		{
		  "duration": 0.09375,
		  "durationTicks": 96,
		  "midi": 56,
		  "name": "G#3",
		  "ticks": 94738,
		  "time": 92.517578125,
		  "velocity": 0.3937007874015748
		},
		{
		  "duration": 0.09375,
		  "durationTicks": 96,
		  "midi": 44,
		  "name": "G#2",
		  "ticks": 94834,
		  "time": 92.611328125,
		  "velocity": 0.3937007874015748
		},
		{
		  "duration": 0.09375,
		  "durationTicks": 96,
		  "midi": 73,
		  "name": "C#5",
		  "ticks": 94854,
		  "time": 92.630859375,
		  "velocity": 0.3937007874015748
		},
		{
		  "duration": 0.09375,
		  "durationTicks": 96,
		  "midi": 79,
		  "name": "G5",
		  "ticks": 94902,
		  "time": 92.677734375,
		  "velocity": 0.3937007874015748
		},
		{
		  "duration": 0.09375,
		  "durationTicks": 96,
		  "midi": 58,
		  "name": "A#3",
		  "ticks": 94930,
		  "time": 92.705078125,
		  "velocity": 0.3937007874015748
		},
		{
		  "duration": 0.65625,
		  "durationTicks": 672,
		  "midi": 87,
		  "name": "D#6",
		  "ticks": 94954,
		  "time": 92.728515625,
		  "velocity": 0.3937007874015748
		},
		{
		  "duration": 0.09375,
		  "durationTicks": 96,
		  "midi": 51,
		  "name": "D#3",
		  "ticks": 95022,
		  "time": 92.794921875,
		  "velocity": 0.3937007874015748
		},
		{
		  "duration": 0.09375,
		  "durationTicks": 96,
		  "midi": 58,
		  "name": "A#3",
		  "ticks": 95118,
		  "time": 92.888671875,
		  "velocity": 0.3937007874015748
		},
		{
		  "duration": 0.09375,
		  "durationTicks": 96,
		  "midi": 44,
		  "name": "G#2",
		  "ticks": 95214,
		  "time": 92.982421875,
		  "velocity": 0.3937007874015748
		},
		{
		  "duration": 0.09375,
		  "durationTicks": 96,
		  "midi": 58,
		  "name": "A#3",
		  "ticks": 95310,
		  "time": 93.076171875,
		  "velocity": 0.3937007874015748
		},
		{
		  "duration": 0.09375,
		  "durationTicks": 96,
		  "midi": 51,
		  "name": "D#3",
		  "ticks": 95406,
		  "time": 93.169921875,
		  "velocity": 0.3937007874015748
		},
		{
		  "duration": 0.09375,
		  "durationTicks": 96,
		  "midi": 58,
		  "name": "A#3",
		  "ticks": 95502,
		  "time": 93.263671875,
		  "velocity": 0.3937007874015748
		},
		{
		  "duration": 0.09375,
		  "durationTicks": 96,
		  "midi": 59,
		  "name": "B3",
		  "ticks": 95598,
		  "time": 93.357421875,
		  "velocity": 0.3937007874015748
		},
		{
		  "duration": 0.09375,
		  "durationTicks": 96,
		  "midi": 44,
		  "name": "G#2",
		  "ticks": 95598,
		  "time": 93.357421875,
		  "velocity": 0.3937007874015748
		},
		{
		  "duration": 0.09375,
		  "durationTicks": 96,
		  "midi": 68,
		  "name": "G#4",
		  "ticks": 95698,
		  "time": 93.455078125,
		  "velocity": 0.3937007874015748
		},
		{
		  "duration": 0.09375,
		  "durationTicks": 96,
		  "midi": 56,
		  "name": "G#3",
		  "ticks": 95698,
		  "time": 93.455078125,
		  "velocity": 0.3937007874015748
		},
		{
		  "duration": 0.09375,
		  "durationTicks": 96,
		  "midi": 63,
		  "name": "D#4",
		  "ticks": 95794,
		  "time": 93.548828125,
		  "velocity": 0.3937007874015748
		},
		{
		  "duration": 0.09375,
		  "durationTicks": 96,
		  "midi": 51,
		  "name": "D#3",
		  "ticks": 95794,
		  "time": 93.548828125,
		  "velocity": 0.3937007874015748
		},
		{
		  "duration": 0.09375,
		  "durationTicks": 96,
		  "midi": 68,
		  "name": "G#4",
		  "ticks": 95890,
		  "time": 93.642578125,
		  "velocity": 0.3937007874015748
		},
		{
		  "duration": 0.09375,
		  "durationTicks": 96,
		  "midi": 56,
		  "name": "G#3",
		  "ticks": 95890,
		  "time": 93.642578125,
		  "velocity": 0.3937007874015748
		},
		{
		  "duration": 0.09375,
		  "durationTicks": 96,
		  "midi": 59,
		  "name": "B3",
		  "ticks": 95982,
		  "time": 93.732421875,
		  "velocity": 0.3937007874015748
		},
		{
		  "duration": 0.09375,
		  "durationTicks": 96,
		  "midi": 44,
		  "name": "G#2",
		  "ticks": 95986,
		  "time": 93.736328125,
		  "velocity": 0.3937007874015748
		},
		{
		  "duration": 0.09375,
		  "durationTicks": 96,
		  "midi": 68,
		  "name": "G#4",
		  "ticks": 96078,
		  "time": 93.826171875,
		  "velocity": 0.3937007874015748
		},
		{
		  "duration": 0.09375,
		  "durationTicks": 96,
		  "midi": 56,
		  "name": "G#3",
		  "ticks": 96078,
		  "time": 93.826171875,
		  "velocity": 0.3937007874015748
		},
		{
		  "duration": 0.09375,
		  "durationTicks": 96,
		  "midi": 63,
		  "name": "D#4",
		  "ticks": 96174,
		  "time": 93.919921875,
		  "velocity": 0.3937007874015748
		},
		{
		  "duration": 0.09375,
		  "durationTicks": 96,
		  "midi": 51,
		  "name": "D#3",
		  "ticks": 96174,
		  "time": 93.919921875,
		  "velocity": 0.3937007874015748
		},
		{
		  "duration": 0.09375,
		  "durationTicks": 96,
		  "midi": 68,
		  "name": "G#4",
		  "ticks": 96270,
		  "time": 94.013671875,
		  "velocity": 0.3937007874015748
		},
		{
		  "duration": 0.09375,
		  "durationTicks": 96,
		  "midi": 56,
		  "name": "G#3",
		  "ticks": 96270,
		  "time": 94.013671875,
		  "velocity": 0.3937007874015748
		},
		{
		  "duration": 0.09375,
		  "durationTicks": 96,
		  "midi": 59,
		  "name": "B3",
		  "ticks": 96366,
		  "time": 94.107421875,
		  "velocity": 0.3937007874015748
		},
		{
		  "duration": 0.09375,
		  "durationTicks": 96,
		  "midi": 44,
		  "name": "G#2",
		  "ticks": 96366,
		  "time": 94.107421875,
		  "velocity": 0.3937007874015748
		},
		{
		  "duration": 0.09375,
		  "durationTicks": 96,
		  "midi": 68,
		  "name": "G#4",
		  "ticks": 96462,
		  "time": 94.201171875,
		  "velocity": 0.3937007874015748
		},
		{
		  "duration": 0.09375,
		  "durationTicks": 96,
		  "midi": 56,
		  "name": "G#3",
		  "ticks": 96462,
		  "time": 94.201171875,
		  "velocity": 0.3937007874015748
		},
		{
		  "duration": 0.09375,
		  "durationTicks": 96,
		  "midi": 63,
		  "name": "D#4",
		  "ticks": 96558,
		  "time": 94.294921875,
		  "velocity": 0.3937007874015748
		},
		{
		  "duration": 0.09375,
		  "durationTicks": 96,
		  "midi": 51,
		  "name": "D#3",
		  "ticks": 96558,
		  "time": 94.294921875,
		  "velocity": 0.3937007874015748
		},
		{
		  "duration": 0.09375,
		  "durationTicks": 96,
		  "midi": 68,
		  "name": "G#4",
		  "ticks": 96654,
		  "time": 94.388671875,
		  "velocity": 0.3937007874015748
		},
		{
		  "duration": 0.09375,
		  "durationTicks": 96,
		  "midi": 56,
		  "name": "G#3",
		  "ticks": 96654,
		  "time": 94.388671875,
		  "velocity": 0.3937007874015748
		},
		{
		  "duration": 0.09375,
		  "durationTicks": 96,
		  "midi": 59,
		  "name": "B3",
		  "ticks": 96754,
		  "time": 94.486328125,
		  "velocity": 0.3937007874015748
		},
		{
		  "duration": 0.09375,
		  "durationTicks": 96,
		  "midi": 44,
		  "name": "G#2",
		  "ticks": 96754,
		  "time": 94.486328125,
		  "velocity": 0.3937007874015748
		},
		{
		  "duration": 0.09375,
		  "durationTicks": 96,
		  "midi": 68,
		  "name": "G#4",
		  "ticks": 96850,
		  "time": 94.580078125,
		  "velocity": 0.3937007874015748
		},
		{
		  "duration": 0.09375,
		  "durationTicks": 96,
		  "midi": 56,
		  "name": "G#3",
		  "ticks": 96850,
		  "time": 94.580078125,
		  "velocity": 0.3937007874015748
		},
		{
		  "duration": 0.09375,
		  "durationTicks": 96,
		  "midi": 63,
		  "name": "D#4",
		  "ticks": 96946,
		  "time": 94.673828125,
		  "velocity": 0.3937007874015748
		},
		{
		  "duration": 0.09375,
		  "durationTicks": 96,
		  "midi": 51,
		  "name": "D#3",
		  "ticks": 96946,
		  "time": 94.673828125,
		  "velocity": 0.3937007874015748
		},
		{
		  "duration": 0.09375,
		  "durationTicks": 96,
		  "midi": 68,
		  "name": "G#4",
		  "ticks": 97042,
		  "time": 94.767578125,
		  "velocity": 0.3937007874015748
		},
		{
		  "duration": 0.09375,
		  "durationTicks": 96,
		  "midi": 56,
		  "name": "G#3",
		  "ticks": 97042,
		  "time": 94.767578125,
		  "velocity": 0.3937007874015748
		},
		{
		  "duration": 0.09375,
		  "durationTicks": 96,
		  "midi": 60,
		  "name": "C4",
		  "ticks": 97134,
		  "time": 94.857421875,
		  "velocity": 0.3937007874015748
		},
		{
		  "duration": 0.09375,
		  "durationTicks": 96,
		  "midi": 44,
		  "name": "G#2",
		  "ticks": 97134,
		  "time": 94.857421875,
		  "velocity": 0.3937007874015748
		},
		{
		  "duration": 0.09375,
		  "durationTicks": 96,
		  "midi": 66,
		  "name": "F#4",
		  "ticks": 97230,
		  "time": 94.951171875,
		  "velocity": 0.3937007874015748
		},
		{
		  "duration": 0.09375,
		  "durationTicks": 96,
		  "midi": 54,
		  "name": "F#3",
		  "ticks": 97230,
		  "time": 94.951171875,
		  "velocity": 0.3937007874015748
		},
		{
		  "duration": 0.09375,
		  "durationTicks": 96,
		  "midi": 63,
		  "name": "D#4",
		  "ticks": 97326,
		  "time": 95.044921875,
		  "velocity": 0.3937007874015748
		},
		{
		  "duration": 0.09375,
		  "durationTicks": 96,
		  "midi": 51,
		  "name": "D#3",
		  "ticks": 97326,
		  "time": 95.044921875,
		  "velocity": 0.3937007874015748
		},
		{
		  "duration": 0.09375,
		  "durationTicks": 96,
		  "midi": 66,
		  "name": "F#4",
		  "ticks": 97422,
		  "time": 95.138671875,
		  "velocity": 0.3937007874015748
		},
		{
		  "duration": 0.09375,
		  "durationTicks": 96,
		  "midi": 54,
		  "name": "F#3",
		  "ticks": 97422,
		  "time": 95.138671875,
		  "velocity": 0.3937007874015748
		},
		{
		  "duration": 0.09375,
		  "durationTicks": 96,
		  "midi": 60,
		  "name": "C4",
		  "ticks": 97518,
		  "time": 95.232421875,
		  "velocity": 0.3937007874015748
		},
		{
		  "duration": 0.09375,
		  "durationTicks": 96,
		  "midi": 44,
		  "name": "G#2",
		  "ticks": 97518,
		  "time": 95.232421875,
		  "velocity": 0.3937007874015748
		},
		{
		  "duration": 0.09375,
		  "durationTicks": 96,
		  "midi": 66,
		  "name": "F#4",
		  "ticks": 97614,
		  "time": 95.326171875,
		  "velocity": 0.3937007874015748
		},
		{
		  "duration": 0.09375,
		  "durationTicks": 96,
		  "midi": 54,
		  "name": "F#3",
		  "ticks": 97614,
		  "time": 95.326171875,
		  "velocity": 0.3937007874015748
		},
		{
		  "duration": 0.09375,
		  "durationTicks": 96,
		  "midi": 63,
		  "name": "D#4",
		  "ticks": 97710,
		  "time": 95.419921875,
		  "velocity": 0.3937007874015748
		},
		{
		  "duration": 0.09375,
		  "durationTicks": 96,
		  "midi": 51,
		  "name": "D#3",
		  "ticks": 97710,
		  "time": 95.419921875,
		  "velocity": 0.3937007874015748
		},
		{
		  "duration": 0.09375,
		  "durationTicks": 96,
		  "midi": 66,
		  "name": "F#4",
		  "ticks": 97806,
		  "time": 95.513671875,
		  "velocity": 0.3937007874015748
		},
		{
		  "duration": 0.09375,
		  "durationTicks": 96,
		  "midi": 54,
		  "name": "F#3",
		  "ticks": 97806,
		  "time": 95.513671875,
		  "velocity": 0.3937007874015748
		},
		{
		  "duration": 0.09375,
		  "durationTicks": 96,
		  "midi": 60,
		  "name": "C4",
		  "ticks": 97906,
		  "time": 95.611328125,
		  "velocity": 0.3937007874015748
		},
		{
		  "duration": 0.09375,
		  "durationTicks": 96,
		  "midi": 44,
		  "name": "G#2",
		  "ticks": 97906,
		  "time": 95.611328125,
		  "velocity": 0.3937007874015748
		},
		{
		  "duration": 0.09375,
		  "durationTicks": 96,
		  "midi": 66,
		  "name": "F#4",
		  "ticks": 98002,
		  "time": 95.705078125,
		  "velocity": 0.3937007874015748
		},
		{
		  "duration": 0.09375,
		  "durationTicks": 96,
		  "midi": 54,
		  "name": "F#3",
		  "ticks": 98002,
		  "time": 95.705078125,
		  "velocity": 0.3937007874015748
		},
		{
		  "duration": 0.09375,
		  "durationTicks": 96,
		  "midi": 63,
		  "name": "D#4",
		  "ticks": 98098,
		  "time": 95.798828125,
		  "velocity": 0.3937007874015748
		},
		{
		  "duration": 0.09375,
		  "durationTicks": 96,
		  "midi": 51,
		  "name": "D#3",
		  "ticks": 98098,
		  "time": 95.798828125,
		  "velocity": 0.3937007874015748
		},
		{
		  "duration": 0.09375,
		  "durationTicks": 96,
		  "midi": 66,
		  "name": "F#4",
		  "ticks": 98190,
		  "time": 95.888671875,
		  "velocity": 0.3937007874015748
		},
		{
		  "duration": 0.09375,
		  "durationTicks": 96,
		  "midi": 54,
		  "name": "F#3",
		  "ticks": 98194,
		  "time": 95.892578125,
		  "velocity": 0.3937007874015748
		},
		{
		  "duration": 0.09375,
		  "durationTicks": 96,
		  "midi": 60,
		  "name": "C4",
		  "ticks": 98286,
		  "time": 95.982421875,
		  "velocity": 0.3937007874015748
		},
		{
		  "duration": 0.09375,
		  "durationTicks": 96,
		  "midi": 44,
		  "name": "G#2",
		  "ticks": 98286,
		  "time": 95.982421875,
		  "velocity": 0.3937007874015748
		},
		{
		  "duration": 0.09375,
		  "durationTicks": 96,
		  "midi": 66,
		  "name": "F#4",
		  "ticks": 98382,
		  "time": 96.076171875,
		  "velocity": 0.3937007874015748
		},
		{
		  "duration": 0.09375,
		  "durationTicks": 96,
		  "midi": 54,
		  "name": "F#3",
		  "ticks": 98382,
		  "time": 96.076171875,
		  "velocity": 0.3937007874015748
		},
		{
		  "duration": 0.09375,
		  "durationTicks": 96,
		  "midi": 63,
		  "name": "D#4",
		  "ticks": 98478,
		  "time": 96.169921875,
		  "velocity": 0.3937007874015748
		},
		{
		  "duration": 0.09375,
		  "durationTicks": 96,
		  "midi": 51,
		  "name": "D#3",
		  "ticks": 98478,
		  "time": 96.169921875,
		  "velocity": 0.3937007874015748
		},
		{
		  "duration": 0.09375,
		  "durationTicks": 96,
		  "midi": 66,
		  "name": "F#4",
		  "ticks": 98574,
		  "time": 96.263671875,
		  "velocity": 0.3937007874015748
		},
		{
		  "duration": 0.09375,
		  "durationTicks": 96,
		  "midi": 54,
		  "name": "F#3",
		  "ticks": 98574,
		  "time": 96.263671875,
		  "velocity": 0.3937007874015748
		},
		{
		  "duration": 0.09375,
		  "durationTicks": 96,
		  "midi": 56,
		  "name": "G#3",
		  "ticks": 98650,
		  "time": 96.337890625,
		  "velocity": 0.3937007874015748
		},
		{
		  "duration": 0.09375,
		  "durationTicks": 96,
		  "midi": 61,
		  "name": "C#4",
		  "ticks": 98650,
		  "time": 96.337890625,
		  "velocity": 0.3937007874015748
		},
		{
		  "duration": 0.09375,
		  "durationTicks": 96,
		  "midi": 52,
		  "name": "E3",
		  "ticks": 98650,
		  "time": 96.337890625,
		  "velocity": 0.3937007874015748
		},
		{
		  "duration": 0.09375,
		  "durationTicks": 96,
		  "midi": 64,
		  "name": "E4",
		  "ticks": 98650,
		  "time": 96.337890625,
		  "velocity": 0.3937007874015748
		},
		{
		  "duration": 0.09375,
		  "durationTicks": 96,
		  "midi": 37,
		  "name": "C#2",
		  "ticks": 98650,
		  "time": 96.337890625,
		  "velocity": 0.3937007874015748
		},
		{
		  "duration": 0.09375,
		  "durationTicks": 96,
		  "midi": 44,
		  "name": "G#2",
		  "ticks": 98770,
		  "time": 96.455078125,
		  "velocity": 0.3937007874015748
		},
		{
		  "duration": 0.09375,
		  "durationTicks": 96,
		  "midi": 44,
		  "name": "G#2",
		  "ticks": 98846,
		  "time": 96.529296875,
		  "velocity": 0.3937007874015748
		},
		{
		  "duration": 0.09375,
		  "durationTicks": 96,
		  "midi": 49,
		  "name": "C#3",
		  "ticks": 98862,
		  "time": 96.544921875,
		  "velocity": 0.3937007874015748
		},
		{
		  "duration": 0.09375,
		  "durationTicks": 96,
		  "midi": 52,
		  "name": "E3",
		  "ticks": 98962,
		  "time": 96.642578125,
		  "velocity": 0.3937007874015748
		},
		{
		  "duration": 0.09375,
		  "durationTicks": 96,
		  "midi": 37,
		  "name": "C#2",
		  "ticks": 99038,
		  "time": 96.716796875,
		  "velocity": 0.3937007874015748
		},
		{
		  "duration": 0.09375,
		  "durationTicks": 96,
		  "midi": 56,
		  "name": "G#3",
		  "ticks": 99058,
		  "time": 96.736328125,
		  "velocity": 0.3937007874015748
		},
		{
		  "duration": 0.09375,
		  "durationTicks": 96,
		  "midi": 49,
		  "name": "C#3",
		  "ticks": 99154,
		  "time": 96.830078125,
		  "velocity": 0.3937007874015748
		},
		{
		  "duration": 0.09375,
		  "durationTicks": 96,
		  "midi": 44,
		  "name": "G#2",
		  "ticks": 99230,
		  "time": 96.904296875,
		  "velocity": 0.3937007874015748
		},
		{
		  "duration": 0.09375,
		  "durationTicks": 96,
		  "midi": 52,
		  "name": "E3",
		  "ticks": 99246,
		  "time": 96.919921875,
		  "velocity": 0.3937007874015748
		},
		{
		  "duration": 0.09375,
		  "durationTicks": 96,
		  "midi": 56,
		  "name": "G#3",
		  "ticks": 99342,
		  "time": 97.013671875,
		  "velocity": 0.3937007874015748
		},
		{
		  "duration": 0.09375,
		  "durationTicks": 96,
		  "midi": 37,
		  "name": "C#2",
		  "ticks": 99426,
		  "time": 97.095703125,
		  "velocity": 0.3937007874015748
		},
		{
		  "duration": 0.09375,
		  "durationTicks": 96,
		  "midi": 61,
		  "name": "C#4",
		  "ticks": 99438,
		  "time": 97.107421875,
		  "velocity": 0.3937007874015748
		},
		{
		  "duration": 0.09375,
		  "durationTicks": 96,
		  "midi": 52,
		  "name": "E3",
		  "ticks": 99534,
		  "time": 97.201171875,
		  "velocity": 0.3937007874015748
		},
		{
		  "duration": 0.09375,
		  "durationTicks": 96,
		  "midi": 44,
		  "name": "G#2",
		  "ticks": 99618,
		  "time": 97.283203125,
		  "velocity": 0.3937007874015748
		},
		{
		  "duration": 0.09375,
		  "durationTicks": 96,
		  "midi": 56,
		  "name": "G#3",
		  "ticks": 99630,
		  "time": 97.294921875,
		  "velocity": 0.3937007874015748
		},
		{
		  "duration": 0.09375,
		  "durationTicks": 96,
		  "midi": 61,
		  "name": "C#4",
		  "ticks": 99726,
		  "time": 97.388671875,
		  "velocity": 0.3937007874015748
		},
		{
		  "duration": 0.09375,
		  "durationTicks": 96,
		  "midi": 37,
		  "name": "C#2",
		  "ticks": 99806,
		  "time": 97.466796875,
		  "velocity": 0.3937007874015748
		},
		{
		  "duration": 0.09375,
		  "durationTicks": 96,
		  "midi": 64,
		  "name": "E4",
		  "ticks": 99822,
		  "time": 97.482421875,
		  "velocity": 0.3937007874015748
		},
		{
		  "duration": 0.09375,
		  "durationTicks": 96,
		  "midi": 56,
		  "name": "G#3",
		  "ticks": 99918,
		  "time": 97.576171875,
		  "velocity": 0.3937007874015748
		},
		{
		  "duration": 0.09375,
		  "durationTicks": 96,
		  "midi": 44,
		  "name": "G#2",
		  "ticks": 99998,
		  "time": 97.654296875,
		  "velocity": 0.3937007874015748
		},
		{
		  "duration": 0.09375,
		  "durationTicks": 96,
		  "midi": 61,
		  "name": "C#4",
		  "ticks": 100014,
		  "time": 97.669921875,
		  "velocity": 0.3937007874015748
		},
		{
		  "duration": 0.09375,
		  "durationTicks": 96,
		  "midi": 64,
		  "name": "E4",
		  "ticks": 100114,
		  "time": 97.767578125,
		  "velocity": 0.3937007874015748
		},
		{
		  "duration": 0.09375,
		  "durationTicks": 96,
		  "midi": 37,
		  "name": "C#2",
		  "ticks": 100190,
		  "time": 97.841796875,
		  "velocity": 0.3937007874015748
		},
		{
		  "duration": 0.09375,
		  "durationTicks": 96,
		  "midi": 68,
		  "name": "G#4",
		  "ticks": 100206,
		  "time": 97.857421875,
		  "velocity": 0.3937007874015748
		},
		{
		  "duration": 0.09375,
		  "durationTicks": 96,
		  "midi": 61,
		  "name": "C#4",
		  "ticks": 100302,
		  "time": 97.951171875,
		  "velocity": 0.3937007874015748
		},
		{
		  "duration": 0.09375,
		  "durationTicks": 96,
		  "midi": 44,
		  "name": "G#2",
		  "ticks": 100386,
		  "time": 98.033203125,
		  "velocity": 0.3937007874015748
		},
		{
		  "duration": 0.09375,
		  "durationTicks": 96,
		  "midi": 64,
		  "name": "E4",
		  "ticks": 100398,
		  "time": 98.044921875,
		  "velocity": 0.3937007874015748
		},
		{
		  "duration": 0.09375,
		  "durationTicks": 96,
		  "midi": 68,
		  "name": "G#4",
		  "ticks": 100494,
		  "time": 98.138671875,
		  "velocity": 0.3937007874015748
		},
		{
		  "duration": 0.09375,
		  "durationTicks": 96,
		  "midi": 37,
		  "name": "C#2",
		  "ticks": 100578,
		  "time": 98.220703125,
		  "velocity": 0.3937007874015748
		},
		{
		  "duration": 0.09375,
		  "durationTicks": 96,
		  "midi": 73,
		  "name": "C#5",
		  "ticks": 100590,
		  "time": 98.232421875,
		  "velocity": 0.3937007874015748
		},
		{
		  "duration": 0.09375,
		  "durationTicks": 96,
		  "midi": 64,
		  "name": "E4",
		  "ticks": 100686,
		  "time": 98.326171875,
		  "velocity": 0.3937007874015748
		},
		{
		  "duration": 0.09375,
		  "durationTicks": 96,
		  "midi": 44,
		  "name": "G#2",
		  "ticks": 100766,
		  "time": 98.404296875,
		  "velocity": 0.3937007874015748
		},
		{
		  "duration": 0.09375,
		  "durationTicks": 96,
		  "midi": 68,
		  "name": "G#4",
		  "ticks": 100782,
		  "time": 98.419921875,
		  "velocity": 0.3937007874015748
		},
		{
		  "duration": 0.09375,
		  "durationTicks": 96,
		  "midi": 73,
		  "name": "C#5",
		  "ticks": 100878,
		  "time": 98.513671875,
		  "velocity": 0.3937007874015748
		},
		{
		  "duration": 0.09375,
		  "durationTicks": 96,
		  "midi": 37,
		  "name": "C#2",
		  "ticks": 100958,
		  "time": 98.591796875,
		  "velocity": 0.3937007874015748
		},
		{
		  "duration": 0.09375,
		  "durationTicks": 96,
		  "midi": 76,
		  "name": "E5",
		  "ticks": 100974,
		  "time": 98.607421875,
		  "velocity": 0.3937007874015748
		},
		{
		  "duration": 0.09375,
		  "durationTicks": 96,
		  "midi": 68,
		  "name": "G#4",
		  "ticks": 101070,
		  "time": 98.701171875,
		  "velocity": 0.3937007874015748
		},
		{
		  "duration": 0.09375,
		  "durationTicks": 96,
		  "midi": 44,
		  "name": "G#2",
		  "ticks": 101150,
		  "time": 98.779296875,
		  "velocity": 0.3937007874015748
		},
		{
		  "duration": 0.09375,
		  "durationTicks": 96,
		  "midi": 73,
		  "name": "C#5",
		  "ticks": 101170,
		  "time": 98.798828125,
		  "velocity": 0.3937007874015748
		},
		{
		  "duration": 0.09375,
		  "durationTicks": 96,
		  "midi": 76,
		  "name": "E5",
		  "ticks": 101266,
		  "time": 98.892578125,
		  "velocity": 0.3937007874015748
		},
		{
		  "duration": 0.1875,
		  "durationTicks": 192,
		  "midi": 80,
		  "name": "G#5",
		  "ticks": 101342,
		  "time": 98.966796875,
		  "velocity": 0.3937007874015748
		},
		{
		  "duration": 0.1875,
		  "durationTicks": 192,
		  "midi": 68,
		  "name": "G#4",
		  "ticks": 101342,
		  "time": 98.966796875,
		  "velocity": 0.3937007874015748
		},
		{
		  "duration": 0.1875,
		  "durationTicks": 192,
		  "midi": 73,
		  "name": "C#5",
		  "ticks": 101342,
		  "time": 98.966796875,
		  "velocity": 0.3937007874015748
		},
		{
		  "duration": 0.1875,
		  "durationTicks": 192,
		  "midi": 76,
		  "name": "E5",
		  "ticks": 101342,
		  "time": 98.966796875,
		  "velocity": 0.3937007874015748
		},
		{
		  "duration": 0.1875,
		  "durationTicks": 192,
		  "midi": 37,
		  "name": "C#2",
		  "ticks": 101342,
		  "time": 98.966796875,
		  "velocity": 0.3937007874015748
		},
		{
		  "duration": 0.1875,
		  "durationTicks": 192,
		  "midi": 49,
		  "name": "C#3",
		  "ticks": 101342,
		  "time": 98.966796875,
		  "velocity": 0.3937007874015748
		},
		{
		  "duration": 0.1875,
		  "durationTicks": 192,
		  "midi": 44,
		  "name": "G#2",
		  "ticks": 101538,
		  "time": 99.158203125,
		  "velocity": 0.3937007874015748
		},
		{
		  "duration": 0.1875,
		  "durationTicks": 192,
		  "midi": 68,
		  "name": "G#4",
		  "ticks": 101550,
		  "time": 99.169921875,
		  "velocity": 0.3937007874015748
		},
		{
		  "duration": 0.1875,
		  "durationTicks": 192,
		  "midi": 80,
		  "name": "G#5",
		  "ticks": 101550,
		  "time": 99.169921875,
		  "velocity": 0.3937007874015748
		},
		{
		  "duration": 0.1875,
		  "durationTicks": 192,
		  "midi": 76,
		  "name": "E5",
		  "ticks": 101550,
		  "time": 99.169921875,
		  "velocity": 0.3937007874015748
		},
		{
		  "duration": 0.1875,
		  "durationTicks": 192,
		  "midi": 73,
		  "name": "C#5",
		  "ticks": 101550,
		  "time": 99.169921875,
		  "velocity": 0.3937007874015748
		},
		{
		  "duration": 0.09375,
		  "durationTicks": 96,
		  "midi": 36,
		  "name": "C2",
		  "ticks": 101730,
		  "time": 99.345703125,
		  "velocity": 0.3937007874015748
		},
		{
		  "duration": 0.09375,
		  "durationTicks": 96,
		  "midi": 44,
		  "name": "G#2",
		  "ticks": 101838,
		  "time": 99.451171875,
		  "velocity": 0.3937007874015748
		},
		{
		  "duration": 0.09375,
		  "durationTicks": 96,
		  "midi": 44,
		  "name": "G#2",
		  "ticks": 101918,
		  "time": 99.529296875,
		  "velocity": 0.3937007874015748
		},
		{
		  "duration": 0.09375,
		  "durationTicks": 96,
		  "midi": 48,
		  "name": "C3",
		  "ticks": 101934,
		  "time": 99.544921875,
		  "velocity": 0.3937007874015748
		},
		{
		  "duration": 0.09375,
		  "durationTicks": 96,
		  "midi": 51,
		  "name": "D#3",
		  "ticks": 102030,
		  "time": 99.638671875,
		  "velocity": 0.3937007874015748
		},
		{
		  "duration": 0.09375,
		  "durationTicks": 96,
		  "midi": 36,
		  "name": "C2",
		  "ticks": 102110,
		  "time": 99.716796875,
		  "velocity": 0.3937007874015748
		},
		{
		  "duration": 0.09375,
		  "durationTicks": 96,
		  "midi": 56,
		  "name": "G#3",
		  "ticks": 102126,
		  "time": 99.732421875,
		  "velocity": 0.3937007874015748
		},
		{
		  "duration": 0.09375,
		  "durationTicks": 96,
		  "midi": 48,
		  "name": "C3",
		  "ticks": 102226,
		  "time": 99.830078125,
		  "velocity": 0.3937007874015748
		},
		{
		  "duration": 0.09375,
		  "durationTicks": 96,
		  "midi": 44,
		  "name": "G#2",
		  "ticks": 102302,
		  "time": 99.904296875,
		  "velocity": 0.3937007874015748
		},
		{
		  "duration": 0.09375,
		  "durationTicks": 96,
		  "midi": 51,
		  "name": "D#3",
		  "ticks": 102322,
		  "time": 99.923828125,
		  "velocity": 0.3937007874015748
		},
		{
		  "duration": 0.09375,
		  "durationTicks": 96,
		  "midi": 56,
		  "name": "G#3",
		  "ticks": 102418,
		  "time": 100.017578125,
		  "velocity": 0.3937007874015748
		},
		{
		  "duration": 0.09375,
		  "durationTicks": 96,
		  "midi": 36,
		  "name": "C2",
		  "ticks": 102494,
		  "time": 100.091796875,
		  "velocity": 0.3937007874015748
		},
		{
		  "duration": 0.09375,
		  "durationTicks": 96,
		  "midi": 60,
		  "name": "C4",
		  "ticks": 102510,
		  "time": 100.107421875,
		  "velocity": 0.3937007874015748
		},
		{
		  "duration": 0.09375,
		  "durationTicks": 96,
		  "midi": 51,
		  "name": "D#3",
		  "ticks": 102606,
		  "time": 100.201171875,
		  "velocity": 0.3937007874015748
		},
		{
		  "duration": 0.09375,
		  "durationTicks": 96,
		  "midi": 44,
		  "name": "G#2",
		  "ticks": 102690,
		  "time": 100.283203125,
		  "velocity": 0.3937007874015748
		},
		{
		  "duration": 0.09375,
		  "durationTicks": 96,
		  "midi": 56,
		  "name": "G#3",
		  "ticks": 102702,
		  "time": 100.294921875,
		  "velocity": 0.3937007874015748
		},
		{
		  "duration": 0.09375,
		  "durationTicks": 96,
		  "midi": 60,
		  "name": "C4",
		  "ticks": 102798,
		  "time": 100.388671875,
		  "velocity": 0.3937007874015748
		},
		{
		  "duration": 0.09375,
		  "durationTicks": 96,
		  "midi": 36,
		  "name": "C2",
		  "ticks": 102882,
		  "time": 100.470703125,
		  "velocity": 0.3937007874015748
		},
		{
		  "duration": 0.09375,
		  "durationTicks": 96,
		  "midi": 63,
		  "name": "D#4",
		  "ticks": 102894,
		  "time": 100.482421875,
		  "velocity": 0.3937007874015748
		},
		{
		  "duration": 0.09375,
		  "durationTicks": 96,
		  "midi": 56,
		  "name": "G#3",
		  "ticks": 102990,
		  "time": 100.576171875,
		  "velocity": 0.3937007874015748
		},
		{
		  "duration": 0.09375,
		  "durationTicks": 96,
		  "midi": 44,
		  "name": "G#2",
		  "ticks": 103070,
		  "time": 100.654296875,
		  "velocity": 0.3937007874015748
		},
		{
		  "duration": 0.09375,
		  "durationTicks": 96,
		  "midi": 60,
		  "name": "C4",
		  "ticks": 103086,
		  "time": 100.669921875,
		  "velocity": 0.3937007874015748
		},
		{
		  "duration": 0.09375,
		  "durationTicks": 96,
		  "midi": 63,
		  "name": "D#4",
		  "ticks": 103182,
		  "time": 100.763671875,
		  "velocity": 0.3937007874015748
		},
		{
		  "duration": 0.09375,
		  "durationTicks": 96,
		  "midi": 36,
		  "name": "C2",
		  "ticks": 103262,
		  "time": 100.841796875,
		  "velocity": 0.3937007874015748
		},
		{
		  "duration": 0.09375,
		  "durationTicks": 96,
		  "midi": 68,
		  "name": "G#4",
		  "ticks": 103282,
		  "time": 100.861328125,
		  "velocity": 0.3937007874015748
		},
		{
		  "duration": 0.09375,
		  "durationTicks": 96,
		  "midi": 60,
		  "name": "C4",
		  "ticks": 103378,
		  "time": 100.955078125,
		  "velocity": 0.3937007874015748
		},
		{
		  "duration": 0.09375,
		  "durationTicks": 96,
		  "midi": 44,
		  "name": "G#2",
		  "ticks": 103454,
		  "time": 101.029296875,
		  "velocity": 0.3937007874015748
		},
		{
		  "duration": 0.09375,
		  "durationTicks": 96,
		  "midi": 63,
		  "name": "D#4",
		  "ticks": 103474,
		  "time": 101.048828125,
		  "velocity": 0.3937007874015748
		},
		{
		  "duration": 0.09375,
		  "durationTicks": 96,
		  "midi": 68,
		  "name": "G#4",
		  "ticks": 103566,
		  "time": 101.138671875,
		  "velocity": 0.3937007874015748
		},
		{
		  "duration": 0.09375,
		  "durationTicks": 96,
		  "midi": 36,
		  "name": "C2",
		  "ticks": 103650,
		  "time": 101.220703125,
		  "velocity": 0.3937007874015748
		},
		{
		  "duration": 0.09375,
		  "durationTicks": 96,
		  "midi": 72,
		  "name": "C5",
		  "ticks": 103662,
		  "time": 101.232421875,
		  "velocity": 0.3937007874015748
		},
		{
		  "duration": 0.09375,
		  "durationTicks": 96,
		  "midi": 63,
		  "name": "D#4",
		  "ticks": 103758,
		  "time": 101.326171875,
		  "velocity": 0.3937007874015748
		},
		{
		  "duration": 0.09375,
		  "durationTicks": 96,
		  "midi": 44,
		  "name": "G#2",
		  "ticks": 103842,
		  "time": 101.408203125,
		  "velocity": 0.3937007874015748
		},
		{
		  "duration": 0.09375,
		  "durationTicks": 96,
		  "midi": 68,
		  "name": "G#4",
		  "ticks": 103854,
		  "time": 101.419921875,
		  "velocity": 0.3937007874015748
		},
		{
		  "duration": 0.09375,
		  "durationTicks": 96,
		  "midi": 72,
		  "name": "C5",
		  "ticks": 103950,
		  "time": 101.513671875,
		  "velocity": 0.3937007874015748
		},
		{
		  "duration": 0.09375,
		  "durationTicks": 96,
		  "midi": 36,
		  "name": "C2",
		  "ticks": 104034,
		  "time": 101.595703125,
		  "velocity": 0.3937007874015748
		},
		{
		  "duration": 0.09375,
		  "durationTicks": 96,
		  "midi": 75,
		  "name": "D#5",
		  "ticks": 104046,
		  "time": 101.607421875,
		  "velocity": 0.3937007874015748
		},
		{
		  "duration": 0.09375,
		  "durationTicks": 96,
		  "midi": 68,
		  "name": "G#4",
		  "ticks": 104142,
		  "time": 101.701171875,
		  "velocity": 0.3937007874015748
		},
		{
		  "duration": 0.09375,
		  "durationTicks": 96,
		  "midi": 44,
		  "name": "G#2",
		  "ticks": 104222,
		  "time": 101.779296875,
		  "velocity": 0.3937007874015748
		},
		{
		  "duration": 0.09375,
		  "durationTicks": 96,
		  "midi": 72,
		  "name": "C5",
		  "ticks": 104238,
		  "time": 101.794921875,
		  "velocity": 0.3937007874015748
		},
		{
		  "duration": 0.09375,
		  "durationTicks": 96,
		  "midi": 75,
		  "name": "D#5",
		  "ticks": 104334,
		  "time": 101.888671875,
		  "velocity": 0.3937007874015748
		},
		{
		  "duration": 0.1875,
		  "durationTicks": 192,
		  "midi": 80,
		  "name": "G#5",
		  "ticks": 104414,
		  "time": 101.966796875,
		  "velocity": 0.3937007874015748
		},
		{
		  "duration": 0.1875,
		  "durationTicks": 192,
		  "midi": 68,
		  "name": "G#4",
		  "ticks": 104414,
		  "time": 101.966796875,
		  "velocity": 0.3937007874015748
		},
		{
		  "duration": 0.1875,
		  "durationTicks": 192,
		  "midi": 75,
		  "name": "D#5",
		  "ticks": 104414,
		  "time": 101.966796875,
		  "velocity": 0.3937007874015748
		},
		{
		  "duration": 0.1875,
		  "durationTicks": 192,
		  "midi": 72,
		  "name": "C5",
		  "ticks": 104414,
		  "time": 101.966796875,
		  "velocity": 0.3937007874015748
		},
		{
		  "duration": 0.1875,
		  "durationTicks": 192,
		  "midi": 48,
		  "name": "C3",
		  "ticks": 104418,
		  "time": 101.970703125,
		  "velocity": 0.3937007874015748
		},
		{
		  "duration": 0.1875,
		  "durationTicks": 192,
		  "midi": 36,
		  "name": "C2",
		  "ticks": 104418,
		  "time": 101.970703125,
		  "velocity": 0.3937007874015748
		},
		{
		  "duration": 0.1875,
		  "durationTicks": 192,
		  "midi": 44,
		  "name": "G#2",
		  "ticks": 104606,
		  "time": 102.154296875,
		  "velocity": 0.3937007874015748
		},
		{
		  "duration": 0.1875,
		  "durationTicks": 192,
		  "midi": 68,
		  "name": "G#4",
		  "ticks": 104626,
		  "time": 102.173828125,
		  "velocity": 0.3937007874015748
		},
		{
		  "duration": 0.1875,
		  "durationTicks": 192,
		  "midi": 72,
		  "name": "C5",
		  "ticks": 104626,
		  "time": 102.173828125,
		  "velocity": 0.3937007874015748
		},
		{
		  "duration": 0.1875,
		  "durationTicks": 192,
		  "midi": 80,
		  "name": "G#5",
		  "ticks": 104626,
		  "time": 102.173828125,
		  "velocity": 0.3937007874015748
		},
		{
		  "duration": 0.1875,
		  "durationTicks": 192,
		  "midi": 75,
		  "name": "D#5",
		  "ticks": 104626,
		  "time": 102.173828125,
		  "velocity": 0.3937007874015748
		},
		{
		  "duration": 0.09375,
		  "durationTicks": 96,
		  "midi": 35,
		  "name": "B1",
		  "ticks": 104802,
		  "time": 102.345703125,
		  "velocity": 0.3937007874015748
		},
		{
		  "duration": 0.09375,
		  "durationTicks": 96,
		  "midi": 49,
		  "name": "C#3",
		  "ticks": 104914,
		  "time": 102.455078125,
		  "velocity": 0.3937007874015748
		},
		{
		  "duration": 0.09375,
		  "durationTicks": 96,
		  "midi": 44,
		  "name": "G#2",
		  "ticks": 104994,
		  "time": 102.533203125,
		  "velocity": 0.3937007874015748
		},
		{
		  "duration": 0.09375,
		  "durationTicks": 96,
		  "midi": 53,
		  "name": "F3",
		  "ticks": 105006,
		  "time": 102.544921875,
		  "velocity": 0.3937007874015748
		},
		{
		  "duration": 0.09375,
		  "durationTicks": 96,
		  "midi": 56,
		  "name": "G#3",
		  "ticks": 105102,
		  "time": 102.638671875,
		  "velocity": 0.3937007874015748
		},
		{
		  "duration": 0.09375,
		  "durationTicks": 96,
		  "midi": 35,
		  "name": "B1",
		  "ticks": 105186,
		  "time": 102.720703125,
		  "velocity": 0.3937007874015748
		},
		{
		  "duration": 0.09375,
		  "durationTicks": 96,
		  "midi": 61,
		  "name": "C#4",
		  "ticks": 105198,
		  "time": 102.732421875,
		  "velocity": 0.3937007874015748
		},
		{
		  "duration": 0.09375,
		  "durationTicks": 96,
		  "midi": 53,
		  "name": "F3",
		  "ticks": 105294,
		  "time": 102.826171875,
		  "velocity": 0.3937007874015748
		},
		{
		  "duration": 0.09375,
		  "durationTicks": 96,
		  "midi": 44,
		  "name": "G#2",
		  "ticks": 105374,
		  "time": 102.904296875,
		  "velocity": 0.3937007874015748
		},
		{
		  "duration": 0.09375,
		  "durationTicks": 96,
		  "midi": 56,
		  "name": "G#3",
		  "ticks": 105390,
		  "time": 102.919921875,
		  "velocity": 0.3937007874015748
		},
		{
		  "duration": 0.09375,
		  "durationTicks": 96,
		  "midi": 61,
		  "name": "C#4",
		  "ticks": 105490,
		  "time": 103.017578125,
		  "velocity": 0.3937007874015748
		},
		{
		  "duration": 0.09375,
		  "durationTicks": 96,
		  "midi": 35,
		  "name": "B1",
		  "ticks": 105566,
		  "time": 103.091796875,
		  "velocity": 0.3937007874015748
		},
		{
		  "duration": 0.09375,
		  "durationTicks": 96,
		  "midi": 65,
		  "name": "F4",
		  "ticks": 105586,
		  "time": 103.111328125,
		  "velocity": 0.3937007874015748
		},
		{
		  "duration": 0.09375,
		  "durationTicks": 96,
		  "midi": 56,
		  "name": "G#3",
		  "ticks": 105682,
		  "time": 103.205078125,
		  "velocity": 0.3937007874015748
		},
		{
		  "duration": 0.09375,
		  "durationTicks": 96,
		  "midi": 44,
		  "name": "G#2",
		  "ticks": 105758,
		  "time": 103.279296875,
		  "velocity": 0.3937007874015748
		},
		{
		  "duration": 0.09375,
		  "durationTicks": 96,
		  "midi": 61,
		  "name": "C#4",
		  "ticks": 105774,
		  "time": 103.294921875,
		  "velocity": 0.3937007874015748
		},
		{
		  "duration": 0.09375,
		  "durationTicks": 96,
		  "midi": 65,
		  "name": "F4",
		  "ticks": 105870,
		  "time": 103.388671875,
		  "velocity": 0.3937007874015748
		},
		{
		  "duration": 0.09375,
		  "durationTicks": 96,
		  "midi": 35,
		  "name": "B1",
		  "ticks": 105954,
		  "time": 103.470703125,
		  "velocity": 0.3937007874015748
		},
		{
		  "duration": 0.09375,
		  "durationTicks": 96,
		  "midi": 68,
		  "name": "G#4",
		  "ticks": 105966,
		  "time": 103.482421875,
		  "velocity": 0.3937007874015748
		},
		{
		  "duration": 0.09375,
		  "durationTicks": 96,
		  "midi": 61,
		  "name": "C#4",
		  "ticks": 106062,
		  "time": 103.576171875,
		  "velocity": 0.3937007874015748
		},
		{
		  "duration": 0.09375,
		  "durationTicks": 96,
		  "midi": 44,
		  "name": "G#2",
		  "ticks": 106146,
		  "time": 103.658203125,
		  "velocity": 0.3937007874015748
		},
		{
		  "duration": 0.09375,
		  "durationTicks": 96,
		  "midi": 65,
		  "name": "F4",
		  "ticks": 106158,
		  "time": 103.669921875,
		  "velocity": 0.3937007874015748
		},
		{
		  "duration": 0.09375,
		  "durationTicks": 96,
		  "midi": 68,
		  "name": "G#4",
		  "ticks": 106254,
		  "time": 103.763671875,
		  "velocity": 0.3937007874015748
		},
		{
		  "duration": 0.09375,
		  "durationTicks": 96,
		  "midi": 35,
		  "name": "B1",
		  "ticks": 106334,
		  "time": 103.841796875,
		  "velocity": 0.3937007874015748
		},
		{
		  "duration": 0.09375,
		  "durationTicks": 96,
		  "midi": 73,
		  "name": "C#5",
		  "ticks": 106350,
		  "time": 103.857421875,
		  "velocity": 0.3937007874015748
		},
		{
		  "duration": 0.09375,
		  "durationTicks": 96,
		  "midi": 65,
		  "name": "F4",
		  "ticks": 106446,
		  "time": 103.951171875,
		  "velocity": 0.3937007874015748
		},
		{
		  "duration": 0.09375,
		  "durationTicks": 96,
		  "midi": 44,
		  "name": "G#2",
		  "ticks": 106526,
		  "time": 104.029296875,
		  "velocity": 0.3937007874015748
		},
		{
		  "duration": 0.09375,
		  "durationTicks": 96,
		  "midi": 68,
		  "name": "G#4",
		  "ticks": 106546,
		  "time": 104.048828125,
		  "velocity": 0.3937007874015748
		},
		{
		  "duration": 0.09375,
		  "durationTicks": 96,
		  "midi": 73,
		  "name": "C#5",
		  "ticks": 106642,
		  "time": 104.142578125,
		  "velocity": 0.3937007874015748
		},
		{
		  "duration": 0.09375,
		  "durationTicks": 96,
		  "midi": 35,
		  "name": "B1",
		  "ticks": 106718,
		  "time": 104.216796875,
		  "velocity": 0.3937007874015748
		},
		{
		  "duration": 0.09375,
		  "durationTicks": 96,
		  "midi": 77,
		  "name": "F5",
		  "ticks": 106738,
		  "time": 104.236328125,
		  "velocity": 0.3937007874015748
		},
		{
		  "duration": 0.09375,
		  "durationTicks": 96,
		  "midi": 68,
		  "name": "G#4",
		  "ticks": 106830,
		  "time": 104.326171875,
		  "velocity": 0.3937007874015748
		},
		{
		  "duration": 0.09375,
		  "durationTicks": 96,
		  "midi": 44,
		  "name": "G#2",
		  "ticks": 106914,
		  "time": 104.408203125,
		  "velocity": 0.3937007874015748
		},
		{
		  "duration": 0.09375,
		  "durationTicks": 96,
		  "midi": 73,
		  "name": "C#5",
		  "ticks": 106926,
		  "time": 104.419921875,
		  "velocity": 0.3937007874015748
		},
		{
		  "duration": 0.09375,
		  "durationTicks": 96,
		  "midi": 77,
		  "name": "F5",
		  "ticks": 107022,
		  "time": 104.513671875,
		  "velocity": 0.3937007874015748
		},
		{
		  "duration": 0.09375,
		  "durationTicks": 96,
		  "midi": 35,
		  "name": "B1",
		  "ticks": 107106,
		  "time": 104.595703125,
		  "velocity": 0.3937007874015748
		},
		{
		  "duration": 0.09375,
		  "durationTicks": 96,
		  "midi": 80,
		  "name": "G#5",
		  "ticks": 107118,
		  "time": 104.607421875,
		  "velocity": 0.3937007874015748
		},
		{
		  "duration": 0.09375,
		  "durationTicks": 96,
		  "midi": 73,
		  "name": "C#5",
		  "ticks": 107214,
		  "time": 104.701171875,
		  "velocity": 0.3937007874015748
		},
		{
		  "duration": 0.09375,
		  "durationTicks": 96,
		  "midi": 44,
		  "name": "G#2",
		  "ticks": 107294,
		  "time": 104.779296875,
		  "velocity": 0.3937007874015748
		},
		{
		  "duration": 0.09375,
		  "durationTicks": 96,
		  "midi": 77,
		  "name": "F5",
		  "ticks": 107310,
		  "time": 104.794921875,
		  "velocity": 0.3937007874015748
		},
		{
		  "duration": 0.09375,
		  "durationTicks": 96,
		  "midi": 80,
		  "name": "G#5",
		  "ticks": 107406,
		  "time": 104.888671875,
		  "velocity": 0.3937007874015748
		},
		{
		  "duration": 0.1875,
		  "durationTicks": 192,
		  "midi": 73,
		  "name": "C#5",
		  "ticks": 107486,
		  "time": 104.966796875,
		  "velocity": 0.3937007874015748
		},
		{
		  "duration": 0.1875,
		  "durationTicks": 192,
		  "midi": 85,
		  "name": "C#6",
		  "ticks": 107486,
		  "time": 104.966796875,
		  "velocity": 0.3937007874015748
		},
		{
		  "duration": 0.1875,
		  "durationTicks": 192,
		  "midi": 80,
		  "name": "G#5",
		  "ticks": 107486,
		  "time": 104.966796875,
		  "velocity": 0.3937007874015748
		},
		{
		  "duration": 0.1875,
		  "durationTicks": 192,
		  "midi": 77,
		  "name": "F5",
		  "ticks": 107486,
		  "time": 104.966796875,
		  "velocity": 0.3937007874015748
		},
		{
		  "duration": 0.1875,
		  "durationTicks": 192,
		  "midi": 47,
		  "name": "B2",
		  "ticks": 107490,
		  "time": 104.970703125,
		  "velocity": 0.3937007874015748
		},
		{
		  "duration": 0.1875,
		  "durationTicks": 192,
		  "midi": 35,
		  "name": "B1",
		  "ticks": 107490,
		  "time": 104.970703125,
		  "velocity": 0.3937007874015748
		},
		{
		  "duration": 0.1875,
		  "durationTicks": 192,
		  "midi": 44,
		  "name": "G#2",
		  "ticks": 107678,
		  "time": 105.154296875,
		  "velocity": 0.3937007874015748
		},
		{
		  "duration": 0.1875,
		  "durationTicks": 192,
		  "midi": 85,
		  "name": "C#6",
		  "ticks": 107698,
		  "time": 105.173828125,
		  "velocity": 0.3937007874015748
		},
		{
		  "duration": 0.1875,
		  "durationTicks": 192,
		  "midi": 73,
		  "name": "C#5",
		  "ticks": 107698,
		  "time": 105.173828125,
		  "velocity": 0.3937007874015748
		},
		{
		  "duration": 0.1875,
		  "durationTicks": 192,
		  "midi": 77,
		  "name": "F5",
		  "ticks": 107698,
		  "time": 105.173828125,
		  "velocity": 0.3937007874015748
		},
		{
		  "duration": 0.1875,
		  "durationTicks": 192,
		  "midi": 80,
		  "name": "G#5",
		  "ticks": 107698,
		  "time": 105.173828125,
		  "velocity": 0.3937007874015748
		},
		{
		  "duration": 0.09375,
		  "durationTicks": 96,
		  "midi": 33,
		  "name": "A1",
		  "ticks": 107870,
		  "time": 105.341796875,
		  "velocity": 0.3937007874015748
		},
		{
		  "duration": 0.09375,
		  "durationTicks": 96,
		  "midi": 49,
		  "name": "C#3",
		  "ticks": 107966,
		  "time": 105.435546875,
		  "velocity": 0.3937007874015748
		},
		{
		  "duration": 0.09375,
		  "durationTicks": 96,
		  "midi": 45,
		  "name": "A2",
		  "ticks": 108062,
		  "time": 105.529296875,
		  "velocity": 0.3937007874015748
		},
		{
		  "duration": 0.09375,
		  "durationTicks": 96,
		  "midi": 54,
		  "name": "F#3",
		  "ticks": 108066,
		  "time": 105.533203125,
		  "velocity": 0.3937007874015748
		},
		{
		  "duration": 0.09375,
		  "durationTicks": 96,
		  "midi": 57,
		  "name": "A3",
		  "ticks": 108162,
		  "time": 105.626953125,
		  "velocity": 0.3937007874015748
		},
		{
		  "duration": 0.09375,
		  "durationTicks": 96,
		  "midi": 33,
		  "name": "A1",
		  "ticks": 108254,
		  "time": 105.716796875,
		  "velocity": 0.3937007874015748
		},
		{
		  "duration": 0.09375,
		  "durationTicks": 96,
		  "midi": 61,
		  "name": "C#4",
		  "ticks": 108270,
		  "time": 105.732421875,
		  "velocity": 0.3937007874015748
		},
		{
		  "duration": 0.09375,
		  "durationTicks": 96,
		  "midi": 61,
		  "name": "C#4",
		  "ticks": 108366,
		  "time": 105.826171875,
		  "velocity": 0.3937007874015748
		},
		{
		  "duration": 0.09375,
		  "durationTicks": 96,
		  "midi": 66,
		  "name": "F#4",
		  "ticks": 108446,
		  "time": 105.904296875,
		  "velocity": 0.3937007874015748
		},
		{
		  "duration": 0.09375,
		  "durationTicks": 96,
		  "midi": 45,
		  "name": "A2",
		  "ticks": 108446,
		  "time": 105.904296875,
		  "velocity": 0.3937007874015748
		},
		{
		  "duration": 0.09375,
		  "durationTicks": 96,
		  "midi": 69,
		  "name": "A4",
		  "ticks": 108542,
		  "time": 105.998046875,
		  "velocity": 0.3937007874015748
		},
		{
		  "duration": 0.09375,
		  "durationTicks": 96,
		  "midi": 33,
		  "name": "A1",
		  "ticks": 108638,
		  "time": 106.091796875,
		  "velocity": 0.3937007874015748
		},
		{
		  "duration": 0.09375,
		  "durationTicks": 96,
		  "midi": 73,
		  "name": "C#5",
		  "ticks": 108654,
		  "time": 106.107421875,
		  "velocity": 0.3937007874015748
		},
		{
		  "duration": 0.09375,
		  "durationTicks": 96,
		  "midi": 73,
		  "name": "C#5",
		  "ticks": 108754,
		  "time": 106.205078125,
		  "velocity": 0.3937007874015748
		},
		{
		  "duration": 0.09375,
		  "durationTicks": 96,
		  "midi": 78,
		  "name": "F#5",
		  "ticks": 108830,
		  "time": 106.279296875,
		  "velocity": 0.3937007874015748
		},
		{
		  "duration": 0.09375,
		  "durationTicks": 96,
		  "midi": 45,
		  "name": "A2",
		  "ticks": 108830,
		  "time": 106.279296875,
		  "velocity": 0.3937007874015748
		},
		{
		  "duration": 0.09375,
		  "durationTicks": 96,
		  "midi": 81,
		  "name": "A5",
		  "ticks": 108926,
		  "time": 106.373046875,
		  "velocity": 0.3937007874015748
		},
		{
		  "duration": 0.1875,
		  "durationTicks": 192,
		  "midi": 85,
		  "name": "C#6",
		  "ticks": 109022,
		  "time": 106.466796875,
		  "velocity": 0.3937007874015748
		},
		{
		  "duration": 0.1875,
		  "durationTicks": 192,
		  "midi": 73,
		  "name": "C#5",
		  "ticks": 109022,
		  "time": 106.466796875,
		  "velocity": 0.3937007874015748
		},
		{
		  "duration": 0.1875,
		  "durationTicks": 192,
		  "midi": 78,
		  "name": "F#5",
		  "ticks": 109022,
		  "time": 106.466796875,
		  "velocity": 0.3937007874015748
		},
		{
		  "duration": 0.09375,
		  "durationTicks": 96,
		  "midi": 33,
		  "name": "A1",
		  "ticks": 109022,
		  "time": 106.466796875,
		  "velocity": 0.3937007874015748
		},
		{
		  "duration": 0.09375,
		  "durationTicks": 96,
		  "midi": 45,
		  "name": "A2",
		  "ticks": 109214,
		  "time": 106.654296875,
		  "velocity": 0.3937007874015748
		},
		{
		  "duration": 0.1875,
		  "durationTicks": 192,
		  "midi": 73,
		  "name": "C#5",
		  "ticks": 109230,
		  "time": 106.669921875,
		  "velocity": 0.3937007874015748
		},
		{
		  "duration": 0.1875,
		  "durationTicks": 192,
		  "midi": 85,
		  "name": "C#6",
		  "ticks": 109230,
		  "time": 106.669921875,
		  "velocity": 0.3937007874015748
		},
		{
		  "duration": 0.1875,
		  "durationTicks": 192,
		  "midi": 78,
		  "name": "F#5",
		  "ticks": 109230,
		  "time": 106.669921875,
		  "velocity": 0.3937007874015748
		},
		{
		  "duration": 0.09375,
		  "durationTicks": 96,
		  "midi": 33,
		  "name": "A1",
		  "ticks": 109406,
		  "time": 106.841796875,
		  "velocity": 0.3937007874015748
		},
		{
		  "duration": 0.09375,
		  "durationTicks": 96,
		  "midi": 49,
		  "name": "C#3",
		  "ticks": 109502,
		  "time": 106.935546875,
		  "velocity": 0.3937007874015748
		},
		{
		  "duration": 0.09375,
		  "durationTicks": 96,
		  "midi": 52,
		  "name": "E3",
		  "ticks": 109598,
		  "time": 107.029296875,
		  "velocity": 0.3937007874015748
		},
		{
		  "duration": 0.09375,
		  "durationTicks": 96,
		  "midi": 45,
		  "name": "A2",
		  "ticks": 109598,
		  "time": 107.029296875,
		  "velocity": 0.3937007874015748
		},
		{
		  "duration": 0.09375,
		  "durationTicks": 96,
		  "midi": 55,
		  "name": "G3",
		  "ticks": 109694,
		  "time": 107.123046875,
		  "velocity": 0.3937007874015748
		},
		{
		  "duration": 0.09375,
		  "durationTicks": 96,
		  "midi": 33,
		  "name": "A1",
		  "ticks": 109790,
		  "time": 107.216796875,
		  "velocity": 0.3937007874015748
		},
		{
		  "duration": 0.09375,
		  "durationTicks": 96,
		  "midi": 61,
		  "name": "C#4",
		  "ticks": 109810,
		  "time": 107.236328125,
		  "velocity": 0.3937007874015748
		},
		{
		  "duration": 0.09375,
		  "durationTicks": 96,
		  "midi": 61,
		  "name": "C#4",
		  "ticks": 109906,
		  "time": 107.330078125,
		  "velocity": 0.3937007874015748
		},
		{
		  "duration": 0.09375,
		  "durationTicks": 96,
		  "midi": 64,
		  "name": "E4",
		  "ticks": 109982,
		  "time": 107.404296875,
		  "velocity": 0.3937007874015748
		},
		{
		  "duration": 0.09375,
		  "durationTicks": 96,
		  "midi": 45,
		  "name": "A2",
		  "ticks": 109982,
		  "time": 107.404296875,
		  "velocity": 0.3937007874015748
		},
		{
		  "duration": 0.09375,
		  "durationTicks": 96,
		  "midi": 67,
		  "name": "G4",
		  "ticks": 110078,
		  "time": 107.498046875,
		  "velocity": 0.3937007874015748
		},
		{
		  "duration": 0.09375,
		  "durationTicks": 96,
		  "midi": 33,
		  "name": "A1",
		  "ticks": 110174,
		  "time": 107.591796875,
		  "velocity": 0.3937007874015748
		},
		{
		  "duration": 0.09375,
		  "durationTicks": 96,
		  "midi": 73,
		  "name": "C#5",
		  "ticks": 110190,
		  "time": 107.607421875,
		  "velocity": 0.3937007874015748
		},
		{
		  "duration": 0.09375,
		  "durationTicks": 96,
		  "midi": 73,
		  "name": "C#5",
		  "ticks": 110286,
		  "time": 107.701171875,
		  "velocity": 0.3937007874015748
		},
		{
		  "duration": 0.09375,
		  "durationTicks": 96,
		  "midi": 45,
		  "name": "A2",
		  "ticks": 110366,
		  "time": 107.779296875,
		  "velocity": 0.3937007874015748
		},
		{
		  "duration": 0.09375,
		  "durationTicks": 96,
		  "midi": 76,
		  "name": "E5",
		  "ticks": 110370,
		  "time": 107.783203125,
		  "velocity": 0.3937007874015748
		},
		{
		  "duration": 0.09375,
		  "durationTicks": 96,
		  "midi": 79,
		  "name": "G5",
		  "ticks": 110466,
		  "time": 107.876953125,
		  "velocity": 0.3937007874015748
		},
		{
		  "duration": 0.1875,
		  "durationTicks": 192,
		  "midi": 73,
		  "name": "C#5",
		  "ticks": 110558,
		  "time": 107.966796875,
		  "velocity": 0.3937007874015748
		},
		{
		  "duration": 0.1875,
		  "durationTicks": 192,
		  "midi": 79,
		  "name": "G5",
		  "ticks": 110558,
		  "time": 107.966796875,
		  "velocity": 0.3937007874015748
		},
		{
		  "duration": 0.1875,
		  "durationTicks": 192,
		  "midi": 85,
		  "name": "C#6",
		  "ticks": 110558,
		  "time": 107.966796875,
		  "velocity": 0.3937007874015748
		},
		{
		  "duration": 0.09375,
		  "durationTicks": 96,
		  "midi": 33,
		  "name": "A1",
		  "ticks": 110558,
		  "time": 107.966796875,
		  "velocity": 0.3937007874015748
		},
		{
		  "duration": 0.09375,
		  "durationTicks": 96,
		  "midi": 45,
		  "name": "A2",
		  "ticks": 110750,
		  "time": 108.154296875,
		  "velocity": 0.3937007874015748
		},
		{
		  "duration": 0.1875,
		  "durationTicks": 192,
		  "midi": 73,
		  "name": "C#5",
		  "ticks": 110766,
		  "time": 108.169921875,
		  "velocity": 0.3937007874015748
		},
		{
		  "duration": 0.1875,
		  "durationTicks": 192,
		  "midi": 85,
		  "name": "C#6",
		  "ticks": 110766,
		  "time": 108.169921875,
		  "velocity": 0.3937007874015748
		},
		{
		  "duration": 0.1875,
		  "durationTicks": 192,
		  "midi": 79,
		  "name": "G5",
		  "ticks": 110766,
		  "time": 108.169921875,
		  "velocity": 0.3937007874015748
		},
		{
		  "duration": 0.1875,
		  "durationTicks": 192,
		  "midi": 32,
		  "name": "G#1",
		  "ticks": 110946,
		  "time": 108.345703125,
		  "velocity": 0.3937007874015748
		},
		{
		  "duration": 0.1875,
		  "durationTicks": 192,
		  "midi": 44,
		  "name": "G#2",
		  "ticks": 110946,
		  "time": 108.345703125,
		  "velocity": 0.3937007874015748
		},
		{
		  "duration": 0.1875,
		  "durationTicks": 192,
		  "midi": 84,
		  "name": "C6",
		  "ticks": 110962,
		  "time": 108.361328125,
		  "velocity": 0.3937007874015748
		},
		{
		  "duration": 0.1875,
		  "durationTicks": 192,
		  "midi": 80,
		  "name": "G#5",
		  "ticks": 110962,
		  "time": 108.361328125,
		  "velocity": 0.3937007874015748
		},
		{
		  "duration": 0.1875,
		  "durationTicks": 192,
		  "midi": 72,
		  "name": "C5",
		  "ticks": 110962,
		  "time": 108.361328125,
		  "velocity": 0.3937007874015748
		},
		{
		  "duration": 0.1875,
		  "durationTicks": 192,
		  "midi": 60,
		  "name": "C4",
		  "ticks": 111150,
		  "time": 108.544921875,
		  "velocity": 0.3937007874015748
		},
		{
		  "duration": 2.8125,
		  "durationTicks": 2880,
		  "midi": 56,
		  "name": "G#3",
		  "ticks": 111150,
		  "time": 108.544921875,
		  "velocity": 0.3937007874015748
		},
		{
		  "duration": 0.09375,
		  "durationTicks": 96,
		  "midi": 68,
		  "name": "G#4",
		  "ticks": 111154,
		  "time": 108.548828125,
		  "velocity": 0.3937007874015748
		},
		{
		  "duration": 0.09375,
		  "durationTicks": 96,
		  "midi": 80,
		  "name": "G#5",
		  "ticks": 111250,
		  "time": 108.642578125,
		  "velocity": 0.3937007874015748
		},
		{
		  "duration": 0.1875,
		  "durationTicks": 192,
		  "midi": 60,
		  "name": "C4",
		  "ticks": 111342,
		  "time": 108.732421875,
		  "velocity": 0.3937007874015748
		},
		{
		  "duration": 0.09375,
		  "durationTicks": 96,
		  "midi": 68,
		  "name": "G#4",
		  "ticks": 111346,
		  "time": 108.736328125,
		  "velocity": 0.3937007874015748
		},
		{
		  "duration": 0.09375,
		  "durationTicks": 96,
		  "midi": 80,
		  "name": "G#5",
		  "ticks": 111442,
		  "time": 108.830078125,
		  "velocity": 0.3937007874015748
		},
		{
		  "duration": 0.1875,
		  "durationTicks": 192,
		  "midi": 61,
		  "name": "C#4",
		  "ticks": 111534,
		  "time": 108.919921875,
		  "velocity": 0.3937007874015748
		},
		{
		  "duration": 0.09375,
		  "durationTicks": 96,
		  "midi": 70,
		  "name": "A#4",
		  "ticks": 111538,
		  "time": 108.923828125,
		  "velocity": 0.3937007874015748
		},
		{
		  "duration": 0.09375,
		  "durationTicks": 96,
		  "midi": 80,
		  "name": "G#5",
		  "ticks": 111634,
		  "time": 109.017578125,
		  "velocity": 0.3937007874015748
		},
		{
		  "duration": 0.1875,
		  "durationTicks": 192,
		  "midi": 63,
		  "name": "D#4",
		  "ticks": 111726,
		  "time": 109.107421875,
		  "velocity": 0.3937007874015748
		},
		{
		  "duration": 0.09375,
		  "durationTicks": 96,
		  "midi": 72,
		  "name": "C5",
		  "ticks": 111730,
		  "time": 109.111328125,
		  "velocity": 0.3937007874015748
		},
		{
		  "duration": 0.09375,
		  "durationTicks": 96,
		  "midi": 80,
		  "name": "G#5",
		  "ticks": 111826,
		  "time": 109.205078125,
		  "velocity": 0.3937007874015748
		},
		{
		  "duration": 0.1875,
		  "durationTicks": 192,
		  "midi": 64,
		  "name": "E4",
		  "ticks": 111918,
		  "time": 109.294921875,
		  "velocity": 0.3937007874015748
		},
		{
		  "duration": 0.09375,
		  "durationTicks": 96,
		  "midi": 73,
		  "name": "C#5",
		  "ticks": 111922,
		  "time": 109.298828125,
		  "velocity": 0.3937007874015748
		},
		{
		  "duration": 0.09375,
		  "durationTicks": 96,
		  "midi": 80,
		  "name": "G#5",
		  "ticks": 112018,
		  "time": 109.392578125,
		  "velocity": 0.3937007874015748
		},
		{
		  "duration": 0.1875,
		  "durationTicks": 192,
		  "midi": 66,
		  "name": "F#4",
		  "ticks": 112110,
		  "time": 109.482421875,
		  "velocity": 0.3937007874015748
		},
		{
		  "duration": 0.09375,
		  "durationTicks": 96,
		  "midi": 75,
		  "name": "D#5",
		  "ticks": 112114,
		  "time": 109.486328125,
		  "velocity": 0.3937007874015748
		},
		{
		  "duration": 0.09375,
		  "durationTicks": 96,
		  "midi": 80,
		  "name": "G#5",
		  "ticks": 112210,
		  "time": 109.580078125,
		  "velocity": 0.3937007874015748
		},
		{
		  "duration": 0.1875,
		  "durationTicks": 192,
		  "midi": 63,
		  "name": "D#4",
		  "ticks": 112302,
		  "time": 109.669921875,
		  "velocity": 0.3937007874015748
		},
		{
		  "duration": 0.09375,
		  "durationTicks": 96,
		  "midi": 72,
		  "name": "C5",
		  "ticks": 112306,
		  "time": 109.673828125,
		  "velocity": 0.3937007874015748
		},
		{
		  "duration": 0.09375,
		  "durationTicks": 96,
		  "midi": 80,
		  "name": "G#5",
		  "ticks": 112402,
		  "time": 109.767578125,
		  "velocity": 0.3937007874015748
		},
		{
		  "duration": 0.1875,
		  "durationTicks": 192,
		  "midi": 66,
		  "name": "F#4",
		  "ticks": 112494,
		  "time": 109.857421875,
		  "velocity": 0.3937007874015748
		},
		{
		  "duration": 0.09375,
		  "durationTicks": 96,
		  "midi": 75,
		  "name": "D#5",
		  "ticks": 112498,
		  "time": 109.861328125,
		  "velocity": 0.3937007874015748
		},
		{
		  "duration": 0.09375,
		  "durationTicks": 96,
		  "midi": 80,
		  "name": "G#5",
		  "ticks": 112594,
		  "time": 109.955078125,
		  "velocity": 0.3937007874015748
		},
		{
		  "duration": 0.1875,
		  "durationTicks": 192,
		  "midi": 64,
		  "name": "E4",
		  "ticks": 112686,
		  "time": 110.044921875,
		  "velocity": 0.3937007874015748
		},
		{
		  "duration": 0.09375,
		  "durationTicks": 96,
		  "midi": 73,
		  "name": "C#5",
		  "ticks": 112690,
		  "time": 110.048828125,
		  "velocity": 0.3937007874015748
		},
		{
		  "duration": 0.09375,
		  "durationTicks": 96,
		  "midi": 80,
		  "name": "G#5",
		  "ticks": 112786,
		  "time": 110.142578125,
		  "velocity": 0.3937007874015748
		},
		{
		  "duration": 0.1875,
		  "durationTicks": 192,
		  "midi": 69,
		  "name": "A4",
		  "ticks": 112878,
		  "time": 110.232421875,
		  "velocity": 0.3937007874015748
		},
		{
		  "duration": 0.09375,
		  "durationTicks": 96,
		  "midi": 78,
		  "name": "F#5",
		  "ticks": 112882,
		  "time": 110.236328125,
		  "velocity": 0.3937007874015748
		},
		{
		  "duration": 0.09375,
		  "durationTicks": 96,
		  "midi": 80,
		  "name": "G#5",
		  "ticks": 112978,
		  "time": 110.330078125,
		  "velocity": 0.3937007874015748
		},
		{
		  "duration": 0.1875,
		  "durationTicks": 192,
		  "midi": 68,
		  "name": "G#4",
		  "ticks": 113070,
		  "time": 110.419921875,
		  "velocity": 0.3937007874015748
		},
		{
		  "duration": 0.09375,
		  "durationTicks": 96,
		  "midi": 76,
		  "name": "E5",
		  "ticks": 113074,
		  "time": 110.423828125,
		  "velocity": 0.3937007874015748
		},
		{
		  "duration": 0.09375,
		  "durationTicks": 96,
		  "midi": 80,
		  "name": "G#5",
		  "ticks": 113170,
		  "time": 110.517578125,
		  "velocity": 0.3937007874015748
		},
		{
		  "duration": 0.1875,
		  "durationTicks": 192,
		  "midi": 66,
		  "name": "F#4",
		  "ticks": 113262,
		  "time": 110.607421875,
		  "velocity": 0.3937007874015748
		},
		{
		  "duration": 0.09375,
		  "durationTicks": 96,
		  "midi": 75,
		  "name": "D#5",
		  "ticks": 113266,
		  "time": 110.611328125,
		  "velocity": 0.3937007874015748
		},
		{
		  "duration": 0.09375,
		  "durationTicks": 96,
		  "midi": 80,
		  "name": "G#5",
		  "ticks": 113362,
		  "time": 110.705078125,
		  "velocity": 0.3937007874015748
		},
		{
		  "duration": 0.1875,
		  "durationTicks": 192,
		  "midi": 64,
		  "name": "E4",
		  "ticks": 113454,
		  "time": 110.794921875,
		  "velocity": 0.3937007874015748
		},
		{
		  "duration": 0.09375,
		  "durationTicks": 96,
		  "midi": 73,
		  "name": "C#5",
		  "ticks": 113458,
		  "time": 110.798828125,
		  "velocity": 0.3937007874015748
		},
		{
		  "duration": 0.09375,
		  "durationTicks": 96,
		  "midi": 80,
		  "name": "G#5",
		  "ticks": 113554,
		  "time": 110.892578125,
		  "velocity": 0.3937007874015748
		},
		{
		  "duration": 0.1875,
		  "durationTicks": 192,
		  "midi": 63,
		  "name": "D#4",
		  "ticks": 113646,
		  "time": 110.982421875,
		  "velocity": 0.3937007874015748
		},
		{
		  "duration": 0.09375,
		  "durationTicks": 96,
		  "midi": 72,
		  "name": "C5",
		  "ticks": 113650,
		  "time": 110.986328125,
		  "velocity": 0.3937007874015748
		},
		{
		  "duration": 0.09375,
		  "durationTicks": 96,
		  "midi": 80,
		  "name": "G#5",
		  "ticks": 113746,
		  "time": 111.080078125,
		  "velocity": 0.3937007874015748
		},
		{
		  "duration": 0.1875,
		  "durationTicks": 192,
		  "midi": 61,
		  "name": "C#4",
		  "ticks": 113838,
		  "time": 111.169921875,
		  "velocity": 0.3937007874015748
		},
		{
		  "duration": 0.09375,
		  "durationTicks": 96,
		  "midi": 69,
		  "name": "A4",
		  "ticks": 113842,
		  "time": 111.173828125,
		  "velocity": 0.3937007874015748
		},
		{
		  "duration": 0.09375,
		  "durationTicks": 96,
		  "midi": 79,
		  "name": "G5",
		  "ticks": 113938,
		  "time": 111.267578125,
		  "velocity": 0.3937007874015748
		},
		{
		  "duration": 0.1875,
		  "durationTicks": 192,
		  "midi": 60,
		  "name": "C4",
		  "ticks": 114030,
		  "time": 111.357421875,
		  "velocity": 0.3937007874015748
		},
		{
		  "duration": 3,
		  "durationTicks": 3072,
		  "midi": 56,
		  "name": "G#3",
		  "ticks": 114030,
		  "time": 111.357421875,
		  "velocity": 0.3937007874015748
		},
		{
		  "duration": 0.09375,
		  "durationTicks": 96,
		  "midi": 68,
		  "name": "G#4",
		  "ticks": 114034,
		  "time": 111.361328125,
		  "velocity": 0.3937007874015748
		},
		{
		  "duration": 0.09375,
		  "durationTicks": 96,
		  "midi": 80,
		  "name": "G#5",
		  "ticks": 114130,
		  "time": 111.455078125,
		  "velocity": 0.3937007874015748
		},
		{
		  "duration": 0.1875,
		  "durationTicks": 192,
		  "midi": 60,
		  "name": "C4",
		  "ticks": 114222,
		  "time": 111.544921875,
		  "velocity": 0.3937007874015748
		},
		{
		  "duration": 0.09375,
		  "durationTicks": 96,
		  "midi": 68,
		  "name": "G#4",
		  "ticks": 114226,
		  "time": 111.548828125,
		  "velocity": 0.3937007874015748
		},
		{
		  "duration": 0.09375,
		  "durationTicks": 96,
		  "midi": 80,
		  "name": "G#5",
		  "ticks": 114322,
		  "time": 111.642578125,
		  "velocity": 0.3937007874015748
		},
		{
		  "duration": 0.1875,
		  "durationTicks": 192,
		  "midi": 60,
		  "name": "C4",
		  "ticks": 114414,
		  "time": 111.732421875,
		  "velocity": 0.3937007874015748
		},
		{
		  "duration": 0.09375,
		  "durationTicks": 96,
		  "midi": 68,
		  "name": "G#4",
		  "ticks": 114418,
		  "time": 111.736328125,
		  "velocity": 0.3937007874015748
		},
		{
		  "duration": 0.09375,
		  "durationTicks": 96,
		  "midi": 80,
		  "name": "G#5",
		  "ticks": 114514,
		  "time": 111.830078125,
		  "velocity": 0.3937007874015748
		},
		{
		  "duration": 0.1875,
		  "durationTicks": 192,
		  "midi": 61,
		  "name": "C#4",
		  "ticks": 114606,
		  "time": 111.919921875,
		  "velocity": 0.3937007874015748
		},
		{
		  "duration": 0.09375,
		  "durationTicks": 96,
		  "midi": 70,
		  "name": "A#4",
		  "ticks": 114610,
		  "time": 111.923828125,
		  "velocity": 0.3937007874015748
		},
		{
		  "duration": 0.09375,
		  "durationTicks": 96,
		  "midi": 80,
		  "name": "G#5",
		  "ticks": 114706,
		  "time": 112.017578125,
		  "velocity": 0.3937007874015748
		},
		{
		  "duration": 0.1875,
		  "durationTicks": 192,
		  "midi": 63,
		  "name": "D#4",
		  "ticks": 114798,
		  "time": 112.107421875,
		  "velocity": 0.3937007874015748
		},
		{
		  "duration": 0.09375,
		  "durationTicks": 96,
		  "midi": 72,
		  "name": "C5",
		  "ticks": 114802,
		  "time": 112.111328125,
		  "velocity": 0.3937007874015748
		},
		{
		  "duration": 0.09375,
		  "durationTicks": 96,
		  "midi": 80,
		  "name": "G#5",
		  "ticks": 114898,
		  "time": 112.205078125,
		  "velocity": 0.3937007874015748
		},
		{
		  "duration": 0.1875,
		  "durationTicks": 192,
		  "midi": 64,
		  "name": "E4",
		  "ticks": 114990,
		  "time": 112.294921875,
		  "velocity": 0.3937007874015748
		},
		{
		  "duration": 0.09375,
		  "durationTicks": 96,
		  "midi": 73,
		  "name": "C#5",
		  "ticks": 114994,
		  "time": 112.298828125,
		  "velocity": 0.3937007874015748
		},
		{
		  "duration": 0.09375,
		  "durationTicks": 96,
		  "midi": 80,
		  "name": "G#5",
		  "ticks": 115090,
		  "time": 112.392578125,
		  "velocity": 0.3937007874015748
		},
		{
		  "duration": 0.1875,
		  "durationTicks": 192,
		  "midi": 66,
		  "name": "F#4",
		  "ticks": 115182,
		  "time": 112.482421875,
		  "velocity": 0.3937007874015748
		},
		{
		  "duration": 0.09375,
		  "durationTicks": 96,
		  "midi": 75,
		  "name": "D#5",
		  "ticks": 115186,
		  "time": 112.486328125,
		  "velocity": 0.3937007874015748
		},
		{
		  "duration": 0.09375,
		  "durationTicks": 96,
		  "midi": 80,
		  "name": "G#5",
		  "ticks": 115282,
		  "time": 112.580078125,
		  "velocity": 0.3937007874015748
		},
		{
		  "duration": 0.1875,
		  "durationTicks": 192,
		  "midi": 63,
		  "name": "D#4",
		  "ticks": 115374,
		  "time": 112.669921875,
		  "velocity": 0.3937007874015748
		},
		{
		  "duration": 0.09375,
		  "durationTicks": 96,
		  "midi": 72,
		  "name": "C5",
		  "ticks": 115378,
		  "time": 112.673828125,
		  "velocity": 0.3937007874015748
		},
		{
		  "duration": 0.09375,
		  "durationTicks": 96,
		  "midi": 80,
		  "name": "G#5",
		  "ticks": 115474,
		  "time": 112.767578125,
		  "velocity": 0.3937007874015748
		},
		{
		  "duration": 0.1875,
		  "durationTicks": 192,
		  "midi": 66,
		  "name": "F#4",
		  "ticks": 115566,
		  "time": 112.857421875,
		  "velocity": 0.3937007874015748
		},
		{
		  "duration": 0.09375,
		  "durationTicks": 96,
		  "midi": 75,
		  "name": "D#5",
		  "ticks": 115570,
		  "time": 112.861328125,
		  "velocity": 0.3937007874015748
		},
		{
		  "duration": 0.09375,
		  "durationTicks": 96,
		  "midi": 80,
		  "name": "G#5",
		  "ticks": 115666,
		  "time": 112.955078125,
		  "velocity": 0.3937007874015748
		},
		{
		  "duration": 0.1875,
		  "durationTicks": 192,
		  "midi": 64,
		  "name": "E4",
		  "ticks": 115758,
		  "time": 113.044921875,
		  "velocity": 0.3937007874015748
		},
		{
		  "duration": 0.09375,
		  "durationTicks": 96,
		  "midi": 73,
		  "name": "C#5",
		  "ticks": 115762,
		  "time": 113.048828125,
		  "velocity": 0.3937007874015748
		},
		{
		  "duration": 0.09375,
		  "durationTicks": 96,
		  "midi": 80,
		  "name": "G#5",
		  "ticks": 115858,
		  "time": 113.142578125,
		  "velocity": 0.3937007874015748
		},
		{
		  "duration": 0.1875,
		  "durationTicks": 192,
		  "midi": 69,
		  "name": "A4",
		  "ticks": 115950,
		  "time": 113.232421875,
		  "velocity": 0.3937007874015748
		},
		{
		  "duration": 0.09375,
		  "durationTicks": 96,
		  "midi": 78,
		  "name": "F#5",
		  "ticks": 115954,
		  "time": 113.236328125,
		  "velocity": 0.3937007874015748
		},
		{
		  "duration": 0.09375,
		  "durationTicks": 96,
		  "midi": 80,
		  "name": "G#5",
		  "ticks": 116050,
		  "time": 113.330078125,
		  "velocity": 0.3937007874015748
		},
		{
		  "duration": 0.1875,
		  "durationTicks": 192,
		  "midi": 68,
		  "name": "G#4",
		  "ticks": 116142,
		  "time": 113.419921875,
		  "velocity": 0.3937007874015748
		},
		{
		  "duration": 0.09375,
		  "durationTicks": 96,
		  "midi": 76,
		  "name": "E5",
		  "ticks": 116146,
		  "time": 113.423828125,
		  "velocity": 0.3937007874015748
		},
		{
		  "duration": 0.09375,
		  "durationTicks": 96,
		  "midi": 80,
		  "name": "G#5",
		  "ticks": 116242,
		  "time": 113.517578125,
		  "velocity": 0.3937007874015748
		},
		{
		  "duration": 0.1875,
		  "durationTicks": 192,
		  "midi": 66,
		  "name": "F#4",
		  "ticks": 116334,
		  "time": 113.607421875,
		  "velocity": 0.3937007874015748
		},
		{
		  "duration": 0.09375,
		  "durationTicks": 96,
		  "midi": 75,
		  "name": "D#5",
		  "ticks": 116338,
		  "time": 113.611328125,
		  "velocity": 0.3937007874015748
		},
		{
		  "duration": 0.09375,
		  "durationTicks": 96,
		  "midi": 80,
		  "name": "G#5",
		  "ticks": 116434,
		  "time": 113.705078125,
		  "velocity": 0.3937007874015748
		},
		{
		  "duration": 0.1875,
		  "durationTicks": 192,
		  "midi": 64,
		  "name": "E4",
		  "ticks": 116526,
		  "time": 113.794921875,
		  "velocity": 0.3937007874015748
		},
		{
		  "duration": 0.09375,
		  "durationTicks": 96,
		  "midi": 73,
		  "name": "C#5",
		  "ticks": 116530,
		  "time": 113.798828125,
		  "velocity": 0.3937007874015748
		},
		{
		  "duration": 0.09375,
		  "durationTicks": 96,
		  "midi": 80,
		  "name": "G#5",
		  "ticks": 116626,
		  "time": 113.892578125,
		  "velocity": 0.3937007874015748
		},
		{
		  "duration": 0.1875,
		  "durationTicks": 192,
		  "midi": 63,
		  "name": "D#4",
		  "ticks": 116718,
		  "time": 113.982421875,
		  "velocity": 0.3937007874015748
		},
		{
		  "duration": 0.09375,
		  "durationTicks": 96,
		  "midi": 72,
		  "name": "C5",
		  "ticks": 116722,
		  "time": 113.986328125,
		  "velocity": 0.3937007874015748
		},
		{
		  "duration": 0.09375,
		  "durationTicks": 96,
		  "midi": 80,
		  "name": "G#5",
		  "ticks": 116818,
		  "time": 114.080078125,
		  "velocity": 0.3937007874015748
		},
		{
		  "duration": 0.1875,
		  "durationTicks": 192,
		  "midi": 61,
		  "name": "C#4",
		  "ticks": 116910,
		  "time": 114.169921875,
		  "velocity": 0.3937007874015748
		},
		{
		  "duration": 0.09375,
		  "durationTicks": 96,
		  "midi": 69,
		  "name": "A4",
		  "ticks": 116914,
		  "time": 114.173828125,
		  "velocity": 0.3937007874015748
		},
		{
		  "duration": 0.09375,
		  "durationTicks": 96,
		  "midi": 79,
		  "name": "G5",
		  "ticks": 117010,
		  "time": 114.267578125,
		  "velocity": 0.3937007874015748
		},
		{
		  "duration": 0.09375,
		  "durationTicks": 96,
		  "midi": 56,
		  "name": "G#3",
		  "ticks": 117102,
		  "time": 114.357421875,
		  "velocity": 0.3937007874015748
		},
		{
		  "duration": 0.09375,
		  "durationTicks": 96,
		  "midi": 60,
		  "name": "C4",
		  "ticks": 117102,
		  "time": 114.357421875,
		  "velocity": 0.3937007874015748
		},
		{
		  "duration": 0.09375,
		  "durationTicks": 96,
		  "midi": 68,
		  "name": "G#4",
		  "ticks": 117106,
		  "time": 114.361328125,
		  "velocity": 0.3937007874015748
		},
		{
		  "duration": 0.09375,
		  "durationTicks": 96,
		  "midi": 80,
		  "name": "G#5",
		  "ticks": 117202,
		  "time": 114.455078125,
		  "velocity": 0.3937007874015748
		},
		{
		  "duration": 0.09375,
		  "durationTicks": 96,
		  "midi": 61,
		  "name": "C#4",
		  "ticks": 117294,
		  "time": 114.544921875,
		  "velocity": 0.3937007874015748
		},
		{
		  "duration": 0.09375,
		  "durationTicks": 96,
		  "midi": 56,
		  "name": "G#3",
		  "ticks": 117294,
		  "time": 114.544921875,
		  "velocity": 0.3937007874015748
		},
		{
		  "duration": 0.09375,
		  "durationTicks": 96,
		  "midi": 69,
		  "name": "A4",
		  "ticks": 117298,
		  "time": 114.548828125,
		  "velocity": 0.3937007874015748
		},
		{
		  "duration": 0.09375,
		  "durationTicks": 96,
		  "midi": 79,
		  "name": "G5",
		  "ticks": 117394,
		  "time": 114.642578125,
		  "velocity": 0.3937007874015748
		},
		{
		  "duration": 0.09375,
		  "durationTicks": 96,
		  "midi": 56,
		  "name": "G#3",
		  "ticks": 117486,
		  "time": 114.732421875,
		  "velocity": 0.3937007874015748
		},
		{
		  "duration": 0.09375,
		  "durationTicks": 96,
		  "midi": 60,
		  "name": "C4",
		  "ticks": 117486,
		  "time": 114.732421875,
		  "velocity": 0.3937007874015748
		},
		{
		  "duration": 0.09375,
		  "durationTicks": 96,
		  "midi": 68,
		  "name": "G#4",
		  "ticks": 117490,
		  "time": 114.736328125,
		  "velocity": 0.3937007874015748
		},
		{
		  "duration": 0.09375,
		  "durationTicks": 96,
		  "midi": 80,
		  "name": "G#5",
		  "ticks": 117586,
		  "time": 114.830078125,
		  "velocity": 0.3937007874015748
		},
		{
		  "duration": 0.09375,
		  "durationTicks": 96,
		  "midi": 61,
		  "name": "C#4",
		  "ticks": 117678,
		  "time": 114.919921875,
		  "velocity": 0.3937007874015748
		},
		{
		  "duration": 0.09375,
		  "durationTicks": 96,
		  "midi": 56,
		  "name": "G#3",
		  "ticks": 117678,
		  "time": 114.919921875,
		  "velocity": 0.3937007874015748
		},
		{
		  "duration": 0.09375,
		  "durationTicks": 96,
		  "midi": 69,
		  "name": "A4",
		  "ticks": 117682,
		  "time": 114.923828125,
		  "velocity": 0.3937007874015748
		},
		{
		  "duration": 0.09375,
		  "durationTicks": 96,
		  "midi": 79,
		  "name": "G5",
		  "ticks": 117778,
		  "time": 115.017578125,
		  "velocity": 0.3937007874015748
		},
		{
		  "duration": 0.09375,
		  "durationTicks": 96,
		  "midi": 56,
		  "name": "G#3",
		  "ticks": 117870,
		  "time": 115.107421875,
		  "velocity": 0.3937007874015748
		},
		{
		  "duration": 0.09375,
		  "durationTicks": 96,
		  "midi": 60,
		  "name": "C4",
		  "ticks": 117870,
		  "time": 115.107421875,
		  "velocity": 0.3937007874015748
		},
		{
		  "duration": 0.09375,
		  "durationTicks": 96,
		  "midi": 68,
		  "name": "G#4",
		  "ticks": 117874,
		  "time": 115.111328125,
		  "velocity": 0.3937007874015748
		},
		{
		  "duration": 0.09375,
		  "durationTicks": 96,
		  "midi": 80,
		  "name": "G#5",
		  "ticks": 117970,
		  "time": 115.205078125,
		  "velocity": 0.3937007874015748
		},
		{
		  "duration": 0.09375,
		  "durationTicks": 96,
		  "midi": 56,
		  "name": "G#3",
		  "ticks": 118062,
		  "time": 115.294921875,
		  "velocity": 0.3937007874015748
		},
		{
		  "duration": 0.09375,
		  "durationTicks": 96,
		  "midi": 61,
		  "name": "C#4",
		  "ticks": 118062,
		  "time": 115.294921875,
		  "velocity": 0.3937007874015748
		},
		{
		  "duration": 0.09375,
		  "durationTicks": 96,
		  "midi": 69,
		  "name": "A4",
		  "ticks": 118066,
		  "time": 115.298828125,
		  "velocity": 0.3937007874015748
		},
		{
		  "duration": 0.09375,
		  "durationTicks": 96,
		  "midi": 79,
		  "name": "G5",
		  "ticks": 118162,
		  "time": 115.392578125,
		  "velocity": 0.3937007874015748
		},
		{
		  "duration": 0.09375,
		  "durationTicks": 96,
		  "midi": 56,
		  "name": "G#3",
		  "ticks": 118254,
		  "time": 115.482421875,
		  "velocity": 0.3937007874015748
		},
		{
		  "duration": 0.09375,
		  "durationTicks": 96,
		  "midi": 60,
		  "name": "C4",
		  "ticks": 118254,
		  "time": 115.482421875,
		  "velocity": 0.3937007874015748
		},
		{
		  "duration": 0.09375,
		  "durationTicks": 96,
		  "midi": 68,
		  "name": "G#4",
		  "ticks": 118258,
		  "time": 115.486328125,
		  "velocity": 0.3937007874015748
		},
		{
		  "duration": 0.09375,
		  "durationTicks": 96,
		  "midi": 80,
		  "name": "G#5",
		  "ticks": 118354,
		  "time": 115.580078125,
		  "velocity": 0.3937007874015748
		},
		{
		  "duration": 0.09375,
		  "durationTicks": 96,
		  "midi": 56,
		  "name": "G#3",
		  "ticks": 118446,
		  "time": 115.669921875,
		  "velocity": 0.3937007874015748
		},
		{
		  "duration": 0.09375,
		  "durationTicks": 96,
		  "midi": 61,
		  "name": "C#4",
		  "ticks": 118446,
		  "time": 115.669921875,
		  "velocity": 0.3937007874015748
		},
		{
		  "duration": 0.09375,
		  "durationTicks": 96,
		  "midi": 69,
		  "name": "A4",
		  "ticks": 118450,
		  "time": 115.673828125,
		  "velocity": 0.3937007874015748
		},
		{
		  "duration": 0.09375,
		  "durationTicks": 96,
		  "midi": 79,
		  "name": "G5",
		  "ticks": 118546,
		  "time": 115.767578125,
		  "velocity": 0.3937007874015748
		},
		{
		  "duration": 0.09375,
		  "durationTicks": 96,
		  "midi": 68,
		  "name": "G#4",
		  "ticks": 118642,
		  "time": 115.861328125,
		  "velocity": 0.3937007874015748
		},
		{
		  "duration": 0.09375,
		  "durationTicks": 96,
		  "midi": 80,
		  "name": "G#5",
		  "ticks": 118642,
		  "time": 115.861328125,
		  "velocity": 0.3937007874015748
		},
		{
		  "duration": 0.09375,
		  "durationTicks": 96,
		  "midi": 56,
		  "name": "G#3",
		  "ticks": 118642,
		  "time": 115.861328125,
		  "velocity": 0.3937007874015748
		},
		{
		  "duration": 0.09375,
		  "durationTicks": 96,
		  "midi": 60,
		  "name": "C4",
		  "ticks": 118642,
		  "time": 115.861328125,
		  "velocity": 0.3937007874015748
		},
		{
		  "duration": 1.5,
		  "durationTicks": 1536,
		  "midi": 56,
		  "name": "G#3",
		  "ticks": 119022,
		  "time": 116.232421875,
		  "velocity": 0.3937007874015748
		},
		{
		  "duration": 1.5,
		  "durationTicks": 1536,
		  "midi": 32,
		  "name": "G#1",
		  "ticks": 119022,
		  "time": 116.232421875,
		  "velocity": 0.3937007874015748
		},
		{
		  "duration": 1.5,
		  "durationTicks": 1536,
		  "midi": 44,
		  "name": "G#2",
		  "ticks": 119022,
		  "time": 116.232421875,
		  "velocity": 0.3937007874015748
		},
		{
		  "duration": 0.09375,
		  "durationTicks": 96,
		  "midi": 37,
		  "name": "C#2",
		  "ticks": 120562,
		  "time": 117.736328125,
		  "velocity": 0.3937007874015748
		},
		{
		  "duration": 0.09375,
		  "durationTicks": 96,
		  "midi": 44,
		  "name": "G#2",
		  "ticks": 120654,
		  "time": 117.826171875,
		  "velocity": 0.3937007874015748
		},
		{
		  "duration": 0.09375,
		  "durationTicks": 96,
		  "midi": 44,
		  "name": "G#2",
		  "ticks": 120734,
		  "time": 117.904296875,
		  "velocity": 0.3937007874015748
		},
		{
		  "duration": 0.09375,
		  "durationTicks": 96,
		  "midi": 49,
		  "name": "C#3",
		  "ticks": 120754,
		  "time": 117.923828125,
		  "velocity": 0.3937007874015748
		},
		{
		  "duration": 0.09375,
		  "durationTicks": 96,
		  "midi": 52,
		  "name": "E3",
		  "ticks": 120850,
		  "time": 118.017578125,
		  "velocity": 0.3937007874015748
		},
		{
		  "duration": 0.09375,
		  "durationTicks": 96,
		  "midi": 37,
		  "name": "C#2",
		  "ticks": 120930,
		  "time": 118.095703125,
		  "velocity": 0.3937007874015748
		},
		{
		  "duration": 0.09375,
		  "durationTicks": 96,
		  "midi": 56,
		  "name": "G#3",
		  "ticks": 120946,
		  "time": 118.111328125,
		  "velocity": 0.3937007874015748
		},
		{
		  "duration": 0.09375,
		  "durationTicks": 96,
		  "midi": 49,
		  "name": "C#3",
		  "ticks": 121042,
		  "time": 118.205078125,
		  "velocity": 0.3937007874015748
		},
		{
		  "duration": 0.09375,
		  "durationTicks": 96,
		  "midi": 44,
		  "name": "G#2",
		  "ticks": 121122,
		  "time": 118.283203125,
		  "velocity": 0.3937007874015748
		},
		{
		  "duration": 0.09375,
		  "durationTicks": 96,
		  "midi": 52,
		  "name": "E3",
		  "ticks": 121138,
		  "time": 118.298828125,
		  "velocity": 0.3937007874015748
		},
		{
		  "duration": 0.09375,
		  "durationTicks": 96,
		  "midi": 56,
		  "name": "G#3",
		  "ticks": 121234,
		  "time": 118.392578125,
		  "velocity": 0.3937007874015748
		},
		{
		  "duration": 0.09375,
		  "durationTicks": 96,
		  "midi": 37,
		  "name": "C#2",
		  "ticks": 121314,
		  "time": 118.470703125,
		  "velocity": 0.3937007874015748
		},
		{
		  "duration": 0.09375,
		  "durationTicks": 96,
		  "midi": 61,
		  "name": "C#4",
		  "ticks": 121330,
		  "time": 118.486328125,
		  "velocity": 0.3937007874015748
		},
		{
		  "duration": 0.09375,
		  "durationTicks": 96,
		  "midi": 52,
		  "name": "E3",
		  "ticks": 121426,
		  "time": 118.580078125,
		  "velocity": 0.3937007874015748
		},
		{
		  "duration": 0.09375,
		  "durationTicks": 96,
		  "midi": 44,
		  "name": "G#2",
		  "ticks": 121502,
		  "time": 118.654296875,
		  "velocity": 0.3937007874015748
		},
		{
		  "duration": 0.09375,
		  "durationTicks": 96,
		  "midi": 56,
		  "name": "G#3",
		  "ticks": 121522,
		  "time": 118.673828125,
		  "velocity": 0.3937007874015748
		},
		{
		  "duration": 0.09375,
		  "durationTicks": 96,
		  "midi": 61,
		  "name": "C#4",
		  "ticks": 121618,
		  "time": 118.767578125,
		  "velocity": 0.3937007874015748
		},
		{
		  "duration": 0.09375,
		  "durationTicks": 96,
		  "midi": 37,
		  "name": "C#2",
		  "ticks": 121694,
		  "time": 118.841796875,
		  "velocity": 0.3937007874015748
		},
		{
		  "duration": 0.09375,
		  "durationTicks": 96,
		  "midi": 64,
		  "name": "E4",
		  "ticks": 121714,
		  "time": 118.861328125,
		  "velocity": 0.3937007874015748
		},
		{
		  "duration": 0.09375,
		  "durationTicks": 96,
		  "midi": 56,
		  "name": "G#3",
		  "ticks": 121810,
		  "time": 118.955078125,
		  "velocity": 0.3937007874015748
		},
		{
		  "duration": 0.09375,
		  "durationTicks": 96,
		  "midi": 44,
		  "name": "G#2",
		  "ticks": 121886,
		  "time": 119.029296875,
		  "velocity": 0.3937007874015748
		},
		{
		  "duration": 0.09375,
		  "durationTicks": 96,
		  "midi": 61,
		  "name": "C#4",
		  "ticks": 121906,
		  "time": 119.048828125,
		  "velocity": 0.3937007874015748
		},
		{
		  "duration": 0.09375,
		  "durationTicks": 96,
		  "midi": 64,
		  "name": "E4",
		  "ticks": 122002,
		  "time": 119.142578125,
		  "velocity": 0.3937007874015748
		},
		{
		  "duration": 0.09375,
		  "durationTicks": 96,
		  "midi": 37,
		  "name": "C#2",
		  "ticks": 122082,
		  "time": 119.220703125,
		  "velocity": 0.3937007874015748
		},
		{
		  "duration": 0.09375,
		  "durationTicks": 96,
		  "midi": 68,
		  "name": "G#4",
		  "ticks": 122098,
		  "time": 119.236328125,
		  "velocity": 0.3937007874015748
		},
		{
		  "duration": 0.09375,
		  "durationTicks": 96,
		  "midi": 61,
		  "name": "C#4",
		  "ticks": 122194,
		  "time": 119.330078125,
		  "velocity": 0.3937007874015748
		},
		{
		  "duration": 0.09375,
		  "durationTicks": 96,
		  "midi": 44,
		  "name": "G#2",
		  "ticks": 122274,
		  "time": 119.408203125,
		  "velocity": 0.3937007874015748
		},
		{
		  "duration": 0.09375,
		  "durationTicks": 96,
		  "midi": 64,
		  "name": "E4",
		  "ticks": 122290,
		  "time": 119.423828125,
		  "velocity": 0.3937007874015748
		},
		{
		  "duration": 0.09375,
		  "durationTicks": 96,
		  "midi": 68,
		  "name": "G#4",
		  "ticks": 122386,
		  "time": 119.517578125,
		  "velocity": 0.3937007874015748
		},
		{
		  "duration": 0.09375,
		  "durationTicks": 96,
		  "midi": 37,
		  "name": "C#2",
		  "ticks": 122462,
		  "time": 119.591796875,
		  "velocity": 0.3937007874015748
		},
		{
		  "duration": 0.09375,
		  "durationTicks": 96,
		  "midi": 73,
		  "name": "C#5",
		  "ticks": 122482,
		  "time": 119.611328125,
		  "velocity": 0.3937007874015748
		},
		{
		  "duration": 0.09375,
		  "durationTicks": 96,
		  "midi": 64,
		  "name": "E4",
		  "ticks": 122578,
		  "time": 119.705078125,
		  "velocity": 0.3937007874015748
		},
		{
		  "duration": 0.09375,
		  "durationTicks": 96,
		  "midi": 44,
		  "name": "G#2",
		  "ticks": 122654,
		  "time": 119.779296875,
		  "velocity": 0.3937007874015748
		},
		{
		  "duration": 0.09375,
		  "durationTicks": 96,
		  "midi": 68,
		  "name": "G#4",
		  "ticks": 122674,
		  "time": 119.798828125,
		  "velocity": 0.3937007874015748
		},
		{
		  "duration": 0.09375,
		  "durationTicks": 96,
		  "midi": 73,
		  "name": "C#5",
		  "ticks": 122770,
		  "time": 119.892578125,
		  "velocity": 0.3937007874015748
		},
		{
		  "duration": 0.09375,
		  "durationTicks": 96,
		  "midi": 37,
		  "name": "C#2",
		  "ticks": 122846,
		  "time": 119.966796875,
		  "velocity": 0.3937007874015748
		},
		{
		  "duration": 0.09375,
		  "durationTicks": 96,
		  "midi": 76,
		  "name": "E5",
		  "ticks": 122866,
		  "time": 119.986328125,
		  "velocity": 0.3937007874015748
		},
		{
		  "duration": 0.09375,
		  "durationTicks": 96,
		  "midi": 76,
		  "name": "E5",
		  "ticks": 122962,
		  "time": 120.080078125,
		  "velocity": 0.3937007874015748
		},
		{
		  "duration": 0.09375,
		  "durationTicks": 96,
		  "midi": 44,
		  "name": "G#2",
		  "ticks": 123042,
		  "time": 120.158203125,
		  "velocity": 0.3937007874015748
		},
		{
		  "duration": 0.09375,
		  "durationTicks": 96,
		  "midi": 80,
		  "name": "G#5",
		  "ticks": 123058,
		  "time": 120.173828125,
		  "velocity": 0.3937007874015748
		},
		{
		  "duration": 0.09375,
		  "durationTicks": 96,
		  "midi": 85,
		  "name": "C#6",
		  "ticks": 123154,
		  "time": 120.267578125,
		  "velocity": 0.3937007874015748
		},
		{
		  "duration": 0.1875,
		  "durationTicks": 192,
		  "midi": 88,
		  "name": "E6",
		  "ticks": 123234,
		  "time": 120.345703125,
		  "velocity": 0.3937007874015748
		},
		{
		  "duration": 0.1875,
		  "durationTicks": 192,
		  "midi": 76,
		  "name": "E5",
		  "ticks": 123234,
		  "time": 120.345703125,
		  "velocity": 0.3937007874015748
		},
		{
		  "duration": 0.1875,
		  "durationTicks": 192,
		  "midi": 49,
		  "name": "C#3",
		  "ticks": 123234,
		  "time": 120.345703125,
		  "velocity": 0.3937007874015748
		},
		{
		  "duration": 0.1875,
		  "durationTicks": 192,
		  "midi": 37,
		  "name": "C#2",
		  "ticks": 123234,
		  "time": 120.345703125,
		  "velocity": 0.3937007874015748
		},
		{
		  "duration": 0.1875,
		  "durationTicks": 192,
		  "midi": 44,
		  "name": "G#2",
		  "ticks": 123422,
		  "time": 120.529296875,
		  "velocity": 0.3937007874015748
		},
		{
		  "duration": 0.1875,
		  "durationTicks": 192,
		  "midi": 88,
		  "name": "E6",
		  "ticks": 123442,
		  "time": 120.548828125,
		  "velocity": 0.3937007874015748
		},
		{
		  "duration": 0.1875,
		  "durationTicks": 192,
		  "midi": 76,
		  "name": "E5",
		  "ticks": 123442,
		  "time": 120.548828125,
		  "velocity": 0.3937007874015748
		},
		{
		  "duration": 0.09375,
		  "durationTicks": 96,
		  "midi": 34,
		  "name": "A#1",
		  "ticks": 123614,
		  "time": 120.716796875,
		  "velocity": 0.3937007874015748
		},
		{
		  "duration": 0.09375,
		  "durationTicks": 96,
		  "midi": 52,
		  "name": "E3",
		  "ticks": 123734,
		  "time": 120.833984375,
		  "velocity": 0.3937007874015748
		},
		{
		  "duration": 0.09375,
		  "durationTicks": 96,
		  "midi": 49,
		  "name": "C#3",
		  "ticks": 123806,
		  "time": 120.904296875,
		  "velocity": 0.3937007874015748
		},
		{
		  "duration": 0.09375,
		  "durationTicks": 96,
		  "midi": 55,
		  "name": "G3",
		  "ticks": 123826,
		  "time": 120.923828125,
		  "velocity": 0.3937007874015748
		},
		{
		  "duration": 0.09375,
		  "durationTicks": 96,
		  "midi": 61,
		  "name": "C#4",
		  "ticks": 123922,
		  "time": 121.017578125,
		  "velocity": 0.3937007874015748
		},
		{
		  "duration": 0.09375,
		  "durationTicks": 96,
		  "midi": 46,
		  "name": "A#2",
		  "ticks": 123998,
		  "time": 121.091796875,
		  "velocity": 0.3937007874015748
		},
		{
		  "duration": 0.09375,
		  "durationTicks": 96,
		  "midi": 64,
		  "name": "E4",
		  "ticks": 124018,
		  "time": 121.111328125,
		  "velocity": 0.3937007874015748
		},
		{
		  "duration": 0.09375,
		  "durationTicks": 96,
		  "midi": 55,
		  "name": "G3",
		  "ticks": 124114,
		  "time": 121.205078125,
		  "velocity": 0.3937007874015748
		},
		{
		  "duration": 0.09375,
		  "durationTicks": 96,
		  "midi": 49,
		  "name": "C#3",
		  "ticks": 124194,
		  "time": 121.283203125,
		  "velocity": 0.3937007874015748
		},
		{
		  "duration": 0.09375,
		  "durationTicks": 96,
		  "midi": 61,
		  "name": "C#4",
		  "ticks": 124210,
		  "time": 121.298828125,
		  "velocity": 0.3937007874015748
		},
		{
		  "duration": 0.09375,
		  "durationTicks": 96,
		  "midi": 64,
		  "name": "E4",
		  "ticks": 124306,
		  "time": 121.392578125,
		  "velocity": 0.3937007874015748
		},
		{
		  "duration": 0.09375,
		  "durationTicks": 96,
		  "midi": 46,
		  "name": "A#2",
		  "ticks": 124386,
		  "time": 121.470703125,
		  "velocity": 0.3937007874015748
		},
		{
		  "duration": 0.09375,
		  "durationTicks": 96,
		  "midi": 67,
		  "name": "G4",
		  "ticks": 124402,
		  "time": 121.486328125,
		  "velocity": 0.3937007874015748
		},
		{
		  "duration": 0.09375,
		  "durationTicks": 96,
		  "midi": 61,
		  "name": "C#4",
		  "ticks": 124498,
		  "time": 121.580078125,
		  "velocity": 0.3937007874015748
		},
		{
		  "duration": 0.09375,
		  "durationTicks": 96,
		  "midi": 49,
		  "name": "C#3",
		  "ticks": 124574,
		  "time": 121.654296875,
		  "velocity": 0.3937007874015748
		},
		{
		  "duration": 0.09375,
		  "durationTicks": 96,
		  "midi": 64,
		  "name": "E4",
		  "ticks": 124594,
		  "time": 121.673828125,
		  "velocity": 0.3937007874015748
		},
		{
		  "duration": 0.09375,
		  "durationTicks": 96,
		  "midi": 67,
		  "name": "G4",
		  "ticks": 124690,
		  "time": 121.767578125,
		  "velocity": 0.3937007874015748
		},
		{
		  "duration": 0.09375,
		  "durationTicks": 96,
		  "midi": 46,
		  "name": "A#2",
		  "ticks": 124766,
		  "time": 121.841796875,
		  "velocity": 0.3937007874015748
		},
		{
		  "duration": 0.09375,
		  "durationTicks": 96,
		  "midi": 73,
		  "name": "C#5",
		  "ticks": 124786,
		  "time": 121.861328125,
		  "velocity": 0.3937007874015748
		},
		{
		  "duration": 0.09375,
		  "durationTicks": 96,
		  "midi": 64,
		  "name": "E4",
		  "ticks": 124882,
		  "time": 121.955078125,
		  "velocity": 0.3937007874015748
		},
		{
		  "duration": 0.09375,
		  "durationTicks": 96,
		  "midi": 49,
		  "name": "C#3",
		  "ticks": 124958,
		  "time": 122.029296875,
		  "velocity": 0.3937007874015748
		},
		{
		  "duration": 0.09375,
		  "durationTicks": 96,
		  "midi": 67,
		  "name": "G4",
		  "ticks": 124978,
		  "time": 122.048828125,
		  "velocity": 0.3937007874015748
		},
		{
		  "duration": 0.09375,
		  "durationTicks": 96,
		  "midi": 73,
		  "name": "C#5",
		  "ticks": 125074,
		  "time": 122.142578125,
		  "velocity": 0.3937007874015748
		},
		{
		  "duration": 0.09375,
		  "durationTicks": 96,
		  "midi": 46,
		  "name": "A#2",
		  "ticks": 125150,
		  "time": 122.216796875,
		  "velocity": 0.3937007874015748
		},
		{
		  "duration": 0.09375,
		  "durationTicks": 96,
		  "midi": 76,
		  "name": "E5",
		  "ticks": 125170,
		  "time": 122.236328125,
		  "velocity": 0.3937007874015748
		},
		{
		  "duration": 0.09375,
		  "durationTicks": 96,
		  "midi": 67,
		  "name": "G4",
		  "ticks": 125266,
		  "time": 122.330078125,
		  "velocity": 0.3937007874015748
		},
		{
		  "duration": 0.09375,
		  "durationTicks": 96,
		  "midi": 49,
		  "name": "C#3",
		  "ticks": 125346,
		  "time": 122.408203125,
		  "velocity": 0.3937007874015748
		},
		{
		  "duration": 0.09375,
		  "durationTicks": 96,
		  "midi": 73,
		  "name": "C#5",
		  "ticks": 125362,
		  "time": 122.423828125,
		  "velocity": 0.3937007874015748
		},
		{
		  "duration": 0.09375,
		  "durationTicks": 96,
		  "midi": 76,
		  "name": "E5",
		  "ticks": 125458,
		  "time": 122.517578125,
		  "velocity": 0.3937007874015748
		},
		{
		  "duration": 0.09375,
		  "durationTicks": 96,
		  "midi": 46,
		  "name": "A#2",
		  "ticks": 125538,
		  "time": 122.595703125,
		  "velocity": 0.3937007874015748
		},
		{
		  "duration": 0.09375,
		  "durationTicks": 96,
		  "midi": 79,
		  "name": "G5",
		  "ticks": 125554,
		  "time": 122.611328125,
		  "velocity": 0.3937007874015748
		},
		{
		  "duration": 0.09375,
		  "durationTicks": 96,
		  "midi": 73,
		  "name": "C#5",
		  "ticks": 125650,
		  "time": 122.705078125,
		  "velocity": 0.3937007874015748
		},
		{
		  "duration": 0.09375,
		  "durationTicks": 96,
		  "midi": 49,
		  "name": "C#3",
		  "ticks": 125726,
		  "time": 122.779296875,
		  "velocity": 0.3937007874015748
		},
		{
		  "duration": 0.09375,
		  "durationTicks": 96,
		  "midi": 76,
		  "name": "E5",
		  "ticks": 125746,
		  "time": 122.798828125,
		  "velocity": 0.3937007874015748
		},
		{
		  "duration": 0.09375,
		  "durationTicks": 96,
		  "midi": 79,
		  "name": "G5",
		  "ticks": 125842,
		  "time": 122.892578125,
		  "velocity": 0.3937007874015748
		},
		{
		  "duration": 0.09375,
		  "durationTicks": 96,
		  "midi": 46,
		  "name": "A#2",
		  "ticks": 125918,
		  "time": 122.966796875,
		  "velocity": 0.3937007874015748
		},
		{
		  "duration": 0.09375,
		  "durationTicks": 96,
		  "midi": 85,
		  "name": "C#6",
		  "ticks": 125938,
		  "time": 122.986328125,
		  "velocity": 0.3937007874015748
		},
		{
		  "duration": 0.09375,
		  "durationTicks": 96,
		  "midi": 76,
		  "name": "E5",
		  "ticks": 126034,
		  "time": 123.080078125,
		  "velocity": 0.3937007874015748
		},
		{
		  "duration": 0.09375,
		  "durationTicks": 96,
		  "midi": 49,
		  "name": "C#3",
		  "ticks": 126110,
		  "time": 123.154296875,
		  "velocity": 0.3937007874015748
		},
		{
		  "duration": 0.09375,
		  "durationTicks": 96,
		  "midi": 79,
		  "name": "G5",
		  "ticks": 126130,
		  "time": 123.173828125,
		  "velocity": 0.3937007874015748
		},
		{
		  "duration": 0.09375,
		  "durationTicks": 96,
		  "midi": 85,
		  "name": "C#6",
		  "ticks": 126226,
		  "time": 123.267578125,
		  "velocity": 0.3937007874015748
		},
		{
		  "duration": 0.1875,
		  "durationTicks": 192,
		  "midi": 76,
		  "name": "E5",
		  "ticks": 126306,
		  "time": 123.345703125,
		  "velocity": 0.3937007874015748
		},
		{
		  "duration": 0.1875,
		  "durationTicks": 192,
		  "midi": 88,
		  "name": "E6",
		  "ticks": 126306,
		  "time": 123.345703125,
		  "velocity": 0.3937007874015748
		},
		{
		  "duration": 0.1875,
		  "durationTicks": 192,
		  "midi": 46,
		  "name": "A#2",
		  "ticks": 126306,
		  "time": 123.345703125,
		  "velocity": 0.3937007874015748
		},
		{
		  "duration": 0.1875,
		  "durationTicks": 192,
		  "midi": 34,
		  "name": "A#1",
		  "ticks": 126306,
		  "time": 123.345703125,
		  "velocity": 0.3937007874015748
		},
		{
		  "duration": 0.1875,
		  "durationTicks": 192,
		  "midi": 49,
		  "name": "C#3",
		  "ticks": 126498,
		  "time": 123.533203125,
		  "velocity": 0.3937007874015748
		},
		{
		  "duration": 0.1875,
		  "durationTicks": 192,
		  "midi": 76,
		  "name": "E5",
		  "ticks": 126514,
		  "time": 123.548828125,
		  "velocity": 0.3937007874015748
		},
		{
		  "duration": 0.1875,
		  "durationTicks": 192,
		  "midi": 88,
		  "name": "E6",
		  "ticks": 126514,
		  "time": 123.548828125,
		  "velocity": 0.3937007874015748
		},
		{
		  "duration": 0.09375,
		  "durationTicks": 96,
		  "midi": 31,
		  "name": "G1",
		  "ticks": 126690,
		  "time": 123.720703125,
		  "velocity": 0.3937007874015748
		},
		{
		  "duration": 0.09375,
		  "durationTicks": 96,
		  "midi": 51,
		  "name": "D#3",
		  "ticks": 126802,
		  "time": 123.830078125,
		  "velocity": 0.3937007874015748
		},
		{
		  "duration": 0.09375,
		  "durationTicks": 96,
		  "midi": 51,
		  "name": "D#3",
		  "ticks": 126882,
		  "time": 123.908203125,
		  "velocity": 0.3937007874015748
		},
		{
		  "duration": 0.09375,
		  "durationTicks": 96,
		  "midi": 58,
		  "name": "A#3",
		  "ticks": 126898,
		  "time": 123.923828125,
		  "velocity": 0.3937007874015748
		},
		{
		  "duration": 0.09375,
		  "durationTicks": 96,
		  "midi": 61,
		  "name": "C#4",
		  "ticks": 126994,
		  "time": 124.017578125,
		  "velocity": 0.3937007874015748
		},
		{
		  "duration": 0.09375,
		  "durationTicks": 96,
		  "midi": 43,
		  "name": "G2",
		  "ticks": 127078,
		  "time": 124.099609375,
		  "velocity": 0.3937007874015748
		},
		{
		  "duration": 0.09375,
		  "durationTicks": 96,
		  "midi": 63,
		  "name": "D#4",
		  "ticks": 127094,
		  "time": 124.115234375,
		  "velocity": 0.3937007874015748
		},
		{
		  "duration": 0.09375,
		  "durationTicks": 96,
		  "midi": 58,
		  "name": "A#3",
		  "ticks": 127190,
		  "time": 124.208984375,
		  "velocity": 0.3937007874015748
		},
		{
		  "duration": 0.09375,
		  "durationTicks": 96,
		  "midi": 51,
		  "name": "D#3",
		  "ticks": 127270,
		  "time": 124.287109375,
		  "velocity": 0.3937007874015748
		},
		{
		  "duration": 0.09375,
		  "durationTicks": 96,
		  "midi": 61,
		  "name": "C#4",
		  "ticks": 127286,
		  "time": 124.302734375,
		  "velocity": 0.3937007874015748
		},
		{
		  "duration": 0.0947265625,
		  "durationTicks": 97,
		  "midi": 63,
		  "name": "D#4",
		  "ticks": 127378,
		  "time": 124.392578125,
		  "velocity": 0.3937007874015748
		},
		{
		  "duration": 0.09375,
		  "durationTicks": 96,
		  "midi": 43,
		  "name": "G2",
		  "ticks": 127466,
		  "time": 124.478515625,
		  "velocity": 0.3937007874015748
		},
		{
		  "duration": 0.09375,
		  "durationTicks": 96,
		  "midi": 70,
		  "name": "A#4",
		  "ticks": 127475,
		  "time": 124.4873046875,
		  "velocity": 0.3937007874015748
		},
		{
		  "duration": 0.09375,
		  "durationTicks": 96,
		  "midi": 61,
		  "name": "C#4",
		  "ticks": 127571,
		  "time": 124.5810546875,
		  "velocity": 0.3937007874015748
		},
		{
		  "duration": 0.09375,
		  "durationTicks": 96,
		  "midi": 51,
		  "name": "D#3",
		  "ticks": 127658,
		  "time": 124.666015625,
		  "velocity": 0.3937007874015748
		},
		{
		  "duration": 0.09375,
		  "durationTicks": 96,
		  "midi": 63,
		  "name": "D#4",
		  "ticks": 127667,
		  "time": 124.6748046875,
		  "velocity": 0.3937007874015748
		},
		{
		  "duration": 0.09375,
		  "durationTicks": 96,
		  "midi": 70,
		  "name": "A#4",
		  "ticks": 127763,
		  "time": 124.7685546875,
		  "velocity": 0.3937007874015748
		},
		{
		  "duration": 0.09375,
		  "durationTicks": 96,
		  "midi": 43,
		  "name": "G2",
		  "ticks": 127847,
		  "time": 124.8505859375,
		  "velocity": 0.3937007874015748
		},
		{
		  "duration": 0.09375,
		  "durationTicks": 96,
		  "midi": 73,
		  "name": "C#5",
		  "ticks": 127859,
		  "time": 124.8623046875,
		  "velocity": 0.3937007874015748
		},
		{
		  "duration": 0.09375,
		  "durationTicks": 96,
		  "midi": 63,
		  "name": "D#4",
		  "ticks": 127955,
		  "time": 124.9560546875,
		  "velocity": 0.3937007874015748
		},
		{
		  "duration": 0.09375,
		  "durationTicks": 96,
		  "midi": 51,
		  "name": "D#3",
		  "ticks": 128039,
		  "time": 125.0380859375,
		  "velocity": 0.3937007874015748
		},
		{
		  "duration": 0.09375,
		  "durationTicks": 96,
		  "midi": 70,
		  "name": "A#4",
		  "ticks": 128051,
		  "time": 125.0498046875,
		  "velocity": 0.3937007874015748
		},
		{
		  "duration": 0.09375,
		  "durationTicks": 96,
		  "midi": 73,
		  "name": "C#5",
		  "ticks": 128151,
		  "time": 125.1474609375,
		  "velocity": 0.3937007874015748
		},
		{
		  "duration": 0.09375,
		  "durationTicks": 96,
		  "midi": 43,
		  "name": "G2",
		  "ticks": 128231,
		  "time": 125.2255859375,
		  "velocity": 0.3937007874015748
		},
		{
		  "duration": 0.09375,
		  "durationTicks": 96,
		  "midi": 75,
		  "name": "D#5",
		  "ticks": 128247,
		  "time": 125.2412109375,
		  "velocity": 0.3937007874015748
		},
		{
		  "duration": 0.09375,
		  "durationTicks": 96,
		  "midi": 70,
		  "name": "A#4",
		  "ticks": 128343,
		  "time": 125.3349609375,
		  "velocity": 0.3937007874015748
		},
		{
		  "duration": 0.09375,
		  "durationTicks": 96,
		  "midi": 51,
		  "name": "D#3",
		  "ticks": 128423,
		  "time": 125.4130859375,
		  "velocity": 0.3937007874015748
		},
		{
		  "duration": 0.09375,
		  "durationTicks": 96,
		  "midi": 73,
		  "name": "C#5",
		  "ticks": 128435,
		  "time": 125.4248046875,
		  "velocity": 0.3937007874015748
		},
		{
		  "duration": 0.09375,
		  "durationTicks": 96,
		  "midi": 75,
		  "name": "D#5",
		  "ticks": 128531,
		  "time": 125.5185546875,
		  "velocity": 0.3937007874015748
		},
		{
		  "duration": 0.09375,
		  "durationTicks": 96,
		  "midi": 43,
		  "name": "G2",
		  "ticks": 128618,
		  "time": 125.603515625,
		  "velocity": 0.3937007874015748
		},
		{
		  "duration": 0.09375,
		  "durationTicks": 96,
		  "midi": 82,
		  "name": "A#5",
		  "ticks": 128627,
		  "time": 125.6123046875,
		  "velocity": 0.3937007874015748
		},
		{
		  "duration": 0.09375,
		  "durationTicks": 96,
		  "midi": 73,
		  "name": "C#5",
		  "ticks": 128723,
		  "time": 125.7060546875,
		  "velocity": 0.3937007874015748
		},
		{
		  "duration": 0.09375,
		  "durationTicks": 96,
		  "midi": 51,
		  "name": "D#3",
		  "ticks": 128810,
		  "time": 125.791015625,
		  "velocity": 0.3937007874015748
		},
		{
		  "duration": 0.09375,
		  "durationTicks": 96,
		  "midi": 75,
		  "name": "D#5",
		  "ticks": 128819,
		  "time": 125.7998046875,
		  "velocity": 0.3937007874015748
		},
		{
		  "duration": 0.09375,
		  "durationTicks": 96,
		  "midi": 82,
		  "name": "A#5",
		  "ticks": 128915,
		  "time": 125.8935546875,
		  "velocity": 0.3937007874015748
		},
		{
		  "duration": 0.09375,
		  "durationTicks": 96,
		  "midi": 43,
		  "name": "G2",
		  "ticks": 128999,
		  "time": 125.9755859375,
		  "velocity": 0.3937007874015748
		},
		{
		  "duration": 0.09375,
		  "durationTicks": 96,
		  "midi": 85,
		  "name": "C#6",
		  "ticks": 129011,
		  "time": 125.9873046875,
		  "velocity": 0.3937007874015748
		},
		{
		  "duration": 0.09375,
		  "durationTicks": 96,
		  "midi": 82,
		  "name": "A#5",
		  "ticks": 129107,
		  "time": 126.0810546875,
		  "velocity": 0.3937007874015748
		},
		{
		  "duration": 0.09375,
		  "durationTicks": 96,
		  "midi": 51,
		  "name": "D#3",
		  "ticks": 129191,
		  "time": 126.1630859375,
		  "velocity": 0.3937007874015748
		},
		{
		  "duration": 0.09375,
		  "durationTicks": 96,
		  "midi": 75,
		  "name": "D#5",
		  "ticks": 129207,
		  "time": 126.1787109375,
		  "velocity": 0.3937007874015748
		},
		{
		  "duration": 0.09375,
		  "durationTicks": 96,
		  "midi": 73,
		  "name": "C#5",
		  "ticks": 129303,
		  "time": 126.2724609375,
		  "velocity": 0.3937007874015748
		},
		{
		  "duration": 0.09375,
		  "durationTicks": 96,
		  "midi": 43,
		  "name": "G2",
		  "ticks": 129383,
		  "time": 126.3505859375,
		  "velocity": 0.3937007874015748
		},
		{
		  "duration": 0.09375,
		  "durationTicks": 96,
		  "midi": 82,
		  "name": "A#5",
		  "ticks": 129399,
		  "time": 126.3662109375,
		  "velocity": 0.3937007874015748
		},
		{
		  "duration": 0.0947265625,
		  "durationTicks": 97,
		  "midi": 75,
		  "name": "D#5",
		  "ticks": 129491,
		  "time": 126.4560546875,
		  "velocity": 0.3937007874015748
		},
		{
		  "duration": 0.09375,
		  "durationTicks": 96,
		  "midi": 51,
		  "name": "D#3",
		  "ticks": 129579,
		  "time": 126.5419921875,
		  "velocity": 0.3937007874015748
		},
		{
		  "duration": 0.09375,
		  "durationTicks": 96,
		  "midi": 73,
		  "name": "C#5",
		  "ticks": 129588,
		  "time": 126.55078125,
		  "velocity": 0.3937007874015748
		},
		{
		  "duration": 0.09375,
		  "durationTicks": 96,
		  "midi": 70,
		  "name": "A#4",
		  "ticks": 129684,
		  "time": 126.64453125,
		  "velocity": 0.3937007874015748
		},
		{
		  "duration": 0.09375,
		  "durationTicks": 96,
		  "midi": 44,
		  "name": "G#2",
		  "ticks": 129764,
		  "time": 126.72265625,
		  "velocity": 0.3937007874015748
		},
		{
		  "duration": 0.28125,
		  "durationTicks": 288,
		  "midi": 71,
		  "name": "B4",
		  "ticks": 129780,
		  "time": 126.73828125,
		  "velocity": 0.3937007874015748
		},
		{
		  "duration": 0.09375,
		  "durationTicks": 96,
		  "midi": 51,
		  "name": "D#3",
		  "ticks": 129872,
		  "time": 126.828125,
		  "velocity": 0.3937007874015748
		},
		{
		  "duration": 0.09375,
		  "durationTicks": 96,
		  "midi": 47,
		  "name": "B2",
		  "ticks": 129968,
		  "time": 126.921875,
		  "velocity": 0.3937007874015748
		},
		{
		  "duration": 0.09375,
		  "durationTicks": 96,
		  "midi": 51,
		  "name": "D#3",
		  "ticks": 130064,
		  "time": 127.015625,
		  "velocity": 0.3937007874015748
		},
		{
		  "duration": 0.75,
		  "durationTicks": 768,
		  "midi": 75,
		  "name": "D#5",
		  "ticks": 130148,
		  "time": 127.09765625,
		  "velocity": 0.3937007874015748
		},
		{
		  "duration": 0.09375,
		  "durationTicks": 96,
		  "midi": 44,
		  "name": "G#2",
		  "ticks": 130160,
		  "time": 127.109375,
		  "velocity": 0.3937007874015748
		},
		{
		  "duration": 0.09375,
		  "durationTicks": 96,
		  "midi": 51,
		  "name": "D#3",
		  "ticks": 130256,
		  "time": 127.203125,
		  "velocity": 0.3937007874015748
		},
		{
		  "duration": 0.09375,
		  "durationTicks": 96,
		  "midi": 47,
		  "name": "B2",
		  "ticks": 130356,
		  "time": 127.30078125,
		  "velocity": 0.3937007874015748
		},
		{
		  "duration": 0.09375,
		  "durationTicks": 96,
		  "midi": 51,
		  "name": "D#3",
		  "ticks": 130452,
		  "time": 127.39453125,
		  "velocity": 0.3937007874015748
		},
		{
		  "duration": 0.09375,
		  "durationTicks": 96,
		  "midi": 44,
		  "name": "G#2",
		  "ticks": 130548,
		  "time": 127.48828125,
		  "velocity": 0.3937007874015748
		},
		{
		  "duration": 0.09375,
		  "durationTicks": 96,
		  "midi": 51,
		  "name": "D#3",
		  "ticks": 130640,
		  "time": 127.578125,
		  "velocity": 0.3937007874015748
		},
		{
		  "duration": 0.09375,
		  "durationTicks": 96,
		  "midi": 47,
		  "name": "B2",
		  "ticks": 130736,
		  "time": 127.671875,
		  "velocity": 0.3937007874015748
		},
		{
		  "duration": 0.09375,
		  "durationTicks": 96,
		  "midi": 51,
		  "name": "D#3",
		  "ticks": 130832,
		  "time": 127.765625,
		  "velocity": 0.3937007874015748
		},
		{
		  "duration": 0.09375,
		  "durationTicks": 96,
		  "midi": 44,
		  "name": "G#2",
		  "ticks": 130928,
		  "time": 127.859375,
		  "velocity": 0.3937007874015748
		},
		{
		  "duration": 0.28125,
		  "durationTicks": 288,
		  "midi": 71,
		  "name": "B4",
		  "ticks": 130936,
		  "time": 127.8671875,
		  "velocity": 0.3937007874015748
		},
		{
		  "duration": 0.09375,
		  "durationTicks": 96,
		  "midi": 51,
		  "name": "D#3",
		  "ticks": 131024,
		  "time": 127.953125,
		  "velocity": 0.3937007874015748
		},
		{
		  "duration": 0.09375,
		  "durationTicks": 96,
		  "midi": 47,
		  "name": "B2",
		  "ticks": 131120,
		  "time": 128.046875,
		  "velocity": 0.3937007874015748
		},
		{
		  "duration": 0.09375,
		  "durationTicks": 96,
		  "midi": 51,
		  "name": "D#3",
		  "ticks": 131216,
		  "time": 128.140625,
		  "velocity": 0.3937007874015748
		},
		{
		  "duration": 0.09375,
		  "durationTicks": 96,
		  "midi": 68,
		  "name": "G#4",
		  "ticks": 131224,
		  "time": 128.1484375,
		  "velocity": 0.3937007874015748
		},
		{
		  "duration": 0.09375,
		  "durationTicks": 96,
		  "midi": 46,
		  "name": "A#2",
		  "ticks": 131312,
		  "time": 128.234375,
		  "velocity": 0.3937007874015748
		},
		{
		  "duration": 0.09375,
		  "durationTicks": 96,
		  "midi": 51,
		  "name": "D#3",
		  "ticks": 131412,
		  "time": 128.33203125,
		  "velocity": 0.3937007874015748
		},
		{
		  "duration": 0.28125,
		  "durationTicks": 288,
		  "midi": 68,
		  "name": "G#4",
		  "ticks": 131440,
		  "time": 128.359375,
		  "velocity": 0.3937007874015748
		},
		{
		  "duration": 0.09375,
		  "durationTicks": 96,
		  "midi": 49,
		  "name": "C#3",
		  "ticks": 131508,
		  "time": 128.42578125,
		  "velocity": 0.3937007874015748
		},
		{
		  "duration": 0.09375,
		  "durationTicks": 96,
		  "midi": 51,
		  "name": "D#3",
		  "ticks": 131604,
		  "time": 128.51953125,
		  "velocity": 0.3937007874015748
		},
		{
		  "duration": 0.5625,
		  "durationTicks": 576,
		  "midi": 67,
		  "name": "G4",
		  "ticks": 131700,
		  "time": 128.61328125,
		  "velocity": 0.3937007874015748
		},
		{
		  "duration": 0.09375,
		  "durationTicks": 96,
		  "midi": 46,
		  "name": "A#2",
		  "ticks": 131700,
		  "time": 128.61328125,
		  "velocity": 0.3937007874015748
		},
		{
		  "duration": 0.09375,
		  "durationTicks": 96,
		  "midi": 51,
		  "name": "D#3",
		  "ticks": 131792,
		  "time": 128.703125,
		  "velocity": 0.3937007874015748
		},
		{
		  "duration": 0.09375,
		  "durationTicks": 96,
		  "midi": 49,
		  "name": "C#3",
		  "ticks": 131888,
		  "time": 128.796875,
		  "velocity": 0.3937007874015748
		},
		{
		  "duration": 0.09375,
		  "durationTicks": 96,
		  "midi": 51,
		  "name": "D#3",
		  "ticks": 131984,
		  "time": 128.890625,
		  "velocity": 0.3937007874015748
		},
		{
		  "duration": 0.09375,
		  "durationTicks": 96,
		  "midi": 46,
		  "name": "A#2",
		  "ticks": 132080,
		  "time": 128.984375,
		  "velocity": 0.3937007874015748
		},
		{
		  "duration": 0.09375,
		  "durationTicks": 96,
		  "midi": 51,
		  "name": "D#3",
		  "ticks": 132176,
		  "time": 129.078125,
		  "velocity": 0.3937007874015748
		},
		{
		  "duration": 0.09375,
		  "durationTicks": 96,
		  "midi": 49,
		  "name": "C#3",
		  "ticks": 132272,
		  "time": 129.171875,
		  "velocity": 0.3937007874015748
		},
		{
		  "duration": 0.1875,
		  "durationTicks": 192,
		  "midi": 67,
		  "name": "G4",
		  "ticks": 132276,
		  "time": 129.17578125,
		  "velocity": 0.3937007874015748
		},
		{
		  "duration": 0.09375,
		  "durationTicks": 96,
		  "midi": 51,
		  "name": "D#3",
		  "ticks": 132368,
		  "time": 129.265625,
		  "velocity": 0.3937007874015748
		},
		{
		  "duration": 0.28125,
		  "durationTicks": 288,
		  "midi": 75,
		  "name": "D#5",
		  "ticks": 132468,
		  "time": 129.36328125,
		  "velocity": 0.3937007874015748
		},
		{
		  "duration": 0.09375,
		  "durationTicks": 96,
		  "midi": 46,
		  "name": "A#2",
		  "ticks": 132468,
		  "time": 129.36328125,
		  "velocity": 0.3937007874015748
		},
		{
		  "duration": 0.09375,
		  "durationTicks": 96,
		  "midi": 51,
		  "name": "D#3",
		  "ticks": 132564,
		  "time": 129.45703125,
		  "velocity": 0.3937007874015748
		},
		{
		  "duration": 0.09375,
		  "durationTicks": 96,
		  "midi": 49,
		  "name": "C#3",
		  "ticks": 132660,
		  "time": 129.55078125,
		  "velocity": 0.3937007874015748
		},
		{
		  "duration": 0.09375,
		  "durationTicks": 96,
		  "midi": 67,
		  "name": "G4",
		  "ticks": 132756,
		  "time": 129.64453125,
		  "velocity": 0.3937007874015748
		},
		{
		  "duration": 0.09375,
		  "durationTicks": 96,
		  "midi": 51,
		  "name": "D#3",
		  "ticks": 132756,
		  "time": 129.64453125,
		  "velocity": 0.3937007874015748
		},
		{
		  "duration": 0.09375,
		  "durationTicks": 96,
		  "midi": 47,
		  "name": "B2",
		  "ticks": 132848,
		  "time": 129.734375,
		  "velocity": 0.3937007874015748
		},
		{
		  "duration": 0.375,
		  "durationTicks": 384,
		  "midi": 70,
		  "name": "A#4",
		  "ticks": 132852,
		  "time": 129.73828125,
		  "velocity": 0.3937007874015748
		},
		{
		  "duration": 0.09375,
		  "durationTicks": 96,
		  "midi": 51,
		  "name": "D#3",
		  "ticks": 132944,
		  "time": 129.828125,
		  "velocity": 0.3937007874015748
		},
		{
		  "duration": 0.09375,
		  "durationTicks": 96,
		  "midi": 47,
		  "name": "B2",
		  "ticks": 133040,
		  "time": 129.921875,
		  "velocity": 0.3937007874015748
		},
		{
		  "duration": 0.09375,
		  "durationTicks": 96,
		  "midi": 51,
		  "name": "D#3",
		  "ticks": 133136,
		  "time": 130.015625,
		  "velocity": 0.3937007874015748
		},
		{
		  "duration": 0.09375,
		  "durationTicks": 96,
		  "midi": 47,
		  "name": "B2",
		  "ticks": 133232,
		  "time": 130.109375,
		  "velocity": 0.3937007874015748
		},
		{
		  "duration": 0.5625,
		  "durationTicks": 576,
		  "midi": 68,
		  "name": "G#4",
		  "ticks": 133236,
		  "time": 130.11328125,
		  "velocity": 0.3937007874015748
		},
		{
		  "duration": 0.09375,
		  "durationTicks": 96,
		  "midi": 51,
		  "name": "D#3",
		  "ticks": 133328,
		  "time": 130.203125,
		  "velocity": 0.3937007874015748
		},
		{
		  "duration": 0.09375,
		  "durationTicks": 96,
		  "midi": 47,
		  "name": "B2",
		  "ticks": 133424,
		  "time": 130.296875,
		  "velocity": 0.3937007874015748
		},
		{
		  "duration": 0.09375,
		  "durationTicks": 96,
		  "midi": 51,
		  "name": "D#3",
		  "ticks": 133520,
		  "time": 130.390625,
		  "velocity": 0.3937007874015748
		},
		{
		  "duration": 0.09375,
		  "durationTicks": 96,
		  "midi": 47,
		  "name": "B2",
		  "ticks": 133620,
		  "time": 130.48828125,
		  "velocity": 0.3937007874015748
		},
		{
		  "duration": 0.09375,
		  "durationTicks": 96,
		  "midi": 51,
		  "name": "D#3",
		  "ticks": 133716,
		  "time": 130.58203125,
		  "velocity": 0.3937007874015748
		},
		{
		  "duration": 0.1875,
		  "durationTicks": 192,
		  "midi": 68,
		  "name": "G#4",
		  "ticks": 133812,
		  "time": 130.67578125,
		  "velocity": 0.3937007874015748
		},
		{
		  "duration": 0.09375,
		  "durationTicks": 96,
		  "midi": 47,
		  "name": "B2",
		  "ticks": 133812,
		  "time": 130.67578125,
		  "velocity": 0.3937007874015748
		},
		{
		  "duration": 0.09375,
		  "durationTicks": 96,
		  "midi": 51,
		  "name": "D#3",
		  "ticks": 133904,
		  "time": 130.765625,
		  "velocity": 0.3937007874015748
		},
		{
		  "duration": 0.09375,
		  "durationTicks": 96,
		  "midi": 47,
		  "name": "B2",
		  "ticks": 134000,
		  "time": 130.859375,
		  "velocity": 0.3937007874015748
		},
		{
		  "duration": 0.28125,
		  "durationTicks": 288,
		  "midi": 75,
		  "name": "D#5",
		  "ticks": 134004,
		  "time": 130.86328125,
		  "velocity": 0.3937007874015748
		},
		{
		  "duration": 0.09375,
		  "durationTicks": 96,
		  "midi": 51,
		  "name": "D#3",
		  "ticks": 134096,
		  "time": 130.953125,
		  "velocity": 0.3937007874015748
		},
		{
		  "duration": 0.09375,
		  "durationTicks": 96,
		  "midi": 47,
		  "name": "B2",
		  "ticks": 134192,
		  "time": 131.046875,
		  "velocity": 0.3937007874015748
		},
		{
		  "duration": 0.09375,
		  "durationTicks": 96,
		  "midi": 51,
		  "name": "D#3",
		  "ticks": 134288,
		  "time": 131.140625,
		  "velocity": 0.3937007874015748
		},
		{
		  "duration": 0.09375,
		  "durationTicks": 96,
		  "midi": 68,
		  "name": "G#4",
		  "ticks": 134292,
		  "time": 131.14453125,
		  "velocity": 0.3937007874015748
		},
		{
		  "duration": 0.09375,
		  "durationTicks": 96,
		  "midi": 43,
		  "name": "G2",
		  "ticks": 134384,
		  "time": 131.234375,
		  "velocity": 0.3937007874015748
		},
		{
		  "duration": 0.375,
		  "durationTicks": 384,
		  "midi": 71,
		  "name": "B4",
		  "ticks": 134388,
		  "time": 131.23828125,
		  "velocity": 0.3937007874015748
		},
		{
		  "duration": 0.09375,
		  "durationTicks": 96,
		  "midi": 51,
		  "name": "D#3",
		  "ticks": 134480,
		  "time": 131.328125,
		  "velocity": 0.3937007874015748
		},
		{
		  "duration": 0.09375,
		  "durationTicks": 96,
		  "midi": 43,
		  "name": "G2",
		  "ticks": 134576,
		  "time": 131.421875,
		  "velocity": 0.3937007874015748
		},
		{
		  "duration": 0.09375,
		  "durationTicks": 96,
		  "midi": 51,
		  "name": "D#3",
		  "ticks": 134676,
		  "time": 131.51953125,
		  "velocity": 0.3937007874015748
		},
		{
		  "duration": 0.5625,
		  "durationTicks": 576,
		  "midi": 70,
		  "name": "A#4",
		  "ticks": 134772,
		  "time": 131.61328125,
		  "velocity": 0.3937007874015748
		},
		{
		  "duration": 0.09375,
		  "durationTicks": 96,
		  "midi": 43,
		  "name": "G2",
		  "ticks": 134772,
		  "time": 131.61328125,
		  "velocity": 0.3937007874015748
		},
		{
		  "duration": 0.09375,
		  "durationTicks": 96,
		  "midi": 51,
		  "name": "D#3",
		  "ticks": 134868,
		  "time": 131.70703125,
		  "velocity": 0.3937007874015748
		},
		{
		  "duration": 0.09375,
		  "durationTicks": 96,
		  "midi": 43,
		  "name": "G2",
		  "ticks": 134960,
		  "time": 131.796875,
		  "velocity": 0.3937007874015748
		},
		{
		  "duration": 0.09375,
		  "durationTicks": 96,
		  "midi": 51,
		  "name": "D#3",
		  "ticks": 135056,
		  "time": 131.890625,
		  "velocity": 0.3937007874015748
		},
		{
		  "duration": 0.09375,
		  "durationTicks": 96,
		  "midi": 43,
		  "name": "G2",
		  "ticks": 135152,
		  "time": 131.984375,
		  "velocity": 0.3937007874015748
		},
		{
		  "duration": 0.09375,
		  "durationTicks": 96,
		  "midi": 51,
		  "name": "D#3",
		  "ticks": 135248,
		  "time": 132.078125,
		  "velocity": 0.3937007874015748
		},
		{
		  "duration": 0.09375,
		  "durationTicks": 96,
		  "midi": 43,
		  "name": "G2",
		  "ticks": 135344,
		  "time": 132.171875,
		  "velocity": 0.3937007874015748
		},
		{
		  "duration": 0.1875,
		  "durationTicks": 192,
		  "midi": 70,
		  "name": "A#4",
		  "ticks": 135348,
		  "time": 132.17578125,
		  "velocity": 0.3937007874015748
		},
		{
		  "duration": 0.09375,
		  "durationTicks": 96,
		  "midi": 51,
		  "name": "D#3",
		  "ticks": 135440,
		  "time": 132.265625,
		  "velocity": 0.3937007874015748
		},
		{
		  "duration": 0.09375,
		  "durationTicks": 96,
		  "midi": 43,
		  "name": "G2",
		  "ticks": 135536,
		  "time": 132.359375,
		  "velocity": 0.3937007874015748
		},
		{
		  "duration": 0.28125,
		  "durationTicks": 288,
		  "midi": 75,
		  "name": "D#5",
		  "ticks": 135540,
		  "time": 132.36328125,
		  "velocity": 0.3937007874015748
		},
		{
		  "duration": 0.09375,
		  "durationTicks": 96,
		  "midi": 51,
		  "name": "D#3",
		  "ticks": 135632,
		  "time": 132.453125,
		  "velocity": 0.3937007874015748
		},
		{
		  "duration": 0.09375,
		  "durationTicks": 96,
		  "midi": 43,
		  "name": "G2",
		  "ticks": 135732,
		  "time": 132.55078125,
		  "velocity": 0.3937007874015748
		},
		{
		  "duration": 0.09375,
		  "durationTicks": 96,
		  "midi": 70,
		  "name": "A#4",
		  "ticks": 135828,
		  "time": 132.64453125,
		  "velocity": 0.3937007874015748
		},
		{
		  "duration": 0.09375,
		  "durationTicks": 96,
		  "midi": 51,
		  "name": "D#3",
		  "ticks": 135828,
		  "time": 132.64453125,
		  "velocity": 0.3937007874015748
		},
		{
		  "duration": 0.1875,
		  "durationTicks": 192,
		  "midi": 71,
		  "name": "B4",
		  "ticks": 135924,
		  "time": 132.73828125,
		  "velocity": 0.3937007874015748
		},
		{
		  "duration": 0.09375,
		  "durationTicks": 96,
		  "midi": 44,
		  "name": "G#2",
		  "ticks": 135924,
		  "time": 132.73828125,
		  "velocity": 0.3937007874015748
		},
		{
		  "duration": 0.09375,
		  "durationTicks": 96,
		  "midi": 51,
		  "name": "D#3",
		  "ticks": 136016,
		  "time": 132.828125,
		  "velocity": 0.3937007874015748
		},
		{
		  "duration": 0.375,
		  "durationTicks": 384,
		  "midi": 87,
		  "name": "D#6",
		  "ticks": 136100,
		  "time": 132.91015625,
		  "velocity": 0.3937007874015748
		},
		{
		  "duration": 0.375,
		  "durationTicks": 384,
		  "midi": 75,
		  "name": "D#5",
		  "ticks": 136100,
		  "time": 132.91015625,
		  "velocity": 0.3937007874015748
		},
		{
		  "duration": 0.09375,
		  "durationTicks": 96,
		  "midi": 47,
		  "name": "B2",
		  "ticks": 136112,
		  "time": 132.921875,
		  "velocity": 0.3937007874015748
		},
		{
		  "duration": 0.09375,
		  "durationTicks": 96,
		  "midi": 51,
		  "name": "D#3",
		  "ticks": 136208,
		  "time": 133.015625,
		  "velocity": 0.3937007874015748
		},
		{
		  "duration": 0.09375,
		  "durationTicks": 96,
		  "midi": 44,
		  "name": "G#2",
		  "ticks": 136304,
		  "time": 133.109375,
		  "velocity": 0.3937007874015748
		},
		{
		  "duration": 0.09375,
		  "durationTicks": 96,
		  "midi": 51,
		  "name": "D#3",
		  "ticks": 136400,
		  "time": 133.203125,
		  "velocity": 0.3937007874015748
		},
		{
		  "duration": 0.09375,
		  "durationTicks": 96,
		  "midi": 47,
		  "name": "B2",
		  "ticks": 136496,
		  "time": 133.296875,
		  "velocity": 0.3937007874015748
		},
		{
		  "duration": 0.375,
		  "durationTicks": 384,
		  "midi": 75,
		  "name": "D#5",
		  "ticks": 136500,
		  "time": 133.30078125,
		  "velocity": 0.3937007874015748
		},
		{
		  "duration": 0.375,
		  "durationTicks": 384,
		  "midi": 87,
		  "name": "D#6",
		  "ticks": 136500,
		  "time": 133.30078125,
		  "velocity": 0.3937007874015748
		},
		{
		  "duration": 0.09375,
		  "durationTicks": 96,
		  "midi": 51,
		  "name": "D#3",
		  "ticks": 136592,
		  "time": 133.390625,
		  "velocity": 0.3937007874015748
		},
		{
		  "duration": 0.09375,
		  "durationTicks": 96,
		  "midi": 44,
		  "name": "G#2",
		  "ticks": 136688,
		  "time": 133.484375,
		  "velocity": 0.3937007874015748
		},
		{
		  "duration": 0.09375,
		  "durationTicks": 96,
		  "midi": 51,
		  "name": "D#3",
		  "ticks": 136784,
		  "time": 133.578125,
		  "velocity": 0.3937007874015748
		},
		{
		  "duration": 0.1875,
		  "durationTicks": 192,
		  "midi": 87,
		  "name": "D#6",
		  "ticks": 136884,
		  "time": 133.67578125,
		  "velocity": 0.3937007874015748
		},
		{
		  "duration": 0.1875,
		  "durationTicks": 192,
		  "midi": 75,
		  "name": "D#5",
		  "ticks": 136884,
		  "time": 133.67578125,
		  "velocity": 0.3937007874015748
		},
		{
		  "duration": 0.09375,
		  "durationTicks": 96,
		  "midi": 47,
		  "name": "B2",
		  "ticks": 136884,
		  "time": 133.67578125,
		  "velocity": 0.3937007874015748
		},
		{
		  "duration": 0.09375,
		  "durationTicks": 96,
		  "midi": 51,
		  "name": "D#3",
		  "ticks": 136980,
		  "time": 133.76953125,
		  "velocity": 0.3937007874015748
		},
		{
		  "duration": 0.09375,
		  "durationTicks": 96,
		  "midi": 71,
		  "name": "B4",
		  "ticks": 137060,
		  "time": 133.84765625,
		  "velocity": 0.3937007874015748
		},
		{
		  "duration": 0.09375,
		  "durationTicks": 96,
		  "midi": 83,
		  "name": "B5",
		  "ticks": 137060,
		  "time": 133.84765625,
		  "velocity": 0.3937007874015748
		},
		{
		  "duration": 0.09375,
		  "durationTicks": 96,
		  "midi": 44,
		  "name": "G#2",
		  "ticks": 137076,
		  "time": 133.86328125,
		  "velocity": 0.3937007874015748
		},
		{
		  "duration": 0.09375,
		  "durationTicks": 96,
		  "midi": 51,
		  "name": "D#3",
		  "ticks": 137168,
		  "time": 133.953125,
		  "velocity": 0.3937007874015748
		},
		{
		  "duration": 0.09375,
		  "durationTicks": 96,
		  "midi": 80,
		  "name": "G#5",
		  "ticks": 137252,
		  "time": 134.03515625,
		  "velocity": 0.3937007874015748
		},
		{
		  "duration": 0.09375,
		  "durationTicks": 96,
		  "midi": 68,
		  "name": "G#4",
		  "ticks": 137252,
		  "time": 134.03515625,
		  "velocity": 0.3937007874015748
		},
		{
		  "duration": 0.09375,
		  "durationTicks": 96,
		  "midi": 47,
		  "name": "B2",
		  "ticks": 137264,
		  "time": 134.046875,
		  "velocity": 0.3937007874015748
		},
		{
		  "duration": 0.09375,
		  "durationTicks": 96,
		  "midi": 51,
		  "name": "D#3",
		  "ticks": 137360,
		  "time": 134.140625,
		  "velocity": 0.3937007874015748
		},
		{
		  "duration": 0.09375,
		  "durationTicks": 96,
		  "midi": 80,
		  "name": "G#5",
		  "ticks": 137444,
		  "time": 134.22265625,
		  "velocity": 0.3937007874015748
		},
		{
		  "duration": 0.09375,
		  "durationTicks": 96,
		  "midi": 68,
		  "name": "G#4",
		  "ticks": 137444,
		  "time": 134.22265625,
		  "velocity": 0.3937007874015748
		},
		{
		  "duration": 0.09375,
		  "durationTicks": 96,
		  "midi": 46,
		  "name": "A#2",
		  "ticks": 137456,
		  "time": 134.234375,
		  "velocity": 0.3937007874015748
		},
		{
		  "duration": 0.09375,
		  "durationTicks": 96,
		  "midi": 51,
		  "name": "D#3",
		  "ticks": 137552,
		  "time": 134.328125,
		  "velocity": 0.3937007874015748
		},
		{
		  "duration": 0.375,
		  "durationTicks": 384,
		  "midi": 67,
		  "name": "G4",
		  "ticks": 137636,
		  "time": 134.41015625,
		  "velocity": 0.3937007874015748
		},
		{
		  "duration": 0.375,
		  "durationTicks": 384,
		  "midi": 79,
		  "name": "G5",
		  "ticks": 137636,
		  "time": 134.41015625,
		  "velocity": 0.3937007874015748
		},
		{
		  "duration": 0.09375,
		  "durationTicks": 96,
		  "midi": 49,
		  "name": "C#3",
		  "ticks": 137648,
		  "time": 134.421875,
		  "velocity": 0.3937007874015748
		},
		{
		  "duration": 0.09375,
		  "durationTicks": 96,
		  "midi": 51,
		  "name": "D#3",
		  "ticks": 137744,
		  "time": 134.515625,
		  "velocity": 0.3937007874015748
		},
		{
		  "duration": 0.09375,
		  "durationTicks": 96,
		  "midi": 46,
		  "name": "A#2",
		  "ticks": 137840,
		  "time": 134.609375,
		  "velocity": 0.3937007874015748
		},
		{
		  "duration": 0.09375,
		  "durationTicks": 96,
		  "midi": 51,
		  "name": "D#3",
		  "ticks": 137940,
		  "time": 134.70703125,
		  "velocity": 0.3937007874015748
		},
		{
		  "duration": 0.375,
		  "durationTicks": 384,
		  "midi": 79,
		  "name": "G5",
		  "ticks": 138036,
		  "time": 134.80078125,
		  "velocity": 0.3937007874015748
		},
		{
		  "duration": 0.375,
		  "durationTicks": 384,
		  "midi": 67,
		  "name": "G4",
		  "ticks": 138036,
		  "time": 134.80078125,
		  "velocity": 0.3937007874015748
		},
		{
		  "duration": 0.09375,
		  "durationTicks": 96,
		  "midi": 49,
		  "name": "C#3",
		  "ticks": 138036,
		  "time": 134.80078125,
		  "velocity": 0.3937007874015748
		},
		{
		  "duration": 0.09375,
		  "durationTicks": 96,
		  "midi": 51,
		  "name": "D#3",
		  "ticks": 138132,
		  "time": 134.89453125,
		  "velocity": 0.3937007874015748
		},
		{
		  "duration": 0.09375,
		  "durationTicks": 96,
		  "midi": 46,
		  "name": "A#2",
		  "ticks": 138224,
		  "time": 134.984375,
		  "velocity": 0.3937007874015748
		},
		{
		  "duration": 0.09375,
		  "durationTicks": 96,
		  "midi": 51,
		  "name": "D#3",
		  "ticks": 138320,
		  "time": 135.078125,
		  "velocity": 0.3937007874015748
		},
		{
		  "duration": 0.09375,
		  "durationTicks": 96,
		  "midi": 49,
		  "name": "C#3",
		  "ticks": 138416,
		  "time": 135.171875,
		  "velocity": 0.3937007874015748
		},
		{
		  "duration": 0.1884765625,
		  "durationTicks": 193,
		  "midi": 67,
		  "name": "G4",
		  "ticks": 138420,
		  "time": 135.17578125,
		  "velocity": 0.3937007874015748
		},
		{
		  "duration": 0.1884765625,
		  "durationTicks": 193,
		  "midi": 79,
		  "name": "G5",
		  "ticks": 138420,
		  "time": 135.17578125,
		  "velocity": 0.3937007874015748
		},
		{
		  "duration": 0.0947265625,
		  "durationTicks": 97,
		  "midi": 51,
		  "name": "D#3",
		  "ticks": 138512,
		  "time": 135.265625,
		  "velocity": 0.3937007874015748
		},
		{
		  "duration": 0.0947265625,
		  "durationTicks": 97,
		  "midi": 87,
		  "name": "D#6",
		  "ticks": 138596,
		  "time": 135.34765625,
		  "velocity": 0.3937007874015748
		},
		{
		  "duration": 0.0947265625,
		  "durationTicks": 97,
		  "midi": 75,
		  "name": "D#5",
		  "ticks": 138600,
		  "time": 135.3515625,
		  "velocity": 0.3937007874015748
		},
		{
		  "duration": 0.0947265625,
		  "durationTicks": 97,
		  "midi": 46,
		  "name": "A#2",
		  "ticks": 138609,
		  "time": 135.3603515625,
		  "velocity": 0.3937007874015748
		},
		{
		  "duration": 0.09375,
		  "durationTicks": 96,
		  "midi": 51,
		  "name": "D#3",
		  "ticks": 138706,
		  "time": 135.455078125,
		  "velocity": 0.3937007874015748
		},
		{
		  "duration": 0.09375,
		  "durationTicks": 96,
		  "midi": 67,
		  "name": "G4",
		  "ticks": 138790,
		  "time": 135.537109375,
		  "velocity": 0.3937007874015748
		},
		{
		  "duration": 0.09375,
		  "durationTicks": 96,
		  "midi": 79,
		  "name": "G5",
		  "ticks": 138790,
		  "time": 135.537109375,
		  "velocity": 0.3937007874015748
		},
		{
		  "duration": 0.09375,
		  "durationTicks": 96,
		  "midi": 49,
		  "name": "C#3",
		  "ticks": 138802,
		  "time": 135.548828125,
		  "velocity": 0.3937007874015748
		},
		{
		  "duration": 0.09375,
		  "durationTicks": 96,
		  "midi": 51,
		  "name": "D#3",
		  "ticks": 138898,
		  "time": 135.642578125,
		  "velocity": 0.3937007874015748
		},
		{
		  "duration": 0.09375,
		  "durationTicks": 96,
		  "midi": 70,
		  "name": "A#4",
		  "ticks": 138982,
		  "time": 135.724609375,
		  "velocity": 0.3937007874015748
		},
		{
		  "duration": 0.09375,
		  "durationTicks": 96,
		  "midi": 82,
		  "name": "A#5",
		  "ticks": 138982,
		  "time": 135.724609375,
		  "velocity": 0.3937007874015748
		},
		{
		  "duration": 0.09375,
		  "durationTicks": 96,
		  "midi": 47,
		  "name": "B2",
		  "ticks": 138998,
		  "time": 135.740234375,
		  "velocity": 0.3937007874015748
		},
		{
		  "duration": 0.09375,
		  "durationTicks": 96,
		  "midi": 51,
		  "name": "D#3",
		  "ticks": 139094,
		  "time": 135.833984375,
		  "velocity": 0.3937007874015748
		},
		{
		  "duration": 0.375,
		  "durationTicks": 384,
		  "midi": 68,
		  "name": "G#4",
		  "ticks": 139174,
		  "time": 135.912109375,
		  "velocity": 0.3937007874015748
		},
		{
		  "duration": 0.375,
		  "durationTicks": 384,
		  "midi": 80,
		  "name": "G#5",
		  "ticks": 139174,
		  "time": 135.912109375,
		  "velocity": 0.3937007874015748
		},
		{
		  "duration": 0.09375,
		  "durationTicks": 96,
		  "midi": 47,
		  "name": "B2",
		  "ticks": 139190,
		  "time": 135.927734375,
		  "velocity": 0.3937007874015748
		},
		{
		  "duration": 0.09375,
		  "durationTicks": 96,
		  "midi": 51,
		  "name": "D#3",
		  "ticks": 139282,
		  "time": 136.017578125,
		  "velocity": 0.3937007874015748
		},
		{
		  "duration": 0.09375,
		  "durationTicks": 96,
		  "midi": 47,
		  "name": "B2",
		  "ticks": 139378,
		  "time": 136.111328125,
		  "velocity": 0.3937007874015748
		},
		{
		  "duration": 0.09375,
		  "durationTicks": 96,
		  "midi": 51,
		  "name": "D#3",
		  "ticks": 139474,
		  "time": 136.205078125,
		  "velocity": 0.3937007874015748
		},
		{
		  "duration": 0.09375,
		  "durationTicks": 96,
		  "midi": 47,
		  "name": "B2",
		  "ticks": 139570,
		  "time": 136.298828125,
		  "velocity": 0.3937007874015748
		},
		{
		  "duration": 0.375,
		  "durationTicks": 384,
		  "midi": 68,
		  "name": "G#4",
		  "ticks": 139574,
		  "time": 136.302734375,
		  "velocity": 0.3937007874015748
		},
		{
		  "duration": 0.375,
		  "durationTicks": 384,
		  "midi": 80,
		  "name": "G#5",
		  "ticks": 139574,
		  "time": 136.302734375,
		  "velocity": 0.3937007874015748
		},
		{
		  "duration": 0.09375,
		  "durationTicks": 96,
		  "midi": 51,
		  "name": "D#3",
		  "ticks": 139666,
		  "time": 136.392578125,
		  "velocity": 0.3937007874015748
		},
		{
		  "duration": 0.09375,
		  "durationTicks": 96,
		  "midi": 47,
		  "name": "B2",
		  "ticks": 139762,
		  "time": 136.486328125,
		  "velocity": 0.3937007874015748
		},
		{
		  "duration": 0.09375,
		  "durationTicks": 96,
		  "midi": 51,
		  "name": "D#3",
		  "ticks": 139858,
		  "time": 136.580078125,
		  "velocity": 0.3937007874015748
		},
		{
		  "duration": 0.09375,
		  "durationTicks": 96,
		  "midi": 47,
		  "name": "B2",
		  "ticks": 139954,
		  "time": 136.673828125,
		  "velocity": 0.3937007874015748
		},
		{
		  "duration": 0.1875,
		  "durationTicks": 192,
		  "midi": 68,
		  "name": "G#4",
		  "ticks": 139958,
		  "time": 136.677734375,
		  "velocity": 0.3937007874015748
		},
		{
		  "duration": 0.1875,
		  "durationTicks": 192,
		  "midi": 80,
		  "name": "G#5",
		  "ticks": 139958,
		  "time": 136.677734375,
		  "velocity": 0.3937007874015748
		},
		{
		  "duration": 0.09375,
		  "durationTicks": 96,
		  "midi": 51,
		  "name": "D#3",
		  "ticks": 140050,
		  "time": 136.767578125,
		  "velocity": 0.3937007874015748
		},
		{
		  "duration": 0.09375,
		  "durationTicks": 96,
		  "midi": 87,
		  "name": "D#6",
		  "ticks": 140134,
		  "time": 136.849609375,
		  "velocity": 0.3937007874015748
		},
		{
		  "duration": 0.09375,
		  "durationTicks": 96,
		  "midi": 75,
		  "name": "D#5",
		  "ticks": 140134,
		  "time": 136.849609375,
		  "velocity": 0.3937007874015748
		},
		{
		  "duration": 0.09375,
		  "durationTicks": 96,
		  "midi": 47,
		  "name": "B2",
		  "ticks": 140150,
		  "time": 136.865234375,
		  "velocity": 0.3937007874015748
		},
		{
		  "duration": 0.09375,
		  "durationTicks": 96,
		  "midi": 51,
		  "name": "D#3",
		  "ticks": 140246,
		  "time": 136.958984375,
		  "velocity": 0.3937007874015748
		},
		{
		  "duration": 0.09375,
		  "durationTicks": 96,
		  "midi": 68,
		  "name": "G#4",
		  "ticks": 140326,
		  "time": 137.037109375,
		  "velocity": 0.3937007874015748
		},
		{
		  "duration": 0.09375,
		  "durationTicks": 96,
		  "midi": 80,
		  "name": "G#5",
		  "ticks": 140326,
		  "time": 137.037109375,
		  "velocity": 0.3937007874015748
		},
		{
		  "duration": 0.09375,
		  "durationTicks": 96,
		  "midi": 47,
		  "name": "B2",
		  "ticks": 140342,
		  "time": 137.052734375,
		  "velocity": 0.3937007874015748
		},
		{
		  "duration": 0.09375,
		  "durationTicks": 96,
		  "midi": 51,
		  "name": "D#3",
		  "ticks": 140434,
		  "time": 137.142578125,
		  "velocity": 0.3937007874015748
		},
		{
		  "duration": 0.09375,
		  "durationTicks": 96,
		  "midi": 71,
		  "name": "B4",
		  "ticks": 140518,
		  "time": 137.224609375,
		  "velocity": 0.3937007874015748
		},
		{
		  "duration": 0.09375,
		  "durationTicks": 96,
		  "midi": 83,
		  "name": "B5",
		  "ticks": 140518,
		  "time": 137.224609375,
		  "velocity": 0.3937007874015748
		},
		{
		  "duration": 0.09375,
		  "durationTicks": 96,
		  "midi": 43,
		  "name": "G2",
		  "ticks": 140530,
		  "time": 137.236328125,
		  "velocity": 0.3937007874015748
		},
		{
		  "duration": 0.09375,
		  "durationTicks": 96,
		  "midi": 51,
		  "name": "D#3",
		  "ticks": 140626,
		  "time": 137.330078125,
		  "velocity": 0.3937007874015748
		},
		{
		  "duration": 0.375,
		  "durationTicks": 384,
		  "midi": 70,
		  "name": "A#4",
		  "ticks": 140710,
		  "time": 137.412109375,
		  "velocity": 0.3937007874015748
		},
		{
		  "duration": 0.375,
		  "durationTicks": 384,
		  "midi": 82,
		  "name": "A#5",
		  "ticks": 140710,
		  "time": 137.412109375,
		  "velocity": 0.3937007874015748
		},
		{
		  "duration": 0.09375,
		  "durationTicks": 96,
		  "midi": 43,
		  "name": "G2",
		  "ticks": 140722,
		  "time": 137.423828125,
		  "velocity": 0.3937007874015748
		},
		{
		  "duration": 0.09375,
		  "durationTicks": 96,
		  "midi": 51,
		  "name": "D#3",
		  "ticks": 140818,
		  "time": 137.517578125,
		  "velocity": 0.3937007874015748
		},
		{
		  "duration": 0.09375,
		  "durationTicks": 96,
		  "midi": 43,
		  "name": "G2",
		  "ticks": 140914,
		  "time": 137.611328125,
		  "velocity": 0.3937007874015748
		},
		{
		  "duration": 0.09375,
		  "durationTicks": 96,
		  "midi": 51,
		  "name": "D#3",
		  "ticks": 141010,
		  "time": 137.705078125,
		  "velocity": 0.3937007874015748
		},
		{
		  "duration": 0.09375,
		  "durationTicks": 96,
		  "midi": 43,
		  "name": "G2",
		  "ticks": 141106,
		  "time": 137.798828125,
		  "velocity": 0.3937007874015748
		},
		{
		  "duration": 0.375,
		  "durationTicks": 384,
		  "midi": 70,
		  "name": "A#4",
		  "ticks": 141110,
		  "time": 137.802734375,
		  "velocity": 0.3937007874015748
		},
		{
		  "duration": 0.375,
		  "durationTicks": 384,
		  "midi": 82,
		  "name": "A#5",
		  "ticks": 141110,
		  "time": 137.802734375,
		  "velocity": 0.3937007874015748
		},
		{
		  "duration": 0.09375,
		  "durationTicks": 96,
		  "midi": 51,
		  "name": "D#3",
		  "ticks": 141206,
		  "time": 137.896484375,
		  "velocity": 0.3937007874015748
		},
		{
		  "duration": 0.09375,
		  "durationTicks": 96,
		  "midi": 43,
		  "name": "G2",
		  "ticks": 141302,
		  "time": 137.990234375,
		  "velocity": 0.3937007874015748
		},
		{
		  "duration": 0.09375,
		  "durationTicks": 96,
		  "midi": 51,
		  "name": "D#3",
		  "ticks": 141398,
		  "time": 138.083984375,
		  "velocity": 0.3937007874015748
		},
		{
		  "duration": 0.1875,
		  "durationTicks": 192,
		  "midi": 82,
		  "name": "A#5",
		  "ticks": 141494,
		  "time": 138.177734375,
		  "velocity": 0.3937007874015748
		},
		{
		  "duration": 0.09375,
		  "durationTicks": 96,
		  "midi": 43,
		  "name": "G2",
		  "ticks": 141494,
		  "time": 138.177734375,
		  "velocity": 0.3937007874015748
		},
		{
		  "duration": 0.1875,
		  "durationTicks": 192,
		  "midi": 70,
		  "name": "A#4",
		  "ticks": 141498,
		  "time": 138.181640625,
		  "velocity": 0.3937007874015748
		},
		{
		  "duration": 0.09375,
		  "durationTicks": 96,
		  "midi": 51,
		  "name": "D#3",
		  "ticks": 141586,
		  "time": 138.267578125,
		  "velocity": 0.3937007874015748
		},
		{
		  "duration": 0.09375,
		  "durationTicks": 96,
		  "midi": 75,
		  "name": "D#5",
		  "ticks": 141670,
		  "time": 138.349609375,
		  "velocity": 0.3937007874015748
		},
		{
		  "duration": 0.09375,
		  "durationTicks": 96,
		  "midi": 87,
		  "name": "D#6",
		  "ticks": 141670,
		  "time": 138.349609375,
		  "velocity": 0.3937007874015748
		},
		{
		  "duration": 0.09375,
		  "durationTicks": 96,
		  "midi": 43,
		  "name": "G2",
		  "ticks": 141682,
		  "time": 138.361328125,
		  "velocity": 0.3937007874015748
		},
		{
		  "duration": 0.09375,
		  "durationTicks": 96,
		  "midi": 51,
		  "name": "D#3",
		  "ticks": 141778,
		  "time": 138.455078125,
		  "velocity": 0.3937007874015748
		},
		{
		  "duration": 0.09375,
		  "durationTicks": 96,
		  "midi": 70,
		  "name": "A#4",
		  "ticks": 141862,
		  "time": 138.537109375,
		  "velocity": 0.3937007874015748
		},
		{
		  "duration": 0.09375,
		  "durationTicks": 96,
		  "midi": 82,
		  "name": "A#5",
		  "ticks": 141862,
		  "time": 138.537109375,
		  "velocity": 0.3937007874015748
		},
		{
		  "duration": 0.09375,
		  "durationTicks": 96,
		  "midi": 43,
		  "name": "G2",
		  "ticks": 141874,
		  "time": 138.548828125,
		  "velocity": 0.3937007874015748
		},
		{
		  "duration": 0.09375,
		  "durationTicks": 96,
		  "midi": 51,
		  "name": "D#3",
		  "ticks": 141970,
		  "time": 138.642578125,
		  "velocity": 0.3937007874015748
		},
		{
		  "duration": 0.75,
		  "durationTicks": 768,
		  "midi": 84,
		  "name": "C6",
		  "ticks": 142054,
		  "time": 138.724609375,
		  "velocity": 0.3937007874015748
		},
		{
		  "duration": 0.75,
		  "durationTicks": 768,
		  "midi": 72,
		  "name": "C5",
		  "ticks": 142054,
		  "time": 138.724609375,
		  "velocity": 0.3937007874015748
		},
		{
		  "duration": 0.09375,
		  "durationTicks": 96,
		  "midi": 42,
		  "name": "F#2",
		  "ticks": 142066,
		  "time": 138.736328125,
		  "velocity": 0.3937007874015748
		},
		{
		  "duration": 0.09375,
		  "durationTicks": 96,
		  "midi": 51,
		  "name": "D#3",
		  "ticks": 142162,
		  "time": 138.830078125,
		  "velocity": 0.3937007874015748
		},
		{
		  "duration": 0.09375,
		  "durationTicks": 96,
		  "midi": 44,
		  "name": "G#2",
		  "ticks": 142262,
		  "time": 138.927734375,
		  "velocity": 0.3937007874015748
		},
		{
		  "duration": 0.09375,
		  "durationTicks": 96,
		  "midi": 51,
		  "name": "D#3",
		  "ticks": 142358,
		  "time": 139.021484375,
		  "velocity": 0.3937007874015748
		},
		{
		  "duration": 0.09375,
		  "durationTicks": 96,
		  "midi": 42,
		  "name": "F#2",
		  "ticks": 142454,
		  "time": 139.115234375,
		  "velocity": 0.3937007874015748
		},
		{
		  "duration": 0.09375,
		  "durationTicks": 96,
		  "midi": 51,
		  "name": "D#3",
		  "ticks": 142546,
		  "time": 139.205078125,
		  "velocity": 0.3937007874015748
		},
		{
		  "duration": 0.09375,
		  "durationTicks": 96,
		  "midi": 44,
		  "name": "G#2",
		  "ticks": 142642,
		  "time": 139.298828125,
		  "velocity": 0.3937007874015748
		},
		{
		  "duration": 0.09375,
		  "durationTicks": 96,
		  "midi": 51,
		  "name": "D#3",
		  "ticks": 142738,
		  "time": 139.392578125,
		  "velocity": 0.3937007874015748
		},
		{
		  "duration": 0.09375,
		  "durationTicks": 96,
		  "midi": 40,
		  "name": "E2",
		  "ticks": 142834,
		  "time": 139.486328125,
		  "velocity": 0.3937007874015748
		},
		{
		  "duration": 0.75,
		  "durationTicks": 768,
		  "midi": 85,
		  "name": "C#6",
		  "ticks": 142838,
		  "time": 139.490234375,
		  "velocity": 0.3937007874015748
		},
		{
		  "duration": 0.75,
		  "durationTicks": 768,
		  "midi": 73,
		  "name": "C#5",
		  "ticks": 142838,
		  "time": 139.490234375,
		  "velocity": 0.3937007874015748
		},
		{
		  "duration": 0.09375,
		  "durationTicks": 96,
		  "midi": 49,
		  "name": "C#3",
		  "ticks": 142930,
		  "time": 139.580078125,
		  "velocity": 0.3937007874015748
		},
		{
		  "duration": 0.09375,
		  "durationTicks": 96,
		  "midi": 44,
		  "name": "G#2",
		  "ticks": 143026,
		  "time": 139.673828125,
		  "velocity": 0.3937007874015748
		},
		{
		  "duration": 0.09375,
		  "durationTicks": 96,
		  "midi": 49,
		  "name": "C#3",
		  "ticks": 143122,
		  "time": 139.767578125,
		  "velocity": 0.3937007874015748
		},
		{
		  "duration": 0.09375,
		  "durationTicks": 96,
		  "midi": 40,
		  "name": "E2",
		  "ticks": 143218,
		  "time": 139.861328125,
		  "velocity": 0.3937007874015748
		},
		{
		  "duration": 0.09375,
		  "durationTicks": 96,
		  "midi": 49,
		  "name": "C#3",
		  "ticks": 143318,
		  "time": 139.958984375,
		  "velocity": 0.3937007874015748
		},
		{
		  "duration": 0.09375,
		  "durationTicks": 96,
		  "midi": 44,
		  "name": "G#2",
		  "ticks": 143414,
		  "time": 140.052734375,
		  "velocity": 0.3937007874015748
		},
		{
		  "duration": 0.09375,
		  "durationTicks": 96,
		  "midi": 49,
		  "name": "C#3",
		  "ticks": 143510,
		  "time": 140.146484375,
		  "velocity": 0.3937007874015748
		},
		{
		  "duration": 0.375,
		  "durationTicks": 384,
		  "midi": 70,
		  "name": "A#4",
		  "ticks": 143606,
		  "time": 140.240234375,
		  "velocity": 0.3937007874015748
		},
		{
		  "duration": 0.09375,
		  "durationTicks": 96,
		  "midi": 40,
		  "name": "E2",
		  "ticks": 143606,
		  "time": 140.240234375,
		  "velocity": 0.3937007874015748
		},
		{
		  "duration": 0.09375,
		  "durationTicks": 96,
		  "midi": 49,
		  "name": "C#3",
		  "ticks": 143698,
		  "time": 140.330078125,
		  "velocity": 0.3937007874015748
		},
		{
		  "duration": 0.09375,
		  "durationTicks": 96,
		  "midi": 42,
		  "name": "F#2",
		  "ticks": 143794,
		  "time": 140.423828125,
		  "velocity": 0.3937007874015748
		},
		{
		  "duration": 0.09375,
		  "durationTicks": 96,
		  "midi": 49,
		  "name": "C#3",
		  "ticks": 143890,
		  "time": 140.517578125,
		  "velocity": 0.3937007874015748
		},
		{
		  "duration": 0.09375,
		  "durationTicks": 96,
		  "midi": 39,
		  "name": "D#2",
		  "ticks": 143986,
		  "time": 140.611328125,
		  "velocity": 0.3937007874015748
		},
		{
		  "duration": 1.125,
		  "durationTicks": 1152,
		  "midi": 71,
		  "name": "B4",
		  "ticks": 143990,
		  "time": 140.615234375,
		  "velocity": 0.3937007874015748
		},
		{
		  "duration": 1.125,
		  "durationTicks": 1152,
		  "midi": 83,
		  "name": "B5",
		  "ticks": 143990,
		  "time": 140.615234375,
		  "velocity": 0.3937007874015748
		},
		{
		  "duration": 0.09375,
		  "durationTicks": 96,
		  "midi": 47,
		  "name": "B2",
		  "ticks": 144082,
		  "time": 140.705078125,
		  "velocity": 0.3937007874015748
		},
		{
		  "duration": 0.09375,
		  "durationTicks": 96,
		  "midi": 42,
		  "name": "F#2",
		  "ticks": 144178,
		  "time": 140.798828125,
		  "velocity": 0.3937007874015748
		},
		{
		  "duration": 0.09375,
		  "durationTicks": 96,
		  "midi": 47,
		  "name": "B2",
		  "ticks": 144274,
		  "time": 140.892578125,
		  "velocity": 0.3937007874015748
		},
		{
		  "duration": 0.09375,
		  "durationTicks": 96,
		  "midi": 39,
		  "name": "D#2",
		  "ticks": 144370,
		  "time": 140.986328125,
		  "velocity": 0.3937007874015748
		},
		{
		  "duration": 0.09375,
		  "durationTicks": 96,
		  "midi": 47,
		  "name": "B2",
		  "ticks": 144470,
		  "time": 141.083984375,
		  "velocity": 0.3937007874015748
		},
		{
		  "duration": 0.09375,
		  "durationTicks": 96,
		  "midi": 42,
		  "name": "F#2",
		  "ticks": 144566,
		  "time": 141.177734375,
		  "velocity": 0.3937007874015748
		},
		{
		  "duration": 0.09375,
		  "durationTicks": 96,
		  "midi": 47,
		  "name": "B2",
		  "ticks": 144662,
		  "time": 141.271484375,
		  "velocity": 0.3937007874015748
		},
		{
		  "duration": 0.09375,
		  "durationTicks": 96,
		  "midi": 39,
		  "name": "D#2",
		  "ticks": 144754,
		  "time": 141.361328125,
		  "velocity": 0.3937007874015748
		},
		{
		  "duration": 0.09375,
		  "durationTicks": 96,
		  "midi": 47,
		  "name": "B2",
		  "ticks": 144850,
		  "time": 141.455078125,
		  "velocity": 0.3937007874015748
		},
		{
		  "duration": 0.09375,
		  "durationTicks": 96,
		  "midi": 42,
		  "name": "F#2",
		  "ticks": 144946,
		  "time": 141.548828125,
		  "velocity": 0.3937007874015748
		},
		{
		  "duration": 0.09375,
		  "durationTicks": 96,
		  "midi": 47,
		  "name": "B2",
		  "ticks": 145042,
		  "time": 141.642578125,
		  "velocity": 0.3937007874015748
		},
		{
		  "duration": 0.09375,
		  "durationTicks": 96,
		  "midi": 38,
		  "name": "D2",
		  "ticks": 145138,
		  "time": 141.736328125,
		  "velocity": 0.3937007874015748
		},
		{
		  "duration": 0.75,
		  "durationTicks": 768,
		  "midi": 80,
		  "name": "G#5",
		  "ticks": 145142,
		  "time": 141.740234375,
		  "velocity": 0.3937007874015748
		},
		{
		  "duration": 0.75,
		  "durationTicks": 768,
		  "midi": 68,
		  "name": "G#4",
		  "ticks": 145142,
		  "time": 141.740234375,
		  "velocity": 0.3937007874015748
		},
		{
		  "duration": 0.09375,
		  "durationTicks": 96,
		  "midi": 47,
		  "name": "B2",
		  "ticks": 145234,
		  "time": 141.830078125,
		  "velocity": 0.3937007874015748
		},
		{
		  "duration": 0.09375,
		  "durationTicks": 96,
		  "midi": 40,
		  "name": "E2",
		  "ticks": 145330,
		  "time": 141.923828125,
		  "velocity": 0.3937007874015748
		},
		{
		  "duration": 0.09375,
		  "durationTicks": 96,
		  "midi": 47,
		  "name": "B2",
		  "ticks": 145426,
		  "time": 142.017578125,
		  "velocity": 0.3937007874015748
		},
		{
		  "duration": 0.09375,
		  "durationTicks": 96,
		  "midi": 38,
		  "name": "D2",
		  "ticks": 145526,
		  "time": 142.115234375,
		  "velocity": 0.3937007874015748
		},
		{
		  "duration": 0.09375,
		  "durationTicks": 96,
		  "midi": 47,
		  "name": "B2",
		  "ticks": 145622,
		  "time": 142.208984375,
		  "velocity": 0.3937007874015748
		},
		{
		  "duration": 0.09375,
		  "durationTicks": 96,
		  "midi": 40,
		  "name": "E2",
		  "ticks": 145718,
		  "time": 142.302734375,
		  "velocity": 0.3937007874015748
		},
		{
		  "duration": 0.09375,
		  "durationTicks": 96,
		  "midi": 47,
		  "name": "B2",
		  "ticks": 145810,
		  "time": 142.392578125,
		  "velocity": 0.3937007874015748
		},
		{
		  "duration": 0.09375,
		  "durationTicks": 96,
		  "midi": 37,
		  "name": "C#2",
		  "ticks": 145906,
		  "time": 142.486328125,
		  "velocity": 0.3937007874015748
		},
		{
		  "duration": 0.75,
		  "durationTicks": 768,
		  "midi": 81,
		  "name": "A5",
		  "ticks": 145910,
		  "time": 142.490234375,
		  "velocity": 0.3937007874015748
		},
		{
		  "duration": 0.75,
		  "durationTicks": 768,
		  "midi": 69,
		  "name": "A4",
		  "ticks": 145910,
		  "time": 142.490234375,
		  "velocity": 0.3937007874015748
		},
		{
		  "duration": 0.09375,
		  "durationTicks": 96,
		  "midi": 45,
		  "name": "A2",
		  "ticks": 146002,
		  "time": 142.580078125,
		  "velocity": 0.3937007874015748
		},
		{
		  "duration": 0.09375,
		  "durationTicks": 96,
		  "midi": 40,
		  "name": "E2",
		  "ticks": 146098,
		  "time": 142.673828125,
		  "velocity": 0.3937007874015748
		},
		{
		  "duration": 0.09375,
		  "durationTicks": 96,
		  "midi": 45,
		  "name": "A2",
		  "ticks": 146194,
		  "time": 142.767578125,
		  "velocity": 0.3937007874015748
		},
		{
		  "duration": 0.09375,
		  "durationTicks": 96,
		  "midi": 37,
		  "name": "C#2",
		  "ticks": 146290,
		  "time": 142.861328125,
		  "velocity": 0.3937007874015748
		},
		{
		  "duration": 0.09375,
		  "durationTicks": 96,
		  "midi": 45,
		  "name": "A2",
		  "ticks": 146386,
		  "time": 142.955078125,
		  "velocity": 0.3937007874015748
		},
		{
		  "duration": 0.09375,
		  "durationTicks": 96,
		  "midi": 40,
		  "name": "E2",
		  "ticks": 146482,
		  "time": 143.048828125,
		  "velocity": 0.3937007874015748
		},
		{
		  "duration": 0.09375,
		  "durationTicks": 96,
		  "midi": 45,
		  "name": "A2",
		  "ticks": 146582,
		  "time": 143.146484375,
		  "velocity": 0.3937007874015748
		},
		{
		  "duration": 0.09375,
		  "durationTicks": 96,
		  "midi": 37,
		  "name": "C#2",
		  "ticks": 146674,
		  "time": 143.236328125,
		  "velocity": 0.3937007874015748
		},
		{
		  "duration": 0.375,
		  "durationTicks": 384,
		  "midi": 67,
		  "name": "G4",
		  "ticks": 146678,
		  "time": 143.240234375,
		  "velocity": 0.3937007874015748
		},
		{
		  "duration": 0.09375,
		  "durationTicks": 96,
		  "midi": 46,
		  "name": "A#2",
		  "ticks": 146774,
		  "time": 143.333984375,
		  "velocity": 0.3937007874015748
		},
		{
		  "duration": 0.09375,
		  "durationTicks": 96,
		  "midi": 39,
		  "name": "D#2",
		  "ticks": 146870,
		  "time": 143.427734375,
		  "velocity": 0.3937007874015748
		},
		{
		  "duration": 0.09375,
		  "durationTicks": 96,
		  "midi": 46,
		  "name": "A#2",
		  "ticks": 146962,
		  "time": 143.517578125,
		  "velocity": 0.3937007874015748
		},
		{
		  "duration": 0.09375,
		  "durationTicks": 96,
		  "midi": 35,
		  "name": "B1",
		  "ticks": 147058,
		  "time": 143.611328125,
		  "velocity": 0.3937007874015748
		},
		{
		  "duration": 1.1259765625,
		  "durationTicks": 1153,
		  "midi": 68,
		  "name": "G#4",
		  "ticks": 147062,
		  "time": 143.615234375,
		  "velocity": 0.3937007874015748
		},
		{
		  "duration": 1.1259765625,
		  "durationTicks": 1153,
		  "midi": 80,
		  "name": "G#5",
		  "ticks": 147062,
		  "time": 143.615234375,
		  "velocity": 0.3937007874015748
		},
		{
		  "duration": 0.09375,
		  "durationTicks": 96,
		  "midi": 44,
		  "name": "G#2",
		  "ticks": 147154,
		  "time": 143.705078125,
		  "velocity": 0.3937007874015748
		},
		{
		  "duration": 0.09375,
		  "durationTicks": 96,
		  "midi": 39,
		  "name": "D#2",
		  "ticks": 147250,
		  "time": 143.798828125,
		  "velocity": 0.3937007874015748
		},
		{
		  "duration": 0.09375,
		  "durationTicks": 96,
		  "midi": 44,
		  "name": "G#2",
		  "ticks": 147346,
		  "time": 143.892578125,
		  "velocity": 0.3937007874015748
		},
		{
		  "duration": 0.09375,
		  "durationTicks": 96,
		  "midi": 35,
		  "name": "B1",
		  "ticks": 147442,
		  "time": 143.986328125,
		  "velocity": 0.3937007874015748
		},
		{
		  "duration": 0.09375,
		  "durationTicks": 96,
		  "midi": 44,
		  "name": "G#2",
		  "ticks": 147538,
		  "time": 144.080078125,
		  "velocity": 0.3937007874015748
		},
		{
		  "duration": 0.09375,
		  "durationTicks": 96,
		  "midi": 39,
		  "name": "D#2",
		  "ticks": 147634,
		  "time": 144.173828125,
		  "velocity": 0.3937007874015748
		},
		{
		  "duration": 0.09375,
		  "durationTicks": 96,
		  "midi": 44,
		  "name": "G#2",
		  "ticks": 147730,
		  "time": 144.267578125,
		  "velocity": 0.3937007874015748
		},
		{
		  "duration": 0.09375,
		  "durationTicks": 96,
		  "midi": 35,
		  "name": "B1",
		  "ticks": 147830,
		  "time": 144.365234375,
		  "velocity": 0.3937007874015748
		},
		{
		  "duration": 0.09375,
		  "durationTicks": 96,
		  "midi": 44,
		  "name": "G#2",
		  "ticks": 147926,
		  "time": 144.458984375,
		  "velocity": 0.3937007874015748
		},
		{
		  "duration": 0.09375,
		  "durationTicks": 96,
		  "midi": 39,
		  "name": "D#2",
		  "ticks": 148018,
		  "time": 144.548828125,
		  "velocity": 0.3937007874015748
		},
		{
		  "duration": 0.0947265625,
		  "durationTicks": 97,
		  "midi": 44,
		  "name": "G#2",
		  "ticks": 148109,
		  "time": 144.6376953125,
		  "velocity": 0.3937007874015748
		},
		{
		  "duration": 0.8447265625,
		  "durationTicks": 865,
		  "midi": 81,
		  "name": "A5",
		  "ticks": 148198,
		  "time": 144.724609375,
		  "velocity": 0.3937007874015748
		},
		{
		  "duration": 0.8447265625,
		  "durationTicks": 865,
		  "midi": 76,
		  "name": "E5",
		  "ticks": 148198,
		  "time": 144.724609375,
		  "velocity": 0.3937007874015748
		},
		{
		  "duration": 0.8447265625,
		  "durationTicks": 865,
		  "midi": 73,
		  "name": "C#5",
		  "ticks": 148198,
		  "time": 144.724609375,
		  "velocity": 0.3937007874015748
		},
		{
		  "duration": 0.8447265625,
		  "durationTicks": 865,
		  "midi": 69,
		  "name": "A4",
		  "ticks": 148198,
		  "time": 144.724609375,
		  "velocity": 0.3937007874015748
		},
		{
		  "duration": 1.1259765625,
		  "durationTicks": 1153,
		  "midi": 37,
		  "name": "C#2",
		  "ticks": 148202,
		  "time": 144.728515625,
		  "velocity": 0.3937007874015748
		},
		{
		  "duration": 1.1259765625,
		  "durationTicks": 1153,
		  "midi": 40,
		  "name": "E2",
		  "ticks": 148202,
		  "time": 144.728515625,
		  "velocity": 0.3937007874015748
		},
		{
		  "duration": 1.1259765625,
		  "durationTicks": 1153,
		  "midi": 45,
		  "name": "A2",
		  "ticks": 148202,
		  "time": 144.728515625,
		  "velocity": 0.3937007874015748
		},
		{
		  "duration": 1.1259765625,
		  "durationTicks": 1153,
		  "midi": 49,
		  "name": "C#3",
		  "ticks": 148202,
		  "time": 144.728515625,
		  "velocity": 0.3937007874015748
		},
		{
		  "duration": 0.09375,
		  "durationTicks": 96,
		  "midi": 76,
		  "name": "E5",
		  "ticks": 149079,
		  "time": 145.5849609375,
		  "velocity": 0.3937007874015748
		},
		{
		  "duration": 0.09375,
		  "durationTicks": 96,
		  "midi": 78,
		  "name": "F#5",
		  "ticks": 149175,
		  "time": 145.6787109375,
		  "velocity": 0.3937007874015748
		},
		{
		  "duration": 0.09375,
		  "durationTicks": 96,
		  "midi": 80,
		  "name": "G#5",
		  "ticks": 149271,
		  "time": 145.7724609375,
		  "velocity": 0.3937007874015748
		},
		{
		  "duration": 0.09375,
		  "durationTicks": 96,
		  "midi": 81,
		  "name": "A5",
		  "ticks": 149367,
		  "time": 145.8662109375,
		  "velocity": 0.3937007874015748
		},
		{
		  "duration": 0.09375,
		  "durationTicks": 96,
		  "midi": 83,
		  "name": "B5",
		  "ticks": 149463,
		  "time": 145.9599609375,
		  "velocity": 0.3937007874015748
		},
		{
		  "duration": 0.09375,
		  "durationTicks": 96,
		  "midi": 85,
		  "name": "C#6",
		  "ticks": 149559,
		  "time": 146.0537109375,
		  "velocity": 0.3937007874015748
		},
		{
		  "duration": 0.09375,
		  "durationTicks": 96,
		  "midi": 83,
		  "name": "B5",
		  "ticks": 149655,
		  "time": 146.1474609375,
		  "velocity": 0.3937007874015748
		},
		{
		  "duration": 0.09375,
		  "durationTicks": 96,
		  "midi": 61,
		  "name": "C#4",
		  "ticks": 149739,
		  "time": 146.2294921875,
		  "velocity": 0.3937007874015748
		},
		{
		  "duration": 0.09375,
		  "durationTicks": 96,
		  "midi": 64,
		  "name": "E4",
		  "ticks": 149739,
		  "time": 146.2294921875,
		  "velocity": 0.3937007874015748
		},
		{
		  "duration": 0.09375,
		  "durationTicks": 96,
		  "midi": 69,
		  "name": "A4",
		  "ticks": 149739,
		  "time": 146.2294921875,
		  "velocity": 0.3937007874015748
		},
		{
		  "duration": 0.09375,
		  "durationTicks": 96,
		  "midi": 81,
		  "name": "A5",
		  "ticks": 149751,
		  "time": 146.2412109375,
		  "velocity": 0.3937007874015748
		},
		{
		  "duration": 0.09375,
		  "durationTicks": 96,
		  "midi": 76,
		  "name": "E5",
		  "ticks": 149847,
		  "time": 146.3349609375,
		  "velocity": 0.3937007874015748
		},
		{
		  "duration": 0.09375,
		  "durationTicks": 96,
		  "midi": 78,
		  "name": "F#5",
		  "ticks": 149943,
		  "time": 146.4287109375,
		  "velocity": 0.3937007874015748
		},
		{
		  "duration": 0.09375,
		  "durationTicks": 96,
		  "midi": 80,
		  "name": "G#5",
		  "ticks": 150039,
		  "time": 146.5224609375,
		  "velocity": 0.3937007874015748
		},
		{
		  "duration": 0.09375,
		  "durationTicks": 96,
		  "midi": 81,
		  "name": "A5",
		  "ticks": 150135,
		  "time": 146.6162109375,
		  "velocity": 0.3937007874015748
		},
		{
		  "duration": 0.09375,
		  "durationTicks": 96,
		  "midi": 83,
		  "name": "B5",
		  "ticks": 150231,
		  "time": 146.7099609375,
		  "velocity": 0.3937007874015748
		},
		{
		  "duration": 0.09375,
		  "durationTicks": 96,
		  "midi": 85,
		  "name": "C#6",
		  "ticks": 150327,
		  "time": 146.8037109375,
		  "velocity": 0.3937007874015748
		},
		{
		  "duration": 0.09375,
		  "durationTicks": 96,
		  "midi": 83,
		  "name": "B5",
		  "ticks": 150423,
		  "time": 146.8974609375,
		  "velocity": 0.3937007874015748
		},
		{
		  "duration": 0.09375,
		  "durationTicks": 96,
		  "midi": 61,
		  "name": "C#4",
		  "ticks": 150515,
		  "time": 146.9873046875,
		  "velocity": 0.3937007874015748
		},
		{
		  "duration": 0.09375,
		  "durationTicks": 96,
		  "midi": 64,
		  "name": "E4",
		  "ticks": 150515,
		  "time": 146.9873046875,
		  "velocity": 0.3937007874015748
		},
		{
		  "duration": 0.09375,
		  "durationTicks": 96,
		  "midi": 69,
		  "name": "A4",
		  "ticks": 150515,
		  "time": 146.9873046875,
		  "velocity": 0.3937007874015748
		},
		{
		  "duration": 0.09375,
		  "durationTicks": 96,
		  "midi": 81,
		  "name": "A5",
		  "ticks": 150519,
		  "time": 146.9912109375,
		  "velocity": 0.3937007874015748
		},
		{
		  "duration": 0.09375,
		  "durationTicks": 96,
		  "midi": 76,
		  "name": "E5",
		  "ticks": 150615,
		  "time": 147.0849609375,
		  "velocity": 0.3937007874015748
		},
		{
		  "duration": 0.09375,
		  "durationTicks": 96,
		  "midi": 78,
		  "name": "F#5",
		  "ticks": 150711,
		  "time": 147.1787109375,
		  "velocity": 0.3937007874015748
		},
		{
		  "duration": 0.09375,
		  "durationTicks": 96,
		  "midi": 80,
		  "name": "G#5",
		  "ticks": 150807,
		  "time": 147.2724609375,
		  "velocity": 0.3937007874015748
		},
		{
		  "duration": 0.09375,
		  "durationTicks": 96,
		  "midi": 81,
		  "name": "A5",
		  "ticks": 150903,
		  "time": 147.3662109375,
		  "velocity": 0.3937007874015748
		},
		{
		  "duration": 0.09375,
		  "durationTicks": 96,
		  "midi": 83,
		  "name": "B5",
		  "ticks": 150999,
		  "time": 147.4599609375,
		  "velocity": 0.3937007874015748
		},
		{
		  "duration": 0.09375,
		  "durationTicks": 96,
		  "midi": 85,
		  "name": "C#6",
		  "ticks": 151095,
		  "time": 147.5537109375,
		  "velocity": 0.3937007874015748
		},
		{
		  "duration": 0.09375,
		  "durationTicks": 96,
		  "midi": 83,
		  "name": "B5",
		  "ticks": 151191,
		  "time": 147.6474609375,
		  "velocity": 0.3937007874015748
		},
		{
		  "duration": 0.09375,
		  "durationTicks": 96,
		  "midi": 69,
		  "name": "A4",
		  "ticks": 151275,
		  "time": 147.7294921875,
		  "velocity": 0.3937007874015748
		},
		{
		  "duration": 0.09375,
		  "durationTicks": 96,
		  "midi": 64,
		  "name": "E4",
		  "ticks": 151275,
		  "time": 147.7294921875,
		  "velocity": 0.3937007874015748
		},
		{
		  "duration": 0.09375,
		  "durationTicks": 96,
		  "midi": 61,
		  "name": "C#4",
		  "ticks": 151275,
		  "time": 147.7294921875,
		  "velocity": 0.3937007874015748
		},
		{
		  "duration": 0.09375,
		  "durationTicks": 96,
		  "midi": 81,
		  "name": "A5",
		  "ticks": 151287,
		  "time": 147.7412109375,
		  "velocity": 0.3937007874015748
		},
		{
		  "duration": 0.09375,
		  "durationTicks": 96,
		  "midi": 76,
		  "name": "E5",
		  "ticks": 151383,
		  "time": 147.8349609375,
		  "velocity": 0.3937007874015748
		},
		{
		  "duration": 0.09375,
		  "durationTicks": 96,
		  "midi": 78,
		  "name": "F#5",
		  "ticks": 151479,
		  "time": 147.9287109375,
		  "velocity": 0.3937007874015748
		},
		{
		  "duration": 0.09375,
		  "durationTicks": 96,
		  "midi": 80,
		  "name": "G#5",
		  "ticks": 151575,
		  "time": 148.0224609375,
		  "velocity": 0.3937007874015748
		},
		{
		  "duration": 0.09375,
		  "durationTicks": 96,
		  "midi": 81,
		  "name": "A5",
		  "ticks": 151671,
		  "time": 148.1162109375,
		  "velocity": 0.3937007874015748
		},
		{
		  "duration": 0.09375,
		  "durationTicks": 96,
		  "midi": 69,
		  "name": "A4",
		  "ticks": 151675,
		  "time": 148.1201171875,
		  "velocity": 0.3937007874015748
		},
		{
		  "duration": 0.09375,
		  "durationTicks": 96,
		  "midi": 61,
		  "name": "C#4",
		  "ticks": 151675,
		  "time": 148.1201171875,
		  "velocity": 0.3937007874015748
		},
		{
		  "duration": 0.09375,
		  "durationTicks": 96,
		  "midi": 64,
		  "name": "E4",
		  "ticks": 151675,
		  "time": 148.1201171875,
		  "velocity": 0.3937007874015748
		},
		{
		  "duration": 0.09375,
		  "durationTicks": 96,
		  "midi": 83,
		  "name": "B5",
		  "ticks": 151767,
		  "time": 148.2099609375,
		  "velocity": 0.3937007874015748
		},
		{
		  "duration": 0.09375,
		  "durationTicks": 96,
		  "midi": 85,
		  "name": "C#6",
		  "ticks": 151863,
		  "time": 148.3037109375,
		  "velocity": 0.3937007874015748
		},
		{
		  "duration": 0.09375,
		  "durationTicks": 96,
		  "midi": 86,
		  "name": "D6",
		  "ticks": 151959,
		  "time": 148.3974609375,
		  "velocity": 0.3937007874015748
		},
		{
		  "duration": 0.09375,
		  "durationTicks": 96,
		  "midi": 88,
		  "name": "E6",
		  "ticks": 152055,
		  "time": 148.4912109375,
		  "velocity": 0.3937007874015748
		},
		{
		  "duration": 0.09375,
		  "durationTicks": 96,
		  "midi": 61,
		  "name": "C#4",
		  "ticks": 152067,
		  "time": 148.5029296875,
		  "velocity": 0.3937007874015748
		},
		{
		  "duration": 0.09375,
		  "durationTicks": 96,
		  "midi": 69,
		  "name": "A4",
		  "ticks": 152067,
		  "time": 148.5029296875,
		  "velocity": 0.3937007874015748
		},
		{
		  "duration": 0.09375,
		  "durationTicks": 96,
		  "midi": 64,
		  "name": "E4",
		  "ticks": 152067,
		  "time": 148.5029296875,
		  "velocity": 0.3937007874015748
		},
		{
		  "duration": 0.09375,
		  "durationTicks": 96,
		  "midi": 87,
		  "name": "D#6",
		  "ticks": 152151,
		  "time": 148.5849609375,
		  "velocity": 0.3937007874015748
		},
		{
		  "duration": 0.09375,
		  "durationTicks": 96,
		  "midi": 88,
		  "name": "E6",
		  "ticks": 152247,
		  "time": 148.6787109375,
		  "velocity": 0.3937007874015748
		},
		{
		  "duration": 0.09375,
		  "durationTicks": 96,
		  "midi": 87,
		  "name": "D#6",
		  "ticks": 152343,
		  "time": 148.7724609375,
		  "velocity": 0.3937007874015748
		},
		{
		  "duration": 0.09375,
		  "durationTicks": 96,
		  "midi": 88,
		  "name": "E6",
		  "ticks": 152439,
		  "time": 148.8662109375,
		  "velocity": 0.3937007874015748
		},
		{
		  "duration": 0.09375,
		  "durationTicks": 96,
		  "midi": 69,
		  "name": "A4",
		  "ticks": 152443,
		  "time": 148.8701171875,
		  "velocity": 0.3937007874015748
		},
		{
		  "duration": 0.09375,
		  "durationTicks": 96,
		  "midi": 61,
		  "name": "C#4",
		  "ticks": 152443,
		  "time": 148.8701171875,
		  "velocity": 0.3937007874015748
		},
		{
		  "duration": 0.09375,
		  "durationTicks": 96,
		  "midi": 64,
		  "name": "E4",
		  "ticks": 152443,
		  "time": 148.8701171875,
		  "velocity": 0.3937007874015748
		},
		{
		  "duration": 0.09375,
		  "durationTicks": 96,
		  "midi": 85,
		  "name": "C#6",
		  "ticks": 152535,
		  "time": 148.9599609375,
		  "velocity": 0.3937007874015748
		},
		{
		  "duration": 0.09375,
		  "durationTicks": 96,
		  "midi": 83,
		  "name": "B5",
		  "ticks": 152631,
		  "time": 149.0537109375,
		  "velocity": 0.3937007874015748
		},
		{
		  "duration": 0.09375,
		  "durationTicks": 96,
		  "midi": 81,
		  "name": "A5",
		  "ticks": 152727,
		  "time": 149.1474609375,
		  "velocity": 0.3937007874015748
		},
		{
		  "duration": 0.75,
		  "durationTicks": 768,
		  "midi": 80,
		  "name": "G#5",
		  "ticks": 152823,
		  "time": 149.2412109375,
		  "velocity": 0.3937007874015748
		},
		{
		  "duration": 0.09375,
		  "durationTicks": 96,
		  "midi": 63,
		  "name": "D#4",
		  "ticks": 152823,
		  "time": 149.2412109375,
		  "velocity": 0.3937007874015748
		},
		{
		  "duration": 0.09375,
		  "durationTicks": 96,
		  "midi": 71,
		  "name": "B4",
		  "ticks": 152923,
		  "time": 149.3388671875,
		  "velocity": 0.3937007874015748
		},
		{
		  "duration": 0.09375,
		  "durationTicks": 96,
		  "midi": 68,
		  "name": "G#4",
		  "ticks": 153019,
		  "time": 149.4326171875,
		  "velocity": 0.3937007874015748
		},
		{
		  "duration": 0.09375,
		  "durationTicks": 96,
		  "midi": 71,
		  "name": "B4",
		  "ticks": 153119,
		  "time": 149.5302734375,
		  "velocity": 0.3937007874015748
		},
		{
		  "duration": 0.09375,
		  "durationTicks": 96,
		  "midi": 63,
		  "name": "D#4",
		  "ticks": 153215,
		  "time": 149.6240234375,
		  "velocity": 0.3937007874015748
		},
		{
		  "duration": 0.09375,
		  "durationTicks": 96,
		  "midi": 71,
		  "name": "B4",
		  "ticks": 153311,
		  "time": 149.7177734375,
		  "velocity": 0.3937007874015748
		},
		{
		  "duration": 0.09375,
		  "durationTicks": 96,
		  "midi": 68,
		  "name": "G#4",
		  "ticks": 153403,
		  "time": 149.8076171875,
		  "velocity": 0.3937007874015748
		},
		{
		  "duration": 0.09375,
		  "durationTicks": 96,
		  "midi": 71,
		  "name": "B4",
		  "ticks": 153499,
		  "time": 149.9013671875,
		  "velocity": 0.3937007874015748
		},
		{
		  "duration": 0.09375,
		  "durationTicks": 96,
		  "midi": 63,
		  "name": "D#4",
		  "ticks": 153595,
		  "time": 149.9951171875,
		  "velocity": 0.3937007874015748
		},
		{
		  "duration": 0.09375,
		  "durationTicks": 96,
		  "midi": 73,
		  "name": "C#5",
		  "ticks": 153691,
		  "time": 150.0888671875,
		  "velocity": 0.3937007874015748
		},
		{
		  "duration": 0.09375,
		  "durationTicks": 96,
		  "midi": 67,
		  "name": "G4",
		  "ticks": 153787,
		  "time": 150.1826171875,
		  "velocity": 0.3937007874015748
		},
		{
		  "duration": 0.09375,
		  "durationTicks": 96,
		  "midi": 73,
		  "name": "C#5",
		  "ticks": 153883,
		  "time": 150.2763671875,
		  "velocity": 0.3937007874015748
		},
		{
		  "duration": 0.09375,
		  "durationTicks": 96,
		  "midi": 63,
		  "name": "D#4",
		  "ticks": 153979,
		  "time": 150.3701171875,
		  "velocity": 0.3937007874015748
		},
		{
		  "duration": 0.09375,
		  "durationTicks": 96,
		  "midi": 73,
		  "name": "C#5",
		  "ticks": 154075,
		  "time": 150.4638671875,
		  "velocity": 0.3937007874015748
		},
		{
		  "duration": 0.09375,
		  "durationTicks": 96,
		  "midi": 80,
		  "name": "G#5",
		  "ticks": 154167,
		  "time": 150.5537109375,
		  "velocity": 0.3937007874015748
		},
		{
		  "duration": 0.09375,
		  "durationTicks": 96,
		  "midi": 67,
		  "name": "G4",
		  "ticks": 154171,
		  "time": 150.5576171875,
		  "velocity": 0.3937007874015748
		},
		{
		  "duration": 0.09375,
		  "durationTicks": 96,
		  "midi": 82,
		  "name": "A#5",
		  "ticks": 154263,
		  "time": 150.6474609375,
		  "velocity": 0.3937007874015748
		},
		{
		  "duration": 0.09375,
		  "durationTicks": 96,
		  "midi": 73,
		  "name": "C#5",
		  "ticks": 154271,
		  "time": 150.6552734375,
		  "velocity": 0.3937007874015748
		},
		{
		  "duration": 0.46875,
		  "durationTicks": 480,
		  "midi": 57,
		  "name": "A3",
		  "ticks": 154727,
		  "time": 151.1005859375,
		  "velocity": 0.3937007874015748
		},
		{
		  "duration": 0.46875,
		  "durationTicks": 480,
		  "midi": 61,
		  "name": "C#4",
		  "ticks": 154727,
		  "time": 151.1005859375,
		  "velocity": 0.3937007874015748
		},
		{
		  "duration": 0.46875,
		  "durationTicks": 480,
		  "midi": 64,
		  "name": "E4",
		  "ticks": 154727,
		  "time": 151.1005859375,
		  "velocity": 0.3937007874015748
		},
		{
		  "duration": 0.46875,
		  "durationTicks": 480,
		  "midi": 69,
		  "name": "A4",
		  "ticks": 154727,
		  "time": 151.1005859375,
		  "velocity": 0.3937007874015748
		},
		{
		  "duration": 0.75,
		  "durationTicks": 768,
		  "midi": 49,
		  "name": "C#3",
		  "ticks": 154731,
		  "time": 151.1044921875,
		  "velocity": 0.3937007874015748
		},
		{
		  "duration": 0.75,
		  "durationTicks": 768,
		  "midi": 45,
		  "name": "A2",
		  "ticks": 154731,
		  "time": 151.1044921875,
		  "velocity": 0.3937007874015748
		},
		{
		  "duration": 0.75,
		  "durationTicks": 768,
		  "midi": 40,
		  "name": "E2",
		  "ticks": 154731,
		  "time": 151.1044921875,
		  "velocity": 0.3937007874015748
		},
		{
		  "duration": 0.75,
		  "durationTicks": 768,
		  "midi": 37,
		  "name": "C#2",
		  "ticks": 154731,
		  "time": 151.1044921875,
		  "velocity": 0.3937007874015748
		},
		{
		  "duration": 0.09375,
		  "durationTicks": 96,
		  "midi": 64,
		  "name": "E4",
		  "ticks": 155223,
		  "time": 151.5849609375,
		  "velocity": 0.3937007874015748
		},
		{
		  "duration": 0.09375,
		  "durationTicks": 96,
		  "midi": 66,
		  "name": "F#4",
		  "ticks": 155319,
		  "time": 151.6787109375,
		  "velocity": 0.3937007874015748
		},
		{
		  "duration": 0.09375,
		  "durationTicks": 96,
		  "midi": 68,
		  "name": "G#4",
		  "ticks": 155415,
		  "time": 151.7724609375,
		  "velocity": 0.3937007874015748
		},
		{
		  "duration": 0.09375,
		  "durationTicks": 96,
		  "midi": 69,
		  "name": "A4",
		  "ticks": 155511,
		  "time": 151.8662109375,
		  "velocity": 0.3937007874015748
		},
		{
		  "duration": 0.09375,
		  "durationTicks": 96,
		  "midi": 71,
		  "name": "B4",
		  "ticks": 155607,
		  "time": 151.9599609375,
		  "velocity": 0.3937007874015748
		},
		{
		  "duration": 0.09375,
		  "durationTicks": 96,
		  "midi": 73,
		  "name": "C#5",
		  "ticks": 155703,
		  "time": 152.0537109375,
		  "velocity": 0.3937007874015748
		},
		{
		  "duration": 0.09375,
		  "durationTicks": 96,
		  "midi": 71,
		  "name": "B4",
		  "ticks": 155799,
		  "time": 152.1474609375,
		  "velocity": 0.3937007874015748
		},
		{
		  "duration": 0.09375,
		  "durationTicks": 96,
		  "midi": 69,
		  "name": "A4",
		  "ticks": 155895,
		  "time": 152.2412109375,
		  "velocity": 0.3937007874015748
		},
		{
		  "duration": 0.09375,
		  "durationTicks": 96,
		  "midi": 64,
		  "name": "E4",
		  "ticks": 155991,
		  "time": 152.3349609375,
		  "velocity": 0.3937007874015748
		},
		{
		  "duration": 0.09375,
		  "durationTicks": 96,
		  "midi": 66,
		  "name": "F#4",
		  "ticks": 156087,
		  "time": 152.4287109375,
		  "velocity": 0.3937007874015748
		},
		{
		  "duration": 0.09375,
		  "durationTicks": 96,
		  "midi": 68,
		  "name": "G#4",
		  "ticks": 156183,
		  "time": 152.5224609375,
		  "velocity": 0.3937007874015748
		},
		{
		  "duration": 0.09375,
		  "durationTicks": 96,
		  "midi": 49,
		  "name": "C#3",
		  "ticks": 156259,
		  "time": 152.5966796875,
		  "velocity": 0.3937007874015748
		},
		{
		  "duration": 0.09375,
		  "durationTicks": 96,
		  "midi": 57,
		  "name": "A3",
		  "ticks": 156259,
		  "time": 152.5966796875,
		  "velocity": 0.3937007874015748
		},
		{
		  "duration": 0.09375,
		  "durationTicks": 96,
		  "midi": 52,
		  "name": "E3",
		  "ticks": 156259,
		  "time": 152.5966796875,
		  "velocity": 0.3937007874015748
		},
		{
		  "duration": 0.09375,
		  "durationTicks": 96,
		  "midi": 69,
		  "name": "A4",
		  "ticks": 156279,
		  "time": 152.6162109375,
		  "velocity": 0.3937007874015748
		},
		{
		  "duration": 0.09375,
		  "durationTicks": 96,
		  "midi": 71,
		  "name": "B4",
		  "ticks": 156375,
		  "time": 152.7099609375,
		  "velocity": 0.3937007874015748
		},
		{
		  "duration": 0.09375,
		  "durationTicks": 96,
		  "midi": 73,
		  "name": "C#5",
		  "ticks": 156471,
		  "time": 152.8037109375,
		  "velocity": 0.3937007874015748
		},
		{
		  "duration": 0.09375,
		  "durationTicks": 96,
		  "midi": 71,
		  "name": "B4",
		  "ticks": 156567,
		  "time": 152.8974609375,
		  "velocity": 0.3937007874015748
		},
		{
		  "duration": 0.09375,
		  "durationTicks": 96,
		  "midi": 69,
		  "name": "A4",
		  "ticks": 156663,
		  "time": 152.9912109375,
		  "velocity": 0.3937007874015748
		},
		{
		  "duration": 0.09375,
		  "durationTicks": 96,
		  "midi": 64,
		  "name": "E4",
		  "ticks": 156759,
		  "time": 153.0849609375,
		  "velocity": 0.3937007874015748
		},
		{
		  "duration": 0.09375,
		  "durationTicks": 96,
		  "midi": 66,
		  "name": "F#4",
		  "ticks": 156855,
		  "time": 153.1787109375,
		  "velocity": 0.3937007874015748
		},
		{
		  "duration": 0.09375,
		  "durationTicks": 96,
		  "midi": 68,
		  "name": "G#4",
		  "ticks": 156951,
		  "time": 153.2724609375,
		  "velocity": 0.3937007874015748
		},
		{
		  "duration": 0.09375,
		  "durationTicks": 96,
		  "midi": 57,
		  "name": "A3",
		  "ticks": 157035,
		  "time": 153.3544921875,
		  "velocity": 0.3937007874015748
		},
		{
		  "duration": 0.09375,
		  "durationTicks": 96,
		  "midi": 52,
		  "name": "E3",
		  "ticks": 157035,
		  "time": 153.3544921875,
		  "velocity": 0.3937007874015748
		},
		{
		  "duration": 0.09375,
		  "durationTicks": 96,
		  "midi": 49,
		  "name": "C#3",
		  "ticks": 157035,
		  "time": 153.3544921875,
		  "velocity": 0.3937007874015748
		},
		{
		  "duration": 0.09375,
		  "durationTicks": 96,
		  "midi": 69,
		  "name": "A4",
		  "ticks": 157047,
		  "time": 153.3662109375,
		  "velocity": 0.3937007874015748
		},
		{
		  "duration": 0.09375,
		  "durationTicks": 96,
		  "midi": 71,
		  "name": "B4",
		  "ticks": 157143,
		  "time": 153.4599609375,
		  "velocity": 0.3937007874015748
		},
		{
		  "duration": 0.09375,
		  "durationTicks": 96,
		  "midi": 73,
		  "name": "C#5",
		  "ticks": 157239,
		  "time": 153.5537109375,
		  "velocity": 0.3937007874015748
		},
		{
		  "duration": 0.09375,
		  "durationTicks": 96,
		  "midi": 71,
		  "name": "B4",
		  "ticks": 157335,
		  "time": 153.6474609375,
		  "velocity": 0.3937007874015748
		},
		{
		  "duration": 0.09375,
		  "durationTicks": 96,
		  "midi": 69,
		  "name": "A4",
		  "ticks": 157431,
		  "time": 153.7412109375,
		  "velocity": 0.3937007874015748
		},
		{
		  "duration": 0.09375,
		  "durationTicks": 96,
		  "midi": 64,
		  "name": "E4",
		  "ticks": 157527,
		  "time": 153.8349609375,
		  "velocity": 0.3937007874015748
		},
		{
		  "duration": 0.09375,
		  "durationTicks": 96,
		  "midi": 49,
		  "name": "C#3",
		  "ticks": 157603,
		  "time": 153.9091796875,
		  "velocity": 0.3937007874015748
		},
		{
		  "duration": 0.09375,
		  "durationTicks": 96,
		  "midi": 57,
		  "name": "A3",
		  "ticks": 157603,
		  "time": 153.9091796875,
		  "velocity": 0.3937007874015748
		},
		{
		  "duration": 0.09375,
		  "durationTicks": 96,
		  "midi": 52,
		  "name": "E3",
		  "ticks": 157603,
		  "time": 153.9091796875,
		  "velocity": 0.3937007874015748
		},
		{
		  "duration": 0.09375,
		  "durationTicks": 96,
		  "midi": 66,
		  "name": "F#4",
		  "ticks": 157623,
		  "time": 153.9287109375,
		  "velocity": 0.3937007874015748
		},
		{
		  "duration": 0.09375,
		  "durationTicks": 96,
		  "midi": 68,
		  "name": "G#4",
		  "ticks": 157719,
		  "time": 154.0224609375,
		  "velocity": 0.3937007874015748
		},
		{
		  "duration": 0.09375,
		  "durationTicks": 96,
		  "midi": 69,
		  "name": "A4",
		  "ticks": 157815,
		  "time": 154.1162109375,
		  "velocity": 0.3937007874015748
		},
		{
		  "duration": 0.09375,
		  "durationTicks": 96,
		  "midi": 71,
		  "name": "B4",
		  "ticks": 157911,
		  "time": 154.2099609375,
		  "velocity": 0.3937007874015748
		},
		{
		  "duration": 0.09375,
		  "durationTicks": 96,
		  "midi": 57,
		  "name": "A3",
		  "ticks": 157995,
		  "time": 154.2919921875,
		  "velocity": 0.3937007874015748
		},
		{
		  "duration": 0.09375,
		  "durationTicks": 96,
		  "midi": 52,
		  "name": "E3",
		  "ticks": 157995,
		  "time": 154.2919921875,
		  "velocity": 0.3937007874015748
		},
		{
		  "duration": 0.09375,
		  "durationTicks": 96,
		  "midi": 49,
		  "name": "C#3",
		  "ticks": 157995,
		  "time": 154.2919921875,
		  "velocity": 0.3937007874015748
		},
		{
		  "duration": 0.09375,
		  "durationTicks": 96,
		  "midi": 73,
		  "name": "C#5",
		  "ticks": 158007,
		  "time": 154.3037109375,
		  "velocity": 0.3937007874015748
		},
		{
		  "duration": 0.09375,
		  "durationTicks": 96,
		  "midi": 71,
		  "name": "B4",
		  "ticks": 158103,
		  "time": 154.3974609375,
		  "velocity": 0.3937007874015748
		},
		{
		  "duration": 0.09375,
		  "durationTicks": 96,
		  "midi": 69,
		  "name": "A4",
		  "ticks": 158199,
		  "time": 154.4912109375,
		  "velocity": 0.3937007874015748
		},
		{
		  "duration": 0.09375,
		  "durationTicks": 96,
		  "midi": 64,
		  "name": "E4",
		  "ticks": 158295,
		  "time": 154.5849609375,
		  "velocity": 0.3937007874015748
		},
		{
		  "duration": 0.09375,
		  "durationTicks": 96,
		  "midi": 49,
		  "name": "C#3",
		  "ticks": 158371,
		  "time": 154.6591796875,
		  "velocity": 0.3937007874015748
		},
		{
		  "duration": 0.09375,
		  "durationTicks": 96,
		  "midi": 57,
		  "name": "A3",
		  "ticks": 158371,
		  "time": 154.6591796875,
		  "velocity": 0.3937007874015748
		},
		{
		  "duration": 0.09375,
		  "durationTicks": 96,
		  "midi": 52,
		  "name": "E3",
		  "ticks": 158371,
		  "time": 154.6591796875,
		  "velocity": 0.3937007874015748
		},
		{
		  "duration": 0.09375,
		  "durationTicks": 96,
		  "midi": 66,
		  "name": "F#4",
		  "ticks": 158391,
		  "time": 154.6787109375,
		  "velocity": 0.3937007874015748
		},
		{
		  "duration": 0.09375,
		  "durationTicks": 96,
		  "midi": 68,
		  "name": "G#4",
		  "ticks": 158487,
		  "time": 154.7724609375,
		  "velocity": 0.3937007874015748
		},
		{
		  "duration": 0.09375,
		  "durationTicks": 96,
		  "midi": 69,
		  "name": "A4",
		  "ticks": 158583,
		  "time": 154.8662109375,
		  "velocity": 0.3937007874015748
		},
		{
		  "duration": 0.09375,
		  "durationTicks": 96,
		  "midi": 71,
		  "name": "B4",
		  "ticks": 158679,
		  "time": 154.9599609375,
		  "velocity": 0.3937007874015748
		},
		{
		  "duration": 0.09375,
		  "durationTicks": 96,
		  "midi": 49,
		  "name": "C#3",
		  "ticks": 158747,
		  "time": 155.0263671875,
		  "velocity": 0.3937007874015748
		},
		{
		  "duration": 0.09375,
		  "durationTicks": 96,
		  "midi": 57,
		  "name": "A3",
		  "ticks": 158747,
		  "time": 155.0263671875,
		  "velocity": 0.3937007874015748
		},
		{
		  "duration": 0.09375,
		  "durationTicks": 96,
		  "midi": 52,
		  "name": "E3",
		  "ticks": 158747,
		  "time": 155.0263671875,
		  "velocity": 0.3937007874015748
		},
		{
		  "duration": 0.09375,
		  "durationTicks": 96,
		  "midi": 73,
		  "name": "C#5",
		  "ticks": 158775,
		  "time": 155.0537109375,
		  "velocity": 0.3937007874015748
		},
		{
		  "duration": 0.09375,
		  "durationTicks": 96,
		  "midi": 71,
		  "name": "B4",
		  "ticks": 158871,
		  "time": 155.1474609375,
		  "velocity": 0.3937007874015748
		},
		{
		  "duration": 0.09375,
		  "durationTicks": 96,
		  "midi": 49,
		  "name": "C#3",
		  "ticks": 158963,
		  "time": 155.2373046875,
		  "velocity": 0.3937007874015748
		},
		{
		  "duration": 0.09375,
		  "durationTicks": 96,
		  "midi": 52,
		  "name": "E3",
		  "ticks": 158963,
		  "time": 155.2373046875,
		  "velocity": 0.3937007874015748
		},
		{
		  "duration": 0.09375,
		  "durationTicks": 96,
		  "midi": 57,
		  "name": "A3",
		  "ticks": 158963,
		  "time": 155.2373046875,
		  "velocity": 0.3937007874015748
		},
		{
		  "duration": 0.09375,
		  "durationTicks": 96,
		  "midi": 69,
		  "name": "A4",
		  "ticks": 158967,
		  "time": 155.2412109375,
		  "velocity": 0.3937007874015748
		},
		{
		  "duration": 0.09375,
		  "durationTicks": 96,
		  "midi": 64,
		  "name": "E4",
		  "ticks": 159063,
		  "time": 155.3349609375,
		  "velocity": 0.3937007874015748
		},
		{
		  "duration": 0.09375,
		  "durationTicks": 96,
		  "midi": 66,
		  "name": "F#4",
		  "ticks": 159159,
		  "time": 155.4287109375,
		  "velocity": 0.3937007874015748
		},
		{
		  "duration": 0.09375,
		  "durationTicks": 96,
		  "midi": 68,
		  "name": "G#4",
		  "ticks": 159255,
		  "time": 155.5224609375,
		  "velocity": 0.3937007874015748
		},
		{
		  "duration": 0.09375,
		  "durationTicks": 96,
		  "midi": 69,
		  "name": "A4",
		  "ticks": 159351,
		  "time": 155.6162109375,
		  "velocity": 0.3937007874015748
		},
		{
		  "duration": 0.09375,
		  "durationTicks": 96,
		  "midi": 71,
		  "name": "B4",
		  "ticks": 159447,
		  "time": 155.7099609375,
		  "velocity": 0.3937007874015748
		},
		{
		  "duration": 0.09375,
		  "durationTicks": 96,
		  "midi": 73,
		  "name": "C#5",
		  "ticks": 159543,
		  "time": 155.8037109375,
		  "velocity": 0.3937007874015748
		},
		{
		  "duration": 0.09375,
		  "durationTicks": 96,
		  "midi": 74,
		  "name": "D5",
		  "ticks": 159639,
		  "time": 155.8974609375,
		  "velocity": 0.3937007874015748
		},
		{
		  "duration": 0.09375,
		  "durationTicks": 96,
		  "midi": 76,
		  "name": "E5",
		  "ticks": 159735,
		  "time": 155.9912109375,
		  "velocity": 0.3937007874015748
		},
		{
		  "duration": 0.09375,
		  "durationTicks": 96,
		  "midi": 78,
		  "name": "F#5",
		  "ticks": 159831,
		  "time": 156.0849609375,
		  "velocity": 0.3937007874015748
		},
		{
		  "duration": 0.09375,
		  "durationTicks": 96,
		  "midi": 80,
		  "name": "G#5",
		  "ticks": 159927,
		  "time": 156.1787109375,
		  "velocity": 0.3937007874015748
		},
		{
		  "duration": 0.09375,
		  "durationTicks": 96,
		  "midi": 81,
		  "name": "A5",
		  "ticks": 160023,
		  "time": 156.2724609375,
		  "velocity": 0.3937007874015748
		},
		{
		  "duration": 0.09375,
		  "durationTicks": 96,
		  "midi": 83,
		  "name": "B5",
		  "ticks": 160119,
		  "time": 156.3662109375,
		  "velocity": 0.3937007874015748
		},
		{
		  "duration": 0.09375,
		  "durationTicks": 96,
		  "midi": 85,
		  "name": "C#6",
		  "ticks": 160215,
		  "time": 156.4599609375,
		  "velocity": 0.3937007874015748
		},
		{
		  "duration": 0.09375,
		  "durationTicks": 96,
		  "midi": 86,
		  "name": "D6",
		  "ticks": 160311,
		  "time": 156.5537109375,
		  "velocity": 0.3937007874015748
		},
		{
		  "duration": 0.09375,
		  "durationTicks": 96,
		  "midi": 87,
		  "name": "D#6",
		  "ticks": 160407,
		  "time": 156.6474609375,
		  "velocity": 0.3937007874015748
		},
		{
		  "duration": 0.75,
		  "durationTicks": 768,
		  "midi": 88,
		  "name": "E6",
		  "ticks": 160487,
		  "time": 156.7255859375,
		  "velocity": 0.3937007874015748
		},
		{
		  "duration": 0.75,
		  "durationTicks": 768,
		  "midi": 76,
		  "name": "E5",
		  "ticks": 160487,
		  "time": 156.7255859375,
		  "velocity": 0.3937007874015748
		},
		{
		  "duration": 0.09375,
		  "durationTicks": 96,
		  "midi": 49,
		  "name": "C#3",
		  "ticks": 160491,
		  "time": 156.7294921875,
		  "velocity": 0.3937007874015748
		},
		{
		  "duration": 0.09375,
		  "durationTicks": 96,
		  "midi": 57,
		  "name": "A3",
		  "ticks": 160599,
		  "time": 156.8349609375,
		  "velocity": 0.3937007874015748
		},
		{
		  "duration": 0.09375,
		  "durationTicks": 96,
		  "midi": 52,
		  "name": "E3",
		  "ticks": 160695,
		  "time": 156.9287109375,
		  "velocity": 0.3937007874015748
		},
		{
		  "duration": 0.09375,
		  "durationTicks": 96,
		  "midi": 57,
		  "name": "A3",
		  "ticks": 160791,
		  "time": 157.0224609375,
		  "velocity": 0.3937007874015748
		},
		{
		  "duration": 0.09375,
		  "durationTicks": 96,
		  "midi": 49,
		  "name": "C#3",
		  "ticks": 160887,
		  "time": 157.1162109375,
		  "velocity": 0.3937007874015748
		},
		{
		  "duration": 0.09375,
		  "durationTicks": 96,
		  "midi": 57,
		  "name": "A3",
		  "ticks": 160983,
		  "time": 157.2099609375,
		  "velocity": 0.3937007874015748
		},
		{
		  "duration": 0.09375,
		  "durationTicks": 96,
		  "midi": 52,
		  "name": "E3",
		  "ticks": 161079,
		  "time": 157.3037109375,
		  "velocity": 0.3937007874015748
		},
		{
		  "duration": 0.09375,
		  "durationTicks": 96,
		  "midi": 57,
		  "name": "A3",
		  "ticks": 161175,
		  "time": 157.3974609375,
		  "velocity": 0.3937007874015748
		},
		{
		  "duration": 0.75,
		  "durationTicks": 768,
		  "midi": 68,
		  "name": "G#4",
		  "ticks": 161271,
		  "time": 157.4912109375,
		  "velocity": 0.3937007874015748
		},
		{
		  "duration": 0.75,
		  "durationTicks": 768,
		  "midi": 80,
		  "name": "G#5",
		  "ticks": 161271,
		  "time": 157.4912109375,
		  "velocity": 0.3937007874015748
		},
		{
		  "duration": 0.09375,
		  "durationTicks": 96,
		  "midi": 50,
		  "name": "D3",
		  "ticks": 161271,
		  "time": 157.4912109375,
		  "velocity": 0.3937007874015748
		},
		{
		  "duration": 0.09375,
		  "durationTicks": 96,
		  "midi": 59,
		  "name": "B3",
		  "ticks": 161367,
		  "time": 157.5849609375,
		  "velocity": 0.3937007874015748
		},
		{
		  "duration": 0.09375,
		  "durationTicks": 96,
		  "midi": 53,
		  "name": "F3",
		  "ticks": 161463,
		  "time": 157.6787109375,
		  "velocity": 0.3937007874015748
		},
		{
		  "duration": 0.09375,
		  "durationTicks": 96,
		  "midi": 59,
		  "name": "B3",
		  "ticks": 161559,
		  "time": 157.7724609375,
		  "velocity": 0.3937007874015748
		},
		{
		  "duration": 0.09375,
		  "durationTicks": 96,
		  "midi": 50,
		  "name": "D3",
		  "ticks": 161655,
		  "time": 157.8662109375,
		  "velocity": 0.3937007874015748
		},
		{
		  "duration": 0.09375,
		  "durationTicks": 96,
		  "midi": 59,
		  "name": "B3",
		  "ticks": 161751,
		  "time": 157.9599609375,
		  "velocity": 0.3937007874015748
		},
		{
		  "duration": 0.09375,
		  "durationTicks": 96,
		  "midi": 53,
		  "name": "F3",
		  "ticks": 161847,
		  "time": 158.0537109375,
		  "velocity": 0.3937007874015748
		},
		{
		  "duration": 0.09375,
		  "durationTicks": 96,
		  "midi": 59,
		  "name": "B3",
		  "ticks": 161943,
		  "time": 158.1474609375,
		  "velocity": 0.3937007874015748
		},
		{
		  "duration": 0.75,
		  "durationTicks": 768,
		  "midi": 71,
		  "name": "B4",
		  "ticks": 162039,
		  "time": 158.2412109375,
		  "velocity": 0.3937007874015748
		},
		{
		  "duration": 0.75,
		  "durationTicks": 768,
		  "midi": 83,
		  "name": "B5",
		  "ticks": 162039,
		  "time": 158.2412109375,
		  "velocity": 0.3937007874015748
		},
		{
		  "duration": 0.09375,
		  "durationTicks": 96,
		  "midi": 51,
		  "name": "D#3",
		  "ticks": 162039,
		  "time": 158.2412109375,
		  "velocity": 0.3937007874015748
		},
		{
		  "duration": 0.09375,
		  "durationTicks": 96,
		  "midi": 59,
		  "name": "B3",
		  "ticks": 162135,
		  "time": 158.3349609375,
		  "velocity": 0.3937007874015748
		},
		{
		  "duration": 0.09375,
		  "durationTicks": 96,
		  "midi": 56,
		  "name": "G#3",
		  "ticks": 162231,
		  "time": 158.4287109375,
		  "velocity": 0.3937007874015748
		},
		{
		  "duration": 0.09375,
		  "durationTicks": 96,
		  "midi": 59,
		  "name": "B3",
		  "ticks": 162327,
		  "time": 158.5224609375,
		  "velocity": 0.3937007874015748
		},
		{
		  "duration": 0.09375,
		  "durationTicks": 96,
		  "midi": 51,
		  "name": "D#3",
		  "ticks": 162423,
		  "time": 158.6162109375,
		  "velocity": 0.3937007874015748
		},
		{
		  "duration": 0.09375,
		  "durationTicks": 96,
		  "midi": 59,
		  "name": "B3",
		  "ticks": 162519,
		  "time": 158.7099609375,
		  "velocity": 0.3937007874015748
		},
		{
		  "duration": 0.09375,
		  "durationTicks": 96,
		  "midi": 56,
		  "name": "G#3",
		  "ticks": 162615,
		  "time": 158.8037109375,
		  "velocity": 0.3937007874015748
		},
		{
		  "duration": 0.09375,
		  "durationTicks": 96,
		  "midi": 59,
		  "name": "B3",
		  "ticks": 162711,
		  "time": 158.8974609375,
		  "velocity": 0.3937007874015748
		},
		{
		  "duration": 0.75,
		  "durationTicks": 768,
		  "midi": 55,
		  "name": "G3",
		  "ticks": 162791,
		  "time": 158.9755859375,
		  "velocity": 0.3937007874015748
		},
		{
		  "duration": 0.75,
		  "durationTicks": 768,
		  "midi": 67,
		  "name": "G4",
		  "ticks": 162791,
		  "time": 158.9755859375,
		  "velocity": 0.3937007874015748
		},
		{
		  "duration": 0.75,
		  "durationTicks": 768,
		  "midi": 61,
		  "name": "C#4",
		  "ticks": 162791,
		  "time": 158.9755859375,
		  "velocity": 0.3937007874015748
		},
		{
		  "duration": 0.09375,
		  "durationTicks": 96,
		  "midi": 39,
		  "name": "D#2",
		  "ticks": 162807,
		  "time": 158.9912109375,
		  "velocity": 0.3937007874015748
		},
		{
		  "duration": 0.09375,
		  "durationTicks": 96,
		  "midi": 51,
		  "name": "D#3",
		  "ticks": 162903,
		  "time": 159.0849609375,
		  "velocity": 0.3937007874015748
		},
		{
		  "duration": 0.09375,
		  "durationTicks": 96,
		  "midi": 50,
		  "name": "D3",
		  "ticks": 162999,
		  "time": 159.1787109375,
		  "velocity": 0.3937007874015748
		},
		{
		  "duration": 0.09375,
		  "durationTicks": 96,
		  "midi": 51,
		  "name": "D#3",
		  "ticks": 163095,
		  "time": 159.2724609375,
		  "velocity": 0.3937007874015748
		},
		{
		  "duration": 0.09375,
		  "durationTicks": 96,
		  "midi": 50,
		  "name": "D3",
		  "ticks": 163191,
		  "time": 159.3662109375,
		  "velocity": 0.3937007874015748
		},
		{
		  "duration": 0.09375,
		  "durationTicks": 96,
		  "midi": 51,
		  "name": "D#3",
		  "ticks": 163287,
		  "time": 159.4599609375,
		  "velocity": 0.3937007874015748
		},
		{
		  "duration": 0.09375,
		  "durationTicks": 96,
		  "midi": 50,
		  "name": "D3",
		  "ticks": 163383,
		  "time": 159.5537109375,
		  "velocity": 0.3937007874015748
		},
		{
		  "duration": 0.09375,
		  "durationTicks": 96,
		  "midi": 51,
		  "name": "D#3",
		  "ticks": 163479,
		  "time": 159.6474609375,
		  "velocity": 0.3937007874015748
		},
		{
		  "duration": 0.1875,
		  "durationTicks": 192,
		  "midi": 68,
		  "name": "G#4",
		  "ticks": 163575,
		  "time": 159.7412109375,
		  "velocity": 0.3937007874015748
		},
		{
		  "duration": 0.1875,
		  "durationTicks": 192,
		  "midi": 59,
		  "name": "B3",
		  "ticks": 163575,
		  "time": 159.7412109375,
		  "velocity": 0.3937007874015748
		},
		{
		  "duration": 0.1875,
		  "durationTicks": 192,
		  "midi": 56,
		  "name": "G#3",
		  "ticks": 163575,
		  "time": 159.7412109375,
		  "velocity": 0.3937007874015748
		},
		{
		  "duration": 0.1875,
		  "durationTicks": 192,
		  "midi": 44,
		  "name": "G#2",
		  "ticks": 163579,
		  "time": 159.7451171875,
		  "velocity": 0.3937007874015748
		},
		{
		  "duration": 0.1875,
		  "durationTicks": 192,
		  "midi": 71,
		  "name": "B4",
		  "ticks": 163767,
		  "time": 159.9287109375,
		  "velocity": 0.3937007874015748
		},
		{
		  "duration": 0.1875,
		  "durationTicks": 192,
		  "midi": 63,
		  "name": "D#4",
		  "ticks": 163767,
		  "time": 159.9287109375,
		  "velocity": 0.3937007874015748
		},
		{
		  "duration": 0.1875,
		  "durationTicks": 192,
		  "midi": 56,
		  "name": "G#3",
		  "ticks": 163767,
		  "time": 159.9287109375,
		  "velocity": 0.3937007874015748
		},
		{
		  "duration": 0.1875,
		  "durationTicks": 192,
		  "midi": 71,
		  "name": "B4",
		  "ticks": 163943,
		  "time": 160.1005859375,
		  "velocity": 0.3937007874015748
		},
		{
		  "duration": 0.1875,
		  "durationTicks": 192,
		  "midi": 63,
		  "name": "D#4",
		  "ticks": 163943,
		  "time": 160.1005859375,
		  "velocity": 0.3937007874015748
		},
		{
		  "duration": 0.1875,
		  "durationTicks": 192,
		  "midi": 56,
		  "name": "G#3",
		  "ticks": 163943,
		  "time": 160.1005859375,
		  "velocity": 0.3937007874015748
		},
		{
		  "duration": 0.1875,
		  "durationTicks": 192,
		  "midi": 71,
		  "name": "B4",
		  "ticks": 164135,
		  "time": 160.2880859375,
		  "velocity": 0.3937007874015748
		},
		{
		  "duration": 0.1875,
		  "durationTicks": 192,
		  "midi": 63,
		  "name": "D#4",
		  "ticks": 164135,
		  "time": 160.2880859375,
		  "velocity": 0.3937007874015748
		},
		{
		  "duration": 0.1875,
		  "durationTicks": 192,
		  "midi": 56,
		  "name": "G#3",
		  "ticks": 164135,
		  "time": 160.2880859375,
		  "velocity": 0.3937007874015748
		},
		{
		  "duration": 0.1875,
		  "durationTicks": 192,
		  "midi": 71,
		  "name": "B4",
		  "ticks": 164327,
		  "time": 160.4755859375,
		  "velocity": 0.3937007874015748
		},
		{
		  "duration": 0.1875,
		  "durationTicks": 192,
		  "midi": 63,
		  "name": "D#4",
		  "ticks": 164327,
		  "time": 160.4755859375,
		  "velocity": 0.3937007874015748
		},
		{
		  "duration": 0.1875,
		  "durationTicks": 192,
		  "midi": 56,
		  "name": "G#3",
		  "ticks": 164327,
		  "time": 160.4755859375,
		  "velocity": 0.3937007874015748
		},
		{
		  "duration": 0.1875,
		  "durationTicks": 192,
		  "midi": 71,
		  "name": "B4",
		  "ticks": 164519,
		  "time": 160.6630859375,
		  "velocity": 0.3937007874015748
		},
		{
		  "duration": 0.1875,
		  "durationTicks": 192,
		  "midi": 63,
		  "name": "D#4",
		  "ticks": 164519,
		  "time": 160.6630859375,
		  "velocity": 0.3937007874015748
		},
		{
		  "duration": 0.1875,
		  "durationTicks": 192,
		  "midi": 56,
		  "name": "G#3",
		  "ticks": 164519,
		  "time": 160.6630859375,
		  "velocity": 0.3937007874015748
		},
		{
		  "duration": 0.1875,
		  "durationTicks": 192,
		  "midi": 70,
		  "name": "A#4",
		  "ticks": 164711,
		  "time": 160.8505859375,
		  "velocity": 0.3937007874015748
		},
		{
		  "duration": 0.1875,
		  "durationTicks": 192,
		  "midi": 63,
		  "name": "D#4",
		  "ticks": 164711,
		  "time": 160.8505859375,
		  "velocity": 0.3937007874015748
		},
		{
		  "duration": 0.1875,
		  "durationTicks": 192,
		  "midi": 58,
		  "name": "A#3",
		  "ticks": 164715,
		  "time": 160.8544921875,
		  "velocity": 0.3937007874015748
		},
		{
		  "duration": 0.1875,
		  "durationTicks": 192,
		  "midi": 68,
		  "name": "G#4",
		  "ticks": 164903,
		  "time": 161.0380859375,
		  "velocity": 0.3937007874015748
		},
		{
		  "duration": 0.1875,
		  "durationTicks": 192,
		  "midi": 63,
		  "name": "D#4",
		  "ticks": 164903,
		  "time": 161.0380859375,
		  "velocity": 0.3937007874015748
		},
		{
		  "duration": 0.1875,
		  "durationTicks": 192,
		  "midi": 59,
		  "name": "B3",
		  "ticks": 164903,
		  "time": 161.0380859375,
		  "velocity": 0.3937007874015748
		},
		{
		  "duration": 0.1875,
		  "durationTicks": 192,
		  "midi": 67,
		  "name": "G4",
		  "ticks": 165095,
		  "time": 161.2255859375,
		  "velocity": 0.3937007874015748
		},
		{
		  "duration": 0.1875,
		  "durationTicks": 192,
		  "midi": 63,
		  "name": "D#4",
		  "ticks": 165095,
		  "time": 161.2255859375,
		  "velocity": 0.3937007874015748
		},
		{
		  "duration": 0.1875,
		  "durationTicks": 192,
		  "midi": 61,
		  "name": "C#4",
		  "ticks": 165095,
		  "time": 161.2255859375,
		  "velocity": 0.3937007874015748
		},
		{
		  "duration": 0.1875,
		  "durationTicks": 192,
		  "midi": 51,
		  "name": "D#3",
		  "ticks": 165099,
		  "time": 161.2294921875,
		  "velocity": 0.3937007874015748
		},
		{
		  "duration": 0.1875,
		  "durationTicks": 192,
		  "midi": 75,
		  "name": "D#5",
		  "ticks": 165303,
		  "time": 161.4287109375,
		  "velocity": 0.3937007874015748
		},
		{
		  "duration": 0.1875,
		  "durationTicks": 192,
		  "midi": 67,
		  "name": "G4",
		  "ticks": 165303,
		  "time": 161.4287109375,
		  "velocity": 0.3937007874015748
		},
		{
		  "duration": 0.1875,
		  "durationTicks": 192,
		  "midi": 63,
		  "name": "D#4",
		  "ticks": 165303,
		  "time": 161.4287109375,
		  "velocity": 0.3937007874015748
		},
		{
		  "duration": 0.1875,
		  "durationTicks": 192,
		  "midi": 61,
		  "name": "C#4",
		  "ticks": 165303,
		  "time": 161.4287109375,
		  "velocity": 0.3937007874015748
		},
		{
		  "duration": 0.1875,
		  "durationTicks": 192,
		  "midi": 75,
		  "name": "D#5",
		  "ticks": 165495,
		  "time": 161.6162109375,
		  "velocity": 0.3937007874015748
		},
		{
		  "duration": 0.1875,
		  "durationTicks": 192,
		  "midi": 67,
		  "name": "G4",
		  "ticks": 165495,
		  "time": 161.6162109375,
		  "velocity": 0.3937007874015748
		},
		{
		  "duration": 0.1875,
		  "durationTicks": 192,
		  "midi": 61,
		  "name": "C#4",
		  "ticks": 165495,
		  "time": 161.6162109375,
		  "velocity": 0.3937007874015748
		},
		{
		  "duration": 0.1875,
		  "durationTicks": 192,
		  "midi": 63,
		  "name": "D#4",
		  "ticks": 165499,
		  "time": 161.6201171875,
		  "velocity": 0.3937007874015748
		},
		{
		  "duration": 0.1875,
		  "durationTicks": 192,
		  "midi": 75,
		  "name": "D#5",
		  "ticks": 165687,
		  "time": 161.8037109375,
		  "velocity": 0.3937007874015748
		},
		{
		  "duration": 0.1875,
		  "durationTicks": 192,
		  "midi": 67,
		  "name": "G4",
		  "ticks": 165687,
		  "time": 161.8037109375,
		  "velocity": 0.3937007874015748
		},
		{
		  "duration": 0.1875,
		  "durationTicks": 192,
		  "midi": 61,
		  "name": "C#4",
		  "ticks": 165687,
		  "time": 161.8037109375,
		  "velocity": 0.3937007874015748
		},
		{
		  "duration": 0.1875,
		  "durationTicks": 192,
		  "midi": 63,
		  "name": "D#4",
		  "ticks": 165691,
		  "time": 161.8076171875,
		  "velocity": 0.3937007874015748
		},
		{
		  "duration": 0.1875,
		  "durationTicks": 192,
		  "midi": 75,
		  "name": "D#5",
		  "ticks": 165879,
		  "time": 161.9912109375,
		  "velocity": 0.3937007874015748
		},
		{
		  "duration": 0.1875,
		  "durationTicks": 192,
		  "midi": 67,
		  "name": "G4",
		  "ticks": 165879,
		  "time": 161.9912109375,
		  "velocity": 0.3937007874015748
		},
		{
		  "duration": 0.1875,
		  "durationTicks": 192,
		  "midi": 63,
		  "name": "D#4",
		  "ticks": 165879,
		  "time": 161.9912109375,
		  "velocity": 0.3937007874015748
		},
		{
		  "duration": 0.1875,
		  "durationTicks": 192,
		  "midi": 61,
		  "name": "C#4",
		  "ticks": 165879,
		  "time": 161.9912109375,
		  "velocity": 0.3937007874015748
		},
		{
		  "duration": 0.1875,
		  "durationTicks": 192,
		  "midi": 75,
		  "name": "D#5",
		  "ticks": 166071,
		  "time": 162.1787109375,
		  "velocity": 0.3937007874015748
		},
		{
		  "duration": 0.1875,
		  "durationTicks": 192,
		  "midi": 67,
		  "name": "G4",
		  "ticks": 166071,
		  "time": 162.1787109375,
		  "velocity": 0.3937007874015748
		},
		{
		  "duration": 0.1875,
		  "durationTicks": 192,
		  "midi": 63,
		  "name": "D#4",
		  "ticks": 166071,
		  "time": 162.1787109375,
		  "velocity": 0.3937007874015748
		},
		{
		  "duration": 0.1875,
		  "durationTicks": 192,
		  "midi": 61,
		  "name": "C#4",
		  "ticks": 166071,
		  "time": 162.1787109375,
		  "velocity": 0.3937007874015748
		},
		{
		  "duration": 0.1875,
		  "durationTicks": 192,
		  "midi": 75,
		  "name": "D#5",
		  "ticks": 166263,
		  "time": 162.3662109375,
		  "velocity": 0.3937007874015748
		},
		{
		  "duration": 0.1875,
		  "durationTicks": 192,
		  "midi": 68,
		  "name": "G#4",
		  "ticks": 166263,
		  "time": 162.3662109375,
		  "velocity": 0.3937007874015748
		},
		{
		  "duration": 0.1875,
		  "durationTicks": 192,
		  "midi": 63,
		  "name": "D#4",
		  "ticks": 166263,
		  "time": 162.3662109375,
		  "velocity": 0.3937007874015748
		},
		{
		  "duration": 0.1875,
		  "durationTicks": 192,
		  "midi": 59,
		  "name": "B3",
		  "ticks": 166263,
		  "time": 162.3662109375,
		  "velocity": 0.3937007874015748
		},
		{
		  "duration": 0.1875,
		  "durationTicks": 192,
		  "midi": 63,
		  "name": "D#4",
		  "ticks": 166455,
		  "time": 162.5537109375,
		  "velocity": 0.3937007874015748
		},
		{
		  "duration": 0.1875,
		  "durationTicks": 192,
		  "midi": 75,
		  "name": "D#5",
		  "ticks": 166455,
		  "time": 162.5537109375,
		  "velocity": 0.3937007874015748
		},
		{
		  "duration": 0.1875,
		  "durationTicks": 192,
		  "midi": 70,
		  "name": "A#4",
		  "ticks": 166455,
		  "time": 162.5537109375,
		  "velocity": 0.3937007874015748
		},
		{
		  "duration": 0.1875,
		  "durationTicks": 192,
		  "midi": 58,
		  "name": "A#3",
		  "ticks": 166455,
		  "time": 162.5537109375,
		  "velocity": 0.3937007874015748
		},
		{
		  "duration": 0.1875,
		  "durationTicks": 192,
		  "midi": 63,
		  "name": "D#4",
		  "ticks": 166647,
		  "time": 162.7412109375,
		  "velocity": 0.3937007874015748
		},
		{
		  "duration": 0.1875,
		  "durationTicks": 192,
		  "midi": 75,
		  "name": "D#5",
		  "ticks": 166647,
		  "time": 162.7412109375,
		  "velocity": 0.3937007874015748
		},
		{
		  "duration": 0.1875,
		  "durationTicks": 192,
		  "midi": 71,
		  "name": "B4",
		  "ticks": 166647,
		  "time": 162.7412109375,
		  "velocity": 0.3937007874015748
		},
		{
		  "duration": 0.1875,
		  "durationTicks": 192,
		  "midi": 56,
		  "name": "G#3",
		  "ticks": 166647,
		  "time": 162.7412109375,
		  "velocity": 0.3937007874015748
		},
		{
		  "duration": 0.1875,
		  "durationTicks": 192,
		  "midi": 44,
		  "name": "G#2",
		  "ticks": 166651,
		  "time": 162.7451171875,
		  "velocity": 0.3937007874015748
		},
		{
		  "duration": 0.1875,
		  "durationTicks": 192,
		  "midi": 71,
		  "name": "B4",
		  "ticks": 166839,
		  "time": 162.9287109375,
		  "velocity": 0.3937007874015748
		},
		{
		  "duration": 0.1875,
		  "durationTicks": 192,
		  "midi": 63,
		  "name": "D#4",
		  "ticks": 166839,
		  "time": 162.9287109375,
		  "velocity": 0.3937007874015748
		},
		{
		  "duration": 0.1875,
		  "durationTicks": 192,
		  "midi": 56,
		  "name": "G#3",
		  "ticks": 166839,
		  "time": 162.9287109375,
		  "velocity": 0.3937007874015748
		},
		{
		  "duration": 0.1875,
		  "durationTicks": 192,
		  "midi": 71,
		  "name": "B4",
		  "ticks": 167031,
		  "time": 163.1162109375,
		  "velocity": 0.3937007874015748
		},
		{
		  "duration": 0.1875,
		  "durationTicks": 192,
		  "midi": 63,
		  "name": "D#4",
		  "ticks": 167031,
		  "time": 163.1162109375,
		  "velocity": 0.3937007874015748
		},
		{
		  "duration": 0.1875,
		  "durationTicks": 192,
		  "midi": 56,
		  "name": "G#3",
		  "ticks": 167031,
		  "time": 163.1162109375,
		  "velocity": 0.3937007874015748
		},
		{
		  "duration": 0.1875,
		  "durationTicks": 192,
		  "midi": 71,
		  "name": "B4",
		  "ticks": 167223,
		  "time": 163.3037109375,
		  "velocity": 0.3937007874015748
		},
		{
		  "duration": 0.1875,
		  "durationTicks": 192,
		  "midi": 63,
		  "name": "D#4",
		  "ticks": 167223,
		  "time": 163.3037109375,
		  "velocity": 0.3937007874015748
		},
		{
		  "duration": 0.1875,
		  "durationTicks": 192,
		  "midi": 56,
		  "name": "G#3",
		  "ticks": 167223,
		  "time": 163.3037109375,
		  "velocity": 0.3937007874015748
		},
		{
		  "duration": 0.1875,
		  "durationTicks": 192,
		  "midi": 71,
		  "name": "B4",
		  "ticks": 167415,
		  "time": 163.4912109375,
		  "velocity": 0.3937007874015748
		},
		{
		  "duration": 0.1875,
		  "durationTicks": 192,
		  "midi": 63,
		  "name": "D#4",
		  "ticks": 167415,
		  "time": 163.4912109375,
		  "velocity": 0.3937007874015748
		},
		{
		  "duration": 0.1875,
		  "durationTicks": 192,
		  "midi": 56,
		  "name": "G#3",
		  "ticks": 167415,
		  "time": 163.4912109375,
		  "velocity": 0.3937007874015748
		},
		{
		  "duration": 0.1875,
		  "durationTicks": 192,
		  "midi": 71,
		  "name": "B4",
		  "ticks": 167607,
		  "time": 163.6787109375,
		  "velocity": 0.3937007874015748
		},
		{
		  "duration": 0.1875,
		  "durationTicks": 192,
		  "midi": 63,
		  "name": "D#4",
		  "ticks": 167607,
		  "time": 163.6787109375,
		  "velocity": 0.3937007874015748
		},
		{
		  "duration": 0.1875,
		  "durationTicks": 192,
		  "midi": 56,
		  "name": "G#3",
		  "ticks": 167607,
		  "time": 163.6787109375,
		  "velocity": 0.3937007874015748
		},
		{
		  "duration": 0.1875,
		  "durationTicks": 192,
		  "midi": 70,
		  "name": "A#4",
		  "ticks": 167799,
		  "time": 163.8662109375,
		  "velocity": 0.3937007874015748
		},
		{
		  "duration": 0.1875,
		  "durationTicks": 192,
		  "midi": 63,
		  "name": "D#4",
		  "ticks": 167799,
		  "time": 163.8662109375,
		  "velocity": 0.3937007874015748
		},
		{
		  "duration": 0.1875,
		  "durationTicks": 192,
		  "midi": 58,
		  "name": "A#3",
		  "ticks": 167799,
		  "time": 163.8662109375,
		  "velocity": 0.3937007874015748
		},
		{
		  "duration": 0.1875,
		  "durationTicks": 192,
		  "midi": 68,
		  "name": "G#4",
		  "ticks": 167991,
		  "time": 164.0537109375,
		  "velocity": 0.3937007874015748
		},
		{
		  "duration": 0.1875,
		  "durationTicks": 192,
		  "midi": 63,
		  "name": "D#4",
		  "ticks": 167991,
		  "time": 164.0537109375,
		  "velocity": 0.3937007874015748
		},
		{
		  "duration": 0.1875,
		  "durationTicks": 192,
		  "midi": 59,
		  "name": "B3",
		  "ticks": 167991,
		  "time": 164.0537109375,
		  "velocity": 0.3937007874015748
		},
		{
		  "duration": 0.1875,
		  "durationTicks": 192,
		  "midi": 67,
		  "name": "G4",
		  "ticks": 168183,
		  "time": 164.2412109375,
		  "velocity": 0.3937007874015748
		},
		{
		  "duration": 0.1875,
		  "durationTicks": 192,
		  "midi": 63,
		  "name": "D#4",
		  "ticks": 168183,
		  "time": 164.2412109375,
		  "velocity": 0.3937007874015748
		},
		{
		  "duration": 0.1875,
		  "durationTicks": 192,
		  "midi": 61,
		  "name": "C#4",
		  "ticks": 168183,
		  "time": 164.2412109375,
		  "velocity": 0.3937007874015748
		},
		{
		  "duration": 0.1875,
		  "durationTicks": 192,
		  "midi": 51,
		  "name": "D#3",
		  "ticks": 168187,
		  "time": 164.2451171875,
		  "velocity": 0.3937007874015748
		},
		{
		  "duration": 0.1875,
		  "durationTicks": 192,
		  "midi": 63,
		  "name": "D#4",
		  "ticks": 168375,
		  "time": 164.4287109375,
		  "velocity": 0.3937007874015748
		},
		{
		  "duration": 0.1875,
		  "durationTicks": 192,
		  "midi": 75,
		  "name": "D#5",
		  "ticks": 168375,
		  "time": 164.4287109375,
		  "velocity": 0.3937007874015748
		},
		{
		  "duration": 0.1875,
		  "durationTicks": 192,
		  "midi": 67,
		  "name": "G4",
		  "ticks": 168375,
		  "time": 164.4287109375,
		  "velocity": 0.3937007874015748
		},
		{
		  "duration": 0.1875,
		  "durationTicks": 192,
		  "midi": 61,
		  "name": "C#4",
		  "ticks": 168375,
		  "time": 164.4287109375,
		  "velocity": 0.3937007874015748
		},
		{
		  "duration": 0.1875,
		  "durationTicks": 192,
		  "midi": 75,
		  "name": "D#5",
		  "ticks": 168567,
		  "time": 164.6162109375,
		  "velocity": 0.3937007874015748
		},
		{
		  "duration": 0.1875,
		  "durationTicks": 192,
		  "midi": 67,
		  "name": "G4",
		  "ticks": 168567,
		  "time": 164.6162109375,
		  "velocity": 0.3937007874015748
		},
		{
		  "duration": 0.1875,
		  "durationTicks": 192,
		  "midi": 63,
		  "name": "D#4",
		  "ticks": 168567,
		  "time": 164.6162109375,
		  "velocity": 0.3937007874015748
		},
		{
		  "duration": 0.1875,
		  "durationTicks": 192,
		  "midi": 61,
		  "name": "C#4",
		  "ticks": 168567,
		  "time": 164.6162109375,
		  "velocity": 0.3937007874015748
		},
		{
		  "duration": 0.1875,
		  "durationTicks": 192,
		  "midi": 75,
		  "name": "D#5",
		  "ticks": 168759,
		  "time": 164.8037109375,
		  "velocity": 0.3937007874015748
		},
		{
		  "duration": 0.1875,
		  "durationTicks": 192,
		  "midi": 67,
		  "name": "G4",
		  "ticks": 168759,
		  "time": 164.8037109375,
		  "velocity": 0.3937007874015748
		},
		{
		  "duration": 0.1875,
		  "durationTicks": 192,
		  "midi": 61,
		  "name": "C#4",
		  "ticks": 168759,
		  "time": 164.8037109375,
		  "velocity": 0.3937007874015748
		},
		{
		  "duration": 0.1875,
		  "durationTicks": 192,
		  "midi": 63,
		  "name": "D#4",
		  "ticks": 168763,
		  "time": 164.8076171875,
		  "velocity": 0.3937007874015748
		},
		{
		  "duration": 0.1875,
		  "durationTicks": 192,
		  "midi": 75,
		  "name": "D#5",
		  "ticks": 168951,
		  "time": 164.9912109375,
		  "velocity": 0.3937007874015748
		},
		{
		  "duration": 0.1875,
		  "durationTicks": 192,
		  "midi": 67,
		  "name": "G4",
		  "ticks": 168951,
		  "time": 164.9912109375,
		  "velocity": 0.3937007874015748
		},
		{
		  "duration": 0.1875,
		  "durationTicks": 192,
		  "midi": 61,
		  "name": "C#4",
		  "ticks": 168951,
		  "time": 164.9912109375,
		  "velocity": 0.3937007874015748
		},
		{
		  "duration": 0.1875,
		  "durationTicks": 192,
		  "midi": 63,
		  "name": "D#4",
		  "ticks": 168955,
		  "time": 164.9951171875,
		  "velocity": 0.3937007874015748
		},
		{
		  "duration": 0.1875,
		  "durationTicks": 192,
		  "midi": 75,
		  "name": "D#5",
		  "ticks": 169143,
		  "time": 165.1787109375,
		  "velocity": 0.3937007874015748
		},
		{
		  "duration": 0.1875,
		  "durationTicks": 192,
		  "midi": 67,
		  "name": "G4",
		  "ticks": 169143,
		  "time": 165.1787109375,
		  "velocity": 0.3937007874015748
		},
		{
		  "duration": 0.1875,
		  "durationTicks": 192,
		  "midi": 63,
		  "name": "D#4",
		  "ticks": 169143,
		  "time": 165.1787109375,
		  "velocity": 0.3937007874015748
		},
		{
		  "duration": 0.1875,
		  "durationTicks": 192,
		  "midi": 61,
		  "name": "C#4",
		  "ticks": 169143,
		  "time": 165.1787109375,
		  "velocity": 0.3937007874015748
		},
		{
		  "duration": 0.1875,
		  "durationTicks": 192,
		  "midi": 75,
		  "name": "D#5",
		  "ticks": 169335,
		  "time": 165.3662109375,
		  "velocity": 0.3937007874015748
		},
		{
		  "duration": 0.1875,
		  "durationTicks": 192,
		  "midi": 68,
		  "name": "G#4",
		  "ticks": 169335,
		  "time": 165.3662109375,
		  "velocity": 0.3937007874015748
		},
		{
		  "duration": 0.1875,
		  "durationTicks": 192,
		  "midi": 63,
		  "name": "D#4",
		  "ticks": 169335,
		  "time": 165.3662109375,
		  "velocity": 0.3937007874015748
		},
		{
		  "duration": 0.1875,
		  "durationTicks": 192,
		  "midi": 59,
		  "name": "B3",
		  "ticks": 169335,
		  "time": 165.3662109375,
		  "velocity": 0.3937007874015748
		},
		{
		  "duration": 0.1875,
		  "durationTicks": 192,
		  "midi": 75,
		  "name": "D#5",
		  "ticks": 169527,
		  "time": 165.5537109375,
		  "velocity": 0.3937007874015748
		},
		{
		  "duration": 0.1875,
		  "durationTicks": 192,
		  "midi": 70,
		  "name": "A#4",
		  "ticks": 169527,
		  "time": 165.5537109375,
		  "velocity": 0.3937007874015748
		},
		{
		  "duration": 0.1875,
		  "durationTicks": 192,
		  "midi": 63,
		  "name": "D#4",
		  "ticks": 169527,
		  "time": 165.5537109375,
		  "velocity": 0.3937007874015748
		},
		{
		  "duration": 0.1875,
		  "durationTicks": 192,
		  "midi": 58,
		  "name": "A#3",
		  "ticks": 169527,
		  "time": 165.5537109375,
		  "velocity": 0.3937007874015748
		},
		{
		  "duration": 0.1875,
		  "durationTicks": 192,
		  "midi": 71,
		  "name": "B4",
		  "ticks": 169719,
		  "time": 165.7412109375,
		  "velocity": 0.3937007874015748
		},
		{
		  "duration": 0.1875,
		  "durationTicks": 192,
		  "midi": 75,
		  "name": "D#5",
		  "ticks": 169719,
		  "time": 165.7412109375,
		  "velocity": 0.3937007874015748
		},
		{
		  "duration": 0.1875,
		  "durationTicks": 192,
		  "midi": 63,
		  "name": "D#4",
		  "ticks": 169719,
		  "time": 165.7412109375,
		  "velocity": 0.3937007874015748
		},
		{
		  "duration": 0.1875,
		  "durationTicks": 192,
		  "midi": 44,
		  "name": "G#2",
		  "ticks": 169719,
		  "time": 165.7412109375,
		  "velocity": 0.3937007874015748
		},
		{
		  "duration": 0.1875,
		  "durationTicks": 192,
		  "midi": 56,
		  "name": "G#3",
		  "ticks": 169719,
		  "time": 165.7412109375,
		  "velocity": 0.3937007874015748
		},
		{
		  "duration": 0.1875,
		  "durationTicks": 192,
		  "midi": 71,
		  "name": "B4",
		  "ticks": 169895,
		  "time": 165.9130859375,
		  "velocity": 0.3937007874015748
		},
		{
		  "duration": 0.1875,
		  "durationTicks": 192,
		  "midi": 75,
		  "name": "D#5",
		  "ticks": 169895,
		  "time": 165.9130859375,
		  "velocity": 0.3937007874015748
		},
		{
		  "duration": 0.1875,
		  "durationTicks": 192,
		  "midi": 59,
		  "name": "B3",
		  "ticks": 169895,
		  "time": 165.9130859375,
		  "velocity": 0.3937007874015748
		},
		{
		  "duration": 0.1875,
		  "durationTicks": 192,
		  "midi": 56,
		  "name": "G#3",
		  "ticks": 169895,
		  "time": 165.9130859375,
		  "velocity": 0.3937007874015748
		},
		{
		  "duration": 0.1875,
		  "durationTicks": 192,
		  "midi": 75,
		  "name": "D#5",
		  "ticks": 170087,
		  "time": 166.1005859375,
		  "velocity": 0.3937007874015748
		},
		{
		  "duration": 0.1875,
		  "durationTicks": 192,
		  "midi": 71,
		  "name": "B4",
		  "ticks": 170087,
		  "time": 166.1005859375,
		  "velocity": 0.3937007874015748
		},
		{
		  "duration": 0.1875,
		  "durationTicks": 192,
		  "midi": 59,
		  "name": "B3",
		  "ticks": 170091,
		  "time": 166.1044921875,
		  "velocity": 0.3937007874015748
		},
		{
		  "duration": 0.1875,
		  "durationTicks": 192,
		  "midi": 56,
		  "name": "G#3",
		  "ticks": 170091,
		  "time": 166.1044921875,
		  "velocity": 0.3937007874015748
		},
		{
		  "duration": 0.1875,
		  "durationTicks": 192,
		  "midi": 71,
		  "name": "B4",
		  "ticks": 170295,
		  "time": 166.3037109375,
		  "velocity": 0.3937007874015748
		},
		{
		  "duration": 0.1875,
		  "durationTicks": 192,
		  "midi": 68,
		  "name": "G#4",
		  "ticks": 170295,
		  "time": 166.3037109375,
		  "velocity": 0.3937007874015748
		},
		{
		  "duration": 0.1875,
		  "durationTicks": 192,
		  "midi": 63,
		  "name": "D#4",
		  "ticks": 170295,
		  "time": 166.3037109375,
		  "velocity": 0.3937007874015748
		},
		{
		  "duration": 0.1875,
		  "durationTicks": 192,
		  "midi": 59,
		  "name": "B3",
		  "ticks": 170295,
		  "time": 166.3037109375,
		  "velocity": 0.3937007874015748
		},
		{
		  "duration": 0.1875,
		  "durationTicks": 192,
		  "midi": 49,
		  "name": "C#3",
		  "ticks": 170487,
		  "time": 166.4912109375,
		  "velocity": 0.3937007874015748
		},
		{
		  "duration": 0.1875,
		  "durationTicks": 192,
		  "midi": 76,
		  "name": "E5",
		  "ticks": 170663,
		  "time": 166.6630859375,
		  "velocity": 0.3937007874015748
		},
		{
		  "duration": 0.1875,
		  "durationTicks": 192,
		  "midi": 73,
		  "name": "C#5",
		  "ticks": 170663,
		  "time": 166.6630859375,
		  "velocity": 0.3937007874015748
		},
		{
		  "duration": 0.1875,
		  "durationTicks": 192,
		  "midi": 61,
		  "name": "C#4",
		  "ticks": 170663,
		  "time": 166.6630859375,
		  "velocity": 0.3937007874015748
		},
		{
		  "duration": 0.1875,
		  "durationTicks": 192,
		  "midi": 56,
		  "name": "G#3",
		  "ticks": 170663,
		  "time": 166.6630859375,
		  "velocity": 0.3937007874015748
		},
		{
		  "duration": 0.1875,
		  "durationTicks": 192,
		  "midi": 76,
		  "name": "E5",
		  "ticks": 170855,
		  "time": 166.8505859375,
		  "velocity": 0.3937007874015748
		},
		{
		  "duration": 0.1875,
		  "durationTicks": 192,
		  "midi": 73,
		  "name": "C#5",
		  "ticks": 170855,
		  "time": 166.8505859375,
		  "velocity": 0.3937007874015748
		},
		{
		  "duration": 0.1875,
		  "durationTicks": 192,
		  "midi": 61,
		  "name": "C#4",
		  "ticks": 170855,
		  "time": 166.8505859375,
		  "velocity": 0.3937007874015748
		},
		{
		  "duration": 0.1875,
		  "durationTicks": 192,
		  "midi": 56,
		  "name": "G#3",
		  "ticks": 170855,
		  "time": 166.8505859375,
		  "velocity": 0.3937007874015748
		},
		{
		  "duration": 0.1875,
		  "durationTicks": 192,
		  "midi": 73,
		  "name": "C#5",
		  "ticks": 171063,
		  "time": 167.0537109375,
		  "velocity": 0.3937007874015748
		},
		{
		  "duration": 0.1875,
		  "durationTicks": 192,
		  "midi": 68,
		  "name": "G#4",
		  "ticks": 171063,
		  "time": 167.0537109375,
		  "velocity": 0.3937007874015748
		},
		{
		  "duration": 0.1875,
		  "durationTicks": 192,
		  "midi": 64,
		  "name": "E4",
		  "ticks": 171063,
		  "time": 167.0537109375,
		  "velocity": 0.3937007874015748
		},
		{
		  "duration": 0.1875,
		  "durationTicks": 192,
		  "midi": 61,
		  "name": "C#4",
		  "ticks": 171067,
		  "time": 167.0576171875,
		  "velocity": 0.3937007874015748
		},
		{
		  "duration": 0.1875,
		  "durationTicks": 192,
		  "midi": 51,
		  "name": "D#3",
		  "ticks": 171255,
		  "time": 167.2412109375,
		  "velocity": 0.3937007874015748
		},
		{
		  "duration": 0.1875,
		  "durationTicks": 192,
		  "midi": 75,
		  "name": "D#5",
		  "ticks": 171431,
		  "time": 167.4130859375,
		  "velocity": 0.3937007874015748
		},
		{
		  "duration": 0.1875,
		  "durationTicks": 192,
		  "midi": 71,
		  "name": "B4",
		  "ticks": 171431,
		  "time": 167.4130859375,
		  "velocity": 0.3937007874015748
		},
		{
		  "duration": 0.1875,
		  "durationTicks": 192,
		  "midi": 59,
		  "name": "B3",
		  "ticks": 171431,
		  "time": 167.4130859375,
		  "velocity": 0.3937007874015748
		},
		{
		  "duration": 0.1875,
		  "durationTicks": 192,
		  "midi": 56,
		  "name": "G#3",
		  "ticks": 171435,
		  "time": 167.4169921875,
		  "velocity": 0.3937007874015748
		},
		{
		  "duration": 0.1875,
		  "durationTicks": 192,
		  "midi": 75,
		  "name": "D#5",
		  "ticks": 171623,
		  "time": 167.6005859375,
		  "velocity": 0.3937007874015748
		},
		{
		  "duration": 0.1875,
		  "durationTicks": 192,
		  "midi": 71,
		  "name": "B4",
		  "ticks": 171623,
		  "time": 167.6005859375,
		  "velocity": 0.3937007874015748
		},
		{
		  "duration": 0.1875,
		  "durationTicks": 192,
		  "midi": 59,
		  "name": "B3",
		  "ticks": 171623,
		  "time": 167.6005859375,
		  "velocity": 0.3937007874015748
		},
		{
		  "duration": 0.1875,
		  "durationTicks": 192,
		  "midi": 56,
		  "name": "G#3",
		  "ticks": 171627,
		  "time": 167.6044921875,
		  "velocity": 0.3937007874015748
		},
		{
		  "duration": 0.1875,
		  "durationTicks": 192,
		  "midi": 71,
		  "name": "B4",
		  "ticks": 171831,
		  "time": 167.8037109375,
		  "velocity": 0.3937007874015748
		},
		{
		  "duration": 0.1875,
		  "durationTicks": 192,
		  "midi": 68,
		  "name": "G#4",
		  "ticks": 171831,
		  "time": 167.8037109375,
		  "velocity": 0.3937007874015748
		},
		{
		  "duration": 0.1875,
		  "durationTicks": 192,
		  "midi": 63,
		  "name": "D#4",
		  "ticks": 171831,
		  "time": 167.8037109375,
		  "velocity": 0.3937007874015748
		},
		{
		  "duration": 0.1875,
		  "durationTicks": 192,
		  "midi": 59,
		  "name": "B3",
		  "ticks": 171831,
		  "time": 167.8037109375,
		  "velocity": 0.3937007874015748
		},
		{
		  "duration": 0.1875,
		  "durationTicks": 192,
		  "midi": 51,
		  "name": "D#3",
		  "ticks": 172023,
		  "time": 167.9912109375,
		  "velocity": 0.3937007874015748
		},
		{
		  "duration": 0.1875,
		  "durationTicks": 192,
		  "midi": 75,
		  "name": "D#5",
		  "ticks": 172199,
		  "time": 168.1630859375,
		  "velocity": 0.3937007874015748
		},
		{
		  "duration": 0.1875,
		  "durationTicks": 192,
		  "midi": 70,
		  "name": "A#4",
		  "ticks": 172199,
		  "time": 168.1630859375,
		  "velocity": 0.3937007874015748
		},
		{
		  "duration": 0.1875,
		  "durationTicks": 192,
		  "midi": 58,
		  "name": "A#3",
		  "ticks": 172199,
		  "time": 168.1630859375,
		  "velocity": 0.3937007874015748
		},
		{
		  "duration": 0.1875,
		  "durationTicks": 192,
		  "midi": 55,
		  "name": "G3",
		  "ticks": 172199,
		  "time": 168.1630859375,
		  "velocity": 0.3937007874015748
		},
		{
		  "duration": 0.1875,
		  "durationTicks": 192,
		  "midi": 75,
		  "name": "D#5",
		  "ticks": 172391,
		  "time": 168.3505859375,
		  "velocity": 0.3937007874015748
		},
		{
		  "duration": 0.1875,
		  "durationTicks": 192,
		  "midi": 70,
		  "name": "A#4",
		  "ticks": 172391,
		  "time": 168.3505859375,
		  "velocity": 0.3937007874015748
		},
		{
		  "duration": 0.1875,
		  "durationTicks": 192,
		  "midi": 58,
		  "name": "A#3",
		  "ticks": 172391,
		  "time": 168.3505859375,
		  "velocity": 0.3937007874015748
		},
		{
		  "duration": 0.1875,
		  "durationTicks": 192,
		  "midi": 55,
		  "name": "G3",
		  "ticks": 172395,
		  "time": 168.3544921875,
		  "velocity": 0.3937007874015748
		},
		{
		  "duration": 0.1875,
		  "durationTicks": 192,
		  "midi": 70,
		  "name": "A#4",
		  "ticks": 172599,
		  "time": 168.5537109375,
		  "velocity": 0.3937007874015748
		},
		{
		  "duration": 0.1875,
		  "durationTicks": 192,
		  "midi": 67,
		  "name": "G4",
		  "ticks": 172599,
		  "time": 168.5537109375,
		  "velocity": 0.3937007874015748
		},
		{
		  "duration": 0.1875,
		  "durationTicks": 192,
		  "midi": 63,
		  "name": "D#4",
		  "ticks": 172599,
		  "time": 168.5537109375,
		  "velocity": 0.3937007874015748
		},
		{
		  "duration": 0.1875,
		  "durationTicks": 192,
		  "midi": 58,
		  "name": "A#3",
		  "ticks": 172599,
		  "time": 168.5537109375,
		  "velocity": 0.3937007874015748
		},
		{
		  "duration": 0.1875,
		  "durationTicks": 192,
		  "midi": 44,
		  "name": "G#2",
		  "ticks": 172779,
		  "time": 168.7294921875,
		  "velocity": 0.3937007874015748
		},
		{
		  "duration": 0.1875,
		  "durationTicks": 192,
		  "midi": 32,
		  "name": "G#1",
		  "ticks": 172779,
		  "time": 168.7294921875,
		  "velocity": 0.3937007874015748
		},
		{
		  "duration": 0.1875,
		  "durationTicks": 192,
		  "midi": 68,
		  "name": "G#4",
		  "ticks": 172791,
		  "time": 168.7412109375,
		  "velocity": 0.3937007874015748
		},
		{
		  "duration": 0.1875,
		  "durationTicks": 192,
		  "midi": 71,
		  "name": "B4",
		  "ticks": 172791,
		  "time": 168.7412109375,
		  "velocity": 0.3937007874015748
		},
		{
		  "duration": 0.1875,
		  "durationTicks": 192,
		  "midi": 71,
		  "name": "B4",
		  "ticks": 172983,
		  "time": 168.9287109375,
		  "velocity": 0.3937007874015748
		},
		{
		  "duration": 0.1875,
		  "durationTicks": 192,
		  "midi": 83,
		  "name": "B5",
		  "ticks": 172983,
		  "time": 168.9287109375,
		  "velocity": 0.3937007874015748
		},
		{
		  "duration": 0.1875,
		  "durationTicks": 192,
		  "midi": 75,
		  "name": "D#5",
		  "ticks": 172983,
		  "time": 168.9287109375,
		  "velocity": 0.3937007874015748
		},
		{
		  "duration": 0.1875,
		  "durationTicks": 192,
		  "midi": 51,
		  "name": "D#3",
		  "ticks": 172983,
		  "time": 168.9287109375,
		  "velocity": 0.3937007874015748
		},
		{
		  "duration": 0.1875,
		  "durationTicks": 192,
		  "midi": 44,
		  "name": "G#2",
		  "ticks": 172983,
		  "time": 168.9287109375,
		  "velocity": 0.3937007874015748
		},
		{
		  "duration": 0.1875,
		  "durationTicks": 192,
		  "midi": 83,
		  "name": "B5",
		  "ticks": 173175,
		  "time": 169.1162109375,
		  "velocity": 0.3937007874015748
		},
		{
		  "duration": 0.1875,
		  "durationTicks": 192,
		  "midi": 75,
		  "name": "D#5",
		  "ticks": 173175,
		  "time": 169.1162109375,
		  "velocity": 0.3937007874015748
		},
		{
		  "duration": 0.1875,
		  "durationTicks": 192,
		  "midi": 71,
		  "name": "B4",
		  "ticks": 173175,
		  "time": 169.1162109375,
		  "velocity": 0.3937007874015748
		},
		{
		  "duration": 0.1875,
		  "durationTicks": 192,
		  "midi": 44,
		  "name": "G#2",
		  "ticks": 173179,
		  "time": 169.1201171875,
		  "velocity": 0.3937007874015748
		},
		{
		  "duration": 0.1875,
		  "durationTicks": 192,
		  "midi": 51,
		  "name": "D#3",
		  "ticks": 173179,
		  "time": 169.1201171875,
		  "velocity": 0.3937007874015748
		},
		{
		  "duration": 0.1875,
		  "durationTicks": 192,
		  "midi": 83,
		  "name": "B5",
		  "ticks": 173367,
		  "time": 169.3037109375,
		  "velocity": 0.3937007874015748
		},
		{
		  "duration": 0.1875,
		  "durationTicks": 192,
		  "midi": 75,
		  "name": "D#5",
		  "ticks": 173367,
		  "time": 169.3037109375,
		  "velocity": 0.3937007874015748
		},
		{
		  "duration": 0.1875,
		  "durationTicks": 192,
		  "midi": 71,
		  "name": "B4",
		  "ticks": 173367,
		  "time": 169.3037109375,
		  "velocity": 0.3937007874015748
		},
		{
		  "duration": 0.1875,
		  "durationTicks": 192,
		  "midi": 44,
		  "name": "G#2",
		  "ticks": 173371,
		  "time": 169.3076171875,
		  "velocity": 0.3937007874015748
		},
		{
		  "duration": 0.1875,
		  "durationTicks": 192,
		  "midi": 51,
		  "name": "D#3",
		  "ticks": 173371,
		  "time": 169.3076171875,
		  "velocity": 0.3937007874015748
		},
		{
		  "duration": 0.1875,
		  "durationTicks": 192,
		  "midi": 83,
		  "name": "B5",
		  "ticks": 173559,
		  "time": 169.4912109375,
		  "velocity": 0.3937007874015748
		},
		{
		  "duration": 0.1875,
		  "durationTicks": 192,
		  "midi": 75,
		  "name": "D#5",
		  "ticks": 173559,
		  "time": 169.4912109375,
		  "velocity": 0.3937007874015748
		},
		{
		  "duration": 0.1875,
		  "durationTicks": 192,
		  "midi": 71,
		  "name": "B4",
		  "ticks": 173559,
		  "time": 169.4912109375,
		  "velocity": 0.3937007874015748
		},
		{
		  "duration": 0.1875,
		  "durationTicks": 192,
		  "midi": 44,
		  "name": "G#2",
		  "ticks": 173559,
		  "time": 169.4912109375,
		  "velocity": 0.3937007874015748
		},
		{
		  "duration": 0.1875,
		  "durationTicks": 192,
		  "midi": 51,
		  "name": "D#3",
		  "ticks": 173563,
		  "time": 169.4951171875,
		  "velocity": 0.3937007874015748
		},
		{
		  "duration": 0.1875,
		  "durationTicks": 192,
		  "midi": 83,
		  "name": "B5",
		  "ticks": 173751,
		  "time": 169.6787109375,
		  "velocity": 0.3937007874015748
		},
		{
		  "duration": 0.1875,
		  "durationTicks": 192,
		  "midi": 75,
		  "name": "D#5",
		  "ticks": 173751,
		  "time": 169.6787109375,
		  "velocity": 0.3937007874015748
		},
		{
		  "duration": 0.1875,
		  "durationTicks": 192,
		  "midi": 71,
		  "name": "B4",
		  "ticks": 173751,
		  "time": 169.6787109375,
		  "velocity": 0.3937007874015748
		},
		{
		  "duration": 0.1875,
		  "durationTicks": 192,
		  "midi": 44,
		  "name": "G#2",
		  "ticks": 173751,
		  "time": 169.6787109375,
		  "velocity": 0.3937007874015748
		},
		{
		  "duration": 0.1875,
		  "durationTicks": 192,
		  "midi": 51,
		  "name": "D#3",
		  "ticks": 173755,
		  "time": 169.6826171875,
		  "velocity": 0.3937007874015748
		},
		{
		  "duration": 0.1875,
		  "durationTicks": 192,
		  "midi": 82,
		  "name": "A#5",
		  "ticks": 173943,
		  "time": 169.8662109375,
		  "velocity": 0.3937007874015748
		},
		{
		  "duration": 0.1875,
		  "durationTicks": 192,
		  "midi": 73,
		  "name": "C#5",
		  "ticks": 173943,
		  "time": 169.8662109375,
		  "velocity": 0.3937007874015748
		},
		{
		  "duration": 0.1875,
		  "durationTicks": 192,
		  "midi": 70,
		  "name": "A#4",
		  "ticks": 173943,
		  "time": 169.8662109375,
		  "velocity": 0.3937007874015748
		},
		{
		  "duration": 0.1875,
		  "durationTicks": 192,
		  "midi": 46,
		  "name": "A#2",
		  "ticks": 173943,
		  "time": 169.8662109375,
		  "velocity": 0.3937007874015748
		},
		{
		  "duration": 0.1875,
		  "durationTicks": 192,
		  "midi": 51,
		  "name": "D#3",
		  "ticks": 173943,
		  "time": 169.8662109375,
		  "velocity": 0.3937007874015748
		},
		{
		  "duration": 0.1875,
		  "durationTicks": 192,
		  "midi": 80,
		  "name": "G#5",
		  "ticks": 174135,
		  "time": 170.0537109375,
		  "velocity": 0.3937007874015748
		},
		{
		  "duration": 0.1875,
		  "durationTicks": 192,
		  "midi": 71,
		  "name": "B4",
		  "ticks": 174135,
		  "time": 170.0537109375,
		  "velocity": 0.3937007874015748
		},
		{
		  "duration": 0.1875,
		  "durationTicks": 192,
		  "midi": 68,
		  "name": "G#4",
		  "ticks": 174135,
		  "time": 170.0537109375,
		  "velocity": 0.3937007874015748
		},
		{
		  "duration": 0.1875,
		  "durationTicks": 192,
		  "midi": 47,
		  "name": "B2",
		  "ticks": 174139,
		  "time": 170.0576171875,
		  "velocity": 0.3937007874015748
		},
		{
		  "duration": 0.1875,
		  "durationTicks": 192,
		  "midi": 51,
		  "name": "D#3",
		  "ticks": 174139,
		  "time": 170.0576171875,
		  "velocity": 0.3937007874015748
		},
		{
		  "duration": 0.1875,
		  "durationTicks": 192,
		  "midi": 79,
		  "name": "G5",
		  "ticks": 174327,
		  "time": 170.2412109375,
		  "velocity": 0.3937007874015748
		},
		{
		  "duration": 0.1875,
		  "durationTicks": 192,
		  "midi": 70,
		  "name": "A#4",
		  "ticks": 174327,
		  "time": 170.2412109375,
		  "velocity": 0.3937007874015748
		},
		{
		  "duration": 0.1875,
		  "durationTicks": 192,
		  "midi": 67,
		  "name": "G4",
		  "ticks": 174327,
		  "time": 170.2412109375,
		  "velocity": 0.3937007874015748
		},
		{
		  "duration": 0.1875,
		  "durationTicks": 192,
		  "midi": 39,
		  "name": "D#2",
		  "ticks": 174331,
		  "time": 170.2451171875,
		  "velocity": 0.3937007874015748
		},
		{
		  "duration": 0.1875,
		  "durationTicks": 192,
		  "midi": 51,
		  "name": "D#3",
		  "ticks": 174331,
		  "time": 170.2451171875,
		  "velocity": 0.3937007874015748
		},
		{
		  "duration": 0.1875,
		  "durationTicks": 192,
		  "midi": 49,
		  "name": "C#3",
		  "ticks": 174331,
		  "time": 170.2451171875,
		  "velocity": 0.3937007874015748
		},
		{
		  "duration": 0.1875,
		  "durationTicks": 192,
		  "midi": 88,
		  "name": "E6",
		  "ticks": 174519,
		  "time": 170.4287109375,
		  "velocity": 0.3937007874015748
		},
		{
		  "duration": 0.1875,
		  "durationTicks": 192,
		  "midi": 79,
		  "name": "G5",
		  "ticks": 174519,
		  "time": 170.4287109375,
		  "velocity": 0.3937007874015748
		},
		{
		  "duration": 0.1875,
		  "durationTicks": 192,
		  "midi": 76,
		  "name": "E5",
		  "ticks": 174519,
		  "time": 170.4287109375,
		  "velocity": 0.3937007874015748
		},
		{
		  "duration": 0.1875,
		  "durationTicks": 192,
		  "midi": 51,
		  "name": "D#3",
		  "ticks": 174523,
		  "time": 170.4326171875,
		  "velocity": 0.3937007874015748
		},
		{
		  "duration": 0.1875,
		  "durationTicks": 192,
		  "midi": 61,
		  "name": "C#4",
		  "ticks": 174523,
		  "time": 170.4326171875,
		  "velocity": 0.3937007874015748
		},
		{
		  "duration": 0.1875,
		  "durationTicks": 192,
		  "midi": 88,
		  "name": "E6",
		  "ticks": 174711,
		  "time": 170.6162109375,
		  "velocity": 0.3937007874015748
		},
		{
		  "duration": 0.1875,
		  "durationTicks": 192,
		  "midi": 79,
		  "name": "G5",
		  "ticks": 174711,
		  "time": 170.6162109375,
		  "velocity": 0.3937007874015748
		},
		{
		  "duration": 0.1875,
		  "durationTicks": 192,
		  "midi": 76,
		  "name": "E5",
		  "ticks": 174711,
		  "time": 170.6162109375,
		  "velocity": 0.3937007874015748
		},
		{
		  "duration": 0.1875,
		  "durationTicks": 192,
		  "midi": 51,
		  "name": "D#3",
		  "ticks": 174711,
		  "time": 170.6162109375,
		  "velocity": 0.3937007874015748
		},
		{
		  "duration": 0.1875,
		  "durationTicks": 192,
		  "midi": 61,
		  "name": "C#4",
		  "ticks": 174715,
		  "time": 170.6201171875,
		  "velocity": 0.3937007874015748
		},
		{
		  "duration": 0.1875,
		  "durationTicks": 192,
		  "midi": 88,
		  "name": "E6",
		  "ticks": 174903,
		  "time": 170.8037109375,
		  "velocity": 0.3937007874015748
		},
		{
		  "duration": 0.1875,
		  "durationTicks": 192,
		  "midi": 79,
		  "name": "G5",
		  "ticks": 174903,
		  "time": 170.8037109375,
		  "velocity": 0.3937007874015748
		},
		{
		  "duration": 0.1875,
		  "durationTicks": 192,
		  "midi": 76,
		  "name": "E5",
		  "ticks": 174903,
		  "time": 170.8037109375,
		  "velocity": 0.3937007874015748
		},
		{
		  "duration": 0.1875,
		  "durationTicks": 192,
		  "midi": 51,
		  "name": "D#3",
		  "ticks": 174903,
		  "time": 170.8037109375,
		  "velocity": 0.3937007874015748
		},
		{
		  "duration": 0.1875,
		  "durationTicks": 192,
		  "midi": 61,
		  "name": "C#4",
		  "ticks": 174907,
		  "time": 170.8076171875,
		  "velocity": 0.3937007874015748
		},
		{
		  "duration": 0.1875,
		  "durationTicks": 192,
		  "midi": 88,
		  "name": "E6",
		  "ticks": 175095,
		  "time": 170.9912109375,
		  "velocity": 0.3937007874015748
		},
		{
		  "duration": 0.1875,
		  "durationTicks": 192,
		  "midi": 79,
		  "name": "G5",
		  "ticks": 175095,
		  "time": 170.9912109375,
		  "velocity": 0.3937007874015748
		},
		{
		  "duration": 0.1875,
		  "durationTicks": 192,
		  "midi": 76,
		  "name": "E5",
		  "ticks": 175095,
		  "time": 170.9912109375,
		  "velocity": 0.3937007874015748
		},
		{
		  "duration": 0.1875,
		  "durationTicks": 192,
		  "midi": 51,
		  "name": "D#3",
		  "ticks": 175095,
		  "time": 170.9912109375,
		  "velocity": 0.3937007874015748
		},
		{
		  "duration": 0.1875,
		  "durationTicks": 192,
		  "midi": 61,
		  "name": "C#4",
		  "ticks": 175095,
		  "time": 170.9912109375,
		  "velocity": 0.3937007874015748
		},
		{
		  "duration": 0.1875,
		  "durationTicks": 192,
		  "midi": 88,
		  "name": "E6",
		  "ticks": 175287,
		  "time": 171.1787109375,
		  "velocity": 0.3937007874015748
		},
		{
		  "duration": 0.1875,
		  "durationTicks": 192,
		  "midi": 79,
		  "name": "G5",
		  "ticks": 175287,
		  "time": 171.1787109375,
		  "velocity": 0.3937007874015748
		},
		{
		  "duration": 0.1875,
		  "durationTicks": 192,
		  "midi": 76,
		  "name": "E5",
		  "ticks": 175287,
		  "time": 171.1787109375,
		  "velocity": 0.3937007874015748
		},
		{
		  "duration": 0.1875,
		  "durationTicks": 192,
		  "midi": 51,
		  "name": "D#3",
		  "ticks": 175291,
		  "time": 171.1826171875,
		  "velocity": 0.3937007874015748
		},
		{
		  "duration": 0.1875,
		  "durationTicks": 192,
		  "midi": 61,
		  "name": "C#4",
		  "ticks": 175291,
		  "time": 171.1826171875,
		  "velocity": 0.3937007874015748
		},
		{
		  "duration": 0.1875,
		  "durationTicks": 192,
		  "midi": 87,
		  "name": "D#6",
		  "ticks": 175479,
		  "time": 171.3662109375,
		  "velocity": 0.3937007874015748
		},
		{
		  "duration": 0.1875,
		  "durationTicks": 192,
		  "midi": 79,
		  "name": "G5",
		  "ticks": 175479,
		  "time": 171.3662109375,
		  "velocity": 0.3937007874015748
		},
		{
		  "duration": 0.1875,
		  "durationTicks": 192,
		  "midi": 75,
		  "name": "D#5",
		  "ticks": 175479,
		  "time": 171.3662109375,
		  "velocity": 0.3937007874015748
		},
		{
		  "duration": 0.1875,
		  "durationTicks": 192,
		  "midi": 51,
		  "name": "D#3",
		  "ticks": 175483,
		  "time": 171.3701171875,
		  "velocity": 0.3937007874015748
		},
		{
		  "duration": 0.1875,
		  "durationTicks": 192,
		  "midi": 59,
		  "name": "B3",
		  "ticks": 175483,
		  "time": 171.3701171875,
		  "velocity": 0.3937007874015748
		},
		{
		  "duration": 0.1875,
		  "durationTicks": 192,
		  "midi": 85,
		  "name": "C#6",
		  "ticks": 175671,
		  "time": 171.5537109375,
		  "velocity": 0.3937007874015748
		},
		{
		  "duration": 0.1875,
		  "durationTicks": 192,
		  "midi": 79,
		  "name": "G5",
		  "ticks": 175671,
		  "time": 171.5537109375,
		  "velocity": 0.3937007874015748
		},
		{
		  "duration": 0.1875,
		  "durationTicks": 192,
		  "midi": 73,
		  "name": "C#5",
		  "ticks": 175671,
		  "time": 171.5537109375,
		  "velocity": 0.3937007874015748
		},
		{
		  "duration": 0.1875,
		  "durationTicks": 192,
		  "midi": 51,
		  "name": "D#3",
		  "ticks": 175671,
		  "time": 171.5537109375,
		  "velocity": 0.3937007874015748
		},
		{
		  "duration": 0.1875,
		  "durationTicks": 192,
		  "midi": 58,
		  "name": "A#3",
		  "ticks": 175675,
		  "time": 171.5576171875,
		  "velocity": 0.3937007874015748
		},
		{
		  "duration": 0.1875,
		  "durationTicks": 192,
		  "midi": 32,
		  "name": "G#1",
		  "ticks": 175859,
		  "time": 171.7373046875,
		  "velocity": 0.3937007874015748
		},
		{
		  "duration": 0.1875,
		  "durationTicks": 192,
		  "midi": 71,
		  "name": "B4",
		  "ticks": 175863,
		  "time": 171.7412109375,
		  "velocity": 0.3937007874015748
		},
		{
		  "duration": 0.1875,
		  "durationTicks": 192,
		  "midi": 83,
		  "name": "B5",
		  "ticks": 175863,
		  "time": 171.7412109375,
		  "velocity": 0.3937007874015748
		},
		{
		  "duration": 0.1875,
		  "durationTicks": 192,
		  "midi": 80,
		  "name": "G#5",
		  "ticks": 175863,
		  "time": 171.7412109375,
		  "velocity": 0.3937007874015748
		},
		{
		  "duration": 0.1875,
		  "durationTicks": 192,
		  "midi": 44,
		  "name": "G#2",
		  "ticks": 175863,
		  "time": 171.7412109375,
		  "velocity": 0.3937007874015748
		},
		{
		  "duration": 0.1875,
		  "durationTicks": 192,
		  "midi": 83,
		  "name": "B5",
		  "ticks": 176055,
		  "time": 171.9287109375,
		  "velocity": 0.3937007874015748
		},
		{
		  "duration": 0.1875,
		  "durationTicks": 192,
		  "midi": 75,
		  "name": "D#5",
		  "ticks": 176055,
		  "time": 171.9287109375,
		  "velocity": 0.3937007874015748
		},
		{
		  "duration": 0.1875,
		  "durationTicks": 192,
		  "midi": 71,
		  "name": "B4",
		  "ticks": 176055,
		  "time": 171.9287109375,
		  "velocity": 0.3937007874015748
		},
		{
		  "duration": 0.1875,
		  "durationTicks": 192,
		  "midi": 44,
		  "name": "G#2",
		  "ticks": 176055,
		  "time": 171.9287109375,
		  "velocity": 0.3937007874015748
		},
		{
		  "duration": 0.1875,
		  "durationTicks": 192,
		  "midi": 51,
		  "name": "D#3",
		  "ticks": 176055,
		  "time": 171.9287109375,
		  "velocity": 0.3937007874015748
		},
		{
		  "duration": 0.1875,
		  "durationTicks": 192,
		  "midi": 83,
		  "name": "B5",
		  "ticks": 176247,
		  "time": 172.1162109375,
		  "velocity": 0.3937007874015748
		},
		{
		  "duration": 0.1875,
		  "durationTicks": 192,
		  "midi": 75,
		  "name": "D#5",
		  "ticks": 176247,
		  "time": 172.1162109375,
		  "velocity": 0.3937007874015748
		},
		{
		  "duration": 0.1875,
		  "durationTicks": 192,
		  "midi": 71,
		  "name": "B4",
		  "ticks": 176247,
		  "time": 172.1162109375,
		  "velocity": 0.3937007874015748
		},
		{
		  "duration": 0.1875,
		  "durationTicks": 192,
		  "midi": 44,
		  "name": "G#2",
		  "ticks": 176247,
		  "time": 172.1162109375,
		  "velocity": 0.3937007874015748
		},
		{
		  "duration": 0.1875,
		  "durationTicks": 192,
		  "midi": 51,
		  "name": "D#3",
		  "ticks": 176247,
		  "time": 172.1162109375,
		  "velocity": 0.3937007874015748
		},
		{
		  "duration": 0.1875,
		  "durationTicks": 192,
		  "midi": 83,
		  "name": "B5",
		  "ticks": 176439,
		  "time": 172.3037109375,
		  "velocity": 0.3937007874015748
		},
		{
		  "duration": 0.1875,
		  "durationTicks": 192,
		  "midi": 75,
		  "name": "D#5",
		  "ticks": 176439,
		  "time": 172.3037109375,
		  "velocity": 0.3937007874015748
		},
		{
		  "duration": 0.1875,
		  "durationTicks": 192,
		  "midi": 71,
		  "name": "B4",
		  "ticks": 176439,
		  "time": 172.3037109375,
		  "velocity": 0.3937007874015748
		},
		{
		  "duration": 0.1875,
		  "durationTicks": 192,
		  "midi": 44,
		  "name": "G#2",
		  "ticks": 176443,
		  "time": 172.3076171875,
		  "velocity": 0.3937007874015748
		},
		{
		  "duration": 0.1875,
		  "durationTicks": 192,
		  "midi": 51,
		  "name": "D#3",
		  "ticks": 176443,
		  "time": 172.3076171875,
		  "velocity": 0.3937007874015748
		},
		{
		  "duration": 0.1875,
		  "durationTicks": 192,
		  "midi": 83,
		  "name": "B5",
		  "ticks": 176631,
		  "time": 172.4912109375,
		  "velocity": 0.3937007874015748
		},
		{
		  "duration": 0.1875,
		  "durationTicks": 192,
		  "midi": 75,
		  "name": "D#5",
		  "ticks": 176631,
		  "time": 172.4912109375,
		  "velocity": 0.3937007874015748
		},
		{
		  "duration": 0.1875,
		  "durationTicks": 192,
		  "midi": 71,
		  "name": "B4",
		  "ticks": 176631,
		  "time": 172.4912109375,
		  "velocity": 0.3937007874015748
		},
		{
		  "duration": 0.1875,
		  "durationTicks": 192,
		  "midi": 44,
		  "name": "G#2",
		  "ticks": 176635,
		  "time": 172.4951171875,
		  "velocity": 0.3937007874015748
		},
		{
		  "duration": 0.1875,
		  "durationTicks": 192,
		  "midi": 51,
		  "name": "D#3",
		  "ticks": 176635,
		  "time": 172.4951171875,
		  "velocity": 0.3937007874015748
		},
		{
		  "duration": 0.1875,
		  "durationTicks": 192,
		  "midi": 83,
		  "name": "B5",
		  "ticks": 176823,
		  "time": 172.6787109375,
		  "velocity": 0.3937007874015748
		},
		{
		  "duration": 0.1875,
		  "durationTicks": 192,
		  "midi": 75,
		  "name": "D#5",
		  "ticks": 176823,
		  "time": 172.6787109375,
		  "velocity": 0.3937007874015748
		},
		{
		  "duration": 0.1875,
		  "durationTicks": 192,
		  "midi": 71,
		  "name": "B4",
		  "ticks": 176823,
		  "time": 172.6787109375,
		  "velocity": 0.3937007874015748
		},
		{
		  "duration": 0.1875,
		  "durationTicks": 192,
		  "midi": 44,
		  "name": "G#2",
		  "ticks": 176823,
		  "time": 172.6787109375,
		  "velocity": 0.3937007874015748
		},
		{
		  "duration": 0.1875,
		  "durationTicks": 192,
		  "midi": 51,
		  "name": "D#3",
		  "ticks": 176827,
		  "time": 172.6826171875,
		  "velocity": 0.3937007874015748
		},
		{
		  "duration": 0.1875,
		  "durationTicks": 192,
		  "midi": 82,
		  "name": "A#5",
		  "ticks": 177015,
		  "time": 172.8662109375,
		  "velocity": 0.3937007874015748
		},
		{
		  "duration": 0.1875,
		  "durationTicks": 192,
		  "midi": 73,
		  "name": "C#5",
		  "ticks": 177015,
		  "time": 172.8662109375,
		  "velocity": 0.3937007874015748
		},
		{
		  "duration": 0.1875,
		  "durationTicks": 192,
		  "midi": 70,
		  "name": "A#4",
		  "ticks": 177015,
		  "time": 172.8662109375,
		  "velocity": 0.3937007874015748
		},
		{
		  "duration": 0.1875,
		  "durationTicks": 192,
		  "midi": 46,
		  "name": "A#2",
		  "ticks": 177015,
		  "time": 172.8662109375,
		  "velocity": 0.3937007874015748
		},
		{
		  "duration": 0.1875,
		  "durationTicks": 192,
		  "midi": 51,
		  "name": "D#3",
		  "ticks": 177019,
		  "time": 172.8701171875,
		  "velocity": 0.3937007874015748
		},
		{
		  "duration": 0.1875,
		  "durationTicks": 192,
		  "midi": 80,
		  "name": "G#5",
		  "ticks": 177207,
		  "time": 173.0537109375,
		  "velocity": 0.3937007874015748
		},
		{
		  "duration": 0.1875,
		  "durationTicks": 192,
		  "midi": 71,
		  "name": "B4",
		  "ticks": 177207,
		  "time": 173.0537109375,
		  "velocity": 0.3937007874015748
		},
		{
		  "duration": 0.1875,
		  "durationTicks": 192,
		  "midi": 68,
		  "name": "G#4",
		  "ticks": 177207,
		  "time": 173.0537109375,
		  "velocity": 0.3937007874015748
		},
		{
		  "duration": 0.1875,
		  "durationTicks": 192,
		  "midi": 47,
		  "name": "B2",
		  "ticks": 177207,
		  "time": 173.0537109375,
		  "velocity": 0.3937007874015748
		},
		{
		  "duration": 0.1875,
		  "durationTicks": 192,
		  "midi": 51,
		  "name": "D#3",
		  "ticks": 177207,
		  "time": 173.0537109375,
		  "velocity": 0.3937007874015748
		},
		{
		  "duration": 0.1875,
		  "durationTicks": 192,
		  "midi": 79,
		  "name": "G5",
		  "ticks": 177399,
		  "time": 173.2412109375,
		  "velocity": 0.3937007874015748
		},
		{
		  "duration": 0.1875,
		  "durationTicks": 192,
		  "midi": 70,
		  "name": "A#4",
		  "ticks": 177399,
		  "time": 173.2412109375,
		  "velocity": 0.3937007874015748
		},
		{
		  "duration": 0.1875,
		  "durationTicks": 192,
		  "midi": 67,
		  "name": "G4",
		  "ticks": 177399,
		  "time": 173.2412109375,
		  "velocity": 0.3937007874015748
		},
		{
		  "duration": 0.1875,
		  "durationTicks": 192,
		  "midi": 51,
		  "name": "D#3",
		  "ticks": 177403,
		  "time": 173.2451171875,
		  "velocity": 0.3937007874015748
		},
		{
		  "duration": 0.1875,
		  "durationTicks": 192,
		  "midi": 49,
		  "name": "C#3",
		  "ticks": 177403,
		  "time": 173.2451171875,
		  "velocity": 0.3937007874015748
		},
		{
		  "duration": 0.1875,
		  "durationTicks": 192,
		  "midi": 39,
		  "name": "D#2",
		  "ticks": 177403,
		  "time": 173.2451171875,
		  "velocity": 0.3937007874015748
		},
		{
		  "duration": 0.1875,
		  "durationTicks": 192,
		  "midi": 76,
		  "name": "E5",
		  "ticks": 177591,
		  "time": 173.4287109375,
		  "velocity": 0.3937007874015748
		},
		{
		  "duration": 0.1875,
		  "durationTicks": 192,
		  "midi": 79,
		  "name": "G5",
		  "ticks": 177591,
		  "time": 173.4287109375,
		  "velocity": 0.3937007874015748
		},
		{
		  "duration": 0.1875,
		  "durationTicks": 192,
		  "midi": 88,
		  "name": "E6",
		  "ticks": 177591,
		  "time": 173.4287109375,
		  "velocity": 0.3937007874015748
		},
		{
		  "duration": 0.1875,
		  "durationTicks": 192,
		  "midi": 51,
		  "name": "D#3",
		  "ticks": 177595,
		  "time": 173.4326171875,
		  "velocity": 0.3937007874015748
		},
		{
		  "duration": 0.1875,
		  "durationTicks": 192,
		  "midi": 61,
		  "name": "C#4",
		  "ticks": 177595,
		  "time": 173.4326171875,
		  "velocity": 0.3937007874015748
		},
		{
		  "duration": 0.1875,
		  "durationTicks": 192,
		  "midi": 79,
		  "name": "G5",
		  "ticks": 177783,
		  "time": 173.6162109375,
		  "velocity": 0.3937007874015748
		},
		{
		  "duration": 0.1875,
		  "durationTicks": 192,
		  "midi": 88,
		  "name": "E6",
		  "ticks": 177783,
		  "time": 173.6162109375,
		  "velocity": 0.3937007874015748
		},
		{
		  "duration": 0.1875,
		  "durationTicks": 192,
		  "midi": 76,
		  "name": "E5",
		  "ticks": 177783,
		  "time": 173.6162109375,
		  "velocity": 0.3937007874015748
		},
		{
		  "duration": 0.1875,
		  "durationTicks": 192,
		  "midi": 51,
		  "name": "D#3",
		  "ticks": 177787,
		  "time": 173.6201171875,
		  "velocity": 0.3937007874015748
		},
		{
		  "duration": 0.1875,
		  "durationTicks": 192,
		  "midi": 61,
		  "name": "C#4",
		  "ticks": 177787,
		  "time": 173.6201171875,
		  "velocity": 0.3937007874015748
		},
		{
		  "duration": 0.1875,
		  "durationTicks": 192,
		  "midi": 79,
		  "name": "G5",
		  "ticks": 177975,
		  "time": 173.8037109375,
		  "velocity": 0.3937007874015748
		},
		{
		  "duration": 0.1875,
		  "durationTicks": 192,
		  "midi": 88,
		  "name": "E6",
		  "ticks": 177975,
		  "time": 173.8037109375,
		  "velocity": 0.3937007874015748
		},
		{
		  "duration": 0.1875,
		  "durationTicks": 192,
		  "midi": 76,
		  "name": "E5",
		  "ticks": 177975,
		  "time": 173.8037109375,
		  "velocity": 0.3937007874015748
		},
		{
		  "duration": 0.1875,
		  "durationTicks": 192,
		  "midi": 51,
		  "name": "D#3",
		  "ticks": 177975,
		  "time": 173.8037109375,
		  "velocity": 0.3937007874015748
		},
		{
		  "duration": 0.1875,
		  "durationTicks": 192,
		  "midi": 61,
		  "name": "C#4",
		  "ticks": 177979,
		  "time": 173.8076171875,
		  "velocity": 0.3937007874015748
		},
		{
		  "duration": 0.1875,
		  "durationTicks": 192,
		  "midi": 79,
		  "name": "G5",
		  "ticks": 178167,
		  "time": 173.9912109375,
		  "velocity": 0.3937007874015748
		},
		{
		  "duration": 0.1875,
		  "durationTicks": 192,
		  "midi": 88,
		  "name": "E6",
		  "ticks": 178167,
		  "time": 173.9912109375,
		  "velocity": 0.3937007874015748
		},
		{
		  "duration": 0.1875,
		  "durationTicks": 192,
		  "midi": 76,
		  "name": "E5",
		  "ticks": 178167,
		  "time": 173.9912109375,
		  "velocity": 0.3937007874015748
		},
		{
		  "duration": 0.1875,
		  "durationTicks": 192,
		  "midi": 51,
		  "name": "D#3",
		  "ticks": 178167,
		  "time": 173.9912109375,
		  "velocity": 0.3937007874015748
		},
		{
		  "duration": 0.1875,
		  "durationTicks": 192,
		  "midi": 61,
		  "name": "C#4",
		  "ticks": 178171,
		  "time": 173.9951171875,
		  "velocity": 0.3937007874015748
		},
		{
		  "duration": 0.1875,
		  "durationTicks": 192,
		  "midi": 79,
		  "name": "G5",
		  "ticks": 178359,
		  "time": 174.1787109375,
		  "velocity": 0.3937007874015748
		},
		{
		  "duration": 0.1875,
		  "durationTicks": 192,
		  "midi": 88,
		  "name": "E6",
		  "ticks": 178359,
		  "time": 174.1787109375,
		  "velocity": 0.3937007874015748
		},
		{
		  "duration": 0.1875,
		  "durationTicks": 192,
		  "midi": 76,
		  "name": "E5",
		  "ticks": 178359,
		  "time": 174.1787109375,
		  "velocity": 0.3937007874015748
		},
		{
		  "duration": 0.1875,
		  "durationTicks": 192,
		  "midi": 51,
		  "name": "D#3",
		  "ticks": 178359,
		  "time": 174.1787109375,
		  "velocity": 0.3937007874015748
		},
		{
		  "duration": 0.1875,
		  "durationTicks": 192,
		  "midi": 61,
		  "name": "C#4",
		  "ticks": 178359,
		  "time": 174.1787109375,
		  "velocity": 0.3937007874015748
		},
		{
		  "duration": 0.1875,
		  "durationTicks": 192,
		  "midi": 79,
		  "name": "G5",
		  "ticks": 178551,
		  "time": 174.3662109375,
		  "velocity": 0.3937007874015748
		},
		{
		  "duration": 0.1875,
		  "durationTicks": 192,
		  "midi": 87,
		  "name": "D#6",
		  "ticks": 178551,
		  "time": 174.3662109375,
		  "velocity": 0.3937007874015748
		},
		{
		  "duration": 0.1875,
		  "durationTicks": 192,
		  "midi": 75,
		  "name": "D#5",
		  "ticks": 178551,
		  "time": 174.3662109375,
		  "velocity": 0.3937007874015748
		},
		{
		  "duration": 0.1875,
		  "durationTicks": 192,
		  "midi": 51,
		  "name": "D#3",
		  "ticks": 178555,
		  "time": 174.3701171875,
		  "velocity": 0.3937007874015748
		},
		{
		  "duration": 0.1875,
		  "durationTicks": 192,
		  "midi": 59,
		  "name": "B3",
		  "ticks": 178555,
		  "time": 174.3701171875,
		  "velocity": 0.3937007874015748
		},
		{
		  "duration": 0.1875,
		  "durationTicks": 192,
		  "midi": 79,
		  "name": "G5",
		  "ticks": 178743,
		  "time": 174.5537109375,
		  "velocity": 0.3937007874015748
		},
		{
		  "duration": 0.1875,
		  "durationTicks": 192,
		  "midi": 85,
		  "name": "C#6",
		  "ticks": 178743,
		  "time": 174.5537109375,
		  "velocity": 0.3937007874015748
		},
		{
		  "duration": 0.1875,
		  "durationTicks": 192,
		  "midi": 73,
		  "name": "C#5",
		  "ticks": 178743,
		  "time": 174.5537109375,
		  "velocity": 0.3937007874015748
		},
		{
		  "duration": 0.1875,
		  "durationTicks": 192,
		  "midi": 51,
		  "name": "D#3",
		  "ticks": 178747,
		  "time": 174.5576171875,
		  "velocity": 0.3937007874015748
		},
		{
		  "duration": 0.1875,
		  "durationTicks": 192,
		  "midi": 58,
		  "name": "A#3",
		  "ticks": 178747,
		  "time": 174.5576171875,
		  "velocity": 0.3937007874015748
		},
		{
		  "duration": 0.1875,
		  "durationTicks": 192,
		  "midi": 71,
		  "name": "B4",
		  "ticks": 178935,
		  "time": 174.7412109375,
		  "velocity": 0.3937007874015748
		},
		{
		  "duration": 0.1875,
		  "durationTicks": 192,
		  "midi": 83,
		  "name": "B5",
		  "ticks": 178935,
		  "time": 174.7412109375,
		  "velocity": 0.3937007874015748
		},
		{
		  "duration": 0.1875,
		  "durationTicks": 192,
		  "midi": 80,
		  "name": "G#5",
		  "ticks": 178935,
		  "time": 174.7412109375,
		  "velocity": 0.3937007874015748
		},
		{
		  "duration": 0.1875,
		  "durationTicks": 192,
		  "midi": 44,
		  "name": "G#2",
		  "ticks": 178935,
		  "time": 174.7412109375,
		  "velocity": 0.3937007874015748
		},
		{
		  "duration": 0.1875,
		  "durationTicks": 192,
		  "midi": 56,
		  "name": "G#3",
		  "ticks": 178935,
		  "time": 174.7412109375,
		  "velocity": 0.3937007874015748
		},
		{
		  "duration": 0.1875,
		  "durationTicks": 192,
		  "midi": 83,
		  "name": "B5",
		  "ticks": 179127,
		  "time": 174.9287109375,
		  "velocity": 0.3937007874015748
		},
		{
		  "duration": 0.1875,
		  "durationTicks": 192,
		  "midi": 80,
		  "name": "G#5",
		  "ticks": 179127,
		  "time": 174.9287109375,
		  "velocity": 0.3937007874015748
		},
		{
		  "duration": 0.1875,
		  "durationTicks": 192,
		  "midi": 63,
		  "name": "D#4",
		  "ticks": 179127,
		  "time": 174.9287109375,
		  "velocity": 0.3937007874015748
		},
		{
		  "duration": 0.1875,
		  "durationTicks": 192,
		  "midi": 59,
		  "name": "B3",
		  "ticks": 179127,
		  "time": 174.9287109375,
		  "velocity": 0.3937007874015748
		},
		{
		  "duration": 0.1875,
		  "durationTicks": 192,
		  "midi": 83,
		  "name": "B5",
		  "ticks": 179303,
		  "time": 175.1005859375,
		  "velocity": 0.3937007874015748
		},
		{
		  "duration": 0.1875,
		  "durationTicks": 192,
		  "midi": 80,
		  "name": "G#5",
		  "ticks": 179303,
		  "time": 175.1005859375,
		  "velocity": 0.3937007874015748
		},
		{
		  "duration": 0.1875,
		  "durationTicks": 192,
		  "midi": 63,
		  "name": "D#4",
		  "ticks": 179303,
		  "time": 175.1005859375,
		  "velocity": 0.3937007874015748
		},
		{
		  "duration": 0.1875,
		  "durationTicks": 192,
		  "midi": 59,
		  "name": "B3",
		  "ticks": 179303,
		  "time": 175.1005859375,
		  "velocity": 0.3937007874015748
		},
		{
		  "duration": 0.1875,
		  "durationTicks": 192,
		  "midi": 87,
		  "name": "D#6",
		  "ticks": 179511,
		  "time": 175.3037109375,
		  "velocity": 0.3937007874015748
		},
		{
		  "duration": 0.1875,
		  "durationTicks": 192,
		  "midi": 83,
		  "name": "B5",
		  "ticks": 179511,
		  "time": 175.3037109375,
		  "velocity": 0.3937007874015748
		},
		{
		  "duration": 0.1875,
		  "durationTicks": 192,
		  "midi": 59,
		  "name": "B3",
		  "ticks": 179515,
		  "time": 175.3076171875,
		  "velocity": 0.3937007874015748
		},
		{
		  "duration": 0.1875,
		  "durationTicks": 192,
		  "midi": 56,
		  "name": "G#3",
		  "ticks": 179515,
		  "time": 175.3076171875,
		  "velocity": 0.3937007874015748
		},
		{
		  "duration": 0.1875,
		  "durationTicks": 192,
		  "midi": 49,
		  "name": "C#3",
		  "ticks": 179703,
		  "time": 175.4912109375,
		  "velocity": 0.3937007874015748
		},
		{
		  "duration": 0.1875,
		  "durationTicks": 192,
		  "midi": 85,
		  "name": "C#6",
		  "ticks": 179879,
		  "time": 175.6630859375,
		  "velocity": 0.3937007874015748
		},
		{
		  "duration": 0.1875,
		  "durationTicks": 192,
		  "midi": 80,
		  "name": "G#5",
		  "ticks": 179879,
		  "time": 175.6630859375,
		  "velocity": 0.3937007874015748
		},
		{
		  "duration": 0.1875,
		  "durationTicks": 192,
		  "midi": 64,
		  "name": "E4",
		  "ticks": 179883,
		  "time": 175.6669921875,
		  "velocity": 0.3937007874015748
		},
		{
		  "duration": 0.1875,
		  "durationTicks": 192,
		  "midi": 61,
		  "name": "C#4",
		  "ticks": 179883,
		  "time": 175.6669921875,
		  "velocity": 0.3937007874015748
		},
		{
		  "duration": 0.1875,
		  "durationTicks": 192,
		  "midi": 85,
		  "name": "C#6",
		  "ticks": 180071,
		  "time": 175.8505859375,
		  "velocity": 0.3937007874015748
		},
		{
		  "duration": 0.1875,
		  "durationTicks": 192,
		  "midi": 80,
		  "name": "G#5",
		  "ticks": 180071,
		  "time": 175.8505859375,
		  "velocity": 0.3937007874015748
		},
		{
		  "duration": 0.1875,
		  "durationTicks": 192,
		  "midi": 64,
		  "name": "E4",
		  "ticks": 180071,
		  "time": 175.8505859375,
		  "velocity": 0.3937007874015748
		},
		{
		  "duration": 0.1875,
		  "durationTicks": 192,
		  "midi": 61,
		  "name": "C#4",
		  "ticks": 180075,
		  "time": 175.8544921875,
		  "velocity": 0.3937007874015748
		},
		{
		  "duration": 0.1875,
		  "durationTicks": 192,
		  "midi": 88,
		  "name": "E6",
		  "ticks": 180279,
		  "time": 176.0537109375,
		  "velocity": 0.3937007874015748
		},
		{
		  "duration": 0.1875,
		  "durationTicks": 192,
		  "midi": 85,
		  "name": "C#6",
		  "ticks": 180279,
		  "time": 176.0537109375,
		  "velocity": 0.3937007874015748
		},
		{
		  "duration": 0.1875,
		  "durationTicks": 192,
		  "midi": 56,
		  "name": "G#3",
		  "ticks": 180279,
		  "time": 176.0537109375,
		  "velocity": 0.3937007874015748
		},
		{
		  "duration": 0.1875,
		  "durationTicks": 192,
		  "midi": 61,
		  "name": "C#4",
		  "ticks": 180279,
		  "time": 176.0537109375,
		  "velocity": 0.3937007874015748
		},
		{
		  "duration": 0.1875,
		  "durationTicks": 192,
		  "midi": 51,
		  "name": "D#3",
		  "ticks": 180455,
		  "time": 176.2255859375,
		  "velocity": 0.3937007874015748
		},
		{
		  "duration": 0.1875,
		  "durationTicks": 192,
		  "midi": 80,
		  "name": "G#5",
		  "ticks": 180647,
		  "time": 176.4130859375,
		  "velocity": 0.3937007874015748
		},
		{
		  "duration": 0.1875,
		  "durationTicks": 192,
		  "midi": 83,
		  "name": "B5",
		  "ticks": 180647,
		  "time": 176.4130859375,
		  "velocity": 0.3937007874015748
		},
		{
		  "duration": 0.1875,
		  "durationTicks": 192,
		  "midi": 59,
		  "name": "B3",
		  "ticks": 180647,
		  "time": 176.4130859375,
		  "velocity": 0.3937007874015748
		},
		{
		  "duration": 0.1875,
		  "durationTicks": 192,
		  "midi": 63,
		  "name": "D#4",
		  "ticks": 180647,
		  "time": 176.4130859375,
		  "velocity": 0.3937007874015748
		},
		{
		  "duration": 0.1875,
		  "durationTicks": 192,
		  "midi": 80,
		  "name": "G#5",
		  "ticks": 180839,
		  "time": 176.6005859375,
		  "velocity": 0.3937007874015748
		},
		{
		  "duration": 0.1875,
		  "durationTicks": 192,
		  "midi": 83,
		  "name": "B5",
		  "ticks": 180839,
		  "time": 176.6005859375,
		  "velocity": 0.3937007874015748
		},
		{
		  "duration": 0.1875,
		  "durationTicks": 192,
		  "midi": 59,
		  "name": "B3",
		  "ticks": 180839,
		  "time": 176.6005859375,
		  "velocity": 0.3937007874015748
		},
		{
		  "duration": 0.1875,
		  "durationTicks": 192,
		  "midi": 63,
		  "name": "D#4",
		  "ticks": 180839,
		  "time": 176.6005859375,
		  "velocity": 0.3937007874015748
		},
		{
		  "duration": 0.1875,
		  "durationTicks": 192,
		  "midi": 83,
		  "name": "B5",
		  "ticks": 181047,
		  "time": 176.8037109375,
		  "velocity": 0.3937007874015748
		},
		{
		  "duration": 0.1875,
		  "durationTicks": 192,
		  "midi": 87,
		  "name": "D#6",
		  "ticks": 181047,
		  "time": 176.8037109375,
		  "velocity": 0.3937007874015748
		},
		{
		  "duration": 0.1875,
		  "durationTicks": 192,
		  "midi": 56,
		  "name": "G#3",
		  "ticks": 181047,
		  "time": 176.8037109375,
		  "velocity": 0.3937007874015748
		},
		{
		  "duration": 0.1875,
		  "durationTicks": 192,
		  "midi": 59,
		  "name": "B3",
		  "ticks": 181047,
		  "time": 176.8037109375,
		  "velocity": 0.3937007874015748
		},
		{
		  "duration": 0.1875,
		  "durationTicks": 192,
		  "midi": 49,
		  "name": "C#3",
		  "ticks": 181239,
		  "time": 176.9912109375,
		  "velocity": 0.3937007874015748
		},
		{
		  "duration": 0.1875,
		  "durationTicks": 192,
		  "midi": 79,
		  "name": "G5",
		  "ticks": 181415,
		  "time": 177.1630859375,
		  "velocity": 0.3937007874015748
		},
		{
		  "duration": 0.1875,
		  "durationTicks": 192,
		  "midi": 82,
		  "name": "A#5",
		  "ticks": 181415,
		  "time": 177.1630859375,
		  "velocity": 0.3937007874015748
		},
		{
		  "duration": 0.1875,
		  "durationTicks": 192,
		  "midi": 63,
		  "name": "D#4",
		  "ticks": 181415,
		  "time": 177.1630859375,
		  "velocity": 0.3937007874015748
		},
		{
		  "duration": 0.1875,
		  "durationTicks": 192,
		  "midi": 58,
		  "name": "A#3",
		  "ticks": 181419,
		  "time": 177.1669921875,
		  "velocity": 0.3937007874015748
		},
		{
		  "duration": 0.1875,
		  "durationTicks": 192,
		  "midi": 79,
		  "name": "G5",
		  "ticks": 181607,
		  "time": 177.3505859375,
		  "velocity": 0.3937007874015748
		},
		{
		  "duration": 0.1875,
		  "durationTicks": 192,
		  "midi": 82,
		  "name": "A#5",
		  "ticks": 181607,
		  "time": 177.3505859375,
		  "velocity": 0.3937007874015748
		},
		{
		  "duration": 0.1875,
		  "durationTicks": 192,
		  "midi": 58,
		  "name": "A#3",
		  "ticks": 181607,
		  "time": 177.3505859375,
		  "velocity": 0.3937007874015748
		},
		{
		  "duration": 0.1875,
		  "durationTicks": 192,
		  "midi": 63,
		  "name": "D#4",
		  "ticks": 181607,
		  "time": 177.3505859375,
		  "velocity": 0.3937007874015748
		},
		{
		  "duration": 0.1875,
		  "durationTicks": 192,
		  "midi": 82,
		  "name": "A#5",
		  "ticks": 181815,
		  "time": 177.5537109375,
		  "velocity": 0.3937007874015748
		},
		{
		  "duration": 0.1875,
		  "durationTicks": 192,
		  "midi": 87,
		  "name": "D#6",
		  "ticks": 181815,
		  "time": 177.5537109375,
		  "velocity": 0.3937007874015748
		},
		{
		  "duration": 0.1875,
		  "durationTicks": 192,
		  "midi": 58,
		  "name": "A#3",
		  "ticks": 181815,
		  "time": 177.5537109375,
		  "velocity": 0.3937007874015748
		},
		{
		  "duration": 0.1875,
		  "durationTicks": 192,
		  "midi": 55,
		  "name": "G3",
		  "ticks": 181819,
		  "time": 177.5576171875,
		  "velocity": 0.3937007874015748
		},
		{
		  "duration": 0.1884765625,
		  "durationTicks": 193,
		  "midi": 47,
		  "name": "B2",
		  "ticks": 182007,
		  "time": 177.7412109375,
		  "velocity": 0.3937007874015748
		},
		{
		  "duration": 0.1884765625,
		  "durationTicks": 193,
		  "midi": 83,
		  "name": "B5",
		  "ticks": 182187,
		  "time": 177.9169921875,
		  "velocity": 0.3937007874015748
		},
		{
		  "duration": 0.1884765625,
		  "durationTicks": 193,
		  "midi": 75,
		  "name": "D#5",
		  "ticks": 182187,
		  "time": 177.9169921875,
		  "velocity": 0.3937007874015748
		},
		{
		  "duration": 0.1884765625,
		  "durationTicks": 193,
		  "midi": 68,
		  "name": "G#4",
		  "ticks": 182187,
		  "time": 177.9169921875,
		  "velocity": 0.3937007874015748
		},
		{
		  "duration": 0.1884765625,
		  "durationTicks": 193,
		  "midi": 63,
		  "name": "D#4",
		  "ticks": 182191,
		  "time": 177.9208984375,
		  "velocity": 0.3937007874015748
		},
		{
		  "duration": 0.1875,
		  "durationTicks": 192,
		  "midi": 75,
		  "name": "D#5",
		  "ticks": 182376,
		  "time": 178.1015625,
		  "velocity": 0.3937007874015748
		},
		{
		  "duration": 0.1875,
		  "durationTicks": 192,
		  "midi": 68,
		  "name": "G#4",
		  "ticks": 182376,
		  "time": 178.1015625,
		  "velocity": 0.3937007874015748
		},
		{
		  "duration": 0.1875,
		  "durationTicks": 192,
		  "midi": 63,
		  "name": "D#4",
		  "ticks": 182376,
		  "time": 178.1015625,
		  "velocity": 0.3937007874015748
		},
		{
		  "duration": 0.1875,
		  "durationTicks": 192,
		  "midi": 83,
		  "name": "B5",
		  "ticks": 182380,
		  "time": 178.10546875,
		  "velocity": 0.3937007874015748
		},
		{
		  "duration": 0.1875,
		  "durationTicks": 192,
		  "midi": 80,
		  "name": "G#5",
		  "ticks": 182572,
		  "time": 178.29296875,
		  "velocity": 0.3937007874015748
		},
		{
		  "duration": 0.1875,
		  "durationTicks": 192,
		  "midi": 87,
		  "name": "D#6",
		  "ticks": 182572,
		  "time": 178.29296875,
		  "velocity": 0.3937007874015748
		},
		{
		  "duration": 0.1875,
		  "durationTicks": 192,
		  "midi": 63,
		  "name": "D#4",
		  "ticks": 182572,
		  "time": 178.29296875,
		  "velocity": 0.3937007874015748
		},
		{
		  "duration": 0.1875,
		  "durationTicks": 192,
		  "midi": 59,
		  "name": "B3",
		  "ticks": 182572,
		  "time": 178.29296875,
		  "velocity": 0.3937007874015748
		},
		{
		  "duration": 0.1875,
		  "durationTicks": 192,
		  "midi": 49,
		  "name": "C#3",
		  "ticks": 182780,
		  "time": 178.49609375,
		  "velocity": 0.3937007874015748
		},
		{
		  "duration": 0.1875,
		  "durationTicks": 192,
		  "midi": 81,
		  "name": "A5",
		  "ticks": 182960,
		  "time": 178.671875,
		  "velocity": 0.3937007874015748
		},
		{
		  "duration": 0.1875,
		  "durationTicks": 192,
		  "midi": 73,
		  "name": "C#5",
		  "ticks": 182960,
		  "time": 178.671875,
		  "velocity": 0.3937007874015748
		},
		{
		  "duration": 0.1875,
		  "durationTicks": 192,
		  "midi": 69,
		  "name": "A4",
		  "ticks": 182960,
		  "time": 178.671875,
		  "velocity": 0.3937007874015748
		},
		{
		  "duration": 0.1875,
		  "durationTicks": 192,
		  "midi": 64,
		  "name": "E4",
		  "ticks": 182960,
		  "time": 178.671875,
		  "velocity": 0.3937007874015748
		},
		{
		  "duration": 0.1875,
		  "durationTicks": 192,
		  "midi": 73,
		  "name": "C#5",
		  "ticks": 183144,
		  "time": 178.8515625,
		  "velocity": 0.3937007874015748
		},
		{
		  "duration": 0.1875,
		  "durationTicks": 192,
		  "midi": 69,
		  "name": "A4",
		  "ticks": 183144,
		  "time": 178.8515625,
		  "velocity": 0.3937007874015748
		},
		{
		  "duration": 0.1875,
		  "durationTicks": 192,
		  "midi": 64,
		  "name": "E4",
		  "ticks": 183144,
		  "time": 178.8515625,
		  "velocity": 0.3937007874015748
		},
		{
		  "duration": 0.1875,
		  "durationTicks": 192,
		  "midi": 81,
		  "name": "A5",
		  "ticks": 183148,
		  "time": 178.85546875,
		  "velocity": 0.3937007874015748
		},
		{
		  "duration": 0.1875,
		  "durationTicks": 192,
		  "midi": 85,
		  "name": "C#6",
		  "ticks": 183340,
		  "time": 179.04296875,
		  "velocity": 0.3937007874015748
		},
		{
		  "duration": 0.1875,
		  "durationTicks": 192,
		  "midi": 76,
		  "name": "E5",
		  "ticks": 183340,
		  "time": 179.04296875,
		  "velocity": 0.3937007874015748
		},
		{
		  "duration": 0.1875,
		  "durationTicks": 192,
		  "midi": 64,
		  "name": "E4",
		  "ticks": 183340,
		  "time": 179.04296875,
		  "velocity": 0.3937007874015748
		},
		{
		  "duration": 0.1875,
		  "durationTicks": 192,
		  "midi": 61,
		  "name": "C#4",
		  "ticks": 183340,
		  "time": 179.04296875,
		  "velocity": 0.3937007874015748
		},
		{
		  "duration": 0.1875,
		  "durationTicks": 192,
		  "midi": 51,
		  "name": "D#3",
		  "ticks": 183552,
		  "time": 179.25,
		  "velocity": 0.3937007874015748
		},
		{
		  "duration": 0.1875,
		  "durationTicks": 192,
		  "midi": 80,
		  "name": "G#5",
		  "ticks": 183724,
		  "time": 179.41796875,
		  "velocity": 0.3937007874015748
		},
		{
		  "duration": 0.1875,
		  "durationTicks": 192,
		  "midi": 71,
		  "name": "B4",
		  "ticks": 183724,
		  "time": 179.41796875,
		  "velocity": 0.3937007874015748
		},
		{
		  "duration": 0.1875,
		  "durationTicks": 192,
		  "midi": 68,
		  "name": "G#4",
		  "ticks": 183724,
		  "time": 179.41796875,
		  "velocity": 0.3937007874015748
		},
		{
		  "duration": 0.1875,
		  "durationTicks": 192,
		  "midi": 63,
		  "name": "D#4",
		  "ticks": 183724,
		  "time": 179.41796875,
		  "velocity": 0.3937007874015748
		},
		{
		  "duration": 0.1875,
		  "durationTicks": 192,
		  "midi": 71,
		  "name": "B4",
		  "ticks": 183920,
		  "time": 179.609375,
		  "velocity": 0.3937007874015748
		},
		{
		  "duration": 0.1875,
		  "durationTicks": 192,
		  "midi": 80,
		  "name": "G#5",
		  "ticks": 183920,
		  "time": 179.609375,
		  "velocity": 0.3937007874015748
		},
		{
		  "duration": 0.1875,
		  "durationTicks": 192,
		  "midi": 63,
		  "name": "D#4",
		  "ticks": 183920,
		  "time": 179.609375,
		  "velocity": 0.3937007874015748
		},
		{
		  "duration": 0.1875,
		  "durationTicks": 192,
		  "midi": 68,
		  "name": "G#4",
		  "ticks": 183920,
		  "time": 179.609375,
		  "velocity": 0.3937007874015748
		},
		{
		  "duration": 0.1875,
		  "durationTicks": 192,
		  "midi": 83,
		  "name": "B5",
		  "ticks": 184112,
		  "time": 179.796875,
		  "velocity": 0.3937007874015748
		},
		{
		  "duration": 0.1875,
		  "durationTicks": 192,
		  "midi": 75,
		  "name": "D#5",
		  "ticks": 184112,
		  "time": 179.796875,
		  "velocity": 0.3937007874015748
		},
		{
		  "duration": 0.1875,
		  "durationTicks": 192,
		  "midi": 63,
		  "name": "D#4",
		  "ticks": 184112,
		  "time": 179.796875,
		  "velocity": 0.3937007874015748
		},
		{
		  "duration": 0.1875,
		  "durationTicks": 192,
		  "midi": 59,
		  "name": "B3",
		  "ticks": 184112,
		  "time": 179.796875,
		  "velocity": 0.3937007874015748
		},
		{
		  "duration": 0.1875,
		  "durationTicks": 192,
		  "midi": 51,
		  "name": "D#3",
		  "ticks": 184316,
		  "time": 179.99609375,
		  "velocity": 0.3937007874015748
		},
		{
		  "duration": 0.1875,
		  "durationTicks": 192,
		  "midi": 70,
		  "name": "A#4",
		  "ticks": 184492,
		  "time": 180.16796875,
		  "velocity": 0.3937007874015748
		},
		{
		  "duration": 0.1875,
		  "durationTicks": 192,
		  "midi": 79,
		  "name": "G5",
		  "ticks": 184492,
		  "time": 180.16796875,
		  "velocity": 0.3937007874015748
		},
		{
		  "duration": 0.1875,
		  "durationTicks": 192,
		  "midi": 67,
		  "name": "G4",
		  "ticks": 184492,
		  "time": 180.16796875,
		  "velocity": 0.3937007874015748
		},
		{
		  "duration": 0.1875,
		  "durationTicks": 192,
		  "midi": 61,
		  "name": "C#4",
		  "ticks": 184492,
		  "time": 180.16796875,
		  "velocity": 0.3937007874015748
		},
		{
		  "duration": 0.1875,
		  "durationTicks": 192,
		  "midi": 79,
		  "name": "G5",
		  "ticks": 184684,
		  "time": 180.35546875,
		  "velocity": 0.3937007874015748
		},
		{
		  "duration": 0.1875,
		  "durationTicks": 192,
		  "midi": 70,
		  "name": "A#4",
		  "ticks": 184684,
		  "time": 180.35546875,
		  "velocity": 0.3937007874015748
		},
		{
		  "duration": 0.1875,
		  "durationTicks": 192,
		  "midi": 67,
		  "name": "G4",
		  "ticks": 184684,
		  "time": 180.35546875,
		  "velocity": 0.3937007874015748
		},
		{
		  "duration": 0.1875,
		  "durationTicks": 192,
		  "midi": 61,
		  "name": "C#4",
		  "ticks": 184684,
		  "time": 180.35546875,
		  "velocity": 0.3937007874015748
		},
		{
		  "duration": 0.1875,
		  "durationTicks": 192,
		  "midi": 82,
		  "name": "A#5",
		  "ticks": 184888,
		  "time": 180.5546875,
		  "velocity": 0.3937007874015748
		},
		{
		  "duration": 0.1875,
		  "durationTicks": 192,
		  "midi": 73,
		  "name": "C#5",
		  "ticks": 184888,
		  "time": 180.5546875,
		  "velocity": 0.3937007874015748
		},
		{
		  "duration": 0.1875,
		  "durationTicks": 192,
		  "midi": 61,
		  "name": "C#4",
		  "ticks": 184888,
		  "time": 180.5546875,
		  "velocity": 0.3937007874015748
		},
		{
		  "duration": 0.1875,
		  "durationTicks": 192,
		  "midi": 58,
		  "name": "A#3",
		  "ticks": 184888,
		  "time": 180.5546875,
		  "velocity": 0.3937007874015748
		},
		{
		  "duration": 0.375,
		  "durationTicks": 384,
		  "midi": 71,
		  "name": "B4",
		  "ticks": 185080,
		  "time": 180.7421875,
		  "velocity": 0.3937007874015748
		},
		{
		  "duration": 0.375,
		  "durationTicks": 384,
		  "midi": 80,
		  "name": "G#5",
		  "ticks": 185080,
		  "time": 180.7421875,
		  "velocity": 0.3937007874015748
		},
		{
		  "duration": 0.09375,
		  "durationTicks": 96,
		  "midi": 44,
		  "name": "G#2",
		  "ticks": 185080,
		  "time": 180.7421875,
		  "velocity": 0.3937007874015748
		},
		{
		  "duration": 0.09375,
		  "durationTicks": 96,
		  "midi": 56,
		  "name": "G#3",
		  "ticks": 185176,
		  "time": 180.8359375,
		  "velocity": 0.3937007874015748
		},
		{
		  "duration": 0.09375,
		  "durationTicks": 96,
		  "midi": 51,
		  "name": "D#3",
		  "ticks": 185272,
		  "time": 180.9296875,
		  "velocity": 0.3937007874015748
		},
		{
		  "duration": 0.09375,
		  "durationTicks": 96,
		  "midi": 56,
		  "name": "G#3",
		  "ticks": 185368,
		  "time": 181.0234375,
		  "velocity": 0.3937007874015748
		},
		{
		  "duration": 0.09375,
		  "durationTicks": 96,
		  "midi": 44,
		  "name": "G#2",
		  "ticks": 185464,
		  "time": 181.1171875,
		  "velocity": 0.3937007874015748
		},
		{
		  "duration": 0.09375,
		  "durationTicks": 96,
		  "midi": 56,
		  "name": "G#3",
		  "ticks": 185560,
		  "time": 181.2109375,
		  "velocity": 0.3937007874015748
		},
		{
		  "duration": 0.09375,
		  "durationTicks": 96,
		  "midi": 51,
		  "name": "D#3",
		  "ticks": 185656,
		  "time": 181.3046875,
		  "velocity": 0.3937007874015748
		},
		{
		  "duration": 0.09375,
		  "durationTicks": 96,
		  "midi": 56,
		  "name": "G#3",
		  "ticks": 185752,
		  "time": 181.3984375,
		  "velocity": 0.3937007874015748
		},
		{
		  "duration": 0.09375,
		  "durationTicks": 96,
		  "midi": 44,
		  "name": "G#2",
		  "ticks": 185848,
		  "time": 181.4921875,
		  "velocity": 0.3937007874015748
		},
		{
		  "duration": 0.09375,
		  "durationTicks": 96,
		  "midi": 56,
		  "name": "G#3",
		  "ticks": 185944,
		  "time": 181.5859375,
		  "velocity": 0.3937007874015748
		},
		{
		  "duration": 0.09375,
		  "durationTicks": 96,
		  "midi": 51,
		  "name": "D#3",
		  "ticks": 186040,
		  "time": 181.6796875,
		  "velocity": 0.3937007874015748
		},
		{
		  "duration": 0.09375,
		  "durationTicks": 96,
		  "midi": 56,
		  "name": "G#3",
		  "ticks": 186136,
		  "time": 181.7734375,
		  "velocity": 0.3937007874015748
		},
		{
		  "duration": 0.28125,
		  "durationTicks": 288,
		  "midi": 71,
		  "name": "B4",
		  "ticks": 186216,
		  "time": 181.8515625,
		  "velocity": 0.3937007874015748
		},
		{
		  "duration": 0.09375,
		  "durationTicks": 96,
		  "midi": 44,
		  "name": "G#2",
		  "ticks": 186232,
		  "time": 181.8671875,
		  "velocity": 0.3937007874015748
		},
		{
		  "duration": 0.09375,
		  "durationTicks": 96,
		  "midi": 56,
		  "name": "G#3",
		  "ticks": 186328,
		  "time": 181.9609375,
		  "velocity": 0.3937007874015748
		},
		{
		  "duration": 0.09375,
		  "durationTicks": 96,
		  "midi": 51,
		  "name": "D#3",
		  "ticks": 186424,
		  "time": 182.0546875,
		  "velocity": 0.3937007874015748
		},
		{
		  "duration": 0.09375,
		  "durationTicks": 96,
		  "midi": 68,
		  "name": "G#4",
		  "ticks": 186520,
		  "time": 182.1484375,
		  "velocity": 0.3937007874015748
		},
		{
		  "duration": 0.09375,
		  "durationTicks": 96,
		  "midi": 56,
		  "name": "G#3",
		  "ticks": 186520,
		  "time": 182.1484375,
		  "velocity": 0.3937007874015748
		},
		{
		  "duration": 0.375,
		  "durationTicks": 384,
		  "midi": 67,
		  "name": "G4",
		  "ticks": 186616,
		  "time": 182.2421875,
		  "velocity": 0.3937007874015748
		},
		{
		  "duration": 0.09375,
		  "durationTicks": 96,
		  "midi": 44,
		  "name": "G#2",
		  "ticks": 186616,
		  "time": 182.2421875,
		  "velocity": 0.3937007874015748
		},
		{
		  "duration": 0.09375,
		  "durationTicks": 96,
		  "midi": 58,
		  "name": "A#3",
		  "ticks": 186712,
		  "time": 182.3359375,
		  "velocity": 0.3937007874015748
		},
		{
		  "duration": 0.09375,
		  "durationTicks": 96,
		  "midi": 51,
		  "name": "D#3",
		  "ticks": 186808,
		  "time": 182.4296875,
		  "velocity": 0.3937007874015748
		},
		{
		  "duration": 0.09375,
		  "durationTicks": 96,
		  "midi": 58,
		  "name": "A#3",
		  "ticks": 186904,
		  "time": 182.5234375,
		  "velocity": 0.3937007874015748
		},
		{
		  "duration": 0.28125,
		  "durationTicks": 288,
		  "midi": 67,
		  "name": "G4",
		  "ticks": 186984,
		  "time": 182.6015625,
		  "velocity": 0.3937007874015748
		},
		{
		  "duration": 0.28125,
		  "durationTicks": 288,
		  "midi": 75,
		  "name": "D#5",
		  "ticks": 186984,
		  "time": 182.6015625,
		  "velocity": 0.3937007874015748
		},
		{
		  "duration": 0.28125,
		  "durationTicks": 288,
		  "midi": 61,
		  "name": "C#4",
		  "ticks": 186984,
		  "time": 182.6015625,
		  "velocity": 0.3937007874015748
		},
		{
		  "duration": 0.09375,
		  "durationTicks": 96,
		  "midi": 44,
		  "name": "G#2",
		  "ticks": 187000,
		  "time": 182.6171875,
		  "velocity": 0.3937007874015748
		},
		{
		  "duration": 0.09375,
		  "durationTicks": 96,
		  "midi": 58,
		  "name": "A#3",
		  "ticks": 187096,
		  "time": 182.7109375,
		  "velocity": 0.3937007874015748
		},
		{
		  "duration": 0.09375,
		  "durationTicks": 96,
		  "midi": 51,
		  "name": "D#3",
		  "ticks": 187192,
		  "time": 182.8046875,
		  "velocity": 0.3937007874015748
		},
		{
		  "duration": 0.09375,
		  "durationTicks": 96,
		  "midi": 58,
		  "name": "A#3",
		  "ticks": 187288,
		  "time": 182.8984375,
		  "velocity": 0.3937007874015748
		},
		{
		  "duration": 0.28125,
		  "durationTicks": 288,
		  "midi": 61,
		  "name": "C#4",
		  "ticks": 187364,
		  "time": 182.97265625,
		  "velocity": 0.3937007874015748
		},
		{
		  "duration": 0.28125,
		  "durationTicks": 288,
		  "midi": 75,
		  "name": "D#5",
		  "ticks": 187364,
		  "time": 182.97265625,
		  "velocity": 0.3937007874015748
		},
		{
		  "duration": 0.28125,
		  "durationTicks": 288,
		  "midi": 67,
		  "name": "G4",
		  "ticks": 187364,
		  "time": 182.97265625,
		  "velocity": 0.3937007874015748
		},
		{
		  "duration": 0.09375,
		  "durationTicks": 96,
		  "midi": 44,
		  "name": "G#2",
		  "ticks": 187384,
		  "time": 182.9921875,
		  "velocity": 0.3937007874015748
		},
		{
		  "duration": 0.09375,
		  "durationTicks": 96,
		  "midi": 58,
		  "name": "A#3",
		  "ticks": 187480,
		  "time": 183.0859375,
		  "velocity": 0.3937007874015748
		},
		{
		  "duration": 0.09375,
		  "durationTicks": 96,
		  "midi": 51,
		  "name": "D#3",
		  "ticks": 187576,
		  "time": 183.1796875,
		  "velocity": 0.3937007874015748
		},
		{
		  "duration": 0.09375,
		  "durationTicks": 96,
		  "midi": 58,
		  "name": "A#3",
		  "ticks": 187672,
		  "time": 183.2734375,
		  "velocity": 0.3937007874015748
		},
		{
		  "duration": 0.28125,
		  "durationTicks": 288,
		  "midi": 75,
		  "name": "D#5",
		  "ticks": 187744,
		  "time": 183.34375,
		  "velocity": 0.3937007874015748
		},
		{
		  "duration": 0.28125,
		  "durationTicks": 288,
		  "midi": 61,
		  "name": "C#4",
		  "ticks": 187744,
		  "time": 183.34375,
		  "velocity": 0.3937007874015748
		},
		{
		  "duration": 0.28125,
		  "durationTicks": 288,
		  "midi": 67,
		  "name": "G4",
		  "ticks": 187744,
		  "time": 183.34375,
		  "velocity": 0.3937007874015748
		},
		{
		  "duration": 0.09375,
		  "durationTicks": 96,
		  "midi": 44,
		  "name": "G#2",
		  "ticks": 187768,
		  "time": 183.3671875,
		  "velocity": 0.3937007874015748
		},
		{
		  "duration": 0.09375,
		  "durationTicks": 96,
		  "midi": 58,
		  "name": "A#3",
		  "ticks": 187864,
		  "time": 183.4609375,
		  "velocity": 0.3937007874015748
		},
		{
		  "duration": 0.09375,
		  "durationTicks": 96,
		  "midi": 51,
		  "name": "D#3",
		  "ticks": 187960,
		  "time": 183.5546875,
		  "velocity": 0.3937007874015748
		},
		{
		  "duration": 0.09375,
		  "durationTicks": 96,
		  "midi": 58,
		  "name": "A#3",
		  "ticks": 188056,
		  "time": 183.6484375,
		  "velocity": 0.3937007874015748
		},
		{
		  "duration": 0.0947265625,
		  "durationTicks": 97,
		  "midi": 59,
		  "name": "B3",
		  "ticks": 188124,
		  "time": 183.71484375,
		  "velocity": 0.3937007874015748
		},
		{
		  "duration": 0.0947265625,
		  "durationTicks": 97,
		  "midi": 44,
		  "name": "G#2",
		  "ticks": 188152,
		  "time": 183.7421875,
		  "velocity": 0.3937007874015748
		},
		{
		  "duration": 0.09375,
		  "durationTicks": 96,
		  "midi": 68,
		  "name": "G#4",
		  "ticks": 188188,
		  "time": 183.77734375,
		  "velocity": 0.3937007874015748
		},
		{
		  "duration": 0.0927734375,
		  "durationTicks": 95,
		  "midi": 56,
		  "name": "G#3",
		  "ticks": 188249,
		  "time": 183.8369140625,
		  "velocity": 0.3937007874015748
		},
		{
		  "duration": 0.8427734375,
		  "durationTicks": 863,
		  "midi": 75,
		  "name": "D#5",
		  "ticks": 188269,
		  "time": 183.8564453125,
		  "velocity": 0.3937007874015748
		},
		{
		  "duration": 0.09375,
		  "durationTicks": 96,
		  "midi": 51,
		  "name": "D#3",
		  "ticks": 188344,
		  "time": 183.9296875,
		  "velocity": 0.3937007874015748
		},
		{
		  "duration": 0.09375,
		  "durationTicks": 96,
		  "midi": 56,
		  "name": "G#3",
		  "ticks": 188440,
		  "time": 184.0234375,
		  "velocity": 0.3937007874015748
		},
		{
		  "duration": 0.09375,
		  "durationTicks": 96,
		  "midi": 44,
		  "name": "G#2",
		  "ticks": 188536,
		  "time": 184.1171875,
		  "velocity": 0.3937007874015748
		},
		{
		  "duration": 0.09375,
		  "durationTicks": 96,
		  "midi": 56,
		  "name": "G#3",
		  "ticks": 188632,
		  "time": 184.2109375,
		  "velocity": 0.3937007874015748
		},
		{
		  "duration": 0.09375,
		  "durationTicks": 96,
		  "midi": 51,
		  "name": "D#3",
		  "ticks": 188728,
		  "time": 184.3046875,
		  "velocity": 0.3937007874015748
		},
		{
		  "duration": 0.09375,
		  "durationTicks": 96,
		  "midi": 56,
		  "name": "G#3",
		  "ticks": 188824,
		  "time": 184.3984375,
		  "velocity": 0.3937007874015748
		},
		{
		  "duration": 0.09375,
		  "durationTicks": 96,
		  "midi": 44,
		  "name": "G#2",
		  "ticks": 188920,
		  "time": 184.4921875,
		  "velocity": 0.3937007874015748
		},
		{
		  "duration": 0.09375,
		  "durationTicks": 96,
		  "midi": 56,
		  "name": "G#3",
		  "ticks": 189016,
		  "time": 184.5859375,
		  "velocity": 0.3937007874015748
		},
		{
		  "duration": 0.09375,
		  "durationTicks": 96,
		  "midi": 51,
		  "name": "D#3",
		  "ticks": 189112,
		  "time": 184.6796875,
		  "velocity": 0.3937007874015748
		},
		{
		  "duration": 0.09375,
		  "durationTicks": 96,
		  "midi": 56,
		  "name": "G#3",
		  "ticks": 189208,
		  "time": 184.7734375,
		  "velocity": 0.3937007874015748
		},
		{
		  "duration": 0.28125,
		  "durationTicks": 288,
		  "midi": 83,
		  "name": "B5",
		  "ticks": 189304,
		  "time": 184.8671875,
		  "velocity": 0.3937007874015748
		},
		{
		  "duration": 0.09375,
		  "durationTicks": 96,
		  "midi": 44,
		  "name": "G#2",
		  "ticks": 189304,
		  "time": 184.8671875,
		  "velocity": 0.3937007874015748
		},
		{
		  "duration": 0.09375,
		  "durationTicks": 96,
		  "midi": 56,
		  "name": "G#3",
		  "ticks": 189400,
		  "time": 184.9609375,
		  "velocity": 0.3937007874015748
		},
		{
		  "duration": 0.09375,
		  "durationTicks": 96,
		  "midi": 51,
		  "name": "D#3",
		  "ticks": 189496,
		  "time": 185.0546875,
		  "velocity": 0.3937007874015748
		},
		{
		  "duration": 0.09375,
		  "durationTicks": 96,
		  "midi": 80,
		  "name": "G#5",
		  "ticks": 189592,
		  "time": 185.1484375,
		  "velocity": 0.3937007874015748
		},
		{
		  "duration": 0.09375,
		  "durationTicks": 96,
		  "midi": 56,
		  "name": "G#3",
		  "ticks": 189592,
		  "time": 185.1484375,
		  "velocity": 0.3937007874015748
		},
		{
		  "duration": 0.375,
		  "durationTicks": 384,
		  "midi": 79,
		  "name": "G5",
		  "ticks": 189688,
		  "time": 185.2421875,
		  "velocity": 0.3937007874015748
		},
		{
		  "duration": 0.09375,
		  "durationTicks": 96,
		  "midi": 44,
		  "name": "G#2",
		  "ticks": 189688,
		  "time": 185.2421875,
		  "velocity": 0.3937007874015748
		},
		{
		  "duration": 0.09375,
		  "durationTicks": 96,
		  "midi": 58,
		  "name": "A#3",
		  "ticks": 189784,
		  "time": 185.3359375,
		  "velocity": 0.3937007874015748
		},
		{
		  "duration": 0.09375,
		  "durationTicks": 96,
		  "midi": 51,
		  "name": "D#3",
		  "ticks": 189880,
		  "time": 185.4296875,
		  "velocity": 0.3937007874015748
		},
		{
		  "duration": 0.09375,
		  "durationTicks": 96,
		  "midi": 58,
		  "name": "A#3",
		  "ticks": 189976,
		  "time": 185.5234375,
		  "velocity": 0.3937007874015748
		},
		{
		  "duration": 0.28125,
		  "durationTicks": 288,
		  "midi": 73,
		  "name": "C#5",
		  "ticks": 190056,
		  "time": 185.6015625,
		  "velocity": 0.3937007874015748
		},
		{
		  "duration": 0.28125,
		  "durationTicks": 288,
		  "midi": 87,
		  "name": "D#6",
		  "ticks": 190056,
		  "time": 185.6015625,
		  "velocity": 0.3937007874015748
		},
		{
		  "duration": 0.28125,
		  "durationTicks": 288,
		  "midi": 79,
		  "name": "G5",
		  "ticks": 190056,
		  "time": 185.6015625,
		  "velocity": 0.3937007874015748
		},
		{
		  "duration": 0.09375,
		  "durationTicks": 96,
		  "midi": 44,
		  "name": "G#2",
		  "ticks": 190072,
		  "time": 185.6171875,
		  "velocity": 0.3937007874015748
		},
		{
		  "duration": 0.09375,
		  "durationTicks": 96,
		  "midi": 58,
		  "name": "A#3",
		  "ticks": 190168,
		  "time": 185.7109375,
		  "velocity": 0.3937007874015748
		},
		{
		  "duration": 0.09375,
		  "durationTicks": 96,
		  "midi": 51,
		  "name": "D#3",
		  "ticks": 190264,
		  "time": 185.8046875,
		  "velocity": 0.3937007874015748
		},
		{
		  "duration": 0.09375,
		  "durationTicks": 96,
		  "midi": 58,
		  "name": "A#3",
		  "ticks": 190360,
		  "time": 185.8984375,
		  "velocity": 0.3937007874015748
		},
		{
		  "duration": 0.28125,
		  "durationTicks": 288,
		  "midi": 73,
		  "name": "C#5",
		  "ticks": 190436,
		  "time": 185.97265625,
		  "velocity": 0.3937007874015748
		},
		{
		  "duration": 0.28125,
		  "durationTicks": 288,
		  "midi": 79,
		  "name": "G5",
		  "ticks": 190436,
		  "time": 185.97265625,
		  "velocity": 0.3937007874015748
		},
		{
		  "duration": 0.28125,
		  "durationTicks": 288,
		  "midi": 87,
		  "name": "D#6",
		  "ticks": 190436,
		  "time": 185.97265625,
		  "velocity": 0.3937007874015748
		},
		{
		  "duration": 0.09375,
		  "durationTicks": 96,
		  "midi": 44,
		  "name": "G#2",
		  "ticks": 190456,
		  "time": 185.9921875,
		  "velocity": 0.3937007874015748
		},
		{
		  "duration": 0.09375,
		  "durationTicks": 96,
		  "midi": 58,
		  "name": "A#3",
		  "ticks": 190552,
		  "time": 186.0859375,
		  "velocity": 0.3937007874015748
		},
		{
		  "duration": 0.09375,
		  "durationTicks": 96,
		  "midi": 51,
		  "name": "D#3",
		  "ticks": 190648,
		  "time": 186.1796875,
		  "velocity": 0.3937007874015748
		},
		{
		  "duration": 0.09375,
		  "durationTicks": 96,
		  "midi": 58,
		  "name": "A#3",
		  "ticks": 190744,
		  "time": 186.2734375,
		  "velocity": 0.3937007874015748
		},
		{
		  "duration": 0.28125,
		  "durationTicks": 288,
		  "midi": 73,
		  "name": "C#5",
		  "ticks": 190816,
		  "time": 186.34375,
		  "velocity": 0.3937007874015748
		},
		{
		  "duration": 0.28125,
		  "durationTicks": 288,
		  "midi": 87,
		  "name": "D#6",
		  "ticks": 190816,
		  "time": 186.34375,
		  "velocity": 0.3937007874015748
		},
		{
		  "duration": 0.28125,
		  "durationTicks": 288,
		  "midi": 79,
		  "name": "G5",
		  "ticks": 190816,
		  "time": 186.34375,
		  "velocity": 0.3937007874015748
		},
		{
		  "duration": 0.09375,
		  "durationTicks": 96,
		  "midi": 44,
		  "name": "G#2",
		  "ticks": 190840,
		  "time": 186.3671875,
		  "velocity": 0.3937007874015748
		},
		{
		  "duration": 0.09375,
		  "durationTicks": 96,
		  "midi": 58,
		  "name": "A#3",
		  "ticks": 190936,
		  "time": 186.4609375,
		  "velocity": 0.3937007874015748
		},
		{
		  "duration": 0.09375,
		  "durationTicks": 96,
		  "midi": 51,
		  "name": "D#3",
		  "ticks": 191032,
		  "time": 186.5546875,
		  "velocity": 0.3937007874015748
		},
		{
		  "duration": 0.09375,
		  "durationTicks": 96,
		  "midi": 58,
		  "name": "A#3",
		  "ticks": 191128,
		  "time": 186.6484375,
		  "velocity": 0.3937007874015748
		},
		{
		  "duration": 0.0947265625,
		  "durationTicks": 97,
		  "midi": 71,
		  "name": "B4",
		  "ticks": 191196,
		  "time": 186.71484375,
		  "velocity": 0.3937007874015748
		},
		{
		  "duration": 0.0947265625,
		  "durationTicks": 97,
		  "midi": 44,
		  "name": "G#2",
		  "ticks": 191224,
		  "time": 186.7421875,
		  "velocity": 0.3937007874015748
		},
		{
		  "duration": 0.0947265625,
		  "durationTicks": 97,
		  "midi": 80,
		  "name": "G#5",
		  "ticks": 191260,
		  "time": 186.77734375,
		  "velocity": 0.3937007874015748
		},
		{
		  "duration": 0.09375,
		  "durationTicks": 96,
		  "midi": 56,
		  "name": "G#3",
		  "ticks": 191321,
		  "time": 186.8369140625,
		  "velocity": 0.3937007874015748
		},
		{
		  "duration": 0.65625,
		  "durationTicks": 672,
		  "midi": 87,
		  "name": "D#6",
		  "ticks": 191329,
		  "time": 186.8447265625,
		  "velocity": 0.3937007874015748
		},
		{
		  "duration": 0.09375,
		  "durationTicks": 96,
		  "midi": 51,
		  "name": "D#3",
		  "ticks": 191417,
		  "time": 186.9306640625,
		  "velocity": 0.3937007874015748
		},
		{
		  "duration": 0.09375,
		  "durationTicks": 96,
		  "midi": 56,
		  "name": "G#3",
		  "ticks": 191513,
		  "time": 187.0244140625,
		  "velocity": 0.3937007874015748
		},
		{
		  "duration": 0.09375,
		  "durationTicks": 96,
		  "midi": 44,
		  "name": "G#2",
		  "ticks": 191609,
		  "time": 187.1181640625,
		  "velocity": 0.3937007874015748
		},
		{
		  "duration": 0.09375,
		  "durationTicks": 96,
		  "midi": 56,
		  "name": "G#3",
		  "ticks": 191705,
		  "time": 187.2119140625,
		  "velocity": 0.3937007874015748
		},
		{
		  "duration": 0.09375,
		  "durationTicks": 96,
		  "midi": 51,
		  "name": "D#3",
		  "ticks": 191801,
		  "time": 187.3056640625,
		  "velocity": 0.3937007874015748
		},
		{
		  "duration": 0.09375,
		  "durationTicks": 96,
		  "midi": 56,
		  "name": "G#3",
		  "ticks": 191897,
		  "time": 187.3994140625,
		  "velocity": 0.3937007874015748
		},
		{
		  "duration": 0.09375,
		  "durationTicks": 96,
		  "midi": 73,
		  "name": "C#5",
		  "ticks": 191993,
		  "time": 187.4931640625,
		  "velocity": 0.3937007874015748
		},
		{
		  "duration": 0.09375,
		  "durationTicks": 96,
		  "midi": 44,
		  "name": "G#2",
		  "ticks": 191993,
		  "time": 187.4931640625,
		  "velocity": 0.3937007874015748
		},
		{
		  "duration": 0.09375,
		  "durationTicks": 96,
		  "midi": 79,
		  "name": "G5",
		  "ticks": 192041,
		  "time": 187.5400390625,
		  "velocity": 0.3937007874015748
		},
		{
		  "duration": 0.09375,
		  "durationTicks": 96,
		  "midi": 58,
		  "name": "A#3",
		  "ticks": 192089,
		  "time": 187.5869140625,
		  "velocity": 0.3937007874015748
		},
		{
		  "duration": 0.65625,
		  "durationTicks": 672,
		  "midi": 87,
		  "name": "D#6",
		  "ticks": 192104,
		  "time": 187.6015625,
		  "velocity": 0.3937007874015748
		},
		{
		  "duration": 0.09375,
		  "durationTicks": 96,
		  "midi": 51,
		  "name": "D#3",
		  "ticks": 192185,
		  "time": 187.6806640625,
		  "velocity": 0.3937007874015748
		},
		{
		  "duration": 0.09375,
		  "durationTicks": 96,
		  "midi": 58,
		  "name": "A#3",
		  "ticks": 192281,
		  "time": 187.7744140625,
		  "velocity": 0.3937007874015748
		},
		{
		  "duration": 0.09375,
		  "durationTicks": 96,
		  "midi": 44,
		  "name": "G#2",
		  "ticks": 192377,
		  "time": 187.8681640625,
		  "velocity": 0.3937007874015748
		},
		{
		  "duration": 0.09375,
		  "durationTicks": 96,
		  "midi": 58,
		  "name": "A#3",
		  "ticks": 192473,
		  "time": 187.9619140625,
		  "velocity": 0.3937007874015748
		},
		{
		  "duration": 0.09375,
		  "durationTicks": 96,
		  "midi": 51,
		  "name": "D#3",
		  "ticks": 192569,
		  "time": 188.0556640625,
		  "velocity": 0.3937007874015748
		},
		{
		  "duration": 0.09375,
		  "durationTicks": 96,
		  "midi": 58,
		  "name": "A#3",
		  "ticks": 192665,
		  "time": 188.1494140625,
		  "velocity": 0.3937007874015748
		},
		{
		  "duration": 0.09375,
		  "durationTicks": 96,
		  "midi": 71,
		  "name": "B4",
		  "ticks": 192761,
		  "time": 188.2431640625,
		  "velocity": 0.3937007874015748
		},
		{
		  "duration": 0.09375,
		  "durationTicks": 96,
		  "midi": 44,
		  "name": "G#2",
		  "ticks": 192761,
		  "time": 188.2431640625,
		  "velocity": 0.3937007874015748
		},
		{
		  "duration": 0.09375,
		  "durationTicks": 96,
		  "midi": 80,
		  "name": "G#5",
		  "ticks": 192824,
		  "time": 188.3046875,
		  "velocity": 0.3937007874015748
		},
		{
		  "duration": 0.09375,
		  "durationTicks": 96,
		  "midi": 56,
		  "name": "G#3",
		  "ticks": 192857,
		  "time": 188.3369140625,
		  "velocity": 0.3937007874015748
		},
		{
		  "duration": 0.65625,
		  "durationTicks": 672,
		  "midi": 87,
		  "name": "D#6",
		  "ticks": 192872,
		  "time": 188.3515625,
		  "velocity": 0.3937007874015748
		},
		{
		  "duration": 0.09375,
		  "durationTicks": 96,
		  "midi": 51,
		  "name": "D#3",
		  "ticks": 192953,
		  "time": 188.4306640625,
		  "velocity": 0.3937007874015748
		},
		{
		  "duration": 0.09375,
		  "durationTicks": 96,
		  "midi": 56,
		  "name": "G#3",
		  "ticks": 193049,
		  "time": 188.5244140625,
		  "velocity": 0.3937007874015748
		},
		{
		  "duration": 0.09375,
		  "durationTicks": 96,
		  "midi": 44,
		  "name": "G#2",
		  "ticks": 193145,
		  "time": 188.6181640625,
		  "velocity": 0.3937007874015748
		},
		{
		  "duration": 0.09375,
		  "durationTicks": 96,
		  "midi": 56,
		  "name": "G#3",
		  "ticks": 193241,
		  "time": 188.7119140625,
		  "velocity": 0.3937007874015748
		},
		{
		  "duration": 0.09375,
		  "durationTicks": 96,
		  "midi": 51,
		  "name": "D#3",
		  "ticks": 193337,
		  "time": 188.8056640625,
		  "velocity": 0.3937007874015748
		},
		{
		  "duration": 0.09375,
		  "durationTicks": 96,
		  "midi": 56,
		  "name": "G#3",
		  "ticks": 193433,
		  "time": 188.8994140625,
		  "velocity": 0.3937007874015748
		},
		{
		  "duration": 0.09375,
		  "durationTicks": 96,
		  "midi": 44,
		  "name": "G#2",
		  "ticks": 193529,
		  "time": 188.9931640625,
		  "velocity": 0.3937007874015748
		},
		{
		  "duration": 0.09375,
		  "durationTicks": 96,
		  "midi": 73,
		  "name": "C#5",
		  "ticks": 193544,
		  "time": 189.0078125,
		  "velocity": 0.3937007874015748
		},
		{
		  "duration": 0.09375,
		  "durationTicks": 96,
		  "midi": 79,
		  "name": "G5",
		  "ticks": 193592,
		  "time": 189.0546875,
		  "velocity": 0.3937007874015748
		},
		{
		  "duration": 0.09375,
		  "durationTicks": 96,
		  "midi": 58,
		  "name": "A#3",
		  "ticks": 193625,
		  "time": 189.0869140625,
		  "velocity": 0.3937007874015748
		},
		{
		  "duration": 0.65625,
		  "durationTicks": 672,
		  "midi": 87,
		  "name": "D#6",
		  "ticks": 193645,
		  "time": 189.1064453125,
		  "velocity": 0.3937007874015748
		},
		{
		  "duration": 0.09375,
		  "durationTicks": 96,
		  "midi": 51,
		  "name": "D#3",
		  "ticks": 193721,
		  "time": 189.1806640625,
		  "velocity": 0.3937007874015748
		},
		{
		  "duration": 0.09375,
		  "durationTicks": 96,
		  "midi": 58,
		  "name": "A#3",
		  "ticks": 193817,
		  "time": 189.2744140625,
		  "velocity": 0.3937007874015748
		},
		{
		  "duration": 0.09375,
		  "durationTicks": 96,
		  "midi": 44,
		  "name": "G#2",
		  "ticks": 193913,
		  "time": 189.3681640625,
		  "velocity": 0.3937007874015748
		},
		{
		  "duration": 0.09375,
		  "durationTicks": 96,
		  "midi": 58,
		  "name": "A#3",
		  "ticks": 194009,
		  "time": 189.4619140625,
		  "velocity": 0.3937007874015748
		},
		{
		  "duration": 0.09375,
		  "durationTicks": 96,
		  "midi": 51,
		  "name": "D#3",
		  "ticks": 194105,
		  "time": 189.5556640625,
		  "velocity": 0.3937007874015748
		},
		{
		  "duration": 0.09375,
		  "durationTicks": 96,
		  "midi": 58,
		  "name": "A#3",
		  "ticks": 194201,
		  "time": 189.6494140625,
		  "velocity": 0.3937007874015748
		},
		{
		  "duration": 0.09375,
		  "durationTicks": 96,
		  "midi": 59,
		  "name": "B3",
		  "ticks": 194297,
		  "time": 189.7431640625,
		  "velocity": 0.3937007874015748
		},
		{
		  "duration": 0.09375,
		  "durationTicks": 96,
		  "midi": 44,
		  "name": "G#2",
		  "ticks": 194297,
		  "time": 189.7431640625,
		  "velocity": 0.3937007874015748
		},
		{
		  "duration": 0.09375,
		  "durationTicks": 96,
		  "midi": 56,
		  "name": "G#3",
		  "ticks": 194393,
		  "time": 189.8369140625,
		  "velocity": 0.3937007874015748
		},
		{
		  "duration": 0.09375,
		  "durationTicks": 96,
		  "midi": 68,
		  "name": "G#4",
		  "ticks": 194397,
		  "time": 189.8408203125,
		  "velocity": 0.3937007874015748
		},
		{
		  "duration": 0.09375,
		  "durationTicks": 96,
		  "midi": 51,
		  "name": "D#3",
		  "ticks": 194489,
		  "time": 189.9306640625,
		  "velocity": 0.3937007874015748
		},
		{
		  "duration": 0.09375,
		  "durationTicks": 96,
		  "midi": 63,
		  "name": "D#4",
		  "ticks": 194493,
		  "time": 189.9345703125,
		  "velocity": 0.3937007874015748
		},
		{
		  "duration": 0.09375,
		  "durationTicks": 96,
		  "midi": 56,
		  "name": "G#3",
		  "ticks": 194585,
		  "time": 190.0244140625,
		  "velocity": 0.3937007874015748
		},
		{
		  "duration": 0.09375,
		  "durationTicks": 96,
		  "midi": 68,
		  "name": "G#4",
		  "ticks": 194589,
		  "time": 190.0283203125,
		  "velocity": 0.3937007874015748
		},
		{
		  "duration": 0.09375,
		  "durationTicks": 96,
		  "midi": 59,
		  "name": "B3",
		  "ticks": 194681,
		  "time": 190.1181640625,
		  "velocity": 0.3937007874015748
		},
		{
		  "duration": 0.09375,
		  "durationTicks": 96,
		  "midi": 44,
		  "name": "G#2",
		  "ticks": 194681,
		  "time": 190.1181640625,
		  "velocity": 0.3937007874015748
		},
		{
		  "duration": 0.09375,
		  "durationTicks": 96,
		  "midi": 68,
		  "name": "G#4",
		  "ticks": 194777,
		  "time": 190.2119140625,
		  "velocity": 0.3937007874015748
		},
		{
		  "duration": 0.09375,
		  "durationTicks": 96,
		  "midi": 56,
		  "name": "G#3",
		  "ticks": 194777,
		  "time": 190.2119140625,
		  "velocity": 0.3937007874015748
		},
		{
		  "duration": 0.09375,
		  "durationTicks": 96,
		  "midi": 63,
		  "name": "D#4",
		  "ticks": 194873,
		  "time": 190.3056640625,
		  "velocity": 0.3937007874015748
		},
		{
		  "duration": 0.09375,
		  "durationTicks": 96,
		  "midi": 51,
		  "name": "D#3",
		  "ticks": 194873,
		  "time": 190.3056640625,
		  "velocity": 0.3937007874015748
		},
		{
		  "duration": 0.09375,
		  "durationTicks": 96,
		  "midi": 68,
		  "name": "G#4",
		  "ticks": 194969,
		  "time": 190.3994140625,
		  "velocity": 0.3937007874015748
		},
		{
		  "duration": 0.09375,
		  "durationTicks": 96,
		  "midi": 56,
		  "name": "G#3",
		  "ticks": 194969,
		  "time": 190.3994140625,
		  "velocity": 0.3937007874015748
		},
		{
		  "duration": 0.09375,
		  "durationTicks": 96,
		  "midi": 59,
		  "name": "B3",
		  "ticks": 195065,
		  "time": 190.4931640625,
		  "velocity": 0.3937007874015748
		},
		{
		  "duration": 0.09375,
		  "durationTicks": 96,
		  "midi": 44,
		  "name": "G#2",
		  "ticks": 195065,
		  "time": 190.4931640625,
		  "velocity": 0.3937007874015748
		},
		{
		  "duration": 0.09375,
		  "durationTicks": 96,
		  "midi": 68,
		  "name": "G#4",
		  "ticks": 195161,
		  "time": 190.5869140625,
		  "velocity": 0.3937007874015748
		},
		{
		  "duration": 0.09375,
		  "durationTicks": 96,
		  "midi": 56,
		  "name": "G#3",
		  "ticks": 195161,
		  "time": 190.5869140625,
		  "velocity": 0.3937007874015748
		},
		{
		  "duration": 0.09375,
		  "durationTicks": 96,
		  "midi": 63,
		  "name": "D#4",
		  "ticks": 195257,
		  "time": 190.6806640625,
		  "velocity": 0.3937007874015748
		},
		{
		  "duration": 0.09375,
		  "durationTicks": 96,
		  "midi": 51,
		  "name": "D#3",
		  "ticks": 195257,
		  "time": 190.6806640625,
		  "velocity": 0.3937007874015748
		},
		{
		  "duration": 0.09375,
		  "durationTicks": 96,
		  "midi": 68,
		  "name": "G#4",
		  "ticks": 195353,
		  "time": 190.7744140625,
		  "velocity": 0.3937007874015748
		},
		{
		  "duration": 0.09375,
		  "durationTicks": 96,
		  "midi": 56,
		  "name": "G#3",
		  "ticks": 195353,
		  "time": 190.7744140625,
		  "velocity": 0.3937007874015748
		},
		{
		  "duration": 0.09375,
		  "durationTicks": 96,
		  "midi": 44,
		  "name": "G#2",
		  "ticks": 195449,
		  "time": 190.8681640625,
		  "velocity": 0.3937007874015748
		},
		{
		  "duration": 0.09375,
		  "durationTicks": 96,
		  "midi": 59,
		  "name": "B3",
		  "ticks": 195453,
		  "time": 190.8720703125,
		  "velocity": 0.3937007874015748
		},
		{
		  "duration": 0.09375,
		  "durationTicks": 96,
		  "midi": 56,
		  "name": "G#3",
		  "ticks": 195545,
		  "time": 190.9619140625,
		  "velocity": 0.3937007874015748
		},
		{
		  "duration": 0.09375,
		  "durationTicks": 96,
		  "midi": 68,
		  "name": "G#4",
		  "ticks": 195549,
		  "time": 190.9658203125,
		  "velocity": 0.3937007874015748
		},
		{
		  "duration": 0.09375,
		  "durationTicks": 96,
		  "midi": 51,
		  "name": "D#3",
		  "ticks": 195641,
		  "time": 191.0556640625,
		  "velocity": 0.3937007874015748
		},
		{
		  "duration": 0.09375,
		  "durationTicks": 96,
		  "midi": 63,
		  "name": "D#4",
		  "ticks": 195645,
		  "time": 191.0595703125,
		  "velocity": 0.3937007874015748
		},
		{
		  "duration": 0.09375,
		  "durationTicks": 96,
		  "midi": 56,
		  "name": "G#3",
		  "ticks": 195737,
		  "time": 191.1494140625,
		  "velocity": 0.3937007874015748
		},
		{
		  "duration": 0.09375,
		  "durationTicks": 96,
		  "midi": 68,
		  "name": "G#4",
		  "ticks": 195741,
		  "time": 191.1533203125,
		  "velocity": 0.3937007874015748
		},
		{
		  "duration": 0.09375,
		  "durationTicks": 96,
		  "midi": 60,
		  "name": "C4",
		  "ticks": 195833,
		  "time": 191.2431640625,
		  "velocity": 0.3937007874015748
		},
		{
		  "duration": 0.09375,
		  "durationTicks": 96,
		  "midi": 44,
		  "name": "G#2",
		  "ticks": 195833,
		  "time": 191.2431640625,
		  "velocity": 0.3937007874015748
		},
		{
		  "duration": 0.09375,
		  "durationTicks": 96,
		  "midi": 66,
		  "name": "F#4",
		  "ticks": 195929,
		  "time": 191.3369140625,
		  "velocity": 0.3937007874015748
		},
		{
		  "duration": 0.09375,
		  "durationTicks": 96,
		  "midi": 54,
		  "name": "F#3",
		  "ticks": 195929,
		  "time": 191.3369140625,
		  "velocity": 0.3937007874015748
		},
		{
		  "duration": 0.09375,
		  "durationTicks": 96,
		  "midi": 63,
		  "name": "D#4",
		  "ticks": 196025,
		  "time": 191.4306640625,
		  "velocity": 0.3937007874015748
		},
		{
		  "duration": 0.09375,
		  "durationTicks": 96,
		  "midi": 51,
		  "name": "D#3",
		  "ticks": 196025,
		  "time": 191.4306640625,
		  "velocity": 0.3937007874015748
		},
		{
		  "duration": 0.09375,
		  "durationTicks": 96,
		  "midi": 66,
		  "name": "F#4",
		  "ticks": 196121,
		  "time": 191.5244140625,
		  "velocity": 0.3937007874015748
		},
		{
		  "duration": 0.09375,
		  "durationTicks": 96,
		  "midi": 54,
		  "name": "F#3",
		  "ticks": 196121,
		  "time": 191.5244140625,
		  "velocity": 0.3937007874015748
		},
		{
		  "duration": 0.09375,
		  "durationTicks": 96,
		  "midi": 60,
		  "name": "C4",
		  "ticks": 196217,
		  "time": 191.6181640625,
		  "velocity": 0.3937007874015748
		},
		{
		  "duration": 0.09375,
		  "durationTicks": 96,
		  "midi": 44,
		  "name": "G#2",
		  "ticks": 196217,
		  "time": 191.6181640625,
		  "velocity": 0.3937007874015748
		},
		{
		  "duration": 0.09375,
		  "durationTicks": 96,
		  "midi": 66,
		  "name": "F#4",
		  "ticks": 196313,
		  "time": 191.7119140625,
		  "velocity": 0.3937007874015748
		},
		{
		  "duration": 0.09375,
		  "durationTicks": 96,
		  "midi": 54,
		  "name": "F#3",
		  "ticks": 196313,
		  "time": 191.7119140625,
		  "velocity": 0.3937007874015748
		},
		{
		  "duration": 0.09375,
		  "durationTicks": 96,
		  "midi": 63,
		  "name": "D#4",
		  "ticks": 196409,
		  "time": 191.8056640625,
		  "velocity": 0.3937007874015748
		},
		{
		  "duration": 0.09375,
		  "durationTicks": 96,
		  "midi": 51,
		  "name": "D#3",
		  "ticks": 196409,
		  "time": 191.8056640625,
		  "velocity": 0.3937007874015748
		},
		{
		  "duration": 0.09375,
		  "durationTicks": 96,
		  "midi": 66,
		  "name": "F#4",
		  "ticks": 196505,
		  "time": 191.8994140625,
		  "velocity": 0.3937007874015748
		},
		{
		  "duration": 0.09375,
		  "durationTicks": 96,
		  "midi": 54,
		  "name": "F#3",
		  "ticks": 196505,
		  "time": 191.8994140625,
		  "velocity": 0.3937007874015748
		},
		{
		  "duration": 0.09375,
		  "durationTicks": 96,
		  "midi": 44,
		  "name": "G#2",
		  "ticks": 196601,
		  "time": 191.9931640625,
		  "velocity": 0.3937007874015748
		},
		{
		  "duration": 0.09375,
		  "durationTicks": 96,
		  "midi": 60,
		  "name": "C4",
		  "ticks": 196605,
		  "time": 191.9970703125,
		  "velocity": 0.3937007874015748
		},
		{
		  "duration": 0.09375,
		  "durationTicks": 96,
		  "midi": 54,
		  "name": "F#3",
		  "ticks": 196697,
		  "time": 192.0869140625,
		  "velocity": 0.3937007874015748
		},
		{
		  "duration": 0.09375,
		  "durationTicks": 96,
		  "midi": 66,
		  "name": "F#4",
		  "ticks": 196701,
		  "time": 192.0908203125,
		  "velocity": 0.3937007874015748
		},
		{
		  "duration": 0.09375,
		  "durationTicks": 96,
		  "midi": 51,
		  "name": "D#3",
		  "ticks": 196793,
		  "time": 192.1806640625,
		  "velocity": 0.3937007874015748
		},
		{
		  "duration": 0.09375,
		  "durationTicks": 96,
		  "midi": 63,
		  "name": "D#4",
		  "ticks": 196797,
		  "time": 192.1845703125,
		  "velocity": 0.3937007874015748
		},
		{
		  "duration": 0.09375,
		  "durationTicks": 96,
		  "midi": 66,
		  "name": "F#4",
		  "ticks": 196889,
		  "time": 192.2744140625,
		  "velocity": 0.3937007874015748
		},
		{
		  "duration": 0.09375,
		  "durationTicks": 96,
		  "midi": 54,
		  "name": "F#3",
		  "ticks": 196889,
		  "time": 192.2744140625,
		  "velocity": 0.3937007874015748
		},
		{
		  "duration": 0.09375,
		  "durationTicks": 96,
		  "midi": 60,
		  "name": "C4",
		  "ticks": 196985,
		  "time": 192.3681640625,
		  "velocity": 0.3937007874015748
		},
		{
		  "duration": 0.09375,
		  "durationTicks": 96,
		  "midi": 44,
		  "name": "G#2",
		  "ticks": 196985,
		  "time": 192.3681640625,
		  "velocity": 0.3937007874015748
		},
		{
		  "duration": 0.09375,
		  "durationTicks": 96,
		  "midi": 66,
		  "name": "F#4",
		  "ticks": 197081,
		  "time": 192.4619140625,
		  "velocity": 0.3937007874015748
		},
		{
		  "duration": 0.09375,
		  "durationTicks": 96,
		  "midi": 54,
		  "name": "F#3",
		  "ticks": 197081,
		  "time": 192.4619140625,
		  "velocity": 0.3937007874015748
		},
		{
		  "duration": 0.09375,
		  "durationTicks": 96,
		  "midi": 63,
		  "name": "D#4",
		  "ticks": 197177,
		  "time": 192.5556640625,
		  "velocity": 0.3937007874015748
		},
		{
		  "duration": 0.09375,
		  "durationTicks": 96,
		  "midi": 51,
		  "name": "D#3",
		  "ticks": 197177,
		  "time": 192.5556640625,
		  "velocity": 0.3937007874015748
		},
		{
		  "duration": 0.09375,
		  "durationTicks": 96,
		  "midi": 66,
		  "name": "F#4",
		  "ticks": 197273,
		  "time": 192.6494140625,
		  "velocity": 0.3937007874015748
		},
		{
		  "duration": 0.09375,
		  "durationTicks": 96,
		  "midi": 54,
		  "name": "F#3",
		  "ticks": 197273,
		  "time": 192.6494140625,
		  "velocity": 0.3937007874015748
		},
		{
		  "duration": 0.09375,
		  "durationTicks": 96,
		  "midi": 53,
		  "name": "F3",
		  "ticks": 197357,
		  "time": 192.7314453125,
		  "velocity": 0.3937007874015748
		},
		{
		  "duration": 0.09375,
		  "durationTicks": 96,
		  "midi": 56,
		  "name": "G#3",
		  "ticks": 197357,
		  "time": 192.7314453125,
		  "velocity": 0.3937007874015748
		},
		{
		  "duration": 0.09375,
		  "durationTicks": 96,
		  "midi": 65,
		  "name": "F4",
		  "ticks": 197357,
		  "time": 192.7314453125,
		  "velocity": 0.3937007874015748
		},
		{
		  "duration": 0.09375,
		  "durationTicks": 96,
		  "midi": 61,
		  "name": "C#4",
		  "ticks": 197357,
		  "time": 192.7314453125,
		  "velocity": 0.3937007874015748
		},
		{
		  "duration": 0.09375,
		  "durationTicks": 96,
		  "midi": 37,
		  "name": "C#2",
		  "ticks": 197369,
		  "time": 192.7431640625,
		  "velocity": 0.3937007874015748
		},
		{
		  "duration": 0.09375,
		  "durationTicks": 96,
		  "midi": 49,
		  "name": "C#3",
		  "ticks": 197473,
		  "time": 192.8447265625,
		  "velocity": 0.3937007874015748
		},
		{
		  "duration": 0.09375,
		  "durationTicks": 96,
		  "midi": 44,
		  "name": "G#2",
		  "ticks": 197545,
		  "time": 192.9150390625,
		  "velocity": 0.3937007874015748
		},
		{
		  "duration": 0.09375,
		  "durationTicks": 96,
		  "midi": 53,
		  "name": "F3",
		  "ticks": 197561,
		  "time": 192.9306640625,
		  "velocity": 0.3937007874015748
		},
		{
		  "duration": 0.09375,
		  "durationTicks": 96,
		  "midi": 56,
		  "name": "G#3",
		  "ticks": 197657,
		  "time": 193.0244140625,
		  "velocity": 0.3937007874015748
		},
		{
		  "duration": 0.09375,
		  "durationTicks": 96,
		  "midi": 37,
		  "name": "C#2",
		  "ticks": 197737,
		  "time": 193.1025390625,
		  "velocity": 0.3937007874015748
		},
		{
		  "duration": 0.09375,
		  "durationTicks": 96,
		  "midi": 61,
		  "name": "C#4",
		  "ticks": 197753,
		  "time": 193.1181640625,
		  "velocity": 0.3937007874015748
		},
		{
		  "duration": 0.09375,
		  "durationTicks": 96,
		  "midi": 53,
		  "name": "F3",
		  "ticks": 197849,
		  "time": 193.2119140625,
		  "velocity": 0.3937007874015748
		},
		{
		  "duration": 0.09375,
		  "durationTicks": 96,
		  "midi": 44,
		  "name": "G#2",
		  "ticks": 197929,
		  "time": 193.2900390625,
		  "velocity": 0.3937007874015748
		},
		{
		  "duration": 0.09375,
		  "durationTicks": 96,
		  "midi": 56,
		  "name": "G#3",
		  "ticks": 197945,
		  "time": 193.3056640625,
		  "velocity": 0.3937007874015748
		},
		{
		  "duration": 0.09375,
		  "durationTicks": 96,
		  "midi": 61,
		  "name": "C#4",
		  "ticks": 198041,
		  "time": 193.3994140625,
		  "velocity": 0.3937007874015748
		},
		{
		  "duration": 0.09375,
		  "durationTicks": 96,
		  "midi": 37,
		  "name": "C#2",
		  "ticks": 198121,
		  "time": 193.4775390625,
		  "velocity": 0.3937007874015748
		},
		{
		  "duration": 0.09375,
		  "durationTicks": 96,
		  "midi": 65,
		  "name": "F4",
		  "ticks": 198137,
		  "time": 193.4931640625,
		  "velocity": 0.3937007874015748
		},
		{
		  "duration": 0.09375,
		  "durationTicks": 96,
		  "midi": 56,
		  "name": "G#3",
		  "ticks": 198233,
		  "time": 193.5869140625,
		  "velocity": 0.3937007874015748
		},
		{
		  "duration": 0.09375,
		  "durationTicks": 96,
		  "midi": 44,
		  "name": "G#2",
		  "ticks": 198313,
		  "time": 193.6650390625,
		  "velocity": 0.3937007874015748
		},
		{
		  "duration": 0.09375,
		  "durationTicks": 96,
		  "midi": 61,
		  "name": "C#4",
		  "ticks": 198329,
		  "time": 193.6806640625,
		  "velocity": 0.3937007874015748
		},
		{
		  "duration": 0.09375,
		  "durationTicks": 96,
		  "midi": 65,
		  "name": "F4",
		  "ticks": 198425,
		  "time": 193.7744140625,
		  "velocity": 0.3937007874015748
		},
		{
		  "duration": 0.09375,
		  "durationTicks": 96,
		  "midi": 37,
		  "name": "C#2",
		  "ticks": 198505,
		  "time": 193.8525390625,
		  "velocity": 0.3937007874015748
		},
		{
		  "duration": 0.09375,
		  "durationTicks": 96,
		  "midi": 68,
		  "name": "G#4",
		  "ticks": 198521,
		  "time": 193.8681640625,
		  "velocity": 0.3937007874015748
		},
		{
		  "duration": 0.09375,
		  "durationTicks": 96,
		  "midi": 61,
		  "name": "C#4",
		  "ticks": 198617,
		  "time": 193.9619140625,
		  "velocity": 0.3937007874015748
		},
		{
		  "duration": 0.09375,
		  "durationTicks": 96,
		  "midi": 44,
		  "name": "G#2",
		  "ticks": 198697,
		  "time": 194.0400390625,
		  "velocity": 0.3937007874015748
		},
		{
		  "duration": 0.09375,
		  "durationTicks": 96,
		  "midi": 65,
		  "name": "F4",
		  "ticks": 198713,
		  "time": 194.0556640625,
		  "velocity": 0.3937007874015748
		},
		{
		  "duration": 0.09375,
		  "durationTicks": 96,
		  "midi": 68,
		  "name": "G#4",
		  "ticks": 198809,
		  "time": 194.1494140625,
		  "velocity": 0.3937007874015748
		},
		{
		  "duration": 0.09375,
		  "durationTicks": 96,
		  "midi": 37,
		  "name": "C#2",
		  "ticks": 198889,
		  "time": 194.2275390625,
		  "velocity": 0.3937007874015748
		},
		{
		  "duration": 0.09375,
		  "durationTicks": 96,
		  "midi": 73,
		  "name": "C#5",
		  "ticks": 198905,
		  "time": 194.2431640625,
		  "velocity": 0.3937007874015748
		},
		{
		  "duration": 0.09375,
		  "durationTicks": 96,
		  "midi": 65,
		  "name": "F4",
		  "ticks": 199001,
		  "time": 194.3369140625,
		  "velocity": 0.3937007874015748
		},
		{
		  "duration": 0.09375,
		  "durationTicks": 96,
		  "midi": 44,
		  "name": "G#2",
		  "ticks": 199081,
		  "time": 194.4150390625,
		  "velocity": 0.3937007874015748
		},
		{
		  "duration": 0.09375,
		  "durationTicks": 96,
		  "midi": 68,
		  "name": "G#4",
		  "ticks": 199097,
		  "time": 194.4306640625,
		  "velocity": 0.3937007874015748
		},
		{
		  "duration": 0.09375,
		  "durationTicks": 96,
		  "midi": 73,
		  "name": "C#5",
		  "ticks": 199193,
		  "time": 194.5244140625,
		  "velocity": 0.3937007874015748
		},
		{
		  "duration": 0.09375,
		  "durationTicks": 96,
		  "midi": 37,
		  "name": "C#2",
		  "ticks": 199273,
		  "time": 194.6025390625,
		  "velocity": 0.3937007874015748
		},
		{
		  "duration": 0.09375,
		  "durationTicks": 96,
		  "midi": 77,
		  "name": "F5",
		  "ticks": 199289,
		  "time": 194.6181640625,
		  "velocity": 0.3937007874015748
		},
		{
		  "duration": 0.09375,
		  "durationTicks": 96,
		  "midi": 68,
		  "name": "G#4",
		  "ticks": 199385,
		  "time": 194.7119140625,
		  "velocity": 0.3937007874015748
		},
		{
		  "duration": 0.09375,
		  "durationTicks": 96,
		  "midi": 44,
		  "name": "G#2",
		  "ticks": 199465,
		  "time": 194.7900390625,
		  "velocity": 0.3937007874015748
		},
		{
		  "duration": 0.09375,
		  "durationTicks": 96,
		  "midi": 73,
		  "name": "C#5",
		  "ticks": 199481,
		  "time": 194.8056640625,
		  "velocity": 0.3937007874015748
		},
		{
		  "duration": 0.09375,
		  "durationTicks": 96,
		  "midi": 77,
		  "name": "F5",
		  "ticks": 199577,
		  "time": 194.8994140625,
		  "velocity": 0.3937007874015748
		},
		{
		  "duration": 0.09375,
		  "durationTicks": 96,
		  "midi": 37,
		  "name": "C#2",
		  "ticks": 199657,
		  "time": 194.9775390625,
		  "velocity": 0.3937007874015748
		},
		{
		  "duration": 0.09375,
		  "durationTicks": 96,
		  "midi": 80,
		  "name": "G#5",
		  "ticks": 199673,
		  "time": 194.9931640625,
		  "velocity": 0.3937007874015748
		},
		{
		  "duration": 0.09375,
		  "durationTicks": 96,
		  "midi": 73,
		  "name": "C#5",
		  "ticks": 199769,
		  "time": 195.0869140625,
		  "velocity": 0.3937007874015748
		},
		{
		  "duration": 0.09375,
		  "durationTicks": 96,
		  "midi": 44,
		  "name": "G#2",
		  "ticks": 199849,
		  "time": 195.1650390625,
		  "velocity": 0.3937007874015748
		},
		{
		  "duration": 0.09375,
		  "durationTicks": 96,
		  "midi": 77,
		  "name": "F5",
		  "ticks": 199865,
		  "time": 195.1806640625,
		  "velocity": 0.3937007874015748
		},
		{
		  "duration": 0.09375,
		  "durationTicks": 96,
		  "midi": 80,
		  "name": "G#5",
		  "ticks": 199961,
		  "time": 195.2744140625,
		  "velocity": 0.3937007874015748
		},
		{
		  "duration": 0.1875,
		  "durationTicks": 192,
		  "midi": 37,
		  "name": "C#2",
		  "ticks": 200041,
		  "time": 195.3525390625,
		  "velocity": 0.3937007874015748
		},
		{
		  "duration": 0.1875,
		  "durationTicks": 192,
		  "midi": 80,
		  "name": "G#5",
		  "ticks": 200045,
		  "time": 195.3564453125,
		  "velocity": 0.3937007874015748
		},
		{
		  "duration": 0.1875,
		  "durationTicks": 192,
		  "midi": 77,
		  "name": "F5",
		  "ticks": 200045,
		  "time": 195.3564453125,
		  "velocity": 0.3937007874015748
		},
		{
		  "duration": 0.1875,
		  "durationTicks": 192,
		  "midi": 73,
		  "name": "C#5",
		  "ticks": 200045,
		  "time": 195.3564453125,
		  "velocity": 0.3937007874015748
		},
		{
		  "duration": 0.1875,
		  "durationTicks": 192,
		  "midi": 85,
		  "name": "C#6",
		  "ticks": 200045,
		  "time": 195.3564453125,
		  "velocity": 0.3937007874015748
		},
		{
		  "duration": 0.1875,
		  "durationTicks": 192,
		  "midi": 49,
		  "name": "C#3",
		  "ticks": 200045,
		  "time": 195.3564453125,
		  "velocity": 0.3937007874015748
		},
		{
		  "duration": 0.1875,
		  "durationTicks": 192,
		  "midi": 77,
		  "name": "F5",
		  "ticks": 200233,
		  "time": 195.5400390625,
		  "velocity": 0.3937007874015748
		},
		{
		  "duration": 0.1875,
		  "durationTicks": 192,
		  "midi": 80,
		  "name": "G#5",
		  "ticks": 200233,
		  "time": 195.5400390625,
		  "velocity": 0.3937007874015748
		},
		{
		  "duration": 0.1875,
		  "durationTicks": 192,
		  "midi": 73,
		  "name": "C#5",
		  "ticks": 200233,
		  "time": 195.5400390625,
		  "velocity": 0.3937007874015748
		},
		{
		  "duration": 0.1875,
		  "durationTicks": 192,
		  "midi": 85,
		  "name": "C#6",
		  "ticks": 200233,
		  "time": 195.5400390625,
		  "velocity": 0.3937007874015748
		},
		{
		  "duration": 0.1875,
		  "durationTicks": 192,
		  "midi": 44,
		  "name": "G#2",
		  "ticks": 200233,
		  "time": 195.5400390625,
		  "velocity": 0.3937007874015748
		},
		{
		  "duration": 0.09375,
		  "durationTicks": 96,
		  "midi": 35,
		  "name": "B1",
		  "ticks": 200425,
		  "time": 195.7275390625,
		  "velocity": 0.3937007874015748
		},
		{
		  "duration": 0.09375,
		  "durationTicks": 96,
		  "midi": 49,
		  "name": "C#3",
		  "ticks": 200537,
		  "time": 195.8369140625,
		  "velocity": 0.3937007874015748
		},
		{
		  "duration": 0.09375,
		  "durationTicks": 96,
		  "midi": 44,
		  "name": "G#2",
		  "ticks": 200617,
		  "time": 195.9150390625,
		  "velocity": 0.3937007874015748
		},
		{
		  "duration": 0.09375,
		  "durationTicks": 96,
		  "midi": 53,
		  "name": "F3",
		  "ticks": 200633,
		  "time": 195.9306640625,
		  "velocity": 0.3937007874015748
		},
		{
		  "duration": 0.09375,
		  "durationTicks": 96,
		  "midi": 56,
		  "name": "G#3",
		  "ticks": 200729,
		  "time": 196.0244140625,
		  "velocity": 0.3937007874015748
		},
		{
		  "duration": 0.09375,
		  "durationTicks": 96,
		  "midi": 35,
		  "name": "B1",
		  "ticks": 200809,
		  "time": 196.1025390625,
		  "velocity": 0.3937007874015748
		},
		{
		  "duration": 0.09375,
		  "durationTicks": 96,
		  "midi": 61,
		  "name": "C#4",
		  "ticks": 200825,
		  "time": 196.1181640625,
		  "velocity": 0.3937007874015748
		},
		{
		  "duration": 0.09375,
		  "durationTicks": 96,
		  "midi": 53,
		  "name": "F3",
		  "ticks": 200921,
		  "time": 196.2119140625,
		  "velocity": 0.3937007874015748
		},
		{
		  "duration": 0.09375,
		  "durationTicks": 96,
		  "midi": 44,
		  "name": "G#2",
		  "ticks": 201001,
		  "time": 196.2900390625,
		  "velocity": 0.3937007874015748
		},
		{
		  "duration": 0.09375,
		  "durationTicks": 96,
		  "midi": 56,
		  "name": "G#3",
		  "ticks": 201017,
		  "time": 196.3056640625,
		  "velocity": 0.3937007874015748
		},
		{
		  "duration": 0.09375,
		  "durationTicks": 96,
		  "midi": 61,
		  "name": "C#4",
		  "ticks": 201113,
		  "time": 196.3994140625,
		  "velocity": 0.3937007874015748
		},
		{
		  "duration": 0.09375,
		  "durationTicks": 96,
		  "midi": 35,
		  "name": "B1",
		  "ticks": 201193,
		  "time": 196.4775390625,
		  "velocity": 0.3937007874015748
		},
		{
		  "duration": 0.09375,
		  "durationTicks": 96,
		  "midi": 65,
		  "name": "F4",
		  "ticks": 201209,
		  "time": 196.4931640625,
		  "velocity": 0.3937007874015748
		},
		{
		  "duration": 0.09375,
		  "durationTicks": 96,
		  "midi": 56,
		  "name": "G#3",
		  "ticks": 201305,
		  "time": 196.5869140625,
		  "velocity": 0.3937007874015748
		},
		{
		  "duration": 0.09375,
		  "durationTicks": 96,
		  "midi": 44,
		  "name": "G#2",
		  "ticks": 201385,
		  "time": 196.6650390625,
		  "velocity": 0.3937007874015748
		},
		{
		  "duration": 0.09375,
		  "durationTicks": 96,
		  "midi": 61,
		  "name": "C#4",
		  "ticks": 201401,
		  "time": 196.6806640625,
		  "velocity": 0.3937007874015748
		},
		{
		  "duration": 0.09375,
		  "durationTicks": 96,
		  "midi": 65,
		  "name": "F4",
		  "ticks": 201497,
		  "time": 196.7744140625,
		  "velocity": 0.3937007874015748
		},
		{
		  "duration": 0.09375,
		  "durationTicks": 96,
		  "midi": 35,
		  "name": "B1",
		  "ticks": 201577,
		  "time": 196.8525390625,
		  "velocity": 0.3937007874015748
		},
		{
		  "duration": 0.09375,
		  "durationTicks": 96,
		  "midi": 68,
		  "name": "G#4",
		  "ticks": 201593,
		  "time": 196.8681640625,
		  "velocity": 0.3937007874015748
		},
		{
		  "duration": 0.09375,
		  "durationTicks": 96,
		  "midi": 61,
		  "name": "C#4",
		  "ticks": 201689,
		  "time": 196.9619140625,
		  "velocity": 0.3937007874015748
		},
		{
		  "duration": 0.09375,
		  "durationTicks": 96,
		  "midi": 44,
		  "name": "G#2",
		  "ticks": 201769,
		  "time": 197.0400390625,
		  "velocity": 0.3937007874015748
		},
		{
		  "duration": 0.09375,
		  "durationTicks": 96,
		  "midi": 65,
		  "name": "F4",
		  "ticks": 201785,
		  "time": 197.0556640625,
		  "velocity": 0.3937007874015748
		},
		{
		  "duration": 0.09375,
		  "durationTicks": 96,
		  "midi": 68,
		  "name": "G#4",
		  "ticks": 201881,
		  "time": 197.1494140625,
		  "velocity": 0.3937007874015748
		},
		{
		  "duration": 0.09375,
		  "durationTicks": 96,
		  "midi": 35,
		  "name": "B1",
		  "ticks": 201961,
		  "time": 197.2275390625,
		  "velocity": 0.3937007874015748
		},
		{
		  "duration": 0.09375,
		  "durationTicks": 96,
		  "midi": 73,
		  "name": "C#5",
		  "ticks": 201977,
		  "time": 197.2431640625,
		  "velocity": 0.3937007874015748
		},
		{
		  "duration": 0.09375,
		  "durationTicks": 96,
		  "midi": 65,
		  "name": "F4",
		  "ticks": 202073,
		  "time": 197.3369140625,
		  "velocity": 0.3937007874015748
		},
		{
		  "duration": 0.09375,
		  "durationTicks": 96,
		  "midi": 44,
		  "name": "G#2",
		  "ticks": 202153,
		  "time": 197.4150390625,
		  "velocity": 0.3937007874015748
		},
		{
		  "duration": 0.09375,
		  "durationTicks": 96,
		  "midi": 68,
		  "name": "G#4",
		  "ticks": 202169,
		  "time": 197.4306640625,
		  "velocity": 0.3937007874015748
		},
		{
		  "duration": 0.09375,
		  "durationTicks": 96,
		  "midi": 73,
		  "name": "C#5",
		  "ticks": 202265,
		  "time": 197.5244140625,
		  "velocity": 0.3937007874015748
		},
		{
		  "duration": 0.09375,
		  "durationTicks": 96,
		  "midi": 35,
		  "name": "B1",
		  "ticks": 202345,
		  "time": 197.6025390625,
		  "velocity": 0.3937007874015748
		},
		{
		  "duration": 0.09375,
		  "durationTicks": 96,
		  "midi": 77,
		  "name": "F5",
		  "ticks": 202361,
		  "time": 197.6181640625,
		  "velocity": 0.3937007874015748
		},
		{
		  "duration": 0.09375,
		  "durationTicks": 96,
		  "midi": 68,
		  "name": "G#4",
		  "ticks": 202457,
		  "time": 197.7119140625,
		  "velocity": 0.3937007874015748
		},
		{
		  "duration": 0.09375,
		  "durationTicks": 96,
		  "midi": 44,
		  "name": "G#2",
		  "ticks": 202537,
		  "time": 197.7900390625,
		  "velocity": 0.3937007874015748
		},
		{
		  "duration": 0.09375,
		  "durationTicks": 96,
		  "midi": 73,
		  "name": "C#5",
		  "ticks": 202553,
		  "time": 197.8056640625,
		  "velocity": 0.3937007874015748
		},
		{
		  "duration": 0.09375,
		  "durationTicks": 96,
		  "midi": 77,
		  "name": "F5",
		  "ticks": 202649,
		  "time": 197.8994140625,
		  "velocity": 0.3937007874015748
		},
		{
		  "duration": 0.09375,
		  "durationTicks": 96,
		  "midi": 35,
		  "name": "B1",
		  "ticks": 202729,
		  "time": 197.9775390625,
		  "velocity": 0.3937007874015748
		},
		{
		  "duration": 0.09375,
		  "durationTicks": 96,
		  "midi": 80,
		  "name": "G#5",
		  "ticks": 202745,
		  "time": 197.9931640625,
		  "velocity": 0.3937007874015748
		},
		{
		  "duration": 0.09375,
		  "durationTicks": 96,
		  "midi": 73,
		  "name": "C#5",
		  "ticks": 202841,
		  "time": 198.0869140625,
		  "velocity": 0.3937007874015748
		},
		{
		  "duration": 0.09375,
		  "durationTicks": 96,
		  "midi": 44,
		  "name": "G#2",
		  "ticks": 202921,
		  "time": 198.1650390625,
		  "velocity": 0.3937007874015748
		},
		{
		  "duration": 0.09375,
		  "durationTicks": 96,
		  "midi": 77,
		  "name": "F5",
		  "ticks": 202937,
		  "time": 198.1806640625,
		  "velocity": 0.3937007874015748
		},
		{
		  "duration": 0.09375,
		  "durationTicks": 96,
		  "midi": 80,
		  "name": "G#5",
		  "ticks": 203033,
		  "time": 198.2744140625,
		  "velocity": 0.3937007874015748
		},
		{
		  "duration": 0.1875,
		  "durationTicks": 192,
		  "midi": 73,
		  "name": "C#5",
		  "ticks": 203117,
		  "time": 198.3564453125,
		  "velocity": 0.3937007874015748
		},
		{
		  "duration": 0.1875,
		  "durationTicks": 192,
		  "midi": 77,
		  "name": "F5",
		  "ticks": 203117,
		  "time": 198.3564453125,
		  "velocity": 0.3937007874015748
		},
		{
		  "duration": 0.1875,
		  "durationTicks": 192,
		  "midi": 80,
		  "name": "G#5",
		  "ticks": 203117,
		  "time": 198.3564453125,
		  "velocity": 0.3937007874015748
		},
		{
		  "duration": 0.1875,
		  "durationTicks": 192,
		  "midi": 85,
		  "name": "C#6",
		  "ticks": 203117,
		  "time": 198.3564453125,
		  "velocity": 0.3937007874015748
		},
		{
		  "duration": 0.1875,
		  "durationTicks": 192,
		  "midi": 35,
		  "name": "B1",
		  "ticks": 203117,
		  "time": 198.3564453125,
		  "velocity": 0.3937007874015748
		},
		{
		  "duration": 0.1875,
		  "durationTicks": 192,
		  "midi": 47,
		  "name": "B2",
		  "ticks": 203117,
		  "time": 198.3564453125,
		  "velocity": 0.3937007874015748
		},
		{
		  "duration": 0.1875,
		  "durationTicks": 192,
		  "midi": 77,
		  "name": "F5",
		  "ticks": 203305,
		  "time": 198.5400390625,
		  "velocity": 0.3937007874015748
		},
		{
		  "duration": 0.1875,
		  "durationTicks": 192,
		  "midi": 85,
		  "name": "C#6",
		  "ticks": 203305,
		  "time": 198.5400390625,
		  "velocity": 0.3937007874015748
		},
		{
		  "duration": 0.1875,
		  "durationTicks": 192,
		  "midi": 80,
		  "name": "G#5",
		  "ticks": 203305,
		  "time": 198.5400390625,
		  "velocity": 0.3937007874015748
		},
		{
		  "duration": 0.1875,
		  "durationTicks": 192,
		  "midi": 73,
		  "name": "C#5",
		  "ticks": 203305,
		  "time": 198.5400390625,
		  "velocity": 0.3937007874015748
		},
		{
		  "duration": 0.1875,
		  "durationTicks": 192,
		  "midi": 44,
		  "name": "G#2",
		  "ticks": 203305,
		  "time": 198.5400390625,
		  "velocity": 0.3937007874015748
		},
		{
		  "duration": 0.09375,
		  "durationTicks": 96,
		  "midi": 33,
		  "name": "A1",
		  "ticks": 203497,
		  "time": 198.7275390625,
		  "velocity": 0.3937007874015748
		},
		{
		  "duration": 0.09375,
		  "durationTicks": 96,
		  "midi": 49,
		  "name": "C#3",
		  "ticks": 203593,
		  "time": 198.8212890625,
		  "velocity": 0.3937007874015748
		},
		{
		  "duration": 0.09375,
		  "durationTicks": 96,
		  "midi": 54,
		  "name": "F#3",
		  "ticks": 203689,
		  "time": 198.9150390625,
		  "velocity": 0.3937007874015748
		},
		{
		  "duration": 0.09375,
		  "durationTicks": 96,
		  "midi": 45,
		  "name": "A2",
		  "ticks": 203689,
		  "time": 198.9150390625,
		  "velocity": 0.3937007874015748
		},
		{
		  "duration": 0.09375,
		  "durationTicks": 96,
		  "midi": 57,
		  "name": "A3",
		  "ticks": 203785,
		  "time": 199.0087890625,
		  "velocity": 0.3937007874015748
		},
		{
		  "duration": 0.09375,
		  "durationTicks": 96,
		  "midi": 33,
		  "name": "A1",
		  "ticks": 203881,
		  "time": 199.1025390625,
		  "velocity": 0.3937007874015748
		},
		{
		  "duration": 0.09375,
		  "durationTicks": 96,
		  "midi": 61,
		  "name": "C#4",
		  "ticks": 203897,
		  "time": 199.1181640625,
		  "velocity": 0.3937007874015748
		},
		{
		  "duration": 0.09375,
		  "durationTicks": 96,
		  "midi": 61,
		  "name": "C#4",
		  "ticks": 203977,
		  "time": 199.1962890625,
		  "velocity": 0.3937007874015748
		},
		{
		  "duration": 0.09375,
		  "durationTicks": 96,
		  "midi": 66,
		  "name": "F#4",
		  "ticks": 204073,
		  "time": 199.2900390625,
		  "velocity": 0.3937007874015748
		},
		{
		  "duration": 0.09375,
		  "durationTicks": 96,
		  "midi": 45,
		  "name": "A2",
		  "ticks": 204073,
		  "time": 199.2900390625,
		  "velocity": 0.3937007874015748
		},
		{
		  "duration": 0.09375,
		  "durationTicks": 96,
		  "midi": 69,
		  "name": "A4",
		  "ticks": 204169,
		  "time": 199.3837890625,
		  "velocity": 0.3937007874015748
		},
		{
		  "duration": 0.09375,
		  "durationTicks": 96,
		  "midi": 33,
		  "name": "A1",
		  "ticks": 204265,
		  "time": 199.4775390625,
		  "velocity": 0.3937007874015748
		},
		{
		  "duration": 0.09375,
		  "durationTicks": 96,
		  "midi": 73,
		  "name": "C#5",
		  "ticks": 204281,
		  "time": 199.4931640625,
		  "velocity": 0.3937007874015748
		},
		{
		  "duration": 0.09375,
		  "durationTicks": 96,
		  "midi": 73,
		  "name": "C#5",
		  "ticks": 204361,
		  "time": 199.5712890625,
		  "velocity": 0.3937007874015748
		},
		{
		  "duration": 0.09375,
		  "durationTicks": 96,
		  "midi": 78,
		  "name": "F#5",
		  "ticks": 204457,
		  "time": 199.6650390625,
		  "velocity": 0.3937007874015748
		},
		{
		  "duration": 0.09375,
		  "durationTicks": 96,
		  "midi": 45,
		  "name": "A2",
		  "ticks": 204457,
		  "time": 199.6650390625,
		  "velocity": 0.3937007874015748
		},
		{
		  "duration": 0.09375,
		  "durationTicks": 96,
		  "midi": 81,
		  "name": "A5",
		  "ticks": 204553,
		  "time": 199.7587890625,
		  "velocity": 0.3937007874015748
		},
		{
		  "duration": 0.1875,
		  "durationTicks": 192,
		  "midi": 73,
		  "name": "C#5",
		  "ticks": 204649,
		  "time": 199.8525390625,
		  "velocity": 0.3937007874015748
		},
		{
		  "duration": 0.1875,
		  "durationTicks": 192,
		  "midi": 81,
		  "name": "A5",
		  "ticks": 204649,
		  "time": 199.8525390625,
		  "velocity": 0.3937007874015748
		},
		{
		  "duration": 0.1875,
		  "durationTicks": 192,
		  "midi": 85,
		  "name": "C#6",
		  "ticks": 204649,
		  "time": 199.8525390625,
		  "velocity": 0.3937007874015748
		},
		{
		  "duration": 0.1875,
		  "durationTicks": 192,
		  "midi": 78,
		  "name": "F#5",
		  "ticks": 204649,
		  "time": 199.8525390625,
		  "velocity": 0.3937007874015748
		},
		{
		  "duration": 0.09375,
		  "durationTicks": 96,
		  "midi": 33,
		  "name": "A1",
		  "ticks": 204649,
		  "time": 199.8525390625,
		  "velocity": 0.3937007874015748
		},
		{
		  "duration": 0.1875,
		  "durationTicks": 192,
		  "midi": 73,
		  "name": "C#5",
		  "ticks": 204841,
		  "time": 200.0400390625,
		  "velocity": 0.3937007874015748
		},
		{
		  "duration": 0.1875,
		  "durationTicks": 192,
		  "midi": 85,
		  "name": "C#6",
		  "ticks": 204841,
		  "time": 200.0400390625,
		  "velocity": 0.3937007874015748
		},
		{
		  "duration": 0.1875,
		  "durationTicks": 192,
		  "midi": 81,
		  "name": "A5",
		  "ticks": 204841,
		  "time": 200.0400390625,
		  "velocity": 0.3937007874015748
		},
		{
		  "duration": 0.1875,
		  "durationTicks": 192,
		  "midi": 78,
		  "name": "F#5",
		  "ticks": 204841,
		  "time": 200.0400390625,
		  "velocity": 0.3937007874015748
		},
		{
		  "duration": 0.09375,
		  "durationTicks": 96,
		  "midi": 45,
		  "name": "A2",
		  "ticks": 204841,
		  "time": 200.0400390625,
		  "velocity": 0.3937007874015748
		},
		{
		  "duration": 0.09375,
		  "durationTicks": 96,
		  "midi": 29,
		  "name": "F1",
		  "ticks": 205033,
		  "time": 200.2275390625,
		  "velocity": 0.3937007874015748
		},
		{
		  "duration": 0.09375,
		  "durationTicks": 96,
		  "midi": 49,
		  "name": "C#3",
		  "ticks": 205129,
		  "time": 200.3212890625,
		  "velocity": 0.3937007874015748
		},
		{
		  "duration": 0.09375,
		  "durationTicks": 96,
		  "midi": 41,
		  "name": "F2",
		  "ticks": 205225,
		  "time": 200.4150390625,
		  "velocity": 0.3937007874015748
		},
		{
		  "duration": 0.09375,
		  "durationTicks": 96,
		  "midi": 56,
		  "name": "G#3",
		  "ticks": 205241,
		  "time": 200.4306640625,
		  "velocity": 0.3937007874015748
		},
		{
		  "duration": 0.09375,
		  "durationTicks": 96,
		  "midi": 59,
		  "name": "B3",
		  "ticks": 205337,
		  "time": 200.5244140625,
		  "velocity": 0.3937007874015748
		},
		{
		  "duration": 0.09375,
		  "durationTicks": 96,
		  "midi": 29,
		  "name": "F1",
		  "ticks": 205417,
		  "time": 200.6025390625,
		  "velocity": 0.3937007874015748
		},
		{
		  "duration": 0.09375,
		  "durationTicks": 96,
		  "midi": 61,
		  "name": "C#4",
		  "ticks": 205433,
		  "time": 200.6181640625,
		  "velocity": 0.3937007874015748
		},
		{
		  "duration": 0.09375,
		  "durationTicks": 96,
		  "midi": 61,
		  "name": "C#4",
		  "ticks": 205513,
		  "time": 200.6962890625,
		  "velocity": 0.3937007874015748
		},
		{
		  "duration": 0.09375,
		  "durationTicks": 96,
		  "midi": 41,
		  "name": "F2",
		  "ticks": 205609,
		  "time": 200.7900390625,
		  "velocity": 0.3937007874015748
		},
		{
		  "duration": 0.09375,
		  "durationTicks": 96,
		  "midi": 68,
		  "name": "G#4",
		  "ticks": 205625,
		  "time": 200.8056640625,
		  "velocity": 0.3937007874015748
		},
		{
		  "duration": 0.09375,
		  "durationTicks": 96,
		  "midi": 71,
		  "name": "B4",
		  "ticks": 205721,
		  "time": 200.8994140625,
		  "velocity": 0.3937007874015748
		},
		{
		  "duration": 0.09375,
		  "durationTicks": 96,
		  "midi": 29,
		  "name": "F1",
		  "ticks": 205801,
		  "time": 200.9775390625,
		  "velocity": 0.3937007874015748
		},
		{
		  "duration": 0.09375,
		  "durationTicks": 96,
		  "midi": 73,
		  "name": "C#5",
		  "ticks": 205817,
		  "time": 200.9931640625,
		  "velocity": 0.3937007874015748
		},
		{
		  "duration": 0.09375,
		  "durationTicks": 96,
		  "midi": 73,
		  "name": "C#5",
		  "ticks": 205897,
		  "time": 201.0712890625,
		  "velocity": 0.3937007874015748
		},
		{
		  "duration": 0.09375,
		  "durationTicks": 96,
		  "midi": 41,
		  "name": "F2",
		  "ticks": 205993,
		  "time": 201.1650390625,
		  "velocity": 0.3937007874015748
		},
		{
		  "duration": 0.09375,
		  "durationTicks": 96,
		  "midi": 80,
		  "name": "G#5",
		  "ticks": 206009,
		  "time": 201.1806640625,
		  "velocity": 0.3937007874015748
		},
		{
		  "duration": 0.09375,
		  "durationTicks": 96,
		  "midi": 83,
		  "name": "B5",
		  "ticks": 206105,
		  "time": 201.2744140625,
		  "velocity": 0.3937007874015748
		},
		{
		  "duration": 0.1875,
		  "durationTicks": 192,
		  "midi": 80,
		  "name": "G#5",
		  "ticks": 206185,
		  "time": 201.3525390625,
		  "velocity": 0.3937007874015748
		},
		{
		  "duration": 0.1875,
		  "durationTicks": 192,
		  "midi": 85,
		  "name": "C#6",
		  "ticks": 206185,
		  "time": 201.3525390625,
		  "velocity": 0.3937007874015748
		},
		{
		  "duration": 0.1875,
		  "durationTicks": 192,
		  "midi": 83,
		  "name": "B5",
		  "ticks": 206185,
		  "time": 201.3525390625,
		  "velocity": 0.3937007874015748
		},
		{
		  "duration": 0.1875,
		  "durationTicks": 192,
		  "midi": 73,
		  "name": "C#5",
		  "ticks": 206185,
		  "time": 201.3525390625,
		  "velocity": 0.3937007874015748
		},
		{
		  "duration": 0.09375,
		  "durationTicks": 96,
		  "midi": 29,
		  "name": "F1",
		  "ticks": 206189,
		  "time": 201.3564453125,
		  "velocity": 0.3937007874015748
		},
		{
		  "duration": 0.1875,
		  "durationTicks": 192,
		  "midi": 73,
		  "name": "C#5",
		  "ticks": 206377,
		  "time": 201.5400390625,
		  "velocity": 0.3937007874015748
		},
		{
		  "duration": 0.1875,
		  "durationTicks": 192,
		  "midi": 80,
		  "name": "G#5",
		  "ticks": 206377,
		  "time": 201.5400390625,
		  "velocity": 0.3937007874015748
		},
		{
		  "duration": 0.1875,
		  "durationTicks": 192,
		  "midi": 83,
		  "name": "B5",
		  "ticks": 206377,
		  "time": 201.5400390625,
		  "velocity": 0.3937007874015748
		},
		{
		  "duration": 0.1875,
		  "durationTicks": 192,
		  "midi": 85,
		  "name": "C#6",
		  "ticks": 206377,
		  "time": 201.5400390625,
		  "velocity": 0.3937007874015748
		},
		{
		  "duration": 0.09375,
		  "durationTicks": 96,
		  "midi": 41,
		  "name": "F2",
		  "ticks": 206381,
		  "time": 201.5439453125,
		  "velocity": 0.3937007874015748
		},
		{
		  "duration": 0.1875,
		  "durationTicks": 192,
		  "midi": 73,
		  "name": "C#5",
		  "ticks": 206569,
		  "time": 201.7275390625,
		  "velocity": 0.3937007874015748
		},
		{
		  "duration": 0.1875,
		  "durationTicks": 192,
		  "midi": 85,
		  "name": "C#6",
		  "ticks": 206569,
		  "time": 201.7275390625,
		  "velocity": 0.3937007874015748
		},
		{
		  "duration": 0.1875,
		  "durationTicks": 192,
		  "midi": 81,
		  "name": "A5",
		  "ticks": 206569,
		  "time": 201.7275390625,
		  "velocity": 0.3937007874015748
		},
		{
		  "duration": 0.1875,
		  "durationTicks": 192,
		  "midi": 78,
		  "name": "F#5",
		  "ticks": 206569,
		  "time": 201.7275390625,
		  "velocity": 0.3937007874015748
		},
		{
		  "duration": 0.09375,
		  "durationTicks": 96,
		  "midi": 42,
		  "name": "F#2",
		  "ticks": 206573,
		  "time": 201.7314453125,
		  "velocity": 0.3937007874015748
		},
		{
		  "duration": 0.09375,
		  "durationTicks": 96,
		  "midi": 30,
		  "name": "F#1",
		  "ticks": 206573,
		  "time": 201.7314453125,
		  "velocity": 0.3937007874015748
		},
		{
		  "duration": 0.09375,
		  "durationTicks": 96,
		  "midi": 61,
		  "name": "C#4",
		  "ticks": 206681,
		  "time": 201.8369140625,
		  "velocity": 0.3937007874015748
		},
		{
		  "duration": 0.09375,
		  "durationTicks": 96,
		  "midi": 57,
		  "name": "A3",
		  "ticks": 206777,
		  "time": 201.9306640625,
		  "velocity": 0.3937007874015748
		},
		{
		  "duration": 0.09375,
		  "durationTicks": 96,
		  "midi": 61,
		  "name": "C#4",
		  "ticks": 206873,
		  "time": 202.0244140625,
		  "velocity": 0.3937007874015748
		},
		{
		  "duration": 0.75,
		  "durationTicks": 768,
		  "midi": 73,
		  "name": "C#5",
		  "ticks": 206953,
		  "time": 202.1025390625,
		  "velocity": 0.3937007874015748
		},
		{
		  "duration": 0.09375,
		  "durationTicks": 96,
		  "midi": 54,
		  "name": "F#3",
		  "ticks": 206969,
		  "time": 202.1181640625,
		  "velocity": 0.3937007874015748
		},
		{
		  "duration": 0.09375,
		  "durationTicks": 96,
		  "midi": 61,
		  "name": "C#4",
		  "ticks": 207065,
		  "time": 202.2119140625,
		  "velocity": 0.3937007874015748
		},
		{
		  "duration": 0.09375,
		  "durationTicks": 96,
		  "midi": 57,
		  "name": "A3",
		  "ticks": 207161,
		  "time": 202.3056640625,
		  "velocity": 0.3937007874015748
		},
		{
		  "duration": 0.09375,
		  "durationTicks": 96,
		  "midi": 61,
		  "name": "C#4",
		  "ticks": 207257,
		  "time": 202.3994140625,
		  "velocity": 0.3937007874015748
		},
		{
		  "duration": 0.09375,
		  "durationTicks": 96,
		  "midi": 54,
		  "name": "F#3",
		  "ticks": 207353,
		  "time": 202.4931640625,
		  "velocity": 0.3937007874015748
		},
		{
		  "duration": 0.09375,
		  "durationTicks": 96,
		  "midi": 61,
		  "name": "C#4",
		  "ticks": 207449,
		  "time": 202.5869140625,
		  "velocity": 0.3937007874015748
		},
		{
		  "duration": 0.09375,
		  "durationTicks": 96,
		  "midi": 57,
		  "name": "A3",
		  "ticks": 207545,
		  "time": 202.6806640625,
		  "velocity": 0.3937007874015748
		},
		{
		  "duration": 0.09375,
		  "durationTicks": 96,
		  "midi": 61,
		  "name": "C#4",
		  "ticks": 207641,
		  "time": 202.7744140625,
		  "velocity": 0.3937007874015748
		},
		{
		  "duration": 0.28125,
		  "durationTicks": 288,
		  "midi": 69,
		  "name": "A4",
		  "ticks": 207725,
		  "time": 202.8564453125,
		  "velocity": 0.3937007874015748
		},
		{
		  "duration": 0.09375,
		  "durationTicks": 96,
		  "midi": 54,
		  "name": "F#3",
		  "ticks": 207737,
		  "time": 202.8681640625,
		  "velocity": 0.3937007874015748
		},
		{
		  "duration": 0.09375,
		  "durationTicks": 96,
		  "midi": 61,
		  "name": "C#4",
		  "ticks": 207833,
		  "time": 202.9619140625,
		  "velocity": 0.3937007874015748
		},
		{
		  "duration": 0.09375,
		  "durationTicks": 96,
		  "midi": 57,
		  "name": "A3",
		  "ticks": 207929,
		  "time": 203.0556640625,
		  "velocity": 0.3937007874015748
		},
		{
		  "duration": 0.09375,
		  "durationTicks": 96,
		  "midi": 66,
		  "name": "F#4",
		  "ticks": 208013,
		  "time": 203.1376953125,
		  "velocity": 0.3937007874015748
		},
		{
		  "duration": 0.09375,
		  "durationTicks": 96,
		  "midi": 61,
		  "name": "C#4",
		  "ticks": 208025,
		  "time": 203.1494140625,
		  "velocity": 0.3937007874015748
		},
		{
		  "duration": 0.09375,
		  "durationTicks": 96,
		  "midi": 56,
		  "name": "G#3",
		  "ticks": 208121,
		  "time": 203.2431640625,
		  "velocity": 0.3937007874015748
		},
		{
		  "duration": 0.09375,
		  "durationTicks": 96,
		  "midi": 61,
		  "name": "C#4",
		  "ticks": 208217,
		  "time": 203.3369140625,
		  "velocity": 0.3937007874015748
		},
		{
		  "duration": 0.28125,
		  "durationTicks": 288,
		  "midi": 66,
		  "name": "F#4",
		  "ticks": 208229,
		  "time": 203.3486328125,
		  "velocity": 0.3937007874015748
		},
		{
		  "duration": 0.09375,
		  "durationTicks": 96,
		  "midi": 59,
		  "name": "B3",
		  "ticks": 208313,
		  "time": 203.4306640625,
		  "velocity": 0.3937007874015748
		},
		{
		  "duration": 0.09375,
		  "durationTicks": 96,
		  "midi": 61,
		  "name": "C#4",
		  "ticks": 208409,
		  "time": 203.5244140625,
		  "velocity": 0.3937007874015748
		},
		{
		  "duration": 0.5625,
		  "durationTicks": 576,
		  "midi": 65,
		  "name": "F4",
		  "ticks": 208489,
		  "time": 203.6025390625,
		  "velocity": 0.3937007874015748
		},
		{
		  "duration": 0.09375,
		  "durationTicks": 96,
		  "midi": 56,
		  "name": "G#3",
		  "ticks": 208505,
		  "time": 203.6181640625,
		  "velocity": 0.3937007874015748
		},
		{
		  "duration": 0.09375,
		  "durationTicks": 96,
		  "midi": 61,
		  "name": "C#4",
		  "ticks": 208601,
		  "time": 203.7119140625,
		  "velocity": 0.3937007874015748
		},
		{
		  "duration": 0.09375,
		  "durationTicks": 96,
		  "midi": 59,
		  "name": "B3",
		  "ticks": 208697,
		  "time": 203.8056640625,
		  "velocity": 0.3937007874015748
		},
		{
		  "duration": 0.09375,
		  "durationTicks": 96,
		  "midi": 61,
		  "name": "C#4",
		  "ticks": 208793,
		  "time": 203.8994140625,
		  "velocity": 0.3937007874015748
		},
		{
		  "duration": 0.09375,
		  "durationTicks": 96,
		  "midi": 56,
		  "name": "G#3",
		  "ticks": 208889,
		  "time": 203.9931640625,
		  "velocity": 0.3937007874015748
		},
		{
		  "duration": 0.09375,
		  "durationTicks": 96,
		  "midi": 61,
		  "name": "C#4",
		  "ticks": 208985,
		  "time": 204.0869140625,
		  "velocity": 0.3937007874015748
		},
		{
		  "duration": 0.1875,
		  "durationTicks": 192,
		  "midi": 65,
		  "name": "F4",
		  "ticks": 209081,
		  "time": 204.1806640625,
		  "velocity": 0.3937007874015748
		},
		{
		  "duration": 0.09375,
		  "durationTicks": 96,
		  "midi": 59,
		  "name": "B3",
		  "ticks": 209081,
		  "time": 204.1806640625,
		  "velocity": 0.3937007874015748
		},
		{
		  "duration": 0.09375,
		  "durationTicks": 96,
		  "midi": 61,
		  "name": "C#4",
		  "ticks": 209177,
		  "time": 204.2744140625,
		  "velocity": 0.3937007874015748
		},
		{
		  "duration": 0.28125,
		  "durationTicks": 288,
		  "midi": 73,
		  "name": "C#5",
		  "ticks": 209257,
		  "time": 204.3525390625,
		  "velocity": 0.3937007874015748
		},
		{
		  "duration": 0.09375,
		  "durationTicks": 96,
		  "midi": 56,
		  "name": "G#3",
		  "ticks": 209273,
		  "time": 204.3681640625,
		  "velocity": 0.3937007874015748
		},
		{
		  "duration": 0.09375,
		  "durationTicks": 96,
		  "midi": 61,
		  "name": "C#4",
		  "ticks": 209369,
		  "time": 204.4619140625,
		  "velocity": 0.3937007874015748
		},
		{
		  "duration": 0.09375,
		  "durationTicks": 96,
		  "midi": 59,
		  "name": "B3",
		  "ticks": 209465,
		  "time": 204.5556640625,
		  "velocity": 0.3937007874015748
		},
		{
		  "duration": 0.09375,
		  "durationTicks": 96,
		  "midi": 65,
		  "name": "F4",
		  "ticks": 209545,
		  "time": 204.6337890625,
		  "velocity": 0.3937007874015748
		},
		{
		  "duration": 0.09375,
		  "durationTicks": 96,
		  "midi": 61,
		  "name": "C#4",
		  "ticks": 209561,
		  "time": 204.6494140625,
		  "velocity": 0.3937007874015748
		},
		{
		  "duration": 0.375,
		  "durationTicks": 384,
		  "midi": 68,
		  "name": "G#4",
		  "ticks": 209657,
		  "time": 204.7431640625,
		  "velocity": 0.3937007874015748
		},
		{
		  "duration": 0.09375,
		  "durationTicks": 96,
		  "midi": 57,
		  "name": "A3",
		  "ticks": 209657,
		  "time": 204.7431640625,
		  "velocity": 0.3937007874015748
		},
		{
		  "duration": 0.09375,
		  "durationTicks": 96,
		  "midi": 61,
		  "name": "C#4",
		  "ticks": 209753,
		  "time": 204.8369140625,
		  "velocity": 0.3937007874015748
		},
		{
		  "duration": 0.09375,
		  "durationTicks": 96,
		  "midi": 57,
		  "name": "A3",
		  "ticks": 209849,
		  "time": 204.9306640625,
		  "velocity": 0.3937007874015748
		},
		{
		  "duration": 0.09375,
		  "durationTicks": 96,
		  "midi": 61,
		  "name": "C#4",
		  "ticks": 209945,
		  "time": 205.0244140625,
		  "velocity": 0.3937007874015748
		},
		{
		  "duration": 0.5625,
		  "durationTicks": 576,
		  "midi": 66,
		  "name": "F#4",
		  "ticks": 210025,
		  "time": 205.1025390625,
		  "velocity": 0.3937007874015748
		},
		{
		  "duration": 0.09375,
		  "durationTicks": 96,
		  "midi": 57,
		  "name": "A3",
		  "ticks": 210041,
		  "time": 205.1181640625,
		  "velocity": 0.3937007874015748
		},
		{
		  "duration": 0.09375,
		  "durationTicks": 96,
		  "midi": 61,
		  "name": "C#4",
		  "ticks": 210137,
		  "time": 205.2119140625,
		  "velocity": 0.3937007874015748
		},
		{
		  "duration": 0.09375,
		  "durationTicks": 96,
		  "midi": 57,
		  "name": "A3",
		  "ticks": 210233,
		  "time": 205.3056640625,
		  "velocity": 0.3937007874015748
		},
		{
		  "duration": 0.09375,
		  "durationTicks": 96,
		  "midi": 61,
		  "name": "C#4",
		  "ticks": 210329,
		  "time": 205.3994140625,
		  "velocity": 0.3937007874015748
		},
		{
		  "duration": 0.09375,
		  "durationTicks": 96,
		  "midi": 57,
		  "name": "A3",
		  "ticks": 210425,
		  "time": 205.4931640625,
		  "velocity": 0.3937007874015748
		},
		{
		  "duration": 0.09375,
		  "durationTicks": 96,
		  "midi": 61,
		  "name": "C#4",
		  "ticks": 210521,
		  "time": 205.5869140625,
		  "velocity": 0.3937007874015748
		},
		{
		  "duration": 0.1875,
		  "durationTicks": 192,
		  "midi": 66,
		  "name": "F#4",
		  "ticks": 210617,
		  "time": 205.6806640625,
		  "velocity": 0.3937007874015748
		},
		{
		  "duration": 0.09375,
		  "durationTicks": 96,
		  "midi": 57,
		  "name": "A3",
		  "ticks": 210617,
		  "time": 205.6806640625,
		  "velocity": 0.3937007874015748
		},
		{
		  "duration": 0.09375,
		  "durationTicks": 96,
		  "midi": 61,
		  "name": "C#4",
		  "ticks": 210713,
		  "time": 205.7744140625,
		  "velocity": 0.3937007874015748
		},
		{
		  "duration": 0.28125,
		  "durationTicks": 288,
		  "midi": 73,
		  "name": "C#5",
		  "ticks": 210793,
		  "time": 205.8525390625,
		  "velocity": 0.3937007874015748
		},
		{
		  "duration": 0.09375,
		  "durationTicks": 96,
		  "midi": 57,
		  "name": "A3",
		  "ticks": 210809,
		  "time": 205.8681640625,
		  "velocity": 0.3937007874015748
		},
		{
		  "duration": 0.09375,
		  "durationTicks": 96,
		  "midi": 61,
		  "name": "C#4",
		  "ticks": 210905,
		  "time": 205.9619140625,
		  "velocity": 0.3937007874015748
		},
		{
		  "duration": 0.09375,
		  "durationTicks": 96,
		  "midi": 57,
		  "name": "A3",
		  "ticks": 211001,
		  "time": 206.0556640625,
		  "velocity": 0.3937007874015748
		},
		{
		  "duration": 0.09375,
		  "durationTicks": 96,
		  "midi": 66,
		  "name": "F#4",
		  "ticks": 211081,
		  "time": 206.1337890625,
		  "velocity": 0.3937007874015748
		},
		{
		  "duration": 0.09375,
		  "durationTicks": 96,
		  "midi": 61,
		  "name": "C#4",
		  "ticks": 211097,
		  "time": 206.1494140625,
		  "velocity": 0.3937007874015748
		},
		{
		  "duration": 0.375,
		  "durationTicks": 384,
		  "midi": 69,
		  "name": "A4",
		  "ticks": 211193,
		  "time": 206.2431640625,
		  "velocity": 0.3937007874015748
		},
		{
		  "duration": 0.09375,
		  "durationTicks": 96,
		  "midi": 53,
		  "name": "F3",
		  "ticks": 211193,
		  "time": 206.2431640625,
		  "velocity": 0.3937007874015748
		},
		{
		  "duration": 0.09375,
		  "durationTicks": 96,
		  "midi": 61,
		  "name": "C#4",
		  "ticks": 211289,
		  "time": 206.3369140625,
		  "velocity": 0.3937007874015748
		},
		{
		  "duration": 0.09375,
		  "durationTicks": 96,
		  "midi": 53,
		  "name": "F3",
		  "ticks": 211385,
		  "time": 206.4306640625,
		  "velocity": 0.3937007874015748
		},
		{
		  "duration": 0.09375,
		  "durationTicks": 96,
		  "midi": 61,
		  "name": "C#4",
		  "ticks": 211481,
		  "time": 206.5244140625,
		  "velocity": 0.3937007874015748
		},
		{
		  "duration": 0.5625,
		  "durationTicks": 576,
		  "midi": 68,
		  "name": "G#4",
		  "ticks": 211561,
		  "time": 206.6025390625,
		  "velocity": 0.3937007874015748
		},
		{
		  "duration": 0.09375,
		  "durationTicks": 96,
		  "midi": 53,
		  "name": "F3",
		  "ticks": 211577,
		  "time": 206.6181640625,
		  "velocity": 0.3937007874015748
		},
		{
		  "duration": 0.09375,
		  "durationTicks": 96,
		  "midi": 61,
		  "name": "C#4",
		  "ticks": 211673,
		  "time": 206.7119140625,
		  "velocity": 0.3937007874015748
		},
		{
		  "duration": 0.09375,
		  "durationTicks": 96,
		  "midi": 53,
		  "name": "F3",
		  "ticks": 211769,
		  "time": 206.8056640625,
		  "velocity": 0.3937007874015748
		},
		{
		  "duration": 0.09375,
		  "durationTicks": 96,
		  "midi": 61,
		  "name": "C#4",
		  "ticks": 211865,
		  "time": 206.8994140625,
		  "velocity": 0.3937007874015748
		},
		{
		  "duration": 0.09375,
		  "durationTicks": 96,
		  "midi": 53,
		  "name": "F3",
		  "ticks": 211961,
		  "time": 206.9931640625,
		  "velocity": 0.3937007874015748
		},
		{
		  "duration": 0.09375,
		  "durationTicks": 96,
		  "midi": 61,
		  "name": "C#4",
		  "ticks": 212057,
		  "time": 207.0869140625,
		  "velocity": 0.3937007874015748
		},
		{
		  "duration": 0.1875,
		  "durationTicks": 192,
		  "midi": 68,
		  "name": "G#4",
		  "ticks": 212153,
		  "time": 207.1806640625,
		  "velocity": 0.3937007874015748
		},
		{
		  "duration": 0.09375,
		  "durationTicks": 96,
		  "midi": 53,
		  "name": "F3",
		  "ticks": 212153,
		  "time": 207.1806640625,
		  "velocity": 0.3937007874015748
		},
		{
		  "duration": 0.09375,
		  "durationTicks": 96,
		  "midi": 61,
		  "name": "C#4",
		  "ticks": 212249,
		  "time": 207.2744140625,
		  "velocity": 0.3937007874015748
		},
		{
		  "duration": 0.28125,
		  "durationTicks": 288,
		  "midi": 73,
		  "name": "C#5",
		  "ticks": 212329,
		  "time": 207.3525390625,
		  "velocity": 0.3937007874015748
		},
		{
		  "duration": 0.09375,
		  "durationTicks": 96,
		  "midi": 53,
		  "name": "F3",
		  "ticks": 212345,
		  "time": 207.3681640625,
		  "velocity": 0.3937007874015748
		},
		{
		  "duration": 0.09375,
		  "durationTicks": 96,
		  "midi": 61,
		  "name": "C#4",
		  "ticks": 212441,
		  "time": 207.4619140625,
		  "velocity": 0.3937007874015748
		},
		{
		  "duration": 0.09375,
		  "durationTicks": 96,
		  "midi": 53,
		  "name": "F3",
		  "ticks": 212537,
		  "time": 207.5556640625,
		  "velocity": 0.3937007874015748
		},
		{
		  "duration": 0.09375,
		  "durationTicks": 96,
		  "midi": 68,
		  "name": "G#4",
		  "ticks": 212617,
		  "time": 207.6337890625,
		  "velocity": 0.3937007874015748
		},
		{
		  "duration": 0.09375,
		  "durationTicks": 96,
		  "midi": 61,
		  "name": "C#4",
		  "ticks": 212633,
		  "time": 207.6494140625,
		  "velocity": 0.3937007874015748
		},
		{
		  "duration": 0.09375,
		  "durationTicks": 96,
		  "midi": 69,
		  "name": "A4",
		  "ticks": 212729,
		  "time": 207.7431640625,
		  "velocity": 0.3937007874015748
		},
		{
		  "duration": 0.28125,
		  "durationTicks": 288,
		  "midi": 54,
		  "name": "F#3",
		  "ticks": 212729,
		  "time": 207.7431640625,
		  "velocity": 0.3937007874015748
		},
		{
		  "duration": 0.09375,
		  "durationTicks": 96,
		  "midi": 73,
		  "name": "C#5",
		  "ticks": 212825,
		  "time": 207.8369140625,
		  "velocity": 0.3937007874015748
		},
		{
		  "duration": 0.09375,
		  "durationTicks": 96,
		  "midi": 69,
		  "name": "A4",
		  "ticks": 212921,
		  "time": 207.9306640625,
		  "velocity": 0.3937007874015748
		},
		{
		  "duration": 0.09375,
		  "durationTicks": 96,
		  "midi": 73,
		  "name": "C#5",
		  "ticks": 213017,
		  "time": 208.0244140625,
		  "velocity": 0.3937007874015748
		},
		{
		  "duration": 0.75,
		  "durationTicks": 768,
		  "midi": 61,
		  "name": "C#4",
		  "ticks": 213097,
		  "time": 208.1025390625,
		  "velocity": 0.3937007874015748
		},
		{
		  "duration": 0.09375,
		  "durationTicks": 96,
		  "midi": 66,
		  "name": "F#4",
		  "ticks": 213113,
		  "time": 208.1181640625,
		  "velocity": 0.3937007874015748
		},
		{
		  "duration": 0.09375,
		  "durationTicks": 96,
		  "midi": 73,
		  "name": "C#5",
		  "ticks": 213209,
		  "time": 208.2119140625,
		  "velocity": 0.3937007874015748
		},
		{
		  "duration": 0.09375,
		  "durationTicks": 96,
		  "midi": 69,
		  "name": "A4",
		  "ticks": 213305,
		  "time": 208.3056640625,
		  "velocity": 0.3937007874015748
		},
		{
		  "duration": 0.09375,
		  "durationTicks": 96,
		  "midi": 73,
		  "name": "C#5",
		  "ticks": 213401,
		  "time": 208.3994140625,
		  "velocity": 0.3937007874015748
		},
		{
		  "duration": 0.09375,
		  "durationTicks": 96,
		  "midi": 66,
		  "name": "F#4",
		  "ticks": 213497,
		  "time": 208.4931640625,
		  "velocity": 0.3937007874015748
		},
		{
		  "duration": 0.09375,
		  "durationTicks": 96,
		  "midi": 73,
		  "name": "C#5",
		  "ticks": 213593,
		  "time": 208.5869140625,
		  "velocity": 0.3937007874015748
		},
		{
		  "duration": 0.09375,
		  "durationTicks": 96,
		  "midi": 69,
		  "name": "A4",
		  "ticks": 213689,
		  "time": 208.6806640625,
		  "velocity": 0.3937007874015748
		},
		{
		  "duration": 0.09375,
		  "durationTicks": 96,
		  "midi": 73,
		  "name": "C#5",
		  "ticks": 213785,
		  "time": 208.7744140625,
		  "velocity": 0.3937007874015748
		},
		{
		  "duration": 0.28125,
		  "durationTicks": 288,
		  "midi": 57,
		  "name": "A3",
		  "ticks": 213865,
		  "time": 208.8525390625,
		  "velocity": 0.3937007874015748
		},
		{
		  "duration": 0.09375,
		  "durationTicks": 96,
		  "midi": 66,
		  "name": "F#4",
		  "ticks": 213881,
		  "time": 208.8681640625,
		  "velocity": 0.3937007874015748
		},
		{
		  "duration": 0.09375,
		  "durationTicks": 96,
		  "midi": 73,
		  "name": "C#5",
		  "ticks": 213977,
		  "time": 208.9619140625,
		  "velocity": 0.3937007874015748
		},
		{
		  "duration": 0.09375,
		  "durationTicks": 96,
		  "midi": 69,
		  "name": "A4",
		  "ticks": 214073,
		  "time": 209.0556640625,
		  "velocity": 0.3937007874015748
		},
		{
		  "duration": 0.09375,
		  "durationTicks": 96,
		  "midi": 54,
		  "name": "F#3",
		  "ticks": 214153,
		  "time": 209.1337890625,
		  "velocity": 0.3937007874015748
		},
		{
		  "duration": 0.09375,
		  "durationTicks": 96,
		  "midi": 73,
		  "name": "C#5",
		  "ticks": 214169,
		  "time": 209.1494140625,
		  "velocity": 0.3937007874015748
		},
		{
		  "duration": 0.09375,
		  "durationTicks": 96,
		  "midi": 68,
		  "name": "G#4",
		  "ticks": 214265,
		  "time": 209.2431640625,
		  "velocity": 0.3937007874015748
		},
		{
		  "duration": 0.375,
		  "durationTicks": 384,
		  "midi": 54,
		  "name": "F#3",
		  "ticks": 214265,
		  "time": 209.2431640625,
		  "velocity": 0.3937007874015748
		},
		{
		  "duration": 0.09375,
		  "durationTicks": 96,
		  "midi": 73,
		  "name": "C#5",
		  "ticks": 214361,
		  "time": 209.3369140625,
		  "velocity": 0.3937007874015748
		},
		{
		  "duration": 0.09375,
		  "durationTicks": 96,
		  "midi": 71,
		  "name": "B4",
		  "ticks": 214457,
		  "time": 209.4306640625,
		  "velocity": 0.3937007874015748
		},
		{
		  "duration": 0.09375,
		  "durationTicks": 96,
		  "midi": 73,
		  "name": "C#5",
		  "ticks": 214553,
		  "time": 209.5244140625,
		  "velocity": 0.3937007874015748
		},
		{
		  "duration": 0.5625,
		  "durationTicks": 576,
		  "midi": 53,
		  "name": "F3",
		  "ticks": 214633,
		  "time": 209.6025390625,
		  "velocity": 0.3937007874015748
		},
		{
		  "duration": 0.09375,
		  "durationTicks": 96,
		  "midi": 68,
		  "name": "G#4",
		  "ticks": 214649,
		  "time": 209.6181640625,
		  "velocity": 0.3937007874015748
		},
		{
		  "duration": 0.09375,
		  "durationTicks": 96,
		  "midi": 73,
		  "name": "C#5",
		  "ticks": 214745,
		  "time": 209.7119140625,
		  "velocity": 0.3937007874015748
		},
		{
		  "duration": 0.09375,
		  "durationTicks": 96,
		  "midi": 71,
		  "name": "B4",
		  "ticks": 214841,
		  "time": 209.8056640625,
		  "velocity": 0.3937007874015748
		},
		{
		  "duration": 0.09375,
		  "durationTicks": 96,
		  "midi": 73,
		  "name": "C#5",
		  "ticks": 214937,
		  "time": 209.8994140625,
		  "velocity": 0.3937007874015748
		},
		{
		  "duration": 0.09375,
		  "durationTicks": 96,
		  "midi": 68,
		  "name": "G#4",
		  "ticks": 215033,
		  "time": 209.9931640625,
		  "velocity": 0.3937007874015748
		},
		{
		  "duration": 0.09375,
		  "durationTicks": 96,
		  "midi": 73,
		  "name": "C#5",
		  "ticks": 215129,
		  "time": 210.0869140625,
		  "velocity": 0.3937007874015748
		},
		{
		  "duration": 0.09375,
		  "durationTicks": 96,
		  "midi": 71,
		  "name": "B4",
		  "ticks": 215225,
		  "time": 210.1806640625,
		  "velocity": 0.3937007874015748
		},
		{
		  "duration": 0.1875,
		  "durationTicks": 192,
		  "midi": 53,
		  "name": "F3",
		  "ticks": 215225,
		  "time": 210.1806640625,
		  "velocity": 0.3937007874015748
		},
		{
		  "duration": 0.09375,
		  "durationTicks": 96,
		  "midi": 73,
		  "name": "C#5",
		  "ticks": 215321,
		  "time": 210.2744140625,
		  "velocity": 0.3937007874015748
		},
		{
		  "duration": 0.28125,
		  "durationTicks": 288,
		  "midi": 61,
		  "name": "C#4",
		  "ticks": 215401,
		  "time": 210.3525390625,
		  "velocity": 0.3937007874015748
		},
		{
		  "duration": 0.09375,
		  "durationTicks": 96,
		  "midi": 68,
		  "name": "G#4",
		  "ticks": 215417,
		  "time": 210.3681640625,
		  "velocity": 0.3937007874015748
		},
		{
		  "duration": 0.09375,
		  "durationTicks": 96,
		  "midi": 73,
		  "name": "C#5",
		  "ticks": 215513,
		  "time": 210.4619140625,
		  "velocity": 0.3937007874015748
		},
		{
		  "duration": 0.09375,
		  "durationTicks": 96,
		  "midi": 71,
		  "name": "B4",
		  "ticks": 215609,
		  "time": 210.5556640625,
		  "velocity": 0.3937007874015748
		},
		{
		  "duration": 0.09375,
		  "durationTicks": 96,
		  "midi": 53,
		  "name": "F3",
		  "ticks": 215689,
		  "time": 210.6337890625,
		  "velocity": 0.3937007874015748
		},
		{
		  "duration": 0.09375,
		  "durationTicks": 96,
		  "midi": 73,
		  "name": "C#5",
		  "ticks": 215705,
		  "time": 210.6494140625,
		  "velocity": 0.3937007874015748
		},
		{
		  "duration": 0.09375,
		  "durationTicks": 96,
		  "midi": 66,
		  "name": "F#4",
		  "ticks": 215801,
		  "time": 210.7431640625,
		  "velocity": 0.3937007874015748
		},
		{
		  "duration": 0.375,
		  "durationTicks": 384,
		  "midi": 56,
		  "name": "G#3",
		  "ticks": 215801,
		  "time": 210.7431640625,
		  "velocity": 0.3937007874015748
		},
		{
		  "duration": 0.09375,
		  "durationTicks": 96,
		  "midi": 73,
		  "name": "C#5",
		  "ticks": 215897,
		  "time": 210.8369140625,
		  "velocity": 0.3937007874015748
		},
		{
		  "duration": 0.09375,
		  "durationTicks": 96,
		  "midi": 69,
		  "name": "A4",
		  "ticks": 215993,
		  "time": 210.9306640625,
		  "velocity": 0.3937007874015748
		},
		{
		  "duration": 0.09375,
		  "durationTicks": 96,
		  "midi": 73,
		  "name": "C#5",
		  "ticks": 216089,
		  "time": 211.0244140625,
		  "velocity": 0.3937007874015748
		},
		{
		  "duration": 0.5625,
		  "durationTicks": 576,
		  "midi": 54,
		  "name": "F#3",
		  "ticks": 216169,
		  "time": 211.1025390625,
		  "velocity": 0.3937007874015748
		},
		{
		  "duration": 0.09375,
		  "durationTicks": 96,
		  "midi": 66,
		  "name": "F#4",
		  "ticks": 216185,
		  "time": 211.1181640625,
		  "velocity": 0.3937007874015748
		},
		{
		  "duration": 0.09375,
		  "durationTicks": 96,
		  "midi": 73,
		  "name": "C#5",
		  "ticks": 216281,
		  "time": 211.2119140625,
		  "velocity": 0.3937007874015748
		},
		{
		  "duration": 0.09375,
		  "durationTicks": 96,
		  "midi": 69,
		  "name": "A4",
		  "ticks": 216377,
		  "time": 211.3056640625,
		  "velocity": 0.3937007874015748
		},
		{
		  "duration": 0.09375,
		  "durationTicks": 96,
		  "midi": 73,
		  "name": "C#5",
		  "ticks": 216473,
		  "time": 211.3994140625,
		  "velocity": 0.3937007874015748
		},
		{
		  "duration": 0.09375,
		  "durationTicks": 96,
		  "midi": 66,
		  "name": "F#4",
		  "ticks": 216569,
		  "time": 211.4931640625,
		  "velocity": 0.3937007874015748
		},
		{
		  "duration": 0.09375,
		  "durationTicks": 96,
		  "midi": 73,
		  "name": "C#5",
		  "ticks": 216665,
		  "time": 211.5869140625,
		  "velocity": 0.3937007874015748
		},
		{
		  "duration": 0.09375,
		  "durationTicks": 96,
		  "midi": 69,
		  "name": "A4",
		  "ticks": 216761,
		  "time": 211.6806640625,
		  "velocity": 0.3937007874015748
		},
		{
		  "duration": 0.1875,
		  "durationTicks": 192,
		  "midi": 54,
		  "name": "F#3",
		  "ticks": 216761,
		  "time": 211.6806640625,
		  "velocity": 0.3937007874015748
		},
		{
		  "duration": 0.09375,
		  "durationTicks": 96,
		  "midi": 73,
		  "name": "C#5",
		  "ticks": 216857,
		  "time": 211.7744140625,
		  "velocity": 0.3937007874015748
		},
		{
		  "duration": 0.28125,
		  "durationTicks": 288,
		  "midi": 61,
		  "name": "C#4",
		  "ticks": 216937,
		  "time": 211.8525390625,
		  "velocity": 0.3937007874015748
		},
		{
		  "duration": 0.09375,
		  "durationTicks": 96,
		  "midi": 66,
		  "name": "F#4",
		  "ticks": 216953,
		  "time": 211.8681640625,
		  "velocity": 0.3937007874015748
		},
		{
		  "duration": 0.09375,
		  "durationTicks": 96,
		  "midi": 73,
		  "name": "C#5",
		  "ticks": 217049,
		  "time": 211.9619140625,
		  "velocity": 0.3937007874015748
		},
		{
		  "duration": 0.09375,
		  "durationTicks": 96,
		  "midi": 69,
		  "name": "A4",
		  "ticks": 217145,
		  "time": 212.0556640625,
		  "velocity": 0.3937007874015748
		},
		{
		  "duration": 0.09375,
		  "durationTicks": 96,
		  "midi": 54,
		  "name": "F#3",
		  "ticks": 217225,
		  "time": 212.1337890625,
		  "velocity": 0.3937007874015748
		},
		{
		  "duration": 0.09375,
		  "durationTicks": 96,
		  "midi": 73,
		  "name": "C#5",
		  "ticks": 217241,
		  "time": 212.1494140625,
		  "velocity": 0.3937007874015748
		},
		{
		  "duration": 0.09375,
		  "durationTicks": 96,
		  "midi": 66,
		  "name": "F#4",
		  "ticks": 217337,
		  "time": 212.2431640625,
		  "velocity": 0.3937007874015748
		},
		{
		  "duration": 0.1875,
		  "durationTicks": 192,
		  "midi": 54,
		  "name": "F#3",
		  "ticks": 217337,
		  "time": 212.2431640625,
		  "velocity": 0.3937007874015748
		},
		{
		  "duration": 0.09375,
		  "durationTicks": 96,
		  "midi": 74,
		  "name": "D5",
		  "ticks": 217433,
		  "time": 212.3369140625,
		  "velocity": 0.3937007874015748
		},
		{
		  "duration": 0.1875,
		  "durationTicks": 192,
		  "midi": 54,
		  "name": "F#3",
		  "ticks": 217513,
		  "time": 212.4150390625,
		  "velocity": 0.3937007874015748
		},
		{
		  "duration": 0.09375,
		  "durationTicks": 96,
		  "midi": 69,
		  "name": "A4",
		  "ticks": 217529,
		  "time": 212.4306640625,
		  "velocity": 0.3937007874015748
		},
		{
		  "duration": 0.09375,
		  "durationTicks": 96,
		  "midi": 74,
		  "name": "D5",
		  "ticks": 217625,
		  "time": 212.5244140625,
		  "velocity": 0.3937007874015748
		},
		{
		  "duration": 0.28125,
		  "durationTicks": 288,
		  "midi": 62,
		  "name": "D4",
		  "ticks": 217705,
		  "time": 212.6025390625,
		  "velocity": 0.3937007874015748
		},
		{
		  "duration": 0.09375,
		  "durationTicks": 96,
		  "midi": 66,
		  "name": "F#4",
		  "ticks": 217721,
		  "time": 212.6181640625,
		  "velocity": 0.3937007874015748
		},
		{
		  "duration": 0.09375,
		  "durationTicks": 96,
		  "midi": 74,
		  "name": "D5",
		  "ticks": 217817,
		  "time": 212.7119140625,
		  "velocity": 0.3937007874015748
		},
		{
		  "duration": 0.09375,
		  "durationTicks": 96,
		  "midi": 69,
		  "name": "A4",
		  "ticks": 217913,
		  "time": 212.8056640625,
		  "velocity": 0.3937007874015748
		},
		{
		  "duration": 0.09375,
		  "durationTicks": 96,
		  "midi": 54,
		  "name": "F#3",
		  "ticks": 217993,
		  "time": 212.8837890625,
		  "velocity": 0.3937007874015748
		},
		{
		  "duration": 0.09375,
		  "durationTicks": 96,
		  "midi": 74,
		  "name": "D5",
		  "ticks": 218009,
		  "time": 212.8994140625,
		  "velocity": 0.3937007874015748
		},
		{
		  "duration": 0.09375,
		  "durationTicks": 96,
		  "midi": 69,
		  "name": "A4",
		  "ticks": 218105,
		  "time": 212.9931640625,
		  "velocity": 0.3937007874015748
		},
		{
		  "duration": 0.1875,
		  "durationTicks": 192,
		  "midi": 54,
		  "name": "F#3",
		  "ticks": 218105,
		  "time": 212.9931640625,
		  "velocity": 0.3937007874015748
		},
		{
		  "duration": 0.09375,
		  "durationTicks": 96,
		  "midi": 74,
		  "name": "D5",
		  "ticks": 218201,
		  "time": 213.0869140625,
		  "velocity": 0.3937007874015748
		},
		{
		  "duration": 0.1875,
		  "durationTicks": 192,
		  "midi": 54,
		  "name": "F#3",
		  "ticks": 218281,
		  "time": 213.1650390625,
		  "velocity": 0.3937007874015748
		},
		{
		  "duration": 0.09375,
		  "durationTicks": 96,
		  "midi": 72,
		  "name": "C5",
		  "ticks": 218297,
		  "time": 213.1806640625,
		  "velocity": 0.3937007874015748
		},
		{
		  "duration": 0.09375,
		  "durationTicks": 96,
		  "midi": 74,
		  "name": "D5",
		  "ticks": 218393,
		  "time": 213.2744140625,
		  "velocity": 0.3937007874015748
		},
		{
		  "duration": 0.28125,
		  "durationTicks": 288,
		  "midi": 62,
		  "name": "D4",
		  "ticks": 218473,
		  "time": 213.3525390625,
		  "velocity": 0.3937007874015748
		},
		{
		  "duration": 0.09375,
		  "durationTicks": 96,
		  "midi": 69,
		  "name": "A4",
		  "ticks": 218489,
		  "time": 213.3681640625,
		  "velocity": 0.3937007874015748
		},
		{
		  "duration": 0.09375,
		  "durationTicks": 96,
		  "midi": 74,
		  "name": "D5",
		  "ticks": 218585,
		  "time": 213.4619140625,
		  "velocity": 0.3937007874015748
		},
		{
		  "duration": 0.09375,
		  "durationTicks": 96,
		  "midi": 72,
		  "name": "C5",
		  "ticks": 218681,
		  "time": 213.5556640625,
		  "velocity": 0.3937007874015748
		},
		{
		  "duration": 0.09375,
		  "durationTicks": 96,
		  "midi": 54,
		  "name": "F#3",
		  "ticks": 218761,
		  "time": 213.6337890625,
		  "velocity": 0.3937007874015748
		},
		{
		  "duration": 0.09375,
		  "durationTicks": 96,
		  "midi": 74,
		  "name": "D5",
		  "ticks": 218777,
		  "time": 213.6494140625,
		  "velocity": 0.3937007874015748
		},
		{
		  "duration": 0.09375,
		  "durationTicks": 96,
		  "midi": 67,
		  "name": "G4",
		  "ticks": 218873,
		  "time": 213.7431640625,
		  "velocity": 0.3937007874015748
		},
		{
		  "duration": 0.28125,
		  "durationTicks": 288,
		  "midi": 55,
		  "name": "G3",
		  "ticks": 218873,
		  "time": 213.7431640625,
		  "velocity": 0.3937007874015748
		},
		{
		  "duration": 0.09375,
		  "durationTicks": 96,
		  "midi": 74,
		  "name": "D5",
		  "ticks": 218969,
		  "time": 213.8369140625,
		  "velocity": 0.3937007874015748
		},
		{
		  "duration": 0.09375,
		  "durationTicks": 96,
		  "midi": 71,
		  "name": "B4",
		  "ticks": 219065,
		  "time": 213.9306640625,
		  "velocity": 0.3937007874015748
		},
		{
		  "duration": 0.09375,
		  "durationTicks": 96,
		  "midi": 74,
		  "name": "D5",
		  "ticks": 219161,
		  "time": 214.0244140625,
		  "velocity": 0.3937007874015748
		},
		{
		  "duration": 0.75,
		  "durationTicks": 768,
		  "midi": 50,
		  "name": "D3",
		  "ticks": 219241,
		  "time": 214.1025390625,
		  "velocity": 0.3937007874015748
		},
		{
		  "duration": 0.09375,
		  "durationTicks": 96,
		  "midi": 67,
		  "name": "G4",
		  "ticks": 219257,
		  "time": 214.1181640625,
		  "velocity": 0.3937007874015748
		},
		{
		  "duration": 0.09375,
		  "durationTicks": 96,
		  "midi": 74,
		  "name": "D5",
		  "ticks": 219353,
		  "time": 214.2119140625,
		  "velocity": 0.3937007874015748
		},
		{
		  "duration": 0.09375,
		  "durationTicks": 96,
		  "midi": 71,
		  "name": "B4",
		  "ticks": 219449,
		  "time": 214.3056640625,
		  "velocity": 0.3937007874015748
		},
		{
		  "duration": 0.09375,
		  "durationTicks": 96,
		  "midi": 74,
		  "name": "D5",
		  "ticks": 219545,
		  "time": 214.3994140625,
		  "velocity": 0.3937007874015748
		},
		{
		  "duration": 0.09375,
		  "durationTicks": 96,
		  "midi": 67,
		  "name": "G4",
		  "ticks": 219641,
		  "time": 214.4931640625,
		  "velocity": 0.3937007874015748
		},
		{
		  "duration": 0.09375,
		  "durationTicks": 96,
		  "midi": 74,
		  "name": "D5",
		  "ticks": 219737,
		  "time": 214.5869140625,
		  "velocity": 0.3937007874015748
		},
		{
		  "duration": 0.09375,
		  "durationTicks": 96,
		  "midi": 71,
		  "name": "B4",
		  "ticks": 219833,
		  "time": 214.6806640625,
		  "velocity": 0.3937007874015748
		},
		{
		  "duration": 0.09375,
		  "durationTicks": 96,
		  "midi": 74,
		  "name": "D5",
		  "ticks": 219929,
		  "time": 214.7744140625,
		  "velocity": 0.3937007874015748
		},
		{
		  "duration": 0.28125,
		  "durationTicks": 288,
		  "midi": 47,
		  "name": "B2",
		  "ticks": 220009,
		  "time": 214.8525390625,
		  "velocity": 0.3937007874015748
		},
		{
		  "duration": 0.09375,
		  "durationTicks": 96,
		  "midi": 67,
		  "name": "G4",
		  "ticks": 220025,
		  "time": 214.8681640625,
		  "velocity": 0.3937007874015748
		},
		{
		  "duration": 0.09375,
		  "durationTicks": 96,
		  "midi": 74,
		  "name": "D5",
		  "ticks": 220121,
		  "time": 214.9619140625,
		  "velocity": 0.3937007874015748
		},
		{
		  "duration": 0.09375,
		  "durationTicks": 96,
		  "midi": 71,
		  "name": "B4",
		  "ticks": 220217,
		  "time": 215.0556640625,
		  "velocity": 0.3937007874015748
		},
		{
		  "duration": 0.09375,
		  "durationTicks": 96,
		  "midi": 43,
		  "name": "G2",
		  "ticks": 220297,
		  "time": 215.1337890625,
		  "velocity": 0.3937007874015748
		},
		{
		  "duration": 0.09375,
		  "durationTicks": 96,
		  "midi": 74,
		  "name": "D5",
		  "ticks": 220313,
		  "time": 215.1494140625,
		  "velocity": 0.3937007874015748
		},
		{
		  "duration": 0.09375,
		  "durationTicks": 96,
		  "midi": 69,
		  "name": "A4",
		  "ticks": 220409,
		  "time": 215.2431640625,
		  "velocity": 0.3937007874015748
		},
		{
		  "duration": 0.375,
		  "durationTicks": 384,
		  "midi": 43,
		  "name": "G2",
		  "ticks": 220409,
		  "time": 215.2431640625,
		  "velocity": 0.3937007874015748
		},
		{
		  "duration": 0.09375,
		  "durationTicks": 96,
		  "midi": 74,
		  "name": "D5",
		  "ticks": 220505,
		  "time": 215.3369140625,
		  "velocity": 0.3937007874015748
		},
		{
		  "duration": 0.09375,
		  "durationTicks": 96,
		  "midi": 72,
		  "name": "C5",
		  "ticks": 220601,
		  "time": 215.4306640625,
		  "velocity": 0.3937007874015748
		},
		{
		  "duration": 0.09375,
		  "durationTicks": 96,
		  "midi": 74,
		  "name": "D5",
		  "ticks": 220697,
		  "time": 215.5244140625,
		  "velocity": 0.3937007874015748
		},
		{
		  "duration": 0.5625,
		  "durationTicks": 576,
		  "midi": 42,
		  "name": "F#2",
		  "ticks": 220777,
		  "time": 215.6025390625,
		  "velocity": 0.3937007874015748
		},
		{
		  "duration": 0.09375,
		  "durationTicks": 96,
		  "midi": 69,
		  "name": "A4",
		  "ticks": 220793,
		  "time": 215.6181640625,
		  "velocity": 0.3937007874015748
		},
		{
		  "duration": 0.09375,
		  "durationTicks": 96,
		  "midi": 74,
		  "name": "D5",
		  "ticks": 220889,
		  "time": 215.7119140625,
		  "velocity": 0.3937007874015748
		},
		{
		  "duration": 0.09375,
		  "durationTicks": 96,
		  "midi": 72,
		  "name": "C5",
		  "ticks": 220985,
		  "time": 215.8056640625,
		  "velocity": 0.3937007874015748
		},
		{
		  "duration": 0.09375,
		  "durationTicks": 96,
		  "midi": 74,
		  "name": "D5",
		  "ticks": 221081,
		  "time": 215.8994140625,
		  "velocity": 0.3937007874015748
		},
		{
		  "duration": 0.09375,
		  "durationTicks": 96,
		  "midi": 69,
		  "name": "A4",
		  "ticks": 221177,
		  "time": 215.9931640625,
		  "velocity": 0.3937007874015748
		},
		{
		  "duration": 0.09375,
		  "durationTicks": 96,
		  "midi": 74,
		  "name": "D5",
		  "ticks": 221273,
		  "time": 216.0869140625,
		  "velocity": 0.3937007874015748
		},
		{
		  "duration": 0.09375,
		  "durationTicks": 96,
		  "midi": 72,
		  "name": "C5",
		  "ticks": 221369,
		  "time": 216.1806640625,
		  "velocity": 0.3937007874015748
		},
		{
		  "duration": 0.1875,
		  "durationTicks": 192,
		  "midi": 42,
		  "name": "F#2",
		  "ticks": 221369,
		  "time": 216.1806640625,
		  "velocity": 0.3937007874015748
		},
		{
		  "duration": 0.09375,
		  "durationTicks": 96,
		  "midi": 74,
		  "name": "D5",
		  "ticks": 221465,
		  "time": 216.2744140625,
		  "velocity": 0.3937007874015748
		},
		{
		  "duration": 0.28125,
		  "durationTicks": 288,
		  "midi": 50,
		  "name": "D3",
		  "ticks": 221545,
		  "time": 216.3525390625,
		  "velocity": 0.3937007874015748
		},
		{
		  "duration": 0.09375,
		  "durationTicks": 96,
		  "midi": 69,
		  "name": "A4",
		  "ticks": 221561,
		  "time": 216.3681640625,
		  "velocity": 0.3937007874015748
		},
		{
		  "duration": 0.09375,
		  "durationTicks": 96,
		  "midi": 74,
		  "name": "D5",
		  "ticks": 221657,
		  "time": 216.4619140625,
		  "velocity": 0.3937007874015748
		},
		{
		  "duration": 0.09375,
		  "durationTicks": 96,
		  "midi": 72,
		  "name": "C5",
		  "ticks": 221753,
		  "time": 216.5556640625,
		  "velocity": 0.3937007874015748
		},
		{
		  "duration": 0.09375,
		  "durationTicks": 96,
		  "midi": 42,
		  "name": "F#2",
		  "ticks": 221833,
		  "time": 216.6337890625,
		  "velocity": 0.3937007874015748
		},
		{
		  "duration": 0.09375,
		  "durationTicks": 96,
		  "midi": 74,
		  "name": "D5",
		  "ticks": 221849,
		  "time": 216.6494140625,
		  "velocity": 0.3937007874015748
		},
		{
		  "duration": 0.09375,
		  "durationTicks": 96,
		  "midi": 67,
		  "name": "G4",
		  "ticks": 221945,
		  "time": 216.7431640625,
		  "velocity": 0.3937007874015748
		},
		{
		  "duration": 0.375,
		  "durationTicks": 384,
		  "midi": 45,
		  "name": "A2",
		  "ticks": 221945,
		  "time": 216.7431640625,
		  "velocity": 0.3937007874015748
		},
		{
		  "duration": 0.09375,
		  "durationTicks": 96,
		  "midi": 74,
		  "name": "D5",
		  "ticks": 222041,
		  "time": 216.8369140625,
		  "velocity": 0.3937007874015748
		},
		{
		  "duration": 0.09375,
		  "durationTicks": 96,
		  "midi": 71,
		  "name": "B4",
		  "ticks": 222137,
		  "time": 216.9306640625,
		  "velocity": 0.3937007874015748
		},
		{
		  "duration": 0.09375,
		  "durationTicks": 96,
		  "midi": 74,
		  "name": "D5",
		  "ticks": 222233,
		  "time": 217.0244140625,
		  "velocity": 0.3937007874015748
		},
		{
		  "duration": 0.5625,
		  "durationTicks": 576,
		  "midi": 43,
		  "name": "G2",
		  "ticks": 222313,
		  "time": 217.1025390625,
		  "velocity": 0.3937007874015748
		},
		{
		  "duration": 0.09375,
		  "durationTicks": 96,
		  "midi": 67,
		  "name": "G4",
		  "ticks": 222329,
		  "time": 217.1181640625,
		  "velocity": 0.3937007874015748
		},
		{
		  "duration": 0.09375,
		  "durationTicks": 96,
		  "midi": 74,
		  "name": "D5",
		  "ticks": 222425,
		  "time": 217.2119140625,
		  "velocity": 0.3937007874015748
		},
		{
		  "duration": 0.09375,
		  "durationTicks": 96,
		  "midi": 71,
		  "name": "B4",
		  "ticks": 222521,
		  "time": 217.3056640625,
		  "velocity": 0.3937007874015748
		},
		{
		  "duration": 0.09375,
		  "durationTicks": 96,
		  "midi": 74,
		  "name": "D5",
		  "ticks": 222617,
		  "time": 217.3994140625,
		  "velocity": 0.3937007874015748
		},
		{
		  "duration": 0.09375,
		  "durationTicks": 96,
		  "midi": 67,
		  "name": "G4",
		  "ticks": 222713,
		  "time": 217.4931640625,
		  "velocity": 0.3937007874015748
		},
		{
		  "duration": 0.09375,
		  "durationTicks": 96,
		  "midi": 74,
		  "name": "D5",
		  "ticks": 222809,
		  "time": 217.5869140625,
		  "velocity": 0.3937007874015748
		},
		{
		  "duration": 0.09375,
		  "durationTicks": 96,
		  "midi": 71,
		  "name": "B4",
		  "ticks": 222905,
		  "time": 217.6806640625,
		  "velocity": 0.3937007874015748
		},
		{
		  "duration": 0.1884765625,
		  "durationTicks": 193,
		  "midi": 43,
		  "name": "G2",
		  "ticks": 222905,
		  "time": 217.6806640625,
		  "velocity": 0.3937007874015748
		},
		{
		  "duration": 0.0947265625,
		  "durationTicks": 97,
		  "midi": 74,
		  "name": "D5",
		  "ticks": 223001,
		  "time": 217.7744140625,
		  "velocity": 0.3937007874015748
		},
		{
		  "duration": 0.2822265625,
		  "durationTicks": 289,
		  "midi": 50,
		  "name": "D3",
		  "ticks": 223081,
		  "time": 217.8525390625,
		  "velocity": 0.3937007874015748
		},
		{
		  "duration": 0.09375,
		  "durationTicks": 96,
		  "midi": 67,
		  "name": "G4",
		  "ticks": 223089,
		  "time": 217.8603515625,
		  "velocity": 0.3937007874015748
		},
		{
		  "duration": 0.09375,
		  "durationTicks": 96,
		  "midi": 74,
		  "name": "D5",
		  "ticks": 223194,
		  "time": 217.962890625,
		  "velocity": 0.3937007874015748
		},
		{
		  "duration": 0.09375,
		  "durationTicks": 96,
		  "midi": 71,
		  "name": "B4",
		  "ticks": 223290,
		  "time": 218.056640625,
		  "velocity": 0.3937007874015748
		},
		{
		  "duration": 0.09375,
		  "durationTicks": 96,
		  "midi": 42,
		  "name": "F#2",
		  "ticks": 223370,
		  "time": 218.134765625,
		  "velocity": 0.3937007874015748
		},
		{
		  "duration": 0.09375,
		  "durationTicks": 96,
		  "midi": 74,
		  "name": "D5",
		  "ticks": 223386,
		  "time": 218.150390625,
		  "velocity": 0.3937007874015748
		},
		{
		  "duration": 0.09375,
		  "durationTicks": 96,
		  "midi": 68,
		  "name": "G#4",
		  "ticks": 223482,
		  "time": 218.244140625,
		  "velocity": 0.3937007874015748
		},
		{
		  "duration": 0.375,
		  "durationTicks": 384,
		  "midi": 42,
		  "name": "F#2",
		  "ticks": 223482,
		  "time": 218.244140625,
		  "velocity": 0.3937007874015748
		},
		{
		  "duration": 0.09375,
		  "durationTicks": 96,
		  "midi": 74,
		  "name": "D5",
		  "ticks": 223578,
		  "time": 218.337890625,
		  "velocity": 0.3937007874015748
		},
		{
		  "duration": 0.09375,
		  "durationTicks": 96,
		  "midi": 71,
		  "name": "B4",
		  "ticks": 223674,
		  "time": 218.431640625,
		  "velocity": 0.3937007874015748
		},
		{
		  "duration": 0.09375,
		  "durationTicks": 96,
		  "midi": 74,
		  "name": "D5",
		  "ticks": 223770,
		  "time": 218.525390625,
		  "velocity": 0.3937007874015748
		},
		{
		  "duration": 0.5625,
		  "durationTicks": 576,
		  "midi": 41,
		  "name": "F2",
		  "ticks": 223850,
		  "time": 218.603515625,
		  "velocity": 0.3937007874015748
		},
		{
		  "duration": 0.09375,
		  "durationTicks": 96,
		  "midi": 68,
		  "name": "G#4",
		  "ticks": 223866,
		  "time": 218.619140625,
		  "velocity": 0.3937007874015748
		},
		{
		  "duration": 0.09375,
		  "durationTicks": 96,
		  "midi": 73,
		  "name": "C#5",
		  "ticks": 223962,
		  "time": 218.712890625,
		  "velocity": 0.3937007874015748
		},
		{
		  "duration": 0.09375,
		  "durationTicks": 96,
		  "midi": 71,
		  "name": "B4",
		  "ticks": 224058,
		  "time": 218.806640625,
		  "velocity": 0.3937007874015748
		},
		{
		  "duration": 0.09375,
		  "durationTicks": 96,
		  "midi": 73,
		  "name": "C#5",
		  "ticks": 224154,
		  "time": 218.900390625,
		  "velocity": 0.3937007874015748
		},
		{
		  "duration": 0.09375,
		  "durationTicks": 96,
		  "midi": 68,
		  "name": "G#4",
		  "ticks": 224250,
		  "time": 218.994140625,
		  "velocity": 0.3937007874015748
		},
		{
		  "duration": 0.09375,
		  "durationTicks": 96,
		  "midi": 73,
		  "name": "C#5",
		  "ticks": 224346,
		  "time": 219.087890625,
		  "velocity": 0.3937007874015748
		},
		{
		  "duration": 0.09375,
		  "durationTicks": 96,
		  "midi": 71,
		  "name": "B4",
		  "ticks": 224442,
		  "time": 219.181640625,
		  "velocity": 0.3937007874015748
		},
		{
		  "duration": 0.1875,
		  "durationTicks": 192,
		  "midi": 41,
		  "name": "F2",
		  "ticks": 224442,
		  "time": 219.181640625,
		  "velocity": 0.3937007874015748
		},
		{
		  "duration": 0.09375,
		  "durationTicks": 96,
		  "midi": 73,
		  "name": "C#5",
		  "ticks": 224538,
		  "time": 219.275390625,
		  "velocity": 0.3937007874015748
		},
		{
		  "duration": 0.28125,
		  "durationTicks": 288,
		  "midi": 49,
		  "name": "C#3",
		  "ticks": 224618,
		  "time": 219.353515625,
		  "velocity": 0.3937007874015748
		},
		{
		  "duration": 0.09375,
		  "durationTicks": 96,
		  "midi": 68,
		  "name": "G#4",
		  "ticks": 224634,
		  "time": 219.369140625,
		  "velocity": 0.3937007874015748
		},
		{
		  "duration": 0.09375,
		  "durationTicks": 96,
		  "midi": 73,
		  "name": "C#5",
		  "ticks": 224730,
		  "time": 219.462890625,
		  "velocity": 0.3937007874015748
		},
		{
		  "duration": 0.09375,
		  "durationTicks": 96,
		  "midi": 71,
		  "name": "B4",
		  "ticks": 224826,
		  "time": 219.556640625,
		  "velocity": 0.3937007874015748
		},
		{
		  "duration": 0.09375,
		  "durationTicks": 96,
		  "midi": 41,
		  "name": "F2",
		  "ticks": 224906,
		  "time": 219.634765625,
		  "velocity": 0.3937007874015748
		},
		{
		  "duration": 0.09375,
		  "durationTicks": 96,
		  "midi": 73,
		  "name": "C#5",
		  "ticks": 224922,
		  "time": 219.650390625,
		  "velocity": 0.3937007874015748
		},
		{
		  "duration": 0.09375,
		  "durationTicks": 96,
		  "midi": 66,
		  "name": "F#4",
		  "ticks": 225018,
		  "time": 219.744140625,
		  "velocity": 0.3937007874015748
		},
		{
		  "duration": 0.1875,
		  "durationTicks": 192,
		  "midi": 42,
		  "name": "F#2",
		  "ticks": 225018,
		  "time": 219.744140625,
		  "velocity": 0.3937007874015748
		},
		{
		  "duration": 0.09375,
		  "durationTicks": 96,
		  "midi": 73,
		  "name": "C#5",
		  "ticks": 225114,
		  "time": 219.837890625,
		  "velocity": 0.3937007874015748
		},
		{
		  "duration": 0.1875,
		  "durationTicks": 192,
		  "midi": 42,
		  "name": "F#2",
		  "ticks": 225194,
		  "time": 219.916015625,
		  "velocity": 0.3937007874015748
		},
		{
		  "duration": 0.09375,
		  "durationTicks": 96,
		  "midi": 69,
		  "name": "A4",
		  "ticks": 225210,
		  "time": 219.931640625,
		  "velocity": 0.3937007874015748
		},
		{
		  "duration": 0.09375,
		  "durationTicks": 96,
		  "midi": 73,
		  "name": "C#5",
		  "ticks": 225306,
		  "time": 220.025390625,
		  "velocity": 0.3937007874015748
		},
		{
		  "duration": 0.1875,
		  "durationTicks": 192,
		  "midi": 45,
		  "name": "A2",
		  "ticks": 225386,
		  "time": 220.103515625,
		  "velocity": 0.3937007874015748
		},
		{
		  "duration": 0.09375,
		  "durationTicks": 96,
		  "midi": 66,
		  "name": "F#4",
		  "ticks": 225402,
		  "time": 220.119140625,
		  "velocity": 0.3937007874015748
		},
		{
		  "duration": 0.09375,
		  "durationTicks": 96,
		  "midi": 73,
		  "name": "C#5",
		  "ticks": 225498,
		  "time": 220.212890625,
		  "velocity": 0.3937007874015748
		},
		{
		  "duration": 0.1875,
		  "durationTicks": 192,
		  "midi": 42,
		  "name": "F#2",
		  "ticks": 225578,
		  "time": 220.291015625,
		  "velocity": 0.3937007874015748
		},
		{
		  "duration": 0.09375,
		  "durationTicks": 96,
		  "midi": 69,
		  "name": "A4",
		  "ticks": 225594,
		  "time": 220.306640625,
		  "velocity": 0.3937007874015748
		},
		{
		  "duration": 0.09375,
		  "durationTicks": 96,
		  "midi": 73,
		  "name": "C#5",
		  "ticks": 225690,
		  "time": 220.400390625,
		  "velocity": 0.3937007874015748
		},
		{
		  "duration": 0.09375,
		  "durationTicks": 96,
		  "midi": 66,
		  "name": "F#4",
		  "ticks": 225786,
		  "time": 220.494140625,
		  "velocity": 0.3937007874015748
		},
		{
		  "duration": 0.1875,
		  "durationTicks": 192,
		  "midi": 38,
		  "name": "D2",
		  "ticks": 225786,
		  "time": 220.494140625,
		  "velocity": 0.3937007874015748
		},
		{
		  "duration": 0.09375,
		  "durationTicks": 96,
		  "midi": 78,
		  "name": "F#5",
		  "ticks": 225882,
		  "time": 220.587890625,
		  "velocity": 0.3937007874015748
		},
		{
		  "duration": 0.1875,
		  "durationTicks": 192,
		  "midi": 38,
		  "name": "D2",
		  "ticks": 225962,
		  "time": 220.666015625,
		  "velocity": 0.3937007874015748
		},
		{
		  "duration": 0.09375,
		  "durationTicks": 96,
		  "midi": 69,
		  "name": "A4",
		  "ticks": 225978,
		  "time": 220.681640625,
		  "velocity": 0.3937007874015748
		},
		{
		  "duration": 0.09375,
		  "durationTicks": 96,
		  "midi": 78,
		  "name": "F#5",
		  "ticks": 226074,
		  "time": 220.775390625,
		  "velocity": 0.3937007874015748
		},
		{
		  "duration": 0.1875,
		  "durationTicks": 192,
		  "midi": 42,
		  "name": "F#2",
		  "ticks": 226154,
		  "time": 220.853515625,
		  "velocity": 0.3937007874015748
		},
		{
		  "duration": 0.09375,
		  "durationTicks": 96,
		  "midi": 66,
		  "name": "F#4",
		  "ticks": 226170,
		  "time": 220.869140625,
		  "velocity": 0.3937007874015748
		},
		{
		  "duration": 0.09375,
		  "durationTicks": 96,
		  "midi": 78,
		  "name": "F#5",
		  "ticks": 226266,
		  "time": 220.962890625,
		  "velocity": 0.3937007874015748
		},
		{
		  "duration": 0.1875,
		  "durationTicks": 192,
		  "midi": 38,
		  "name": "D2",
		  "ticks": 226346,
		  "time": 221.041015625,
		  "velocity": 0.3937007874015748
		},
		{
		  "duration": 0.09375,
		  "durationTicks": 96,
		  "midi": 69,
		  "name": "A4",
		  "ticks": 226362,
		  "time": 221.056640625,
		  "velocity": 0.3937007874015748
		},
		{
		  "duration": 0.09375,
		  "durationTicks": 96,
		  "midi": 78,
		  "name": "F#5",
		  "ticks": 226458,
		  "time": 221.150390625,
		  "velocity": 0.3937007874015748
		},
		{
		  "duration": 0.09375,
		  "durationTicks": 96,
		  "midi": 66,
		  "name": "F#4",
		  "ticks": 226554,
		  "time": 221.244140625,
		  "velocity": 0.3937007874015748
		},
		{
		  "duration": 0.9375,
		  "durationTicks": 960,
		  "midi": 36,
		  "name": "C2",
		  "ticks": 226554,
		  "time": 221.244140625,
		  "velocity": 0.3937007874015748
		},
		{
		  "duration": 0.09375,
		  "durationTicks": 96,
		  "midi": 78,
		  "name": "F#5",
		  "ticks": 226650,
		  "time": 221.337890625,
		  "velocity": 0.3937007874015748
		},
		{
		  "duration": 0.09375,
		  "durationTicks": 96,
		  "midi": 75,
		  "name": "D#5",
		  "ticks": 226734,
		  "time": 221.419921875,
		  "velocity": 0.3937007874015748
		},
		{
		  "duration": 0.09375,
		  "durationTicks": 96,
		  "midi": 68,
		  "name": "G#4",
		  "ticks": 226734,
		  "time": 221.419921875,
		  "velocity": 0.3937007874015748
		},
		{
		  "duration": 0.09375,
		  "durationTicks": 96,
		  "midi": 78,
		  "name": "F#5",
		  "ticks": 226842,
		  "time": 221.525390625,
		  "velocity": 0.3937007874015748
		},
		{
		  "duration": 0.09375,
		  "durationTicks": 96,
		  "midi": 66,
		  "name": "F#4",
		  "ticks": 226938,
		  "time": 221.619140625,
		  "velocity": 0.3937007874015748
		},
		{
		  "duration": 0.09375,
		  "durationTicks": 96,
		  "midi": 78,
		  "name": "F#5",
		  "ticks": 227034,
		  "time": 221.712890625,
		  "velocity": 0.3937007874015748
		},
		{
		  "duration": 0.09375,
		  "durationTicks": 96,
		  "midi": 75,
		  "name": "D#5",
		  "ticks": 227118,
		  "time": 221.794921875,
		  "velocity": 0.3937007874015748
		},
		{
		  "duration": 0.09375,
		  "durationTicks": 96,
		  "midi": 68,
		  "name": "G#4",
		  "ticks": 227118,
		  "time": 221.794921875,
		  "velocity": 0.3937007874015748
		},
		{
		  "duration": 0.09375,
		  "durationTicks": 96,
		  "midi": 78,
		  "name": "F#5",
		  "ticks": 227226,
		  "time": 221.900390625,
		  "velocity": 0.3937007874015748
		},
		{
		  "duration": 0.09375,
		  "durationTicks": 96,
		  "midi": 66,
		  "name": "F#4",
		  "ticks": 227322,
		  "time": 221.994140625,
		  "velocity": 0.3937007874015748
		},
		{
		  "duration": 0.09375,
		  "durationTicks": 96,
		  "midi": 78,
		  "name": "F#5",
		  "ticks": 227418,
		  "time": 222.087890625,
		  "velocity": 0.3937007874015748
		},
		{
		  "duration": 0.09375,
		  "durationTicks": 96,
		  "midi": 68,
		  "name": "G#4",
		  "ticks": 227502,
		  "time": 222.169921875,
		  "velocity": 0.3937007874015748
		},
		{
		  "duration": 0.09375,
		  "durationTicks": 96,
		  "midi": 75,
		  "name": "D#5",
		  "ticks": 227502,
		  "time": 222.169921875,
		  "velocity": 0.3937007874015748
		},
		{
		  "duration": 0.1875,
		  "durationTicks": 192,
		  "midi": 36,
		  "name": "C2",
		  "ticks": 227514,
		  "time": 222.181640625,
		  "velocity": 0.3937007874015748
		},
		{
		  "duration": 0.09375,
		  "durationTicks": 96,
		  "midi": 78,
		  "name": "F#5",
		  "ticks": 227610,
		  "time": 222.275390625,
		  "velocity": 0.3937007874015748
		},
		{
		  "duration": 0.1875,
		  "durationTicks": 192,
		  "midi": 39,
		  "name": "D#2",
		  "ticks": 227690,
		  "time": 222.353515625,
		  "velocity": 0.3937007874015748
		},
		{
		  "duration": 0.09375,
		  "durationTicks": 96,
		  "midi": 66,
		  "name": "F#4",
		  "ticks": 227706,
		  "time": 222.369140625,
		  "velocity": 0.3937007874015748
		},
		{
		  "duration": 0.09375,
		  "durationTicks": 96,
		  "midi": 78,
		  "name": "F#5",
		  "ticks": 227802,
		  "time": 222.462890625,
		  "velocity": 0.3937007874015748
		},
		{
		  "duration": 0.1875,
		  "durationTicks": 192,
		  "midi": 36,
		  "name": "C2",
		  "ticks": 227882,
		  "time": 222.541015625,
		  "velocity": 0.3937007874015748
		},
		{
		  "duration": 0.09375,
		  "durationTicks": 96,
		  "midi": 75,
		  "name": "D#5",
		  "ticks": 227886,
		  "time": 222.544921875,
		  "velocity": 0.3937007874015748
		},
		{
		  "duration": 0.09375,
		  "durationTicks": 96,
		  "midi": 68,
		  "name": "G#4",
		  "ticks": 227886,
		  "time": 222.544921875,
		  "velocity": 0.3937007874015748
		},
		{
		  "duration": 0.09375,
		  "durationTicks": 96,
		  "midi": 78,
		  "name": "F#5",
		  "ticks": 227994,
		  "time": 222.650390625,
		  "velocity": 0.3937007874015748
		},
		{
		  "duration": 0.09375,
		  "durationTicks": 96,
		  "midi": 64,
		  "name": "E4",
		  "ticks": 228090,
		  "time": 222.744140625,
		  "velocity": 0.3937007874015748
		},
		{
		  "duration": 0.1875,
		  "durationTicks": 192,
		  "midi": 37,
		  "name": "C#2",
		  "ticks": 228090,
		  "time": 222.744140625,
		  "velocity": 0.3937007874015748
		},
		{
		  "duration": 0.09375,
		  "durationTicks": 96,
		  "midi": 76,
		  "name": "E5",
		  "ticks": 228186,
		  "time": 222.837890625,
		  "velocity": 0.3937007874015748
		},
		{
		  "duration": 0.1875,
		  "durationTicks": 192,
		  "midi": 37,
		  "name": "C#2",
		  "ticks": 228266,
		  "time": 222.916015625,
		  "velocity": 0.3937007874015748
		},
		{
		  "duration": 0.09375,
		  "durationTicks": 96,
		  "midi": 73,
		  "name": "C#5",
		  "ticks": 228282,
		  "time": 222.931640625,
		  "velocity": 0.3937007874015748
		},
		{
		  "duration": 0.09375,
		  "durationTicks": 96,
		  "midi": 76,
		  "name": "E5",
		  "ticks": 228378,
		  "time": 223.025390625,
		  "velocity": 0.3937007874015748
		},
		{
		  "duration": 0.1875,
		  "durationTicks": 192,
		  "midi": 40,
		  "name": "E2",
		  "ticks": 228458,
		  "time": 223.103515625,
		  "velocity": 0.3937007874015748
		},
		{
		  "duration": 0.09375,
		  "durationTicks": 96,
		  "midi": 64,
		  "name": "E4",
		  "ticks": 228474,
		  "time": 223.119140625,
		  "velocity": 0.3937007874015748
		},
		{
		  "duration": 0.09375,
		  "durationTicks": 96,
		  "midi": 76,
		  "name": "E5",
		  "ticks": 228570,
		  "time": 223.212890625,
		  "velocity": 0.3937007874015748
		},
		{
		  "duration": 0.1875,
		  "durationTicks": 192,
		  "midi": 37,
		  "name": "C#2",
		  "ticks": 228650,
		  "time": 223.291015625,
		  "velocity": 0.3937007874015748
		},
		{
		  "duration": 0.09375,
		  "durationTicks": 96,
		  "midi": 73,
		  "name": "C#5",
		  "ticks": 228666,
		  "time": 223.306640625,
		  "velocity": 0.3937007874015748
		},
		{
		  "duration": 0.09375,
		  "durationTicks": 96,
		  "midi": 76,
		  "name": "E5",
		  "ticks": 228762,
		  "time": 223.400390625,
		  "velocity": 0.3937007874015748
		},
		{
		  "duration": 0.09375,
		  "durationTicks": 96,
		  "midi": 64,
		  "name": "E4",
		  "ticks": 228858,
		  "time": 223.494140625,
		  "velocity": 0.3937007874015748
		},
		{
		  "duration": 0.1875,
		  "durationTicks": 192,
		  "midi": 33,
		  "name": "A1",
		  "ticks": 228858,
		  "time": 223.494140625,
		  "velocity": 0.3937007874015748
		},
		{
		  "duration": 0.09375,
		  "durationTicks": 96,
		  "midi": 76,
		  "name": "E5",
		  "ticks": 228954,
		  "time": 223.587890625,
		  "velocity": 0.3937007874015748
		},
		{
		  "duration": 0.1875,
		  "durationTicks": 192,
		  "midi": 33,
		  "name": "A1",
		  "ticks": 229034,
		  "time": 223.666015625,
		  "velocity": 0.3937007874015748
		},
		{
		  "duration": 0.09375,
		  "durationTicks": 96,
		  "midi": 73,
		  "name": "C#5",
		  "ticks": 229050,
		  "time": 223.681640625,
		  "velocity": 0.3937007874015748
		},
		{
		  "duration": 0.09375,
		  "durationTicks": 96,
		  "midi": 76,
		  "name": "E5",
		  "ticks": 229146,
		  "time": 223.775390625,
		  "velocity": 0.3937007874015748
		},
		{
		  "duration": 0.1875,
		  "durationTicks": 192,
		  "midi": 37,
		  "name": "C#2",
		  "ticks": 229226,
		  "time": 223.853515625,
		  "velocity": 0.3937007874015748
		},
		{
		  "duration": 0.09375,
		  "durationTicks": 96,
		  "midi": 64,
		  "name": "E4",
		  "ticks": 229242,
		  "time": 223.869140625,
		  "velocity": 0.3937007874015748
		},
		{
		  "duration": 0.09375,
		  "durationTicks": 96,
		  "midi": 76,
		  "name": "E5",
		  "ticks": 229338,
		  "time": 223.962890625,
		  "velocity": 0.3937007874015748
		},
		{
		  "duration": 0.1875,
		  "durationTicks": 192,
		  "midi": 33,
		  "name": "A1",
		  "ticks": 229418,
		  "time": 224.041015625,
		  "velocity": 0.3937007874015748
		},
		{
		  "duration": 0.09375,
		  "durationTicks": 96,
		  "midi": 73,
		  "name": "C#5",
		  "ticks": 229434,
		  "time": 224.056640625,
		  "velocity": 0.3937007874015748
		},
		{
		  "duration": 0.09375,
		  "durationTicks": 96,
		  "midi": 76,
		  "name": "E5",
		  "ticks": 229530,
		  "time": 224.150390625,
		  "velocity": 0.3937007874015748
		},
		{
		  "duration": 0.09375,
		  "durationTicks": 96,
		  "midi": 63,
		  "name": "D#4",
		  "ticks": 229626,
		  "time": 224.244140625,
		  "velocity": 0.3937007874015748
		},
		{
		  "duration": 0.1875,
		  "durationTicks": 192,
		  "midi": 30,
		  "name": "F#1",
		  "ticks": 229626,
		  "time": 224.244140625,
		  "velocity": 0.3937007874015748
		},
		{
		  "duration": 0.09375,
		  "durationTicks": 96,
		  "midi": 75,
		  "name": "D#5",
		  "ticks": 229722,
		  "time": 224.337890625,
		  "velocity": 0.3937007874015748
		},
		{
		  "duration": 0.1875,
		  "durationTicks": 192,
		  "midi": 30,
		  "name": "F#1",
		  "ticks": 229802,
		  "time": 224.416015625,
		  "velocity": 0.3937007874015748
		},
		{
		  "duration": 0.09375,
		  "durationTicks": 96,
		  "midi": 73,
		  "name": "C#5",
		  "ticks": 229818,
		  "time": 224.431640625,
		  "velocity": 0.3937007874015748
		},
		{
		  "duration": 0.09375,
		  "durationTicks": 96,
		  "midi": 75,
		  "name": "D#5",
		  "ticks": 229914,
		  "time": 224.525390625,
		  "velocity": 0.3937007874015748
		},
		{
		  "duration": 0.1875,
		  "durationTicks": 192,
		  "midi": 33,
		  "name": "A1",
		  "ticks": 229994,
		  "time": 224.603515625,
		  "velocity": 0.3937007874015748
		},
		{
		  "duration": 0.09375,
		  "durationTicks": 96,
		  "midi": 63,
		  "name": "D#4",
		  "ticks": 230010,
		  "time": 224.619140625,
		  "velocity": 0.3937007874015748
		},
		{
		  "duration": 0.09375,
		  "durationTicks": 96,
		  "midi": 75,
		  "name": "D#5",
		  "ticks": 230106,
		  "time": 224.712890625,
		  "velocity": 0.3937007874015748
		},
		{
		  "duration": 0.1875,
		  "durationTicks": 192,
		  "midi": 30,
		  "name": "F#1",
		  "ticks": 230186,
		  "time": 224.791015625,
		  "velocity": 0.3937007874015748
		},
		{
		  "duration": 0.09375,
		  "durationTicks": 96,
		  "midi": 73,
		  "name": "C#5",
		  "ticks": 230202,
		  "time": 224.806640625,
		  "velocity": 0.3937007874015748
		},
		{
		  "duration": 0.09375,
		  "durationTicks": 96,
		  "midi": 75,
		  "name": "D#5",
		  "ticks": 230298,
		  "time": 224.900390625,
		  "velocity": 0.3937007874015748
		},
		{
		  "duration": 0.09375,
		  "durationTicks": 96,
		  "midi": 63,
		  "name": "D#4",
		  "ticks": 230394,
		  "time": 224.994140625,
		  "velocity": 0.3937007874015748
		},
		{
		  "duration": 0.1875,
		  "durationTicks": 192,
		  "midi": 31,
		  "name": "G1",
		  "ticks": 230394,
		  "time": 224.994140625,
		  "velocity": 0.3937007874015748
		},
		{
		  "duration": 0.09375,
		  "durationTicks": 96,
		  "midi": 75,
		  "name": "D#5",
		  "ticks": 230490,
		  "time": 225.087890625,
		  "velocity": 0.3937007874015748
		},
		{
		  "duration": 0.1875,
		  "durationTicks": 192,
		  "midi": 31,
		  "name": "G1",
		  "ticks": 230570,
		  "time": 225.166015625,
		  "velocity": 0.3937007874015748
		},
		{
		  "duration": 0.09375,
		  "durationTicks": 96,
		  "midi": 73,
		  "name": "C#5",
		  "ticks": 230586,
		  "time": 225.181640625,
		  "velocity": 0.3937007874015748
		},
		{
		  "duration": 0.09375,
		  "durationTicks": 96,
		  "midi": 75,
		  "name": "D#5",
		  "ticks": 230682,
		  "time": 225.275390625,
		  "velocity": 0.3937007874015748
		},
		{
		  "duration": 0.1875,
		  "durationTicks": 192,
		  "midi": 34,
		  "name": "A#1",
		  "ticks": 230762,
		  "time": 225.353515625,
		  "velocity": 0.3937007874015748
		},
		{
		  "duration": 0.09375,
		  "durationTicks": 96,
		  "midi": 63,
		  "name": "D#4",
		  "ticks": 230778,
		  "time": 225.369140625,
		  "velocity": 0.3937007874015748
		},
		{
		  "duration": 0.09375,
		  "durationTicks": 96,
		  "midi": 75,
		  "name": "D#5",
		  "ticks": 230874,
		  "time": 225.462890625,
		  "velocity": 0.3937007874015748
		},
		{
		  "duration": 0.1875,
		  "durationTicks": 192,
		  "midi": 31,
		  "name": "G1",
		  "ticks": 230954,
		  "time": 225.541015625,
		  "velocity": 0.3937007874015748
		},
		{
		  "duration": 0.09375,
		  "durationTicks": 96,
		  "midi": 73,
		  "name": "C#5",
		  "ticks": 230970,
		  "time": 225.556640625,
		  "velocity": 0.3937007874015748
		},
		{
		  "duration": 0.09375,
		  "durationTicks": 96,
		  "midi": 75,
		  "name": "D#5",
		  "ticks": 231066,
		  "time": 225.650390625,
		  "velocity": 0.3937007874015748
		},
		{
		  "duration": 0.1875,
		  "durationTicks": 192,
		  "midi": 63,
		  "name": "D#4",
		  "ticks": 231146,
		  "time": 225.728515625,
		  "velocity": 0.3937007874015748
		},
		{
		  "duration": 0.1875,
		  "durationTicks": 192,
		  "midi": 75,
		  "name": "D#5",
		  "ticks": 231146,
		  "time": 225.728515625,
		  "velocity": 0.3937007874015748
		},
		{
		  "duration": 0.1875,
		  "durationTicks": 192,
		  "midi": 72,
		  "name": "C5",
		  "ticks": 231146,
		  "time": 225.728515625,
		  "velocity": 0.3937007874015748
		},
		{
		  "duration": 0.09375,
		  "durationTicks": 96,
		  "midi": 32,
		  "name": "G#1",
		  "ticks": 231162,
		  "time": 225.744140625,
		  "velocity": 0.3937007874015748
		},
		{
		  "duration": 0.09375,
		  "durationTicks": 96,
		  "midi": 44,
		  "name": "G#2",
		  "ticks": 231258,
		  "time": 225.837890625,
		  "velocity": 0.3937007874015748
		},
		{
		  "duration": 0.09375,
		  "durationTicks": 96,
		  "midi": 32,
		  "name": "G#1",
		  "ticks": 231354,
		  "time": 225.931640625,
		  "velocity": 0.3937007874015748
		},
		{
		  "duration": 0.09375,
		  "durationTicks": 96,
		  "midi": 44,
		  "name": "G#2",
		  "ticks": 231450,
		  "time": 226.025390625,
		  "velocity": 0.3937007874015748
		},
		{
		  "duration": 0.75,
		  "durationTicks": 768,
		  "midi": 68,
		  "name": "G#4",
		  "ticks": 231530,
		  "time": 226.103515625,
		  "velocity": 0.3937007874015748
		},
		{
		  "duration": 0.09375,
		  "durationTicks": 96,
		  "midi": 32,
		  "name": "G#1",
		  "ticks": 231546,
		  "time": 226.119140625,
		  "velocity": 0.3937007874015748
		},
		{
		  "duration": 0.09375,
		  "durationTicks": 96,
		  "midi": 44,
		  "name": "G#2",
		  "ticks": 231642,
		  "time": 226.212890625,
		  "velocity": 0.3937007874015748
		},
		{
		  "duration": 0.09375,
		  "durationTicks": 96,
		  "midi": 32,
		  "name": "G#1",
		  "ticks": 231738,
		  "time": 226.306640625,
		  "velocity": 0.3937007874015748
		},
		{
		  "duration": 0.09375,
		  "durationTicks": 96,
		  "midi": 44,
		  "name": "G#2",
		  "ticks": 231834,
		  "time": 226.400390625,
		  "velocity": 0.3937007874015748
		},
		{
		  "duration": 0.09375,
		  "durationTicks": 96,
		  "midi": 32,
		  "name": "G#1",
		  "ticks": 231930,
		  "time": 226.494140625,
		  "velocity": 0.3937007874015748
		},
		{
		  "duration": 0.09375,
		  "durationTicks": 96,
		  "midi": 44,
		  "name": "G#2",
		  "ticks": 232026,
		  "time": 226.587890625,
		  "velocity": 0.3937007874015748
		},
		{
		  "duration": 0.09375,
		  "durationTicks": 96,
		  "midi": 32,
		  "name": "G#1",
		  "ticks": 232122,
		  "time": 226.681640625,
		  "velocity": 0.3937007874015748
		},
		{
		  "duration": 0.09375,
		  "durationTicks": 96,
		  "midi": 44,
		  "name": "G#2",
		  "ticks": 232218,
		  "time": 226.775390625,
		  "velocity": 0.3937007874015748
		},
		{
		  "duration": 0.1875,
		  "durationTicks": 192,
		  "midi": 69,
		  "name": "A4",
		  "ticks": 232298,
		  "time": 226.853515625,
		  "velocity": 0.3937007874015748
		},
		{
		  "duration": 0.09375,
		  "durationTicks": 96,
		  "midi": 32,
		  "name": "G#1",
		  "ticks": 232314,
		  "time": 226.869140625,
		  "velocity": 0.3937007874015748
		},
		{
		  "duration": 0.09375,
		  "durationTicks": 96,
		  "midi": 44,
		  "name": "G#2",
		  "ticks": 232410,
		  "time": 226.962890625,
		  "velocity": 0.3937007874015748
		},
		{
		  "duration": 0.1875,
		  "durationTicks": 192,
		  "midi": 68,
		  "name": "G#4",
		  "ticks": 232490,
		  "time": 227.041015625,
		  "velocity": 0.3937007874015748
		},
		{
		  "duration": 0.09375,
		  "durationTicks": 96,
		  "midi": 32,
		  "name": "G#1",
		  "ticks": 232506,
		  "time": 227.056640625,
		  "velocity": 0.3937007874015748
		},
		{
		  "duration": 0.09375,
		  "durationTicks": 96,
		  "midi": 44,
		  "name": "G#2",
		  "ticks": 232602,
		  "time": 227.150390625,
		  "velocity": 0.3937007874015748
		},
		{
		  "duration": 0.375,
		  "durationTicks": 384,
		  "midi": 66,
		  "name": "F#4",
		  "ticks": 232682,
		  "time": 227.228515625,
		  "velocity": 0.3937007874015748
		},
		{
		  "duration": 0.75,
		  "durationTicks": 768,
		  "midi": 61,
		  "name": "C#4",
		  "ticks": 232682,
		  "time": 227.228515625,
		  "velocity": 0.3937007874015748
		},
		{
		  "duration": 0.75,
		  "durationTicks": 768,
		  "midi": 57,
		  "name": "A3",
		  "ticks": 232682,
		  "time": 227.228515625,
		  "velocity": 0.3937007874015748
		},
		{
		  "duration": 0.09375,
		  "durationTicks": 96,
		  "midi": 32,
		  "name": "G#1",
		  "ticks": 232698,
		  "time": 227.244140625,
		  "velocity": 0.3937007874015748
		},
		{
		  "duration": 0.09375,
		  "durationTicks": 96,
		  "midi": 44,
		  "name": "G#2",
		  "ticks": 232794,
		  "time": 227.337890625,
		  "velocity": 0.3937007874015748
		},
		{
		  "duration": 0.09375,
		  "durationTicks": 96,
		  "midi": 32,
		  "name": "G#1",
		  "ticks": 232890,
		  "time": 227.431640625,
		  "velocity": 0.3937007874015748
		},
		{
		  "duration": 0.09375,
		  "durationTicks": 96,
		  "midi": 44,
		  "name": "G#2",
		  "ticks": 232986,
		  "time": 227.525390625,
		  "velocity": 0.3937007874015748
		},
		{
		  "duration": 0.1875,
		  "durationTicks": 192,
		  "midi": 68,
		  "name": "G#4",
		  "ticks": 233066,
		  "time": 227.603515625,
		  "velocity": 0.3937007874015748
		},
		{
		  "duration": 0.09375,
		  "durationTicks": 96,
		  "midi": 32,
		  "name": "G#1",
		  "ticks": 233082,
		  "time": 227.619140625,
		  "velocity": 0.3937007874015748
		},
		{
		  "duration": 0.09375,
		  "durationTicks": 96,
		  "midi": 44,
		  "name": "G#2",
		  "ticks": 233178,
		  "time": 227.712890625,
		  "velocity": 0.3937007874015748
		},
		{
		  "duration": 0.1875,
		  "durationTicks": 192,
		  "midi": 66,
		  "name": "F#4",
		  "ticks": 233258,
		  "time": 227.791015625,
		  "velocity": 0.3937007874015748
		},
		{
		  "duration": 0.09375,
		  "durationTicks": 96,
		  "midi": 32,
		  "name": "G#1",
		  "ticks": 233274,
		  "time": 227.806640625,
		  "velocity": 0.3937007874015748
		},
		{
		  "duration": 0.09375,
		  "durationTicks": 96,
		  "midi": 44,
		  "name": "G#2",
		  "ticks": 233370,
		  "time": 227.900390625,
		  "velocity": 0.3937007874015748
		},
		{
		  "duration": 0.375,
		  "durationTicks": 384,
		  "midi": 64,
		  "name": "E4",
		  "ticks": 233450,
		  "time": 227.978515625,
		  "velocity": 0.3937007874015748
		},
		{
		  "duration": 0.75,
		  "durationTicks": 768,
		  "midi": 59,
		  "name": "B3",
		  "ticks": 233450,
		  "time": 227.978515625,
		  "velocity": 0.3937007874015748
		},
		{
		  "duration": 0.75,
		  "durationTicks": 768,
		  "midi": 56,
		  "name": "G#3",
		  "ticks": 233450,
		  "time": 227.978515625,
		  "velocity": 0.3937007874015748
		},
		{
		  "duration": 0.09375,
		  "durationTicks": 96,
		  "midi": 32,
		  "name": "G#1",
		  "ticks": 233466,
		  "time": 227.994140625,
		  "velocity": 0.3937007874015748
		},
		{
		  "duration": 0.09375,
		  "durationTicks": 96,
		  "midi": 44,
		  "name": "G#2",
		  "ticks": 233562,
		  "time": 228.087890625,
		  "velocity": 0.3937007874015748
		},
		{
		  "duration": 0.09375,
		  "durationTicks": 96,
		  "midi": 32,
		  "name": "G#1",
		  "ticks": 233658,
		  "time": 228.181640625,
		  "velocity": 0.3937007874015748
		},
		{
		  "duration": 0.09375,
		  "durationTicks": 96,
		  "midi": 44,
		  "name": "G#2",
		  "ticks": 233754,
		  "time": 228.275390625,
		  "velocity": 0.3937007874015748
		},
		{
		  "duration": 0.1875,
		  "durationTicks": 192,
		  "midi": 66,
		  "name": "F#4",
		  "ticks": 233834,
		  "time": 228.353515625,
		  "velocity": 0.3937007874015748
		},
		{
		  "duration": 0.09375,
		  "durationTicks": 96,
		  "midi": 32,
		  "name": "G#1",
		  "ticks": 233850,
		  "time": 228.369140625,
		  "velocity": 0.3937007874015748
		},
		{
		  "duration": 0.09375,
		  "durationTicks": 96,
		  "midi": 44,
		  "name": "G#2",
		  "ticks": 233946,
		  "time": 228.462890625,
		  "velocity": 0.3937007874015748
		},
		{
		  "duration": 0.1875,
		  "durationTicks": 192,
		  "midi": 64,
		  "name": "E4",
		  "ticks": 234026,
		  "time": 228.541015625,
		  "velocity": 0.3937007874015748
		},
		{
		  "duration": 0.09375,
		  "durationTicks": 96,
		  "midi": 32,
		  "name": "G#1",
		  "ticks": 234042,
		  "time": 228.556640625,
		  "velocity": 0.3937007874015748
		},
		{
		  "duration": 0.09375,
		  "durationTicks": 96,
		  "midi": 44,
		  "name": "G#2",
		  "ticks": 234138,
		  "time": 228.650390625,
		  "velocity": 0.3937007874015748
		},
		{
		  "duration": 0.375,
		  "durationTicks": 384,
		  "midi": 63,
		  "name": "D#4",
		  "ticks": 234218,
		  "time": 228.728515625,
		  "velocity": 0.3937007874015748
		},
		{
		  "duration": 0.75,
		  "durationTicks": 768,
		  "midi": 57,
		  "name": "A3",
		  "ticks": 234218,
		  "time": 228.728515625,
		  "velocity": 0.3937007874015748
		},
		{
		  "duration": 0.75,
		  "durationTicks": 768,
		  "midi": 54,
		  "name": "F#3",
		  "ticks": 234218,
		  "time": 228.728515625,
		  "velocity": 0.3937007874015748
		},
		{
		  "duration": 0.09375,
		  "durationTicks": 96,
		  "midi": 32,
		  "name": "G#1",
		  "ticks": 234234,
		  "time": 228.744140625,
		  "velocity": 0.3937007874015748
		},
		{
		  "duration": 0.09375,
		  "durationTicks": 96,
		  "midi": 44,
		  "name": "G#2",
		  "ticks": 234330,
		  "time": 228.837890625,
		  "velocity": 0.3937007874015748
		},
		{
		  "duration": 0.09375,
		  "durationTicks": 96,
		  "midi": 32,
		  "name": "G#1",
		  "ticks": 234426,
		  "time": 228.931640625,
		  "velocity": 0.3937007874015748
		},
		{
		  "duration": 0.09375,
		  "durationTicks": 96,
		  "midi": 44,
		  "name": "G#2",
		  "ticks": 234522,
		  "time": 229.025390625,
		  "velocity": 0.3937007874015748
		},
		{
		  "duration": 0.1875,
		  "durationTicks": 192,
		  "midi": 64,
		  "name": "E4",
		  "ticks": 234602,
		  "time": 229.103515625,
		  "velocity": 0.3937007874015748
		},
		{
		  "duration": 0.09375,
		  "durationTicks": 96,
		  "midi": 32,
		  "name": "G#1",
		  "ticks": 234618,
		  "time": 229.119140625,
		  "velocity": 0.3937007874015748
		},
		{
		  "duration": 0.09375,
		  "durationTicks": 96,
		  "midi": 44,
		  "name": "G#2",
		  "ticks": 234714,
		  "time": 229.212890625,
		  "velocity": 0.3937007874015748
		},
		{
		  "duration": 0.1875,
		  "durationTicks": 192,
		  "midi": 63,
		  "name": "D#4",
		  "ticks": 234794,
		  "time": 229.291015625,
		  "velocity": 0.3937007874015748
		},
		{
		  "duration": 0.09375,
		  "durationTicks": 96,
		  "midi": 32,
		  "name": "G#1",
		  "ticks": 234810,
		  "time": 229.306640625,
		  "velocity": 0.3937007874015748
		},
		{
		  "duration": 0.09375,
		  "durationTicks": 96,
		  "midi": 44,
		  "name": "G#2",
		  "ticks": 234906,
		  "time": 229.400390625,
		  "velocity": 0.3937007874015748
		},
		{
		  "duration": 0.375,
		  "durationTicks": 384,
		  "midi": 61,
		  "name": "C#4",
		  "ticks": 234986,
		  "time": 229.478515625,
		  "velocity": 0.3937007874015748
		},
		{
		  "duration": 0.75,
		  "durationTicks": 768,
		  "midi": 52,
		  "name": "E3",
		  "ticks": 234986,
		  "time": 229.478515625,
		  "velocity": 0.3937007874015748
		},
		{
		  "duration": 0.75,
		  "durationTicks": 768,
		  "midi": 56,
		  "name": "G#3",
		  "ticks": 234986,
		  "time": 229.478515625,
		  "velocity": 0.3937007874015748
		},
		{
		  "duration": 0.09375,
		  "durationTicks": 96,
		  "midi": 32,
		  "name": "G#1",
		  "ticks": 235002,
		  "time": 229.494140625,
		  "velocity": 0.3937007874015748
		},
		{
		  "duration": 0.09375,
		  "durationTicks": 96,
		  "midi": 44,
		  "name": "G#2",
		  "ticks": 235098,
		  "time": 229.587890625,
		  "velocity": 0.3937007874015748
		},
		{
		  "duration": 0.09375,
		  "durationTicks": 96,
		  "midi": 32,
		  "name": "G#1",
		  "ticks": 235194,
		  "time": 229.681640625,
		  "velocity": 0.3937007874015748
		},
		{
		  "duration": 0.09375,
		  "durationTicks": 96,
		  "midi": 44,
		  "name": "G#2",
		  "ticks": 235290,
		  "time": 229.775390625,
		  "velocity": 0.3937007874015748
		},
		{
		  "duration": 0.1875,
		  "durationTicks": 192,
		  "midi": 63,
		  "name": "D#4",
		  "ticks": 235370,
		  "time": 229.853515625,
		  "velocity": 0.3937007874015748
		},
		{
		  "duration": 0.09375,
		  "durationTicks": 96,
		  "midi": 32,
		  "name": "G#1",
		  "ticks": 235386,
		  "time": 229.869140625,
		  "velocity": 0.3937007874015748
		},
		{
		  "duration": 0.09375,
		  "durationTicks": 96,
		  "midi": 44,
		  "name": "G#2",
		  "ticks": 235482,
		  "time": 229.962890625,
		  "velocity": 0.3937007874015748
		},
		{
		  "duration": 0.1875,
		  "durationTicks": 192,
		  "midi": 61,
		  "name": "C#4",
		  "ticks": 235562,
		  "time": 230.041015625,
		  "velocity": 0.3937007874015748
		},
		{
		  "duration": 0.09375,
		  "durationTicks": 96,
		  "midi": 32,
		  "name": "G#1",
		  "ticks": 235578,
		  "time": 230.056640625,
		  "velocity": 0.3937007874015748
		},
		{
		  "duration": 0.09375,
		  "durationTicks": 96,
		  "midi": 44,
		  "name": "G#2",
		  "ticks": 235674,
		  "time": 230.150390625,
		  "velocity": 0.3937007874015748
		},
		{
		  "duration": 0.75,
		  "durationTicks": 768,
		  "midi": 51,
		  "name": "D#3",
		  "ticks": 235754,
		  "time": 230.228515625,
		  "velocity": 0.3937007874015748
		},
		{
		  "duration": 0.75,
		  "durationTicks": 768,
		  "midi": 60,
		  "name": "C4",
		  "ticks": 235754,
		  "time": 230.228515625,
		  "velocity": 0.3937007874015748
		},
		{
		  "duration": 0.75,
		  "durationTicks": 768,
		  "midi": 54,
		  "name": "F#3",
		  "ticks": 235754,
		  "time": 230.228515625,
		  "velocity": 0.3937007874015748
		},
		{
		  "duration": 0.09375,
		  "durationTicks": 96,
		  "midi": 32,
		  "name": "G#1",
		  "ticks": 235770,
		  "time": 230.244140625,
		  "velocity": 0.3937007874015748
		},
		{
		  "duration": 0.09375,
		  "durationTicks": 96,
		  "midi": 44,
		  "name": "G#2",
		  "ticks": 235866,
		  "time": 230.337890625,
		  "velocity": 0.3937007874015748
		},
		{
		  "duration": 0.09375,
		  "durationTicks": 96,
		  "midi": 32,
		  "name": "G#1",
		  "ticks": 235962,
		  "time": 230.431640625,
		  "velocity": 0.3937007874015748
		},
		{
		  "duration": 0.09375,
		  "durationTicks": 96,
		  "midi": 44,
		  "name": "G#2",
		  "ticks": 236058,
		  "time": 230.525390625,
		  "velocity": 0.3937007874015748
		},
		{
		  "duration": 0.09375,
		  "durationTicks": 96,
		  "midi": 32,
		  "name": "G#1",
		  "ticks": 236154,
		  "time": 230.619140625,
		  "velocity": 0.3937007874015748
		},
		{
		  "duration": 0.09375,
		  "durationTicks": 96,
		  "midi": 44,
		  "name": "G#2",
		  "ticks": 236250,
		  "time": 230.712890625,
		  "velocity": 0.3937007874015748
		},
		{
		  "duration": 0.09375,
		  "durationTicks": 96,
		  "midi": 32,
		  "name": "G#1",
		  "ticks": 236346,
		  "time": 230.806640625,
		  "velocity": 0.3937007874015748
		},
		{
		  "duration": 0.09375,
		  "durationTicks": 96,
		  "midi": 44,
		  "name": "G#2",
		  "ticks": 236442,
		  "time": 230.900390625,
		  "velocity": 0.3937007874015748
		},
		{
		  "duration": 0.75,
		  "durationTicks": 768,
		  "midi": 61,
		  "name": "C#4",
		  "ticks": 236522,
		  "time": 230.978515625,
		  "velocity": 0.3937007874015748
		},
		{
		  "duration": 0.75,
		  "durationTicks": 768,
		  "midi": 49,
		  "name": "C#3",
		  "ticks": 236522,
		  "time": 230.978515625,
		  "velocity": 0.3937007874015748
		},
		{
		  "duration": 0.75,
		  "durationTicks": 768,
		  "midi": 52,
		  "name": "E3",
		  "ticks": 236522,
		  "time": 230.978515625,
		  "velocity": 0.3937007874015748
		},
		{
		  "duration": 0.09375,
		  "durationTicks": 96,
		  "midi": 32,
		  "name": "G#1",
		  "ticks": 236538,
		  "time": 230.994140625,
		  "velocity": 0.3937007874015748
		},
		{
		  "duration": 0.09375,
		  "durationTicks": 96,
		  "midi": 44,
		  "name": "G#2",
		  "ticks": 236634,
		  "time": 231.087890625,
		  "velocity": 0.3937007874015748
		},
		{
		  "duration": 0.09375,
		  "durationTicks": 96,
		  "midi": 32,
		  "name": "G#1",
		  "ticks": 236730,
		  "time": 231.181640625,
		  "velocity": 0.3937007874015748
		},
		{
		  "duration": 0.09375,
		  "durationTicks": 96,
		  "midi": 44,
		  "name": "G#2",
		  "ticks": 236826,
		  "time": 231.275390625,
		  "velocity": 0.3937007874015748
		},
		{
		  "duration": 0.09375,
		  "durationTicks": 96,
		  "midi": 32,
		  "name": "G#1",
		  "ticks": 236922,
		  "time": 231.369140625,
		  "velocity": 0.3937007874015748
		},
		{
		  "duration": 0.09375,
		  "durationTicks": 96,
		  "midi": 44,
		  "name": "G#2",
		  "ticks": 237018,
		  "time": 231.462890625,
		  "velocity": 0.3937007874015748
		},
		{
		  "duration": 0.09375,
		  "durationTicks": 96,
		  "midi": 32,
		  "name": "G#1",
		  "ticks": 237114,
		  "time": 231.556640625,
		  "velocity": 0.3937007874015748
		},
		{
		  "duration": 0.09375,
		  "durationTicks": 96,
		  "midi": 44,
		  "name": "G#2",
		  "ticks": 237210,
		  "time": 231.650390625,
		  "velocity": 0.3937007874015748
		},
		{
		  "duration": 0.09375,
		  "durationTicks": 96,
		  "midi": 48,
		  "name": "C3",
		  "ticks": 237290,
		  "time": 231.728515625,
		  "velocity": 0.3937007874015748
		},
		{
		  "duration": 0.09375,
		  "durationTicks": 96,
		  "midi": 32,
		  "name": "G#1",
		  "ticks": 237306,
		  "time": 231.744140625,
		  "velocity": 0.3937007874015748
		},
		{
		  "duration": 0.09375,
		  "durationTicks": 96,
		  "midi": 56,
		  "name": "G#3",
		  "ticks": 237354,
		  "time": 231.791015625,
		  "velocity": 0.3937007874015748
		},
		{
		  "duration": 0.09375,
		  "durationTicks": 96,
		  "midi": 44,
		  "name": "G#2",
		  "ticks": 237402,
		  "time": 231.837890625,
		  "velocity": 0.3937007874015748
		},
		{
		  "duration": 0.28125,
		  "durationTicks": 288,
		  "midi": 63,
		  "name": "D#4",
		  "ticks": 237417,
		  "time": 231.8525390625,
		  "velocity": 0.3937007874015748
		},
		{
		  "duration": 0.09375,
		  "durationTicks": 96,
		  "midi": 32,
		  "name": "G#1",
		  "ticks": 237498,
		  "time": 231.931640625,
		  "velocity": 0.3937007874015748
		},
		{
		  "duration": 0.09375,
		  "durationTicks": 96,
		  "midi": 44,
		  "name": "G#2",
		  "ticks": 237594,
		  "time": 232.025390625,
		  "velocity": 0.3937007874015748
		},
		{
		  "duration": 0.5625,
		  "durationTicks": 576,
		  "midi": 80,
		  "name": "G#5",
		  "ticks": 237690,
		  "time": 232.119140625,
		  "velocity": 0.3937007874015748
		},
		{
		  "duration": 0.09375,
		  "durationTicks": 96,
		  "midi": 32,
		  "name": "G#1",
		  "ticks": 237690,
		  "time": 232.119140625,
		  "velocity": 0.3937007874015748
		},
		{
		  "duration": 0.09375,
		  "durationTicks": 96,
		  "midi": 44,
		  "name": "G#2",
		  "ticks": 237786,
		  "time": 232.212890625,
		  "velocity": 0.3937007874015748
		},
		{
		  "duration": 0.09375,
		  "durationTicks": 96,
		  "midi": 32,
		  "name": "G#1",
		  "ticks": 237882,
		  "time": 232.306640625,
		  "velocity": 0.3937007874015748
		},
		{
		  "duration": 0.09375,
		  "durationTicks": 96,
		  "midi": 44,
		  "name": "G#2",
		  "ticks": 237978,
		  "time": 232.400390625,
		  "velocity": 0.3937007874015748
		},
		{
		  "duration": 0.09375,
		  "durationTicks": 96,
		  "midi": 32,
		  "name": "G#1",
		  "ticks": 238074,
		  "time": 232.494140625,
		  "velocity": 0.3937007874015748
		},
		{
		  "duration": 0.09375,
		  "durationTicks": 96,
		  "midi": 44,
		  "name": "G#2",
		  "ticks": 238170,
		  "time": 232.587890625,
		  "velocity": 0.3937007874015748
		},
		{
		  "duration": 0.1875,
		  "durationTicks": 192,
		  "midi": 80,
		  "name": "G#5",
		  "ticks": 238266,
		  "time": 232.681640625,
		  "velocity": 0.3937007874015748
		},
		{
		  "duration": 0.09375,
		  "durationTicks": 96,
		  "midi": 32,
		  "name": "G#1",
		  "ticks": 238266,
		  "time": 232.681640625,
		  "velocity": 0.3937007874015748
		},
		{
		  "duration": 0.09375,
		  "durationTicks": 96,
		  "midi": 44,
		  "name": "G#2",
		  "ticks": 238362,
		  "time": 232.775390625,
		  "velocity": 0.3937007874015748
		},
		{
		  "duration": 0.1875,
		  "durationTicks": 192,
		  "midi": 81,
		  "name": "A5",
		  "ticks": 238442,
		  "time": 232.853515625,
		  "velocity": 0.3937007874015748
		},
		{
		  "duration": 0.09375,
		  "durationTicks": 96,
		  "midi": 32,
		  "name": "G#1",
		  "ticks": 238458,
		  "time": 232.869140625,
		  "velocity": 0.3937007874015748
		},
		{
		  "duration": 0.09375,
		  "durationTicks": 96,
		  "midi": 44,
		  "name": "G#2",
		  "ticks": 238554,
		  "time": 232.962890625,
		  "velocity": 0.3937007874015748
		},
		{
		  "duration": 0.1875,
		  "durationTicks": 192,
		  "midi": 80,
		  "name": "G#5",
		  "ticks": 238634,
		  "time": 233.041015625,
		  "velocity": 0.3937007874015748
		},
		{
		  "duration": 0.09375,
		  "durationTicks": 96,
		  "midi": 32,
		  "name": "G#1",
		  "ticks": 238650,
		  "time": 233.056640625,
		  "velocity": 0.3937007874015748
		},
		{
		  "duration": 0.09375,
		  "durationTicks": 96,
		  "midi": 44,
		  "name": "G#2",
		  "ticks": 238746,
		  "time": 233.150390625,
		  "velocity": 0.3937007874015748
		},
		{
		  "duration": 0.1875,
		  "durationTicks": 192,
		  "midi": 78,
		  "name": "F#5",
		  "ticks": 238826,
		  "time": 233.228515625,
		  "velocity": 0.3937007874015748
		},
		{
		  "duration": 0.09375,
		  "durationTicks": 96,
		  "midi": 32,
		  "name": "G#1",
		  "ticks": 238842,
		  "time": 233.244140625,
		  "velocity": 0.3937007874015748
		},
		{
		  "duration": 0.09375,
		  "durationTicks": 96,
		  "midi": 44,
		  "name": "G#2",
		  "ticks": 238938,
		  "time": 233.337890625,
		  "velocity": 0.3937007874015748
		},
		{
		  "duration": 0.1875,
		  "durationTicks": 192,
		  "midi": 78,
		  "name": "F#5",
		  "ticks": 239018,
		  "time": 233.416015625,
		  "velocity": 0.3937007874015748
		},
		{
		  "duration": 0.1875,
		  "durationTicks": 192,
		  "midi": 73,
		  "name": "C#5",
		  "ticks": 239018,
		  "time": 233.416015625,
		  "velocity": 0.3937007874015748
		},
		{
		  "duration": 0.1875,
		  "durationTicks": 192,
		  "midi": 69,
		  "name": "A4",
		  "ticks": 239018,
		  "time": 233.416015625,
		  "velocity": 0.3937007874015748
		},
		{
		  "duration": 0.09375,
		  "durationTicks": 96,
		  "midi": 32,
		  "name": "G#1",
		  "ticks": 239034,
		  "time": 233.431640625,
		  "velocity": 0.3937007874015748
		},
		{
		  "duration": 0.09375,
		  "durationTicks": 96,
		  "midi": 44,
		  "name": "G#2",
		  "ticks": 239130,
		  "time": 233.525390625,
		  "velocity": 0.3937007874015748
		},
		{
		  "duration": 0.1875,
		  "durationTicks": 192,
		  "midi": 71,
		  "name": "B4",
		  "ticks": 239210,
		  "time": 233.603515625,
		  "velocity": 0.3937007874015748
		},
		{
		  "duration": 0.1875,
		  "durationTicks": 192,
		  "midi": 80,
		  "name": "G#5",
		  "ticks": 239210,
		  "time": 233.603515625,
		  "velocity": 0.3937007874015748
		},
		{
		  "duration": 0.1875,
		  "durationTicks": 192,
		  "midi": 75,
		  "name": "D#5",
		  "ticks": 239210,
		  "time": 233.603515625,
		  "velocity": 0.3937007874015748
		},
		{
		  "duration": 0.09375,
		  "durationTicks": 96,
		  "midi": 32,
		  "name": "G#1",
		  "ticks": 239226,
		  "time": 233.619140625,
		  "velocity": 0.3937007874015748
		},
		{
		  "duration": 0.09375,
		  "durationTicks": 96,
		  "midi": 44,
		  "name": "G#2",
		  "ticks": 239322,
		  "time": 233.712890625,
		  "velocity": 0.3937007874015748
		},
		{
		  "duration": 0.1875,
		  "durationTicks": 192,
		  "midi": 69,
		  "name": "A4",
		  "ticks": 239402,
		  "time": 233.791015625,
		  "velocity": 0.3937007874015748
		},
		{
		  "duration": 0.1875,
		  "durationTicks": 192,
		  "midi": 78,
		  "name": "F#5",
		  "ticks": 239402,
		  "time": 233.791015625,
		  "velocity": 0.3937007874015748
		},
		{
		  "duration": 0.1875,
		  "durationTicks": 192,
		  "midi": 73,
		  "name": "C#5",
		  "ticks": 239402,
		  "time": 233.791015625,
		  "velocity": 0.3937007874015748
		},
		{
		  "duration": 0.09375,
		  "durationTicks": 96,
		  "midi": 32,
		  "name": "G#1",
		  "ticks": 239418,
		  "time": 233.806640625,
		  "velocity": 0.3937007874015748
		},
		{
		  "duration": 0.09375,
		  "durationTicks": 96,
		  "midi": 44,
		  "name": "G#2",
		  "ticks": 239514,
		  "time": 233.900390625,
		  "velocity": 0.3937007874015748
		},
		{
		  "duration": 0.1875,
		  "durationTicks": 192,
		  "midi": 68,
		  "name": "G#4",
		  "ticks": 239594,
		  "time": 233.978515625,
		  "velocity": 0.3937007874015748
		},
		{
		  "duration": 0.1875,
		  "durationTicks": 192,
		  "midi": 76,
		  "name": "E5",
		  "ticks": 239594,
		  "time": 233.978515625,
		  "velocity": 0.3937007874015748
		},
		{
		  "duration": 0.1875,
		  "durationTicks": 192,
		  "midi": 71,
		  "name": "B4",
		  "ticks": 239594,
		  "time": 233.978515625,
		  "velocity": 0.3937007874015748
		},
		{
		  "duration": 0.09375,
		  "durationTicks": 96,
		  "midi": 32,
		  "name": "G#1",
		  "ticks": 239610,
		  "time": 233.994140625,
		  "velocity": 0.3937007874015748
		},
		{
		  "duration": 0.09375,
		  "durationTicks": 96,
		  "midi": 44,
		  "name": "G#2",
		  "ticks": 239706,
		  "time": 234.087890625,
		  "velocity": 0.3937007874015748
		},
		{
		  "duration": 0.1875,
		  "durationTicks": 192,
		  "midi": 76,
		  "name": "E5",
		  "ticks": 239786,
		  "time": 234.166015625,
		  "velocity": 0.3937007874015748
		},
		{
		  "duration": 0.1875,
		  "durationTicks": 192,
		  "midi": 71,
		  "name": "B4",
		  "ticks": 239786,
		  "time": 234.166015625,
		  "velocity": 0.3937007874015748
		},
		{
		  "duration": 0.1875,
		  "durationTicks": 192,
		  "midi": 68,
		  "name": "G#4",
		  "ticks": 239786,
		  "time": 234.166015625,
		  "velocity": 0.3937007874015748
		},
		{
		  "duration": 0.09375,
		  "durationTicks": 96,
		  "midi": 32,
		  "name": "G#1",
		  "ticks": 239802,
		  "time": 234.181640625,
		  "velocity": 0.3937007874015748
		},
		{
		  "duration": 0.09375,
		  "durationTicks": 96,
		  "midi": 44,
		  "name": "G#2",
		  "ticks": 239898,
		  "time": 234.275390625,
		  "velocity": 0.3937007874015748
		},
		{
		  "duration": 0.1875,
		  "durationTicks": 192,
		  "midi": 78,
		  "name": "F#5",
		  "ticks": 239978,
		  "time": 234.353515625,
		  "velocity": 0.3937007874015748
		},
		{
		  "duration": 0.1875,
		  "durationTicks": 192,
		  "midi": 73,
		  "name": "C#5",
		  "ticks": 239978,
		  "time": 234.353515625,
		  "velocity": 0.3937007874015748
		},
		{
		  "duration": 0.1875,
		  "durationTicks": 192,
		  "midi": 69,
		  "name": "A4",
		  "ticks": 239978,
		  "time": 234.353515625,
		  "velocity": 0.3937007874015748
		},
		{
		  "duration": 0.09375,
		  "durationTicks": 96,
		  "midi": 32,
		  "name": "G#1",
		  "ticks": 239994,
		  "time": 234.369140625,
		  "velocity": 0.3937007874015748
		},
		{
		  "duration": 0.09375,
		  "durationTicks": 96,
		  "midi": 44,
		  "name": "G#2",
		  "ticks": 240090,
		  "time": 234.462890625,
		  "velocity": 0.3937007874015748
		},
		{
		  "duration": 0.1875,
		  "durationTicks": 192,
		  "midi": 68,
		  "name": "G#4",
		  "ticks": 240170,
		  "time": 234.541015625,
		  "velocity": 0.3937007874015748
		},
		{
		  "duration": 0.1875,
		  "durationTicks": 192,
		  "midi": 76,
		  "name": "E5",
		  "ticks": 240170,
		  "time": 234.541015625,
		  "velocity": 0.3937007874015748
		},
		{
		  "duration": 0.1875,
		  "durationTicks": 192,
		  "midi": 71,
		  "name": "B4",
		  "ticks": 240170,
		  "time": 234.541015625,
		  "velocity": 0.3937007874015748
		},
		{
		  "duration": 0.09375,
		  "durationTicks": 96,
		  "midi": 32,
		  "name": "G#1",
		  "ticks": 240186,
		  "time": 234.556640625,
		  "velocity": 0.3937007874015748
		},
		{
		  "duration": 0.09375,
		  "durationTicks": 96,
		  "midi": 44,
		  "name": "G#2",
		  "ticks": 240282,
		  "time": 234.650390625,
		  "velocity": 0.3937007874015748
		},
		{
		  "duration": 0.1875,
		  "durationTicks": 192,
		  "midi": 66,
		  "name": "F#4",
		  "ticks": 240362,
		  "time": 234.728515625,
		  "velocity": 0.3937007874015748
		},
		{
		  "duration": 0.1875,
		  "durationTicks": 192,
		  "midi": 75,
		  "name": "D#5",
		  "ticks": 240362,
		  "time": 234.728515625,
		  "velocity": 0.3937007874015748
		},
		{
		  "duration": 0.1875,
		  "durationTicks": 192,
		  "midi": 69,
		  "name": "A4",
		  "ticks": 240362,
		  "time": 234.728515625,
		  "velocity": 0.3937007874015748
		},
		{
		  "duration": 0.09375,
		  "durationTicks": 96,
		  "midi": 32,
		  "name": "G#1",
		  "ticks": 240378,
		  "time": 234.744140625,
		  "velocity": 0.3937007874015748
		},
		{
		  "duration": 0.09375,
		  "durationTicks": 96,
		  "midi": 44,
		  "name": "G#2",
		  "ticks": 240474,
		  "time": 234.837890625,
		  "velocity": 0.3937007874015748
		},
		{
		  "duration": 0.1875,
		  "durationTicks": 192,
		  "midi": 66,
		  "name": "F#4",
		  "ticks": 240554,
		  "time": 234.916015625,
		  "velocity": 0.3937007874015748
		},
		{
		  "duration": 0.1875,
		  "durationTicks": 192,
		  "midi": 75,
		  "name": "D#5",
		  "ticks": 240554,
		  "time": 234.916015625,
		  "velocity": 0.3937007874015748
		},
		{
		  "duration": 0.1875,
		  "durationTicks": 192,
		  "midi": 69,
		  "name": "A4",
		  "ticks": 240554,
		  "time": 234.916015625,
		  "velocity": 0.3937007874015748
		},
		{
		  "duration": 0.09375,
		  "durationTicks": 96,
		  "midi": 32,
		  "name": "G#1",
		  "ticks": 240570,
		  "time": 234.931640625,
		  "velocity": 0.3937007874015748
		},
		{
		  "duration": 0.09375,
		  "durationTicks": 96,
		  "midi": 44,
		  "name": "G#2",
		  "ticks": 240666,
		  "time": 235.025390625,
		  "velocity": 0.3937007874015748
		},
		{
		  "duration": 0.1875,
		  "durationTicks": 192,
		  "midi": 68,
		  "name": "G#4",
		  "ticks": 240746,
		  "time": 235.103515625,
		  "velocity": 0.3937007874015748
		},
		{
		  "duration": 0.1875,
		  "durationTicks": 192,
		  "midi": 76,
		  "name": "E5",
		  "ticks": 240746,
		  "time": 235.103515625,
		  "velocity": 0.3937007874015748
		},
		{
		  "duration": 0.1875,
		  "durationTicks": 192,
		  "midi": 71,
		  "name": "B4",
		  "ticks": 240746,
		  "time": 235.103515625,
		  "velocity": 0.3937007874015748
		},
		{
		  "duration": 0.09375,
		  "durationTicks": 96,
		  "midi": 32,
		  "name": "G#1",
		  "ticks": 240762,
		  "time": 235.119140625,
		  "velocity": 0.3937007874015748
		},
		{
		  "duration": 0.09375,
		  "durationTicks": 96,
		  "midi": 44,
		  "name": "G#2",
		  "ticks": 240858,
		  "time": 235.212890625,
		  "velocity": 0.3937007874015748
		},
		{
		  "duration": 0.1875,
		  "durationTicks": 192,
		  "midi": 75,
		  "name": "D#5",
		  "ticks": 240938,
		  "time": 235.291015625,
		  "velocity": 0.3937007874015748
		},
		{
		  "duration": 0.1875,
		  "durationTicks": 192,
		  "midi": 69,
		  "name": "A4",
		  "ticks": 240938,
		  "time": 235.291015625,
		  "velocity": 0.3937007874015748
		},
		{
		  "duration": 0.1875,
		  "durationTicks": 192,
		  "midi": 66,
		  "name": "F#4",
		  "ticks": 240938,
		  "time": 235.291015625,
		  "velocity": 0.3937007874015748
		},
		{
		  "duration": 0.09375,
		  "durationTicks": 96,
		  "midi": 32,
		  "name": "G#1",
		  "ticks": 240954,
		  "time": 235.306640625,
		  "velocity": 0.3937007874015748
		},
		{
		  "duration": 0.09375,
		  "durationTicks": 96,
		  "midi": 44,
		  "name": "G#2",
		  "ticks": 241050,
		  "time": 235.400390625,
		  "velocity": 0.3937007874015748
		},
		{
		  "duration": 0.1875,
		  "durationTicks": 192,
		  "midi": 73,
		  "name": "C#5",
		  "ticks": 241130,
		  "time": 235.478515625,
		  "velocity": 0.3937007874015748
		},
		{
		  "duration": 0.1875,
		  "durationTicks": 192,
		  "midi": 68,
		  "name": "G#4",
		  "ticks": 241130,
		  "time": 235.478515625,
		  "velocity": 0.3937007874015748
		},
		{
		  "duration": 0.1875,
		  "durationTicks": 192,
		  "midi": 64,
		  "name": "E4",
		  "ticks": 241130,
		  "time": 235.478515625,
		  "velocity": 0.3937007874015748
		},
		{
		  "duration": 0.09375,
		  "durationTicks": 96,
		  "midi": 32,
		  "name": "G#1",
		  "ticks": 241146,
		  "time": 235.494140625,
		  "velocity": 0.3937007874015748
		},
		{
		  "duration": 0.09375,
		  "durationTicks": 96,
		  "midi": 44,
		  "name": "G#2",
		  "ticks": 241242,
		  "time": 235.587890625,
		  "velocity": 0.3937007874015748
		},
		{
		  "duration": 0.1875,
		  "durationTicks": 192,
		  "midi": 64,
		  "name": "E4",
		  "ticks": 241322,
		  "time": 235.666015625,
		  "velocity": 0.3937007874015748
		},
		{
		  "duration": 0.1875,
		  "durationTicks": 192,
		  "midi": 73,
		  "name": "C#5",
		  "ticks": 241322,
		  "time": 235.666015625,
		  "velocity": 0.3937007874015748
		},
		{
		  "duration": 0.1875,
		  "durationTicks": 192,
		  "midi": 68,
		  "name": "G#4",
		  "ticks": 241322,
		  "time": 235.666015625,
		  "velocity": 0.3937007874015748
		},
		{
		  "duration": 0.09375,
		  "durationTicks": 96,
		  "midi": 32,
		  "name": "G#1",
		  "ticks": 241338,
		  "time": 235.681640625,
		  "velocity": 0.3937007874015748
		},
		{
		  "duration": 0.09375,
		  "durationTicks": 96,
		  "midi": 44,
		  "name": "G#2",
		  "ticks": 241434,
		  "time": 235.775390625,
		  "velocity": 0.3937007874015748
		},
		{
		  "duration": 0.1875,
		  "durationTicks": 192,
		  "midi": 66,
		  "name": "F#4",
		  "ticks": 241514,
		  "time": 235.853515625,
		  "velocity": 0.3937007874015748
		},
		{
		  "duration": 0.1875,
		  "durationTicks": 192,
		  "midi": 75,
		  "name": "D#5",
		  "ticks": 241514,
		  "time": 235.853515625,
		  "velocity": 0.3937007874015748
		},
		{
		  "duration": 0.1875,
		  "durationTicks": 192,
		  "midi": 69,
		  "name": "A4",
		  "ticks": 241514,
		  "time": 235.853515625,
		  "velocity": 0.3937007874015748
		},
		{
		  "duration": 0.09375,
		  "durationTicks": 96,
		  "midi": 32,
		  "name": "G#1",
		  "ticks": 241530,
		  "time": 235.869140625,
		  "velocity": 0.3937007874015748
		},
		{
		  "duration": 0.09375,
		  "durationTicks": 96,
		  "midi": 44,
		  "name": "G#2",
		  "ticks": 241626,
		  "time": 235.962890625,
		  "velocity": 0.3937007874015748
		},
		{
		  "duration": 0.1875,
		  "durationTicks": 192,
		  "midi": 64,
		  "name": "E4",
		  "ticks": 241706,
		  "time": 236.041015625,
		  "velocity": 0.3937007874015748
		},
		{
		  "duration": 0.1875,
		  "durationTicks": 192,
		  "midi": 73,
		  "name": "C#5",
		  "ticks": 241706,
		  "time": 236.041015625,
		  "velocity": 0.3937007874015748
		},
		{
		  "duration": 0.1875,
		  "durationTicks": 192,
		  "midi": 68,
		  "name": "G#4",
		  "ticks": 241706,
		  "time": 236.041015625,
		  "velocity": 0.3937007874015748
		},
		{
		  "duration": 0.09375,
		  "durationTicks": 96,
		  "midi": 32,
		  "name": "G#1",
		  "ticks": 241722,
		  "time": 236.056640625,
		  "velocity": 0.3937007874015748
		},
		{
		  "duration": 0.09375,
		  "durationTicks": 96,
		  "midi": 44,
		  "name": "G#2",
		  "ticks": 241818,
		  "time": 236.150390625,
		  "velocity": 0.3937007874015748
		},
		{
		  "duration": 0.5625,
		  "durationTicks": 576,
		  "midi": 72,
		  "name": "C5",
		  "ticks": 241898,
		  "time": 236.228515625,
		  "velocity": 0.3937007874015748
		},
		{
		  "duration": 0.5625,
		  "durationTicks": 576,
		  "midi": 66,
		  "name": "F#4",
		  "ticks": 241898,
		  "time": 236.228515625,
		  "velocity": 0.3937007874015748
		},
		{
		  "duration": 0.5625,
		  "durationTicks": 576,
		  "midi": 63,
		  "name": "D#4",
		  "ticks": 241898,
		  "time": 236.228515625,
		  "velocity": 0.3937007874015748
		},
		{
		  "duration": 0.09375,
		  "durationTicks": 96,
		  "midi": 32,
		  "name": "G#1",
		  "ticks": 241914,
		  "time": 236.244140625,
		  "velocity": 0.3937007874015748
		},
		{
		  "duration": 0.09375,
		  "durationTicks": 96,
		  "midi": 44,
		  "name": "G#2",
		  "ticks": 242010,
		  "time": 236.337890625,
		  "velocity": 0.3937007874015748
		},
		{
		  "duration": 0.09375,
		  "durationTicks": 96,
		  "midi": 32,
		  "name": "G#1",
		  "ticks": 242106,
		  "time": 236.431640625,
		  "velocity": 0.3937007874015748
		},
		{
		  "duration": 0.09375,
		  "durationTicks": 96,
		  "midi": 44,
		  "name": "G#2",
		  "ticks": 242202,
		  "time": 236.525390625,
		  "velocity": 0.3937007874015748
		},
		{
		  "duration": 0.09375,
		  "durationTicks": 96,
		  "midi": 32,
		  "name": "G#1",
		  "ticks": 242298,
		  "time": 236.619140625,
		  "velocity": 0.3937007874015748
		},
		{
		  "duration": 0.09375,
		  "durationTicks": 96,
		  "midi": 44,
		  "name": "G#2",
		  "ticks": 242394,
		  "time": 236.712890625,
		  "velocity": 0.3937007874015748
		},
		{
		  "duration": 0.09375,
		  "durationTicks": 96,
		  "midi": 32,
		  "name": "G#1",
		  "ticks": 242490,
		  "time": 236.806640625,
		  "velocity": 0.3937007874015748
		},
		{
		  "duration": 0.09375,
		  "durationTicks": 96,
		  "midi": 44,
		  "name": "G#2",
		  "ticks": 242586,
		  "time": 236.900390625,
		  "velocity": 0.3937007874015748
		},
		{
		  "duration": 0.5625,
		  "durationTicks": 576,
		  "midi": 73,
		  "name": "C#5",
		  "ticks": 242666,
		  "time": 236.978515625,
		  "velocity": 0.3937007874015748
		},
		{
		  "duration": 0.5625,
		  "durationTicks": 576,
		  "midi": 64,
		  "name": "E4",
		  "ticks": 242666,
		  "time": 236.978515625,
		  "velocity": 0.3937007874015748
		},
		{
		  "duration": 0.5625,
		  "durationTicks": 576,
		  "midi": 61,
		  "name": "C#4",
		  "ticks": 242666,
		  "time": 236.978515625,
		  "velocity": 0.3937007874015748
		},
		{
		  "duration": 0.09375,
		  "durationTicks": 96,
		  "midi": 32,
		  "name": "G#1",
		  "ticks": 242682,
		  "time": 236.994140625,
		  "velocity": 0.3937007874015748
		},
		{
		  "duration": 0.09375,
		  "durationTicks": 96,
		  "midi": 44,
		  "name": "G#2",
		  "ticks": 242778,
		  "time": 237.087890625,
		  "velocity": 0.3937007874015748
		},
		{
		  "duration": 0.09375,
		  "durationTicks": 96,
		  "midi": 32,
		  "name": "G#1",
		  "ticks": 242874,
		  "time": 237.181640625,
		  "velocity": 0.3937007874015748
		},
		{
		  "duration": 0.09375,
		  "durationTicks": 96,
		  "midi": 44,
		  "name": "G#2",
		  "ticks": 242970,
		  "time": 237.275390625,
		  "velocity": 0.3937007874015748
		},
		{
		  "duration": 0.09375,
		  "durationTicks": 96,
		  "midi": 32,
		  "name": "G#1",
		  "ticks": 243066,
		  "time": 237.369140625,
		  "velocity": 0.3937007874015748
		},
		{
		  "duration": 0.09375,
		  "durationTicks": 96,
		  "midi": 44,
		  "name": "G#2",
		  "ticks": 243162,
		  "time": 237.462890625,
		  "velocity": 0.3937007874015748
		},
		{
		  "duration": 0.09375,
		  "durationTicks": 96,
		  "midi": 32,
		  "name": "G#1",
		  "ticks": 243258,
		  "time": 237.556640625,
		  "velocity": 0.3937007874015748
		},
		{
		  "duration": 0.09375,
		  "durationTicks": 96,
		  "midi": 44,
		  "name": "G#2",
		  "ticks": 243354,
		  "time": 237.650390625,
		  "velocity": 0.3937007874015748
		},
		{
		  "duration": 0.09375,
		  "durationTicks": 96,
		  "midi": 60,
		  "name": "C4",
		  "ticks": 243434,
		  "time": 237.728515625,
		  "velocity": 0.3937007874015748
		},
		{
		  "duration": 0.09375,
		  "durationTicks": 96,
		  "midi": 32,
		  "name": "G#1",
		  "ticks": 243450,
		  "time": 237.744140625,
		  "velocity": 0.3937007874015748
		},
		{
		  "duration": 1.03125,
		  "durationTicks": 1056,
		  "midi": 66,
		  "name": "F#4",
		  "ticks": 243498,
		  "time": 237.791015625,
		  "velocity": 0.3937007874015748
		},
		{
		  "duration": 1.03125,
		  "durationTicks": 1056,
		  "midi": 75,
		  "name": "D#5",
		  "ticks": 243534,
		  "time": 237.826171875,
		  "velocity": 0.3937007874015748
		},
		{
		  "duration": 0.09375,
		  "durationTicks": 96,
		  "midi": 44,
		  "name": "G#2",
		  "ticks": 243546,
		  "time": 237.837890625,
		  "velocity": 0.3937007874015748
		},
		{
		  "duration": 0.09375,
		  "durationTicks": 96,
		  "midi": 32,
		  "name": "G#1",
		  "ticks": 243642,
		  "time": 237.931640625,
		  "velocity": 0.3937007874015748
		},
		{
		  "duration": 0.09375,
		  "durationTicks": 96,
		  "midi": 44,
		  "name": "G#2",
		  "ticks": 243738,
		  "time": 238.025390625,
		  "velocity": 0.3937007874015748
		},
		{
		  "duration": 0.09375,
		  "durationTicks": 96,
		  "midi": 32,
		  "name": "G#1",
		  "ticks": 243834,
		  "time": 238.119140625,
		  "velocity": 0.3937007874015748
		},
		{
		  "duration": 0.09375,
		  "durationTicks": 96,
		  "midi": 44,
		  "name": "G#2",
		  "ticks": 243930,
		  "time": 238.212890625,
		  "velocity": 0.3937007874015748
		},
		{
		  "duration": 0.09375,
		  "durationTicks": 96,
		  "midi": 32,
		  "name": "G#1",
		  "ticks": 244026,
		  "time": 238.306640625,
		  "velocity": 0.3937007874015748
		},
		{
		  "duration": 0.09375,
		  "durationTicks": 96,
		  "midi": 44,
		  "name": "G#2",
		  "ticks": 244122,
		  "time": 238.400390625,
		  "velocity": 0.3937007874015748
		},
		{
		  "duration": 0.09375,
		  "durationTicks": 96,
		  "midi": 32,
		  "name": "G#1",
		  "ticks": 244218,
		  "time": 238.494140625,
		  "velocity": 0.3937007874015748
		},
		{
		  "duration": 0.09375,
		  "durationTicks": 96,
		  "midi": 44,
		  "name": "G#2",
		  "ticks": 244314,
		  "time": 238.587890625,
		  "velocity": 0.3937007874015748
		},
		{
		  "duration": 0.09375,
		  "durationTicks": 96,
		  "midi": 32,
		  "name": "G#1",
		  "ticks": 244410,
		  "time": 238.681640625,
		  "velocity": 0.3937007874015748
		},
		{
		  "duration": 0.09375,
		  "durationTicks": 96,
		  "midi": 44,
		  "name": "G#2",
		  "ticks": 244506,
		  "time": 238.775390625,
		  "velocity": 0.3937007874015748
		},
		{
		  "duration": 0.375,
		  "durationTicks": 384,
		  "midi": 73,
		  "name": "C#5",
		  "ticks": 244602,
		  "time": 238.869140625,
		  "velocity": 0.3937007874015748
		},
		{
		  "duration": 0.375,
		  "durationTicks": 384,
		  "midi": 61,
		  "name": "C#4",
		  "ticks": 244602,
		  "time": 238.869140625,
		  "velocity": 0.3937007874015748
		},
		{
		  "duration": 0.375,
		  "durationTicks": 384,
		  "midi": 64,
		  "name": "E4",
		  "ticks": 244602,
		  "time": 238.869140625,
		  "velocity": 0.3937007874015748
		},
		{
		  "duration": 0.09375,
		  "durationTicks": 96,
		  "midi": 32,
		  "name": "G#1",
		  "ticks": 244602,
		  "time": 238.869140625,
		  "velocity": 0.3937007874015748
		},
		{
		  "duration": 0.09375,
		  "durationTicks": 96,
		  "midi": 44,
		  "name": "G#2",
		  "ticks": 244698,
		  "time": 238.962890625,
		  "velocity": 0.3937007874015748
		},
		{
		  "duration": 0.09375,
		  "durationTicks": 96,
		  "midi": 32,
		  "name": "G#1",
		  "ticks": 244794,
		  "time": 239.056640625,
		  "velocity": 0.3937007874015748
		},
		{
		  "duration": 0.09375,
		  "durationTicks": 96,
		  "midi": 44,
		  "name": "G#2",
		  "ticks": 244890,
		  "time": 239.150390625,
		  "velocity": 0.3937007874015748
		},
		{
		  "duration": 0.28125,
		  "durationTicks": 288,
		  "midi": 72,
		  "name": "C5",
		  "ticks": 244986,
		  "time": 239.244140625,
		  "velocity": 0.3937007874015748
		},
		{
		  "duration": 0.28125,
		  "durationTicks": 288,
		  "midi": 66,
		  "name": "F#4",
		  "ticks": 244986,
		  "time": 239.244140625,
		  "velocity": 0.3937007874015748
		},
		{
		  "duration": 0.28125,
		  "durationTicks": 288,
		  "midi": 63,
		  "name": "D#4",
		  "ticks": 244986,
		  "time": 239.244140625,
		  "velocity": 0.3937007874015748
		},
		{
		  "duration": 0.09375,
		  "durationTicks": 96,
		  "midi": 32,
		  "name": "G#1",
		  "ticks": 244990,
		  "time": 239.248046875,
		  "velocity": 0.3937007874015748
		},
		{
		  "duration": 0.09375,
		  "durationTicks": 96,
		  "midi": 44,
		  "name": "G#2",
		  "ticks": 245082,
		  "time": 239.337890625,
		  "velocity": 0.3937007874015748
		},
		{
		  "duration": 0.09375,
		  "durationTicks": 96,
		  "midi": 32,
		  "name": "G#1",
		  "ticks": 245178,
		  "time": 239.431640625,
		  "velocity": 0.3937007874015748
		},
		{
		  "duration": 0.09375,
		  "durationTicks": 96,
		  "midi": 44,
		  "name": "G#2",
		  "ticks": 245274,
		  "time": 239.525390625,
		  "velocity": 0.3937007874015748
		},
		{
		  "duration": 0.28125,
		  "durationTicks": 288,
		  "midi": 72,
		  "name": "C5",
		  "ticks": 245354,
		  "time": 239.603515625,
		  "velocity": 0.3937007874015748
		},
		{
		  "duration": 0.28125,
		  "durationTicks": 288,
		  "midi": 66,
		  "name": "F#4",
		  "ticks": 245354,
		  "time": 239.603515625,
		  "velocity": 0.3937007874015748
		},
		{
		  "duration": 0.28125,
		  "durationTicks": 288,
		  "midi": 63,
		  "name": "D#4",
		  "ticks": 245354,
		  "time": 239.603515625,
		  "velocity": 0.3937007874015748
		},
		{
		  "duration": 0.09375,
		  "durationTicks": 96,
		  "midi": 32,
		  "name": "G#1",
		  "ticks": 245370,
		  "time": 239.619140625,
		  "velocity": 0.3937007874015748
		},
		{
		  "duration": 0.09375,
		  "durationTicks": 96,
		  "midi": 44,
		  "name": "G#2",
		  "ticks": 245466,
		  "time": 239.712890625,
		  "velocity": 0.3937007874015748
		},
		{
		  "duration": 0.09375,
		  "durationTicks": 96,
		  "midi": 32,
		  "name": "G#1",
		  "ticks": 245562,
		  "time": 239.806640625,
		  "velocity": 0.3937007874015748
		},
		{
		  "duration": 0.09375,
		  "durationTicks": 96,
		  "midi": 44,
		  "name": "G#2",
		  "ticks": 245658,
		  "time": 239.900390625,
		  "velocity": 0.3937007874015748
		},
		{
		  "duration": 0.28125,
		  "durationTicks": 288,
		  "midi": 61,
		  "name": "C#4",
		  "ticks": 245738,
		  "time": 239.978515625,
		  "velocity": 0.3937007874015748
		},
		{
		  "duration": 0.28125,
		  "durationTicks": 288,
		  "midi": 73,
		  "name": "C#5",
		  "ticks": 245738,
		  "time": 239.978515625,
		  "velocity": 0.3937007874015748
		},
		{
		  "duration": 0.28125,
		  "durationTicks": 288,
		  "midi": 64,
		  "name": "E4",
		  "ticks": 245738,
		  "time": 239.978515625,
		  "velocity": 0.3937007874015748
		},
		{
		  "duration": 0.09375,
		  "durationTicks": 96,
		  "midi": 32,
		  "name": "G#1",
		  "ticks": 245754,
		  "time": 239.994140625,
		  "velocity": 0.3937007874015748
		},
		{
		  "duration": 0.09375,
		  "durationTicks": 96,
		  "midi": 44,
		  "name": "G#2",
		  "ticks": 245850,
		  "time": 240.087890625,
		  "velocity": 0.3937007874015748
		},
		{
		  "duration": 0.09375,
		  "durationTicks": 96,
		  "midi": 32,
		  "name": "G#1",
		  "ticks": 245946,
		  "time": 240.181640625,
		  "velocity": 0.3937007874015748
		},
		{
		  "duration": 0.09375,
		  "durationTicks": 96,
		  "midi": 44,
		  "name": "G#2",
		  "ticks": 246042,
		  "time": 240.275390625,
		  "velocity": 0.3937007874015748
		},
		{
		  "duration": 0.28125,
		  "durationTicks": 288,
		  "midi": 61,
		  "name": "C#4",
		  "ticks": 246122,
		  "time": 240.353515625,
		  "velocity": 0.3937007874015748
		},
		{
		  "duration": 0.28125,
		  "durationTicks": 288,
		  "midi": 73,
		  "name": "C#5",
		  "ticks": 246122,
		  "time": 240.353515625,
		  "velocity": 0.3937007874015748
		},
		{
		  "duration": 0.28125,
		  "durationTicks": 288,
		  "midi": 64,
		  "name": "E4",
		  "ticks": 246122,
		  "time": 240.353515625,
		  "velocity": 0.3937007874015748
		},
		{
		  "duration": 0.09375,
		  "durationTicks": 96,
		  "midi": 32,
		  "name": "G#1",
		  "ticks": 246138,
		  "time": 240.369140625,
		  "velocity": 0.3937007874015748
		},
		{
		  "duration": 0.09375,
		  "durationTicks": 96,
		  "midi": 44,
		  "name": "G#2",
		  "ticks": 246234,
		  "time": 240.462890625,
		  "velocity": 0.3937007874015748
		},
		{
		  "duration": 0.09375,
		  "durationTicks": 96,
		  "midi": 32,
		  "name": "G#1",
		  "ticks": 246330,
		  "time": 240.556640625,
		  "velocity": 0.3937007874015748
		},
		{
		  "duration": 0.09375,
		  "durationTicks": 96,
		  "midi": 44,
		  "name": "G#2",
		  "ticks": 246426,
		  "time": 240.650390625,
		  "velocity": 0.3937007874015748
		},
		{
		  "duration": 0.09375,
		  "durationTicks": 96,
		  "midi": 60,
		  "name": "C4",
		  "ticks": 246506,
		  "time": 240.728515625,
		  "velocity": 0.3937007874015748
		},
		{
		  "duration": 0.09375,
		  "durationTicks": 96,
		  "midi": 32,
		  "name": "G#1",
		  "ticks": 246522,
		  "time": 240.744140625,
		  "velocity": 0.3937007874015748
		},
		{
		  "duration": 1.03125,
		  "durationTicks": 1056,
		  "midi": 66,
		  "name": "F#4",
		  "ticks": 246570,
		  "time": 240.791015625,
		  "velocity": 0.3937007874015748
		},
		{
		  "duration": 1.03125,
		  "durationTicks": 1056,
		  "midi": 75,
		  "name": "D#5",
		  "ticks": 246606,
		  "time": 240.826171875,
		  "velocity": 0.3937007874015748
		},
		{
		  "duration": 0.09375,
		  "durationTicks": 96,
		  "midi": 44,
		  "name": "G#2",
		  "ticks": 246618,
		  "time": 240.837890625,
		  "velocity": 0.3937007874015748
		},
		{
		  "duration": 0.09375,
		  "durationTicks": 96,
		  "midi": 32,
		  "name": "G#1",
		  "ticks": 246714,
		  "time": 240.931640625,
		  "velocity": 0.3937007874015748
		},
		{
		  "duration": 0.09375,
		  "durationTicks": 96,
		  "midi": 44,
		  "name": "G#2",
		  "ticks": 246810,
		  "time": 241.025390625,
		  "velocity": 0.3937007874015748
		},
		{
		  "duration": 0.09375,
		  "durationTicks": 96,
		  "midi": 32,
		  "name": "G#1",
		  "ticks": 246906,
		  "time": 241.119140625,
		  "velocity": 0.3937007874015748
		},
		{
		  "duration": 0.09375,
		  "durationTicks": 96,
		  "midi": 44,
		  "name": "G#2",
		  "ticks": 247002,
		  "time": 241.212890625,
		  "velocity": 0.3937007874015748
		},
		{
		  "duration": 0.09375,
		  "durationTicks": 96,
		  "midi": 32,
		  "name": "G#1",
		  "ticks": 247098,
		  "time": 241.306640625,
		  "velocity": 0.3937007874015748
		},
		{
		  "duration": 0.09375,
		  "durationTicks": 96,
		  "midi": 44,
		  "name": "G#2",
		  "ticks": 247194,
		  "time": 241.400390625,
		  "velocity": 0.3937007874015748
		},
		{
		  "duration": 0.09375,
		  "durationTicks": 96,
		  "midi": 32,
		  "name": "G#1",
		  "ticks": 247290,
		  "time": 241.494140625,
		  "velocity": 0.3937007874015748
		},
		{
		  "duration": 0.09375,
		  "durationTicks": 96,
		  "midi": 44,
		  "name": "G#2",
		  "ticks": 247386,
		  "time": 241.587890625,
		  "velocity": 0.3937007874015748
		},
		{
		  "duration": 0.09375,
		  "durationTicks": 96,
		  "midi": 32,
		  "name": "G#1",
		  "ticks": 247482,
		  "time": 241.681640625,
		  "velocity": 0.3937007874015748
		},
		{
		  "duration": 0.09375,
		  "durationTicks": 96,
		  "midi": 44,
		  "name": "G#2",
		  "ticks": 247578,
		  "time": 241.775390625,
		  "velocity": 0.3937007874015748
		},
		{
		  "duration": 0.1875,
		  "durationTicks": 192,
		  "midi": 64,
		  "name": "E4",
		  "ticks": 247674,
		  "time": 241.869140625,
		  "velocity": 0.3937007874015748
		},
		{
		  "duration": 0.1875,
		  "durationTicks": 192,
		  "midi": 61,
		  "name": "C#4",
		  "ticks": 247674,
		  "time": 241.869140625,
		  "velocity": 0.3937007874015748
		},
		{
		  "duration": 0.09375,
		  "durationTicks": 96,
		  "midi": 32,
		  "name": "G#1",
		  "ticks": 247674,
		  "time": 241.869140625,
		  "velocity": 0.3937007874015748
		},
		{
		  "duration": 0.09375,
		  "durationTicks": 96,
		  "midi": 44,
		  "name": "G#2",
		  "ticks": 247770,
		  "time": 241.962890625,
		  "velocity": 0.3937007874015748
		},
		{
		  "duration": 0.1875,
		  "durationTicks": 192,
		  "midi": 73,
		  "name": "C#5",
		  "ticks": 247850,
		  "time": 242.041015625,
		  "velocity": 0.3937007874015748
		},
		{
		  "duration": 0.09375,
		  "durationTicks": 96,
		  "midi": 32,
		  "name": "G#1",
		  "ticks": 247866,
		  "time": 242.056640625,
		  "velocity": 0.3937007874015748
		},
		{
		  "duration": 0.09375,
		  "durationTicks": 96,
		  "midi": 44,
		  "name": "G#2",
		  "ticks": 247962,
		  "time": 242.150390625,
		  "velocity": 0.3937007874015748
		},
		{
		  "duration": 0.1875,
		  "durationTicks": 192,
		  "midi": 63,
		  "name": "D#4",
		  "ticks": 248042,
		  "time": 242.228515625,
		  "velocity": 0.3937007874015748
		},
		{
		  "duration": 0.1875,
		  "durationTicks": 192,
		  "midi": 66,
		  "name": "F#4",
		  "ticks": 248042,
		  "time": 242.228515625,
		  "velocity": 0.3937007874015748
		},
		{
		  "duration": 0.09375,
		  "durationTicks": 96,
		  "midi": 32,
		  "name": "G#1",
		  "ticks": 248058,
		  "time": 242.244140625,
		  "velocity": 0.3937007874015748
		},
		{
		  "duration": 0.09375,
		  "durationTicks": 96,
		  "midi": 44,
		  "name": "G#2",
		  "ticks": 248154,
		  "time": 242.337890625,
		  "velocity": 0.3937007874015748
		},
		{
		  "duration": 0.1875,
		  "durationTicks": 192,
		  "midi": 72,
		  "name": "C5",
		  "ticks": 248234,
		  "time": 242.416015625,
		  "velocity": 0.3937007874015748
		},
		{
		  "duration": 0.09375,
		  "durationTicks": 96,
		  "midi": 32,
		  "name": "G#1",
		  "ticks": 248250,
		  "time": 242.431640625,
		  "velocity": 0.3937007874015748
		},
		{
		  "duration": 0.09375,
		  "durationTicks": 96,
		  "midi": 44,
		  "name": "G#2",
		  "ticks": 248346,
		  "time": 242.525390625,
		  "velocity": 0.3937007874015748
		},
		{
		  "duration": 0.1875,
		  "durationTicks": 192,
		  "midi": 63,
		  "name": "D#4",
		  "ticks": 248426,
		  "time": 242.603515625,
		  "velocity": 0.3937007874015748
		},
		{
		  "duration": 0.1875,
		  "durationTicks": 192,
		  "midi": 66,
		  "name": "F#4",
		  "ticks": 248426,
		  "time": 242.603515625,
		  "velocity": 0.3937007874015748
		},
		{
		  "duration": 0.09375,
		  "durationTicks": 96,
		  "midi": 32,
		  "name": "G#1",
		  "ticks": 248442,
		  "time": 242.619140625,
		  "velocity": 0.3937007874015748
		},
		{
		  "duration": 0.09375,
		  "durationTicks": 96,
		  "midi": 44,
		  "name": "G#2",
		  "ticks": 248538,
		  "time": 242.712890625,
		  "velocity": 0.3937007874015748
		},
		{
		  "duration": 0.1875,
		  "durationTicks": 192,
		  "midi": 72,
		  "name": "C5",
		  "ticks": 248618,
		  "time": 242.791015625,
		  "velocity": 0.3937007874015748
		},
		{
		  "duration": 0.09375,
		  "durationTicks": 96,
		  "midi": 32,
		  "name": "G#1",
		  "ticks": 248634,
		  "time": 242.806640625,
		  "velocity": 0.3937007874015748
		},
		{
		  "duration": 0.09375,
		  "durationTicks": 96,
		  "midi": 44,
		  "name": "G#2",
		  "ticks": 248730,
		  "time": 242.900390625,
		  "velocity": 0.3937007874015748
		},
		{
		  "duration": 0.1875,
		  "durationTicks": 192,
		  "midi": 64,
		  "name": "E4",
		  "ticks": 248810,
		  "time": 242.978515625,
		  "velocity": 0.3937007874015748
		},
		{
		  "duration": 0.1875,
		  "durationTicks": 192,
		  "midi": 61,
		  "name": "C#4",
		  "ticks": 248810,
		  "time": 242.978515625,
		  "velocity": 0.3937007874015748
		},
		{
		  "duration": 0.09375,
		  "durationTicks": 96,
		  "midi": 32,
		  "name": "G#1",
		  "ticks": 248826,
		  "time": 242.994140625,
		  "velocity": 0.3937007874015748
		},
		{
		  "duration": 0.09375,
		  "durationTicks": 96,
		  "midi": 44,
		  "name": "G#2",
		  "ticks": 248922,
		  "time": 243.087890625,
		  "velocity": 0.3937007874015748
		},
		{
		  "duration": 0.1875,
		  "durationTicks": 192,
		  "midi": 73,
		  "name": "C#5",
		  "ticks": 249002,
		  "time": 243.166015625,
		  "velocity": 0.3937007874015748
		},
		{
		  "duration": 0.09375,
		  "durationTicks": 96,
		  "midi": 32,
		  "name": "G#1",
		  "ticks": 249018,
		  "time": 243.181640625,
		  "velocity": 0.3937007874015748
		},
		{
		  "duration": 0.09375,
		  "durationTicks": 96,
		  "midi": 44,
		  "name": "G#2",
		  "ticks": 249114,
		  "time": 243.275390625,
		  "velocity": 0.3937007874015748
		},
		{
		  "duration": 0.1875,
		  "durationTicks": 192,
		  "midi": 61,
		  "name": "C#4",
		  "ticks": 249194,
		  "time": 243.353515625,
		  "velocity": 0.3937007874015748
		},
		{
		  "duration": 0.1875,
		  "durationTicks": 192,
		  "midi": 64,
		  "name": "E4",
		  "ticks": 249194,
		  "time": 243.353515625,
		  "velocity": 0.3937007874015748
		},
		{
		  "duration": 0.09375,
		  "durationTicks": 96,
		  "midi": 32,
		  "name": "G#1",
		  "ticks": 249210,
		  "time": 243.369140625,
		  "velocity": 0.3937007874015748
		},
		{
		  "duration": 0.09375,
		  "durationTicks": 96,
		  "midi": 44,
		  "name": "G#2",
		  "ticks": 249306,
		  "time": 243.462890625,
		  "velocity": 0.3937007874015748
		},
		{
		  "duration": 0.1875,
		  "durationTicks": 192,
		  "midi": 73,
		  "name": "C#5",
		  "ticks": 249386,
		  "time": 243.541015625,
		  "velocity": 0.3937007874015748
		},
		{
		  "duration": 0.09375,
		  "durationTicks": 96,
		  "midi": 32,
		  "name": "G#1",
		  "ticks": 249402,
		  "time": 243.556640625,
		  "velocity": 0.3937007874015748
		},
		{
		  "duration": 0.09375,
		  "durationTicks": 96,
		  "midi": 44,
		  "name": "G#2",
		  "ticks": 249498,
		  "time": 243.650390625,
		  "velocity": 0.3937007874015748
		},
		{
		  "duration": 0.1875,
		  "durationTicks": 192,
		  "midi": 66,
		  "name": "F#4",
		  "ticks": 249578,
		  "time": 243.728515625,
		  "velocity": 0.3937007874015748
		},
		{
		  "duration": 0.1875,
		  "durationTicks": 192,
		  "midi": 60,
		  "name": "C4",
		  "ticks": 249578,
		  "time": 243.728515625,
		  "velocity": 0.3937007874015748
		},
		{
		  "duration": 0.09375,
		  "durationTicks": 96,
		  "midi": 32,
		  "name": "G#1",
		  "ticks": 249594,
		  "time": 243.744140625,
		  "velocity": 0.3937007874015748
		},
		{
		  "duration": 0.09375,
		  "durationTicks": 96,
		  "midi": 44,
		  "name": "G#2",
		  "ticks": 249690,
		  "time": 243.837890625,
		  "velocity": 0.3937007874015748
		},
		{
		  "duration": 0.1875,
		  "durationTicks": 192,
		  "midi": 75,
		  "name": "D#5",
		  "ticks": 249770,
		  "time": 243.916015625,
		  "velocity": 0.3937007874015748
		},
		{
		  "duration": 0.09375,
		  "durationTicks": 96,
		  "midi": 32,
		  "name": "G#1",
		  "ticks": 249786,
		  "time": 243.931640625,
		  "velocity": 0.3937007874015748
		},
		{
		  "duration": 0.09375,
		  "durationTicks": 96,
		  "midi": 44,
		  "name": "G#2",
		  "ticks": 249882,
		  "time": 244.025390625,
		  "velocity": 0.3937007874015748
		},
		{
		  "duration": 0.1875,
		  "durationTicks": 192,
		  "midi": 60,
		  "name": "C4",
		  "ticks": 249962,
		  "time": 244.103515625,
		  "velocity": 0.3937007874015748
		},
		{
		  "duration": 0.1875,
		  "durationTicks": 192,
		  "midi": 66,
		  "name": "F#4",
		  "ticks": 249962,
		  "time": 244.103515625,
		  "velocity": 0.3937007874015748
		},
		{
		  "duration": 0.09375,
		  "durationTicks": 96,
		  "midi": 32,
		  "name": "G#1",
		  "ticks": 249978,
		  "time": 244.119140625,
		  "velocity": 0.3937007874015748
		},
		{
		  "duration": 0.09375,
		  "durationTicks": 96,
		  "midi": 44,
		  "name": "G#2",
		  "ticks": 250074,
		  "time": 244.212890625,
		  "velocity": 0.3937007874015748
		},
		{
		  "duration": 0.1875,
		  "durationTicks": 192,
		  "midi": 75,
		  "name": "D#5",
		  "ticks": 250154,
		  "time": 244.291015625,
		  "velocity": 0.3937007874015748
		},
		{
		  "duration": 0.09375,
		  "durationTicks": 96,
		  "midi": 32,
		  "name": "G#1",
		  "ticks": 250170,
		  "time": 244.306640625,
		  "velocity": 0.3937007874015748
		},
		{
		  "duration": 0.09375,
		  "durationTicks": 96,
		  "midi": 44,
		  "name": "G#2",
		  "ticks": 250266,
		  "time": 244.400390625,
		  "velocity": 0.3937007874015748
		},
		{
		  "duration": 0.1875,
		  "durationTicks": 192,
		  "midi": 61,
		  "name": "C#4",
		  "ticks": 250350,
		  "time": 244.482421875,
		  "velocity": 0.3937007874015748
		},
		{
		  "duration": 0.1875,
		  "durationTicks": 192,
		  "midi": 64,
		  "name": "E4",
		  "ticks": 250350,
		  "time": 244.482421875,
		  "velocity": 0.3937007874015748
		},
		{
		  "duration": 0.09375,
		  "durationTicks": 96,
		  "midi": 33,
		  "name": "A1",
		  "ticks": 250350,
		  "time": 244.482421875,
		  "velocity": 0.3937007874015748
		},
		{
		  "duration": 0.09375,
		  "durationTicks": 96,
		  "midi": 45,
		  "name": "A2",
		  "ticks": 250446,
		  "time": 244.576171875,
		  "velocity": 0.3937007874015748
		},
		{
		  "duration": 0.1875,
		  "durationTicks": 192,
		  "midi": 73,
		  "name": "C#5",
		  "ticks": 250538,
		  "time": 244.666015625,
		  "velocity": 0.3937007874015748
		},
		{
		  "duration": 0.09375,
		  "durationTicks": 96,
		  "midi": 33,
		  "name": "A1",
		  "ticks": 250542,
		  "time": 244.669921875,
		  "velocity": 0.3937007874015748
		},
		{
		  "duration": 0.09375,
		  "durationTicks": 96,
		  "midi": 45,
		  "name": "A2",
		  "ticks": 250638,
		  "time": 244.763671875,
		  "velocity": 0.3937007874015748
		},
		{
		  "duration": 0.1875,
		  "durationTicks": 192,
		  "midi": 64,
		  "name": "E4",
		  "ticks": 250730,
		  "time": 244.853515625,
		  "velocity": 0.3937007874015748
		},
		{
		  "duration": 0.1875,
		  "durationTicks": 192,
		  "midi": 61,
		  "name": "C#4",
		  "ticks": 250730,
		  "time": 244.853515625,
		  "velocity": 0.3937007874015748
		},
		{
		  "duration": 0.09375,
		  "durationTicks": 96,
		  "midi": 33,
		  "name": "A1",
		  "ticks": 250734,
		  "time": 244.857421875,
		  "velocity": 0.3937007874015748
		},
		{
		  "duration": 0.09375,
		  "durationTicks": 96,
		  "midi": 45,
		  "name": "A2",
		  "ticks": 250826,
		  "time": 244.947265625,
		  "velocity": 0.3937007874015748
		},
		{
		  "duration": 0.1875,
		  "durationTicks": 192,
		  "midi": 73,
		  "name": "C#5",
		  "ticks": 250922,
		  "time": 245.041015625,
		  "velocity": 0.3937007874015748
		},
		{
		  "duration": 0.09375,
		  "durationTicks": 96,
		  "midi": 33,
		  "name": "A1",
		  "ticks": 250922,
		  "time": 245.041015625,
		  "velocity": 0.3937007874015748
		},
		{
		  "duration": 0.09375,
		  "durationTicks": 96,
		  "midi": 45,
		  "name": "A2",
		  "ticks": 251018,
		  "time": 245.134765625,
		  "velocity": 0.3937007874015748
		},
		{
		  "duration": 1.5,
		  "durationTicks": 1536,
		  "midi": 69,
		  "name": "A4",
		  "ticks": 251106,
		  "time": 245.220703125,
		  "velocity": 0.3937007874015748
		},
		{
		  "duration": 1.5,
		  "durationTicks": 1536,
		  "midi": 57,
		  "name": "A3",
		  "ticks": 251106,
		  "time": 245.220703125,
		  "velocity": 0.3937007874015748
		},
		{
		  "duration": 1.5,
		  "durationTicks": 1536,
		  "midi": 61,
		  "name": "C#4",
		  "ticks": 251106,
		  "time": 245.220703125,
		  "velocity": 0.3937007874015748
		},
		{
		  "duration": 1.5,
		  "durationTicks": 1536,
		  "midi": 63,
		  "name": "D#4",
		  "ticks": 251106,
		  "time": 245.220703125,
		  "velocity": 0.3937007874015748
		},
		{
		  "duration": 1.5,
		  "durationTicks": 1536,
		  "midi": 30,
		  "name": "F#1",
		  "ticks": 251114,
		  "time": 245.228515625,
		  "velocity": 0.3937007874015748
		},
		{
		  "duration": 1.5,
		  "durationTicks": 1536,
		  "midi": 42,
		  "name": "F#2",
		  "ticks": 251114,
		  "time": 245.228515625,
		  "velocity": 0.3937007874015748
		},
		{
		  "duration": 1.59375,
		  "durationTicks": 1632,
		  "midi": 60,
		  "name": "C4",
		  "ticks": 252666,
		  "time": 246.744140625,
		  "velocity": 0.3937007874015748
		},
		{
		  "duration": 1.59375,
		  "durationTicks": 1632,
		  "midi": 63,
		  "name": "D#4",
		  "ticks": 252666,
		  "time": 246.744140625,
		  "velocity": 0.3937007874015748
		},
		{
		  "duration": 1.59375,
		  "durationTicks": 1632,
		  "midi": 56,
		  "name": "G#3",
		  "ticks": 252666,
		  "time": 246.744140625,
		  "velocity": 0.3937007874015748
		},
		{
		  "duration": 1.59375,
		  "durationTicks": 1632,
		  "midi": 68,
		  "name": "G#4",
		  "ticks": 252666,
		  "time": 246.744140625,
		  "velocity": 0.3937007874015748
		},
		{
		  "duration": 1.5,
		  "durationTicks": 1536,
		  "midi": 32,
		  "name": "G#1",
		  "ticks": 252670,
		  "time": 246.748046875,
		  "velocity": 0.3937007874015748
		},
		{
		  "duration": 1.5,
		  "durationTicks": 1536,
		  "midi": 44,
		  "name": "G#2",
		  "ticks": 252670,
		  "time": 246.748046875,
		  "velocity": 0.3937007874015748
		},
		{
		  "duration": 0.09375,
		  "durationTicks": 96,
		  "midi": 37,
		  "name": "C#2",
		  "ticks": 254202,
		  "time": 248.244140625,
		  "velocity": 0.3937007874015748
		},
		{
		  "duration": 0.09375,
		  "durationTicks": 96,
		  "midi": 44,
		  "name": "G#2",
		  "ticks": 254298,
		  "time": 248.337890625,
		  "velocity": 0.3937007874015748
		},
		{
		  "duration": 0.09375,
		  "durationTicks": 96,
		  "midi": 44,
		  "name": "G#2",
		  "ticks": 254390,
		  "time": 248.427734375,
		  "velocity": 0.3937007874015748
		},
		{
		  "duration": 0.09375,
		  "durationTicks": 96,
		  "midi": 49,
		  "name": "C#3",
		  "ticks": 254394,
		  "time": 248.431640625,
		  "velocity": 0.3937007874015748
		},
		{
		  "duration": 0.09375,
		  "durationTicks": 96,
		  "midi": 52,
		  "name": "E3",
		  "ticks": 254490,
		  "time": 248.525390625,
		  "velocity": 0.3937007874015748
		},
		{
		  "duration": 0.09375,
		  "durationTicks": 96,
		  "midi": 56,
		  "name": "G#3",
		  "ticks": 254586,
		  "time": 248.619140625,
		  "velocity": 0.3937007874015748
		},
		{
		  "duration": 0.09375,
		  "durationTicks": 96,
		  "midi": 37,
		  "name": "C#2",
		  "ticks": 254586,
		  "time": 248.619140625,
		  "velocity": 0.3937007874015748
		},
		{
		  "duration": 0.09375,
		  "durationTicks": 96,
		  "midi": 49,
		  "name": "C#3",
		  "ticks": 254682,
		  "time": 248.712890625,
		  "velocity": 0.3937007874015748
		},
		{
		  "duration": 0.09375,
		  "durationTicks": 96,
		  "midi": 52,
		  "name": "E3",
		  "ticks": 254778,
		  "time": 248.806640625,
		  "velocity": 0.3937007874015748
		},
		{
		  "duration": 0.09375,
		  "durationTicks": 96,
		  "midi": 44,
		  "name": "G#2",
		  "ticks": 254778,
		  "time": 248.806640625,
		  "velocity": 0.3937007874015748
		},
		{
		  "duration": 0.09375,
		  "durationTicks": 96,
		  "midi": 56,
		  "name": "G#3",
		  "ticks": 254874,
		  "time": 248.900390625,
		  "velocity": 0.3937007874015748
		},
		{
		  "duration": 0.09375,
		  "durationTicks": 96,
		  "midi": 61,
		  "name": "C#4",
		  "ticks": 254970,
		  "time": 248.994140625,
		  "velocity": 0.3937007874015748
		},
		{
		  "duration": 0.09375,
		  "durationTicks": 96,
		  "midi": 37,
		  "name": "C#2",
		  "ticks": 254970,
		  "time": 248.994140625,
		  "velocity": 0.3937007874015748
		},
		{
		  "duration": 0.09375,
		  "durationTicks": 96,
		  "midi": 52,
		  "name": "E3",
		  "ticks": 255066,
		  "time": 249.087890625,
		  "velocity": 0.3937007874015748
		},
		{
		  "duration": 0.09375,
		  "durationTicks": 96,
		  "midi": 56,
		  "name": "G#3",
		  "ticks": 255162,
		  "time": 249.181640625,
		  "velocity": 0.3937007874015748
		},
		{
		  "duration": 0.09375,
		  "durationTicks": 96,
		  "midi": 44,
		  "name": "G#2",
		  "ticks": 255162,
		  "time": 249.181640625,
		  "velocity": 0.3937007874015748
		},
		{
		  "duration": 0.09375,
		  "durationTicks": 96,
		  "midi": 61,
		  "name": "C#4",
		  "ticks": 255258,
		  "time": 249.275390625,
		  "velocity": 0.3937007874015748
		},
		{
		  "duration": 0.09375,
		  "durationTicks": 96,
		  "midi": 64,
		  "name": "E4",
		  "ticks": 255354,
		  "time": 249.369140625,
		  "velocity": 0.3937007874015748
		},
		{
		  "duration": 0.09375,
		  "durationTicks": 96,
		  "midi": 37,
		  "name": "C#2",
		  "ticks": 255354,
		  "time": 249.369140625,
		  "velocity": 0.3937007874015748
		},
		{
		  "duration": 0.09375,
		  "durationTicks": 96,
		  "midi": 56,
		  "name": "G#3",
		  "ticks": 255450,
		  "time": 249.462890625,
		  "velocity": 0.3937007874015748
		},
		{
		  "duration": 0.09375,
		  "durationTicks": 96,
		  "midi": 61,
		  "name": "C#4",
		  "ticks": 255546,
		  "time": 249.556640625,
		  "velocity": 0.3937007874015748
		},
		{
		  "duration": 0.09375,
		  "durationTicks": 96,
		  "midi": 44,
		  "name": "G#2",
		  "ticks": 255546,
		  "time": 249.556640625,
		  "velocity": 0.3937007874015748
		},
		{
		  "duration": 0.09375,
		  "durationTicks": 96,
		  "midi": 64,
		  "name": "E4",
		  "ticks": 255642,
		  "time": 249.650390625,
		  "velocity": 0.3937007874015748
		},
		{
		  "duration": 0.09375,
		  "durationTicks": 96,
		  "midi": 68,
		  "name": "G#4",
		  "ticks": 255738,
		  "time": 249.744140625,
		  "velocity": 0.3937007874015748
		},
		{
		  "duration": 0.09375,
		  "durationTicks": 96,
		  "midi": 37,
		  "name": "C#2",
		  "ticks": 255738,
		  "time": 249.744140625,
		  "velocity": 0.3937007874015748
		},
		{
		  "duration": 0.09375,
		  "durationTicks": 96,
		  "midi": 61,
		  "name": "C#4",
		  "ticks": 255834,
		  "time": 249.837890625,
		  "velocity": 0.3937007874015748
		},
		{
		  "duration": 0.09375,
		  "durationTicks": 96,
		  "midi": 64,
		  "name": "E4",
		  "ticks": 255930,
		  "time": 249.931640625,
		  "velocity": 0.3937007874015748
		},
		{
		  "duration": 0.09375,
		  "durationTicks": 96,
		  "midi": 44,
		  "name": "G#2",
		  "ticks": 255930,
		  "time": 249.931640625,
		  "velocity": 0.3937007874015748
		},
		{
		  "duration": 0.09375,
		  "durationTicks": 96,
		  "midi": 68,
		  "name": "G#4",
		  "ticks": 256026,
		  "time": 250.025390625,
		  "velocity": 0.3937007874015748
		},
		{
		  "duration": 0.09375,
		  "durationTicks": 96,
		  "midi": 73,
		  "name": "C#5",
		  "ticks": 256122,
		  "time": 250.119140625,
		  "velocity": 0.3937007874015748
		},
		{
		  "duration": 0.09375,
		  "durationTicks": 96,
		  "midi": 37,
		  "name": "C#2",
		  "ticks": 256122,
		  "time": 250.119140625,
		  "velocity": 0.3937007874015748
		},
		{
		  "duration": 0.09375,
		  "durationTicks": 96,
		  "midi": 64,
		  "name": "E4",
		  "ticks": 256218,
		  "time": 250.212890625,
		  "velocity": 0.3937007874015748
		},
		{
		  "duration": 0.09375,
		  "durationTicks": 96,
		  "midi": 68,
		  "name": "G#4",
		  "ticks": 256314,
		  "time": 250.306640625,
		  "velocity": 0.3937007874015748
		},
		{
		  "duration": 0.09375,
		  "durationTicks": 96,
		  "midi": 44,
		  "name": "G#2",
		  "ticks": 256314,
		  "time": 250.306640625,
		  "velocity": 0.3937007874015748
		},
		{
		  "duration": 0.09375,
		  "durationTicks": 96,
		  "midi": 73,
		  "name": "C#5",
		  "ticks": 256410,
		  "time": 250.400390625,
		  "velocity": 0.3937007874015748
		},
		{
		  "duration": 0.09375,
		  "durationTicks": 96,
		  "midi": 76,
		  "name": "E5",
		  "ticks": 256506,
		  "time": 250.494140625,
		  "velocity": 0.3937007874015748
		},
		{
		  "duration": 0.09375,
		  "durationTicks": 96,
		  "midi": 37,
		  "name": "C#2",
		  "ticks": 256506,
		  "time": 250.494140625,
		  "velocity": 0.3937007874015748
		},
		{
		  "duration": 0.09375,
		  "durationTicks": 96,
		  "midi": 68,
		  "name": "G#4",
		  "ticks": 256602,
		  "time": 250.587890625,
		  "velocity": 0.3937007874015748
		},
		{
		  "duration": 0.09375,
		  "durationTicks": 96,
		  "midi": 73,
		  "name": "C#5",
		  "ticks": 256698,
		  "time": 250.681640625,
		  "velocity": 0.3937007874015748
		},
		{
		  "duration": 0.09375,
		  "durationTicks": 96,
		  "midi": 44,
		  "name": "G#2",
		  "ticks": 256698,
		  "time": 250.681640625,
		  "velocity": 0.3937007874015748
		},
		{
		  "duration": 0.09375,
		  "durationTicks": 96,
		  "midi": 76,
		  "name": "E5",
		  "ticks": 256794,
		  "time": 250.775390625,
		  "velocity": 0.3937007874015748
		},
		{
		  "duration": 0.1875,
		  "durationTicks": 192,
		  "midi": 76,
		  "name": "E5",
		  "ticks": 256874,
		  "time": 250.853515625,
		  "velocity": 0.3937007874015748
		},
		{
		  "duration": 0.1875,
		  "durationTicks": 192,
		  "midi": 73,
		  "name": "C#5",
		  "ticks": 256874,
		  "time": 250.853515625,
		  "velocity": 0.3937007874015748
		},
		{
		  "duration": 0.1875,
		  "durationTicks": 192,
		  "midi": 68,
		  "name": "G#4",
		  "ticks": 256874,
		  "time": 250.853515625,
		  "velocity": 0.3937007874015748
		},
		{
		  "duration": 0.1875,
		  "durationTicks": 192,
		  "midi": 80,
		  "name": "G#5",
		  "ticks": 256874,
		  "time": 250.853515625,
		  "velocity": 0.3937007874015748
		},
		{
		  "duration": 0.1875,
		  "durationTicks": 192,
		  "midi": 49,
		  "name": "C#3",
		  "ticks": 256890,
		  "time": 250.869140625,
		  "velocity": 0.3937007874015748
		},
		{
		  "duration": 0.1875,
		  "durationTicks": 192,
		  "midi": 37,
		  "name": "C#2",
		  "ticks": 256890,
		  "time": 250.869140625,
		  "velocity": 0.3937007874015748
		},
		{
		  "duration": 0.1875,
		  "durationTicks": 192,
		  "midi": 68,
		  "name": "G#4",
		  "ticks": 257082,
		  "time": 251.056640625,
		  "velocity": 0.3937007874015748
		},
		{
		  "duration": 0.1875,
		  "durationTicks": 192,
		  "midi": 80,
		  "name": "G#5",
		  "ticks": 257082,
		  "time": 251.056640625,
		  "velocity": 0.3937007874015748
		},
		{
		  "duration": 0.1875,
		  "durationTicks": 192,
		  "midi": 76,
		  "name": "E5",
		  "ticks": 257082,
		  "time": 251.056640625,
		  "velocity": 0.3937007874015748
		},
		{
		  "duration": 0.1875,
		  "durationTicks": 192,
		  "midi": 73,
		  "name": "C#5",
		  "ticks": 257082,
		  "time": 251.056640625,
		  "velocity": 0.3937007874015748
		},
		{
		  "duration": 0.1875,
		  "durationTicks": 192,
		  "midi": 44,
		  "name": "G#2",
		  "ticks": 257082,
		  "time": 251.056640625,
		  "velocity": 0.3937007874015748
		},
		{
		  "duration": 0.09375,
		  "durationTicks": 96,
		  "midi": 36,
		  "name": "C2",
		  "ticks": 257274,
		  "time": 251.244140625,
		  "velocity": 0.3937007874015748
		},
		{
		  "duration": 0.09375,
		  "durationTicks": 96,
		  "midi": 44,
		  "name": "G#2",
		  "ticks": 257370,
		  "time": 251.337890625,
		  "velocity": 0.3937007874015748
		},
		{
		  "duration": 0.09375,
		  "durationTicks": 96,
		  "midi": 48,
		  "name": "C3",
		  "ticks": 257466,
		  "time": 251.431640625,
		  "velocity": 0.3937007874015748
		},
		{
		  "duration": 0.09375,
		  "durationTicks": 96,
		  "midi": 44,
		  "name": "G#2",
		  "ticks": 257466,
		  "time": 251.431640625,
		  "velocity": 0.3937007874015748
		},
		{
		  "duration": 0.09375,
		  "durationTicks": 96,
		  "midi": 51,
		  "name": "D#3",
		  "ticks": 257562,
		  "time": 251.525390625,
		  "velocity": 0.3937007874015748
		},
		{
		  "duration": 0.09375,
		  "durationTicks": 96,
		  "midi": 56,
		  "name": "G#3",
		  "ticks": 257658,
		  "time": 251.619140625,
		  "velocity": 0.3937007874015748
		},
		{
		  "duration": 0.09375,
		  "durationTicks": 96,
		  "midi": 36,
		  "name": "C2",
		  "ticks": 257658,
		  "time": 251.619140625,
		  "velocity": 0.3937007874015748
		},
		{
		  "duration": 0.09375,
		  "durationTicks": 96,
		  "midi": 48,
		  "name": "C3",
		  "ticks": 257754,
		  "time": 251.712890625,
		  "velocity": 0.3937007874015748
		},
		{
		  "duration": 0.09375,
		  "durationTicks": 96,
		  "midi": 51,
		  "name": "D#3",
		  "ticks": 257850,
		  "time": 251.806640625,
		  "velocity": 0.3937007874015748
		},
		{
		  "duration": 0.09375,
		  "durationTicks": 96,
		  "midi": 44,
		  "name": "G#2",
		  "ticks": 257850,
		  "time": 251.806640625,
		  "velocity": 0.3937007874015748
		},
		{
		  "duration": 0.09375,
		  "durationTicks": 96,
		  "midi": 56,
		  "name": "G#3",
		  "ticks": 257946,
		  "time": 251.900390625,
		  "velocity": 0.3937007874015748
		},
		{
		  "duration": 0.09375,
		  "durationTicks": 96,
		  "midi": 60,
		  "name": "C4",
		  "ticks": 258042,
		  "time": 251.994140625,
		  "velocity": 0.3937007874015748
		},
		{
		  "duration": 0.09375,
		  "durationTicks": 96,
		  "midi": 36,
		  "name": "C2",
		  "ticks": 258042,
		  "time": 251.994140625,
		  "velocity": 0.3937007874015748
		},
		{
		  "duration": 0.09375,
		  "durationTicks": 96,
		  "midi": 51,
		  "name": "D#3",
		  "ticks": 258138,
		  "time": 252.087890625,
		  "velocity": 0.3937007874015748
		},
		{
		  "duration": 0.09375,
		  "durationTicks": 96,
		  "midi": 56,
		  "name": "G#3",
		  "ticks": 258234,
		  "time": 252.181640625,
		  "velocity": 0.3937007874015748
		},
		{
		  "duration": 0.09375,
		  "durationTicks": 96,
		  "midi": 44,
		  "name": "G#2",
		  "ticks": 258234,
		  "time": 252.181640625,
		  "velocity": 0.3937007874015748
		},
		{
		  "duration": 0.09375,
		  "durationTicks": 96,
		  "midi": 60,
		  "name": "C4",
		  "ticks": 258330,
		  "time": 252.275390625,
		  "velocity": 0.3937007874015748
		},
		{
		  "duration": 0.09375,
		  "durationTicks": 96,
		  "midi": 63,
		  "name": "D#4",
		  "ticks": 258426,
		  "time": 252.369140625,
		  "velocity": 0.3937007874015748
		},
		{
		  "duration": 0.09375,
		  "durationTicks": 96,
		  "midi": 36,
		  "name": "C2",
		  "ticks": 258426,
		  "time": 252.369140625,
		  "velocity": 0.3937007874015748
		},
		{
		  "duration": 0.09375,
		  "durationTicks": 96,
		  "midi": 56,
		  "name": "G#3",
		  "ticks": 258522,
		  "time": 252.462890625,
		  "velocity": 0.3937007874015748
		},
		{
		  "duration": 0.09375,
		  "durationTicks": 96,
		  "midi": 60,
		  "name": "C4",
		  "ticks": 258618,
		  "time": 252.556640625,
		  "velocity": 0.3937007874015748
		},
		{
		  "duration": 0.09375,
		  "durationTicks": 96,
		  "midi": 44,
		  "name": "G#2",
		  "ticks": 258618,
		  "time": 252.556640625,
		  "velocity": 0.3937007874015748
		},
		{
		  "duration": 0.09375,
		  "durationTicks": 96,
		  "midi": 63,
		  "name": "D#4",
		  "ticks": 258714,
		  "time": 252.650390625,
		  "velocity": 0.3937007874015748
		},
		{
		  "duration": 0.09375,
		  "durationTicks": 96,
		  "midi": 68,
		  "name": "G#4",
		  "ticks": 258810,
		  "time": 252.744140625,
		  "velocity": 0.3937007874015748
		},
		{
		  "duration": 0.09375,
		  "durationTicks": 96,
		  "midi": 36,
		  "name": "C2",
		  "ticks": 258810,
		  "time": 252.744140625,
		  "velocity": 0.3937007874015748
		},
		{
		  "duration": 0.09375,
		  "durationTicks": 96,
		  "midi": 60,
		  "name": "C4",
		  "ticks": 258906,
		  "time": 252.837890625,
		  "velocity": 0.3937007874015748
		},
		{
		  "duration": 0.09375,
		  "durationTicks": 96,
		  "midi": 63,
		  "name": "D#4",
		  "ticks": 259002,
		  "time": 252.931640625,
		  "velocity": 0.3937007874015748
		},
		{
		  "duration": 0.09375,
		  "durationTicks": 96,
		  "midi": 44,
		  "name": "G#2",
		  "ticks": 259002,
		  "time": 252.931640625,
		  "velocity": 0.3937007874015748
		},
		{
		  "duration": 0.09375,
		  "durationTicks": 96,
		  "midi": 68,
		  "name": "G#4",
		  "ticks": 259098,
		  "time": 253.025390625,
		  "velocity": 0.3937007874015748
		},
		{
		  "duration": 0.09375,
		  "durationTicks": 96,
		  "midi": 72,
		  "name": "C5",
		  "ticks": 259194,
		  "time": 253.119140625,
		  "velocity": 0.3937007874015748
		},
		{
		  "duration": 0.09375,
		  "durationTicks": 96,
		  "midi": 36,
		  "name": "C2",
		  "ticks": 259194,
		  "time": 253.119140625,
		  "velocity": 0.3937007874015748
		},
		{
		  "duration": 0.09375,
		  "durationTicks": 96,
		  "midi": 63,
		  "name": "D#4",
		  "ticks": 259290,
		  "time": 253.212890625,
		  "velocity": 0.3937007874015748
		},
		{
		  "duration": 0.09375,
		  "durationTicks": 96,
		  "midi": 68,
		  "name": "G#4",
		  "ticks": 259386,
		  "time": 253.306640625,
		  "velocity": 0.3937007874015748
		},
		{
		  "duration": 0.09375,
		  "durationTicks": 96,
		  "midi": 44,
		  "name": "G#2",
		  "ticks": 259386,
		  "time": 253.306640625,
		  "velocity": 0.3937007874015748
		},
		{
		  "duration": 0.09375,
		  "durationTicks": 96,
		  "midi": 72,
		  "name": "C5",
		  "ticks": 259482,
		  "time": 253.400390625,
		  "velocity": 0.3937007874015748
		},
		{
		  "duration": 0.09375,
		  "durationTicks": 96,
		  "midi": 75,
		  "name": "D#5",
		  "ticks": 259578,
		  "time": 253.494140625,
		  "velocity": 0.3937007874015748
		},
		{
		  "duration": 0.09375,
		  "durationTicks": 96,
		  "midi": 36,
		  "name": "C2",
		  "ticks": 259578,
		  "time": 253.494140625,
		  "velocity": 0.3937007874015748
		},
		{
		  "duration": 0.09375,
		  "durationTicks": 96,
		  "midi": 68,
		  "name": "G#4",
		  "ticks": 259674,
		  "time": 253.587890625,
		  "velocity": 0.3937007874015748
		},
		{
		  "duration": 0.09375,
		  "durationTicks": 96,
		  "midi": 72,
		  "name": "C5",
		  "ticks": 259770,
		  "time": 253.681640625,
		  "velocity": 0.3937007874015748
		},
		{
		  "duration": 0.09375,
		  "durationTicks": 96,
		  "midi": 44,
		  "name": "G#2",
		  "ticks": 259770,
		  "time": 253.681640625,
		  "velocity": 0.3937007874015748
		},
		{
		  "duration": 0.09375,
		  "durationTicks": 96,
		  "midi": 75,
		  "name": "D#5",
		  "ticks": 259866,
		  "time": 253.775390625,
		  "velocity": 0.3937007874015748
		},
		{
		  "duration": 0.1875,
		  "durationTicks": 192,
		  "midi": 68,
		  "name": "G#4",
		  "ticks": 259946,
		  "time": 253.853515625,
		  "velocity": 0.3937007874015748
		},
		{
		  "duration": 0.1875,
		  "durationTicks": 192,
		  "midi": 72,
		  "name": "C5",
		  "ticks": 259946,
		  "time": 253.853515625,
		  "velocity": 0.3937007874015748
		},
		{
		  "duration": 0.1875,
		  "durationTicks": 192,
		  "midi": 75,
		  "name": "D#5",
		  "ticks": 259946,
		  "time": 253.853515625,
		  "velocity": 0.3937007874015748
		},
		{
		  "duration": 0.1875,
		  "durationTicks": 192,
		  "midi": 80,
		  "name": "G#5",
		  "ticks": 259946,
		  "time": 253.853515625,
		  "velocity": 0.3937007874015748
		},
		{
		  "duration": 0.1875,
		  "durationTicks": 192,
		  "midi": 36,
		  "name": "C2",
		  "ticks": 259962,
		  "time": 253.869140625,
		  "velocity": 0.3937007874015748
		},
		{
		  "duration": 0.1875,
		  "durationTicks": 192,
		  "midi": 48,
		  "name": "C3",
		  "ticks": 259962,
		  "time": 253.869140625,
		  "velocity": 0.3937007874015748
		},
		{
		  "duration": 0.1875,
		  "durationTicks": 192,
		  "midi": 80,
		  "name": "G#5",
		  "ticks": 260138,
		  "time": 254.041015625,
		  "velocity": 0.3937007874015748
		},
		{
		  "duration": 0.1875,
		  "durationTicks": 192,
		  "midi": 68,
		  "name": "G#4",
		  "ticks": 260138,
		  "time": 254.041015625,
		  "velocity": 0.3937007874015748
		},
		{
		  "duration": 0.1875,
		  "durationTicks": 192,
		  "midi": 72,
		  "name": "C5",
		  "ticks": 260138,
		  "time": 254.041015625,
		  "velocity": 0.3937007874015748
		},
		{
		  "duration": 0.1875,
		  "durationTicks": 192,
		  "midi": 75,
		  "name": "D#5",
		  "ticks": 260138,
		  "time": 254.041015625,
		  "velocity": 0.3937007874015748
		},
		{
		  "duration": 0.1875,
		  "durationTicks": 192,
		  "midi": 44,
		  "name": "G#2",
		  "ticks": 260154,
		  "time": 254.056640625,
		  "velocity": 0.3937007874015748
		},
		{
		  "duration": 0.09375,
		  "durationTicks": 96,
		  "midi": 35,
		  "name": "B1",
		  "ticks": 260330,
		  "time": 254.228515625,
		  "velocity": 0.3937007874015748
		},
		{
		  "duration": 0.09375,
		  "durationTicks": 96,
		  "midi": 49,
		  "name": "C#3",
		  "ticks": 260442,
		  "time": 254.337890625,
		  "velocity": 0.3937007874015748
		},
		{
		  "duration": 0.09375,
		  "durationTicks": 96,
		  "midi": 44,
		  "name": "G#2",
		  "ticks": 260522,
		  "time": 254.416015625,
		  "velocity": 0.3937007874015748
		},
		{
		  "duration": 0.09375,
		  "durationTicks": 96,
		  "midi": 53,
		  "name": "F3",
		  "ticks": 260538,
		  "time": 254.431640625,
		  "velocity": 0.3937007874015748
		},
		{
		  "duration": 0.09375,
		  "durationTicks": 96,
		  "midi": 56,
		  "name": "G#3",
		  "ticks": 260634,
		  "time": 254.525390625,
		  "velocity": 0.3937007874015748
		},
		{
		  "duration": 0.09375,
		  "durationTicks": 96,
		  "midi": 35,
		  "name": "B1",
		  "ticks": 260714,
		  "time": 254.603515625,
		  "velocity": 0.3937007874015748
		},
		{
		  "duration": 0.09375,
		  "durationTicks": 96,
		  "midi": 61,
		  "name": "C#4",
		  "ticks": 260730,
		  "time": 254.619140625,
		  "velocity": 0.3937007874015748
		},
		{
		  "duration": 0.09375,
		  "durationTicks": 96,
		  "midi": 53,
		  "name": "F3",
		  "ticks": 260826,
		  "time": 254.712890625,
		  "velocity": 0.3937007874015748
		},
		{
		  "duration": 0.09375,
		  "durationTicks": 96,
		  "midi": 44,
		  "name": "G#2",
		  "ticks": 260906,
		  "time": 254.791015625,
		  "velocity": 0.3937007874015748
		},
		{
		  "duration": 0.09375,
		  "durationTicks": 96,
		  "midi": 56,
		  "name": "G#3",
		  "ticks": 260922,
		  "time": 254.806640625,
		  "velocity": 0.3937007874015748
		},
		{
		  "duration": 0.09375,
		  "durationTicks": 96,
		  "midi": 61,
		  "name": "C#4",
		  "ticks": 261018,
		  "time": 254.900390625,
		  "velocity": 0.3937007874015748
		},
		{
		  "duration": 0.09375,
		  "durationTicks": 96,
		  "midi": 35,
		  "name": "B1",
		  "ticks": 261098,
		  "time": 254.978515625,
		  "velocity": 0.3937007874015748
		},
		{
		  "duration": 0.09375,
		  "durationTicks": 96,
		  "midi": 65,
		  "name": "F4",
		  "ticks": 261114,
		  "time": 254.994140625,
		  "velocity": 0.3937007874015748
		},
		{
		  "duration": 0.09375,
		  "durationTicks": 96,
		  "midi": 56,
		  "name": "G#3",
		  "ticks": 261210,
		  "time": 255.087890625,
		  "velocity": 0.3937007874015748
		},
		{
		  "duration": 0.09375,
		  "durationTicks": 96,
		  "midi": 44,
		  "name": "G#2",
		  "ticks": 261290,
		  "time": 255.166015625,
		  "velocity": 0.3937007874015748
		},
		{
		  "duration": 0.09375,
		  "durationTicks": 96,
		  "midi": 61,
		  "name": "C#4",
		  "ticks": 261306,
		  "time": 255.181640625,
		  "velocity": 0.3937007874015748
		},
		{
		  "duration": 0.09375,
		  "durationTicks": 96,
		  "midi": 65,
		  "name": "F4",
		  "ticks": 261402,
		  "time": 255.275390625,
		  "velocity": 0.3937007874015748
		},
		{
		  "duration": 0.09375,
		  "durationTicks": 96,
		  "midi": 35,
		  "name": "B1",
		  "ticks": 261482,
		  "time": 255.353515625,
		  "velocity": 0.3937007874015748
		},
		{
		  "duration": 0.09375,
		  "durationTicks": 96,
		  "midi": 68,
		  "name": "G#4",
		  "ticks": 261498,
		  "time": 255.369140625,
		  "velocity": 0.3937007874015748
		},
		{
		  "duration": 0.09375,
		  "durationTicks": 96,
		  "midi": 61,
		  "name": "C#4",
		  "ticks": 261594,
		  "time": 255.462890625,
		  "velocity": 0.3937007874015748
		},
		{
		  "duration": 0.09375,
		  "durationTicks": 96,
		  "midi": 44,
		  "name": "G#2",
		  "ticks": 261674,
		  "time": 255.541015625,
		  "velocity": 0.3937007874015748
		},
		{
		  "duration": 0.09375,
		  "durationTicks": 96,
		  "midi": 65,
		  "name": "F4",
		  "ticks": 261690,
		  "time": 255.556640625,
		  "velocity": 0.3937007874015748
		},
		{
		  "duration": 0.09375,
		  "durationTicks": 96,
		  "midi": 68,
		  "name": "G#4",
		  "ticks": 261786,
		  "time": 255.650390625,
		  "velocity": 0.3937007874015748
		},
		{
		  "duration": 0.09375,
		  "durationTicks": 96,
		  "midi": 35,
		  "name": "B1",
		  "ticks": 261866,
		  "time": 255.728515625,
		  "velocity": 0.3937007874015748
		},
		{
		  "duration": 0.09375,
		  "durationTicks": 96,
		  "midi": 73,
		  "name": "C#5",
		  "ticks": 261882,
		  "time": 255.744140625,
		  "velocity": 0.3937007874015748
		},
		{
		  "duration": 0.09375,
		  "durationTicks": 96,
		  "midi": 65,
		  "name": "F4",
		  "ticks": 261978,
		  "time": 255.837890625,
		  "velocity": 0.3937007874015748
		},
		{
		  "duration": 0.09375,
		  "durationTicks": 96,
		  "midi": 44,
		  "name": "G#2",
		  "ticks": 262058,
		  "time": 255.916015625,
		  "velocity": 0.3937007874015748
		},
		{
		  "duration": 0.09375,
		  "durationTicks": 96,
		  "midi": 68,
		  "name": "G#4",
		  "ticks": 262074,
		  "time": 255.931640625,
		  "velocity": 0.3937007874015748
		},
		{
		  "duration": 0.09375,
		  "durationTicks": 96,
		  "midi": 73,
		  "name": "C#5",
		  "ticks": 262170,
		  "time": 256.025390625,
		  "velocity": 0.3937007874015748
		},
		{
		  "duration": 0.09375,
		  "durationTicks": 96,
		  "midi": 35,
		  "name": "B1",
		  "ticks": 262250,
		  "time": 256.103515625,
		  "velocity": 0.3937007874015748
		},
		{
		  "duration": 0.09375,
		  "durationTicks": 96,
		  "midi": 77,
		  "name": "F5",
		  "ticks": 262266,
		  "time": 256.119140625,
		  "velocity": 0.3937007874015748
		},
		{
		  "duration": 0.09375,
		  "durationTicks": 96,
		  "midi": 68,
		  "name": "G#4",
		  "ticks": 262362,
		  "time": 256.212890625,
		  "velocity": 0.3937007874015748
		},
		{
		  "duration": 0.09375,
		  "durationTicks": 96,
		  "midi": 44,
		  "name": "G#2",
		  "ticks": 262442,
		  "time": 256.291015625,
		  "velocity": 0.3937007874015748
		},
		{
		  "duration": 0.09375,
		  "durationTicks": 96,
		  "midi": 73,
		  "name": "C#5",
		  "ticks": 262458,
		  "time": 256.306640625,
		  "velocity": 0.3937007874015748
		},
		{
		  "duration": 0.09375,
		  "durationTicks": 96,
		  "midi": 77,
		  "name": "F5",
		  "ticks": 262554,
		  "time": 256.400390625,
		  "velocity": 0.3937007874015748
		},
		{
		  "duration": 0.09375,
		  "durationTicks": 96,
		  "midi": 35,
		  "name": "B1",
		  "ticks": 262634,
		  "time": 256.478515625,
		  "velocity": 0.3937007874015748
		},
		{
		  "duration": 0.09375,
		  "durationTicks": 96,
		  "midi": 80,
		  "name": "G#5",
		  "ticks": 262650,
		  "time": 256.494140625,
		  "velocity": 0.3937007874015748
		},
		{
		  "duration": 0.09375,
		  "durationTicks": 96,
		  "midi": 73,
		  "name": "C#5",
		  "ticks": 262746,
		  "time": 256.587890625,
		  "velocity": 0.3937007874015748
		},
		{
		  "duration": 0.09375,
		  "durationTicks": 96,
		  "midi": 44,
		  "name": "G#2",
		  "ticks": 262826,
		  "time": 256.666015625,
		  "velocity": 0.3937007874015748
		},
		{
		  "duration": 0.09375,
		  "durationTicks": 96,
		  "midi": 77,
		  "name": "F5",
		  "ticks": 262842,
		  "time": 256.681640625,
		  "velocity": 0.3937007874015748
		},
		{
		  "duration": 0.09375,
		  "durationTicks": 96,
		  "midi": 80,
		  "name": "G#5",
		  "ticks": 262938,
		  "time": 256.775390625,
		  "velocity": 0.3937007874015748
		},
		{
		  "duration": 0.1875,
		  "durationTicks": 192,
		  "midi": 73,
		  "name": "C#5",
		  "ticks": 263018,
		  "time": 256.853515625,
		  "velocity": 0.3937007874015748
		},
		{
		  "duration": 0.1875,
		  "durationTicks": 192,
		  "midi": 85,
		  "name": "C#6",
		  "ticks": 263018,
		  "time": 256.853515625,
		  "velocity": 0.3937007874015748
		},
		{
		  "duration": 0.1875,
		  "durationTicks": 192,
		  "midi": 80,
		  "name": "G#5",
		  "ticks": 263018,
		  "time": 256.853515625,
		  "velocity": 0.3937007874015748
		},
		{
		  "duration": 0.1875,
		  "durationTicks": 192,
		  "midi": 77,
		  "name": "F5",
		  "ticks": 263018,
		  "time": 256.853515625,
		  "velocity": 0.3937007874015748
		},
		{
		  "duration": 0.1875,
		  "durationTicks": 192,
		  "midi": 35,
		  "name": "B1",
		  "ticks": 263018,
		  "time": 256.853515625,
		  "velocity": 0.3937007874015748
		},
		{
		  "duration": 0.1875,
		  "durationTicks": 192,
		  "midi": 47,
		  "name": "B2",
		  "ticks": 263022,
		  "time": 256.857421875,
		  "velocity": 0.3937007874015748
		},
		{
		  "duration": 0.1875,
		  "durationTicks": 192,
		  "midi": 44,
		  "name": "G#2",
		  "ticks": 263210,
		  "time": 257.041015625,
		  "velocity": 0.3937007874015748
		},
		{
		  "duration": 0.1875,
		  "durationTicks": 192,
		  "midi": 73,
		  "name": "C#5",
		  "ticks": 263226,
		  "time": 257.056640625,
		  "velocity": 0.3937007874015748
		},
		{
		  "duration": 0.1875,
		  "durationTicks": 192,
		  "midi": 77,
		  "name": "F5",
		  "ticks": 263226,
		  "time": 257.056640625,
		  "velocity": 0.3937007874015748
		},
		{
		  "duration": 0.1875,
		  "durationTicks": 192,
		  "midi": 80,
		  "name": "G#5",
		  "ticks": 263226,
		  "time": 257.056640625,
		  "velocity": 0.3937007874015748
		},
		{
		  "duration": 0.1875,
		  "durationTicks": 192,
		  "midi": 85,
		  "name": "C#6",
		  "ticks": 263226,
		  "time": 257.056640625,
		  "velocity": 0.3937007874015748
		},
		{
		  "duration": 0.09375,
		  "durationTicks": 96,
		  "midi": 33,
		  "name": "A1",
		  "ticks": 263402,
		  "time": 257.228515625,
		  "velocity": 0.3937007874015748
		},
		{
		  "duration": 0.09375,
		  "durationTicks": 96,
		  "midi": 49,
		  "name": "C#3",
		  "ticks": 263502,
		  "time": 257.326171875,
		  "velocity": 0.3937007874015748
		},
		{
		  "duration": 0.09375,
		  "durationTicks": 96,
		  "midi": 45,
		  "name": "A2",
		  "ticks": 263594,
		  "time": 257.416015625,
		  "velocity": 0.3937007874015748
		},
		{
		  "duration": 0.09375,
		  "durationTicks": 96,
		  "midi": 54,
		  "name": "F#3",
		  "ticks": 263602,
		  "time": 257.423828125,
		  "velocity": 0.3937007874015748
		},
		{
		  "duration": 0.09375,
		  "durationTicks": 96,
		  "midi": 57,
		  "name": "A3",
		  "ticks": 263698,
		  "time": 257.517578125,
		  "velocity": 0.3937007874015748
		},
		{
		  "duration": 0.09375,
		  "durationTicks": 96,
		  "midi": 33,
		  "name": "A1",
		  "ticks": 263786,
		  "time": 257.603515625,
		  "velocity": 0.3937007874015748
		},
		{
		  "duration": 0.09375,
		  "durationTicks": 96,
		  "midi": 61,
		  "name": "C#4",
		  "ticks": 263806,
		  "time": 257.623046875,
		  "velocity": 0.3937007874015748
		},
		{
		  "duration": 0.09375,
		  "durationTicks": 96,
		  "midi": 61,
		  "name": "C#4",
		  "ticks": 263902,
		  "time": 257.716796875,
		  "velocity": 0.3937007874015748
		},
		{
		  "duration": 0.09375,
		  "durationTicks": 96,
		  "midi": 45,
		  "name": "A2",
		  "ticks": 263978,
		  "time": 257.791015625,
		  "velocity": 0.3937007874015748
		},
		{
		  "duration": 0.09375,
		  "durationTicks": 96,
		  "midi": 66,
		  "name": "F#4",
		  "ticks": 263982,
		  "time": 257.794921875,
		  "velocity": 0.3937007874015748
		},
		{
		  "duration": 0.09375,
		  "durationTicks": 96,
		  "midi": 69,
		  "name": "A4",
		  "ticks": 264078,
		  "time": 257.888671875,
		  "velocity": 0.3937007874015748
		},
		{
		  "duration": 0.09375,
		  "durationTicks": 96,
		  "midi": 33,
		  "name": "A1",
		  "ticks": 264170,
		  "time": 257.978515625,
		  "velocity": 0.3937007874015748
		},
		{
		  "duration": 0.09375,
		  "durationTicks": 96,
		  "midi": 73,
		  "name": "C#5",
		  "ticks": 264190,
		  "time": 257.998046875,
		  "velocity": 0.3937007874015748
		},
		{
		  "duration": 0.09375,
		  "durationTicks": 96,
		  "midi": 73,
		  "name": "C#5",
		  "ticks": 264290,
		  "time": 258.095703125,
		  "velocity": 0.3937007874015748
		},
		{
		  "duration": 0.09375,
		  "durationTicks": 96,
		  "midi": 45,
		  "name": "A2",
		  "ticks": 264362,
		  "time": 258.166015625,
		  "velocity": 0.3937007874015748
		},
		{
		  "duration": 0.09375,
		  "durationTicks": 96,
		  "midi": 78,
		  "name": "F#5",
		  "ticks": 264366,
		  "time": 258.169921875,
		  "velocity": 0.3937007874015748
		},
		{
		  "duration": 0.09375,
		  "durationTicks": 96,
		  "midi": 81,
		  "name": "A5",
		  "ticks": 264462,
		  "time": 258.263671875,
		  "velocity": 0.3937007874015748
		},
		{
		  "duration": 0.09375,
		  "durationTicks": 96,
		  "midi": 33,
		  "name": "A1",
		  "ticks": 264554,
		  "time": 258.353515625,
		  "velocity": 0.3937007874015748
		},
		{
		  "duration": 0.1875,
		  "durationTicks": 192,
		  "midi": 73,
		  "name": "C#5",
		  "ticks": 264558,
		  "time": 258.357421875,
		  "velocity": 0.3937007874015748
		},
		{
		  "duration": 0.1875,
		  "durationTicks": 192,
		  "midi": 85,
		  "name": "C#6",
		  "ticks": 264558,
		  "time": 258.357421875,
		  "velocity": 0.3937007874015748
		},
		{
		  "duration": 0.1875,
		  "durationTicks": 192,
		  "midi": 78,
		  "name": "F#5",
		  "ticks": 264558,
		  "time": 258.357421875,
		  "velocity": 0.3937007874015748
		},
		{
		  "duration": 0.09375,
		  "durationTicks": 96,
		  "midi": 45,
		  "name": "A2",
		  "ticks": 264746,
		  "time": 258.541015625,
		  "velocity": 0.3937007874015748
		},
		{
		  "duration": 0.1875,
		  "durationTicks": 192,
		  "midi": 85,
		  "name": "C#6",
		  "ticks": 264766,
		  "time": 258.560546875,
		  "velocity": 0.3937007874015748
		},
		{
		  "duration": 0.1875,
		  "durationTicks": 192,
		  "midi": 78,
		  "name": "F#5",
		  "ticks": 264766,
		  "time": 258.560546875,
		  "velocity": 0.3937007874015748
		},
		{
		  "duration": 0.1875,
		  "durationTicks": 192,
		  "midi": 73,
		  "name": "C#5",
		  "ticks": 264766,
		  "time": 258.560546875,
		  "velocity": 0.3937007874015748
		},
		{
		  "duration": 0.09375,
		  "durationTicks": 96,
		  "midi": 33,
		  "name": "A1",
		  "ticks": 264938,
		  "time": 258.728515625,
		  "velocity": 0.3937007874015748
		},
		{
		  "duration": 0.09375,
		  "durationTicks": 96,
		  "midi": 49,
		  "name": "C#3",
		  "ticks": 265038,
		  "time": 258.826171875,
		  "velocity": 0.3937007874015748
		},
		{
		  "duration": 0.09375,
		  "durationTicks": 96,
		  "midi": 45,
		  "name": "A2",
		  "ticks": 265130,
		  "time": 258.916015625,
		  "velocity": 0.3937007874015748
		},
		{
		  "duration": 0.09375,
		  "durationTicks": 96,
		  "midi": 52,
		  "name": "E3",
		  "ticks": 265134,
		  "time": 258.919921875,
		  "velocity": 0.3937007874015748
		},
		{
		  "duration": 0.09375,
		  "durationTicks": 96,
		  "midi": 55,
		  "name": "G3",
		  "ticks": 265230,
		  "time": 259.013671875,
		  "velocity": 0.3937007874015748
		},
		{
		  "duration": 0.09375,
		  "durationTicks": 96,
		  "midi": 33,
		  "name": "A1",
		  "ticks": 265322,
		  "time": 259.103515625,
		  "velocity": 0.3937007874015748
		},
		{
		  "duration": 0.09375,
		  "durationTicks": 96,
		  "midi": 61,
		  "name": "C#4",
		  "ticks": 265346,
		  "time": 259.126953125,
		  "velocity": 0.3937007874015748
		},
		{
		  "duration": 0.09375,
		  "durationTicks": 96,
		  "midi": 61,
		  "name": "C#4",
		  "ticks": 265442,
		  "time": 259.220703125,
		  "velocity": 0.3937007874015748
		},
		{
		  "duration": 0.09375,
		  "durationTicks": 96,
		  "midi": 45,
		  "name": "A2",
		  "ticks": 265514,
		  "time": 259.291015625,
		  "velocity": 0.3937007874015748
		},
		{
		  "duration": 0.09375,
		  "durationTicks": 96,
		  "midi": 64,
		  "name": "E4",
		  "ticks": 265518,
		  "time": 259.294921875,
		  "velocity": 0.3937007874015748
		},
		{
		  "duration": 0.09375,
		  "durationTicks": 96,
		  "midi": 67,
		  "name": "G4",
		  "ticks": 265614,
		  "time": 259.388671875,
		  "velocity": 0.3937007874015748
		},
		{
		  "duration": 0.09375,
		  "durationTicks": 96,
		  "midi": 33,
		  "name": "A1",
		  "ticks": 265706,
		  "time": 259.478515625,
		  "velocity": 0.3937007874015748
		},
		{
		  "duration": 0.09375,
		  "durationTicks": 96,
		  "midi": 73,
		  "name": "C#5",
		  "ticks": 265726,
		  "time": 259.498046875,
		  "velocity": 0.3937007874015748
		},
		{
		  "duration": 0.09375,
		  "durationTicks": 96,
		  "midi": 73,
		  "name": "C#5",
		  "ticks": 265822,
		  "time": 259.591796875,
		  "velocity": 0.3937007874015748
		},
		{
		  "duration": 0.09375,
		  "durationTicks": 96,
		  "midi": 45,
		  "name": "A2",
		  "ticks": 265898,
		  "time": 259.666015625,
		  "velocity": 0.3937007874015748
		},
		{
		  "duration": 0.09375,
		  "durationTicks": 96,
		  "midi": 76,
		  "name": "E5",
		  "ticks": 265906,
		  "time": 259.673828125,
		  "velocity": 0.3937007874015748
		},
		{
		  "duration": 0.09375,
		  "durationTicks": 96,
		  "midi": 79,
		  "name": "G5",
		  "ticks": 266002,
		  "time": 259.767578125,
		  "velocity": 0.3937007874015748
		},
		{
		  "duration": 0.09375,
		  "durationTicks": 96,
		  "midi": 33,
		  "name": "A1",
		  "ticks": 266090,
		  "time": 259.853515625,
		  "velocity": 0.3937007874015748
		},
		{
		  "duration": 0.1875,
		  "durationTicks": 192,
		  "midi": 73,
		  "name": "C#5",
		  "ticks": 266098,
		  "time": 259.861328125,
		  "velocity": 0.3937007874015748
		},
		{
		  "duration": 0.1875,
		  "durationTicks": 192,
		  "midi": 79,
		  "name": "G5",
		  "ticks": 266098,
		  "time": 259.861328125,
		  "velocity": 0.3937007874015748
		},
		{
		  "duration": 0.1875,
		  "durationTicks": 192,
		  "midi": 85,
		  "name": "C#6",
		  "ticks": 266098,
		  "time": 259.861328125,
		  "velocity": 0.3937007874015748
		},
		{
		  "duration": 0.0947265625,
		  "durationTicks": 97,
		  "midi": 45,
		  "name": "A2",
		  "ticks": 266282,
		  "time": 260.041015625,
		  "velocity": 0.3937007874015748
		},
		{
		  "duration": 0.1875,
		  "durationTicks": 192,
		  "midi": 85,
		  "name": "C#6",
		  "ticks": 266299,
		  "time": 260.0576171875,
		  "velocity": 0.3937007874015748
		},
		{
		  "duration": 0.1875,
		  "durationTicks": 192,
		  "midi": 73,
		  "name": "C#5",
		  "ticks": 266299,
		  "time": 260.0576171875,
		  "velocity": 0.3937007874015748
		},
		{
		  "duration": 0.1875,
		  "durationTicks": 192,
		  "midi": 79,
		  "name": "G5",
		  "ticks": 266299,
		  "time": 260.0576171875,
		  "velocity": 0.3937007874015748
		},
		{
		  "duration": 0.1875,
		  "durationTicks": 192,
		  "midi": 44,
		  "name": "G#2",
		  "ticks": 266475,
		  "time": 260.2294921875,
		  "velocity": 0.3937007874015748
		},
		{
		  "duration": 0.1875,
		  "durationTicks": 192,
		  "midi": 32,
		  "name": "G#1",
		  "ticks": 266479,
		  "time": 260.2333984375,
		  "velocity": 0.3937007874015748
		},
		{
		  "duration": 0.1875,
		  "durationTicks": 192,
		  "midi": 84,
		  "name": "C6",
		  "ticks": 266491,
		  "time": 260.2451171875,
		  "velocity": 0.3937007874015748
		},
		{
		  "duration": 0.1875,
		  "durationTicks": 192,
		  "midi": 80,
		  "name": "G#5",
		  "ticks": 266491,
		  "time": 260.2451171875,
		  "velocity": 0.3937007874015748
		},
		{
		  "duration": 0.1875,
		  "durationTicks": 192,
		  "midi": 72,
		  "name": "C5",
		  "ticks": 266491,
		  "time": 260.2451171875,
		  "velocity": 0.3937007874015748
		},
		{
		  "duration": 0.09375,
		  "durationTicks": 96,
		  "midi": 68,
		  "name": "G#4",
		  "ticks": 266683,
		  "time": 260.4326171875,
		  "velocity": 0.3937007874015748
		},
		{
		  "duration": 0.1875,
		  "durationTicks": 192,
		  "midi": 60,
		  "name": "C4",
		  "ticks": 266683,
		  "time": 260.4326171875,
		  "velocity": 0.3937007874015748
		},
		{
		  "duration": 2.8125,
		  "durationTicks": 2880,
		  "midi": 56,
		  "name": "G#3",
		  "ticks": 266683,
		  "time": 260.4326171875,
		  "velocity": 0.3937007874015748
		},
		{
		  "duration": 0.09375,
		  "durationTicks": 96,
		  "midi": 80,
		  "name": "G#5",
		  "ticks": 266779,
		  "time": 260.5263671875,
		  "velocity": 0.3937007874015748
		},
		{
		  "duration": 0.09375,
		  "durationTicks": 96,
		  "midi": 68,
		  "name": "G#4",
		  "ticks": 266875,
		  "time": 260.6201171875,
		  "velocity": 0.3937007874015748
		},
		{
		  "duration": 0.1875,
		  "durationTicks": 192,
		  "midi": 60,
		  "name": "C4",
		  "ticks": 266875,
		  "time": 260.6201171875,
		  "velocity": 0.3937007874015748
		},
		{
		  "duration": 0.09375,
		  "durationTicks": 96,
		  "midi": 80,
		  "name": "G#5",
		  "ticks": 266971,
		  "time": 260.7138671875,
		  "velocity": 0.3937007874015748
		},
		{
		  "duration": 0.09375,
		  "durationTicks": 96,
		  "midi": 70,
		  "name": "A#4",
		  "ticks": 267067,
		  "time": 260.8076171875,
		  "velocity": 0.3937007874015748
		},
		{
		  "duration": 0.1875,
		  "durationTicks": 192,
		  "midi": 61,
		  "name": "C#4",
		  "ticks": 267067,
		  "time": 260.8076171875,
		  "velocity": 0.3937007874015748
		},
		{
		  "duration": 0.09375,
		  "durationTicks": 96,
		  "midi": 80,
		  "name": "G#5",
		  "ticks": 267163,
		  "time": 260.9013671875,
		  "velocity": 0.3937007874015748
		},
		{
		  "duration": 0.09375,
		  "durationTicks": 96,
		  "midi": 72,
		  "name": "C5",
		  "ticks": 267259,
		  "time": 260.9951171875,
		  "velocity": 0.3937007874015748
		},
		{
		  "duration": 0.1875,
		  "durationTicks": 192,
		  "midi": 63,
		  "name": "D#4",
		  "ticks": 267259,
		  "time": 260.9951171875,
		  "velocity": 0.3937007874015748
		},
		{
		  "duration": 0.09375,
		  "durationTicks": 96,
		  "midi": 80,
		  "name": "G#5",
		  "ticks": 267355,
		  "time": 261.0888671875,
		  "velocity": 0.3937007874015748
		},
		{
		  "duration": 0.09375,
		  "durationTicks": 96,
		  "midi": 73,
		  "name": "C#5",
		  "ticks": 267451,
		  "time": 261.1826171875,
		  "velocity": 0.3937007874015748
		},
		{
		  "duration": 0.1875,
		  "durationTicks": 192,
		  "midi": 64,
		  "name": "E4",
		  "ticks": 267451,
		  "time": 261.1826171875,
		  "velocity": 0.3937007874015748
		},
		{
		  "duration": 0.09375,
		  "durationTicks": 96,
		  "midi": 80,
		  "name": "G#5",
		  "ticks": 267547,
		  "time": 261.2763671875,
		  "velocity": 0.3937007874015748
		},
		{
		  "duration": 0.09375,
		  "durationTicks": 96,
		  "midi": 75,
		  "name": "D#5",
		  "ticks": 267643,
		  "time": 261.3701171875,
		  "velocity": 0.3937007874015748
		},
		{
		  "duration": 0.1875,
		  "durationTicks": 192,
		  "midi": 66,
		  "name": "F#4",
		  "ticks": 267643,
		  "time": 261.3701171875,
		  "velocity": 0.3937007874015748
		},
		{
		  "duration": 0.09375,
		  "durationTicks": 96,
		  "midi": 80,
		  "name": "G#5",
		  "ticks": 267739,
		  "time": 261.4638671875,
		  "velocity": 0.3937007874015748
		},
		{
		  "duration": 0.09375,
		  "durationTicks": 96,
		  "midi": 72,
		  "name": "C5",
		  "ticks": 267835,
		  "time": 261.5576171875,
		  "velocity": 0.3937007874015748
		},
		{
		  "duration": 0.1875,
		  "durationTicks": 192,
		  "midi": 63,
		  "name": "D#4",
		  "ticks": 267835,
		  "time": 261.5576171875,
		  "velocity": 0.3937007874015748
		},
		{
		  "duration": 0.09375,
		  "durationTicks": 96,
		  "midi": 80,
		  "name": "G#5",
		  "ticks": 267931,
		  "time": 261.6513671875,
		  "velocity": 0.3937007874015748
		},
		{
		  "duration": 0.09375,
		  "durationTicks": 96,
		  "midi": 75,
		  "name": "D#5",
		  "ticks": 268027,
		  "time": 261.7451171875,
		  "velocity": 0.3937007874015748
		},
		{
		  "duration": 0.1875,
		  "durationTicks": 192,
		  "midi": 66,
		  "name": "F#4",
		  "ticks": 268027,
		  "time": 261.7451171875,
		  "velocity": 0.3937007874015748
		},
		{
		  "duration": 0.09375,
		  "durationTicks": 96,
		  "midi": 80,
		  "name": "G#5",
		  "ticks": 268123,
		  "time": 261.8388671875,
		  "velocity": 0.3937007874015748
		},
		{
		  "duration": 0.09375,
		  "durationTicks": 96,
		  "midi": 73,
		  "name": "C#5",
		  "ticks": 268219,
		  "time": 261.9326171875,
		  "velocity": 0.3937007874015748
		},
		{
		  "duration": 0.1875,
		  "durationTicks": 192,
		  "midi": 64,
		  "name": "E4",
		  "ticks": 268219,
		  "time": 261.9326171875,
		  "velocity": 0.3937007874015748
		},
		{
		  "duration": 0.09375,
		  "durationTicks": 96,
		  "midi": 80,
		  "name": "G#5",
		  "ticks": 268315,
		  "time": 262.0263671875,
		  "velocity": 0.3937007874015748
		},
		{
		  "duration": 0.09375,
		  "durationTicks": 96,
		  "midi": 78,
		  "name": "F#5",
		  "ticks": 268411,
		  "time": 262.1201171875,
		  "velocity": 0.3937007874015748
		},
		{
		  "duration": 0.1875,
		  "durationTicks": 192,
		  "midi": 69,
		  "name": "A4",
		  "ticks": 268411,
		  "time": 262.1201171875,
		  "velocity": 0.3937007874015748
		},
		{
		  "duration": 0.09375,
		  "durationTicks": 96,
		  "midi": 80,
		  "name": "G#5",
		  "ticks": 268507,
		  "time": 262.2138671875,
		  "velocity": 0.3937007874015748
		},
		{
		  "duration": 0.09375,
		  "durationTicks": 96,
		  "midi": 76,
		  "name": "E5",
		  "ticks": 268603,
		  "time": 262.3076171875,
		  "velocity": 0.3937007874015748
		},
		{
		  "duration": 0.1875,
		  "durationTicks": 192,
		  "midi": 68,
		  "name": "G#4",
		  "ticks": 268603,
		  "time": 262.3076171875,
		  "velocity": 0.3937007874015748
		},
		{
		  "duration": 0.09375,
		  "durationTicks": 96,
		  "midi": 80,
		  "name": "G#5",
		  "ticks": 268699,
		  "time": 262.4013671875,
		  "velocity": 0.3937007874015748
		},
		{
		  "duration": 0.09375,
		  "durationTicks": 96,
		  "midi": 75,
		  "name": "D#5",
		  "ticks": 268795,
		  "time": 262.4951171875,
		  "velocity": 0.3937007874015748
		},
		{
		  "duration": 0.1875,
		  "durationTicks": 192,
		  "midi": 66,
		  "name": "F#4",
		  "ticks": 268795,
		  "time": 262.4951171875,
		  "velocity": 0.3937007874015748
		},
		{
		  "duration": 0.09375,
		  "durationTicks": 96,
		  "midi": 80,
		  "name": "G#5",
		  "ticks": 268891,
		  "time": 262.5888671875,
		  "velocity": 0.3937007874015748
		},
		{
		  "duration": 0.09375,
		  "durationTicks": 96,
		  "midi": 73,
		  "name": "C#5",
		  "ticks": 268987,
		  "time": 262.6826171875,
		  "velocity": 0.3937007874015748
		},
		{
		  "duration": 0.1875,
		  "durationTicks": 192,
		  "midi": 64,
		  "name": "E4",
		  "ticks": 268987,
		  "time": 262.6826171875,
		  "velocity": 0.3937007874015748
		},
		{
		  "duration": 0.09375,
		  "durationTicks": 96,
		  "midi": 80,
		  "name": "G#5",
		  "ticks": 269083,
		  "time": 262.7763671875,
		  "velocity": 0.3937007874015748
		},
		{
		  "duration": 0.09375,
		  "durationTicks": 96,
		  "midi": 72,
		  "name": "C5",
		  "ticks": 269179,
		  "time": 262.8701171875,
		  "velocity": 0.3937007874015748
		},
		{
		  "duration": 0.1875,
		  "durationTicks": 192,
		  "midi": 63,
		  "name": "D#4",
		  "ticks": 269179,
		  "time": 262.8701171875,
		  "velocity": 0.3937007874015748
		},
		{
		  "duration": 0.09375,
		  "durationTicks": 96,
		  "midi": 80,
		  "name": "G#5",
		  "ticks": 269275,
		  "time": 262.9638671875,
		  "velocity": 0.3937007874015748
		},
		{
		  "duration": 0.09375,
		  "durationTicks": 96,
		  "midi": 69,
		  "name": "A4",
		  "ticks": 269371,
		  "time": 263.0576171875,
		  "velocity": 0.3937007874015748
		},
		{
		  "duration": 0.1875,
		  "durationTicks": 192,
		  "midi": 61,
		  "name": "C#4",
		  "ticks": 269371,
		  "time": 263.0576171875,
		  "velocity": 0.3937007874015748
		},
		{
		  "duration": 0.09375,
		  "durationTicks": 96,
		  "midi": 79,
		  "name": "G5",
		  "ticks": 269467,
		  "time": 263.1513671875,
		  "velocity": 0.3937007874015748
		},
		{
		  "duration": 0.09375,
		  "durationTicks": 96,
		  "midi": 68,
		  "name": "G#4",
		  "ticks": 269563,
		  "time": 263.2451171875,
		  "velocity": 0.3937007874015748
		},
		{
		  "duration": 0.1875,
		  "durationTicks": 192,
		  "midi": 60,
		  "name": "C4",
		  "ticks": 269563,
		  "time": 263.2451171875,
		  "velocity": 0.3937007874015748
		},
		{
		  "duration": 3,
		  "durationTicks": 3072,
		  "midi": 56,
		  "name": "G#3",
		  "ticks": 269563,
		  "time": 263.2451171875,
		  "velocity": 0.3937007874015748
		},
		{
		  "duration": 0.09375,
		  "durationTicks": 96,
		  "midi": 80,
		  "name": "G#5",
		  "ticks": 269659,
		  "time": 263.3388671875,
		  "velocity": 0.3937007874015748
		},
		{
		  "duration": 0.09375,
		  "durationTicks": 96,
		  "midi": 68,
		  "name": "G#4",
		  "ticks": 269755,
		  "time": 263.4326171875,
		  "velocity": 0.3937007874015748
		},
		{
		  "duration": 0.1875,
		  "durationTicks": 192,
		  "midi": 60,
		  "name": "C4",
		  "ticks": 269755,
		  "time": 263.4326171875,
		  "velocity": 0.3937007874015748
		},
		{
		  "duration": 0.09375,
		  "durationTicks": 96,
		  "midi": 80,
		  "name": "G#5",
		  "ticks": 269851,
		  "time": 263.5263671875,
		  "velocity": 0.3937007874015748
		},
		{
		  "duration": 0.09375,
		  "durationTicks": 96,
		  "midi": 68,
		  "name": "G#4",
		  "ticks": 269947,
		  "time": 263.6201171875,
		  "velocity": 0.3937007874015748
		},
		{
		  "duration": 0.1875,
		  "durationTicks": 192,
		  "midi": 60,
		  "name": "C4",
		  "ticks": 269947,
		  "time": 263.6201171875,
		  "velocity": 0.3937007874015748
		},
		{
		  "duration": 0.09375,
		  "durationTicks": 96,
		  "midi": 80,
		  "name": "G#5",
		  "ticks": 270043,
		  "time": 263.7138671875,
		  "velocity": 0.3937007874015748
		},
		{
		  "duration": 0.09375,
		  "durationTicks": 96,
		  "midi": 70,
		  "name": "A#4",
		  "ticks": 270139,
		  "time": 263.8076171875,
		  "velocity": 0.3937007874015748
		},
		{
		  "duration": 0.1875,
		  "durationTicks": 192,
		  "midi": 61,
		  "name": "C#4",
		  "ticks": 270139,
		  "time": 263.8076171875,
		  "velocity": 0.3937007874015748
		},
		{
		  "duration": 0.09375,
		  "durationTicks": 96,
		  "midi": 80,
		  "name": "G#5",
		  "ticks": 270235,
		  "time": 263.9013671875,
		  "velocity": 0.3937007874015748
		},
		{
		  "duration": 0.09375,
		  "durationTicks": 96,
		  "midi": 72,
		  "name": "C5",
		  "ticks": 270331,
		  "time": 263.9951171875,
		  "velocity": 0.3937007874015748
		},
		{
		  "duration": 0.1875,
		  "durationTicks": 192,
		  "midi": 63,
		  "name": "D#4",
		  "ticks": 270331,
		  "time": 263.9951171875,
		  "velocity": 0.3937007874015748
		},
		{
		  "duration": 0.09375,
		  "durationTicks": 96,
		  "midi": 80,
		  "name": "G#5",
		  "ticks": 270427,
		  "time": 264.0888671875,
		  "velocity": 0.3937007874015748
		},
		{
		  "duration": 0.09375,
		  "durationTicks": 96,
		  "midi": 73,
		  "name": "C#5",
		  "ticks": 270523,
		  "time": 264.1826171875,
		  "velocity": 0.3937007874015748
		},
		{
		  "duration": 0.1875,
		  "durationTicks": 192,
		  "midi": 64,
		  "name": "E4",
		  "ticks": 270523,
		  "time": 264.1826171875,
		  "velocity": 0.3937007874015748
		},
		{
		  "duration": 0.09375,
		  "durationTicks": 96,
		  "midi": 80,
		  "name": "G#5",
		  "ticks": 270619,
		  "time": 264.2763671875,
		  "velocity": 0.3937007874015748
		},
		{
		  "duration": 0.09375,
		  "durationTicks": 96,
		  "midi": 75,
		  "name": "D#5",
		  "ticks": 270715,
		  "time": 264.3701171875,
		  "velocity": 0.3937007874015748
		},
		{
		  "duration": 0.1875,
		  "durationTicks": 192,
		  "midi": 66,
		  "name": "F#4",
		  "ticks": 270715,
		  "time": 264.3701171875,
		  "velocity": 0.3937007874015748
		},
		{
		  "duration": 0.09375,
		  "durationTicks": 96,
		  "midi": 80,
		  "name": "G#5",
		  "ticks": 270811,
		  "time": 264.4638671875,
		  "velocity": 0.3937007874015748
		},
		{
		  "duration": 0.09375,
		  "durationTicks": 96,
		  "midi": 72,
		  "name": "C5",
		  "ticks": 270907,
		  "time": 264.5576171875,
		  "velocity": 0.3937007874015748
		},
		{
		  "duration": 0.1875,
		  "durationTicks": 192,
		  "midi": 63,
		  "name": "D#4",
		  "ticks": 270907,
		  "time": 264.5576171875,
		  "velocity": 0.3937007874015748
		},
		{
		  "duration": 0.09375,
		  "durationTicks": 96,
		  "midi": 80,
		  "name": "G#5",
		  "ticks": 271003,
		  "time": 264.6513671875,
		  "velocity": 0.3937007874015748
		},
		{
		  "duration": 0.09375,
		  "durationTicks": 96,
		  "midi": 75,
		  "name": "D#5",
		  "ticks": 271099,
		  "time": 264.7451171875,
		  "velocity": 0.3937007874015748
		},
		{
		  "duration": 0.1875,
		  "durationTicks": 192,
		  "midi": 66,
		  "name": "F#4",
		  "ticks": 271099,
		  "time": 264.7451171875,
		  "velocity": 0.3937007874015748
		},
		{
		  "duration": 0.09375,
		  "durationTicks": 96,
		  "midi": 80,
		  "name": "G#5",
		  "ticks": 271195,
		  "time": 264.8388671875,
		  "velocity": 0.3937007874015748
		},
		{
		  "duration": 0.09375,
		  "durationTicks": 96,
		  "midi": 73,
		  "name": "C#5",
		  "ticks": 271291,
		  "time": 264.9326171875,
		  "velocity": 0.3937007874015748
		},
		{
		  "duration": 0.1875,
		  "durationTicks": 192,
		  "midi": 64,
		  "name": "E4",
		  "ticks": 271291,
		  "time": 264.9326171875,
		  "velocity": 0.3937007874015748
		},
		{
		  "duration": 0.09375,
		  "durationTicks": 96,
		  "midi": 80,
		  "name": "G#5",
		  "ticks": 271387,
		  "time": 265.0263671875,
		  "velocity": 0.3937007874015748
		},
		{
		  "duration": 0.09375,
		  "durationTicks": 96,
		  "midi": 78,
		  "name": "F#5",
		  "ticks": 271483,
		  "time": 265.1201171875,
		  "velocity": 0.3937007874015748
		},
		{
		  "duration": 0.1875,
		  "durationTicks": 192,
		  "midi": 69,
		  "name": "A4",
		  "ticks": 271483,
		  "time": 265.1201171875,
		  "velocity": 0.3937007874015748
		},
		{
		  "duration": 0.09375,
		  "durationTicks": 96,
		  "midi": 80,
		  "name": "G#5",
		  "ticks": 271579,
		  "time": 265.2138671875,
		  "velocity": 0.3937007874015748
		},
		{
		  "duration": 0.09375,
		  "durationTicks": 96,
		  "midi": 76,
		  "name": "E5",
		  "ticks": 271675,
		  "time": 265.3076171875,
		  "velocity": 0.3937007874015748
		},
		{
		  "duration": 0.1875,
		  "durationTicks": 192,
		  "midi": 68,
		  "name": "G#4",
		  "ticks": 271675,
		  "time": 265.3076171875,
		  "velocity": 0.3937007874015748
		},
		{
		  "duration": 0.09375,
		  "durationTicks": 96,
		  "midi": 80,
		  "name": "G#5",
		  "ticks": 271771,
		  "time": 265.4013671875,
		  "velocity": 0.3937007874015748
		},
		{
		  "duration": 0.09375,
		  "durationTicks": 96,
		  "midi": 75,
		  "name": "D#5",
		  "ticks": 271867,
		  "time": 265.4951171875,
		  "velocity": 0.3937007874015748
		},
		{
		  "duration": 0.1875,
		  "durationTicks": 192,
		  "midi": 66,
		  "name": "F#4",
		  "ticks": 271867,
		  "time": 265.4951171875,
		  "velocity": 0.3937007874015748
		},
		{
		  "duration": 0.09375,
		  "durationTicks": 96,
		  "midi": 80,
		  "name": "G#5",
		  "ticks": 271963,
		  "time": 265.5888671875,
		  "velocity": 0.3937007874015748
		},
		{
		  "duration": 0.09375,
		  "durationTicks": 96,
		  "midi": 73,
		  "name": "C#5",
		  "ticks": 272059,
		  "time": 265.6826171875,
		  "velocity": 0.3937007874015748
		},
		{
		  "duration": 0.1875,
		  "durationTicks": 192,
		  "midi": 64,
		  "name": "E4",
		  "ticks": 272059,
		  "time": 265.6826171875,
		  "velocity": 0.3937007874015748
		},
		{
		  "duration": 0.09375,
		  "durationTicks": 96,
		  "midi": 80,
		  "name": "G#5",
		  "ticks": 272155,
		  "time": 265.7763671875,
		  "velocity": 0.3937007874015748
		},
		{
		  "duration": 0.09375,
		  "durationTicks": 96,
		  "midi": 72,
		  "name": "C5",
		  "ticks": 272251,
		  "time": 265.8701171875,
		  "velocity": 0.3937007874015748
		},
		{
		  "duration": 0.1875,
		  "durationTicks": 192,
		  "midi": 63,
		  "name": "D#4",
		  "ticks": 272251,
		  "time": 265.8701171875,
		  "velocity": 0.3937007874015748
		},
		{
		  "duration": 0.09375,
		  "durationTicks": 96,
		  "midi": 80,
		  "name": "G#5",
		  "ticks": 272347,
		  "time": 265.9638671875,
		  "velocity": 0.3937007874015748
		},
		{
		  "duration": 0.09375,
		  "durationTicks": 96,
		  "midi": 69,
		  "name": "A4",
		  "ticks": 272443,
		  "time": 266.0576171875,
		  "velocity": 0.3937007874015748
		},
		{
		  "duration": 0.1875,
		  "durationTicks": 192,
		  "midi": 61,
		  "name": "C#4",
		  "ticks": 272443,
		  "time": 266.0576171875,
		  "velocity": 0.3937007874015748
		},
		{
		  "duration": 0.09375,
		  "durationTicks": 96,
		  "midi": 79,
		  "name": "G5",
		  "ticks": 272539,
		  "time": 266.1513671875,
		  "velocity": 0.3937007874015748
		},
		{
		  "duration": 0.09375,
		  "durationTicks": 96,
		  "midi": 68,
		  "name": "G#4",
		  "ticks": 272635,
		  "time": 266.2451171875,
		  "velocity": 0.3937007874015748
		},
		{
		  "duration": 0.09375,
		  "durationTicks": 96,
		  "midi": 60,
		  "name": "C4",
		  "ticks": 272635,
		  "time": 266.2451171875,
		  "velocity": 0.3937007874015748
		},
		{
		  "duration": 0.09375,
		  "durationTicks": 96,
		  "midi": 56,
		  "name": "G#3",
		  "ticks": 272635,
		  "time": 266.2451171875,
		  "velocity": 0.3937007874015748
		},
		{
		  "duration": 0.09375,
		  "durationTicks": 96,
		  "midi": 80,
		  "name": "G#5",
		  "ticks": 272731,
		  "time": 266.3388671875,
		  "velocity": 0.3937007874015748
		},
		{
		  "duration": 0.09375,
		  "durationTicks": 96,
		  "midi": 69,
		  "name": "A4",
		  "ticks": 272827,
		  "time": 266.4326171875,
		  "velocity": 0.3937007874015748
		},
		{
		  "duration": 0.09375,
		  "durationTicks": 96,
		  "midi": 61,
		  "name": "C#4",
		  "ticks": 272827,
		  "time": 266.4326171875,
		  "velocity": 0.3937007874015748
		},
		{
		  "duration": 0.09375,
		  "durationTicks": 96,
		  "midi": 56,
		  "name": "G#3",
		  "ticks": 272827,
		  "time": 266.4326171875,
		  "velocity": 0.3937007874015748
		},
		{
		  "duration": 0.09375,
		  "durationTicks": 96,
		  "midi": 79,
		  "name": "G5",
		  "ticks": 272923,
		  "time": 266.5263671875,
		  "velocity": 0.3937007874015748
		},
		{
		  "duration": 0.09375,
		  "durationTicks": 96,
		  "midi": 68,
		  "name": "G#4",
		  "ticks": 273019,
		  "time": 266.6201171875,
		  "velocity": 0.3937007874015748
		},
		{
		  "duration": 0.09375,
		  "durationTicks": 96,
		  "midi": 60,
		  "name": "C4",
		  "ticks": 273019,
		  "time": 266.6201171875,
		  "velocity": 0.3937007874015748
		},
		{
		  "duration": 0.09375,
		  "durationTicks": 96,
		  "midi": 56,
		  "name": "G#3",
		  "ticks": 273019,
		  "time": 266.6201171875,
		  "velocity": 0.3937007874015748
		},
		{
		  "duration": 0.09375,
		  "durationTicks": 96,
		  "midi": 80,
		  "name": "G#5",
		  "ticks": 273115,
		  "time": 266.7138671875,
		  "velocity": 0.3937007874015748
		},
		{
		  "duration": 0.09375,
		  "durationTicks": 96,
		  "midi": 69,
		  "name": "A4",
		  "ticks": 273211,
		  "time": 266.8076171875,
		  "velocity": 0.3937007874015748
		},
		{
		  "duration": 0.09375,
		  "durationTicks": 96,
		  "midi": 61,
		  "name": "C#4",
		  "ticks": 273211,
		  "time": 266.8076171875,
		  "velocity": 0.3937007874015748
		},
		{
		  "duration": 0.09375,
		  "durationTicks": 96,
		  "midi": 56,
		  "name": "G#3",
		  "ticks": 273211,
		  "time": 266.8076171875,
		  "velocity": 0.3937007874015748
		},
		{
		  "duration": 0.09375,
		  "durationTicks": 96,
		  "midi": 79,
		  "name": "G5",
		  "ticks": 273307,
		  "time": 266.9013671875,
		  "velocity": 0.3937007874015748
		},
		{
		  "duration": 0.09375,
		  "durationTicks": 96,
		  "midi": 68,
		  "name": "G#4",
		  "ticks": 273403,
		  "time": 266.9951171875,
		  "velocity": 0.3937007874015748
		},
		{
		  "duration": 0.09375,
		  "durationTicks": 96,
		  "midi": 60,
		  "name": "C4",
		  "ticks": 273403,
		  "time": 266.9951171875,
		  "velocity": 0.3937007874015748
		},
		{
		  "duration": 0.09375,
		  "durationTicks": 96,
		  "midi": 56,
		  "name": "G#3",
		  "ticks": 273403,
		  "time": 266.9951171875,
		  "velocity": 0.3937007874015748
		},
		{
		  "duration": 0.09375,
		  "durationTicks": 96,
		  "midi": 80,
		  "name": "G#5",
		  "ticks": 273499,
		  "time": 267.0888671875,
		  "velocity": 0.3937007874015748
		},
		{
		  "duration": 0.09375,
		  "durationTicks": 96,
		  "midi": 69,
		  "name": "A4",
		  "ticks": 273595,
		  "time": 267.1826171875,
		  "velocity": 0.3937007874015748
		},
		{
		  "duration": 0.09375,
		  "durationTicks": 96,
		  "midi": 61,
		  "name": "C#4",
		  "ticks": 273595,
		  "time": 267.1826171875,
		  "velocity": 0.3937007874015748
		},
		{
		  "duration": 0.09375,
		  "durationTicks": 96,
		  "midi": 56,
		  "name": "G#3",
		  "ticks": 273595,
		  "time": 267.1826171875,
		  "velocity": 0.3937007874015748
		},
		{
		  "duration": 0.09375,
		  "durationTicks": 96,
		  "midi": 79,
		  "name": "G5",
		  "ticks": 273691,
		  "time": 267.2763671875,
		  "velocity": 0.3937007874015748
		},
		{
		  "duration": 0.09375,
		  "durationTicks": 96,
		  "midi": 68,
		  "name": "G#4",
		  "ticks": 273787,
		  "time": 267.3701171875,
		  "velocity": 0.3937007874015748
		},
		{
		  "duration": 0.09375,
		  "durationTicks": 96,
		  "midi": 60,
		  "name": "C4",
		  "ticks": 273787,
		  "time": 267.3701171875,
		  "velocity": 0.3937007874015748
		},
		{
		  "duration": 0.09375,
		  "durationTicks": 96,
		  "midi": 56,
		  "name": "G#3",
		  "ticks": 273787,
		  "time": 267.3701171875,
		  "velocity": 0.3937007874015748
		},
		{
		  "duration": 0.09375,
		  "durationTicks": 96,
		  "midi": 80,
		  "name": "G#5",
		  "ticks": 273883,
		  "time": 267.4638671875,
		  "velocity": 0.3937007874015748
		},
		{
		  "duration": 0.09375,
		  "durationTicks": 96,
		  "midi": 69,
		  "name": "A4",
		  "ticks": 273979,
		  "time": 267.5576171875,
		  "velocity": 0.3937007874015748
		},
		{
		  "duration": 0.09375,
		  "durationTicks": 96,
		  "midi": 61,
		  "name": "C#4",
		  "ticks": 273979,
		  "time": 267.5576171875,
		  "velocity": 0.3937007874015748
		},
		{
		  "duration": 0.09375,
		  "durationTicks": 96,
		  "midi": 56,
		  "name": "G#3",
		  "ticks": 273979,
		  "time": 267.5576171875,
		  "velocity": 0.3937007874015748
		},
		{
		  "duration": 0.09375,
		  "durationTicks": 96,
		  "midi": 79,
		  "name": "G5",
		  "ticks": 274075,
		  "time": 267.6513671875,
		  "velocity": 0.3937007874015748
		},
		{
		  "duration": 0.09375,
		  "durationTicks": 96,
		  "midi": 68,
		  "name": "G#4",
		  "ticks": 274171,
		  "time": 267.7451171875,
		  "velocity": 0.3937007874015748
		},
		{
		  "duration": 0.09375,
		  "durationTicks": 96,
		  "midi": 80,
		  "name": "G#5",
		  "ticks": 274171,
		  "time": 267.7451171875,
		  "velocity": 0.3937007874015748
		},
		{
		  "duration": 0.09375,
		  "durationTicks": 96,
		  "midi": 60,
		  "name": "C4",
		  "ticks": 274171,
		  "time": 267.7451171875,
		  "velocity": 0.3937007874015748
		},
		{
		  "duration": 0.09375,
		  "durationTicks": 96,
		  "midi": 56,
		  "name": "G#3",
		  "ticks": 274171,
		  "time": 267.7451171875,
		  "velocity": 0.3937007874015748
		},
		{
		  "duration": 1.5,
		  "durationTicks": 1536,
		  "midi": 56,
		  "name": "G#3",
		  "ticks": 274555,
		  "time": 268.1201171875,
		  "velocity": 0.3937007874015748
		},
		{
		  "duration": 1.5,
		  "durationTicks": 1536,
		  "midi": 32,
		  "name": "G#1",
		  "ticks": 274555,
		  "time": 268.1201171875,
		  "velocity": 0.3937007874015748
		},
		{
		  "duration": 1.5,
		  "durationTicks": 1536,
		  "midi": 44,
		  "name": "G#2",
		  "ticks": 274555,
		  "time": 268.1201171875,
		  "velocity": 0.3937007874015748
		},
		{
		  "duration": 0.09375,
		  "durationTicks": 96,
		  "midi": 49,
		  "name": "C#3",
		  "ticks": 276091,
		  "time": 269.6201171875,
		  "velocity": 0.3937007874015748
		},
		{
		  "duration": 0.09375,
		  "durationTicks": 96,
		  "midi": 56,
		  "name": "G#3",
		  "ticks": 276199,
		  "time": 269.7255859375,
		  "velocity": 0.3937007874015748
		},
		{
		  "duration": 0.09375,
		  "durationTicks": 96,
		  "midi": 52,
		  "name": "E3",
		  "ticks": 276295,
		  "time": 269.8193359375,
		  "velocity": 0.3937007874015748
		},
		{
		  "duration": 0.09375,
		  "durationTicks": 96,
		  "midi": 56,
		  "name": "G#3",
		  "ticks": 276391,
		  "time": 269.9130859375,
		  "velocity": 0.3937007874015748
		},
		{
		  "duration": 0.75,
		  "durationTicks": 768,
		  "midi": 68,
		  "name": "G#4",
		  "ticks": 276467,
		  "time": 269.9873046875,
		  "velocity": 0.3937007874015748
		},
		{
		  "duration": 0.09375,
		  "durationTicks": 96,
		  "midi": 49,
		  "name": "C#3",
		  "ticks": 276487,
		  "time": 270.0068359375,
		  "velocity": 0.3937007874015748
		},
		{
		  "duration": 0.09375,
		  "durationTicks": 96,
		  "midi": 56,
		  "name": "G#3",
		  "ticks": 276583,
		  "time": 270.1005859375,
		  "velocity": 0.3937007874015748
		},
		{
		  "duration": 0.09375,
		  "durationTicks": 96,
		  "midi": 52,
		  "name": "E3",
		  "ticks": 276683,
		  "time": 270.1982421875,
		  "velocity": 0.3937007874015748
		},
		{
		  "duration": 0.09375,
		  "durationTicks": 96,
		  "midi": 56,
		  "name": "G#3",
		  "ticks": 276779,
		  "time": 270.2919921875,
		  "velocity": 0.3937007874015748
		},
		{
		  "duration": 0.09375,
		  "durationTicks": 96,
		  "midi": 49,
		  "name": "C#3",
		  "ticks": 276875,
		  "time": 270.3857421875,
		  "velocity": 0.3937007874015748
		},
		{
		  "duration": 0.09375,
		  "durationTicks": 96,
		  "midi": 56,
		  "name": "G#3",
		  "ticks": 276967,
		  "time": 270.4755859375,
		  "velocity": 0.3937007874015748
		},
		{
		  "duration": 0.09375,
		  "durationTicks": 96,
		  "midi": 52,
		  "name": "E3",
		  "ticks": 277063,
		  "time": 270.5693359375,
		  "velocity": 0.3937007874015748
		},
		{
		  "duration": 0.0947265625,
		  "durationTicks": 97,
		  "midi": 56,
		  "name": "G#3",
		  "ticks": 277159,
		  "time": 270.6630859375,
		  "velocity": 0.3937007874015748
		},
		{
		  "duration": 0.28125,
		  "durationTicks": 288,
		  "midi": 64,
		  "name": "E4",
		  "ticks": 277244,
		  "time": 270.74609375,
		  "velocity": 0.3937007874015748
		},
		{
		  "duration": 0.09375,
		  "durationTicks": 96,
		  "midi": 49,
		  "name": "C#3",
		  "ticks": 277256,
		  "time": 270.7578125,
		  "velocity": 0.3937007874015748
		},
		{
		  "duration": 0.09375,
		  "durationTicks": 96,
		  "midi": 56,
		  "name": "G#3",
		  "ticks": 277352,
		  "time": 270.8515625,
		  "velocity": 0.3937007874015748
		},
		{
		  "duration": 0.09375,
		  "durationTicks": 96,
		  "midi": 52,
		  "name": "E3",
		  "ticks": 277448,
		  "time": 270.9453125,
		  "velocity": 0.3937007874015748
		},
		{
		  "duration": 0.09375,
		  "durationTicks": 96,
		  "midi": 61,
		  "name": "C#4",
		  "ticks": 277532,
		  "time": 271.02734375,
		  "velocity": 0.3937007874015748
		},
		{
		  "duration": 0.09375,
		  "durationTicks": 96,
		  "midi": 56,
		  "name": "G#3",
		  "ticks": 277544,
		  "time": 271.0390625,
		  "velocity": 0.3937007874015748
		},
		{
		  "duration": 0.09375,
		  "durationTicks": 96,
		  "midi": 51,
		  "name": "D#3",
		  "ticks": 277640,
		  "time": 271.1328125,
		  "velocity": 0.3937007874015748
		},
		{
		  "duration": 0.09375,
		  "durationTicks": 96,
		  "midi": 56,
		  "name": "G#3",
		  "ticks": 277740,
		  "time": 271.23046875,
		  "velocity": 0.3937007874015748
		},
		{
		  "duration": 0.28125,
		  "durationTicks": 288,
		  "midi": 61,
		  "name": "C#4",
		  "ticks": 277749,
		  "time": 271.2392578125,
		  "velocity": 0.3937007874015748
		},
		{
		  "duration": 0.09375,
		  "durationTicks": 96,
		  "midi": 54,
		  "name": "F#3",
		  "ticks": 277836,
		  "time": 271.32421875,
		  "velocity": 0.3937007874015748
		},
		{
		  "duration": 0.09375,
		  "durationTicks": 96,
		  "midi": 56,
		  "name": "G#3",
		  "ticks": 277932,
		  "time": 271.41796875,
		  "velocity": 0.3937007874015748
		},
		{
		  "duration": 0.5634765625,
		  "durationTicks": 577,
		  "midi": 60,
		  "name": "C4",
		  "ticks": 278004,
		  "time": 271.48828125,
		  "velocity": 0.3937007874015748
		},
		{
		  "duration": 0.0947265625,
		  "durationTicks": 97,
		  "midi": 51,
		  "name": "D#3",
		  "ticks": 278028,
		  "time": 271.51171875,
		  "velocity": 0.3937007874015748
		},
		{
		  "duration": 0.09375,
		  "durationTicks": 96,
		  "midi": 56,
		  "name": "G#3",
		  "ticks": 278121,
		  "time": 271.6025390625,
		  "velocity": 0.3937007874015748
		},
		{
		  "duration": 0.09375,
		  "durationTicks": 96,
		  "midi": 54,
		  "name": "F#3",
		  "ticks": 278217,
		  "time": 271.6962890625,
		  "velocity": 0.3937007874015748
		},
		{
		  "duration": 0.09375,
		  "durationTicks": 96,
		  "midi": 56,
		  "name": "G#3",
		  "ticks": 278313,
		  "time": 271.7900390625,
		  "velocity": 0.3937007874015748
		},
		{
		  "duration": 0.09375,
		  "durationTicks": 96,
		  "midi": 51,
		  "name": "D#3",
		  "ticks": 278409,
		  "time": 271.8837890625,
		  "velocity": 0.3937007874015748
		},
		{
		  "duration": 0.09375,
		  "durationTicks": 96,
		  "midi": 56,
		  "name": "G#3",
		  "ticks": 278505,
		  "time": 271.9775390625,
		  "velocity": 0.3937007874015748
		},
		{
		  "duration": 0.1875,
		  "durationTicks": 192,
		  "midi": 60,
		  "name": "C4",
		  "ticks": 278597,
		  "time": 272.0673828125,
		  "velocity": 0.3937007874015748
		},
		{
		  "duration": 0.09375,
		  "durationTicks": 96,
		  "midi": 54,
		  "name": "F#3",
		  "ticks": 278601,
		  "time": 272.0712890625,
		  "velocity": 0.3937007874015748
		},
		{
		  "duration": 0.09375,
		  "durationTicks": 96,
		  "midi": 56,
		  "name": "G#3",
		  "ticks": 278697,
		  "time": 272.1650390625,
		  "velocity": 0.3937007874015748
		},
		{
		  "duration": 0.28125,
		  "durationTicks": 288,
		  "midi": 68,
		  "name": "G#4",
		  "ticks": 278773,
		  "time": 272.2392578125,
		  "velocity": 0.3937007874015748
		},
		{
		  "duration": 0.09375,
		  "durationTicks": 96,
		  "midi": 51,
		  "name": "D#3",
		  "ticks": 278797,
		  "time": 272.2626953125,
		  "velocity": 0.3937007874015748
		},
		{
		  "duration": 0.09375,
		  "durationTicks": 96,
		  "midi": 56,
		  "name": "G#3",
		  "ticks": 278893,
		  "time": 272.3564453125,
		  "velocity": 0.3937007874015748
		},
		{
		  "duration": 0.09375,
		  "durationTicks": 96,
		  "midi": 54,
		  "name": "F#3",
		  "ticks": 278989,
		  "time": 272.4501953125,
		  "velocity": 0.3937007874015748
		},
		{
		  "duration": 0.09375,
		  "durationTicks": 96,
		  "midi": 60,
		  "name": "C4",
		  "ticks": 279061,
		  "time": 272.5205078125,
		  "velocity": 0.3937007874015748
		},
		{
		  "duration": 0.09375,
		  "durationTicks": 96,
		  "midi": 56,
		  "name": "G#3",
		  "ticks": 279085,
		  "time": 272.5439453125,
		  "velocity": 0.3937007874015748
		},
		{
		  "duration": 0.375,
		  "durationTicks": 384,
		  "midi": 63,
		  "name": "D#4",
		  "ticks": 279173,
		  "time": 272.6298828125,
		  "velocity": 0.3937007874015748
		},
		{
		  "duration": 0.09375,
		  "durationTicks": 96,
		  "midi": 52,
		  "name": "E3",
		  "ticks": 279177,
		  "time": 272.6337890625,
		  "velocity": 0.3937007874015748
		},
		{
		  "duration": 0.09375,
		  "durationTicks": 96,
		  "midi": 56,
		  "name": "G#3",
		  "ticks": 279273,
		  "time": 272.7275390625,
		  "velocity": 0.3937007874015748
		},
		{
		  "duration": 0.09375,
		  "durationTicks": 96,
		  "midi": 52,
		  "name": "E3",
		  "ticks": 279369,
		  "time": 272.8212890625,
		  "velocity": 0.3937007874015748
		},
		{
		  "duration": 0.09375,
		  "durationTicks": 96,
		  "midi": 56,
		  "name": "G#3",
		  "ticks": 279465,
		  "time": 272.9150390625,
		  "velocity": 0.3937007874015748
		},
		{
		  "duration": 0.5625,
		  "durationTicks": 576,
		  "midi": 61,
		  "name": "C#4",
		  "ticks": 279557,
		  "time": 273.0048828125,
		  "velocity": 0.3937007874015748
		},
		{
		  "duration": 0.09375,
		  "durationTicks": 96,
		  "midi": 52,
		  "name": "E3",
		  "ticks": 279561,
		  "time": 273.0087890625,
		  "velocity": 0.3937007874015748
		},
		{
		  "duration": 0.09375,
		  "durationTicks": 96,
		  "midi": 56,
		  "name": "G#3",
		  "ticks": 279657,
		  "time": 273.1025390625,
		  "velocity": 0.3937007874015748
		},
		{
		  "duration": 0.09375,
		  "durationTicks": 96,
		  "midi": 52,
		  "name": "E3",
		  "ticks": 279753,
		  "time": 273.1962890625,
		  "velocity": 0.3937007874015748
		},
		{
		  "duration": 0.09375,
		  "durationTicks": 96,
		  "midi": 56,
		  "name": "G#3",
		  "ticks": 279849,
		  "time": 273.2900390625,
		  "velocity": 0.3937007874015748
		},
		{
		  "duration": 0.09375,
		  "durationTicks": 96,
		  "midi": 52,
		  "name": "E3",
		  "ticks": 279949,
		  "time": 273.3876953125,
		  "velocity": 0.3937007874015748
		},
		{
		  "duration": 0.09375,
		  "durationTicks": 96,
		  "midi": 56,
		  "name": "G#3",
		  "ticks": 280045,
		  "time": 273.4814453125,
		  "velocity": 0.3937007874015748
		},
		{
		  "duration": 0.1875,
		  "durationTicks": 192,
		  "midi": 61,
		  "name": "C#4",
		  "ticks": 280133,
		  "time": 273.5673828125,
		  "velocity": 0.3937007874015748
		},
		{
		  "duration": 0.09375,
		  "durationTicks": 96,
		  "midi": 52,
		  "name": "E3",
		  "ticks": 280141,
		  "time": 273.5751953125,
		  "velocity": 0.3937007874015748
		},
		{
		  "duration": 0.09375,
		  "durationTicks": 96,
		  "midi": 56,
		  "name": "G#3",
		  "ticks": 280233,
		  "time": 273.6650390625,
		  "velocity": 0.3937007874015748
		},
		{
		  "duration": 0.28125,
		  "durationTicks": 288,
		  "midi": 68,
		  "name": "G#4",
		  "ticks": 280325,
		  "time": 273.7548828125,
		  "velocity": 0.3937007874015748
		},
		{
		  "duration": 0.09375,
		  "durationTicks": 96,
		  "midi": 52,
		  "name": "E3",
		  "ticks": 280329,
		  "time": 273.7587890625,
		  "velocity": 0.3937007874015748
		},
		{
		  "duration": 0.09375,
		  "durationTicks": 96,
		  "midi": 56,
		  "name": "G#3",
		  "ticks": 280425,
		  "time": 273.8525390625,
		  "velocity": 0.3937007874015748
		},
		{
		  "duration": 0.09375,
		  "durationTicks": 96,
		  "midi": 52,
		  "name": "E3",
		  "ticks": 280521,
		  "time": 273.9462890625,
		  "velocity": 0.3937007874015748
		},
		{
		  "duration": 0.09375,
		  "durationTicks": 96,
		  "midi": 61,
		  "name": "C#4",
		  "ticks": 280613,
		  "time": 274.0361328125,
		  "velocity": 0.3937007874015748
		},
		{
		  "duration": 0.09375,
		  "durationTicks": 96,
		  "midi": 56,
		  "name": "G#3",
		  "ticks": 280617,
		  "time": 274.0400390625,
		  "velocity": 0.3937007874015748
		},
		{
		  "duration": 0.375,
		  "durationTicks": 384,
		  "midi": 64,
		  "name": "E4",
		  "ticks": 280709,
		  "time": 274.1298828125,
		  "velocity": 0.3937007874015748
		},
		{
		  "duration": 0.09375,
		  "durationTicks": 96,
		  "midi": 48,
		  "name": "C3",
		  "ticks": 280713,
		  "time": 274.1337890625,
		  "velocity": 0.3937007874015748
		},
		{
		  "duration": 0.09375,
		  "durationTicks": 96,
		  "midi": 56,
		  "name": "G#3",
		  "ticks": 280809,
		  "time": 274.2275390625,
		  "velocity": 0.3937007874015748
		},
		{
		  "duration": 0.09375,
		  "durationTicks": 96,
		  "midi": 48,
		  "name": "C3",
		  "ticks": 280905,
		  "time": 274.3212890625,
		  "velocity": 0.3937007874015748
		},
		{
		  "duration": 0.09375,
		  "durationTicks": 96,
		  "midi": 56,
		  "name": "G#3",
		  "ticks": 281005,
		  "time": 274.4189453125,
		  "velocity": 0.3937007874015748
		},
		{
		  "duration": 0.5625,
		  "durationTicks": 576,
		  "midi": 63,
		  "name": "D#4",
		  "ticks": 281097,
		  "time": 274.5087890625,
		  "velocity": 0.3937007874015748
		},
		{
		  "duration": 0.09375,
		  "durationTicks": 96,
		  "midi": 48,
		  "name": "C3",
		  "ticks": 281101,
		  "time": 274.5126953125,
		  "velocity": 0.3937007874015748
		},
		{
		  "duration": 0.09375,
		  "durationTicks": 96,
		  "midi": 56,
		  "name": "G#3",
		  "ticks": 281197,
		  "time": 274.6064453125,
		  "velocity": 0.3937007874015748
		},
		{
		  "duration": 0.09375,
		  "durationTicks": 96,
		  "midi": 48,
		  "name": "C3",
		  "ticks": 281289,
		  "time": 274.6962890625,
		  "velocity": 0.3937007874015748
		},
		{
		  "duration": 0.09375,
		  "durationTicks": 96,
		  "midi": 56,
		  "name": "G#3",
		  "ticks": 281385,
		  "time": 274.7900390625,
		  "velocity": 0.3937007874015748
		},
		{
		  "duration": 0.09375,
		  "durationTicks": 96,
		  "midi": 48,
		  "name": "C3",
		  "ticks": 281481,
		  "time": 274.8837890625,
		  "velocity": 0.3937007874015748
		},
		{
		  "duration": 0.09375,
		  "durationTicks": 96,
		  "midi": 56,
		  "name": "G#3",
		  "ticks": 281577,
		  "time": 274.9775390625,
		  "velocity": 0.3937007874015748
		},
		{
		  "duration": 0.1875,
		  "durationTicks": 192,
		  "midi": 63,
		  "name": "D#4",
		  "ticks": 281669,
		  "time": 275.0673828125,
		  "velocity": 0.3937007874015748
		},
		{
		  "duration": 0.09375,
		  "durationTicks": 96,
		  "midi": 48,
		  "name": "C3",
		  "ticks": 281673,
		  "time": 275.0712890625,
		  "velocity": 0.3937007874015748
		},
		{
		  "duration": 0.09375,
		  "durationTicks": 96,
		  "midi": 56,
		  "name": "G#3",
		  "ticks": 281769,
		  "time": 275.1650390625,
		  "velocity": 0.3937007874015748
		},
		{
		  "duration": 0.28125,
		  "durationTicks": 288,
		  "midi": 68,
		  "name": "G#4",
		  "ticks": 281861,
		  "time": 275.2548828125,
		  "velocity": 0.3937007874015748
		},
		{
		  "duration": 0.09375,
		  "durationTicks": 96,
		  "midi": 48,
		  "name": "C3",
		  "ticks": 281865,
		  "time": 275.2587890625,
		  "velocity": 0.3937007874015748
		},
		{
		  "duration": 0.09375,
		  "durationTicks": 96,
		  "midi": 56,
		  "name": "G#3",
		  "ticks": 281961,
		  "time": 275.3525390625,
		  "velocity": 0.3937007874015748
		},
		{
		  "duration": 0.09375,
		  "durationTicks": 96,
		  "midi": 48,
		  "name": "C3",
		  "ticks": 282061,
		  "time": 275.4501953125,
		  "velocity": 0.3937007874015748
		},
		{
		  "duration": 0.09375,
		  "durationTicks": 96,
		  "midi": 63,
		  "name": "D#4",
		  "ticks": 282153,
		  "time": 275.5400390625,
		  "velocity": 0.3937007874015748
		},
		{
		  "duration": 0.09375,
		  "durationTicks": 96,
		  "midi": 56,
		  "name": "G#3",
		  "ticks": 282157,
		  "time": 275.5439453125,
		  "velocity": 0.3937007874015748
		},
		{
		  "duration": 0.1875,
		  "durationTicks": 192,
		  "midi": 64,
		  "name": "E4",
		  "ticks": 282249,
		  "time": 275.6337890625,
		  "velocity": 0.3937007874015748
		},
		{
		  "duration": 0.09375,
		  "durationTicks": 96,
		  "midi": 49,
		  "name": "C#3",
		  "ticks": 282253,
		  "time": 275.6376953125,
		  "velocity": 0.3937007874015748
		},
		{
		  "duration": 0.09375,
		  "durationTicks": 96,
		  "midi": 56,
		  "name": "G#3",
		  "ticks": 282345,
		  "time": 275.7275390625,
		  "velocity": 0.3937007874015748
		},
		{
		  "duration": 0.375,
		  "durationTicks": 384,
		  "midi": 80,
		  "name": "G#5",
		  "ticks": 282426,
		  "time": 275.806640625,
		  "velocity": 0.3937007874015748
		},
		{
		  "duration": 0.375,
		  "durationTicks": 384,
		  "midi": 68,
		  "name": "G#4",
		  "ticks": 282426,
		  "time": 275.806640625,
		  "velocity": 0.3937007874015748
		},
		{
		  "duration": 0.09375,
		  "durationTicks": 96,
		  "midi": 52,
		  "name": "E3",
		  "ticks": 282441,
		  "time": 275.8212890625,
		  "velocity": 0.3937007874015748
		},
		{
		  "duration": 0.09375,
		  "durationTicks": 96,
		  "midi": 56,
		  "name": "G#3",
		  "ticks": 282537,
		  "time": 275.9150390625,
		  "velocity": 0.3937007874015748
		},
		{
		  "duration": 0.09375,
		  "durationTicks": 96,
		  "midi": 49,
		  "name": "C#3",
		  "ticks": 282633,
		  "time": 276.0087890625,
		  "velocity": 0.3937007874015748
		},
		{
		  "duration": 0.0947265625,
		  "durationTicks": 97,
		  "midi": 56,
		  "name": "G#3",
		  "ticks": 282729,
		  "time": 276.1025390625,
		  "velocity": 0.3937007874015748
		},
		{
		  "duration": 0.375,
		  "durationTicks": 384,
		  "midi": 68,
		  "name": "G#4",
		  "ticks": 282822,
		  "time": 276.193359375,
		  "velocity": 0.3937007874015748
		},
		{
		  "duration": 0.375,
		  "durationTicks": 384,
		  "midi": 80,
		  "name": "G#5",
		  "ticks": 282822,
		  "time": 276.193359375,
		  "velocity": 0.3937007874015748
		},
		{
		  "duration": 0.09375,
		  "durationTicks": 96,
		  "midi": 52,
		  "name": "E3",
		  "ticks": 282826,
		  "time": 276.197265625,
		  "velocity": 0.3937007874015748
		},
		{
		  "duration": 0.09375,
		  "durationTicks": 96,
		  "midi": 56,
		  "name": "G#3",
		  "ticks": 282922,
		  "time": 276.291015625,
		  "velocity": 0.3937007874015748
		},
		{
		  "duration": 0.09375,
		  "durationTicks": 96,
		  "midi": 49,
		  "name": "C#3",
		  "ticks": 283018,
		  "time": 276.384765625,
		  "velocity": 0.3937007874015748
		},
		{
		  "duration": 0.09375,
		  "durationTicks": 96,
		  "midi": 56,
		  "name": "G#3",
		  "ticks": 283114,
		  "time": 276.478515625,
		  "velocity": 0.3937007874015748
		},
		{
		  "duration": 0.1875,
		  "durationTicks": 192,
		  "midi": 80,
		  "name": "G#5",
		  "ticks": 283210,
		  "time": 276.572265625,
		  "velocity": 0.3937007874015748
		},
		{
		  "duration": 0.1875,
		  "durationTicks": 192,
		  "midi": 68,
		  "name": "G#4",
		  "ticks": 283210,
		  "time": 276.572265625,
		  "velocity": 0.3937007874015748
		},
		{
		  "duration": 0.09375,
		  "durationTicks": 96,
		  "midi": 52,
		  "name": "E3",
		  "ticks": 283214,
		  "time": 276.576171875,
		  "velocity": 0.3937007874015748
		},
		{
		  "duration": 0.09375,
		  "durationTicks": 96,
		  "midi": 56,
		  "name": "G#3",
		  "ticks": 283310,
		  "time": 276.669921875,
		  "velocity": 0.3937007874015748
		},
		{
		  "duration": 0.09375,
		  "durationTicks": 96,
		  "midi": 64,
		  "name": "E4",
		  "ticks": 283382,
		  "time": 276.740234375,
		  "velocity": 0.3937007874015748
		},
		{
		  "duration": 0.09375,
		  "durationTicks": 96,
		  "midi": 76,
		  "name": "E5",
		  "ticks": 283382,
		  "time": 276.740234375,
		  "velocity": 0.3937007874015748
		},
		{
		  "duration": 0.09375,
		  "durationTicks": 96,
		  "midi": 49,
		  "name": "C#3",
		  "ticks": 283406,
		  "time": 276.763671875,
		  "velocity": 0.3937007874015748
		},
		{
		  "duration": 0.09375,
		  "durationTicks": 96,
		  "midi": 56,
		  "name": "G#3",
		  "ticks": 283498,
		  "time": 276.853515625,
		  "velocity": 0.3937007874015748
		},
		{
		  "duration": 0.09375,
		  "durationTicks": 96,
		  "midi": 73,
		  "name": "C#5",
		  "ticks": 283579,
		  "time": 276.9326171875,
		  "velocity": 0.3937007874015748
		},
		{
		  "duration": 0.09375,
		  "durationTicks": 96,
		  "midi": 61,
		  "name": "C#4",
		  "ticks": 283579,
		  "time": 276.9326171875,
		  "velocity": 0.3937007874015748
		},
		{
		  "duration": 0.09375,
		  "durationTicks": 96,
		  "midi": 52,
		  "name": "E3",
		  "ticks": 283594,
		  "time": 276.947265625,
		  "velocity": 0.3937007874015748
		},
		{
		  "duration": 0.09375,
		  "durationTicks": 96,
		  "midi": 56,
		  "name": "G#3",
		  "ticks": 283690,
		  "time": 277.041015625,
		  "velocity": 0.3937007874015748
		},
		{
		  "duration": 0.09375,
		  "durationTicks": 96,
		  "midi": 61,
		  "name": "C#4",
		  "ticks": 283771,
		  "time": 277.1201171875,
		  "velocity": 0.3937007874015748
		},
		{
		  "duration": 0.09375,
		  "durationTicks": 96,
		  "midi": 73,
		  "name": "C#5",
		  "ticks": 283771,
		  "time": 277.1201171875,
		  "velocity": 0.3937007874015748
		},
		{
		  "duration": 0.09375,
		  "durationTicks": 96,
		  "midi": 51,
		  "name": "D#3",
		  "ticks": 283786,
		  "time": 277.134765625,
		  "velocity": 0.3937007874015748
		},
		{
		  "duration": 0.09375,
		  "durationTicks": 96,
		  "midi": 56,
		  "name": "G#3",
		  "ticks": 283882,
		  "time": 277.228515625,
		  "velocity": 0.3937007874015748
		},
		{
		  "duration": 0.375,
		  "durationTicks": 384,
		  "midi": 72,
		  "name": "C5",
		  "ticks": 283958,
		  "time": 277.302734375,
		  "velocity": 0.3937007874015748
		},
		{
		  "duration": 0.375,
		  "durationTicks": 384,
		  "midi": 60,
		  "name": "C4",
		  "ticks": 283963,
		  "time": 277.3076171875,
		  "velocity": 0.3937007874015748
		},
		{
		  "duration": 0.09375,
		  "durationTicks": 96,
		  "midi": 54,
		  "name": "F#3",
		  "ticks": 283978,
		  "time": 277.322265625,
		  "velocity": 0.3937007874015748
		},
		{
		  "duration": 0.09375,
		  "durationTicks": 96,
		  "midi": 56,
		  "name": "G#3",
		  "ticks": 284074,
		  "time": 277.416015625,
		  "velocity": 0.3937007874015748
		},
		{
		  "duration": 0.09375,
		  "durationTicks": 96,
		  "midi": 51,
		  "name": "D#3",
		  "ticks": 284170,
		  "time": 277.509765625,
		  "velocity": 0.3937007874015748
		},
		{
		  "duration": 0.09375,
		  "durationTicks": 96,
		  "midi": 56,
		  "name": "G#3",
		  "ticks": 284270,
		  "time": 277.607421875,
		  "velocity": 0.3937007874015748
		},
		{
		  "duration": 0.375,
		  "durationTicks": 384,
		  "midi": 72,
		  "name": "C5",
		  "ticks": 284362,
		  "time": 277.697265625,
		  "velocity": 0.3937007874015748
		},
		{
		  "duration": 0.375,
		  "durationTicks": 384,
		  "midi": 60,
		  "name": "C4",
		  "ticks": 284362,
		  "time": 277.697265625,
		  "velocity": 0.3937007874015748
		},
		{
		  "duration": 0.09375,
		  "durationTicks": 96,
		  "midi": 54,
		  "name": "F#3",
		  "ticks": 284366,
		  "time": 277.701171875,
		  "velocity": 0.3937007874015748
		},
		{
		  "duration": 0.09375,
		  "durationTicks": 96,
		  "midi": 56,
		  "name": "G#3",
		  "ticks": 284462,
		  "time": 277.794921875,
		  "velocity": 0.3937007874015748
		},
		{
		  "duration": 0.09375,
		  "durationTicks": 96,
		  "midi": 51,
		  "name": "D#3",
		  "ticks": 284554,
		  "time": 277.884765625,
		  "velocity": 0.3937007874015748
		},
		{
		  "duration": 0.09375,
		  "durationTicks": 96,
		  "midi": 56,
		  "name": "G#3",
		  "ticks": 284650,
		  "time": 277.978515625,
		  "velocity": 0.3937007874015748
		},
		{
		  "duration": 0.1884765625,
		  "durationTicks": 193,
		  "midi": 72,
		  "name": "C5",
		  "ticks": 284742,
		  "time": 278.068359375,
		  "velocity": 0.3937007874015748
		},
		{
		  "duration": 0.1884765625,
		  "durationTicks": 193,
		  "midi": 60,
		  "name": "C4",
		  "ticks": 284746,
		  "time": 278.072265625,
		  "velocity": 0.3937007874015748
		},
		{
		  "duration": 0.09375,
		  "durationTicks": 96,
		  "midi": 54,
		  "name": "F#3",
		  "ticks": 284746,
		  "time": 278.072265625,
		  "velocity": 0.3937007874015748
		},
		{
		  "duration": 0.0947265625,
		  "durationTicks": 97,
		  "midi": 56,
		  "name": "G#3",
		  "ticks": 284842,
		  "time": 278.166015625,
		  "velocity": 0.3937007874015748
		},
		{
		  "duration": 0.0947265625,
		  "durationTicks": 97,
		  "midi": 80,
		  "name": "G#5",
		  "ticks": 284918,
		  "time": 278.240234375,
		  "velocity": 0.3937007874015748
		},
		{
		  "duration": 0.0947265625,
		  "durationTicks": 97,
		  "midi": 68,
		  "name": "G#4",
		  "ticks": 284923,
		  "time": 278.2451171875,
		  "velocity": 0.3937007874015748
		},
		{
		  "duration": 0.09375,
		  "durationTicks": 96,
		  "midi": 51,
		  "name": "D#3",
		  "ticks": 284939,
		  "time": 278.2607421875,
		  "velocity": 0.3937007874015748
		},
		{
		  "duration": 0.09375,
		  "durationTicks": 96,
		  "midi": 56,
		  "name": "G#3",
		  "ticks": 285035,
		  "time": 278.3544921875,
		  "velocity": 0.3937007874015748
		},
		{
		  "duration": 0.09375,
		  "durationTicks": 96,
		  "midi": 72,
		  "name": "C5",
		  "ticks": 285111,
		  "time": 278.4287109375,
		  "velocity": 0.3937007874015748
		},
		{
		  "duration": 0.09375,
		  "durationTicks": 96,
		  "midi": 60,
		  "name": "C4",
		  "ticks": 285116,
		  "time": 278.43359375,
		  "velocity": 0.3937007874015748
		},
		{
		  "duration": 0.09375,
		  "durationTicks": 96,
		  "midi": 54,
		  "name": "F#3",
		  "ticks": 285131,
		  "time": 278.4482421875,
		  "velocity": 0.3937007874015748
		},
		{
		  "duration": 0.09375,
		  "durationTicks": 96,
		  "midi": 56,
		  "name": "G#3",
		  "ticks": 285227,
		  "time": 278.5419921875,
		  "velocity": 0.3937007874015748
		},
		{
		  "duration": 0.09375,
		  "durationTicks": 96,
		  "midi": 75,
		  "name": "D#5",
		  "ticks": 285303,
		  "time": 278.6162109375,
		  "velocity": 0.3937007874015748
		},
		{
		  "duration": 0.09375,
		  "durationTicks": 96,
		  "midi": 63,
		  "name": "D#4",
		  "ticks": 285308,
		  "time": 278.62109375,
		  "velocity": 0.3937007874015748
		},
		{
		  "duration": 0.09375,
		  "durationTicks": 96,
		  "midi": 52,
		  "name": "E3",
		  "ticks": 285327,
		  "time": 278.6396484375,
		  "velocity": 0.3937007874015748
		},
		{
		  "duration": 0.09375,
		  "durationTicks": 96,
		  "midi": 56,
		  "name": "G#3",
		  "ticks": 285423,
		  "time": 278.7333984375,
		  "velocity": 0.3937007874015748
		},
		{
		  "duration": 0.375,
		  "durationTicks": 384,
		  "midi": 61,
		  "name": "C#4",
		  "ticks": 285495,
		  "time": 278.8037109375,
		  "velocity": 0.3937007874015748
		},
		{
		  "duration": 0.375,
		  "durationTicks": 384,
		  "midi": 73,
		  "name": "C#5",
		  "ticks": 285495,
		  "time": 278.8037109375,
		  "velocity": 0.3937007874015748
		},
		{
		  "duration": 0.09375,
		  "durationTicks": 96,
		  "midi": 52,
		  "name": "E3",
		  "ticks": 285519,
		  "time": 278.8271484375,
		  "velocity": 0.3937007874015748
		},
		{
		  "duration": 0.09375,
		  "durationTicks": 96,
		  "midi": 56,
		  "name": "G#3",
		  "ticks": 285611,
		  "time": 278.9169921875,
		  "velocity": 0.3937007874015748
		},
		{
		  "duration": 0.09375,
		  "durationTicks": 96,
		  "midi": 52,
		  "name": "E3",
		  "ticks": 285707,
		  "time": 279.0107421875,
		  "velocity": 0.3937007874015748
		},
		{
		  "duration": 0.09375,
		  "durationTicks": 96,
		  "midi": 56,
		  "name": "G#3",
		  "ticks": 285803,
		  "time": 279.1044921875,
		  "velocity": 0.3937007874015748
		},
		{
		  "duration": 0.375,
		  "durationTicks": 384,
		  "midi": 73,
		  "name": "C#5",
		  "ticks": 285895,
		  "time": 279.1943359375,
		  "velocity": 0.3937007874015748
		},
		{
		  "duration": 0.375,
		  "durationTicks": 384,
		  "midi": 61,
		  "name": "C#4",
		  "ticks": 285899,
		  "time": 279.1982421875,
		  "velocity": 0.3937007874015748
		},
		{
		  "duration": 0.09375,
		  "durationTicks": 96,
		  "midi": 52,
		  "name": "E3",
		  "ticks": 285899,
		  "time": 279.1982421875,
		  "velocity": 0.3937007874015748
		},
		{
		  "duration": 0.09375,
		  "durationTicks": 96,
		  "midi": 56,
		  "name": "G#3",
		  "ticks": 285995,
		  "time": 279.2919921875,
		  "velocity": 0.3937007874015748
		},
		{
		  "duration": 0.09375,
		  "durationTicks": 96,
		  "midi": 52,
		  "name": "E3",
		  "ticks": 286091,
		  "time": 279.3857421875,
		  "velocity": 0.3937007874015748
		},
		{
		  "duration": 0.09375,
		  "durationTicks": 96,
		  "midi": 56,
		  "name": "G#3",
		  "ticks": 286187,
		  "time": 279.4794921875,
		  "velocity": 0.3937007874015748
		},
		{
		  "duration": 0.1875,
		  "durationTicks": 192,
		  "midi": 61,
		  "name": "C#4",
		  "ticks": 286279,
		  "time": 279.5693359375,
		  "velocity": 0.3937007874015748
		},
		{
		  "duration": 0.1875,
		  "durationTicks": 192,
		  "midi": 73,
		  "name": "C#5",
		  "ticks": 286279,
		  "time": 279.5693359375,
		  "velocity": 0.3937007874015748
		},
		{
		  "duration": 0.09375,
		  "durationTicks": 96,
		  "midi": 52,
		  "name": "E3",
		  "ticks": 286283,
		  "time": 279.5732421875,
		  "velocity": 0.3937007874015748
		},
		{
		  "duration": 0.09375,
		  "durationTicks": 96,
		  "midi": 56,
		  "name": "G#3",
		  "ticks": 286379,
		  "time": 279.6669921875,
		  "velocity": 0.3937007874015748
		},
		{
		  "duration": 0.09375,
		  "durationTicks": 96,
		  "midi": 68,
		  "name": "G#4",
		  "ticks": 286455,
		  "time": 279.7412109375,
		  "velocity": 0.3937007874015748
		},
		{
		  "duration": 0.09375,
		  "durationTicks": 96,
		  "midi": 80,
		  "name": "G#5",
		  "ticks": 286455,
		  "time": 279.7412109375,
		  "velocity": 0.3937007874015748
		},
		{
		  "duration": 0.09375,
		  "durationTicks": 96,
		  "midi": 52,
		  "name": "E3",
		  "ticks": 286479,
		  "time": 279.7646484375,
		  "velocity": 0.3937007874015748
		},
		{
		  "duration": 0.09375,
		  "durationTicks": 96,
		  "midi": 56,
		  "name": "G#3",
		  "ticks": 286575,
		  "time": 279.8583984375,
		  "velocity": 0.3937007874015748
		},
		{
		  "duration": 0.09375,
		  "durationTicks": 96,
		  "midi": 61,
		  "name": "C#4",
		  "ticks": 286647,
		  "time": 279.9287109375,
		  "velocity": 0.3937007874015748
		},
		{
		  "duration": 0.09375,
		  "durationTicks": 96,
		  "midi": 73,
		  "name": "C#5",
		  "ticks": 286647,
		  "time": 279.9287109375,
		  "velocity": 0.3937007874015748
		},
		{
		  "duration": 0.09375,
		  "durationTicks": 96,
		  "midi": 52,
		  "name": "E3",
		  "ticks": 286671,
		  "time": 279.9521484375,
		  "velocity": 0.3937007874015748
		},
		{
		  "duration": 0.09375,
		  "durationTicks": 96,
		  "midi": 56,
		  "name": "G#3",
		  "ticks": 286763,
		  "time": 280.0419921875,
		  "velocity": 0.3937007874015748
		},
		{
		  "duration": 0.09375,
		  "durationTicks": 96,
		  "midi": 64,
		  "name": "E4",
		  "ticks": 286844,
		  "time": 280.12109375,
		  "velocity": 0.3937007874015748
		},
		{
		  "duration": 0.09375,
		  "durationTicks": 96,
		  "midi": 76,
		  "name": "E5",
		  "ticks": 286844,
		  "time": 280.12109375,
		  "velocity": 0.3937007874015748
		},
		{
		  "duration": 0.09375,
		  "durationTicks": 96,
		  "midi": 48,
		  "name": "C3",
		  "ticks": 286859,
		  "time": 280.1357421875,
		  "velocity": 0.3937007874015748
		},
		{
		  "duration": 0.09375,
		  "durationTicks": 96,
		  "midi": 56,
		  "name": "G#3",
		  "ticks": 286955,
		  "time": 280.2294921875,
		  "velocity": 0.3937007874015748
		},
		{
		  "duration": 0.375,
		  "durationTicks": 384,
		  "midi": 63,
		  "name": "D#4",
		  "ticks": 287036,
		  "time": 280.30859375,
		  "velocity": 0.3937007874015748
		},
		{
		  "duration": 0.375,
		  "durationTicks": 384,
		  "midi": 75,
		  "name": "D#5",
		  "ticks": 287036,
		  "time": 280.30859375,
		  "velocity": 0.3937007874015748
		},
		{
		  "duration": 0.09375,
		  "durationTicks": 96,
		  "midi": 48,
		  "name": "C3",
		  "ticks": 287051,
		  "time": 280.3232421875,
		  "velocity": 0.3937007874015748
		},
		{
		  "duration": 0.09375,
		  "durationTicks": 96,
		  "midi": 56,
		  "name": "G#3",
		  "ticks": 287147,
		  "time": 280.4169921875,
		  "velocity": 0.3937007874015748
		},
		{
		  "duration": 0.09375,
		  "durationTicks": 96,
		  "midi": 48,
		  "name": "C3",
		  "ticks": 287243,
		  "time": 280.5107421875,
		  "velocity": 0.3937007874015748
		},
		{
		  "duration": 0.0947265625,
		  "durationTicks": 97,
		  "midi": 56,
		  "name": "G#3",
		  "ticks": 287339,
		  "time": 280.6044921875,
		  "velocity": 0.3937007874015748
		},
		{
		  "duration": 0.375,
		  "durationTicks": 384,
		  "midi": 63,
		  "name": "D#4",
		  "ticks": 287432,
		  "time": 280.6953125,
		  "velocity": 0.3937007874015748
		},
		{
		  "duration": 0.375,
		  "durationTicks": 384,
		  "midi": 75,
		  "name": "D#5",
		  "ticks": 287432,
		  "time": 280.6953125,
		  "velocity": 0.3937007874015748
		},
		{
		  "duration": 0.09375,
		  "durationTicks": 96,
		  "midi": 48,
		  "name": "C3",
		  "ticks": 287436,
		  "time": 280.69921875,
		  "velocity": 0.3937007874015748
		},
		{
		  "duration": 0.09375,
		  "durationTicks": 96,
		  "midi": 56,
		  "name": "G#3",
		  "ticks": 287536,
		  "time": 280.796875,
		  "velocity": 0.3937007874015748
		},
		{
		  "duration": 0.09375,
		  "durationTicks": 96,
		  "midi": 48,
		  "name": "C3",
		  "ticks": 287632,
		  "time": 280.890625,
		  "velocity": 0.3937007874015748
		},
		{
		  "duration": 0.09375,
		  "durationTicks": 96,
		  "midi": 56,
		  "name": "G#3",
		  "ticks": 287728,
		  "time": 280.984375,
		  "velocity": 0.3937007874015748
		},
		{
		  "duration": 0.1884765625,
		  "durationTicks": 193,
		  "midi": 75,
		  "name": "D#5",
		  "ticks": 287816,
		  "time": 281.0703125,
		  "velocity": 0.3937007874015748
		},
		{
		  "duration": 0.1884765625,
		  "durationTicks": 193,
		  "midi": 63,
		  "name": "D#4",
		  "ticks": 287820,
		  "time": 281.07421875,
		  "velocity": 0.3937007874015748
		},
		{
		  "duration": 0.09375,
		  "durationTicks": 96,
		  "midi": 48,
		  "name": "C3",
		  "ticks": 287824,
		  "time": 281.078125,
		  "velocity": 0.3937007874015748
		},
		{
		  "duration": 0.0947265625,
		  "durationTicks": 97,
		  "midi": 56,
		  "name": "G#3",
		  "ticks": 287916,
		  "time": 281.16796875,
		  "velocity": 0.3937007874015748
		},
		{
		  "duration": 0.0947265625,
		  "durationTicks": 97,
		  "midi": 68,
		  "name": "G#4",
		  "ticks": 287997,
		  "time": 281.2470703125,
		  "velocity": 0.3937007874015748
		},
		{
		  "duration": 0.0947265625,
		  "durationTicks": 97,
		  "midi": 80,
		  "name": "G#5",
		  "ticks": 287997,
		  "time": 281.2470703125,
		  "velocity": 0.3937007874015748
		},
		{
		  "duration": 0.09375,
		  "durationTicks": 96,
		  "midi": 48,
		  "name": "C3",
		  "ticks": 288013,
		  "time": 281.2626953125,
		  "velocity": 0.3937007874015748
		},
		{
		  "duration": 0.09375,
		  "durationTicks": 96,
		  "midi": 56,
		  "name": "G#3",
		  "ticks": 288109,
		  "time": 281.3564453125,
		  "velocity": 0.3937007874015748
		},
		{
		  "duration": 0.09375,
		  "durationTicks": 96,
		  "midi": 75,
		  "name": "D#5",
		  "ticks": 288185,
		  "time": 281.4306640625,
		  "velocity": 0.3937007874015748
		},
		{
		  "duration": 0.09375,
		  "durationTicks": 96,
		  "midi": 63,
		  "name": "D#4",
		  "ticks": 288190,
		  "time": 281.435546875,
		  "velocity": 0.3937007874015748
		},
		{
		  "duration": 0.09375,
		  "durationTicks": 96,
		  "midi": 48,
		  "name": "C3",
		  "ticks": 288205,
		  "time": 281.4501953125,
		  "velocity": 0.3937007874015748
		},
		{
		  "duration": 0.09375,
		  "durationTicks": 96,
		  "midi": 56,
		  "name": "G#3",
		  "ticks": 288301,
		  "time": 281.5439453125,
		  "velocity": 0.3937007874015748
		},
		{
		  "duration": 0.75,
		  "durationTicks": 768,
		  "midi": 77,
		  "name": "F5",
		  "ticks": 288377,
		  "time": 281.6181640625,
		  "velocity": 0.3937007874015748
		},
		{
		  "duration": 0.75,
		  "durationTicks": 768,
		  "midi": 65,
		  "name": "F4",
		  "ticks": 288382,
		  "time": 281.623046875,
		  "velocity": 0.3937007874015748
		},
		{
		  "duration": 0.09375,
		  "durationTicks": 96,
		  "midi": 47,
		  "name": "B2",
		  "ticks": 288397,
		  "time": 281.6376953125,
		  "velocity": 0.3937007874015748
		},
		{
		  "duration": 0.09375,
		  "durationTicks": 96,
		  "midi": 56,
		  "name": "G#3",
		  "ticks": 288493,
		  "time": 281.7314453125,
		  "velocity": 0.3937007874015748
		},
		{
		  "duration": 0.09375,
		  "durationTicks": 96,
		  "midi": 49,
		  "name": "C#3",
		  "ticks": 288593,
		  "time": 281.8291015625,
		  "velocity": 0.3937007874015748
		},
		{
		  "duration": 0.09375,
		  "durationTicks": 96,
		  "midi": 56,
		  "name": "G#3",
		  "ticks": 288689,
		  "time": 281.9228515625,
		  "velocity": 0.3937007874015748
		},
		{
		  "duration": 0.09375,
		  "durationTicks": 96,
		  "midi": 47,
		  "name": "B2",
		  "ticks": 288785,
		  "time": 282.0166015625,
		  "velocity": 0.3937007874015748
		},
		{
		  "duration": 0.09375,
		  "durationTicks": 96,
		  "midi": 56,
		  "name": "G#3",
		  "ticks": 288877,
		  "time": 282.1064453125,
		  "velocity": 0.3937007874015748
		},
		{
		  "duration": 0.09375,
		  "durationTicks": 96,
		  "midi": 49,
		  "name": "C#3",
		  "ticks": 288973,
		  "time": 282.2001953125,
		  "velocity": 0.3937007874015748
		},
		{
		  "duration": 0.0947265625,
		  "durationTicks": 97,
		  "midi": 56,
		  "name": "G#3",
		  "ticks": 289069,
		  "time": 282.2939453125,
		  "velocity": 0.3937007874015748
		},
		{
		  "duration": 0.75,
		  "durationTicks": 768,
		  "midi": 78,
		  "name": "F#5",
		  "ticks": 289162,
		  "time": 282.384765625,
		  "velocity": 0.3937007874015748
		},
		{
		  "duration": 0.75,
		  "durationTicks": 768,
		  "midi": 66,
		  "name": "F#4",
		  "ticks": 289166,
		  "time": 282.388671875,
		  "velocity": 0.3937007874015748
		},
		{
		  "duration": 0.09375,
		  "durationTicks": 96,
		  "midi": 45,
		  "name": "A2",
		  "ticks": 289166,
		  "time": 282.388671875,
		  "velocity": 0.3937007874015748
		},
		{
		  "duration": 0.09375,
		  "durationTicks": 96,
		  "midi": 54,
		  "name": "F#3",
		  "ticks": 289262,
		  "time": 282.482421875,
		  "velocity": 0.3937007874015748
		},
		{
		  "duration": 0.09375,
		  "durationTicks": 96,
		  "midi": 49,
		  "name": "C#3",
		  "ticks": 289358,
		  "time": 282.576171875,
		  "velocity": 0.3937007874015748
		},
		{
		  "duration": 0.09375,
		  "durationTicks": 96,
		  "midi": 54,
		  "name": "F#3",
		  "ticks": 289454,
		  "time": 282.669921875,
		  "velocity": 0.3937007874015748
		},
		{
		  "duration": 0.09375,
		  "durationTicks": 96,
		  "midi": 45,
		  "name": "A2",
		  "ticks": 289550,
		  "time": 282.763671875,
		  "velocity": 0.3937007874015748
		},
		{
		  "duration": 0.09375,
		  "durationTicks": 96,
		  "midi": 54,
		  "name": "F#3",
		  "ticks": 289650,
		  "time": 282.861328125,
		  "velocity": 0.3937007874015748
		},
		{
		  "duration": 0.09375,
		  "durationTicks": 96,
		  "midi": 49,
		  "name": "C#3",
		  "ticks": 289746,
		  "time": 282.955078125,
		  "velocity": 0.3937007874015748
		},
		{
		  "duration": 0.09375,
		  "durationTicks": 96,
		  "midi": 54,
		  "name": "F#3",
		  "ticks": 289842,
		  "time": 283.048828125,
		  "velocity": 0.3937007874015748
		},
		{
		  "duration": 0.375,
		  "durationTicks": 384,
		  "midi": 63,
		  "name": "D#4",
		  "ticks": 289934,
		  "time": 283.138671875,
		  "velocity": 0.3937007874015748
		},
		{
		  "duration": 0.09375,
		  "durationTicks": 96,
		  "midi": 45,
		  "name": "A2",
		  "ticks": 289938,
		  "time": 283.142578125,
		  "velocity": 0.3937007874015748
		},
		{
		  "duration": 0.09375,
		  "durationTicks": 96,
		  "midi": 54,
		  "name": "F#3",
		  "ticks": 290030,
		  "time": 283.232421875,
		  "velocity": 0.3937007874015748
		},
		{
		  "duration": 0.09375,
		  "durationTicks": 96,
		  "midi": 47,
		  "name": "B2",
		  "ticks": 290126,
		  "time": 283.326171875,
		  "velocity": 0.3937007874015748
		},
		{
		  "duration": 0.09375,
		  "durationTicks": 96,
		  "midi": 54,
		  "name": "F#3",
		  "ticks": 290222,
		  "time": 283.419921875,
		  "velocity": 0.3937007874015748
		},
		{
		  "duration": 1.125,
		  "durationTicks": 1152,
		  "midi": 64,
		  "name": "E4",
		  "ticks": 290298,
		  "time": 283.494140625,
		  "velocity": 0.3937007874015748
		},
		{
		  "duration": 1.125,
		  "durationTicks": 1152,
		  "midi": 76,
		  "name": "E5",
		  "ticks": 290303,
		  "time": 283.4990234375,
		  "velocity": 0.3937007874015748
		},
		{
		  "duration": 0.09375,
		  "durationTicks": 96,
		  "midi": 44,
		  "name": "G#2",
		  "ticks": 290318,
		  "time": 283.513671875,
		  "velocity": 0.3937007874015748
		},
		{
		  "duration": 0.09375,
		  "durationTicks": 96,
		  "midi": 52,
		  "name": "E3",
		  "ticks": 290414,
		  "time": 283.607421875,
		  "velocity": 0.3937007874015748
		},
		{
		  "duration": 0.09375,
		  "durationTicks": 96,
		  "midi": 47,
		  "name": "B2",
		  "ticks": 290510,
		  "time": 283.701171875,
		  "velocity": 0.3937007874015748
		},
		{
		  "duration": 0.09375,
		  "durationTicks": 96,
		  "midi": 52,
		  "name": "E3",
		  "ticks": 290606,
		  "time": 283.794921875,
		  "velocity": 0.3937007874015748
		},
		{
		  "duration": 0.09375,
		  "durationTicks": 96,
		  "midi": 44,
		  "name": "G#2",
		  "ticks": 290702,
		  "time": 283.888671875,
		  "velocity": 0.3937007874015748
		},
		{
		  "duration": 0.09375,
		  "durationTicks": 96,
		  "midi": 52,
		  "name": "E3",
		  "ticks": 290802,
		  "time": 283.986328125,
		  "velocity": 0.3937007874015748
		},
		{
		  "duration": 0.09375,
		  "durationTicks": 96,
		  "midi": 47,
		  "name": "B2",
		  "ticks": 290898,
		  "time": 284.080078125,
		  "velocity": 0.3937007874015748
		},
		{
		  "duration": 0.09375,
		  "durationTicks": 96,
		  "midi": 52,
		  "name": "E3",
		  "ticks": 290994,
		  "time": 284.173828125,
		  "velocity": 0.3937007874015748
		},
		{
		  "duration": 0.09375,
		  "durationTicks": 96,
		  "midi": 44,
		  "name": "G#2",
		  "ticks": 291086,
		  "time": 284.263671875,
		  "velocity": 0.3937007874015748
		},
		{
		  "duration": 0.09375,
		  "durationTicks": 96,
		  "midi": 52,
		  "name": "E3",
		  "ticks": 291182,
		  "time": 284.357421875,
		  "velocity": 0.3937007874015748
		},
		{
		  "duration": 0.09375,
		  "durationTicks": 96,
		  "midi": 47,
		  "name": "B2",
		  "ticks": 291278,
		  "time": 284.451171875,
		  "velocity": 0.3937007874015748
		},
		{
		  "duration": 0.0947265625,
		  "durationTicks": 97,
		  "midi": 52,
		  "name": "E3",
		  "ticks": 291374,
		  "time": 284.544921875,
		  "velocity": 0.3937007874015748
		},
		{
		  "duration": 0.75,
		  "durationTicks": 768,
		  "midi": 61,
		  "name": "C#4",
		  "ticks": 291467,
		  "time": 284.6357421875,
		  "velocity": 0.3937007874015748
		},
		{
		  "duration": 0.75,
		  "durationTicks": 768,
		  "midi": 73,
		  "name": "C#5",
		  "ticks": 291467,
		  "time": 284.6357421875,
		  "velocity": 0.3937007874015748
		},
		{
		  "duration": 0.09375,
		  "durationTicks": 96,
		  "midi": 43,
		  "name": "G2",
		  "ticks": 291471,
		  "time": 284.6396484375,
		  "velocity": 0.3937007874015748
		},
		{
		  "duration": 0.09375,
		  "durationTicks": 96,
		  "midi": 52,
		  "name": "E3",
		  "ticks": 291567,
		  "time": 284.7333984375,
		  "velocity": 0.3937007874015748
		},
		{
		  "duration": 0.09375,
		  "durationTicks": 96,
		  "midi": 45,
		  "name": "A2",
		  "ticks": 291663,
		  "time": 284.8271484375,
		  "velocity": 0.3937007874015748
		},
		{
		  "duration": 0.09375,
		  "durationTicks": 96,
		  "midi": 52,
		  "name": "E3",
		  "ticks": 291759,
		  "time": 284.9208984375,
		  "velocity": 0.3937007874015748
		},
		{
		  "duration": 0.09375,
		  "durationTicks": 96,
		  "midi": 43,
		  "name": "G2",
		  "ticks": 291859,
		  "time": 285.0185546875,
		  "velocity": 0.3937007874015748
		},
		{
		  "duration": 0.09375,
		  "durationTicks": 96,
		  "midi": 52,
		  "name": "E3",
		  "ticks": 291955,
		  "time": 285.1123046875,
		  "velocity": 0.3937007874015748
		},
		{
		  "duration": 0.09375,
		  "durationTicks": 96,
		  "midi": 45,
		  "name": "A2",
		  "ticks": 292051,
		  "time": 285.2060546875,
		  "velocity": 0.3937007874015748
		},
		{
		  "duration": 0.09375,
		  "durationTicks": 96,
		  "midi": 52,
		  "name": "E3",
		  "ticks": 292143,
		  "time": 285.2958984375,
		  "velocity": 0.3937007874015748
		},
		{
		  "duration": 0.75,
		  "durationTicks": 768,
		  "midi": 74,
		  "name": "D5",
		  "ticks": 292235,
		  "time": 285.3857421875,
		  "velocity": 0.3937007874015748
		},
		{
		  "duration": 0.75,
		  "durationTicks": 768,
		  "midi": 62,
		  "name": "D4",
		  "ticks": 292239,
		  "time": 285.3896484375,
		  "velocity": 0.3937007874015748
		},
		{
		  "duration": 0.09375,
		  "durationTicks": 96,
		  "midi": 42,
		  "name": "F#2",
		  "ticks": 292239,
		  "time": 285.3896484375,
		  "velocity": 0.3937007874015748
		},
		{
		  "duration": 0.09375,
		  "durationTicks": 96,
		  "midi": 50,
		  "name": "D3",
		  "ticks": 292335,
		  "time": 285.4833984375,
		  "velocity": 0.3937007874015748
		},
		{
		  "duration": 0.09375,
		  "durationTicks": 96,
		  "midi": 45,
		  "name": "A2",
		  "ticks": 292431,
		  "time": 285.5771484375,
		  "velocity": 0.3937007874015748
		},
		{
		  "duration": 0.09375,
		  "durationTicks": 96,
		  "midi": 50,
		  "name": "D3",
		  "ticks": 292527,
		  "time": 285.6708984375,
		  "velocity": 0.3937007874015748
		},
		{
		  "duration": 0.09375,
		  "durationTicks": 96,
		  "midi": 42,
		  "name": "F#2",
		  "ticks": 292623,
		  "time": 285.7646484375,
		  "velocity": 0.3937007874015748
		},
		{
		  "duration": 0.09375,
		  "durationTicks": 96,
		  "midi": 50,
		  "name": "D3",
		  "ticks": 292719,
		  "time": 285.8583984375,
		  "velocity": 0.3937007874015748
		},
		{
		  "duration": 0.09375,
		  "durationTicks": 96,
		  "midi": 45,
		  "name": "A2",
		  "ticks": 292815,
		  "time": 285.9521484375,
		  "velocity": 0.3937007874015748
		},
		{
		  "duration": 0.09375,
		  "durationTicks": 96,
		  "midi": 50,
		  "name": "D3",
		  "ticks": 292915,
		  "time": 286.0498046875,
		  "velocity": 0.3937007874015748
		},
		{
		  "duration": 0.375,
		  "durationTicks": 384,
		  "midi": 60,
		  "name": "C4",
		  "ticks": 293007,
		  "time": 286.1396484375,
		  "velocity": 0.3937007874015748
		},
		{
		  "duration": 0.09375,
		  "durationTicks": 96,
		  "midi": 42,
		  "name": "F#2",
		  "ticks": 293007,
		  "time": 286.1396484375,
		  "velocity": 0.3937007874015748
		},
		{
		  "duration": 0.09375,
		  "durationTicks": 96,
		  "midi": 51,
		  "name": "D#3",
		  "ticks": 293107,
		  "time": 286.2373046875,
		  "velocity": 0.3937007874015748
		},
		{
		  "duration": 0.09375,
		  "durationTicks": 96,
		  "midi": 44,
		  "name": "G#2",
		  "ticks": 293203,
		  "time": 286.3310546875,
		  "velocity": 0.3937007874015748
		},
		{
		  "duration": 0.09375,
		  "durationTicks": 96,
		  "midi": 51,
		  "name": "D#3",
		  "ticks": 293295,
		  "time": 286.4208984375,
		  "velocity": 0.3937007874015748
		},
		{
		  "duration": 1.125,
		  "durationTicks": 1152,
		  "midi": 73,
		  "name": "C#5",
		  "ticks": 293387,
		  "time": 286.5107421875,
		  "velocity": 0.3937007874015748
		},
		{
		  "duration": 1.125,
		  "durationTicks": 1152,
		  "midi": 61,
		  "name": "C#4",
		  "ticks": 293391,
		  "time": 286.5146484375,
		  "velocity": 0.3937007874015748
		},
		{
		  "duration": 0.09375,
		  "durationTicks": 96,
		  "midi": 40,
		  "name": "E2",
		  "ticks": 293391,
		  "time": 286.5146484375,
		  "velocity": 0.3937007874015748
		},
		{
		  "duration": 0.09375,
		  "durationTicks": 96,
		  "midi": 49,
		  "name": "C#3",
		  "ticks": 293487,
		  "time": 286.6083984375,
		  "velocity": 0.3937007874015748
		},
		{
		  "duration": 0.09375,
		  "durationTicks": 96,
		  "midi": 44,
		  "name": "G#2",
		  "ticks": 293583,
		  "time": 286.7021484375,
		  "velocity": 0.3937007874015748
		},
		{
		  "duration": 0.09375,
		  "durationTicks": 96,
		  "midi": 49,
		  "name": "C#3",
		  "ticks": 293679,
		  "time": 286.7958984375,
		  "velocity": 0.3937007874015748
		},
		{
		  "duration": 0.09375,
		  "durationTicks": 96,
		  "midi": 40,
		  "name": "E2",
		  "ticks": 293775,
		  "time": 286.8896484375,
		  "velocity": 0.3937007874015748
		},
		{
		  "duration": 0.09375,
		  "durationTicks": 96,
		  "midi": 49,
		  "name": "C#3",
		  "ticks": 293871,
		  "time": 286.9833984375,
		  "velocity": 0.3937007874015748
		},
		{
		  "duration": 0.09375,
		  "durationTicks": 96,
		  "midi": 44,
		  "name": "G#2",
		  "ticks": 293967,
		  "time": 287.0771484375,
		  "velocity": 0.3937007874015748
		},
		{
		  "duration": 0.09375,
		  "durationTicks": 96,
		  "midi": 49,
		  "name": "C#3",
		  "ticks": 294063,
		  "time": 287.1708984375,
		  "velocity": 0.3937007874015748
		},
		{
		  "duration": 0.09375,
		  "durationTicks": 96,
		  "midi": 40,
		  "name": "E2",
		  "ticks": 294163,
		  "time": 287.2685546875,
		  "velocity": 0.3937007874015748
		},
		{
		  "duration": 0.09375,
		  "durationTicks": 96,
		  "midi": 49,
		  "name": "C#3",
		  "ticks": 294259,
		  "time": 287.3623046875,
		  "velocity": 0.3937007874015748
		},
		{
		  "duration": 0.09375,
		  "durationTicks": 96,
		  "midi": 44,
		  "name": "G#2",
		  "ticks": 294351,
		  "time": 287.4521484375,
		  "velocity": 0.3937007874015748
		},
		{
		  "duration": 0.09375,
		  "durationTicks": 96,
		  "midi": 49,
		  "name": "C#3",
		  "ticks": 294447,
		  "time": 287.5458984375,
		  "velocity": 0.3937007874015748
		},
		{
		  "duration": 1.125,
		  "durationTicks": 1152,
		  "midi": 42,
		  "name": "F#2",
		  "ticks": 294531,
		  "time": 287.6279296875,
		  "velocity": 0.3937007874015748
		},
		{
		  "duration": 1.125,
		  "durationTicks": 1152,
		  "midi": 54,
		  "name": "F#3",
		  "ticks": 294531,
		  "time": 287.6279296875,
		  "velocity": 0.3937007874015748
		},
		{
		  "duration": 1.125,
		  "durationTicks": 1152,
		  "midi": 50,
		  "name": "D3",
		  "ticks": 294531,
		  "time": 287.6279296875,
		  "velocity": 0.3937007874015748
		},
		{
		  "duration": 1.125,
		  "durationTicks": 1152,
		  "midi": 45,
		  "name": "A2",
		  "ticks": 294531,
		  "time": 287.6279296875,
		  "velocity": 0.3937007874015748
		},
		{
		  "duration": 0.84375,
		  "durationTicks": 864,
		  "midi": 74,
		  "name": "D5",
		  "ticks": 294539,
		  "time": 287.6357421875,
		  "velocity": 0.3937007874015748
		},
		{
		  "duration": 0.84375,
		  "durationTicks": 864,
		  "midi": 66,
		  "name": "F#4",
		  "ticks": 294543,
		  "time": 287.6396484375,
		  "velocity": 0.3937007874015748
		},
		{
		  "duration": 0.84375,
		  "durationTicks": 864,
		  "midi": 69,
		  "name": "A4",
		  "ticks": 294543,
		  "time": 287.6396484375,
		  "velocity": 0.3937007874015748
		},
		{
		  "duration": 0.84375,
		  "durationTicks": 864,
		  "midi": 62,
		  "name": "D4",
		  "ticks": 294543,
		  "time": 287.6396484375,
		  "velocity": 0.3937007874015748
		},
		{
		  "duration": 0.09375,
		  "durationTicks": 96,
		  "midi": 69,
		  "name": "A4",
		  "ticks": 295403,
		  "time": 288.4794921875,
		  "velocity": 0.3937007874015748
		},
		{
		  "duration": 0.09375,
		  "durationTicks": 96,
		  "midi": 71,
		  "name": "B4",
		  "ticks": 295499,
		  "time": 288.5732421875,
		  "velocity": 0.3937007874015748
		},
		{
		  "duration": 0.09375,
		  "durationTicks": 96,
		  "midi": 73,
		  "name": "C#5",
		  "ticks": 295595,
		  "time": 288.6669921875,
		  "velocity": 0.3937007874015748
		},
		{
		  "duration": 0.09375,
		  "durationTicks": 96,
		  "midi": 74,
		  "name": "D5",
		  "ticks": 295691,
		  "time": 288.7607421875,
		  "velocity": 0.3937007874015748
		},
		{
		  "duration": 0.09375,
		  "durationTicks": 96,
		  "midi": 76,
		  "name": "E5",
		  "ticks": 295787,
		  "time": 288.8544921875,
		  "velocity": 0.3937007874015748
		},
		{
		  "duration": 0.09375,
		  "durationTicks": 96,
		  "midi": 78,
		  "name": "F#5",
		  "ticks": 295883,
		  "time": 288.9482421875,
		  "velocity": 0.3937007874015748
		},
		{
		  "duration": 0.09375,
		  "durationTicks": 96,
		  "midi": 76,
		  "name": "E5",
		  "ticks": 295979,
		  "time": 289.0419921875,
		  "velocity": 0.3937007874015748
		},
		{
		  "duration": 0.09375,
		  "durationTicks": 96,
		  "midi": 54,
		  "name": "F#3",
		  "ticks": 296063,
		  "time": 289.1240234375,
		  "velocity": 0.3937007874015748
		},
		{
		  "duration": 0.09375,
		  "durationTicks": 96,
		  "midi": 62,
		  "name": "D4",
		  "ticks": 296063,
		  "time": 289.1240234375,
		  "velocity": 0.3937007874015748
		},
		{
		  "duration": 0.09375,
		  "durationTicks": 96,
		  "midi": 57,
		  "name": "A3",
		  "ticks": 296063,
		  "time": 289.1240234375,
		  "velocity": 0.3937007874015748
		},
		{
		  "duration": 0.09375,
		  "durationTicks": 96,
		  "midi": 74,
		  "name": "D5",
		  "ticks": 296075,
		  "time": 289.1357421875,
		  "velocity": 0.3937007874015748
		},
		{
		  "duration": 0.09375,
		  "durationTicks": 96,
		  "midi": 69,
		  "name": "A4",
		  "ticks": 296175,
		  "time": 289.2333984375,
		  "velocity": 0.3937007874015748
		},
		{
		  "duration": 0.09375,
		  "durationTicks": 96,
		  "midi": 71,
		  "name": "B4",
		  "ticks": 296271,
		  "time": 289.3271484375,
		  "velocity": 0.3937007874015748
		},
		{
		  "duration": 0.09375,
		  "durationTicks": 96,
		  "midi": 73,
		  "name": "C#5",
		  "ticks": 296367,
		  "time": 289.4208984375,
		  "velocity": 0.3937007874015748
		},
		{
		  "duration": 0.09375,
		  "durationTicks": 96,
		  "midi": 74,
		  "name": "D5",
		  "ticks": 296459,
		  "time": 289.5107421875,
		  "velocity": 0.3937007874015748
		},
		{
		  "duration": 0.09375,
		  "durationTicks": 96,
		  "midi": 76,
		  "name": "E5",
		  "ticks": 296555,
		  "time": 289.6044921875,
		  "velocity": 0.3937007874015748
		},
		{
		  "duration": 0.09375,
		  "durationTicks": 96,
		  "midi": 78,
		  "name": "F#5",
		  "ticks": 296651,
		  "time": 289.6982421875,
		  "velocity": 0.3937007874015748
		},
		{
		  "duration": 0.09375,
		  "durationTicks": 96,
		  "midi": 76,
		  "name": "E5",
		  "ticks": 296747,
		  "time": 289.7919921875,
		  "velocity": 0.3937007874015748
		},
		{
		  "duration": 0.09375,
		  "durationTicks": 96,
		  "midi": 62,
		  "name": "D4",
		  "ticks": 296839,
		  "time": 289.8818359375,
		  "velocity": 0.3937007874015748
		},
		{
		  "duration": 0.09375,
		  "durationTicks": 96,
		  "midi": 57,
		  "name": "A3",
		  "ticks": 296839,
		  "time": 289.8818359375,
		  "velocity": 0.3937007874015748
		},
		{
		  "duration": 0.09375,
		  "durationTicks": 96,
		  "midi": 54,
		  "name": "F#3",
		  "ticks": 296839,
		  "time": 289.8818359375,
		  "velocity": 0.3937007874015748
		},
		{
		  "duration": 0.09375,
		  "durationTicks": 96,
		  "midi": 74,
		  "name": "D5",
		  "ticks": 296843,
		  "time": 289.8857421875,
		  "velocity": 0.3937007874015748
		},
		{
		  "duration": 0.09375,
		  "durationTicks": 96,
		  "midi": 69,
		  "name": "A4",
		  "ticks": 296939,
		  "time": 289.9794921875,
		  "velocity": 0.3937007874015748
		},
		{
		  "duration": 0.09375,
		  "durationTicks": 96,
		  "midi": 71,
		  "name": "B4",
		  "ticks": 297035,
		  "time": 290.0732421875,
		  "velocity": 0.3937007874015748
		},
		{
		  "duration": 0.09375,
		  "durationTicks": 96,
		  "midi": 73,
		  "name": "C#5",
		  "ticks": 297131,
		  "time": 290.1669921875,
		  "velocity": 0.3937007874015748
		},
		{
		  "duration": 0.09375,
		  "durationTicks": 96,
		  "midi": 74,
		  "name": "D5",
		  "ticks": 297227,
		  "time": 290.2607421875,
		  "velocity": 0.3937007874015748
		},
		{
		  "duration": 0.09375,
		  "durationTicks": 96,
		  "midi": 76,
		  "name": "E5",
		  "ticks": 297327,
		  "time": 290.3583984375,
		  "velocity": 0.3937007874015748
		},
		{
		  "duration": 0.09375,
		  "durationTicks": 96,
		  "midi": 78,
		  "name": "F#5",
		  "ticks": 297423,
		  "time": 290.4521484375,
		  "velocity": 0.3937007874015748
		},
		{
		  "duration": 0.0947265625,
		  "durationTicks": 97,
		  "midi": 76,
		  "name": "E5",
		  "ticks": 297519,
		  "time": 290.5458984375,
		  "velocity": 0.3937007874015748
		},
		{
		  "duration": 0.0947265625,
		  "durationTicks": 97,
		  "midi": 54,
		  "name": "F#3",
		  "ticks": 297600,
		  "time": 290.625,
		  "velocity": 0.3937007874015748
		},
		{
		  "duration": 0.0947265625,
		  "durationTicks": 97,
		  "midi": 62,
		  "name": "D4",
		  "ticks": 297600,
		  "time": 290.625,
		  "velocity": 0.3937007874015748
		},
		{
		  "duration": 0.0947265625,
		  "durationTicks": 97,
		  "midi": 57,
		  "name": "A3",
		  "ticks": 297600,
		  "time": 290.625,
		  "velocity": 0.3937007874015748
		},
		{
		  "duration": 0.0947265625,
		  "durationTicks": 97,
		  "midi": 74,
		  "name": "D5",
		  "ticks": 297612,
		  "time": 290.63671875,
		  "velocity": 0.3937007874015748
		},
		{
		  "duration": 0.09375,
		  "durationTicks": 96,
		  "midi": 69,
		  "name": "A4",
		  "ticks": 297709,
		  "time": 290.7314453125,
		  "velocity": 0.3937007874015748
		},
		{
		  "duration": 0.09375,
		  "durationTicks": 96,
		  "midi": 71,
		  "name": "B4",
		  "ticks": 297805,
		  "time": 290.8251953125,
		  "velocity": 0.3937007874015748
		},
		{
		  "duration": 0.09375,
		  "durationTicks": 96,
		  "midi": 73,
		  "name": "C#5",
		  "ticks": 297901,
		  "time": 290.9189453125,
		  "velocity": 0.3937007874015748
		},
		{
		  "duration": 0.09375,
		  "durationTicks": 96,
		  "midi": 74,
		  "name": "D5",
		  "ticks": 297997,
		  "time": 291.0126953125,
		  "velocity": 0.3937007874015748
		},
		{
		  "duration": 0.09375,
		  "durationTicks": 96,
		  "midi": 62,
		  "name": "D4",
		  "ticks": 298001,
		  "time": 291.0166015625,
		  "velocity": 0.3937007874015748
		},
		{
		  "duration": 0.09375,
		  "durationTicks": 96,
		  "midi": 54,
		  "name": "F#3",
		  "ticks": 298001,
		  "time": 291.0166015625,
		  "velocity": 0.3937007874015748
		},
		{
		  "duration": 0.09375,
		  "durationTicks": 96,
		  "midi": 57,
		  "name": "A3",
		  "ticks": 298001,
		  "time": 291.0166015625,
		  "velocity": 0.3937007874015748
		},
		{
		  "duration": 0.09375,
		  "durationTicks": 96,
		  "midi": 76,
		  "name": "E5",
		  "ticks": 298093,
		  "time": 291.1064453125,
		  "velocity": 0.3937007874015748
		},
		{
		  "duration": 0.09375,
		  "durationTicks": 96,
		  "midi": 78,
		  "name": "F#5",
		  "ticks": 298189,
		  "time": 291.2001953125,
		  "velocity": 0.3937007874015748
		},
		{
		  "duration": 0.09375,
		  "durationTicks": 96,
		  "midi": 79,
		  "name": "G5",
		  "ticks": 298285,
		  "time": 291.2939453125,
		  "velocity": 0.3937007874015748
		},
		{
		  "duration": 0.09375,
		  "durationTicks": 96,
		  "midi": 81,
		  "name": "A5",
		  "ticks": 298385,
		  "time": 291.3916015625,
		  "velocity": 0.3937007874015748
		},
		{
		  "duration": 0.09375,
		  "durationTicks": 96,
		  "midi": 62,
		  "name": "D4",
		  "ticks": 298394,
		  "time": 291.400390625,
		  "velocity": 0.3937007874015748
		},
		{
		  "duration": 0.09375,
		  "durationTicks": 96,
		  "midi": 54,
		  "name": "F#3",
		  "ticks": 298394,
		  "time": 291.400390625,
		  "velocity": 0.3937007874015748
		},
		{
		  "duration": 0.09375,
		  "durationTicks": 96,
		  "midi": 57,
		  "name": "A3",
		  "ticks": 298394,
		  "time": 291.400390625,
		  "velocity": 0.3937007874015748
		},
		{
		  "duration": 0.09375,
		  "durationTicks": 96,
		  "midi": 80,
		  "name": "G#5",
		  "ticks": 298481,
		  "time": 291.4853515625,
		  "velocity": 0.3937007874015748
		},
		{
		  "duration": 0.09375,
		  "durationTicks": 96,
		  "midi": 83,
		  "name": "B5",
		  "ticks": 298577,
		  "time": 291.5791015625,
		  "velocity": 0.3937007874015748
		},
		{
		  "duration": 0.09375,
		  "durationTicks": 96,
		  "midi": 81,
		  "name": "A5",
		  "ticks": 298669,
		  "time": 291.6689453125,
		  "velocity": 0.3937007874015748
		},
		{
		  "duration": 0.09375,
		  "durationTicks": 96,
		  "midi": 79,
		  "name": "G5",
		  "ticks": 298765,
		  "time": 291.7626953125,
		  "velocity": 0.3937007874015748
		},
		{
		  "duration": 0.09375,
		  "durationTicks": 96,
		  "midi": 54,
		  "name": "F#3",
		  "ticks": 298769,
		  "time": 291.7666015625,
		  "velocity": 0.3937007874015748
		},
		{
		  "duration": 0.09375,
		  "durationTicks": 96,
		  "midi": 62,
		  "name": "D4",
		  "ticks": 298769,
		  "time": 291.7666015625,
		  "velocity": 0.3937007874015748
		},
		{
		  "duration": 0.09375,
		  "durationTicks": 96,
		  "midi": 57,
		  "name": "A3",
		  "ticks": 298769,
		  "time": 291.7666015625,
		  "velocity": 0.3937007874015748
		},
		{
		  "duration": 0.09375,
		  "durationTicks": 96,
		  "midi": 78,
		  "name": "F#5",
		  "ticks": 298861,
		  "time": 291.8564453125,
		  "velocity": 0.3937007874015748
		},
		{
		  "duration": 0.09375,
		  "durationTicks": 96,
		  "midi": 76,
		  "name": "E5",
		  "ticks": 298957,
		  "time": 291.9501953125,
		  "velocity": 0.3937007874015748
		},
		{
		  "duration": 0.09375,
		  "durationTicks": 96,
		  "midi": 74,
		  "name": "D5",
		  "ticks": 299053,
		  "time": 292.0439453125,
		  "velocity": 0.3937007874015748
		},
		{
		  "duration": 0.75,
		  "durationTicks": 768,
		  "midi": 73,
		  "name": "C#5",
		  "ticks": 299149,
		  "time": 292.1376953125,
		  "velocity": 0.3937007874015748
		},
		{
		  "duration": 0.09375,
		  "durationTicks": 96,
		  "midi": 56,
		  "name": "G#3",
		  "ticks": 299149,
		  "time": 292.1376953125,
		  "velocity": 0.3937007874015748
		},
		{
		  "duration": 0.09375,
		  "durationTicks": 96,
		  "midi": 64,
		  "name": "E4",
		  "ticks": 299245,
		  "time": 292.2314453125,
		  "velocity": 0.3937007874015748
		},
		{
		  "duration": 0.09375,
		  "durationTicks": 96,
		  "midi": 61,
		  "name": "C#4",
		  "ticks": 299341,
		  "time": 292.3251953125,
		  "velocity": 0.3937007874015748
		},
		{
		  "duration": 0.09375,
		  "durationTicks": 96,
		  "midi": 64,
		  "name": "E4",
		  "ticks": 299441,
		  "time": 292.4228515625,
		  "velocity": 0.3937007874015748
		},
		{
		  "duration": 0.09375,
		  "durationTicks": 96,
		  "midi": 56,
		  "name": "G#3",
		  "ticks": 299537,
		  "time": 292.5166015625,
		  "velocity": 0.3937007874015748
		},
		{
		  "duration": 0.09375,
		  "durationTicks": 96,
		  "midi": 64,
		  "name": "E4",
		  "ticks": 299633,
		  "time": 292.6103515625,
		  "velocity": 0.3937007874015748
		},
		{
		  "duration": 0.09375,
		  "durationTicks": 96,
		  "midi": 61,
		  "name": "C#4",
		  "ticks": 299729,
		  "time": 292.7041015625,
		  "velocity": 0.3937007874015748
		},
		{
		  "duration": 0.09375,
		  "durationTicks": 96,
		  "midi": 64,
		  "name": "E4",
		  "ticks": 299821,
		  "time": 292.7939453125,
		  "velocity": 0.3937007874015748
		},
		{
		  "duration": 0.09375,
		  "durationTicks": 96,
		  "midi": 56,
		  "name": "G#3",
		  "ticks": 299921,
		  "time": 292.8916015625,
		  "velocity": 0.3937007874015748
		},
		{
		  "duration": 0.09375,
		  "durationTicks": 96,
		  "midi": 66,
		  "name": "F#4",
		  "ticks": 300013,
		  "time": 292.9814453125,
		  "velocity": 0.3937007874015748
		},
		{
		  "duration": 0.09375,
		  "durationTicks": 96,
		  "midi": 60,
		  "name": "C4",
		  "ticks": 300109,
		  "time": 293.0751953125,
		  "velocity": 0.3937007874015748
		},
		{
		  "duration": 0.09375,
		  "durationTicks": 96,
		  "midi": 66,
		  "name": "F#4",
		  "ticks": 300205,
		  "time": 293.1689453125,
		  "velocity": 0.3937007874015748
		},
		{
		  "duration": 0.09375,
		  "durationTicks": 96,
		  "midi": 56,
		  "name": "G#3",
		  "ticks": 300301,
		  "time": 293.2626953125,
		  "velocity": 0.3937007874015748
		},
		{
		  "duration": 0.09375,
		  "durationTicks": 96,
		  "midi": 66,
		  "name": "F#4",
		  "ticks": 300397,
		  "time": 293.3564453125,
		  "velocity": 0.3937007874015748
		},
		{
		  "duration": 0.09375,
		  "durationTicks": 96,
		  "midi": 73,
		  "name": "C#5",
		  "ticks": 300477,
		  "time": 293.4345703125,
		  "velocity": 0.3937007874015748
		},
		{
		  "duration": 0.09375,
		  "durationTicks": 96,
		  "midi": 60,
		  "name": "C4",
		  "ticks": 300493,
		  "time": 293.4501953125,
		  "velocity": 0.3937007874015748
		},
		{
		  "duration": 0.09375,
		  "durationTicks": 96,
		  "midi": 75,
		  "name": "D#5",
		  "ticks": 300573,
		  "time": 293.5283203125,
		  "velocity": 0.3937007874015748
		},
		{
		  "duration": 0.09375,
		  "durationTicks": 96,
		  "midi": 66,
		  "name": "F#4",
		  "ticks": 300589,
		  "time": 293.5439453125,
		  "velocity": 0.3937007874015748
		},
		{
		  "duration": 0.09375,
		  "durationTicks": 96,
		  "midi": 64,
		  "name": "E4",
		  "ticks": 300669,
		  "time": 293.6220703125,
		  "velocity": 0.3937007874015748
		},
		{
		  "duration": 0.09375,
		  "durationTicks": 96,
		  "midi": 61,
		  "name": "C#4",
		  "ticks": 300669,
		  "time": 293.6220703125,
		  "velocity": 0.3937007874015748
		},
		{
		  "duration": 0.09375,
		  "durationTicks": 96,
		  "midi": 57,
		  "name": "A3",
		  "ticks": 300669,
		  "time": 293.6220703125,
		  "velocity": 0.3937007874015748
		},
		{
		  "duration": 0.46875,
		  "durationTicks": 480,
		  "midi": 62,
		  "name": "D4",
		  "ticks": 301058,
		  "time": 294.001953125,
		  "velocity": 0.3937007874015748
		},
		{
		  "duration": 0.46875,
		  "durationTicks": 480,
		  "midi": 50,
		  "name": "D3",
		  "ticks": 301058,
		  "time": 294.001953125,
		  "velocity": 0.3937007874015748
		},
		{
		  "duration": 0.46875,
		  "durationTicks": 480,
		  "midi": 57,
		  "name": "A3",
		  "ticks": 301058,
		  "time": 294.001953125,
		  "velocity": 0.3937007874015748
		},
		{
		  "duration": 0.46875,
		  "durationTicks": 480,
		  "midi": 54,
		  "name": "F#3",
		  "ticks": 301058,
		  "time": 294.001953125,
		  "velocity": 0.3937007874015748
		},
		{
		  "duration": 0.75,
		  "durationTicks": 768,
		  "midi": 33,
		  "name": "A1",
		  "ticks": 301062,
		  "time": 294.005859375,
		  "velocity": 0.3937007874015748
		},
		{
		  "duration": 0.75,
		  "durationTicks": 768,
		  "midi": 30,
		  "name": "F#1",
		  "ticks": 301062,
		  "time": 294.005859375,
		  "velocity": 0.3937007874015748
		},
		{
		  "duration": 0.75,
		  "durationTicks": 768,
		  "midi": 38,
		  "name": "D2",
		  "ticks": 301062,
		  "time": 294.005859375,
		  "velocity": 0.3937007874015748
		},
		{
		  "duration": 0.75,
		  "durationTicks": 768,
		  "midi": 42,
		  "name": "F#2",
		  "ticks": 301062,
		  "time": 294.005859375,
		  "velocity": 0.3937007874015748
		},
		{
		  "duration": 0.09375,
		  "durationTicks": 96,
		  "midi": 57,
		  "name": "A3",
		  "ticks": 301550,
		  "time": 294.482421875,
		  "velocity": 0.3937007874015748
		},
		{
		  "duration": 0.09375,
		  "durationTicks": 96,
		  "midi": 59,
		  "name": "B3",
		  "ticks": 301650,
		  "time": 294.580078125,
		  "velocity": 0.3937007874015748
		},
		{
		  "duration": 0.09375,
		  "durationTicks": 96,
		  "midi": 61,
		  "name": "C#4",
		  "ticks": 301746,
		  "time": 294.673828125,
		  "velocity": 0.3937007874015748
		},
		{
		  "duration": 0.09375,
		  "durationTicks": 96,
		  "midi": 62,
		  "name": "D4",
		  "ticks": 301842,
		  "time": 294.767578125,
		  "velocity": 0.3937007874015748
		},
		{
		  "duration": 0.09375,
		  "durationTicks": 96,
		  "midi": 64,
		  "name": "E4",
		  "ticks": 301934,
		  "time": 294.857421875,
		  "velocity": 0.3937007874015748
		},
		{
		  "duration": 0.09375,
		  "durationTicks": 96,
		  "midi": 66,
		  "name": "F#4",
		  "ticks": 302030,
		  "time": 294.951171875,
		  "velocity": 0.3937007874015748
		},
		{
		  "duration": 0.09375,
		  "durationTicks": 96,
		  "midi": 64,
		  "name": "E4",
		  "ticks": 302126,
		  "time": 295.044921875,
		  "velocity": 0.3937007874015748
		},
		{
		  "duration": 0.09375,
		  "durationTicks": 96,
		  "midi": 62,
		  "name": "D4",
		  "ticks": 302222,
		  "time": 295.138671875,
		  "velocity": 0.3937007874015748
		},
		{
		  "duration": 0.09375,
		  "durationTicks": 96,
		  "midi": 57,
		  "name": "A3",
		  "ticks": 302318,
		  "time": 295.232421875,
		  "velocity": 0.3937007874015748
		},
		{
		  "duration": 0.09375,
		  "durationTicks": 96,
		  "midi": 59,
		  "name": "B3",
		  "ticks": 302414,
		  "time": 295.326171875,
		  "velocity": 0.3937007874015748
		},
		{
		  "duration": 0.09375,
		  "durationTicks": 96,
		  "midi": 61,
		  "name": "C#4",
		  "ticks": 302510,
		  "time": 295.419921875,
		  "velocity": 0.3937007874015748
		},
		{
		  "duration": 0.09375,
		  "durationTicks": 96,
		  "midi": 42,
		  "name": "F#2",
		  "ticks": 302594,
		  "time": 295.501953125,
		  "velocity": 0.3937007874015748
		},
		{
		  "duration": 0.09375,
		  "durationTicks": 96,
		  "midi": 50,
		  "name": "D3",
		  "ticks": 302594,
		  "time": 295.501953125,
		  "velocity": 0.3937007874015748
		},
		{
		  "duration": 0.09375,
		  "durationTicks": 96,
		  "midi": 45,
		  "name": "A2",
		  "ticks": 302594,
		  "time": 295.501953125,
		  "velocity": 0.3937007874015748
		},
		{
		  "duration": 0.09375,
		  "durationTicks": 96,
		  "midi": 62,
		  "name": "D4",
		  "ticks": 302606,
		  "time": 295.513671875,
		  "velocity": 0.3937007874015748
		},
		{
		  "duration": 0.09375,
		  "durationTicks": 96,
		  "midi": 64,
		  "name": "E4",
		  "ticks": 302706,
		  "time": 295.611328125,
		  "velocity": 0.3937007874015748
		},
		{
		  "duration": 0.09375,
		  "durationTicks": 96,
		  "midi": 66,
		  "name": "F#4",
		  "ticks": 302802,
		  "time": 295.705078125,
		  "velocity": 0.3937007874015748
		},
		{
		  "duration": 0.09375,
		  "durationTicks": 96,
		  "midi": 64,
		  "name": "E4",
		  "ticks": 302898,
		  "time": 295.798828125,
		  "velocity": 0.3937007874015748
		},
		{
		  "duration": 0.09375,
		  "durationTicks": 96,
		  "midi": 62,
		  "name": "D4",
		  "ticks": 302990,
		  "time": 295.888671875,
		  "velocity": 0.3937007874015748
		},
		{
		  "duration": 0.09375,
		  "durationTicks": 96,
		  "midi": 57,
		  "name": "A3",
		  "ticks": 303086,
		  "time": 295.982421875,
		  "velocity": 0.3937007874015748
		},
		{
		  "duration": 0.09375,
		  "durationTicks": 96,
		  "midi": 59,
		  "name": "B3",
		  "ticks": 303182,
		  "time": 296.076171875,
		  "velocity": 0.3937007874015748
		},
		{
		  "duration": 0.09375,
		  "durationTicks": 96,
		  "midi": 61,
		  "name": "C#4",
		  "ticks": 303278,
		  "time": 296.169921875,
		  "velocity": 0.3937007874015748
		},
		{
		  "duration": 0.09375,
		  "durationTicks": 96,
		  "midi": 42,
		  "name": "F#2",
		  "ticks": 303370,
		  "time": 296.259765625,
		  "velocity": 0.3937007874015748
		},
		{
		  "duration": 0.09375,
		  "durationTicks": 96,
		  "midi": 45,
		  "name": "A2",
		  "ticks": 303370,
		  "time": 296.259765625,
		  "velocity": 0.3937007874015748
		},
		{
		  "duration": 0.09375,
		  "durationTicks": 96,
		  "midi": 50,
		  "name": "D3",
		  "ticks": 303370,
		  "time": 296.259765625,
		  "velocity": 0.3937007874015748
		},
		{
		  "duration": 0.09375,
		  "durationTicks": 96,
		  "midi": 62,
		  "name": "D4",
		  "ticks": 303374,
		  "time": 296.263671875,
		  "velocity": 0.3937007874015748
		},
		{
		  "duration": 0.09375,
		  "durationTicks": 96,
		  "midi": 64,
		  "name": "E4",
		  "ticks": 303470,
		  "time": 296.357421875,
		  "velocity": 0.3937007874015748
		},
		{
		  "duration": 0.09375,
		  "durationTicks": 96,
		  "midi": 66,
		  "name": "F#4",
		  "ticks": 303566,
		  "time": 296.451171875,
		  "velocity": 0.3937007874015748
		},
		{
		  "duration": 0.09375,
		  "durationTicks": 96,
		  "midi": 64,
		  "name": "E4",
		  "ticks": 303662,
		  "time": 296.544921875,
		  "velocity": 0.3937007874015748
		},
		{
		  "duration": 0.09375,
		  "durationTicks": 96,
		  "midi": 62,
		  "name": "D4",
		  "ticks": 303762,
		  "time": 296.642578125,
		  "velocity": 0.3937007874015748
		},
		{
		  "duration": 0.09375,
		  "durationTicks": 96,
		  "midi": 57,
		  "name": "A3",
		  "ticks": 303858,
		  "time": 296.736328125,
		  "velocity": 0.3937007874015748
		},
		{
		  "duration": 0.09375,
		  "durationTicks": 96,
		  "midi": 42,
		  "name": "F#2",
		  "ticks": 303939,
		  "time": 296.8154296875,
		  "velocity": 0.3937007874015748
		},
		{
		  "duration": 0.09375,
		  "durationTicks": 96,
		  "midi": 50,
		  "name": "D3",
		  "ticks": 303939,
		  "time": 296.8154296875,
		  "velocity": 0.3937007874015748
		},
		{
		  "duration": 0.09375,
		  "durationTicks": 96,
		  "midi": 45,
		  "name": "A2",
		  "ticks": 303939,
		  "time": 296.8154296875,
		  "velocity": 0.3937007874015748
		},
		{
		  "duration": 0.0947265625,
		  "durationTicks": 97,
		  "midi": 59,
		  "name": "B3",
		  "ticks": 303954,
		  "time": 296.830078125,
		  "velocity": 0.3937007874015748
		},
		{
		  "duration": 0.09375,
		  "durationTicks": 96,
		  "midi": 61,
		  "name": "C#4",
		  "ticks": 304047,
		  "time": 296.9208984375,
		  "velocity": 0.3937007874015748
		},
		{
		  "duration": 0.09375,
		  "durationTicks": 96,
		  "midi": 62,
		  "name": "D4",
		  "ticks": 304143,
		  "time": 297.0146484375,
		  "velocity": 0.3937007874015748
		},
		{
		  "duration": 0.09375,
		  "durationTicks": 96,
		  "midi": 64,
		  "name": "E4",
		  "ticks": 304239,
		  "time": 297.1083984375,
		  "velocity": 0.3937007874015748
		},
		{
		  "duration": 0.09375,
		  "durationTicks": 96,
		  "midi": 42,
		  "name": "F#2",
		  "ticks": 304331,
		  "time": 297.1982421875,
		  "velocity": 0.3937007874015748
		},
		{
		  "duration": 0.09375,
		  "durationTicks": 96,
		  "midi": 45,
		  "name": "A2",
		  "ticks": 304331,
		  "time": 297.1982421875,
		  "velocity": 0.3937007874015748
		},
		{
		  "duration": 0.09375,
		  "durationTicks": 96,
		  "midi": 50,
		  "name": "D3",
		  "ticks": 304331,
		  "time": 297.1982421875,
		  "velocity": 0.3937007874015748
		},
		{
		  "duration": 0.09375,
		  "durationTicks": 96,
		  "midi": 66,
		  "name": "F#4",
		  "ticks": 304335,
		  "time": 297.2021484375,
		  "velocity": 0.3937007874015748
		},
		{
		  "duration": 0.09375,
		  "durationTicks": 96,
		  "midi": 67,
		  "name": "G4",
		  "ticks": 304431,
		  "time": 297.2958984375,
		  "velocity": 0.3937007874015748
		},
		{
		  "duration": 0.09375,
		  "durationTicks": 96,
		  "midi": 69,
		  "name": "A4",
		  "ticks": 304527,
		  "time": 297.3896484375,
		  "velocity": 0.3937007874015748
		},
		{
		  "duration": 0.09375,
		  "durationTicks": 96,
		  "midi": 71,
		  "name": "B4",
		  "ticks": 304623,
		  "time": 297.4833984375,
		  "velocity": 0.3937007874015748
		},
		{
		  "duration": 0.09375,
		  "durationTicks": 96,
		  "midi": 42,
		  "name": "F#2",
		  "ticks": 304707,
		  "time": 297.5654296875,
		  "velocity": 0.3937007874015748
		},
		{
		  "duration": 0.09375,
		  "durationTicks": 96,
		  "midi": 50,
		  "name": "D3",
		  "ticks": 304707,
		  "time": 297.5654296875,
		  "velocity": 0.3937007874015748
		},
		{
		  "duration": 0.09375,
		  "durationTicks": 96,
		  "midi": 45,
		  "name": "A2",
		  "ticks": 304707,
		  "time": 297.5654296875,
		  "velocity": 0.3937007874015748
		},
		{
		  "duration": 0.09375,
		  "durationTicks": 96,
		  "midi": 73,
		  "name": "C#5",
		  "ticks": 304719,
		  "time": 297.5771484375,
		  "velocity": 0.3937007874015748
		},
		{
		  "duration": 0.09375,
		  "durationTicks": 96,
		  "midi": 74,
		  "name": "D5",
		  "ticks": 304815,
		  "time": 297.6708984375,
		  "velocity": 0.3937007874015748
		},
		{
		  "duration": 0.09375,
		  "durationTicks": 96,
		  "midi": 76,
		  "name": "E5",
		  "ticks": 304915,
		  "time": 297.7685546875,
		  "velocity": 0.3937007874015748
		},
		{
		  "duration": 0.09375,
		  "durationTicks": 96,
		  "midi": 78,
		  "name": "F#5",
		  "ticks": 305011,
		  "time": 297.8623046875,
		  "velocity": 0.3937007874015748
		},
		{
		  "duration": 0.09375,
		  "durationTicks": 96,
		  "midi": 50,
		  "name": "D3",
		  "ticks": 305083,
		  "time": 297.9326171875,
		  "velocity": 0.3937007874015748
		},
		{
		  "duration": 0.09375,
		  "durationTicks": 96,
		  "midi": 42,
		  "name": "F#2",
		  "ticks": 305083,
		  "time": 297.9326171875,
		  "velocity": 0.3937007874015748
		},
		{
		  "duration": 0.09375,
		  "durationTicks": 96,
		  "midi": 45,
		  "name": "A2",
		  "ticks": 305083,
		  "time": 297.9326171875,
		  "velocity": 0.3937007874015748
		},
		{
		  "duration": 0.09375,
		  "durationTicks": 96,
		  "midi": 79,
		  "name": "G5",
		  "ticks": 305107,
		  "time": 297.9560546875,
		  "velocity": 0.3937007874015748
		},
		{
		  "duration": 0.09375,
		  "durationTicks": 96,
		  "midi": 80,
		  "name": "G#5",
		  "ticks": 305199,
		  "time": 298.0458984375,
		  "velocity": 0.3937007874015748
		},
		{
		  "duration": 0.09375,
		  "durationTicks": 96,
		  "midi": 42,
		  "name": "F#2",
		  "ticks": 305287,
		  "time": 298.1318359375,
		  "velocity": 0.3937007874015748
		},
		{
		  "duration": 0.75,
		  "durationTicks": 768,
		  "midi": 81,
		  "name": "A5",
		  "ticks": 305295,
		  "time": 298.1396484375,
		  "velocity": 0.3937007874015748
		},
		{
		  "duration": 0.75,
		  "durationTicks": 768,
		  "midi": 69,
		  "name": "A4",
		  "ticks": 305295,
		  "time": 298.1396484375,
		  "velocity": 0.3937007874015748
		},
		{
		  "duration": 0.09375,
		  "durationTicks": 96,
		  "midi": 50,
		  "name": "D3",
		  "ticks": 305391,
		  "time": 298.2333984375,
		  "velocity": 0.3937007874015748
		},
		{
		  "duration": 0.09375,
		  "durationTicks": 96,
		  "midi": 45,
		  "name": "A2",
		  "ticks": 305487,
		  "time": 298.3271484375,
		  "velocity": 0.3937007874015748
		},
		{
		  "duration": 0.09375,
		  "durationTicks": 96,
		  "midi": 50,
		  "name": "D3",
		  "ticks": 305583,
		  "time": 298.4208984375,
		  "velocity": 0.3937007874015748
		},
		{
		  "duration": 0.09375,
		  "durationTicks": 96,
		  "midi": 42,
		  "name": "F#2",
		  "ticks": 305679,
		  "time": 298.5146484375,
		  "velocity": 0.3937007874015748
		},
		{
		  "duration": 0.09375,
		  "durationTicks": 96,
		  "midi": 50,
		  "name": "D3",
		  "ticks": 305775,
		  "time": 298.6083984375,
		  "velocity": 0.3937007874015748
		},
		{
		  "duration": 0.09375,
		  "durationTicks": 96,
		  "midi": 45,
		  "name": "A2",
		  "ticks": 305871,
		  "time": 298.7021484375,
		  "velocity": 0.3937007874015748
		},
		{
		  "duration": 0.09375,
		  "durationTicks": 96,
		  "midi": 50,
		  "name": "D3",
		  "ticks": 305971,
		  "time": 298.7998046875,
		  "velocity": 0.3937007874015748
		},
		{
		  "duration": 0.75,
		  "durationTicks": 768,
		  "midi": 61,
		  "name": "C#4",
		  "ticks": 306067,
		  "time": 298.8935546875,
		  "velocity": 0.3937007874015748
		},
		{
		  "duration": 0.75,
		  "durationTicks": 768,
		  "midi": 73,
		  "name": "C#5",
		  "ticks": 306067,
		  "time": 298.8935546875,
		  "velocity": 0.3937007874015748
		},
		{
		  "duration": 0.09375,
		  "durationTicks": 96,
		  "midi": 43,
		  "name": "G2",
		  "ticks": 306067,
		  "time": 298.8935546875,
		  "velocity": 0.3937007874015748
		},
		{
		  "duration": 0.09375,
		  "durationTicks": 96,
		  "midi": 52,
		  "name": "E3",
		  "ticks": 306163,
		  "time": 298.9873046875,
		  "velocity": 0.3937007874015748
		},
		{
		  "duration": 0.09375,
		  "durationTicks": 96,
		  "midi": 46,
		  "name": "A#2",
		  "ticks": 306259,
		  "time": 299.0810546875,
		  "velocity": 0.3937007874015748
		},
		{
		  "duration": 0.09375,
		  "durationTicks": 96,
		  "midi": 52,
		  "name": "E3",
		  "ticks": 306351,
		  "time": 299.1708984375,
		  "velocity": 0.3937007874015748
		},
		{
		  "duration": 0.09375,
		  "durationTicks": 96,
		  "midi": 43,
		  "name": "G2",
		  "ticks": 306447,
		  "time": 299.2646484375,
		  "velocity": 0.3937007874015748
		},
		{
		  "duration": 0.09375,
		  "durationTicks": 96,
		  "midi": 52,
		  "name": "E3",
		  "ticks": 306543,
		  "time": 299.3583984375,
		  "velocity": 0.3937007874015748
		},
		{
		  "duration": 0.09375,
		  "durationTicks": 96,
		  "midi": 46,
		  "name": "A#2",
		  "ticks": 306639,
		  "time": 299.4521484375,
		  "velocity": 0.3937007874015748
		},
		{
		  "duration": 0.09375,
		  "durationTicks": 96,
		  "midi": 52,
		  "name": "E3",
		  "ticks": 306735,
		  "time": 299.5458984375,
		  "velocity": 0.3937007874015748
		},
		{
		  "duration": 0.75,
		  "durationTicks": 768,
		  "midi": 76,
		  "name": "E5",
		  "ticks": 306831,
		  "time": 299.6396484375,
		  "velocity": 0.3937007874015748
		},
		{
		  "duration": 0.75,
		  "durationTicks": 768,
		  "midi": 64,
		  "name": "E4",
		  "ticks": 306831,
		  "time": 299.6396484375,
		  "velocity": 0.3937007874015748
		},
		{
		  "duration": 0.09375,
		  "durationTicks": 96,
		  "midi": 44,
		  "name": "G#2",
		  "ticks": 306835,
		  "time": 299.6435546875,
		  "velocity": 0.3937007874015748
		},
		{
		  "duration": 0.09375,
		  "durationTicks": 96,
		  "midi": 52,
		  "name": "E3",
		  "ticks": 306927,
		  "time": 299.7333984375,
		  "velocity": 0.3937007874015748
		},
		{
		  "duration": 0.09375,
		  "durationTicks": 96,
		  "midi": 49,
		  "name": "C#3",
		  "ticks": 307027,
		  "time": 299.8310546875,
		  "velocity": 0.3937007874015748
		},
		{
		  "duration": 0.09375,
		  "durationTicks": 96,
		  "midi": 52,
		  "name": "E3",
		  "ticks": 307123,
		  "time": 299.9248046875,
		  "velocity": 0.3937007874015748
		},
		{
		  "duration": 0.09375,
		  "durationTicks": 96,
		  "midi": 44,
		  "name": "G#2",
		  "ticks": 307219,
		  "time": 300.0185546875,
		  "velocity": 0.3937007874015748
		},
		{
		  "duration": 0.09375,
		  "durationTicks": 96,
		  "midi": 52,
		  "name": "E3",
		  "ticks": 307315,
		  "time": 300.1123046875,
		  "velocity": 0.3937007874015748
		},
		{
		  "duration": 0.09375,
		  "durationTicks": 96,
		  "midi": 49,
		  "name": "C#3",
		  "ticks": 307407,
		  "time": 300.2021484375,
		  "velocity": 0.3937007874015748
		},
		{
		  "duration": 0.09375,
		  "durationTicks": 96,
		  "midi": 52,
		  "name": "E3",
		  "ticks": 307503,
		  "time": 300.2958984375,
		  "velocity": 0.3937007874015748
		},
		{
		  "duration": 0.75,
		  "durationTicks": 768,
		  "midi": 60,
		  "name": "C4",
		  "ticks": 307579,
		  "time": 300.3701171875,
		  "velocity": 0.3937007874015748
		},
		{
		  "duration": 0.75,
		  "durationTicks": 768,
		  "midi": 54,
		  "name": "F#3",
		  "ticks": 307579,
		  "time": 300.3701171875,
		  "velocity": 0.3937007874015748
		},
		{
		  "duration": 0.75,
		  "durationTicks": 768,
		  "midi": 48,
		  "name": "C3",
		  "ticks": 307579,
		  "time": 300.3701171875,
		  "velocity": 0.3937007874015748
		},
		{
		  "duration": 0.09375,
		  "durationTicks": 96,
		  "midi": 32,
		  "name": "G#1",
		  "ticks": 307603,
		  "time": 300.3935546875,
		  "velocity": 0.3937007874015748
		},
		{
		  "duration": 0.09375,
		  "durationTicks": 96,
		  "midi": 44,
		  "name": "G#2",
		  "ticks": 307695,
		  "time": 300.4833984375,
		  "velocity": 0.3937007874015748
		},
		{
		  "duration": 0.09375,
		  "durationTicks": 96,
		  "midi": 43,
		  "name": "G2",
		  "ticks": 307791,
		  "time": 300.5771484375,
		  "velocity": 0.3937007874015748
		},
		{
		  "duration": 0.09375,
		  "durationTicks": 96,
		  "midi": 44,
		  "name": "G#2",
		  "ticks": 307887,
		  "time": 300.6708984375,
		  "velocity": 0.3937007874015748
		},
		{
		  "duration": 0.09375,
		  "durationTicks": 96,
		  "midi": 43,
		  "name": "G2",
		  "ticks": 307983,
		  "time": 300.7646484375,
		  "velocity": 0.3937007874015748
		},
		{
		  "duration": 0.09375,
		  "durationTicks": 96,
		  "midi": 44,
		  "name": "G#2",
		  "ticks": 308079,
		  "time": 300.8583984375,
		  "velocity": 0.3937007874015748
		},
		{
		  "duration": 0.09375,
		  "durationTicks": 96,
		  "midi": 43,
		  "name": "G2",
		  "ticks": 308179,
		  "time": 300.9560546875,
		  "velocity": 0.3937007874015748
		},
		{
		  "duration": 0.09375,
		  "durationTicks": 96,
		  "midi": 44,
		  "name": "G#2",
		  "ticks": 308275,
		  "time": 301.0498046875,
		  "velocity": 0.3937007874015748
		},
		{
		  "duration": 0.1875,
		  "durationTicks": 192,
		  "midi": 61,
		  "name": "C#4",
		  "ticks": 308371,
		  "time": 301.1435546875,
		  "velocity": 0.3937007874015748
		},
		{
		  "duration": 0.1875,
		  "durationTicks": 192,
		  "midi": 52,
		  "name": "E3",
		  "ticks": 308371,
		  "time": 301.1435546875,
		  "velocity": 0.3937007874015748
		},
		{
		  "duration": 0.1875,
		  "durationTicks": 192,
		  "midi": 49,
		  "name": "C#3",
		  "ticks": 308371,
		  "time": 301.1435546875,
		  "velocity": 0.3937007874015748
		},
		{
		  "duration": 0.1875,
		  "durationTicks": 192,
		  "midi": 37,
		  "name": "C#2",
		  "ticks": 308375,
		  "time": 301.1474609375,
		  "velocity": 0.3937007874015748
		},
		{
		  "duration": 0.1884765625,
		  "durationTicks": 193,
		  "midi": 64,
		  "name": "E4",
		  "ticks": 308559,
		  "time": 301.3271484375,
		  "velocity": 0.3937007874015748
		},
		{
		  "duration": 0.1884765625,
		  "durationTicks": 193,
		  "midi": 56,
		  "name": "G#3",
		  "ticks": 308563,
		  "time": 301.3310546875,
		  "velocity": 0.3937007874015748
		},
		{
		  "duration": 0.1884765625,
		  "durationTicks": 193,
		  "midi": 49,
		  "name": "C#3",
		  "ticks": 308563,
		  "time": 301.3310546875,
		  "velocity": 0.3937007874015748
		},
		{
		  "duration": 0.1884765625,
		  "durationTicks": 193,
		  "midi": 64,
		  "name": "E4",
		  "ticks": 308740,
		  "time": 301.50390625,
		  "velocity": 0.3937007874015748
		},
		{
		  "duration": 0.1884765625,
		  "durationTicks": 193,
		  "midi": 56,
		  "name": "G#3",
		  "ticks": 308740,
		  "time": 301.50390625,
		  "velocity": 0.3937007874015748
		},
		{
		  "duration": 0.1884765625,
		  "durationTicks": 193,
		  "midi": 49,
		  "name": "C#3",
		  "ticks": 308740,
		  "time": 301.50390625,
		  "velocity": 0.3937007874015748
		},
		{
		  "duration": 0.1875,
		  "durationTicks": 192,
		  "midi": 64,
		  "name": "E4",
		  "ticks": 308928,
		  "time": 301.6875,
		  "velocity": 0.3937007874015748
		},
		{
		  "duration": 0.1875,
		  "durationTicks": 192,
		  "midi": 56,
		  "name": "G#3",
		  "ticks": 308933,
		  "time": 301.6923828125,
		  "velocity": 0.3937007874015748
		},
		{
		  "duration": 0.1875,
		  "durationTicks": 192,
		  "midi": 49,
		  "name": "C#3",
		  "ticks": 308933,
		  "time": 301.6923828125,
		  "velocity": 0.3937007874015748
		},
		{
		  "duration": 0.1875,
		  "durationTicks": 192,
		  "midi": 64,
		  "name": "E4",
		  "ticks": 309120,
		  "time": 301.875,
		  "velocity": 0.3937007874015748
		},
		{
		  "duration": 0.1875,
		  "durationTicks": 192,
		  "midi": 56,
		  "name": "G#3",
		  "ticks": 309125,
		  "time": 301.8798828125,
		  "velocity": 0.3937007874015748
		},
		{
		  "duration": 0.1875,
		  "durationTicks": 192,
		  "midi": 49,
		  "name": "C#3",
		  "ticks": 309125,
		  "time": 301.8798828125,
		  "velocity": 0.3937007874015748
		},
		{
		  "duration": 0.1875,
		  "durationTicks": 192,
		  "midi": 64,
		  "name": "E4",
		  "ticks": 309312,
		  "time": 302.0625,
		  "velocity": 0.3937007874015748
		},
		{
		  "duration": 0.1875,
		  "durationTicks": 192,
		  "midi": 56,
		  "name": "G#3",
		  "ticks": 309312,
		  "time": 302.0625,
		  "velocity": 0.3937007874015748
		},
		{
		  "duration": 0.1875,
		  "durationTicks": 192,
		  "midi": 49,
		  "name": "C#3",
		  "ticks": 309317,
		  "time": 302.0673828125,
		  "velocity": 0.3937007874015748
		},
		{
		  "duration": 0.1875,
		  "durationTicks": 192,
		  "midi": 63,
		  "name": "D#4",
		  "ticks": 309504,
		  "time": 302.25,
		  "velocity": 0.3937007874015748
		},
		{
		  "duration": 0.1875,
		  "durationTicks": 192,
		  "midi": 56,
		  "name": "G#3",
		  "ticks": 309504,
		  "time": 302.25,
		  "velocity": 0.3937007874015748
		},
		{
		  "duration": 0.1875,
		  "durationTicks": 192,
		  "midi": 51,
		  "name": "D#3",
		  "ticks": 309509,
		  "time": 302.2548828125,
		  "velocity": 0.3937007874015748
		},
		{
		  "duration": 0.1875,
		  "durationTicks": 192,
		  "midi": 61,
		  "name": "C#4",
		  "ticks": 309701,
		  "time": 302.4423828125,
		  "velocity": 0.3937007874015748
		},
		{
		  "duration": 0.1875,
		  "durationTicks": 192,
		  "midi": 56,
		  "name": "G#3",
		  "ticks": 309701,
		  "time": 302.4423828125,
		  "velocity": 0.3937007874015748
		},
		{
		  "duration": 0.1875,
		  "durationTicks": 192,
		  "midi": 52,
		  "name": "E3",
		  "ticks": 309701,
		  "time": 302.4423828125,
		  "velocity": 0.3937007874015748
		},
		{
		  "duration": 0.1875,
		  "durationTicks": 192,
		  "midi": 44,
		  "name": "G#2",
		  "ticks": 309888,
		  "time": 302.625,
		  "velocity": 0.3937007874015748
		},
		{
		  "duration": 0.1875,
		  "durationTicks": 192,
		  "midi": 60,
		  "name": "C4",
		  "ticks": 309893,
		  "time": 302.6298828125,
		  "velocity": 0.3937007874015748
		},
		{
		  "duration": 0.1875,
		  "durationTicks": 192,
		  "midi": 56,
		  "name": "G#3",
		  "ticks": 309893,
		  "time": 302.6298828125,
		  "velocity": 0.3937007874015748
		},
		{
		  "duration": 0.1875,
		  "durationTicks": 192,
		  "midi": 54,
		  "name": "F#3",
		  "ticks": 309893,
		  "time": 302.6298828125,
		  "velocity": 0.3937007874015748
		},
		{
		  "duration": 0.1875,
		  "durationTicks": 192,
		  "midi": 68,
		  "name": "G#4",
		  "ticks": 310097,
		  "time": 302.8291015625,
		  "velocity": 0.3937007874015748
		},
		{
		  "duration": 0.1875,
		  "durationTicks": 192,
		  "midi": 60,
		  "name": "C4",
		  "ticks": 310097,
		  "time": 302.8291015625,
		  "velocity": 0.3937007874015748
		},
		{
		  "duration": 0.1875,
		  "durationTicks": 192,
		  "midi": 56,
		  "name": "G#3",
		  "ticks": 310101,
		  "time": 302.8330078125,
		  "velocity": 0.3937007874015748
		},
		{
		  "duration": 0.1875,
		  "durationTicks": 192,
		  "midi": 54,
		  "name": "F#3",
		  "ticks": 310101,
		  "time": 302.8330078125,
		  "velocity": 0.3937007874015748
		},
		{
		  "duration": 0.1875,
		  "durationTicks": 192,
		  "midi": 56,
		  "name": "G#3",
		  "ticks": 310289,
		  "time": 303.0166015625,
		  "velocity": 0.3937007874015748
		},
		{
		  "duration": 0.1875,
		  "durationTicks": 192,
		  "midi": 60,
		  "name": "C4",
		  "ticks": 310293,
		  "time": 303.0205078125,
		  "velocity": 0.3937007874015748
		},
		{
		  "duration": 0.1875,
		  "durationTicks": 192,
		  "midi": 68,
		  "name": "G#4",
		  "ticks": 310293,
		  "time": 303.0205078125,
		  "velocity": 0.3937007874015748
		},
		{
		  "duration": 0.1875,
		  "durationTicks": 192,
		  "midi": 54,
		  "name": "F#3",
		  "ticks": 310297,
		  "time": 303.0244140625,
		  "velocity": 0.3937007874015748
		},
		{
		  "duration": 0.1875,
		  "durationTicks": 192,
		  "midi": 56,
		  "name": "G#3",
		  "ticks": 310485,
		  "time": 303.2080078125,
		  "velocity": 0.3937007874015748
		},
		{
		  "duration": 0.1875,
		  "durationTicks": 192,
		  "midi": 68,
		  "name": "G#4",
		  "ticks": 310485,
		  "time": 303.2080078125,
		  "velocity": 0.3937007874015748
		},
		{
		  "duration": 0.1875,
		  "durationTicks": 192,
		  "midi": 60,
		  "name": "C4",
		  "ticks": 310485,
		  "time": 303.2080078125,
		  "velocity": 0.3937007874015748
		},
		{
		  "duration": 0.1875,
		  "durationTicks": 192,
		  "midi": 54,
		  "name": "F#3",
		  "ticks": 310489,
		  "time": 303.2119140625,
		  "velocity": 0.3937007874015748
		},
		{
		  "duration": 0.1875,
		  "durationTicks": 192,
		  "midi": 68,
		  "name": "G#4",
		  "ticks": 310673,
		  "time": 303.3916015625,
		  "velocity": 0.3937007874015748
		},
		{
		  "duration": 0.1875,
		  "durationTicks": 192,
		  "midi": 60,
		  "name": "C4",
		  "ticks": 310677,
		  "time": 303.3955078125,
		  "velocity": 0.3937007874015748
		},
		{
		  "duration": 0.1875,
		  "durationTicks": 192,
		  "midi": 56,
		  "name": "G#3",
		  "ticks": 310677,
		  "time": 303.3955078125,
		  "velocity": 0.3937007874015748
		},
		{
		  "duration": 0.1875,
		  "durationTicks": 192,
		  "midi": 54,
		  "name": "F#3",
		  "ticks": 310677,
		  "time": 303.3955078125,
		  "velocity": 0.3937007874015748
		},
		{
		  "duration": 0.1875,
		  "durationTicks": 192,
		  "midi": 68,
		  "name": "G#4",
		  "ticks": 310865,
		  "time": 303.5791015625,
		  "velocity": 0.3937007874015748
		},
		{
		  "duration": 0.1875,
		  "durationTicks": 192,
		  "midi": 60,
		  "name": "C4",
		  "ticks": 310869,
		  "time": 303.5830078125,
		  "velocity": 0.3937007874015748
		},
		{
		  "duration": 0.1875,
		  "durationTicks": 192,
		  "midi": 56,
		  "name": "G#3",
		  "ticks": 310869,
		  "time": 303.5830078125,
		  "velocity": 0.3937007874015748
		},
		{
		  "duration": 0.1875,
		  "durationTicks": 192,
		  "midi": 54,
		  "name": "F#3",
		  "ticks": 310869,
		  "time": 303.5830078125,
		  "velocity": 0.3937007874015748
		},
		{
		  "duration": 0.1875,
		  "durationTicks": 192,
		  "midi": 68,
		  "name": "G#4",
		  "ticks": 311057,
		  "time": 303.7666015625,
		  "velocity": 0.3937007874015748
		},
		{
		  "duration": 0.1875,
		  "durationTicks": 192,
		  "midi": 61,
		  "name": "C#4",
		  "ticks": 311057,
		  "time": 303.7666015625,
		  "velocity": 0.3937007874015748
		},
		{
		  "duration": 0.1875,
		  "durationTicks": 192,
		  "midi": 56,
		  "name": "G#3",
		  "ticks": 311061,
		  "time": 303.7705078125,
		  "velocity": 0.3937007874015748
		},
		{
		  "duration": 0.1875,
		  "durationTicks": 192,
		  "midi": 52,
		  "name": "E3",
		  "ticks": 311061,
		  "time": 303.7705078125,
		  "velocity": 0.3937007874015748
		},
		{
		  "duration": 0.1875,
		  "durationTicks": 192,
		  "midi": 68,
		  "name": "G#4",
		  "ticks": 311249,
		  "time": 303.9541015625,
		  "velocity": 0.3937007874015748
		},
		{
		  "duration": 0.1875,
		  "durationTicks": 192,
		  "midi": 63,
		  "name": "D#4",
		  "ticks": 311249,
		  "time": 303.9541015625,
		  "velocity": 0.3937007874015748
		},
		{
		  "duration": 0.1875,
		  "durationTicks": 192,
		  "midi": 56,
		  "name": "G#3",
		  "ticks": 311253,
		  "time": 303.9580078125,
		  "velocity": 0.3937007874015748
		},
		{
		  "duration": 0.1875,
		  "durationTicks": 192,
		  "midi": 51,
		  "name": "D#3",
		  "ticks": 311253,
		  "time": 303.9580078125,
		  "velocity": 0.3937007874015748
		},
		{
		  "duration": 0.1875,
		  "durationTicks": 192,
		  "midi": 56,
		  "name": "G#3",
		  "ticks": 311441,
		  "time": 304.1416015625,
		  "velocity": 0.3937007874015748
		},
		{
		  "duration": 0.1875,
		  "durationTicks": 192,
		  "midi": 37,
		  "name": "C#2",
		  "ticks": 311441,
		  "time": 304.1416015625,
		  "velocity": 0.3937007874015748
		},
		{
		  "duration": 0.1875,
		  "durationTicks": 192,
		  "midi": 64,
		  "name": "E4",
		  "ticks": 311445,
		  "time": 304.1455078125,
		  "velocity": 0.3937007874015748
		},
		{
		  "duration": 0.1875,
		  "durationTicks": 192,
		  "midi": 68,
		  "name": "G#4",
		  "ticks": 311445,
		  "time": 304.1455078125,
		  "velocity": 0.3937007874015748
		},
		{
		  "duration": 0.1875,
		  "durationTicks": 192,
		  "midi": 49,
		  "name": "C#3",
		  "ticks": 311445,
		  "time": 304.1455078125,
		  "velocity": 0.3937007874015748
		},
		{
		  "duration": 0.1875,
		  "durationTicks": 192,
		  "midi": 64,
		  "name": "E4",
		  "ticks": 311633,
		  "time": 304.3291015625,
		  "velocity": 0.3937007874015748
		},
		{
		  "duration": 0.1875,
		  "durationTicks": 192,
		  "midi": 56,
		  "name": "G#3",
		  "ticks": 311637,
		  "time": 304.3330078125,
		  "velocity": 0.3937007874015748
		},
		{
		  "duration": 0.1875,
		  "durationTicks": 192,
		  "midi": 49,
		  "name": "C#3",
		  "ticks": 311637,
		  "time": 304.3330078125,
		  "velocity": 0.3937007874015748
		},
		{
		  "duration": 0.1875,
		  "durationTicks": 192,
		  "midi": 64,
		  "name": "E4",
		  "ticks": 311825,
		  "time": 304.5166015625,
		  "velocity": 0.3937007874015748
		},
		{
		  "duration": 0.1875,
		  "durationTicks": 192,
		  "midi": 56,
		  "name": "G#3",
		  "ticks": 311829,
		  "time": 304.5205078125,
		  "velocity": 0.3937007874015748
		},
		{
		  "duration": 0.1875,
		  "durationTicks": 192,
		  "midi": 49,
		  "name": "C#3",
		  "ticks": 311829,
		  "time": 304.5205078125,
		  "velocity": 0.3937007874015748
		},
		{
		  "duration": 0.1875,
		  "durationTicks": 192,
		  "midi": 64,
		  "name": "E4",
		  "ticks": 312017,
		  "time": 304.7041015625,
		  "velocity": 0.3937007874015748
		},
		{
		  "duration": 0.1875,
		  "durationTicks": 192,
		  "midi": 56,
		  "name": "G#3",
		  "ticks": 312021,
		  "time": 304.7080078125,
		  "velocity": 0.3937007874015748
		},
		{
		  "duration": 0.1875,
		  "durationTicks": 192,
		  "midi": 49,
		  "name": "C#3",
		  "ticks": 312021,
		  "time": 304.7080078125,
		  "velocity": 0.3937007874015748
		},
		{
		  "duration": 0.1875,
		  "durationTicks": 192,
		  "midi": 64,
		  "name": "E4",
		  "ticks": 312209,
		  "time": 304.8916015625,
		  "velocity": 0.3937007874015748
		},
		{
		  "duration": 0.1875,
		  "durationTicks": 192,
		  "midi": 56,
		  "name": "G#3",
		  "ticks": 312209,
		  "time": 304.8916015625,
		  "velocity": 0.3937007874015748
		},
		{
		  "duration": 0.1875,
		  "durationTicks": 192,
		  "midi": 49,
		  "name": "C#3",
		  "ticks": 312213,
		  "time": 304.8955078125,
		  "velocity": 0.3937007874015748
		},
		{
		  "duration": 0.1875,
		  "durationTicks": 192,
		  "midi": 64,
		  "name": "E4",
		  "ticks": 312401,
		  "time": 305.0791015625,
		  "velocity": 0.3937007874015748
		},
		{
		  "duration": 0.1875,
		  "durationTicks": 192,
		  "midi": 56,
		  "name": "G#3",
		  "ticks": 312401,
		  "time": 305.0791015625,
		  "velocity": 0.3937007874015748
		},
		{
		  "duration": 0.1875,
		  "durationTicks": 192,
		  "midi": 49,
		  "name": "C#3",
		  "ticks": 312405,
		  "time": 305.0830078125,
		  "velocity": 0.3937007874015748
		},
		{
		  "duration": 0.1875,
		  "durationTicks": 192,
		  "midi": 63,
		  "name": "D#4",
		  "ticks": 312597,
		  "time": 305.2705078125,
		  "velocity": 0.3937007874015748
		},
		{
		  "duration": 0.1875,
		  "durationTicks": 192,
		  "midi": 56,
		  "name": "G#3",
		  "ticks": 312597,
		  "time": 305.2705078125,
		  "velocity": 0.3937007874015748
		},
		{
		  "duration": 0.1875,
		  "durationTicks": 192,
		  "midi": 51,
		  "name": "D#3",
		  "ticks": 312597,
		  "time": 305.2705078125,
		  "velocity": 0.3937007874015748
		},
		{
		  "duration": 0.1875,
		  "durationTicks": 192,
		  "midi": 61,
		  "name": "C#4",
		  "ticks": 312785,
		  "time": 305.4541015625,
		  "velocity": 0.3937007874015748
		},
		{
		  "duration": 0.1875,
		  "durationTicks": 192,
		  "midi": 56,
		  "name": "G#3",
		  "ticks": 312789,
		  "time": 305.4580078125,
		  "velocity": 0.3937007874015748
		},
		{
		  "duration": 0.1875,
		  "durationTicks": 192,
		  "midi": 52,
		  "name": "E3",
		  "ticks": 312789,
		  "time": 305.4580078125,
		  "velocity": 0.3937007874015748
		},
		{
		  "duration": 0.1875,
		  "durationTicks": 192,
		  "midi": 60,
		  "name": "C4",
		  "ticks": 312977,
		  "time": 305.6416015625,
		  "velocity": 0.3937007874015748
		},
		{
		  "duration": 0.1875,
		  "durationTicks": 192,
		  "midi": 44,
		  "name": "G#2",
		  "ticks": 312977,
		  "time": 305.6416015625,
		  "velocity": 0.3937007874015748
		},
		{
		  "duration": 0.1875,
		  "durationTicks": 192,
		  "midi": 56,
		  "name": "G#3",
		  "ticks": 312981,
		  "time": 305.6455078125,
		  "velocity": 0.3937007874015748
		},
		{
		  "duration": 0.1875,
		  "durationTicks": 192,
		  "midi": 54,
		  "name": "F#3",
		  "ticks": 312981,
		  "time": 305.6455078125,
		  "velocity": 0.3937007874015748
		},
		{
		  "duration": 0.1875,
		  "durationTicks": 192,
		  "midi": 60,
		  "name": "C4",
		  "ticks": 313169,
		  "time": 305.8291015625,
		  "velocity": 0.3937007874015748
		},
		{
		  "duration": 0.1875,
		  "durationTicks": 192,
		  "midi": 68,
		  "name": "G#4",
		  "ticks": 313169,
		  "time": 305.8291015625,
		  "velocity": 0.3937007874015748
		},
		{
		  "duration": 0.1875,
		  "durationTicks": 192,
		  "midi": 56,
		  "name": "G#3",
		  "ticks": 313173,
		  "time": 305.8330078125,
		  "velocity": 0.3937007874015748
		},
		{
		  "duration": 0.1875,
		  "durationTicks": 192,
		  "midi": 54,
		  "name": "F#3",
		  "ticks": 313173,
		  "time": 305.8330078125,
		  "velocity": 0.3937007874015748
		},
		{
		  "duration": 0.1875,
		  "durationTicks": 192,
		  "midi": 68,
		  "name": "G#4",
		  "ticks": 313361,
		  "time": 306.0166015625,
		  "velocity": 0.3937007874015748
		},
		{
		  "duration": 0.1875,
		  "durationTicks": 192,
		  "midi": 60,
		  "name": "C4",
		  "ticks": 313361,
		  "time": 306.0166015625,
		  "velocity": 0.3937007874015748
		},
		{
		  "duration": 0.1875,
		  "durationTicks": 192,
		  "midi": 56,
		  "name": "G#3",
		  "ticks": 313365,
		  "time": 306.0205078125,
		  "velocity": 0.3937007874015748
		},
		{
		  "duration": 0.1875,
		  "durationTicks": 192,
		  "midi": 54,
		  "name": "F#3",
		  "ticks": 313365,
		  "time": 306.0205078125,
		  "velocity": 0.3937007874015748
		},
		{
		  "duration": 0.1875,
		  "durationTicks": 192,
		  "midi": 68,
		  "name": "G#4",
		  "ticks": 313557,
		  "time": 306.2080078125,
		  "velocity": 0.3937007874015748
		},
		{
		  "duration": 0.1875,
		  "durationTicks": 192,
		  "midi": 60,
		  "name": "C4",
		  "ticks": 313557,
		  "time": 306.2080078125,
		  "velocity": 0.3937007874015748
		},
		{
		  "duration": 0.1875,
		  "durationTicks": 192,
		  "midi": 56,
		  "name": "G#3",
		  "ticks": 313557,
		  "time": 306.2080078125,
		  "velocity": 0.3937007874015748
		},
		{
		  "duration": 0.1875,
		  "durationTicks": 192,
		  "midi": 54,
		  "name": "F#3",
		  "ticks": 313561,
		  "time": 306.2119140625,
		  "velocity": 0.3937007874015748
		},
		{
		  "duration": 0.1875,
		  "durationTicks": 192,
		  "midi": 68,
		  "name": "G#4",
		  "ticks": 313749,
		  "time": 306.3955078125,
		  "velocity": 0.3937007874015748
		},
		{
		  "duration": 0.1875,
		  "durationTicks": 192,
		  "midi": 60,
		  "name": "C4",
		  "ticks": 313749,
		  "time": 306.3955078125,
		  "velocity": 0.3937007874015748
		},
		{
		  "duration": 0.1875,
		  "durationTicks": 192,
		  "midi": 56,
		  "name": "G#3",
		  "ticks": 313749,
		  "time": 306.3955078125,
		  "velocity": 0.3937007874015748
		},
		{
		  "duration": 0.1875,
		  "durationTicks": 192,
		  "midi": 54,
		  "name": "F#3",
		  "ticks": 313753,
		  "time": 306.3994140625,
		  "velocity": 0.3937007874015748
		},
		{
		  "duration": 0.1875,
		  "durationTicks": 192,
		  "midi": 68,
		  "name": "G#4",
		  "ticks": 313937,
		  "time": 306.5791015625,
		  "velocity": 0.3937007874015748
		},
		{
		  "duration": 0.1875,
		  "durationTicks": 192,
		  "midi": 60,
		  "name": "C4",
		  "ticks": 313941,
		  "time": 306.5830078125,
		  "velocity": 0.3937007874015748
		},
		{
		  "duration": 0.1875,
		  "durationTicks": 192,
		  "midi": 56,
		  "name": "G#3",
		  "ticks": 313941,
		  "time": 306.5830078125,
		  "velocity": 0.3937007874015748
		},
		{
		  "duration": 0.1875,
		  "durationTicks": 192,
		  "midi": 54,
		  "name": "F#3",
		  "ticks": 313941,
		  "time": 306.5830078125,
		  "velocity": 0.3937007874015748
		},
		{
		  "duration": 0.1875,
		  "durationTicks": 192,
		  "midi": 68,
		  "name": "G#4",
		  "ticks": 314129,
		  "time": 306.7666015625,
		  "velocity": 0.3937007874015748
		},
		{
		  "duration": 0.1875,
		  "durationTicks": 192,
		  "midi": 61,
		  "name": "C#4",
		  "ticks": 314133,
		  "time": 306.7705078125,
		  "velocity": 0.3937007874015748
		},
		{
		  "duration": 0.1875,
		  "durationTicks": 192,
		  "midi": 56,
		  "name": "G#3",
		  "ticks": 314133,
		  "time": 306.7705078125,
		  "velocity": 0.3937007874015748
		},
		{
		  "duration": 0.1875,
		  "durationTicks": 192,
		  "midi": 52,
		  "name": "E3",
		  "ticks": 314133,
		  "time": 306.7705078125,
		  "velocity": 0.3937007874015748
		},
		{
		  "duration": 0.1875,
		  "durationTicks": 192,
		  "midi": 68,
		  "name": "G#4",
		  "ticks": 314321,
		  "time": 306.9541015625,
		  "velocity": 0.3937007874015748
		},
		{
		  "duration": 0.1875,
		  "durationTicks": 192,
		  "midi": 63,
		  "name": "D#4",
		  "ticks": 314321,
		  "time": 306.9541015625,
		  "velocity": 0.3937007874015748
		},
		{
		  "duration": 0.1875,
		  "durationTicks": 192,
		  "midi": 56,
		  "name": "G#3",
		  "ticks": 314325,
		  "time": 306.9580078125,
		  "velocity": 0.3937007874015748
		},
		{
		  "duration": 0.1875,
		  "durationTicks": 192,
		  "midi": 51,
		  "name": "D#3",
		  "ticks": 314325,
		  "time": 306.9580078125,
		  "velocity": 0.3937007874015748
		},
		{
		  "duration": 0.1884765625,
		  "durationTicks": 193,
		  "midi": 68,
		  "name": "G#4",
		  "ticks": 314513,
		  "time": 307.1416015625,
		  "velocity": 0.3937007874015748
		},
		{
		  "duration": 0.1884765625,
		  "durationTicks": 193,
		  "midi": 64,
		  "name": "E4",
		  "ticks": 314513,
		  "time": 307.1416015625,
		  "velocity": 0.3937007874015748
		},
		{
		  "duration": 0.1884765625,
		  "durationTicks": 193,
		  "midi": 56,
		  "name": "G#3",
		  "ticks": 314513,
		  "time": 307.1416015625,
		  "velocity": 0.3937007874015748
		},
		{
		  "duration": 0.1884765625,
		  "durationTicks": 193,
		  "midi": 49,
		  "name": "C#3",
		  "ticks": 314517,
		  "time": 307.1455078125,
		  "velocity": 0.3937007874015748
		},
		{
		  "duration": 0.1884765625,
		  "durationTicks": 193,
		  "midi": 37,
		  "name": "C#2",
		  "ticks": 314517,
		  "time": 307.1455078125,
		  "velocity": 0.3937007874015748
		},
		{
		  "duration": 0.1884765625,
		  "durationTicks": 193,
		  "midi": 68,
		  "name": "G#4",
		  "ticks": 314689,
		  "time": 307.3134765625,
		  "velocity": 0.3937007874015748
		},
		{
		  "duration": 0.1884765625,
		  "durationTicks": 193,
		  "midi": 64,
		  "name": "E4",
		  "ticks": 314689,
		  "time": 307.3134765625,
		  "velocity": 0.3937007874015748
		},
		{
		  "duration": 0.1884765625,
		  "durationTicks": 193,
		  "midi": 49,
		  "name": "C#3",
		  "ticks": 314694,
		  "time": 307.318359375,
		  "velocity": 0.3937007874015748
		},
		{
		  "duration": 0.1884765625,
		  "durationTicks": 193,
		  "midi": 52,
		  "name": "E3",
		  "ticks": 314694,
		  "time": 307.318359375,
		  "velocity": 0.3937007874015748
		},
		{
		  "duration": 0.1875,
		  "durationTicks": 192,
		  "midi": 68,
		  "name": "G#4",
		  "ticks": 314882,
		  "time": 307.501953125,
		  "velocity": 0.3937007874015748
		},
		{
		  "duration": 0.1875,
		  "durationTicks": 192,
		  "midi": 64,
		  "name": "E4",
		  "ticks": 314882,
		  "time": 307.501953125,
		  "velocity": 0.3937007874015748
		},
		{
		  "duration": 0.1875,
		  "durationTicks": 192,
		  "midi": 49,
		  "name": "C#3",
		  "ticks": 314882,
		  "time": 307.501953125,
		  "velocity": 0.3937007874015748
		},
		{
		  "duration": 0.1875,
		  "durationTicks": 192,
		  "midi": 52,
		  "name": "E3",
		  "ticks": 314882,
		  "time": 307.501953125,
		  "velocity": 0.3937007874015748
		},
		{
		  "duration": 0.1875,
		  "durationTicks": 192,
		  "midi": 64,
		  "name": "E4",
		  "ticks": 315079,
		  "time": 307.6943359375,
		  "velocity": 0.3937007874015748
		},
		{
		  "duration": 0.1875,
		  "durationTicks": 192,
		  "midi": 61,
		  "name": "C#4",
		  "ticks": 315079,
		  "time": 307.6943359375,
		  "velocity": 0.3937007874015748
		},
		{
		  "duration": 0.1875,
		  "durationTicks": 192,
		  "midi": 56,
		  "name": "G#3",
		  "ticks": 315079,
		  "time": 307.6943359375,
		  "velocity": 0.3937007874015748
		},
		{
		  "duration": 0.1875,
		  "durationTicks": 192,
		  "midi": 52,
		  "name": "E3",
		  "ticks": 315083,
		  "time": 307.6982421875,
		  "velocity": 0.3937007874015748
		},
		{
		  "duration": 0.1884765625,
		  "durationTicks": 193,
		  "midi": 42,
		  "name": "F#2",
		  "ticks": 315283,
		  "time": 307.8935546875,
		  "velocity": 0.3937007874015748
		},
		{
		  "duration": 0.1884765625,
		  "durationTicks": 193,
		  "midi": 69,
		  "name": "A4",
		  "ticks": 315459,
		  "time": 308.0654296875,
		  "velocity": 0.3937007874015748
		},
		{
		  "duration": 0.1884765625,
		  "durationTicks": 193,
		  "midi": 66,
		  "name": "F#4",
		  "ticks": 315464,
		  "time": 308.0703125,
		  "velocity": 0.3937007874015748
		},
		{
		  "duration": 0.1884765625,
		  "durationTicks": 193,
		  "midi": 54,
		  "name": "F#3",
		  "ticks": 315464,
		  "time": 308.0703125,
		  "velocity": 0.3937007874015748
		},
		{
		  "duration": 0.1884765625,
		  "durationTicks": 193,
		  "midi": 49,
		  "name": "C#3",
		  "ticks": 315464,
		  "time": 308.0703125,
		  "velocity": 0.3937007874015748
		},
		{
		  "duration": 0.1875,
		  "durationTicks": 192,
		  "midi": 69,
		  "name": "A4",
		  "ticks": 315652,
		  "time": 308.25390625,
		  "velocity": 0.3937007874015748
		},
		{
		  "duration": 0.1875,
		  "durationTicks": 192,
		  "midi": 66,
		  "name": "F#4",
		  "ticks": 315652,
		  "time": 308.25390625,
		  "velocity": 0.3937007874015748
		},
		{
		  "duration": 0.1875,
		  "durationTicks": 192,
		  "midi": 49,
		  "name": "C#3",
		  "ticks": 315652,
		  "time": 308.25390625,
		  "velocity": 0.3937007874015748
		},
		{
		  "duration": 0.1875,
		  "durationTicks": 192,
		  "midi": 54,
		  "name": "F#3",
		  "ticks": 315652,
		  "time": 308.25390625,
		  "velocity": 0.3937007874015748
		},
		{
		  "duration": 0.1875,
		  "durationTicks": 192,
		  "midi": 66,
		  "name": "F#4",
		  "ticks": 315844,
		  "time": 308.44140625,
		  "velocity": 0.3937007874015748
		},
		{
		  "duration": 0.1875,
		  "durationTicks": 192,
		  "midi": 61,
		  "name": "C#4",
		  "ticks": 315844,
		  "time": 308.44140625,
		  "velocity": 0.3937007874015748
		},
		{
		  "duration": 0.1875,
		  "durationTicks": 192,
		  "midi": 57,
		  "name": "A3",
		  "ticks": 315849,
		  "time": 308.4462890625,
		  "velocity": 0.3937007874015748
		},
		{
		  "duration": 0.1875,
		  "durationTicks": 192,
		  "midi": 54,
		  "name": "F#3",
		  "ticks": 315849,
		  "time": 308.4462890625,
		  "velocity": 0.3937007874015748
		},
		{
		  "duration": 0.1884765625,
		  "durationTicks": 193,
		  "midi": 44,
		  "name": "G#2",
		  "ticks": 316056,
		  "time": 308.6484375,
		  "velocity": 0.3937007874015748
		},
		{
		  "duration": 0.1884765625,
		  "durationTicks": 193,
		  "midi": 68,
		  "name": "G#4",
		  "ticks": 316233,
		  "time": 308.8212890625,
		  "velocity": 0.3937007874015748
		},
		{
		  "duration": 0.1884765625,
		  "durationTicks": 193,
		  "midi": 64,
		  "name": "E4",
		  "ticks": 316233,
		  "time": 308.8212890625,
		  "velocity": 0.3937007874015748
		},
		{
		  "duration": 0.1884765625,
		  "durationTicks": 193,
		  "midi": 52,
		  "name": "E3",
		  "ticks": 316233,
		  "time": 308.8212890625,
		  "velocity": 0.3937007874015748
		},
		{
		  "duration": 0.1884765625,
		  "durationTicks": 193,
		  "midi": 49,
		  "name": "C#3",
		  "ticks": 316237,
		  "time": 308.8251953125,
		  "velocity": 0.3937007874015748
		},
		{
		  "duration": 0.1875,
		  "durationTicks": 192,
		  "midi": 68,
		  "name": "G#4",
		  "ticks": 316421,
		  "time": 309.0048828125,
		  "velocity": 0.3937007874015748
		},
		{
		  "duration": 0.1875,
		  "durationTicks": 192,
		  "midi": 64,
		  "name": "E4",
		  "ticks": 316426,
		  "time": 309.009765625,
		  "velocity": 0.3937007874015748
		},
		{
		  "duration": 0.1875,
		  "durationTicks": 192,
		  "midi": 52,
		  "name": "E3",
		  "ticks": 316426,
		  "time": 309.009765625,
		  "velocity": 0.3937007874015748
		},
		{
		  "duration": 0.1875,
		  "durationTicks": 192,
		  "midi": 49,
		  "name": "C#3",
		  "ticks": 316430,
		  "time": 309.013671875,
		  "velocity": 0.3937007874015748
		},
		{
		  "duration": 0.1875,
		  "durationTicks": 192,
		  "midi": 64,
		  "name": "E4",
		  "ticks": 316630,
		  "time": 309.208984375,
		  "velocity": 0.3937007874015748
		},
		{
		  "duration": 0.1875,
		  "durationTicks": 192,
		  "midi": 61,
		  "name": "C#4",
		  "ticks": 316630,
		  "time": 309.208984375,
		  "velocity": 0.3937007874015748
		},
		{
		  "duration": 0.1875,
		  "durationTicks": 192,
		  "midi": 56,
		  "name": "G#3",
		  "ticks": 316634,
		  "time": 309.212890625,
		  "velocity": 0.3937007874015748
		},
		{
		  "duration": 0.1875,
		  "durationTicks": 192,
		  "midi": 52,
		  "name": "E3",
		  "ticks": 316634,
		  "time": 309.212890625,
		  "velocity": 0.3937007874015748
		},
		{
		  "duration": 0.1875,
		  "durationTicks": 192,
		  "midi": 44,
		  "name": "G#2",
		  "ticks": 316826,
		  "time": 309.400390625,
		  "velocity": 0.3937007874015748
		},
		{
		  "duration": 0.1875,
		  "durationTicks": 192,
		  "midi": 68,
		  "name": "G#4",
		  "ticks": 316998,
		  "time": 309.568359375,
		  "velocity": 0.3937007874015748
		},
		{
		  "duration": 0.1875,
		  "durationTicks": 192,
		  "midi": 63,
		  "name": "D#4",
		  "ticks": 316998,
		  "time": 309.568359375,
		  "velocity": 0.3937007874015748
		},
		{
		  "duration": 0.1875,
		  "durationTicks": 192,
		  "midi": 48,
		  "name": "C3",
		  "ticks": 317003,
		  "time": 309.5732421875,
		  "velocity": 0.3937007874015748
		},
		{
		  "duration": 0.1875,
		  "durationTicks": 192,
		  "midi": 51,
		  "name": "D#3",
		  "ticks": 317003,
		  "time": 309.5732421875,
		  "velocity": 0.3937007874015748
		},
		{
		  "duration": 0.1875,
		  "durationTicks": 192,
		  "midi": 48,
		  "name": "C3",
		  "ticks": 317190,
		  "time": 309.755859375,
		  "velocity": 0.3937007874015748
		},
		{
		  "duration": 0.1875,
		  "durationTicks": 192,
		  "midi": 63,
		  "name": "D#4",
		  "ticks": 317195,
		  "time": 309.7607421875,
		  "velocity": 0.3937007874015748
		},
		{
		  "duration": 0.1875,
		  "durationTicks": 192,
		  "midi": 68,
		  "name": "G#4",
		  "ticks": 317195,
		  "time": 309.7607421875,
		  "velocity": 0.3937007874015748
		},
		{
		  "duration": 0.1875,
		  "durationTicks": 192,
		  "midi": 51,
		  "name": "D#3",
		  "ticks": 317199,
		  "time": 309.7646484375,
		  "velocity": 0.3937007874015748
		},
		{
		  "duration": 0.1875,
		  "durationTicks": 192,
		  "midi": 63,
		  "name": "D#4",
		  "ticks": 317399,
		  "time": 309.9599609375,
		  "velocity": 0.3937007874015748
		},
		{
		  "duration": 0.1875,
		  "durationTicks": 192,
		  "midi": 60,
		  "name": "C4",
		  "ticks": 317403,
		  "time": 309.9638671875,
		  "velocity": 0.3937007874015748
		},
		{
		  "duration": 0.1875,
		  "durationTicks": 192,
		  "midi": 56,
		  "name": "G#3",
		  "ticks": 317403,
		  "time": 309.9638671875,
		  "velocity": 0.3937007874015748
		},
		{
		  "duration": 0.1875,
		  "durationTicks": 192,
		  "midi": 51,
		  "name": "D#3",
		  "ticks": 317403,
		  "time": 309.9638671875,
		  "velocity": 0.3937007874015748
		},
		{
		  "duration": 0.1875,
		  "durationTicks": 192,
		  "midi": 64,
		  "name": "E4",
		  "ticks": 317591,
		  "time": 310.1474609375,
		  "velocity": 0.3937007874015748
		},
		{
		  "duration": 0.1875,
		  "durationTicks": 192,
		  "midi": 61,
		  "name": "C#4",
		  "ticks": 317591,
		  "time": 310.1474609375,
		  "velocity": 0.3937007874015748
		},
		{
		  "duration": 0.1875,
		  "durationTicks": 192,
		  "midi": 37,
		  "name": "C#2",
		  "ticks": 317595,
		  "time": 310.1513671875,
		  "velocity": 0.3937007874015748
		},
		{
		  "duration": 0.1875,
		  "durationTicks": 192,
		  "midi": 49,
		  "name": "C#3",
		  "ticks": 317595,
		  "time": 310.1513671875,
		  "velocity": 0.3937007874015748
		},
		{
		  "duration": 0.1875,
		  "durationTicks": 192,
		  "midi": 64,
		  "name": "E4",
		  "ticks": 317783,
		  "time": 310.3349609375,
		  "velocity": 0.3937007874015748
		},
		{
		  "duration": 0.1875,
		  "durationTicks": 192,
		  "midi": 76,
		  "name": "E5",
		  "ticks": 317783,
		  "time": 310.3349609375,
		  "velocity": 0.3937007874015748
		},
		{
		  "duration": 0.1875,
		  "durationTicks": 192,
		  "midi": 68,
		  "name": "G#4",
		  "ticks": 317783,
		  "time": 310.3349609375,
		  "velocity": 0.3937007874015748
		},
		{
		  "duration": 0.1875,
		  "durationTicks": 192,
		  "midi": 56,
		  "name": "G#3",
		  "ticks": 317787,
		  "time": 310.3388671875,
		  "velocity": 0.3937007874015748
		},
		{
		  "duration": 0.1875,
		  "durationTicks": 192,
		  "midi": 49,
		  "name": "C#3",
		  "ticks": 317787,
		  "time": 310.3388671875,
		  "velocity": 0.3937007874015748
		},
		{
		  "duration": 0.1875,
		  "durationTicks": 192,
		  "midi": 64,
		  "name": "E4",
		  "ticks": 317979,
		  "time": 310.5263671875,
		  "velocity": 0.3937007874015748
		},
		{
		  "duration": 0.1875,
		  "durationTicks": 192,
		  "midi": 68,
		  "name": "G#4",
		  "ticks": 317979,
		  "time": 310.5263671875,
		  "velocity": 0.3937007874015748
		},
		{
		  "duration": 0.1875,
		  "durationTicks": 192,
		  "midi": 76,
		  "name": "E5",
		  "ticks": 317979,
		  "time": 310.5263671875,
		  "velocity": 0.3937007874015748
		},
		{
		  "duration": 0.1875,
		  "durationTicks": 192,
		  "midi": 49,
		  "name": "C#3",
		  "ticks": 317983,
		  "time": 310.5302734375,
		  "velocity": 0.3937007874015748
		},
		{
		  "duration": 0.1875,
		  "durationTicks": 192,
		  "midi": 56,
		  "name": "G#3",
		  "ticks": 317983,
		  "time": 310.5302734375,
		  "velocity": 0.3937007874015748
		},
		{
		  "duration": 0.1875,
		  "durationTicks": 192,
		  "midi": 68,
		  "name": "G#4",
		  "ticks": 318171,
		  "time": 310.7138671875,
		  "velocity": 0.3937007874015748
		},
		{
		  "duration": 0.1875,
		  "durationTicks": 192,
		  "midi": 76,
		  "name": "E5",
		  "ticks": 318171,
		  "time": 310.7138671875,
		  "velocity": 0.3937007874015748
		},
		{
		  "duration": 0.1875,
		  "durationTicks": 192,
		  "midi": 64,
		  "name": "E4",
		  "ticks": 318171,
		  "time": 310.7138671875,
		  "velocity": 0.3937007874015748
		},
		{
		  "duration": 0.1875,
		  "durationTicks": 192,
		  "midi": 56,
		  "name": "G#3",
		  "ticks": 318175,
		  "time": 310.7177734375,
		  "velocity": 0.3937007874015748
		},
		{
		  "duration": 0.1875,
		  "durationTicks": 192,
		  "midi": 49,
		  "name": "C#3",
		  "ticks": 318175,
		  "time": 310.7177734375,
		  "velocity": 0.3937007874015748
		},
		{
		  "duration": 0.1875,
		  "durationTicks": 192,
		  "midi": 76,
		  "name": "E5",
		  "ticks": 318363,
		  "time": 310.9013671875,
		  "velocity": 0.3937007874015748
		},
		{
		  "duration": 0.1875,
		  "durationTicks": 192,
		  "midi": 64,
		  "name": "E4",
		  "ticks": 318363,
		  "time": 310.9013671875,
		  "velocity": 0.3937007874015748
		},
		{
		  "duration": 0.1875,
		  "durationTicks": 192,
		  "midi": 68,
		  "name": "G#4",
		  "ticks": 318363,
		  "time": 310.9013671875,
		  "velocity": 0.3937007874015748
		},
		{
		  "duration": 0.1875,
		  "durationTicks": 192,
		  "midi": 49,
		  "name": "C#3",
		  "ticks": 318363,
		  "time": 310.9013671875,
		  "velocity": 0.3937007874015748
		},
		{
		  "duration": 0.1875,
		  "durationTicks": 192,
		  "midi": 56,
		  "name": "G#3",
		  "ticks": 318363,
		  "time": 310.9013671875,
		  "velocity": 0.3937007874015748
		},
		{
		  "duration": 0.1875,
		  "durationTicks": 192,
		  "midi": 76,
		  "name": "E5",
		  "ticks": 318555,
		  "time": 311.0888671875,
		  "velocity": 0.3937007874015748
		},
		{
		  "duration": 0.1875,
		  "durationTicks": 192,
		  "midi": 68,
		  "name": "G#4",
		  "ticks": 318555,
		  "time": 311.0888671875,
		  "velocity": 0.3937007874015748
		},
		{
		  "duration": 0.1875,
		  "durationTicks": 192,
		  "midi": 64,
		  "name": "E4",
		  "ticks": 318555,
		  "time": 311.0888671875,
		  "velocity": 0.3937007874015748
		},
		{
		  "duration": 0.1875,
		  "durationTicks": 192,
		  "midi": 56,
		  "name": "G#3",
		  "ticks": 318559,
		  "time": 311.0927734375,
		  "velocity": 0.3937007874015748
		},
		{
		  "duration": 0.1875,
		  "durationTicks": 192,
		  "midi": 49,
		  "name": "C#3",
		  "ticks": 318559,
		  "time": 311.0927734375,
		  "velocity": 0.3937007874015748
		},
		{
		  "duration": 0.1875,
		  "durationTicks": 192,
		  "midi": 75,
		  "name": "D#5",
		  "ticks": 318743,
		  "time": 311.2724609375,
		  "velocity": 0.3937007874015748
		},
		{
		  "duration": 0.1875,
		  "durationTicks": 192,
		  "midi": 66,
		  "name": "F#4",
		  "ticks": 318743,
		  "time": 311.2724609375,
		  "velocity": 0.3937007874015748
		},
		{
		  "duration": 0.1875,
		  "durationTicks": 192,
		  "midi": 63,
		  "name": "D#4",
		  "ticks": 318747,
		  "time": 311.2763671875,
		  "velocity": 0.3937007874015748
		},
		{
		  "duration": 0.1875,
		  "durationTicks": 192,
		  "midi": 56,
		  "name": "G#3",
		  "ticks": 318747,
		  "time": 311.2763671875,
		  "velocity": 0.3937007874015748
		},
		{
		  "duration": 0.1875,
		  "durationTicks": 192,
		  "midi": 51,
		  "name": "D#3",
		  "ticks": 318747,
		  "time": 311.2763671875,
		  "velocity": 0.3937007874015748
		},
		{
		  "duration": 0.1875,
		  "durationTicks": 192,
		  "midi": 73,
		  "name": "C#5",
		  "ticks": 318935,
		  "time": 311.4599609375,
		  "velocity": 0.3937007874015748
		},
		{
		  "duration": 0.1875,
		  "durationTicks": 192,
		  "midi": 64,
		  "name": "E4",
		  "ticks": 318935,
		  "time": 311.4599609375,
		  "velocity": 0.3937007874015748
		},
		{
		  "duration": 0.1875,
		  "durationTicks": 192,
		  "midi": 61,
		  "name": "C#4",
		  "ticks": 318939,
		  "time": 311.4638671875,
		  "velocity": 0.3937007874015748
		},
		{
		  "duration": 0.1875,
		  "durationTicks": 192,
		  "midi": 52,
		  "name": "E3",
		  "ticks": 318939,
		  "time": 311.4638671875,
		  "velocity": 0.3937007874015748
		},
		{
		  "duration": 0.1875,
		  "durationTicks": 192,
		  "midi": 56,
		  "name": "G#3",
		  "ticks": 318939,
		  "time": 311.4638671875,
		  "velocity": 0.3937007874015748
		},
		{
		  "duration": 0.1875,
		  "durationTicks": 192,
		  "midi": 72,
		  "name": "C5",
		  "ticks": 319127,
		  "time": 311.6474609375,
		  "velocity": 0.3937007874015748
		},
		{
		  "duration": 0.1875,
		  "durationTicks": 192,
		  "midi": 63,
		  "name": "D#4",
		  "ticks": 319127,
		  "time": 311.6474609375,
		  "velocity": 0.3937007874015748
		},
		{
		  "duration": 0.1875,
		  "durationTicks": 192,
		  "midi": 60,
		  "name": "C4",
		  "ticks": 319131,
		  "time": 311.6513671875,
		  "velocity": 0.3937007874015748
		},
		{
		  "duration": 0.1875,
		  "durationTicks": 192,
		  "midi": 54,
		  "name": "F#3",
		  "ticks": 319131,
		  "time": 311.6513671875,
		  "velocity": 0.3937007874015748
		},
		{
		  "duration": 0.1875,
		  "durationTicks": 192,
		  "midi": 56,
		  "name": "G#3",
		  "ticks": 319131,
		  "time": 311.6513671875,
		  "velocity": 0.3937007874015748
		},
		{
		  "duration": 0.1875,
		  "durationTicks": 192,
		  "midi": 44,
		  "name": "G#2",
		  "ticks": 319131,
		  "time": 311.6513671875,
		  "velocity": 0.3937007874015748
		},
		{
		  "duration": 0.1875,
		  "durationTicks": 192,
		  "midi": 72,
		  "name": "C5",
		  "ticks": 319323,
		  "time": 311.8388671875,
		  "velocity": 0.3937007874015748
		},
		{
		  "duration": 0.1875,
		  "durationTicks": 192,
		  "midi": 75,
		  "name": "D#5",
		  "ticks": 319323,
		  "time": 311.8388671875,
		  "velocity": 0.3937007874015748
		},
		{
		  "duration": 0.1875,
		  "durationTicks": 192,
		  "midi": 84,
		  "name": "C6",
		  "ticks": 319323,
		  "time": 311.8388671875,
		  "velocity": 0.3937007874015748
		},
		{
		  "duration": 0.1875,
		  "durationTicks": 192,
		  "midi": 66,
		  "name": "F#4",
		  "ticks": 319327,
		  "time": 311.8427734375,
		  "velocity": 0.3937007874015748
		},
		{
		  "duration": 0.1875,
		  "durationTicks": 192,
		  "midi": 56,
		  "name": "G#3",
		  "ticks": 319327,
		  "time": 311.8427734375,
		  "velocity": 0.3937007874015748
		},
		{
		  "duration": 0.1875,
		  "durationTicks": 192,
		  "midi": 84,
		  "name": "C6",
		  "ticks": 319511,
		  "time": 312.0224609375,
		  "velocity": 0.3937007874015748
		},
		{
		  "duration": 0.1875,
		  "durationTicks": 192,
		  "midi": 75,
		  "name": "D#5",
		  "ticks": 319515,
		  "time": 312.0263671875,
		  "velocity": 0.3937007874015748
		},
		{
		  "duration": 0.1875,
		  "durationTicks": 192,
		  "midi": 72,
		  "name": "C5",
		  "ticks": 319515,
		  "time": 312.0263671875,
		  "velocity": 0.3937007874015748
		},
		{
		  "duration": 0.1875,
		  "durationTicks": 192,
		  "midi": 66,
		  "name": "F#4",
		  "ticks": 319515,
		  "time": 312.0263671875,
		  "velocity": 0.3937007874015748
		},
		{
		  "duration": 0.1875,
		  "durationTicks": 192,
		  "midi": 56,
		  "name": "G#3",
		  "ticks": 319515,
		  "time": 312.0263671875,
		  "velocity": 0.3937007874015748
		},
		{
		  "duration": 0.1875,
		  "durationTicks": 192,
		  "midi": 84,
		  "name": "C6",
		  "ticks": 319703,
		  "time": 312.2099609375,
		  "velocity": 0.3937007874015748
		},
		{
		  "duration": 0.1875,
		  "durationTicks": 192,
		  "midi": 75,
		  "name": "D#5",
		  "ticks": 319707,
		  "time": 312.2138671875,
		  "velocity": 0.3937007874015748
		},
		{
		  "duration": 0.1875,
		  "durationTicks": 192,
		  "midi": 72,
		  "name": "C5",
		  "ticks": 319707,
		  "time": 312.2138671875,
		  "velocity": 0.3937007874015748
		},
		{
		  "duration": 0.1875,
		  "durationTicks": 192,
		  "midi": 66,
		  "name": "F#4",
		  "ticks": 319707,
		  "time": 312.2138671875,
		  "velocity": 0.3937007874015748
		},
		{
		  "duration": 0.1875,
		  "durationTicks": 192,
		  "midi": 56,
		  "name": "G#3",
		  "ticks": 319707,
		  "time": 312.2138671875,
		  "velocity": 0.3937007874015748
		},
		{
		  "duration": 0.1875,
		  "durationTicks": 192,
		  "midi": 84,
		  "name": "C6",
		  "ticks": 319895,
		  "time": 312.3974609375,
		  "velocity": 0.3937007874015748
		},
		{
		  "duration": 0.1875,
		  "durationTicks": 192,
		  "midi": 75,
		  "name": "D#5",
		  "ticks": 319895,
		  "time": 312.3974609375,
		  "velocity": 0.3937007874015748
		},
		{
		  "duration": 0.1875,
		  "durationTicks": 192,
		  "midi": 72,
		  "name": "C5",
		  "ticks": 319899,
		  "time": 312.4013671875,
		  "velocity": 0.3937007874015748
		},
		{
		  "duration": 0.1875,
		  "durationTicks": 192,
		  "midi": 66,
		  "name": "F#4",
		  "ticks": 319899,
		  "time": 312.4013671875,
		  "velocity": 0.3937007874015748
		},
		{
		  "duration": 0.1875,
		  "durationTicks": 192,
		  "midi": 56,
		  "name": "G#3",
		  "ticks": 319899,
		  "time": 312.4013671875,
		  "velocity": 0.3937007874015748
		},
		{
		  "duration": 0.1875,
		  "durationTicks": 192,
		  "midi": 84,
		  "name": "C6",
		  "ticks": 320087,
		  "time": 312.5849609375,
		  "velocity": 0.3937007874015748
		},
		{
		  "duration": 0.1875,
		  "durationTicks": 192,
		  "midi": 75,
		  "name": "D#5",
		  "ticks": 320087,
		  "time": 312.5849609375,
		  "velocity": 0.3937007874015748
		},
		{
		  "duration": 0.1875,
		  "durationTicks": 192,
		  "midi": 72,
		  "name": "C5",
		  "ticks": 320091,
		  "time": 312.5888671875,
		  "velocity": 0.3937007874015748
		},
		{
		  "duration": 0.1875,
		  "durationTicks": 192,
		  "midi": 66,
		  "name": "F#4",
		  "ticks": 320091,
		  "time": 312.5888671875,
		  "velocity": 0.3937007874015748
		},
		{
		  "duration": 0.1875,
		  "durationTicks": 192,
		  "midi": 56,
		  "name": "G#3",
		  "ticks": 320091,
		  "time": 312.5888671875,
		  "velocity": 0.3937007874015748
		},
		{
		  "duration": 0.1875,
		  "durationTicks": 192,
		  "midi": 85,
		  "name": "C#6",
		  "ticks": 320283,
		  "time": 312.7763671875,
		  "velocity": 0.3937007874015748
		},
		{
		  "duration": 0.1875,
		  "durationTicks": 192,
		  "midi": 76,
		  "name": "E5",
		  "ticks": 320283,
		  "time": 312.7763671875,
		  "velocity": 0.3937007874015748
		},
		{
		  "duration": 0.1875,
		  "durationTicks": 192,
		  "midi": 73,
		  "name": "C#5",
		  "ticks": 320283,
		  "time": 312.7763671875,
		  "velocity": 0.3937007874015748
		},
		{
		  "duration": 0.1875,
		  "durationTicks": 192,
		  "midi": 64,
		  "name": "E4",
		  "ticks": 320287,
		  "time": 312.7802734375,
		  "velocity": 0.3937007874015748
		},
		{
		  "duration": 0.1875,
		  "durationTicks": 192,
		  "midi": 56,
		  "name": "G#3",
		  "ticks": 320287,
		  "time": 312.7802734375,
		  "velocity": 0.3937007874015748
		},
		{
		  "duration": 0.1875,
		  "durationTicks": 192,
		  "midi": 87,
		  "name": "D#6",
		  "ticks": 320471,
		  "time": 312.9599609375,
		  "velocity": 0.3937007874015748
		},
		{
		  "duration": 0.1875,
		  "durationTicks": 192,
		  "midi": 78,
		  "name": "F#5",
		  "ticks": 320475,
		  "time": 312.9638671875,
		  "velocity": 0.3937007874015748
		},
		{
		  "duration": 0.1875,
		  "durationTicks": 192,
		  "midi": 75,
		  "name": "D#5",
		  "ticks": 320475,
		  "time": 312.9638671875,
		  "velocity": 0.3937007874015748
		},
		{
		  "duration": 0.1875,
		  "durationTicks": 192,
		  "midi": 63,
		  "name": "D#4",
		  "ticks": 320475,
		  "time": 312.9638671875,
		  "velocity": 0.3937007874015748
		},
		{
		  "duration": 0.1875,
		  "durationTicks": 192,
		  "midi": 56,
		  "name": "G#3",
		  "ticks": 320475,
		  "time": 312.9638671875,
		  "velocity": 0.3937007874015748
		},
		{
		  "duration": 0.1875,
		  "durationTicks": 192,
		  "midi": 88,
		  "name": "E6",
		  "ticks": 320663,
		  "time": 313.1474609375,
		  "velocity": 0.3937007874015748
		},
		{
		  "duration": 0.1875,
		  "durationTicks": 192,
		  "midi": 80,
		  "name": "G#5",
		  "ticks": 320667,
		  "time": 313.1513671875,
		  "velocity": 0.3937007874015748
		},
		{
		  "duration": 0.1875,
		  "durationTicks": 192,
		  "midi": 76,
		  "name": "E5",
		  "ticks": 320667,
		  "time": 313.1513671875,
		  "velocity": 0.3937007874015748
		},
		{
		  "duration": 0.1875,
		  "durationTicks": 192,
		  "midi": 49,
		  "name": "C#3",
		  "ticks": 320671,
		  "time": 313.1552734375,
		  "velocity": 0.3937007874015748
		},
		{
		  "duration": 0.1875,
		  "durationTicks": 192,
		  "midi": 37,
		  "name": "C#2",
		  "ticks": 320671,
		  "time": 313.1552734375,
		  "velocity": 0.3937007874015748
		},
		{
		  "duration": 0.1875,
		  "durationTicks": 192,
		  "midi": 76,
		  "name": "E5",
		  "ticks": 320855,
		  "time": 313.3349609375,
		  "velocity": 0.3937007874015748
		},
		{
		  "duration": 0.1875,
		  "durationTicks": 192,
		  "midi": 68,
		  "name": "G#4",
		  "ticks": 320855,
		  "time": 313.3349609375,
		  "velocity": 0.3937007874015748
		},
		{
		  "duration": 0.1875,
		  "durationTicks": 192,
		  "midi": 64,
		  "name": "E4",
		  "ticks": 320859,
		  "time": 313.3388671875,
		  "velocity": 0.3937007874015748
		},
		{
		  "duration": 0.1875,
		  "durationTicks": 192,
		  "midi": 56,
		  "name": "G#3",
		  "ticks": 320859,
		  "time": 313.3388671875,
		  "velocity": 0.3937007874015748
		},
		{
		  "duration": 0.1875,
		  "durationTicks": 192,
		  "midi": 49,
		  "name": "C#3",
		  "ticks": 320859,
		  "time": 313.3388671875,
		  "velocity": 0.3937007874015748
		},
		{
		  "duration": 0.1875,
		  "durationTicks": 192,
		  "midi": 76,
		  "name": "E5",
		  "ticks": 321047,
		  "time": 313.5224609375,
		  "velocity": 0.3937007874015748
		},
		{
		  "duration": 0.1875,
		  "durationTicks": 192,
		  "midi": 68,
		  "name": "G#4",
		  "ticks": 321047,
		  "time": 313.5224609375,
		  "velocity": 0.3937007874015748
		},
		{
		  "duration": 0.1875,
		  "durationTicks": 192,
		  "midi": 64,
		  "name": "E4",
		  "ticks": 321051,
		  "time": 313.5263671875,
		  "velocity": 0.3937007874015748
		},
		{
		  "duration": 0.1875,
		  "durationTicks": 192,
		  "midi": 56,
		  "name": "G#3",
		  "ticks": 321051,
		  "time": 313.5263671875,
		  "velocity": 0.3937007874015748
		},
		{
		  "duration": 0.1875,
		  "durationTicks": 192,
		  "midi": 49,
		  "name": "C#3",
		  "ticks": 321051,
		  "time": 313.5263671875,
		  "velocity": 0.3937007874015748
		},
		{
		  "duration": 0.1875,
		  "durationTicks": 192,
		  "midi": 76,
		  "name": "E5",
		  "ticks": 321243,
		  "time": 313.7138671875,
		  "velocity": 0.3937007874015748
		},
		{
		  "duration": 0.1875,
		  "durationTicks": 192,
		  "midi": 68,
		  "name": "G#4",
		  "ticks": 321243,
		  "time": 313.7138671875,
		  "velocity": 0.3937007874015748
		},
		{
		  "duration": 0.1875,
		  "durationTicks": 192,
		  "midi": 64,
		  "name": "E4",
		  "ticks": 321243,
		  "time": 313.7138671875,
		  "velocity": 0.3937007874015748
		},
		{
		  "duration": 0.1875,
		  "durationTicks": 192,
		  "midi": 56,
		  "name": "G#3",
		  "ticks": 321247,
		  "time": 313.7177734375,
		  "velocity": 0.3937007874015748
		},
		{
		  "duration": 0.1875,
		  "durationTicks": 192,
		  "midi": 49,
		  "name": "C#3",
		  "ticks": 321247,
		  "time": 313.7177734375,
		  "velocity": 0.3937007874015748
		},
		{
		  "duration": 0.1875,
		  "durationTicks": 192,
		  "midi": 76,
		  "name": "E5",
		  "ticks": 321431,
		  "time": 313.8974609375,
		  "velocity": 0.3937007874015748
		},
		{
		  "duration": 0.1875,
		  "durationTicks": 192,
		  "midi": 68,
		  "name": "G#4",
		  "ticks": 321435,
		  "time": 313.9013671875,
		  "velocity": 0.3937007874015748
		},
		{
		  "duration": 0.1875,
		  "durationTicks": 192,
		  "midi": 64,
		  "name": "E4",
		  "ticks": 321435,
		  "time": 313.9013671875,
		  "velocity": 0.3937007874015748
		},
		{
		  "duration": 0.1875,
		  "durationTicks": 192,
		  "midi": 56,
		  "name": "G#3",
		  "ticks": 321439,
		  "time": 313.9052734375,
		  "velocity": 0.3937007874015748
		},
		{
		  "duration": 0.1875,
		  "durationTicks": 192,
		  "midi": 49,
		  "name": "C#3",
		  "ticks": 321439,
		  "time": 313.9052734375,
		  "velocity": 0.3937007874015748
		},
		{
		  "duration": 0.1875,
		  "durationTicks": 192,
		  "midi": 76,
		  "name": "E5",
		  "ticks": 321623,
		  "time": 314.0849609375,
		  "velocity": 0.3937007874015748
		},
		{
		  "duration": 0.1875,
		  "durationTicks": 192,
		  "midi": 68,
		  "name": "G#4",
		  "ticks": 321627,
		  "time": 314.0888671875,
		  "velocity": 0.3937007874015748
		},
		{
		  "duration": 0.1875,
		  "durationTicks": 192,
		  "midi": 64,
		  "name": "E4",
		  "ticks": 321627,
		  "time": 314.0888671875,
		  "velocity": 0.3937007874015748
		},
		{
		  "duration": 0.1875,
		  "durationTicks": 192,
		  "midi": 56,
		  "name": "G#3",
		  "ticks": 321627,
		  "time": 314.0888671875,
		  "velocity": 0.3937007874015748
		},
		{
		  "duration": 0.1875,
		  "durationTicks": 192,
		  "midi": 49,
		  "name": "C#3",
		  "ticks": 321627,
		  "time": 314.0888671875,
		  "velocity": 0.3937007874015748
		},
		{
		  "duration": 0.1875,
		  "durationTicks": 192,
		  "midi": 75,
		  "name": "D#5",
		  "ticks": 321815,
		  "time": 314.2724609375,
		  "velocity": 0.3937007874015748
		},
		{
		  "duration": 0.1875,
		  "durationTicks": 192,
		  "midi": 66,
		  "name": "F#4",
		  "ticks": 321819,
		  "time": 314.2763671875,
		  "velocity": 0.3937007874015748
		},
		{
		  "duration": 0.1875,
		  "durationTicks": 192,
		  "midi": 63,
		  "name": "D#4",
		  "ticks": 321819,
		  "time": 314.2763671875,
		  "velocity": 0.3937007874015748
		},
		{
		  "duration": 0.1875,
		  "durationTicks": 192,
		  "midi": 56,
		  "name": "G#3",
		  "ticks": 321819,
		  "time": 314.2763671875,
		  "velocity": 0.3937007874015748
		},
		{
		  "duration": 0.1875,
		  "durationTicks": 192,
		  "midi": 51,
		  "name": "D#3",
		  "ticks": 321819,
		  "time": 314.2763671875,
		  "velocity": 0.3937007874015748
		},
		{
		  "duration": 0.1875,
		  "durationTicks": 192,
		  "midi": 73,
		  "name": "C#5",
		  "ticks": 322007,
		  "time": 314.4599609375,
		  "velocity": 0.3937007874015748
		},
		{
		  "duration": 0.1875,
		  "durationTicks": 192,
		  "midi": 64,
		  "name": "E4",
		  "ticks": 322007,
		  "time": 314.4599609375,
		  "velocity": 0.3937007874015748
		},
		{
		  "duration": 0.1875,
		  "durationTicks": 192,
		  "midi": 61,
		  "name": "C#4",
		  "ticks": 322011,
		  "time": 314.4638671875,
		  "velocity": 0.3937007874015748
		},
		{
		  "duration": 0.1875,
		  "durationTicks": 192,
		  "midi": 52,
		  "name": "E3",
		  "ticks": 322011,
		  "time": 314.4638671875,
		  "velocity": 0.3937007874015748
		},
		{
		  "duration": 0.1875,
		  "durationTicks": 192,
		  "midi": 56,
		  "name": "G#3",
		  "ticks": 322011,
		  "time": 314.4638671875,
		  "velocity": 0.3937007874015748
		},
		{
		  "duration": 0.1875,
		  "durationTicks": 192,
		  "midi": 72,
		  "name": "C5",
		  "ticks": 322199,
		  "time": 314.6474609375,
		  "velocity": 0.3937007874015748
		},
		{
		  "duration": 0.1875,
		  "durationTicks": 192,
		  "midi": 63,
		  "name": "D#4",
		  "ticks": 322199,
		  "time": 314.6474609375,
		  "velocity": 0.3937007874015748
		},
		{
		  "duration": 0.1875,
		  "durationTicks": 192,
		  "midi": 60,
		  "name": "C4",
		  "ticks": 322203,
		  "time": 314.6513671875,
		  "velocity": 0.3937007874015748
		},
		{
		  "duration": 0.1875,
		  "durationTicks": 192,
		  "midi": 56,
		  "name": "G#3",
		  "ticks": 322203,
		  "time": 314.6513671875,
		  "velocity": 0.3937007874015748
		},
		{
		  "duration": 0.1875,
		  "durationTicks": 192,
		  "midi": 54,
		  "name": "F#3",
		  "ticks": 322203,
		  "time": 314.6513671875,
		  "velocity": 0.3937007874015748
		},
		{
		  "duration": 0.1875,
		  "durationTicks": 192,
		  "midi": 44,
		  "name": "G#2",
		  "ticks": 322203,
		  "time": 314.6513671875,
		  "velocity": 0.3937007874015748
		},
		{
		  "duration": 0.1875,
		  "durationTicks": 192,
		  "midi": 72,
		  "name": "C5",
		  "ticks": 322395,
		  "time": 314.8388671875,
		  "velocity": 0.3937007874015748
		},
		{
		  "duration": 0.1875,
		  "durationTicks": 192,
		  "midi": 84,
		  "name": "C6",
		  "ticks": 322395,
		  "time": 314.8388671875,
		  "velocity": 0.3937007874015748
		},
		{
		  "duration": 0.1875,
		  "durationTicks": 192,
		  "midi": 75,
		  "name": "D#5",
		  "ticks": 322395,
		  "time": 314.8388671875,
		  "velocity": 0.3937007874015748
		},
		{
		  "duration": 0.1875,
		  "durationTicks": 192,
		  "midi": 56,
		  "name": "G#3",
		  "ticks": 322399,
		  "time": 314.8427734375,
		  "velocity": 0.3937007874015748
		},
		{
		  "duration": 0.1875,
		  "durationTicks": 192,
		  "midi": 66,
		  "name": "F#4",
		  "ticks": 322399,
		  "time": 314.8427734375,
		  "velocity": 0.3937007874015748
		},
		{
		  "duration": 0.1875,
		  "durationTicks": 192,
		  "midi": 84,
		  "name": "C6",
		  "ticks": 322583,
		  "time": 315.0224609375,
		  "velocity": 0.3937007874015748
		},
		{
		  "duration": 0.1875,
		  "durationTicks": 192,
		  "midi": 75,
		  "name": "D#5",
		  "ticks": 322587,
		  "time": 315.0263671875,
		  "velocity": 0.3937007874015748
		},
		{
		  "duration": 0.1875,
		  "durationTicks": 192,
		  "midi": 72,
		  "name": "C5",
		  "ticks": 322587,
		  "time": 315.0263671875,
		  "velocity": 0.3937007874015748
		},
		{
		  "duration": 0.1875,
		  "durationTicks": 192,
		  "midi": 66,
		  "name": "F#4",
		  "ticks": 322591,
		  "time": 315.0302734375,
		  "velocity": 0.3937007874015748
		},
		{
		  "duration": 0.1875,
		  "durationTicks": 192,
		  "midi": 56,
		  "name": "G#3",
		  "ticks": 322591,
		  "time": 315.0302734375,
		  "velocity": 0.3937007874015748
		},
		{
		  "duration": 0.1875,
		  "durationTicks": 192,
		  "midi": 84,
		  "name": "C6",
		  "ticks": 322775,
		  "time": 315.2099609375,
		  "velocity": 0.3937007874015748
		},
		{
		  "duration": 0.1875,
		  "durationTicks": 192,
		  "midi": 75,
		  "name": "D#5",
		  "ticks": 322779,
		  "time": 315.2138671875,
		  "velocity": 0.3937007874015748
		},
		{
		  "duration": 0.1875,
		  "durationTicks": 192,
		  "midi": 72,
		  "name": "C5",
		  "ticks": 322779,
		  "time": 315.2138671875,
		  "velocity": 0.3937007874015748
		},
		{
		  "duration": 0.1875,
		  "durationTicks": 192,
		  "midi": 66,
		  "name": "F#4",
		  "ticks": 322779,
		  "time": 315.2138671875,
		  "velocity": 0.3937007874015748
		},
		{
		  "duration": 0.1875,
		  "durationTicks": 192,
		  "midi": 56,
		  "name": "G#3",
		  "ticks": 322779,
		  "time": 315.2138671875,
		  "velocity": 0.3937007874015748
		},
		{
		  "duration": 0.1875,
		  "durationTicks": 192,
		  "midi": 84,
		  "name": "C6",
		  "ticks": 322967,
		  "time": 315.3974609375,
		  "velocity": 0.3937007874015748
		},
		{
		  "duration": 0.1875,
		  "durationTicks": 192,
		  "midi": 75,
		  "name": "D#5",
		  "ticks": 322967,
		  "time": 315.3974609375,
		  "velocity": 0.3937007874015748
		},
		{
		  "duration": 0.1875,
		  "durationTicks": 192,
		  "midi": 72,
		  "name": "C5",
		  "ticks": 322971,
		  "time": 315.4013671875,
		  "velocity": 0.3937007874015748
		},
		{
		  "duration": 0.1875,
		  "durationTicks": 192,
		  "midi": 66,
		  "name": "F#4",
		  "ticks": 322971,
		  "time": 315.4013671875,
		  "velocity": 0.3937007874015748
		},
		{
		  "duration": 0.1875,
		  "durationTicks": 192,
		  "midi": 56,
		  "name": "G#3",
		  "ticks": 322971,
		  "time": 315.4013671875,
		  "velocity": 0.3937007874015748
		},
		{
		  "duration": 0.1875,
		  "durationTicks": 192,
		  "midi": 84,
		  "name": "C6",
		  "ticks": 323159,
		  "time": 315.5849609375,
		  "velocity": 0.3937007874015748
		},
		{
		  "duration": 0.1875,
		  "durationTicks": 192,
		  "midi": 75,
		  "name": "D#5",
		  "ticks": 323159,
		  "time": 315.5849609375,
		  "velocity": 0.3937007874015748
		},
		{
		  "duration": 0.1875,
		  "durationTicks": 192,
		  "midi": 72,
		  "name": "C5",
		  "ticks": 323163,
		  "time": 315.5888671875,
		  "velocity": 0.3937007874015748
		},
		{
		  "duration": 0.1875,
		  "durationTicks": 192,
		  "midi": 66,
		  "name": "F#4",
		  "ticks": 323163,
		  "time": 315.5888671875,
		  "velocity": 0.3937007874015748
		},
		{
		  "duration": 0.1875,
		  "durationTicks": 192,
		  "midi": 56,
		  "name": "G#3",
		  "ticks": 323163,
		  "time": 315.5888671875,
		  "velocity": 0.3937007874015748
		},
		{
		  "duration": 0.1875,
		  "durationTicks": 192,
		  "midi": 85,
		  "name": "C#6",
		  "ticks": 323355,
		  "time": 315.7763671875,
		  "velocity": 0.3937007874015748
		},
		{
		  "duration": 0.1875,
		  "durationTicks": 192,
		  "midi": 76,
		  "name": "E5",
		  "ticks": 323355,
		  "time": 315.7763671875,
		  "velocity": 0.3937007874015748
		},
		{
		  "duration": 0.1875,
		  "durationTicks": 192,
		  "midi": 73,
		  "name": "C#5",
		  "ticks": 323355,
		  "time": 315.7763671875,
		  "velocity": 0.3937007874015748
		},
		{
		  "duration": 0.1875,
		  "durationTicks": 192,
		  "midi": 64,
		  "name": "E4",
		  "ticks": 323359,
		  "time": 315.7802734375,
		  "velocity": 0.3937007874015748
		},
		{
		  "duration": 0.1875,
		  "durationTicks": 192,
		  "midi": 56,
		  "name": "G#3",
		  "ticks": 323359,
		  "time": 315.7802734375,
		  "velocity": 0.3937007874015748
		},
		{
		  "duration": 0.1875,
		  "durationTicks": 192,
		  "midi": 87,
		  "name": "D#6",
		  "ticks": 323547,
		  "time": 315.9638671875,
		  "velocity": 0.3937007874015748
		},
		{
		  "duration": 0.1875,
		  "durationTicks": 192,
		  "midi": 78,
		  "name": "F#5",
		  "ticks": 323547,
		  "time": 315.9638671875,
		  "velocity": 0.3937007874015748
		},
		{
		  "duration": 0.1875,
		  "durationTicks": 192,
		  "midi": 75,
		  "name": "D#5",
		  "ticks": 323547,
		  "time": 315.9638671875,
		  "velocity": 0.3937007874015748
		},
		{
		  "duration": 0.1875,
		  "durationTicks": 192,
		  "midi": 63,
		  "name": "D#4",
		  "ticks": 323551,
		  "time": 315.9677734375,
		  "velocity": 0.3937007874015748
		},
		{
		  "duration": 0.1875,
		  "durationTicks": 192,
		  "midi": 56,
		  "name": "G#3",
		  "ticks": 323551,
		  "time": 315.9677734375,
		  "velocity": 0.3937007874015748
		},
		{
		  "duration": 0.1875,
		  "durationTicks": 192,
		  "midi": 88,
		  "name": "E6",
		  "ticks": 323735,
		  "time": 316.1474609375,
		  "velocity": 0.3937007874015748
		},
		{
		  "duration": 0.1875,
		  "durationTicks": 192,
		  "midi": 76,
		  "name": "E5",
		  "ticks": 323739,
		  "time": 316.1513671875,
		  "velocity": 0.3937007874015748
		},
		{
		  "duration": 0.1875,
		  "durationTicks": 192,
		  "midi": 80,
		  "name": "G#5",
		  "ticks": 323739,
		  "time": 316.1513671875,
		  "velocity": 0.3937007874015748
		},
		{
		  "duration": 0.1875,
		  "durationTicks": 192,
		  "midi": 61,
		  "name": "C#4",
		  "ticks": 323739,
		  "time": 316.1513671875,
		  "velocity": 0.3937007874015748
		},
		{
		  "duration": 0.1875,
		  "durationTicks": 192,
		  "midi": 49,
		  "name": "C#3",
		  "ticks": 323739,
		  "time": 316.1513671875,
		  "velocity": 0.3937007874015748
		},
		{
		  "duration": 0.1884765625,
		  "durationTicks": 193,
		  "midi": 61,
		  "name": "C#4",
		  "ticks": 323927,
		  "time": 316.3349609375,
		  "velocity": 0.3937007874015748
		},
		{
		  "duration": 0.1884765625,
		  "durationTicks": 193,
		  "midi": 64,
		  "name": "E4",
		  "ticks": 323927,
		  "time": 316.3349609375,
		  "velocity": 0.3937007874015748
		},
		{
		  "duration": 0.1884765625,
		  "durationTicks": 193,
		  "midi": 85,
		  "name": "C#6",
		  "ticks": 323935,
		  "time": 316.3427734375,
		  "velocity": 0.3937007874015748
		},
		{
		  "duration": 0.1884765625,
		  "durationTicks": 193,
		  "midi": 80,
		  "name": "G#5",
		  "ticks": 323940,
		  "time": 316.34765625,
		  "velocity": 0.3937007874015748
		},
		{
		  "duration": 0.1884765625,
		  "durationTicks": 193,
		  "midi": 61,
		  "name": "C#4",
		  "ticks": 324112,
		  "time": 316.515625,
		  "velocity": 0.3937007874015748
		},
		{
		  "duration": 0.1884765625,
		  "durationTicks": 193,
		  "midi": 85,
		  "name": "C#6",
		  "ticks": 324120,
		  "time": 316.5234375,
		  "velocity": 0.3937007874015748
		},
		{
		  "duration": 0.1884765625,
		  "durationTicks": 193,
		  "midi": 80,
		  "name": "G#5",
		  "ticks": 324120,
		  "time": 316.5234375,
		  "velocity": 0.3937007874015748
		},
		{
		  "duration": 0.1884765625,
		  "durationTicks": 193,
		  "midi": 64,
		  "name": "E4",
		  "ticks": 324120,
		  "time": 316.5234375,
		  "velocity": 0.3937007874015748
		},
		{
		  "duration": 0.1884765625,
		  "durationTicks": 193,
		  "midi": 80,
		  "name": "G#5",
		  "ticks": 324296,
		  "time": 316.6953125,
		  "velocity": 0.3937007874015748
		},
		{
		  "duration": 0.1884765625,
		  "durationTicks": 193,
		  "midi": 76,
		  "name": "E5",
		  "ticks": 324301,
		  "time": 316.7001953125,
		  "velocity": 0.3937007874015748
		},
		{
		  "duration": 0.1884765625,
		  "durationTicks": 193,
		  "midi": 64,
		  "name": "E4",
		  "ticks": 324301,
		  "time": 316.7001953125,
		  "velocity": 0.3937007874015748
		},
		{
		  "duration": 0.1884765625,
		  "durationTicks": 193,
		  "midi": 68,
		  "name": "G#4",
		  "ticks": 324301,
		  "time": 316.7001953125,
		  "velocity": 0.3937007874015748
		},
		{
		  "duration": 0.1875,
		  "durationTicks": 192,
		  "midi": 54,
		  "name": "F#3",
		  "ticks": 324509,
		  "time": 316.9033203125,
		  "velocity": 0.3937007874015748
		},
		{
		  "duration": 0.1875,
		  "durationTicks": 192,
		  "midi": 85,
		  "name": "C#6",
		  "ticks": 324681,
		  "time": 317.0712890625,
		  "velocity": 0.3937007874015748
		},
		{
		  "duration": 0.1875,
		  "durationTicks": 192,
		  "midi": 81,
		  "name": "A5",
		  "ticks": 324681,
		  "time": 317.0712890625,
		  "velocity": 0.3937007874015748
		},
		{
		  "duration": 0.1875,
		  "durationTicks": 192,
		  "midi": 61,
		  "name": "C#4",
		  "ticks": 324686,
		  "time": 317.076171875,
		  "velocity": 0.3937007874015748
		},
		{
		  "duration": 0.1875,
		  "durationTicks": 192,
		  "midi": 66,
		  "name": "F#4",
		  "ticks": 324686,
		  "time": 317.076171875,
		  "velocity": 0.3937007874015748
		},
		{
		  "duration": 0.1875,
		  "durationTicks": 192,
		  "midi": 85,
		  "name": "C#6",
		  "ticks": 324873,
		  "time": 317.2587890625,
		  "velocity": 0.3937007874015748
		},
		{
		  "duration": 0.1875,
		  "durationTicks": 192,
		  "midi": 81,
		  "name": "A5",
		  "ticks": 324873,
		  "time": 317.2587890625,
		  "velocity": 0.3937007874015748
		},
		{
		  "duration": 0.1875,
		  "durationTicks": 192,
		  "midi": 66,
		  "name": "F#4",
		  "ticks": 324873,
		  "time": 317.2587890625,
		  "velocity": 0.3937007874015748
		},
		{
		  "duration": 0.1875,
		  "durationTicks": 192,
		  "midi": 61,
		  "name": "C#4",
		  "ticks": 324873,
		  "time": 317.2587890625,
		  "velocity": 0.3937007874015748
		},
		{
		  "duration": 0.1875,
		  "durationTicks": 192,
		  "midi": 78,
		  "name": "F#5",
		  "ticks": 325070,
		  "time": 317.451171875,
		  "velocity": 0.3937007874015748
		},
		{
		  "duration": 0.1875,
		  "durationTicks": 192,
		  "midi": 81,
		  "name": "A5",
		  "ticks": 325070,
		  "time": 317.451171875,
		  "velocity": 0.3937007874015748
		},
		{
		  "duration": 0.1875,
		  "durationTicks": 192,
		  "midi": 66,
		  "name": "F#4",
		  "ticks": 325070,
		  "time": 317.451171875,
		  "velocity": 0.3937007874015748
		},
		{
		  "duration": 0.1875,
		  "durationTicks": 192,
		  "midi": 69,
		  "name": "A4",
		  "ticks": 325074,
		  "time": 317.455078125,
		  "velocity": 0.3937007874015748
		},
		{
		  "duration": 0.1884765625,
		  "durationTicks": 193,
		  "midi": 56,
		  "name": "G#3",
		  "ticks": 325274,
		  "time": 317.650390625,
		  "velocity": 0.3937007874015748
		},
		{
		  "duration": 0.1884765625,
		  "durationTicks": 193,
		  "midi": 80,
		  "name": "G#5",
		  "ticks": 325450,
		  "time": 317.822265625,
		  "velocity": 0.3937007874015748
		},
		{
		  "duration": 0.1884765625,
		  "durationTicks": 193,
		  "midi": 76,
		  "name": "E5",
		  "ticks": 325455,
		  "time": 317.8271484375,
		  "velocity": 0.3937007874015748
		},
		{
		  "duration": 0.1884765625,
		  "durationTicks": 193,
		  "midi": 61,
		  "name": "C#4",
		  "ticks": 325455,
		  "time": 317.8271484375,
		  "velocity": 0.3937007874015748
		},
		{
		  "duration": 0.1884765625,
		  "durationTicks": 193,
		  "midi": 64,
		  "name": "E4",
		  "ticks": 325455,
		  "time": 317.8271484375,
		  "velocity": 0.3937007874015748
		},
		{
		  "duration": 0.1875,
		  "durationTicks": 192,
		  "midi": 80,
		  "name": "G#5",
		  "ticks": 325643,
		  "time": 318.0107421875,
		  "velocity": 0.3937007874015748
		},
		{
		  "duration": 0.1875,
		  "durationTicks": 192,
		  "midi": 76,
		  "name": "E5",
		  "ticks": 325643,
		  "time": 318.0107421875,
		  "velocity": 0.3937007874015748
		},
		{
		  "duration": 0.1875,
		  "durationTicks": 192,
		  "midi": 64,
		  "name": "E4",
		  "ticks": 325652,
		  "time": 318.01953125,
		  "velocity": 0.3937007874015748
		},
		{
		  "duration": 0.1875,
		  "durationTicks": 192,
		  "midi": 61,
		  "name": "C#4",
		  "ticks": 325652,
		  "time": 318.01953125,
		  "velocity": 0.3937007874015748
		},
		{
		  "duration": 0.1875,
		  "durationTicks": 192,
		  "midi": 76,
		  "name": "E5",
		  "ticks": 325840,
		  "time": 318.203125,
		  "velocity": 0.3937007874015748
		},
		{
		  "duration": 0.1875,
		  "durationTicks": 192,
		  "midi": 73,
		  "name": "C#5",
		  "ticks": 325840,
		  "time": 318.203125,
		  "velocity": 0.3937007874015748
		},
		{
		  "duration": 0.1875,
		  "durationTicks": 192,
		  "midi": 64,
		  "name": "E4",
		  "ticks": 325844,
		  "time": 318.20703125,
		  "velocity": 0.3937007874015748
		},
		{
		  "duration": 0.1875,
		  "durationTicks": 192,
		  "midi": 68,
		  "name": "G#4",
		  "ticks": 325844,
		  "time": 318.20703125,
		  "velocity": 0.3937007874015748
		},
		{
		  "duration": 0.1875,
		  "durationTicks": 192,
		  "midi": 54,
		  "name": "F#3",
		  "ticks": 326036,
		  "time": 318.39453125,
		  "velocity": 0.3937007874015748
		},
		{
		  "duration": 0.1875,
		  "durationTicks": 192,
		  "midi": 80,
		  "name": "G#5",
		  "ticks": 326219,
		  "time": 318.5732421875,
		  "velocity": 0.3937007874015748
		},
		{
		  "duration": 0.1875,
		  "durationTicks": 192,
		  "midi": 75,
		  "name": "D#5",
		  "ticks": 326224,
		  "time": 318.578125,
		  "velocity": 0.3937007874015748
		},
		{
		  "duration": 0.1875,
		  "durationTicks": 192,
		  "midi": 60,
		  "name": "C4",
		  "ticks": 326224,
		  "time": 318.578125,
		  "velocity": 0.3937007874015748
		},
		{
		  "duration": 0.1875,
		  "durationTicks": 192,
		  "midi": 63,
		  "name": "D#4",
		  "ticks": 326228,
		  "time": 318.58203125,
		  "velocity": 0.3937007874015748
		},
		{
		  "duration": 0.1875,
		  "durationTicks": 192,
		  "midi": 80,
		  "name": "G#5",
		  "ticks": 326411,
		  "time": 318.7607421875,
		  "velocity": 0.3937007874015748
		},
		{
		  "duration": 0.1875,
		  "durationTicks": 192,
		  "midi": 75,
		  "name": "D#5",
		  "ticks": 326411,
		  "time": 318.7607421875,
		  "velocity": 0.3937007874015748
		},
		{
		  "duration": 0.1875,
		  "durationTicks": 192,
		  "midi": 60,
		  "name": "C4",
		  "ticks": 326411,
		  "time": 318.7607421875,
		  "velocity": 0.3937007874015748
		},
		{
		  "duration": 0.1875,
		  "durationTicks": 192,
		  "midi": 63,
		  "name": "D#4",
		  "ticks": 326411,
		  "time": 318.7607421875,
		  "velocity": 0.3937007874015748
		},
		{
		  "duration": 0.1875,
		  "durationTicks": 192,
		  "midi": 75,
		  "name": "D#5",
		  "ticks": 326603,
		  "time": 318.9482421875,
		  "velocity": 0.3937007874015748
		},
		{
		  "duration": 0.1875,
		  "durationTicks": 192,
		  "midi": 72,
		  "name": "C5",
		  "ticks": 326608,
		  "time": 318.953125,
		  "velocity": 0.3937007874015748
		},
		{
		  "duration": 0.1875,
		  "durationTicks": 192,
		  "midi": 63,
		  "name": "D#4",
		  "ticks": 326608,
		  "time": 318.953125,
		  "velocity": 0.3937007874015748
		},
		{
		  "duration": 0.1875,
		  "durationTicks": 192,
		  "midi": 68,
		  "name": "G#4",
		  "ticks": 326608,
		  "time": 318.953125,
		  "velocity": 0.3937007874015748
		},
		{
		  "duration": 0.1875,
		  "durationTicks": 192,
		  "midi": 52,
		  "name": "E3",
		  "ticks": 326800,
		  "time": 319.140625,
		  "velocity": 0.3937007874015748
		},
		{
		  "duration": 0.1875,
		  "durationTicks": 192,
		  "midi": 80,
		  "name": "G#5",
		  "ticks": 326992,
		  "time": 319.328125,
		  "velocity": 0.3937007874015748
		},
		{
		  "duration": 0.1875,
		  "durationTicks": 192,
		  "midi": 73,
		  "name": "C#5",
		  "ticks": 326992,
		  "time": 319.328125,
		  "velocity": 0.3937007874015748
		},
		{
		  "duration": 0.1875,
		  "durationTicks": 192,
		  "midi": 56,
		  "name": "G#3",
		  "ticks": 326996,
		  "time": 319.33203125,
		  "velocity": 0.3937007874015748
		},
		{
		  "duration": 0.1875,
		  "durationTicks": 192,
		  "midi": 61,
		  "name": "C#4",
		  "ticks": 326996,
		  "time": 319.33203125,
		  "velocity": 0.3937007874015748
		},
		{
		  "duration": 0.1875,
		  "durationTicks": 192,
		  "midi": 73,
		  "name": "C#5",
		  "ticks": 327179,
		  "time": 319.5107421875,
		  "velocity": 0.3937007874015748
		},
		{
		  "duration": 0.1875,
		  "durationTicks": 192,
		  "midi": 80,
		  "name": "G#5",
		  "ticks": 327179,
		  "time": 319.5107421875,
		  "velocity": 0.3937007874015748
		},
		{
		  "duration": 0.1875,
		  "durationTicks": 192,
		  "midi": 56,
		  "name": "G#3",
		  "ticks": 327179,
		  "time": 319.5107421875,
		  "velocity": 0.3937007874015748
		},
		{
		  "duration": 0.1875,
		  "durationTicks": 192,
		  "midi": 61,
		  "name": "C#4",
		  "ticks": 327179,
		  "time": 319.5107421875,
		  "velocity": 0.3937007874015748
		},
		{
		  "duration": 0.1875,
		  "durationTicks": 192,
		  "midi": 76,
		  "name": "E5",
		  "ticks": 327371,
		  "time": 319.6982421875,
		  "velocity": 0.3937007874015748
		},
		{
		  "duration": 0.1875,
		  "durationTicks": 192,
		  "midi": 68,
		  "name": "G#4",
		  "ticks": 327376,
		  "time": 319.703125,
		  "velocity": 0.3937007874015748
		},
		{
		  "duration": 0.1875,
		  "durationTicks": 192,
		  "midi": 64,
		  "name": "E4",
		  "ticks": 327376,
		  "time": 319.703125,
		  "velocity": 0.3937007874015748
		},
		{
		  "duration": 0.1875,
		  "durationTicks": 192,
		  "midi": 61,
		  "name": "C#4",
		  "ticks": 327376,
		  "time": 319.703125,
		  "velocity": 0.3937007874015748
		},
		{
		  "duration": 0.1875,
		  "durationTicks": 192,
		  "midi": 42,
		  "name": "F#2",
		  "ticks": 327568,
		  "time": 319.890625,
		  "velocity": 0.3937007874015748
		},
		{
		  "duration": 0.1875,
		  "durationTicks": 192,
		  "midi": 78,
		  "name": "F#5",
		  "ticks": 327755,
		  "time": 320.0732421875,
		  "velocity": 0.3937007874015748
		},
		{
		  "duration": 0.1875,
		  "durationTicks": 192,
		  "midi": 69,
		  "name": "A4",
		  "ticks": 327755,
		  "time": 320.0732421875,
		  "velocity": 0.3937007874015748
		},
		{
		  "duration": 0.1875,
		  "durationTicks": 192,
		  "midi": 57,
		  "name": "A3",
		  "ticks": 327760,
		  "time": 320.078125,
		  "velocity": 0.3937007874015748
		},
		{
		  "duration": 0.1875,
		  "durationTicks": 192,
		  "midi": 54,
		  "name": "F#3",
		  "ticks": 327760,
		  "time": 320.078125,
		  "velocity": 0.3937007874015748
		},
		{
		  "duration": 0.1875,
		  "durationTicks": 192,
		  "midi": 69,
		  "name": "A4",
		  "ticks": 327956,
		  "time": 320.26953125,
		  "velocity": 0.3937007874015748
		},
		{
		  "duration": 0.1875,
		  "durationTicks": 192,
		  "midi": 78,
		  "name": "F#5",
		  "ticks": 327956,
		  "time": 320.26953125,
		  "velocity": 0.3937007874015748
		},
		{
		  "duration": 0.1875,
		  "durationTicks": 192,
		  "midi": 54,
		  "name": "F#3",
		  "ticks": 327956,
		  "time": 320.26953125,
		  "velocity": 0.3937007874015748
		},
		{
		  "duration": 0.1875,
		  "durationTicks": 192,
		  "midi": 57,
		  "name": "A3",
		  "ticks": 327956,
		  "time": 320.26953125,
		  "velocity": 0.3937007874015748
		},
		{
		  "duration": 0.1875,
		  "durationTicks": 192,
		  "midi": 66,
		  "name": "F#4",
		  "ticks": 328144,
		  "time": 320.453125,
		  "velocity": 0.3937007874015748
		},
		{
		  "duration": 0.1875,
		  "durationTicks": 192,
		  "midi": 74,
		  "name": "D5",
		  "ticks": 328144,
		  "time": 320.453125,
		  "velocity": 0.3937007874015748
		},
		{
		  "duration": 0.1875,
		  "durationTicks": 192,
		  "midi": 62,
		  "name": "D4",
		  "ticks": 328144,
		  "time": 320.453125,
		  "velocity": 0.3937007874015748
		},
		{
		  "duration": 0.1875,
		  "durationTicks": 192,
		  "midi": 57,
		  "name": "A3",
		  "ticks": 328148,
		  "time": 320.45703125,
		  "velocity": 0.3937007874015748
		},
		{
		  "duration": 0.1875,
		  "durationTicks": 192,
		  "midi": 44,
		  "name": "G#2",
		  "ticks": 328340,
		  "time": 320.64453125,
		  "velocity": 0.3937007874015748
		},
		{
		  "duration": 0.1875,
		  "durationTicks": 192,
		  "midi": 76,
		  "name": "E5",
		  "ticks": 328523,
		  "time": 320.8232421875,
		  "velocity": 0.3937007874015748
		},
		{
		  "duration": 0.1875,
		  "durationTicks": 192,
		  "midi": 68,
		  "name": "G#4",
		  "ticks": 328528,
		  "time": 320.828125,
		  "velocity": 0.3937007874015748
		},
		{
		  "duration": 0.1875,
		  "durationTicks": 192,
		  "midi": 56,
		  "name": "G#3",
		  "ticks": 328528,
		  "time": 320.828125,
		  "velocity": 0.3937007874015748
		},
		{
		  "duration": 0.1875,
		  "durationTicks": 192,
		  "midi": 52,
		  "name": "E3",
		  "ticks": 328532,
		  "time": 320.83203125,
		  "velocity": 0.3937007874015748
		},
		{
		  "duration": 0.1875,
		  "durationTicks": 192,
		  "midi": 56,
		  "name": "G#3",
		  "ticks": 328715,
		  "time": 321.0107421875,
		  "velocity": 0.3937007874015748
		},
		{
		  "duration": 0.1875,
		  "durationTicks": 192,
		  "midi": 76,
		  "name": "E5",
		  "ticks": 328724,
		  "time": 321.01953125,
		  "velocity": 0.3937007874015748
		},
		{
		  "duration": 0.1875,
		  "durationTicks": 192,
		  "midi": 68,
		  "name": "G#4",
		  "ticks": 328724,
		  "time": 321.01953125,
		  "velocity": 0.3937007874015748
		},
		{
		  "duration": 0.1875,
		  "durationTicks": 192,
		  "midi": 52,
		  "name": "E3",
		  "ticks": 328724,
		  "time": 321.01953125,
		  "velocity": 0.3937007874015748
		},
		{
		  "duration": 0.1875,
		  "durationTicks": 192,
		  "midi": 64,
		  "name": "E4",
		  "ticks": 328907,
		  "time": 321.1982421875,
		  "velocity": 0.3937007874015748
		},
		{
		  "duration": 0.1875,
		  "durationTicks": 192,
		  "midi": 73,
		  "name": "C#5",
		  "ticks": 328907,
		  "time": 321.1982421875,
		  "velocity": 0.3937007874015748
		},
		{
		  "duration": 0.1875,
		  "durationTicks": 192,
		  "midi": 61,
		  "name": "C#4",
		  "ticks": 328912,
		  "time": 321.203125,
		  "velocity": 0.3937007874015748
		},
		{
		  "duration": 0.1875,
		  "durationTicks": 192,
		  "midi": 56,
		  "name": "G#3",
		  "ticks": 328912,
		  "time": 321.203125,
		  "velocity": 0.3937007874015748
		},
		{
		  "duration": 0.1875,
		  "durationTicks": 192,
		  "midi": 44,
		  "name": "G#2",
		  "ticks": 329104,
		  "time": 321.390625,
		  "velocity": 0.3937007874015748
		},
		{
		  "duration": 0.1875,
		  "durationTicks": 192,
		  "midi": 75,
		  "name": "D#5",
		  "ticks": 329296,
		  "time": 321.578125,
		  "velocity": 0.3937007874015748
		},
		{
		  "duration": 0.1875,
		  "durationTicks": 192,
		  "midi": 66,
		  "name": "F#4",
		  "ticks": 329296,
		  "time": 321.578125,
		  "velocity": 0.3937007874015748
		},
		{
		  "duration": 0.1875,
		  "durationTicks": 192,
		  "midi": 54,
		  "name": "F#3",
		  "ticks": 329296,
		  "time": 321.578125,
		  "velocity": 0.3937007874015748
		},
		{
		  "duration": 0.1875,
		  "durationTicks": 192,
		  "midi": 51,
		  "name": "D#3",
		  "ticks": 329300,
		  "time": 321.58203125,
		  "velocity": 0.3937007874015748
		},
		{
		  "duration": 0.1875,
		  "durationTicks": 192,
		  "midi": 75,
		  "name": "D#5",
		  "ticks": 329492,
		  "time": 321.76953125,
		  "velocity": 0.3937007874015748
		},
		{
		  "duration": 0.1875,
		  "durationTicks": 192,
		  "midi": 66,
		  "name": "F#4",
		  "ticks": 329492,
		  "time": 321.76953125,
		  "velocity": 0.3937007874015748
		},
		{
		  "duration": 0.1875,
		  "durationTicks": 192,
		  "midi": 54,
		  "name": "F#3",
		  "ticks": 329492,
		  "time": 321.76953125,
		  "velocity": 0.3937007874015748
		},
		{
		  "duration": 0.1875,
		  "durationTicks": 192,
		  "midi": 51,
		  "name": "D#3",
		  "ticks": 329492,
		  "time": 321.76953125,
		  "velocity": 0.3937007874015748
		},
		{
		  "duration": 0.1875,
		  "durationTicks": 192,
		  "midi": 72,
		  "name": "C5",
		  "ticks": 329675,
		  "time": 321.9482421875,
		  "velocity": 0.3937007874015748
		},
		{
		  "duration": 0.1875,
		  "durationTicks": 192,
		  "midi": 63,
		  "name": "D#4",
		  "ticks": 329680,
		  "time": 321.953125,
		  "velocity": 0.3937007874015748
		},
		{
		  "duration": 0.1875,
		  "durationTicks": 192,
		  "midi": 60,
		  "name": "C4",
		  "ticks": 329680,
		  "time": 321.953125,
		  "velocity": 0.3937007874015748
		},
		{
		  "duration": 0.1875,
		  "durationTicks": 192,
		  "midi": 54,
		  "name": "F#3",
		  "ticks": 329680,
		  "time": 321.953125,
		  "velocity": 0.3937007874015748
		},
		{
		  "duration": 0.09375,
		  "durationTicks": 96,
		  "midi": 37,
		  "name": "C#2",
		  "ticks": 329872,
		  "time": 322.140625,
		  "velocity": 0.3937007874015748
		},
		{
		  "duration": 0.375,
		  "durationTicks": 384,
		  "midi": 64,
		  "name": "E4",
		  "ticks": 329887,
		  "time": 322.1552734375,
		  "velocity": 0.3937007874015748
		},
		{
		  "duration": 0.375,
		  "durationTicks": 384,
		  "midi": 73,
		  "name": "C#5",
		  "ticks": 329887,
		  "time": 322.1552734375,
		  "velocity": 0.3937007874015748
		},
		{
		  "duration": 0.09375,
		  "durationTicks": 96,
		  "midi": 49,
		  "name": "C#3",
		  "ticks": 329983,
		  "time": 322.2490234375,
		  "velocity": 0.3937007874015748
		},
		{
		  "duration": 0.09375,
		  "durationTicks": 96,
		  "midi": 44,
		  "name": "G#2",
		  "ticks": 330079,
		  "time": 322.3427734375,
		  "velocity": 0.3937007874015748
		},
		{
		  "duration": 0.09375,
		  "durationTicks": 96,
		  "midi": 49,
		  "name": "C#3",
		  "ticks": 330175,
		  "time": 322.4365234375,
		  "velocity": 0.3937007874015748
		},
		{
		  "duration": 0.09375,
		  "durationTicks": 96,
		  "midi": 37,
		  "name": "C#2",
		  "ticks": 330267,
		  "time": 322.5263671875,
		  "velocity": 0.3937007874015748
		},
		{
		  "duration": 0.09375,
		  "durationTicks": 96,
		  "midi": 49,
		  "name": "C#3",
		  "ticks": 330363,
		  "time": 322.6201171875,
		  "velocity": 0.3937007874015748
		},
		{
		  "duration": 0.09375,
		  "durationTicks": 96,
		  "midi": 44,
		  "name": "G#2",
		  "ticks": 330459,
		  "time": 322.7138671875,
		  "velocity": 0.3937007874015748
		},
		{
		  "duration": 0.09375,
		  "durationTicks": 96,
		  "midi": 49,
		  "name": "C#3",
		  "ticks": 330555,
		  "time": 322.8076171875,
		  "velocity": 0.3937007874015748
		},
		{
		  "duration": 0.09375,
		  "durationTicks": 96,
		  "midi": 37,
		  "name": "C#2",
		  "ticks": 330651,
		  "time": 322.9013671875,
		  "velocity": 0.3937007874015748
		},
		{
		  "duration": 0.09375,
		  "durationTicks": 96,
		  "midi": 49,
		  "name": "C#3",
		  "ticks": 330747,
		  "time": 322.9951171875,
		  "velocity": 0.3937007874015748
		},
		{
		  "duration": 0.09375,
		  "durationTicks": 96,
		  "midi": 44,
		  "name": "G#2",
		  "ticks": 330843,
		  "time": 323.0888671875,
		  "velocity": 0.3937007874015748
		},
		{
		  "duration": 0.09375,
		  "durationTicks": 96,
		  "midi": 49,
		  "name": "C#3",
		  "ticks": 330943,
		  "time": 323.1865234375,
		  "velocity": 0.3937007874015748
		},
		{
		  "duration": 0.28125,
		  "durationTicks": 288,
		  "midi": 64,
		  "name": "E4",
		  "ticks": 331019,
		  "time": 323.2607421875,
		  "velocity": 0.3937007874015748
		},
		{
		  "duration": 0.09375,
		  "durationTicks": 96,
		  "midi": 37,
		  "name": "C#2",
		  "ticks": 331039,
		  "time": 323.2802734375,
		  "velocity": 0.3937007874015748
		},
		{
		  "duration": 0.09375,
		  "durationTicks": 96,
		  "midi": 49,
		  "name": "C#3",
		  "ticks": 331135,
		  "time": 323.3740234375,
		  "velocity": 0.3937007874015748
		},
		{
		  "duration": 0.09375,
		  "durationTicks": 96,
		  "midi": 44,
		  "name": "G#2",
		  "ticks": 331231,
		  "time": 323.4677734375,
		  "velocity": 0.3937007874015748
		},
		{
		  "duration": 0.09375,
		  "durationTicks": 96,
		  "midi": 61,
		  "name": "C#4",
		  "ticks": 331312,
		  "time": 323.546875,
		  "velocity": 0.3937007874015748
		},
		{
		  "duration": 0.0947265625,
		  "durationTicks": 97,
		  "midi": 49,
		  "name": "C#3",
		  "ticks": 331327,
		  "time": 323.5615234375,
		  "velocity": 0.3937007874015748
		},
		{
		  "duration": 0.375,
		  "durationTicks": 384,
		  "midi": 60,
		  "name": "C4",
		  "ticks": 331420,
		  "time": 323.65234375,
		  "velocity": 0.3937007874015748
		},
		{
		  "duration": 0.09375,
		  "durationTicks": 96,
		  "midi": 37,
		  "name": "C#2",
		  "ticks": 331424,
		  "time": 323.65625,
		  "velocity": 0.3937007874015748
		},
		{
		  "duration": 0.09375,
		  "durationTicks": 96,
		  "midi": 51,
		  "name": "D#3",
		  "ticks": 331516,
		  "time": 323.74609375,
		  "velocity": 0.3937007874015748
		},
		{
		  "duration": 0.09375,
		  "durationTicks": 96,
		  "midi": 44,
		  "name": "G#2",
		  "ticks": 331612,
		  "time": 323.83984375,
		  "velocity": 0.3937007874015748
		},
		{
		  "duration": 0.09375,
		  "durationTicks": 96,
		  "midi": 51,
		  "name": "D#3",
		  "ticks": 331708,
		  "time": 323.93359375,
		  "velocity": 0.3937007874015748
		},
		{
		  "duration": 0.28125,
		  "durationTicks": 288,
		  "midi": 54,
		  "name": "F#3",
		  "ticks": 331792,
		  "time": 324.015625,
		  "velocity": 0.3937007874015748
		},
		{
		  "duration": 0.28125,
		  "durationTicks": 288,
		  "midi": 68,
		  "name": "G#4",
		  "ticks": 331792,
		  "time": 324.015625,
		  "velocity": 0.3937007874015748
		},
		{
		  "duration": 0.28125,
		  "durationTicks": 288,
		  "midi": 60,
		  "name": "C4",
		  "ticks": 331792,
		  "time": 324.015625,
		  "velocity": 0.3937007874015748
		},
		{
		  "duration": 0.09375,
		  "durationTicks": 96,
		  "midi": 37,
		  "name": "C#2",
		  "ticks": 331804,
		  "time": 324.02734375,
		  "velocity": 0.3937007874015748
		},
		{
		  "duration": 0.09375,
		  "durationTicks": 96,
		  "midi": 51,
		  "name": "D#3",
		  "ticks": 331900,
		  "time": 324.12109375,
		  "velocity": 0.3937007874015748
		},
		{
		  "duration": 0.09375,
		  "durationTicks": 96,
		  "midi": 44,
		  "name": "G#2",
		  "ticks": 331996,
		  "time": 324.21484375,
		  "velocity": 0.3937007874015748
		},
		{
		  "duration": 0.09375,
		  "durationTicks": 96,
		  "midi": 51,
		  "name": "D#3",
		  "ticks": 332096,
		  "time": 324.3125,
		  "velocity": 0.3937007874015748
		},
		{
		  "duration": 0.28125,
		  "durationTicks": 288,
		  "midi": 54,
		  "name": "F#3",
		  "ticks": 332172,
		  "time": 324.38671875,
		  "velocity": 0.3937007874015748
		},
		{
		  "duration": 0.28125,
		  "durationTicks": 288,
		  "midi": 60,
		  "name": "C4",
		  "ticks": 332172,
		  "time": 324.38671875,
		  "velocity": 0.3937007874015748
		},
		{
		  "duration": 0.28125,
		  "durationTicks": 288,
		  "midi": 68,
		  "name": "G#4",
		  "ticks": 332172,
		  "time": 324.38671875,
		  "velocity": 0.3937007874015748
		},
		{
		  "duration": 0.09375,
		  "durationTicks": 96,
		  "midi": 37,
		  "name": "C#2",
		  "ticks": 332192,
		  "time": 324.40625,
		  "velocity": 0.3937007874015748
		},
		{
		  "duration": 0.09375,
		  "durationTicks": 96,
		  "midi": 51,
		  "name": "D#3",
		  "ticks": 332288,
		  "time": 324.5,
		  "velocity": 0.3937007874015748
		},
		{
		  "duration": 0.09375,
		  "durationTicks": 96,
		  "midi": 44,
		  "name": "G#2",
		  "ticks": 332380,
		  "time": 324.58984375,
		  "velocity": 0.3937007874015748
		},
		{
		  "duration": 0.09375,
		  "durationTicks": 96,
		  "midi": 51,
		  "name": "D#3",
		  "ticks": 332476,
		  "time": 324.68359375,
		  "velocity": 0.3937007874015748
		},
		{
		  "duration": 0.28125,
		  "durationTicks": 288,
		  "midi": 68,
		  "name": "G#4",
		  "ticks": 332552,
		  "time": 324.7578125,
		  "velocity": 0.3937007874015748
		},
		{
		  "duration": 0.28125,
		  "durationTicks": 288,
		  "midi": 54,
		  "name": "F#3",
		  "ticks": 332552,
		  "time": 324.7578125,
		  "velocity": 0.3937007874015748
		},
		{
		  "duration": 0.28125,
		  "durationTicks": 288,
		  "midi": 60,
		  "name": "C4",
		  "ticks": 332552,
		  "time": 324.7578125,
		  "velocity": 0.3937007874015748
		},
		{
		  "duration": 0.09375,
		  "durationTicks": 96,
		  "midi": 37,
		  "name": "C#2",
		  "ticks": 332572,
		  "time": 324.77734375,
		  "velocity": 0.3937007874015748
		},
		{
		  "duration": 0.09375,
		  "durationTicks": 96,
		  "midi": 51,
		  "name": "D#3",
		  "ticks": 332668,
		  "time": 324.87109375,
		  "velocity": 0.3937007874015748
		},
		{
		  "duration": 0.09375,
		  "durationTicks": 96,
		  "midi": 44,
		  "name": "G#2",
		  "ticks": 332764,
		  "time": 324.96484375,
		  "velocity": 0.3937007874015748
		},
		{
		  "duration": 0.09375,
		  "durationTicks": 96,
		  "midi": 51,
		  "name": "D#3",
		  "ticks": 332860,
		  "time": 325.05859375,
		  "velocity": 0.3937007874015748
		},
		{
		  "duration": 0.09375,
		  "durationTicks": 96,
		  "midi": 52,
		  "name": "E3",
		  "ticks": 332940,
		  "time": 325.13671875,
		  "velocity": 0.3937007874015748
		},
		{
		  "duration": 0.09375,
		  "durationTicks": 96,
		  "midi": 37,
		  "name": "C#2",
		  "ticks": 332956,
		  "time": 325.15234375,
		  "velocity": 0.3937007874015748
		},
		{
		  "duration": 0.09375,
		  "durationTicks": 96,
		  "midi": 61,
		  "name": "C#4",
		  "ticks": 333004,
		  "time": 325.19921875,
		  "velocity": 0.3937007874015748
		},
		{
		  "duration": 0.09375,
		  "durationTicks": 96,
		  "midi": 49,
		  "name": "C#3",
		  "ticks": 333052,
		  "time": 325.24609375,
		  "velocity": 0.3937007874015748
		},
		{
		  "duration": 1.03125,
		  "durationTicks": 1056,
		  "midi": 68,
		  "name": "G#4",
		  "ticks": 333072,
		  "time": 325.265625,
		  "velocity": 0.3937007874015748
		},
		{
		  "duration": 0.09375,
		  "durationTicks": 96,
		  "midi": 44,
		  "name": "G#2",
		  "ticks": 333152,
		  "time": 325.34375,
		  "velocity": 0.3937007874015748
		},
		{
		  "duration": 0.09375,
		  "durationTicks": 96,
		  "midi": 49,
		  "name": "C#3",
		  "ticks": 333248,
		  "time": 325.4375,
		  "velocity": 0.3937007874015748
		},
		{
		  "duration": 0.09375,
		  "durationTicks": 96,
		  "midi": 37,
		  "name": "C#2",
		  "ticks": 333344,
		  "time": 325.53125,
		  "velocity": 0.3937007874015748
		},
		{
		  "duration": 0.09375,
		  "durationTicks": 96,
		  "midi": 49,
		  "name": "C#3",
		  "ticks": 333440,
		  "time": 325.625,
		  "velocity": 0.3937007874015748
		},
		{
		  "duration": 0.09375,
		  "durationTicks": 96,
		  "midi": 44,
		  "name": "G#2",
		  "ticks": 333532,
		  "time": 325.71484375,
		  "velocity": 0.3937007874015748
		},
		{
		  "duration": 0.09375,
		  "durationTicks": 96,
		  "midi": 49,
		  "name": "C#3",
		  "ticks": 333628,
		  "time": 325.80859375,
		  "velocity": 0.3937007874015748
		},
		{
		  "duration": 0.09375,
		  "durationTicks": 96,
		  "midi": 37,
		  "name": "C#2",
		  "ticks": 333724,
		  "time": 325.90234375,
		  "velocity": 0.3937007874015748
		},
		{
		  "duration": 0.09375,
		  "durationTicks": 96,
		  "midi": 49,
		  "name": "C#3",
		  "ticks": 333820,
		  "time": 325.99609375,
		  "velocity": 0.3937007874015748
		},
		{
		  "duration": 0.09375,
		  "durationTicks": 96,
		  "midi": 44,
		  "name": "G#2",
		  "ticks": 333916,
		  "time": 326.08984375,
		  "velocity": 0.3937007874015748
		},
		{
		  "duration": 0.09375,
		  "durationTicks": 96,
		  "midi": 49,
		  "name": "C#3",
		  "ticks": 334012,
		  "time": 326.18359375,
		  "velocity": 0.3937007874015748
		},
		{
		  "duration": 0.28125,
		  "durationTicks": 288,
		  "midi": 76,
		  "name": "E5",
		  "ticks": 334108,
		  "time": 326.27734375,
		  "velocity": 0.3937007874015748
		},
		{
		  "duration": 0.09375,
		  "durationTicks": 96,
		  "midi": 37,
		  "name": "C#2",
		  "ticks": 334108,
		  "time": 326.27734375,
		  "velocity": 0.3937007874015748
		},
		{
		  "duration": 0.09375,
		  "durationTicks": 96,
		  "midi": 49,
		  "name": "C#3",
		  "ticks": 334208,
		  "time": 326.375,
		  "velocity": 0.3937007874015748
		},
		{
		  "duration": 0.09375,
		  "durationTicks": 96,
		  "midi": 44,
		  "name": "G#2",
		  "ticks": 334304,
		  "time": 326.46875,
		  "velocity": 0.3937007874015748
		},
		{
		  "duration": 0.09375,
		  "durationTicks": 96,
		  "midi": 73,
		  "name": "C#5",
		  "ticks": 334396,
		  "time": 326.55859375,
		  "velocity": 0.3937007874015748
		},
		{
		  "duration": 0.09375,
		  "durationTicks": 96,
		  "midi": 49,
		  "name": "C#3",
		  "ticks": 334396,
		  "time": 326.55859375,
		  "velocity": 0.3937007874015748
		},
		{
		  "duration": 0.375,
		  "durationTicks": 384,
		  "midi": 72,
		  "name": "C5",
		  "ticks": 334492,
		  "time": 326.65234375,
		  "velocity": 0.3937007874015748
		},
		{
		  "duration": 0.09375,
		  "durationTicks": 96,
		  "midi": 37,
		  "name": "C#2",
		  "ticks": 334496,
		  "time": 326.65625,
		  "velocity": 0.3937007874015748
		},
		{
		  "duration": 0.09375,
		  "durationTicks": 96,
		  "midi": 51,
		  "name": "D#3",
		  "ticks": 334588,
		  "time": 326.74609375,
		  "velocity": 0.3937007874015748
		},
		{
		  "duration": 0.09375,
		  "durationTicks": 96,
		  "midi": 44,
		  "name": "G#2",
		  "ticks": 334684,
		  "time": 326.83984375,
		  "velocity": 0.3937007874015748
		},
		{
		  "duration": 0.09375,
		  "durationTicks": 96,
		  "midi": 51,
		  "name": "D#3",
		  "ticks": 334780,
		  "time": 326.93359375,
		  "velocity": 0.3937007874015748
		},
		{
		  "duration": 0.28125,
		  "durationTicks": 288,
		  "midi": 66,
		  "name": "F#4",
		  "ticks": 334860,
		  "time": 327.01171875,
		  "velocity": 0.3937007874015748
		},
		{
		  "duration": 0.28125,
		  "durationTicks": 288,
		  "midi": 72,
		  "name": "C5",
		  "ticks": 334860,
		  "time": 327.01171875,
		  "velocity": 0.3937007874015748
		},
		{
		  "duration": 0.28125,
		  "durationTicks": 288,
		  "midi": 80,
		  "name": "G#5",
		  "ticks": 334860,
		  "time": 327.01171875,
		  "velocity": 0.3937007874015748
		},
		{
		  "duration": 0.09375,
		  "durationTicks": 96,
		  "midi": 37,
		  "name": "C#2",
		  "ticks": 334880,
		  "time": 327.03125,
		  "velocity": 0.3937007874015748
		},
		{
		  "duration": 0.09375,
		  "durationTicks": 96,
		  "midi": 51,
		  "name": "D#3",
		  "ticks": 334972,
		  "time": 327.12109375,
		  "velocity": 0.3937007874015748
		},
		{
		  "duration": 0.09375,
		  "durationTicks": 96,
		  "midi": 44,
		  "name": "G#2",
		  "ticks": 335068,
		  "time": 327.21484375,
		  "velocity": 0.3937007874015748
		},
		{
		  "duration": 0.09375,
		  "durationTicks": 96,
		  "midi": 51,
		  "name": "D#3",
		  "ticks": 335164,
		  "time": 327.30859375,
		  "velocity": 0.3937007874015748
		},
		{
		  "duration": 0.28125,
		  "durationTicks": 288,
		  "midi": 72,
		  "name": "C5",
		  "ticks": 335240,
		  "time": 327.3828125,
		  "velocity": 0.3937007874015748
		},
		{
		  "duration": 0.28125,
		  "durationTicks": 288,
		  "midi": 66,
		  "name": "F#4",
		  "ticks": 335240,
		  "time": 327.3828125,
		  "velocity": 0.3937007874015748
		},
		{
		  "duration": 0.28125,
		  "durationTicks": 288,
		  "midi": 80,
		  "name": "G#5",
		  "ticks": 335240,
		  "time": 327.3828125,
		  "velocity": 0.3937007874015748
		},
		{
		  "duration": 0.09375,
		  "durationTicks": 96,
		  "midi": 37,
		  "name": "C#2",
		  "ticks": 335260,
		  "time": 327.40234375,
		  "velocity": 0.3937007874015748
		},
		{
		  "duration": 0.09375,
		  "durationTicks": 96,
		  "midi": 51,
		  "name": "D#3",
		  "ticks": 335360,
		  "time": 327.5,
		  "velocity": 0.3937007874015748
		},
		{
		  "duration": 0.09375,
		  "durationTicks": 96,
		  "midi": 44,
		  "name": "G#2",
		  "ticks": 335456,
		  "time": 327.59375,
		  "velocity": 0.3937007874015748
		},
		{
		  "duration": 0.09375,
		  "durationTicks": 96,
		  "midi": 51,
		  "name": "D#3",
		  "ticks": 335552,
		  "time": 327.6875,
		  "velocity": 0.3937007874015748
		},
		{
		  "duration": 0.28125,
		  "durationTicks": 288,
		  "midi": 80,
		  "name": "G#5",
		  "ticks": 335620,
		  "time": 327.75390625,
		  "velocity": 0.3937007874015748
		},
		{
		  "duration": 0.28125,
		  "durationTicks": 288,
		  "midi": 66,
		  "name": "F#4",
		  "ticks": 335620,
		  "time": 327.75390625,
		  "velocity": 0.3937007874015748
		},
		{
		  "duration": 0.28125,
		  "durationTicks": 288,
		  "midi": 72,
		  "name": "C5",
		  "ticks": 335620,
		  "time": 327.75390625,
		  "velocity": 0.3937007874015748
		},
		{
		  "duration": 0.09375,
		  "durationTicks": 96,
		  "midi": 37,
		  "name": "C#2",
		  "ticks": 335644,
		  "time": 327.77734375,
		  "velocity": 0.3937007874015748
		},
		{
		  "duration": 0.09375,
		  "durationTicks": 96,
		  "midi": 51,
		  "name": "D#3",
		  "ticks": 335740,
		  "time": 327.87109375,
		  "velocity": 0.3937007874015748
		},
		{
		  "duration": 0.09375,
		  "durationTicks": 96,
		  "midi": 44,
		  "name": "G#2",
		  "ticks": 335836,
		  "time": 327.96484375,
		  "velocity": 0.3937007874015748
		},
		{
		  "duration": 0.09375,
		  "durationTicks": 96,
		  "midi": 51,
		  "name": "D#3",
		  "ticks": 335932,
		  "time": 328.05859375,
		  "velocity": 0.3937007874015748
		},
		{
		  "duration": 0.09375,
		  "durationTicks": 96,
		  "midi": 64,
		  "name": "E4",
		  "ticks": 336012,
		  "time": 328.13671875,
		  "velocity": 0.3937007874015748
		},
		{
		  "duration": 0.09375,
		  "durationTicks": 96,
		  "midi": 37,
		  "name": "C#2",
		  "ticks": 336028,
		  "time": 328.15234375,
		  "velocity": 0.3937007874015748
		},
		{
		  "duration": 0.09375,
		  "durationTicks": 96,
		  "midi": 73,
		  "name": "C#5",
		  "ticks": 336076,
		  "time": 328.19921875,
		  "velocity": 0.3937007874015748
		},
		{
		  "duration": 0.09375,
		  "durationTicks": 96,
		  "midi": 49,
		  "name": "C#3",
		  "ticks": 336124,
		  "time": 328.24609375,
		  "velocity": 0.3937007874015748
		},
		{
		  "duration": 0.65625,
		  "durationTicks": 672,
		  "midi": 80,
		  "name": "G#5",
		  "ticks": 336144,
		  "time": 328.265625,
		  "velocity": 0.3937007874015748
		},
		{
		  "duration": 0.09375,
		  "durationTicks": 96,
		  "midi": 44,
		  "name": "G#2",
		  "ticks": 336220,
		  "time": 328.33984375,
		  "velocity": 0.3937007874015748
		},
		{
		  "duration": 0.09375,
		  "durationTicks": 96,
		  "midi": 49,
		  "name": "C#3",
		  "ticks": 336316,
		  "time": 328.43359375,
		  "velocity": 0.3937007874015748
		},
		{
		  "duration": 0.09375,
		  "durationTicks": 96,
		  "midi": 37,
		  "name": "C#2",
		  "ticks": 336416,
		  "time": 328.53125,
		  "velocity": 0.3937007874015748
		},
		{
		  "duration": 0.09375,
		  "durationTicks": 96,
		  "midi": 49,
		  "name": "C#3",
		  "ticks": 336512,
		  "time": 328.625,
		  "velocity": 0.3937007874015748
		},
		{
		  "duration": 0.09375,
		  "durationTicks": 96,
		  "midi": 44,
		  "name": "G#2",
		  "ticks": 336608,
		  "time": 328.71875,
		  "velocity": 0.3937007874015748
		},
		{
		  "duration": 0.09375,
		  "durationTicks": 96,
		  "midi": 49,
		  "name": "C#3",
		  "ticks": 336704,
		  "time": 328.8125,
		  "velocity": 0.3937007874015748
		},
		{
		  "duration": 0.09375,
		  "durationTicks": 96,
		  "midi": 66,
		  "name": "F#4",
		  "ticks": 336796,
		  "time": 328.90234375,
		  "velocity": 0.3937007874015748
		},
		{
		  "duration": 0.09375,
		  "durationTicks": 96,
		  "midi": 37,
		  "name": "C#2",
		  "ticks": 336800,
		  "time": 328.90625,
		  "velocity": 0.3937007874015748
		},
		{
		  "duration": 0.09375,
		  "durationTicks": 96,
		  "midi": 72,
		  "name": "C5",
		  "ticks": 336844,
		  "time": 328.94921875,
		  "velocity": 0.3937007874015748
		},
		{
		  "duration": 0.09375,
		  "durationTicks": 96,
		  "midi": 51,
		  "name": "D#3",
		  "ticks": 336892,
		  "time": 328.99609375,
		  "velocity": 0.3937007874015748
		},
		{
		  "duration": 0.65625,
		  "durationTicks": 672,
		  "midi": 80,
		  "name": "G#5",
		  "ticks": 336908,
		  "time": 329.01171875,
		  "velocity": 0.3937007874015748
		},
		{
		  "duration": 0.09375,
		  "durationTicks": 96,
		  "midi": 44,
		  "name": "G#2",
		  "ticks": 336988,
		  "time": 329.08984375,
		  "velocity": 0.3937007874015748
		},
		{
		  "duration": 0.09375,
		  "durationTicks": 96,
		  "midi": 51,
		  "name": "D#3",
		  "ticks": 337084,
		  "time": 329.18359375,
		  "velocity": 0.3937007874015748
		},
		{
		  "duration": 0.09375,
		  "durationTicks": 96,
		  "midi": 37,
		  "name": "C#2",
		  "ticks": 337180,
		  "time": 329.27734375,
		  "velocity": 0.3937007874015748
		},
		{
		  "duration": 0.09375,
		  "durationTicks": 96,
		  "midi": 51,
		  "name": "D#3",
		  "ticks": 337276,
		  "time": 329.37109375,
		  "velocity": 0.3937007874015748
		},
		{
		  "duration": 0.09375,
		  "durationTicks": 96,
		  "midi": 44,
		  "name": "G#2",
		  "ticks": 337372,
		  "time": 329.46484375,
		  "velocity": 0.3937007874015748
		},
		{
		  "duration": 0.09375,
		  "durationTicks": 96,
		  "midi": 51,
		  "name": "D#3",
		  "ticks": 337472,
		  "time": 329.5625,
		  "velocity": 0.3937007874015748
		},
		{
		  "duration": 0.09375,
		  "durationTicks": 96,
		  "midi": 64,
		  "name": "E4",
		  "ticks": 337564,
		  "time": 329.65234375,
		  "velocity": 0.3937007874015748
		},
		{
		  "duration": 0.09375,
		  "durationTicks": 96,
		  "midi": 37,
		  "name": "C#2",
		  "ticks": 337568,
		  "time": 329.65625,
		  "velocity": 0.3937007874015748
		},
		{
		  "duration": 0.09375,
		  "durationTicks": 96,
		  "midi": 49,
		  "name": "C#3",
		  "ticks": 337664,
		  "time": 329.75,
		  "velocity": 0.3937007874015748
		},
		{
		  "duration": 0.65625,
		  "durationTicks": 672,
		  "midi": 80,
		  "name": "G#5",
		  "ticks": 337676,
		  "time": 329.76171875,
		  "velocity": 0.3937007874015748
		},
		{
		  "duration": 0.09375,
		  "durationTicks": 96,
		  "midi": 44,
		  "name": "G#2",
		  "ticks": 337760,
		  "time": 329.84375,
		  "velocity": 0.3937007874015748
		},
		{
		  "duration": 0.09375,
		  "durationTicks": 96,
		  "midi": 49,
		  "name": "C#3",
		  "ticks": 337852,
		  "time": 329.93359375,
		  "velocity": 0.3937007874015748
		},
		{
		  "duration": 0.09375,
		  "durationTicks": 96,
		  "midi": 37,
		  "name": "C#2",
		  "ticks": 337948,
		  "time": 330.02734375,
		  "velocity": 0.3937007874015748
		},
		{
		  "duration": 0.09375,
		  "durationTicks": 96,
		  "midi": 49,
		  "name": "C#3",
		  "ticks": 338044,
		  "time": 330.12109375,
		  "velocity": 0.3937007874015748
		},
		{
		  "duration": 0.09375,
		  "durationTicks": 96,
		  "midi": 44,
		  "name": "G#2",
		  "ticks": 338140,
		  "time": 330.21484375,
		  "velocity": 0.3937007874015748
		},
		{
		  "duration": 0.09375,
		  "durationTicks": 96,
		  "midi": 49,
		  "name": "C#3",
		  "ticks": 338236,
		  "time": 330.30859375,
		  "velocity": 0.3937007874015748
		},
		{
		  "duration": 0.09375,
		  "durationTicks": 96,
		  "midi": 37,
		  "name": "C#2",
		  "ticks": 338332,
		  "time": 330.40234375,
		  "velocity": 0.3937007874015748
		},
		{
		  "duration": 0.09375,
		  "durationTicks": 96,
		  "midi": 66,
		  "name": "F#4",
		  "ticks": 338348,
		  "time": 330.41796875,
		  "velocity": 0.3937007874015748
		},
		{
		  "duration": 0.09375,
		  "durationTicks": 96,
		  "midi": 72,
		  "name": "C5",
		  "ticks": 338396,
		  "time": 330.46484375,
		  "velocity": 0.3937007874015748
		},
		{
		  "duration": 0.09375,
		  "durationTicks": 96,
		  "midi": 51,
		  "name": "D#3",
		  "ticks": 338428,
		  "time": 330.49609375,
		  "velocity": 0.3937007874015748
		},
		{
		  "duration": 0.65625,
		  "durationTicks": 672,
		  "midi": 80,
		  "name": "G#5",
		  "ticks": 338448,
		  "time": 330.515625,
		  "velocity": 0.3937007874015748
		},
		{
		  "duration": 0.09375,
		  "durationTicks": 96,
		  "midi": 44,
		  "name": "G#2",
		  "ticks": 338528,
		  "time": 330.59375,
		  "velocity": 0.3937007874015748
		},
		{
		  "duration": 0.09375,
		  "durationTicks": 96,
		  "midi": 51,
		  "name": "D#3",
		  "ticks": 338624,
		  "time": 330.6875,
		  "velocity": 0.3937007874015748
		},
		{
		  "duration": 0.09375,
		  "durationTicks": 96,
		  "midi": 37,
		  "name": "C#2",
		  "ticks": 338720,
		  "time": 330.78125,
		  "velocity": 0.3937007874015748
		},
		{
		  "duration": 0.09375,
		  "durationTicks": 96,
		  "midi": 51,
		  "name": "D#3",
		  "ticks": 338816,
		  "time": 330.875,
		  "velocity": 0.3937007874015748
		},
		{
		  "duration": 0.09375,
		  "durationTicks": 96,
		  "midi": 44,
		  "name": "G#2",
		  "ticks": 338908,
		  "time": 330.96484375,
		  "velocity": 0.3937007874015748
		},
		{
		  "duration": 0.09375,
		  "durationTicks": 96,
		  "midi": 51,
		  "name": "D#3",
		  "ticks": 339004,
		  "time": 331.05859375,
		  "velocity": 0.3937007874015748
		},
		{
		  "duration": 0.09375,
		  "durationTicks": 96,
		  "midi": 52,
		  "name": "E3",
		  "ticks": 339100,
		  "time": 331.15234375,
		  "velocity": 0.3937007874015748
		},
		{
		  "duration": 0.09375,
		  "durationTicks": 96,
		  "midi": 37,
		  "name": "C#2",
		  "ticks": 339104,
		  "time": 331.15625,
		  "velocity": 0.3937007874015748
		},
		{
		  "duration": 0.09375,
		  "durationTicks": 96,
		  "midi": 61,
		  "name": "C#4",
		  "ticks": 339196,
		  "time": 331.24609375,
		  "velocity": 0.3937007874015748
		},
		{
		  "duration": 0.09375,
		  "durationTicks": 96,
		  "midi": 49,
		  "name": "C#3",
		  "ticks": 339200,
		  "time": 331.25,
		  "velocity": 0.3937007874015748
		},
		{
		  "duration": 0.09375,
		  "durationTicks": 96,
		  "midi": 56,
		  "name": "G#3",
		  "ticks": 339292,
		  "time": 331.33984375,
		  "velocity": 0.3937007874015748
		},
		{
		  "duration": 0.09375,
		  "durationTicks": 96,
		  "midi": 44,
		  "name": "G#2",
		  "ticks": 339292,
		  "time": 331.33984375,
		  "velocity": 0.3937007874015748
		},
		{
		  "duration": 0.09375,
		  "durationTicks": 96,
		  "midi": 61,
		  "name": "C#4",
		  "ticks": 339388,
		  "time": 331.43359375,
		  "velocity": 0.3937007874015748
		},
		{
		  "duration": 0.09375,
		  "durationTicks": 96,
		  "midi": 49,
		  "name": "C#3",
		  "ticks": 339388,
		  "time": 331.43359375,
		  "velocity": 0.3937007874015748
		},
		{
		  "duration": 0.09375,
		  "durationTicks": 96,
		  "midi": 52,
		  "name": "E3",
		  "ticks": 339484,
		  "time": 331.52734375,
		  "velocity": 0.3937007874015748
		},
		{
		  "duration": 0.09375,
		  "durationTicks": 96,
		  "midi": 37,
		  "name": "C#2",
		  "ticks": 339484,
		  "time": 331.52734375,
		  "velocity": 0.3937007874015748
		},
		{
		  "duration": 0.09375,
		  "durationTicks": 96,
		  "midi": 61,
		  "name": "C#4",
		  "ticks": 339580,
		  "time": 331.62109375,
		  "velocity": 0.3937007874015748
		},
		{
		  "duration": 0.09375,
		  "durationTicks": 96,
		  "midi": 49,
		  "name": "C#3",
		  "ticks": 339580,
		  "time": 331.62109375,
		  "velocity": 0.3937007874015748
		},
		{
		  "duration": 0.09375,
		  "durationTicks": 96,
		  "midi": 56,
		  "name": "G#3",
		  "ticks": 339680,
		  "time": 331.71875,
		  "velocity": 0.3937007874015748
		},
		{
		  "duration": 0.09375,
		  "durationTicks": 96,
		  "midi": 44,
		  "name": "G#2",
		  "ticks": 339680,
		  "time": 331.71875,
		  "velocity": 0.3937007874015748
		},
		{
		  "duration": 0.09375,
		  "durationTicks": 96,
		  "midi": 61,
		  "name": "C#4",
		  "ticks": 339776,
		  "time": 331.8125,
		  "velocity": 0.3937007874015748
		},
		{
		  "duration": 0.09375,
		  "durationTicks": 96,
		  "midi": 49,
		  "name": "C#3",
		  "ticks": 339776,
		  "time": 331.8125,
		  "velocity": 0.3937007874015748
		},
		{
		  "duration": 0.09375,
		  "durationTicks": 96,
		  "midi": 52,
		  "name": "E3",
		  "ticks": 339872,
		  "time": 331.90625,
		  "velocity": 0.3937007874015748
		},
		{
		  "duration": 0.09375,
		  "durationTicks": 96,
		  "midi": 37,
		  "name": "C#2",
		  "ticks": 339872,
		  "time": 331.90625,
		  "velocity": 0.3937007874015748
		},
		{
		  "duration": 0.09375,
		  "durationTicks": 96,
		  "midi": 61,
		  "name": "C#4",
		  "ticks": 339964,
		  "time": 331.99609375,
		  "velocity": 0.3937007874015748
		},
		{
		  "duration": 0.09375,
		  "durationTicks": 96,
		  "midi": 49,
		  "name": "C#3",
		  "ticks": 339968,
		  "time": 332,
		  "velocity": 0.3937007874015748
		},
		{
		  "duration": 0.09375,
		  "durationTicks": 96,
		  "midi": 56,
		  "name": "G#3",
		  "ticks": 340060,
		  "time": 332.08984375,
		  "velocity": 0.3937007874015748
		},
		{
		  "duration": 0.09375,
		  "durationTicks": 96,
		  "midi": 44,
		  "name": "G#2",
		  "ticks": 340064,
		  "time": 332.09375,
		  "velocity": 0.3937007874015748
		},
		{
		  "duration": 0.09375,
		  "durationTicks": 96,
		  "midi": 61,
		  "name": "C#4",
		  "ticks": 340156,
		  "time": 332.18359375,
		  "velocity": 0.3937007874015748
		},
		{
		  "duration": 0.09375,
		  "durationTicks": 96,
		  "midi": 49,
		  "name": "C#3",
		  "ticks": 340160,
		  "time": 332.1875,
		  "velocity": 0.3937007874015748
		},
		{
		  "duration": 0.09375,
		  "durationTicks": 96,
		  "midi": 52,
		  "name": "E3",
		  "ticks": 340252,
		  "time": 332.27734375,
		  "velocity": 0.3937007874015748
		},
		{
		  "duration": 0.09375,
		  "durationTicks": 96,
		  "midi": 37,
		  "name": "C#2",
		  "ticks": 340256,
		  "time": 332.28125,
		  "velocity": 0.3937007874015748
		},
		{
		  "duration": 0.09375,
		  "durationTicks": 96,
		  "midi": 61,
		  "name": "C#4",
		  "ticks": 340348,
		  "time": 332.37109375,
		  "velocity": 0.3937007874015748
		},
		{
		  "duration": 0.09375,
		  "durationTicks": 96,
		  "midi": 49,
		  "name": "C#3",
		  "ticks": 340348,
		  "time": 332.37109375,
		  "velocity": 0.3937007874015748
		},
		{
		  "duration": 0.09375,
		  "durationTicks": 96,
		  "midi": 56,
		  "name": "G#3",
		  "ticks": 340444,
		  "time": 332.46484375,
		  "velocity": 0.3937007874015748
		},
		{
		  "duration": 0.09375,
		  "durationTicks": 96,
		  "midi": 44,
		  "name": "G#2",
		  "ticks": 340444,
		  "time": 332.46484375,
		  "velocity": 0.3937007874015748
		},
		{
		  "duration": 0.09375,
		  "durationTicks": 96,
		  "midi": 61,
		  "name": "C#4",
		  "ticks": 340540,
		  "time": 332.55859375,
		  "velocity": 0.3937007874015748
		},
		{
		  "duration": 0.09375,
		  "durationTicks": 96,
		  "midi": 49,
		  "name": "C#3",
		  "ticks": 340540,
		  "time": 332.55859375,
		  "velocity": 0.3937007874015748
		},
		{
		  "duration": 0.09375,
		  "durationTicks": 96,
		  "midi": 53,
		  "name": "F3",
		  "ticks": 340624,
		  "time": 332.640625,
		  "velocity": 0.3937007874015748
		},
		{
		  "duration": 0.09375,
		  "durationTicks": 96,
		  "midi": 49,
		  "name": "C#3",
		  "ticks": 340624,
		  "time": 332.640625,
		  "velocity": 0.3937007874015748
		},
		{
		  "duration": 0.09375,
		  "durationTicks": 96,
		  "midi": 35,
		  "name": "B1",
		  "ticks": 340636,
		  "time": 332.65234375,
		  "velocity": 0.3937007874015748
		},
		{
		  "duration": 0.09375,
		  "durationTicks": 96,
		  "midi": 61,
		  "name": "C#4",
		  "ticks": 340736,
		  "time": 332.75,
		  "velocity": 0.3937007874015748
		},
		{
		  "duration": 0.09375,
		  "durationTicks": 96,
		  "midi": 47,
		  "name": "B2",
		  "ticks": 340736,
		  "time": 332.75,
		  "velocity": 0.3937007874015748
		},
		{
		  "duration": 0.09375,
		  "durationTicks": 96,
		  "midi": 56,
		  "name": "G#3",
		  "ticks": 340832,
		  "time": 332.84375,
		  "velocity": 0.3937007874015748
		},
		{
		  "duration": 0.09375,
		  "durationTicks": 96,
		  "midi": 37,
		  "name": "C#2",
		  "ticks": 340832,
		  "time": 332.84375,
		  "velocity": 0.3937007874015748
		},
		{
		  "duration": 0.09375,
		  "durationTicks": 96,
		  "midi": 61,
		  "name": "C#4",
		  "ticks": 340928,
		  "time": 332.9375,
		  "velocity": 0.3937007874015748
		},
		{
		  "duration": 0.09375,
		  "durationTicks": 96,
		  "midi": 47,
		  "name": "B2",
		  "ticks": 340928,
		  "time": 332.9375,
		  "velocity": 0.3937007874015748
		},
		{
		  "duration": 0.09375,
		  "durationTicks": 96,
		  "midi": 53,
		  "name": "F3",
		  "ticks": 341004,
		  "time": 333.01171875,
		  "velocity": 0.3937007874015748
		},
		{
		  "duration": 0.09375,
		  "durationTicks": 96,
		  "midi": 49,
		  "name": "C#3",
		  "ticks": 341004,
		  "time": 333.01171875,
		  "velocity": 0.3937007874015748
		},
		{
		  "duration": 0.09375,
		  "durationTicks": 96,
		  "midi": 35,
		  "name": "B1",
		  "ticks": 341024,
		  "time": 333.03125,
		  "velocity": 0.3937007874015748
		},
		{
		  "duration": 0.09375,
		  "durationTicks": 96,
		  "midi": 61,
		  "name": "C#4",
		  "ticks": 341116,
		  "time": 333.12109375,
		  "velocity": 0.3937007874015748
		},
		{
		  "duration": 0.09375,
		  "durationTicks": 96,
		  "midi": 47,
		  "name": "B2",
		  "ticks": 341120,
		  "time": 333.125,
		  "velocity": 0.3937007874015748
		},
		{
		  "duration": 0.09375,
		  "durationTicks": 96,
		  "midi": 56,
		  "name": "G#3",
		  "ticks": 341212,
		  "time": 333.21484375,
		  "velocity": 0.3937007874015748
		},
		{
		  "duration": 0.09375,
		  "durationTicks": 96,
		  "midi": 37,
		  "name": "C#2",
		  "ticks": 341216,
		  "time": 333.21875,
		  "velocity": 0.3937007874015748
		},
		{
		  "duration": 0.09375,
		  "durationTicks": 96,
		  "midi": 61,
		  "name": "C#4",
		  "ticks": 341308,
		  "time": 333.30859375,
		  "velocity": 0.3937007874015748
		},
		{
		  "duration": 0.09375,
		  "durationTicks": 96,
		  "midi": 47,
		  "name": "B2",
		  "ticks": 341312,
		  "time": 333.3125,
		  "velocity": 0.3937007874015748
		},
		{
		  "duration": 0.09375,
		  "durationTicks": 96,
		  "midi": 49,
		  "name": "C#3",
		  "ticks": 341388,
		  "time": 333.38671875,
		  "velocity": 0.3937007874015748
		},
		{
		  "duration": 0.09375,
		  "durationTicks": 96,
		  "midi": 53,
		  "name": "F3",
		  "ticks": 341388,
		  "time": 333.38671875,
		  "velocity": 0.3937007874015748
		},
		{
		  "duration": 0.09375,
		  "durationTicks": 96,
		  "midi": 35,
		  "name": "B1",
		  "ticks": 341404,
		  "time": 333.40234375,
		  "velocity": 0.3937007874015748
		},
		{
		  "duration": 0.09375,
		  "durationTicks": 96,
		  "midi": 61,
		  "name": "C#4",
		  "ticks": 341500,
		  "time": 333.49609375,
		  "velocity": 0.3937007874015748
		},
		{
		  "duration": 0.09375,
		  "durationTicks": 96,
		  "midi": 47,
		  "name": "B2",
		  "ticks": 341500,
		  "time": 333.49609375,
		  "velocity": 0.3937007874015748
		},
		{
		  "duration": 0.09375,
		  "durationTicks": 96,
		  "midi": 56,
		  "name": "G#3",
		  "ticks": 341596,
		  "time": 333.58984375,
		  "velocity": 0.3937007874015748
		},
		{
		  "duration": 0.09375,
		  "durationTicks": 96,
		  "midi": 37,
		  "name": "C#2",
		  "ticks": 341596,
		  "time": 333.58984375,
		  "velocity": 0.3937007874015748
		},
		{
		  "duration": 0.09375,
		  "durationTicks": 96,
		  "midi": 61,
		  "name": "C#4",
		  "ticks": 341692,
		  "time": 333.68359375,
		  "velocity": 0.3937007874015748
		},
		{
		  "duration": 0.09375,
		  "durationTicks": 96,
		  "midi": 47,
		  "name": "B2",
		  "ticks": 341692,
		  "time": 333.68359375,
		  "velocity": 0.3937007874015748
		},
		{
		  "duration": 0.09375,
		  "durationTicks": 96,
		  "midi": 53,
		  "name": "F3",
		  "ticks": 341772,
		  "time": 333.76171875,
		  "velocity": 0.3937007874015748
		},
		{
		  "duration": 0.09375,
		  "durationTicks": 96,
		  "midi": 49,
		  "name": "C#3",
		  "ticks": 341772,
		  "time": 333.76171875,
		  "velocity": 0.3937007874015748
		},
		{
		  "duration": 0.09375,
		  "durationTicks": 96,
		  "midi": 35,
		  "name": "B1",
		  "ticks": 341788,
		  "time": 333.77734375,
		  "velocity": 0.3937007874015748
		},
		{
		  "duration": 0.09375,
		  "durationTicks": 96,
		  "midi": 61,
		  "name": "C#4",
		  "ticks": 341888,
		  "time": 333.875,
		  "velocity": 0.3937007874015748
		},
		{
		  "duration": 0.09375,
		  "durationTicks": 96,
		  "midi": 47,
		  "name": "B2",
		  "ticks": 341888,
		  "time": 333.875,
		  "velocity": 0.3937007874015748
		},
		{
		  "duration": 0.09375,
		  "durationTicks": 96,
		  "midi": 56,
		  "name": "G#3",
		  "ticks": 341984,
		  "time": 333.96875,
		  "velocity": 0.3937007874015748
		},
		{
		  "duration": 0.09375,
		  "durationTicks": 96,
		  "midi": 37,
		  "name": "C#2",
		  "ticks": 341984,
		  "time": 333.96875,
		  "velocity": 0.3937007874015748
		},
		{
		  "duration": 0.0947265625,
		  "durationTicks": 97,
		  "midi": 61,
		  "name": "C#4",
		  "ticks": 342076,
		  "time": 334.05859375,
		  "velocity": 0.3937007874015748
		},
		{
		  "duration": 0.0947265625,
		  "durationTicks": 97,
		  "midi": 47,
		  "name": "B2",
		  "ticks": 342080,
		  "time": 334.0625,
		  "velocity": 0.3937007874015748
		},
		{
		  "duration": 0.0947265625,
		  "durationTicks": 97,
		  "midi": 49,
		  "name": "C#3",
		  "ticks": 342161,
		  "time": 334.1416015625,
		  "velocity": 0.3937007874015748
		},
		{
		  "duration": 0.0947265625,
		  "durationTicks": 97,
		  "midi": 61,
		  "name": "C#4",
		  "ticks": 342161,
		  "time": 334.1416015625,
		  "velocity": 0.3937007874015748
		},
		{
		  "duration": 0.0947265625,
		  "durationTicks": 97,
		  "midi": 57,
		  "name": "A3",
		  "ticks": 342161,
		  "time": 334.1416015625,
		  "velocity": 0.3937007874015748
		},
		{
		  "duration": 0.0947265625,
		  "durationTicks": 97,
		  "midi": 54,
		  "name": "F#3",
		  "ticks": 342161,
		  "time": 334.1416015625,
		  "velocity": 0.3937007874015748
		},
		{
		  "duration": 0.1884765625,
		  "durationTicks": 193,
		  "midi": 45,
		  "name": "A2",
		  "ticks": 342165,
		  "time": 334.1455078125,
		  "velocity": 0.3937007874015748
		},
		{
		  "duration": 0.1884765625,
		  "durationTicks": 193,
		  "midi": 33,
		  "name": "A1",
		  "ticks": 342165,
		  "time": 334.1455078125,
		  "velocity": 0.3937007874015748
		},
		{
		  "duration": 0.0947265625,
		  "durationTicks": 97,
		  "midi": 49,
		  "name": "C#3",
		  "ticks": 342273,
		  "time": 334.2509765625,
		  "velocity": 0.3937007874015748
		},
		{
		  "duration": 0.0947265625,
		  "durationTicks": 97,
		  "midi": 42,
		  "name": "F#2",
		  "ticks": 342354,
		  "time": 334.330078125,
		  "velocity": 0.3937007874015748
		},
		{
		  "duration": 0.0947265625,
		  "durationTicks": 97,
		  "midi": 54,
		  "name": "F#3",
		  "ticks": 342366,
		  "time": 334.341796875,
		  "velocity": 0.3937007874015748
		},
		{
		  "duration": 0.09375,
		  "durationTicks": 96,
		  "midi": 57,
		  "name": "A3",
		  "ticks": 342463,
		  "time": 334.4365234375,
		  "velocity": 0.3937007874015748
		},
		{
		  "duration": 0.09375,
		  "durationTicks": 96,
		  "midi": 33,
		  "name": "A1",
		  "ticks": 342547,
		  "time": 334.5185546875,
		  "velocity": 0.3937007874015748
		},
		{
		  "duration": 0.09375,
		  "durationTicks": 96,
		  "midi": 61,
		  "name": "C#4",
		  "ticks": 342559,
		  "time": 334.5302734375,
		  "velocity": 0.3937007874015748
		},
		{
		  "duration": 0.09375,
		  "durationTicks": 96,
		  "midi": 54,
		  "name": "F#3",
		  "ticks": 342655,
		  "time": 334.6240234375,
		  "velocity": 0.3937007874015748
		},
		{
		  "duration": 0.09375,
		  "durationTicks": 96,
		  "midi": 42,
		  "name": "F#2",
		  "ticks": 342739,
		  "time": 334.7060546875,
		  "velocity": 0.3937007874015748
		},
		{
		  "duration": 0.09375,
		  "durationTicks": 96,
		  "midi": 57,
		  "name": "A3",
		  "ticks": 342751,
		  "time": 334.7177734375,
		  "velocity": 0.3937007874015748
		},
		{
		  "duration": 0.09375,
		  "durationTicks": 96,
		  "midi": 61,
		  "name": "C#4",
		  "ticks": 342847,
		  "time": 334.8115234375,
		  "velocity": 0.3937007874015748
		},
		{
		  "duration": 0.09375,
		  "durationTicks": 96,
		  "midi": 33,
		  "name": "A1",
		  "ticks": 342927,
		  "time": 334.8896484375,
		  "velocity": 0.3937007874015748
		},
		{
		  "duration": 0.09375,
		  "durationTicks": 96,
		  "midi": 66,
		  "name": "F#4",
		  "ticks": 342947,
		  "time": 334.9091796875,
		  "velocity": 0.3937007874015748
		},
		{
		  "duration": 0.09375,
		  "durationTicks": 96,
		  "midi": 57,
		  "name": "A3",
		  "ticks": 343043,
		  "time": 335.0029296875,
		  "velocity": 0.3937007874015748
		},
		{
		  "duration": 0.09375,
		  "durationTicks": 96,
		  "midi": 42,
		  "name": "F#2",
		  "ticks": 343119,
		  "time": 335.0771484375,
		  "velocity": 0.3937007874015748
		},
		{
		  "duration": 0.09375,
		  "durationTicks": 96,
		  "midi": 61,
		  "name": "C#4",
		  "ticks": 343139,
		  "time": 335.0966796875,
		  "velocity": 0.3937007874015748
		},
		{
		  "duration": 0.0947265625,
		  "durationTicks": 97,
		  "midi": 66,
		  "name": "F#4",
		  "ticks": 343231,
		  "time": 335.1865234375,
		  "velocity": 0.3937007874015748
		},
		{
		  "duration": 0.09375,
		  "durationTicks": 96,
		  "midi": 33,
		  "name": "A1",
		  "ticks": 343316,
		  "time": 335.26953125,
		  "velocity": 0.3937007874015748
		},
		{
		  "duration": 0.09375,
		  "durationTicks": 96,
		  "midi": 69,
		  "name": "A4",
		  "ticks": 343328,
		  "time": 335.28125,
		  "velocity": 0.3937007874015748
		},
		{
		  "duration": 0.09375,
		  "durationTicks": 96,
		  "midi": 61,
		  "name": "C#4",
		  "ticks": 343424,
		  "time": 335.375,
		  "velocity": 0.3937007874015748
		},
		{
		  "duration": 0.09375,
		  "durationTicks": 96,
		  "midi": 42,
		  "name": "F#2",
		  "ticks": 343508,
		  "time": 335.45703125,
		  "velocity": 0.3937007874015748
		},
		{
		  "duration": 0.09375,
		  "durationTicks": 96,
		  "midi": 66,
		  "name": "F#4",
		  "ticks": 343520,
		  "time": 335.46875,
		  "velocity": 0.3937007874015748
		},
		{
		  "duration": 0.09375,
		  "durationTicks": 96,
		  "midi": 69,
		  "name": "A4",
		  "ticks": 343616,
		  "time": 335.5625,
		  "velocity": 0.3937007874015748
		},
		{
		  "duration": 0.09375,
		  "durationTicks": 96,
		  "midi": 33,
		  "name": "A1",
		  "ticks": 343700,
		  "time": 335.64453125,
		  "velocity": 0.3937007874015748
		},
		{
		  "duration": 0.09375,
		  "durationTicks": 96,
		  "midi": 73,
		  "name": "C#5",
		  "ticks": 343712,
		  "time": 335.65625,
		  "velocity": 0.3937007874015748
		},
		{
		  "duration": 0.09375,
		  "durationTicks": 96,
		  "midi": 66,
		  "name": "F#4",
		  "ticks": 343808,
		  "time": 335.75,
		  "velocity": 0.3937007874015748
		},
		{
		  "duration": 0.09375,
		  "durationTicks": 96,
		  "midi": 42,
		  "name": "F#2",
		  "ticks": 343892,
		  "time": 335.83203125,
		  "velocity": 0.3937007874015748
		},
		{
		  "duration": 0.09375,
		  "durationTicks": 96,
		  "midi": 69,
		  "name": "A4",
		  "ticks": 343904,
		  "time": 335.84375,
		  "velocity": 0.3937007874015748
		},
		{
		  "duration": 0.09375,
		  "durationTicks": 96,
		  "midi": 73,
		  "name": "C#5",
		  "ticks": 344004,
		  "time": 335.94140625,
		  "velocity": 0.3937007874015748
		},
		{
		  "duration": 0.09375,
		  "durationTicks": 96,
		  "midi": 33,
		  "name": "A1",
		  "ticks": 344080,
		  "time": 336.015625,
		  "velocity": 0.3937007874015748
		},
		{
		  "duration": 0.09375,
		  "durationTicks": 96,
		  "midi": 78,
		  "name": "F#5",
		  "ticks": 344100,
		  "time": 336.03515625,
		  "velocity": 0.3937007874015748
		},
		{
		  "duration": 0.09375,
		  "durationTicks": 96,
		  "midi": 69,
		  "name": "A4",
		  "ticks": 344196,
		  "time": 336.12890625,
		  "velocity": 0.3937007874015748
		},
		{
		  "duration": 0.09375,
		  "durationTicks": 96,
		  "midi": 42,
		  "name": "F#2",
		  "ticks": 344272,
		  "time": 336.203125,
		  "velocity": 0.3937007874015748
		},
		{
		  "duration": 0.09375,
		  "durationTicks": 96,
		  "midi": 73,
		  "name": "C#5",
		  "ticks": 344288,
		  "time": 336.21875,
		  "velocity": 0.3937007874015748
		},
		{
		  "duration": 0.09375,
		  "durationTicks": 96,
		  "midi": 78,
		  "name": "F#5",
		  "ticks": 344384,
		  "time": 336.3125,
		  "velocity": 0.3937007874015748
		},
		{
		  "duration": 0.09375,
		  "durationTicks": 96,
		  "midi": 33,
		  "name": "A1",
		  "ticks": 344468,
		  "time": 336.39453125,
		  "velocity": 0.3937007874015748
		},
		{
		  "duration": 0.09375,
		  "durationTicks": 96,
		  "midi": 81,
		  "name": "A5",
		  "ticks": 344480,
		  "time": 336.40625,
		  "velocity": 0.3937007874015748
		},
		{
		  "duration": 0.09375,
		  "durationTicks": 96,
		  "midi": 73,
		  "name": "C#5",
		  "ticks": 344576,
		  "time": 336.5,
		  "velocity": 0.3937007874015748
		},
		{
		  "duration": 0.09375,
		  "durationTicks": 96,
		  "midi": 42,
		  "name": "F#2",
		  "ticks": 344660,
		  "time": 336.58203125,
		  "velocity": 0.3937007874015748
		},
		{
		  "duration": 0.09375,
		  "durationTicks": 96,
		  "midi": 78,
		  "name": "F#5",
		  "ticks": 344672,
		  "time": 336.59375,
		  "velocity": 0.3937007874015748
		},
		{
		  "duration": 0.09375,
		  "durationTicks": 96,
		  "midi": 81,
		  "name": "A5",
		  "ticks": 344768,
		  "time": 336.6875,
		  "velocity": 0.3937007874015748
		},
		{
		  "duration": 0.1884765625,
		  "durationTicks": 193,
		  "midi": 85,
		  "name": "C#6",
		  "ticks": 344852,
		  "time": 336.76953125,
		  "velocity": 0.3937007874015748
		},
		{
		  "duration": 0.1884765625,
		  "durationTicks": 193,
		  "midi": 81,
		  "name": "A5",
		  "ticks": 344852,
		  "time": 336.76953125,
		  "velocity": 0.3937007874015748
		},
		{
		  "duration": 0.1884765625,
		  "durationTicks": 193,
		  "midi": 78,
		  "name": "F#5",
		  "ticks": 344852,
		  "time": 336.76953125,
		  "velocity": 0.3937007874015748
		},
		{
		  "duration": 0.1884765625,
		  "durationTicks": 193,
		  "midi": 73,
		  "name": "C#5",
		  "ticks": 344852,
		  "time": 336.76953125,
		  "velocity": 0.3937007874015748
		},
		{
		  "duration": 0.1884765625,
		  "durationTicks": 193,
		  "midi": 45,
		  "name": "A2",
		  "ticks": 344852,
		  "time": 336.76953125,
		  "velocity": 0.3937007874015748
		},
		{
		  "duration": 0.1884765625,
		  "durationTicks": 193,
		  "midi": 33,
		  "name": "A1",
		  "ticks": 344852,
		  "time": 336.76953125,
		  "velocity": 0.3937007874015748
		},
		{
		  "duration": 0.1875,
		  "durationTicks": 192,
		  "midi": 81,
		  "name": "A5",
		  "ticks": 345040,
		  "time": 336.953125,
		  "velocity": 0.3937007874015748
		},
		{
		  "duration": 0.1875,
		  "durationTicks": 192,
		  "midi": 73,
		  "name": "C#5",
		  "ticks": 345040,
		  "time": 336.953125,
		  "velocity": 0.3937007874015748
		},
		{
		  "duration": 0.1875,
		  "durationTicks": 192,
		  "midi": 78,
		  "name": "F#5",
		  "ticks": 345040,
		  "time": 336.953125,
		  "velocity": 0.3937007874015748
		},
		{
		  "duration": 0.1875,
		  "durationTicks": 192,
		  "midi": 85,
		  "name": "C#6",
		  "ticks": 345040,
		  "time": 336.953125,
		  "velocity": 0.3937007874015748
		},
		{
		  "duration": 0.1875,
		  "durationTicks": 192,
		  "midi": 42,
		  "name": "F#2",
		  "ticks": 345045,
		  "time": 336.9580078125,
		  "velocity": 0.3937007874015748
		},
		{
		  "duration": 0.09375,
		  "durationTicks": 96,
		  "midi": 32,
		  "name": "G#1",
		  "ticks": 345232,
		  "time": 337.140625,
		  "velocity": 0.3937007874015748
		},
		{
		  "duration": 0.0947265625,
		  "durationTicks": 97,
		  "midi": 49,
		  "name": "C#3",
		  "ticks": 345348,
		  "time": 337.25390625,
		  "velocity": 0.3937007874015748
		},
		{
		  "duration": 0.0947265625,
		  "durationTicks": 97,
		  "midi": 40,
		  "name": "E2",
		  "ticks": 345429,
		  "time": 337.3330078125,
		  "velocity": 0.3937007874015748
		},
		{
		  "duration": 0.0947265625,
		  "durationTicks": 97,
		  "midi": 52,
		  "name": "E3",
		  "ticks": 345441,
		  "time": 337.3447265625,
		  "velocity": 0.3937007874015748
		},
		{
		  "duration": 0.09375,
		  "durationTicks": 96,
		  "midi": 56,
		  "name": "G#3",
		  "ticks": 345538,
		  "time": 337.439453125,
		  "velocity": 0.3937007874015748
		},
		{
		  "duration": 0.09375,
		  "durationTicks": 96,
		  "midi": 32,
		  "name": "G#1",
		  "ticks": 345622,
		  "time": 337.521484375,
		  "velocity": 0.3937007874015748
		},
		{
		  "duration": 0.09375,
		  "durationTicks": 96,
		  "midi": 61,
		  "name": "C#4",
		  "ticks": 345634,
		  "time": 337.533203125,
		  "velocity": 0.3937007874015748
		},
		{
		  "duration": 0.09375,
		  "durationTicks": 96,
		  "midi": 52,
		  "name": "E3",
		  "ticks": 345730,
		  "time": 337.626953125,
		  "velocity": 0.3937007874015748
		},
		{
		  "duration": 0.09375,
		  "durationTicks": 96,
		  "midi": 40,
		  "name": "E2",
		  "ticks": 345814,
		  "time": 337.708984375,
		  "velocity": 0.3937007874015748
		},
		{
		  "duration": 0.09375,
		  "durationTicks": 96,
		  "midi": 56,
		  "name": "G#3",
		  "ticks": 345826,
		  "time": 337.720703125,
		  "velocity": 0.3937007874015748
		},
		{
		  "duration": 0.09375,
		  "durationTicks": 96,
		  "midi": 61,
		  "name": "C#4",
		  "ticks": 345922,
		  "time": 337.814453125,
		  "velocity": 0.3937007874015748
		},
		{
		  "duration": 0.09375,
		  "durationTicks": 96,
		  "midi": 32,
		  "name": "G#1",
		  "ticks": 346006,
		  "time": 337.896484375,
		  "velocity": 0.3937007874015748
		},
		{
		  "duration": 0.09375,
		  "durationTicks": 96,
		  "midi": 64,
		  "name": "E4",
		  "ticks": 346018,
		  "time": 337.908203125,
		  "velocity": 0.3937007874015748
		},
		{
		  "duration": 0.09375,
		  "durationTicks": 96,
		  "midi": 56,
		  "name": "G#3",
		  "ticks": 346114,
		  "time": 338.001953125,
		  "velocity": 0.3937007874015748
		},
		{
		  "duration": 0.09375,
		  "durationTicks": 96,
		  "midi": 40,
		  "name": "E2",
		  "ticks": 346194,
		  "time": 338.080078125,
		  "velocity": 0.3937007874015748
		},
		{
		  "duration": 0.09375,
		  "durationTicks": 96,
		  "midi": 61,
		  "name": "C#4",
		  "ticks": 346214,
		  "time": 338.099609375,
		  "velocity": 0.3937007874015748
		},
		{
		  "duration": 0.09375,
		  "durationTicks": 96,
		  "midi": 64,
		  "name": "E4",
		  "ticks": 346310,
		  "time": 338.193359375,
		  "velocity": 0.3937007874015748
		},
		{
		  "duration": 0.09375,
		  "durationTicks": 96,
		  "midi": 32,
		  "name": "G#1",
		  "ticks": 346386,
		  "time": 338.267578125,
		  "velocity": 0.3937007874015748
		},
		{
		  "duration": 0.09375,
		  "durationTicks": 96,
		  "midi": 68,
		  "name": "G#4",
		  "ticks": 346406,
		  "time": 338.287109375,
		  "velocity": 0.3937007874015748
		},
		{
		  "duration": 0.0947265625,
		  "durationTicks": 97,
		  "midi": 61,
		  "name": "C#4",
		  "ticks": 346498,
		  "time": 338.376953125,
		  "velocity": 0.3937007874015748
		},
		{
		  "duration": 0.09375,
		  "durationTicks": 96,
		  "midi": 40,
		  "name": "E2",
		  "ticks": 346583,
		  "time": 338.4599609375,
		  "velocity": 0.3937007874015748
		},
		{
		  "duration": 0.09375,
		  "durationTicks": 96,
		  "midi": 64,
		  "name": "E4",
		  "ticks": 346595,
		  "time": 338.4716796875,
		  "velocity": 0.3937007874015748
		},
		{
		  "duration": 0.09375,
		  "durationTicks": 96,
		  "midi": 68,
		  "name": "G#4",
		  "ticks": 346691,
		  "time": 338.5654296875,
		  "velocity": 0.3937007874015748
		},
		{
		  "duration": 0.09375,
		  "durationTicks": 96,
		  "midi": 32,
		  "name": "G#1",
		  "ticks": 346775,
		  "time": 338.6474609375,
		  "velocity": 0.3937007874015748
		},
		{
		  "duration": 0.09375,
		  "durationTicks": 96,
		  "midi": 73,
		  "name": "C#5",
		  "ticks": 346787,
		  "time": 338.6591796875,
		  "velocity": 0.3937007874015748
		},
		{
		  "duration": 0.09375,
		  "durationTicks": 96,
		  "midi": 64,
		  "name": "E4",
		  "ticks": 346883,
		  "time": 338.7529296875,
		  "velocity": 0.3937007874015748
		},
		{
		  "duration": 0.09375,
		  "durationTicks": 96,
		  "midi": 40,
		  "name": "E2",
		  "ticks": 346967,
		  "time": 338.8349609375,
		  "velocity": 0.3937007874015748
		},
		{
		  "duration": 0.09375,
		  "durationTicks": 96,
		  "midi": 68,
		  "name": "G#4",
		  "ticks": 346979,
		  "time": 338.8466796875,
		  "velocity": 0.3937007874015748
		},
		{
		  "duration": 0.09375,
		  "durationTicks": 96,
		  "midi": 73,
		  "name": "C#5",
		  "ticks": 347075,
		  "time": 338.9404296875,
		  "velocity": 0.3937007874015748
		},
		{
		  "duration": 0.09375,
		  "durationTicks": 96,
		  "midi": 32,
		  "name": "G#1",
		  "ticks": 347159,
		  "time": 339.0224609375,
		  "velocity": 0.3937007874015748
		},
		{
		  "duration": 0.09375,
		  "durationTicks": 96,
		  "midi": 76,
		  "name": "E5",
		  "ticks": 347171,
		  "time": 339.0341796875,
		  "velocity": 0.3937007874015748
		},
		{
		  "duration": 0.09375,
		  "durationTicks": 96,
		  "midi": 68,
		  "name": "G#4",
		  "ticks": 347271,
		  "time": 339.1318359375,
		  "velocity": 0.3937007874015748
		},
		{
		  "duration": 0.09375,
		  "durationTicks": 96,
		  "midi": 40,
		  "name": "E2",
		  "ticks": 347347,
		  "time": 339.2060546875,
		  "velocity": 0.3937007874015748
		},
		{
		  "duration": 0.09375,
		  "durationTicks": 96,
		  "midi": 73,
		  "name": "C#5",
		  "ticks": 347367,
		  "time": 339.2255859375,
		  "velocity": 0.3937007874015748
		},
		{
		  "duration": 0.09375,
		  "durationTicks": 96,
		  "midi": 76,
		  "name": "E5",
		  "ticks": 347463,
		  "time": 339.3193359375,
		  "velocity": 0.3937007874015748
		},
		{
		  "duration": 0.09375,
		  "durationTicks": 96,
		  "midi": 32,
		  "name": "G#1",
		  "ticks": 347539,
		  "time": 339.3935546875,
		  "velocity": 0.3937007874015748
		},
		{
		  "duration": 0.09375,
		  "durationTicks": 96,
		  "midi": 80,
		  "name": "G#5",
		  "ticks": 347559,
		  "time": 339.4130859375,
		  "velocity": 0.3937007874015748
		},
		{
		  "duration": 0.0947265625,
		  "durationTicks": 97,
		  "midi": 73,
		  "name": "C#5",
		  "ticks": 347651,
		  "time": 339.5029296875,
		  "velocity": 0.3937007874015748
		},
		{
		  "duration": 0.09375,
		  "durationTicks": 96,
		  "midi": 40,
		  "name": "E2",
		  "ticks": 347736,
		  "time": 339.5859375,
		  "velocity": 0.3937007874015748
		},
		{
		  "duration": 0.09375,
		  "durationTicks": 96,
		  "midi": 76,
		  "name": "E5",
		  "ticks": 347748,
		  "time": 339.59765625,
		  "velocity": 0.3937007874015748
		},
		{
		  "duration": 0.09375,
		  "durationTicks": 96,
		  "midi": 80,
		  "name": "G#5",
		  "ticks": 347844,
		  "time": 339.69140625,
		  "velocity": 0.3937007874015748
		},
		{
		  "duration": 0.1884765625,
		  "durationTicks": 193,
		  "midi": 73,
		  "name": "C#5",
		  "ticks": 347928,
		  "time": 339.7734375,
		  "velocity": 0.3937007874015748
		},
		{
		  "duration": 0.1884765625,
		  "durationTicks": 193,
		  "midi": 85,
		  "name": "C#6",
		  "ticks": 347928,
		  "time": 339.7734375,
		  "velocity": 0.3937007874015748
		},
		{
		  "duration": 0.1884765625,
		  "durationTicks": 193,
		  "midi": 80,
		  "name": "G#5",
		  "ticks": 347928,
		  "time": 339.7734375,
		  "velocity": 0.3937007874015748
		},
		{
		  "duration": 0.1884765625,
		  "durationTicks": 193,
		  "midi": 76,
		  "name": "E5",
		  "ticks": 347928,
		  "time": 339.7734375,
		  "velocity": 0.3937007874015748
		},
		{
		  "duration": 0.1884765625,
		  "durationTicks": 193,
		  "midi": 44,
		  "name": "G#2",
		  "ticks": 347932,
		  "time": 339.77734375,
		  "velocity": 0.3937007874015748
		},
		{
		  "duration": 0.1884765625,
		  "durationTicks": 193,
		  "midi": 32,
		  "name": "G#1",
		  "ticks": 347932,
		  "time": 339.77734375,
		  "velocity": 0.3937007874015748
		},
		{
		  "duration": 0.1884765625,
		  "durationTicks": 193,
		  "midi": 85,
		  "name": "C#6",
		  "ticks": 348112,
		  "time": 339.953125,
		  "velocity": 0.3937007874015748
		},
		{
		  "duration": 0.1884765625,
		  "durationTicks": 193,
		  "midi": 73,
		  "name": "C#5",
		  "ticks": 348112,
		  "time": 339.953125,
		  "velocity": 0.3937007874015748
		},
		{
		  "duration": 0.1884765625,
		  "durationTicks": 193,
		  "midi": 76,
		  "name": "E5",
		  "ticks": 348112,
		  "time": 339.953125,
		  "velocity": 0.3937007874015748
		},
		{
		  "duration": 0.1884765625,
		  "durationTicks": 193,
		  "midi": 80,
		  "name": "G#5",
		  "ticks": 348112,
		  "time": 339.953125,
		  "velocity": 0.3937007874015748
		},
		{
		  "duration": 0.1884765625,
		  "durationTicks": 193,
		  "midi": 40,
		  "name": "E2",
		  "ticks": 348121,
		  "time": 339.9619140625,
		  "velocity": 0.3937007874015748
		},
		{
		  "duration": 1.314453125,
		  "durationTicks": 1346,
		  "midi": 31,
		  "name": "G1",
		  "ticks": 348293,
		  "time": 340.1298828125,
		  "velocity": 0.3937007874015748
		},
		{
		  "duration": 0.7509765625,
		  "durationTicks": 769,
		  "midi": 49,
		  "name": "C#3",
		  "ticks": 348486,
		  "time": 340.318359375,
		  "velocity": 0.3937007874015748
		},
		{
		  "duration": 0.6572265625,
		  "durationTicks": 673,
		  "midi": 52,
		  "name": "E3",
		  "ticks": 348534,
		  "time": 340.365234375,
		  "velocity": 0.3937007874015748
		},
		{
		  "duration": 0.6572265625,
		  "durationTicks": 673,
		  "midi": 55,
		  "name": "G3",
		  "ticks": 348582,
		  "time": 340.412109375,
		  "velocity": 0.3937007874015748
		},
		{
		  "duration": 0.6572265625,
		  "durationTicks": 673,
		  "midi": 58,
		  "name": "A#3",
		  "ticks": 348630,
		  "time": 340.458984375,
		  "velocity": 0.3937007874015748
		},
		{
		  "duration": 0.5634765625,
		  "durationTicks": 577,
		  "midi": 61,
		  "name": "C#4",
		  "ticks": 348678,
		  "time": 340.505859375,
		  "velocity": 0.3937007874015748
		},
		{
		  "duration": 0.6572265625,
		  "durationTicks": 673,
		  "midi": 34,
		  "name": "A#1",
		  "ticks": 348918,
		  "time": 340.740234375,
		  "velocity": 0.3937007874015748
		},
		{
		  "duration": 0.6572265625,
		  "durationTicks": 673,
		  "midi": 37,
		  "name": "C#2",
		  "ticks": 348974,
		  "time": 340.794921875,
		  "velocity": 0.3937007874015748
		},
		{
		  "duration": 0.5634765625,
		  "durationTicks": 577,
		  "midi": 40,
		  "name": "E2",
		  "ticks": 349022,
		  "time": 340.841796875,
		  "velocity": 0.3937007874015748
		},
		{
		  "duration": 0.5634765625,
		  "durationTicks": 577,
		  "midi": 43,
		  "name": "G2",
		  "ticks": 349078,
		  "time": 340.896484375,
		  "velocity": 0.3937007874015748
		},
		{
		  "duration": 0.7509765625,
		  "durationTicks": 769,
		  "midi": 61,
		  "name": "C#4",
		  "ticks": 349263,
		  "time": 341.0771484375,
		  "velocity": 0.3937007874015748
		},
		{
		  "duration": 0.6572265625,
		  "durationTicks": 673,
		  "midi": 64,
		  "name": "E4",
		  "ticks": 349311,
		  "time": 341.1240234375,
		  "velocity": 0.3937007874015748
		},
		{
		  "duration": 0.6572265625,
		  "durationTicks": 673,
		  "midi": 67,
		  "name": "G4",
		  "ticks": 349359,
		  "time": 341.1708984375,
		  "velocity": 0.3937007874015748
		},
		{
		  "duration": 0.5634765625,
		  "durationTicks": 577,
		  "midi": 70,
		  "name": "A#4",
		  "ticks": 349407,
		  "time": 341.2177734375,
		  "velocity": 0.3937007874015748
		},
		{
		  "duration": 0.5634765625,
		  "durationTicks": 577,
		  "midi": 73,
		  "name": "C#5",
		  "ticks": 349455,
		  "time": 341.2646484375,
		  "velocity": 0.3937007874015748
		},
		{
		  "duration": 0.5634765625,
		  "durationTicks": 577,
		  "midi": 43,
		  "name": "G2",
		  "ticks": 349647,
		  "time": 341.4521484375,
		  "velocity": 0.3937007874015748
		},
		{
		  "duration": 0.46875,
		  "durationTicks": 480,
		  "midi": 46,
		  "name": "A#2",
		  "ticks": 349688,
		  "time": 341.4921875,
		  "velocity": 0.3937007874015748
		},
		{
		  "duration": 0.46875,
		  "durationTicks": 480,
		  "midi": 49,
		  "name": "C#3",
		  "ticks": 349736,
		  "time": 341.5390625,
		  "velocity": 0.3937007874015748
		},
		{
		  "duration": 0.375,
		  "durationTicks": 384,
		  "midi": 52,
		  "name": "E3",
		  "ticks": 349792,
		  "time": 341.59375,
		  "velocity": 0.3937007874015748
		},
		{
		  "duration": 0.375,
		  "durationTicks": 384,
		  "midi": 55,
		  "name": "G3",
		  "ticks": 349832,
		  "time": 341.6328125,
		  "velocity": 0.3937007874015748
		},
		{
		  "duration": 2.625,
		  "durationTicks": 2688,
		  "midi": 73,
		  "name": "C#5",
		  "ticks": 350032,
		  "time": 341.828125,
		  "velocity": 0.3937007874015748
		},
		{
		  "duration": 2.6259765625,
		  "durationTicks": 2689,
		  "midi": 76,
		  "name": "E5",
		  "ticks": 350072,
		  "time": 341.8671875,
		  "velocity": 0.3937007874015748
		},
		{
		  "duration": 2.6259765625,
		  "durationTicks": 2689,
		  "midi": 79,
		  "name": "G5",
		  "ticks": 350120,
		  "time": 341.9140625,
		  "velocity": 0.3937007874015748
		},
		{
		  "duration": 2.5322265625,
		  "durationTicks": 2593,
		  "midi": 82,
		  "name": "A#5",
		  "ticks": 350168,
		  "time": 341.9609375,
		  "velocity": 0.3937007874015748
		},
		{
		  "duration": 2.25,
		  "durationTicks": 2304,
		  "midi": 61,
		  "name": "C#4",
		  "ticks": 350228,
		  "time": 342.01953125,
		  "velocity": 0.3937007874015748
		},
		{
		  "duration": 2.25,
		  "durationTicks": 2304,
		  "midi": 55,
		  "name": "G3",
		  "ticks": 350228,
		  "time": 342.01953125,
		  "velocity": 0.3937007874015748
		},
		{
		  "duration": 2.25,
		  "durationTicks": 2304,
		  "midi": 58,
		  "name": "A#3",
		  "ticks": 350228,
		  "time": 342.01953125,
		  "velocity": 0.3937007874015748
		},
		{
		  "duration": 2.4375,
		  "durationTicks": 2496,
		  "midi": 85,
		  "name": "C#6",
		  "ticks": 350232,
		  "time": 342.0234375,
		  "velocity": 0.3937007874015748
		},
		{
		  "duration": 2.25,
		  "durationTicks": 2304,
		  "midi": 64,
		  "name": "E4",
		  "ticks": 350232,
		  "time": 342.0234375,
		  "velocity": 0.3937007874015748
		},
		{
		  "duration": 1.314453125,
		  "durationTicks": 1346,
		  "midi": 30,
		  "name": "F#1",
		  "ticks": 352584,
		  "time": 344.3203125,
		  "velocity": 0.3937007874015748
		},
		{
		  "duration": 0.7509765625,
		  "durationTicks": 769,
		  "midi": 45,
		  "name": "A2",
		  "ticks": 352769,
		  "time": 344.5009765625,
		  "velocity": 0.3937007874015748
		},
		{
		  "duration": 0.6572265625,
		  "durationTicks": 673,
		  "midi": 48,
		  "name": "C3",
		  "ticks": 352817,
		  "time": 344.5478515625,
		  "velocity": 0.3937007874015748
		},
		{
		  "duration": 0.6572265625,
		  "durationTicks": 673,
		  "midi": 51,
		  "name": "D#3",
		  "ticks": 352865,
		  "time": 344.5947265625,
		  "velocity": 0.3937007874015748
		},
		{
		  "duration": 0.6572265625,
		  "durationTicks": 673,
		  "midi": 54,
		  "name": "F#3",
		  "ticks": 352913,
		  "time": 344.6416015625,
		  "velocity": 0.3937007874015748
		},
		{
		  "duration": 0.5634765625,
		  "durationTicks": 577,
		  "midi": 57,
		  "name": "A3",
		  "ticks": 352961,
		  "time": 344.6884765625,
		  "velocity": 0.3937007874015748
		},
		{
		  "duration": 0.6572265625,
		  "durationTicks": 673,
		  "midi": 33,
		  "name": "A1",
		  "ticks": 353201,
		  "time": 344.9228515625,
		  "velocity": 0.3937007874015748
		},
		{
		  "duration": 0.6572265625,
		  "durationTicks": 673,
		  "midi": 36,
		  "name": "C2",
		  "ticks": 353249,
		  "time": 344.9697265625,
		  "velocity": 0.3937007874015748
		},
		{
		  "duration": 0.5634765625,
		  "durationTicks": 577,
		  "midi": 39,
		  "name": "D#2",
		  "ticks": 353305,
		  "time": 345.0244140625,
		  "velocity": 0.3937007874015748
		},
		{
		  "duration": 0.5634765625,
		  "durationTicks": 577,
		  "midi": 42,
		  "name": "F#2",
		  "ticks": 353362,
		  "time": 345.080078125,
		  "velocity": 0.3937007874015748
		},
		{
		  "duration": 0.65625,
		  "durationTicks": 672,
		  "midi": 57,
		  "name": "A3",
		  "ticks": 353546,
		  "time": 345.259765625,
		  "velocity": 0.3937007874015748
		},
		{
		  "duration": 0.5625,
		  "durationTicks": 576,
		  "midi": 60,
		  "name": "C4",
		  "ticks": 353594,
		  "time": 345.306640625,
		  "velocity": 0.3937007874015748
		},
		{
		  "duration": 0.5625,
		  "durationTicks": 576,
		  "midi": 63,
		  "name": "D#4",
		  "ticks": 353642,
		  "time": 345.353515625,
		  "velocity": 0.3937007874015748
		},
		{
		  "duration": 0.46875,
		  "durationTicks": 480,
		  "midi": 66,
		  "name": "F#4",
		  "ticks": 353690,
		  "time": 345.400390625,
		  "velocity": 0.3937007874015748
		},
		{
		  "duration": 0.46875,
		  "durationTicks": 480,
		  "midi": 69,
		  "name": "A4",
		  "ticks": 353738,
		  "time": 345.447265625,
		  "velocity": 0.3937007874015748
		},
		{
		  "duration": 0.7490234375,
		  "durationTicks": 767,
		  "midi": 42,
		  "name": "F#2",
		  "ticks": 353939,
		  "time": 345.6435546875,
		  "velocity": 0.3937007874015748
		},
		{
		  "duration": 0.65625,
		  "durationTicks": 672,
		  "midi": 45,
		  "name": "A2",
		  "ticks": 353978,
		  "time": 345.681640625,
		  "velocity": 0.3937007874015748
		},
		{
		  "duration": 0.65625,
		  "durationTicks": 672,
		  "midi": 48,
		  "name": "C3",
		  "ticks": 354022,
		  "time": 345.724609375,
		  "velocity": 0.3937007874015748
		},
		{
		  "duration": 0.5625,
		  "durationTicks": 576,
		  "midi": 51,
		  "name": "D#3",
		  "ticks": 354070,
		  "time": 345.771484375,
		  "velocity": 0.3937007874015748
		},
		{
		  "duration": 0.5625,
		  "durationTicks": 576,
		  "midi": 54,
		  "name": "F#3",
		  "ticks": 354114,
		  "time": 345.814453125,
		  "velocity": 0.3937007874015748
		},
		{
		  "duration": 3.6552734375,
		  "durationTicks": 3743,
		  "midi": 69,
		  "name": "A4",
		  "ticks": 354218,
		  "time": 345.916015625,
		  "velocity": 0.3937007874015748
		},
		{
		  "duration": 3.4677734375,
		  "durationTicks": 3551,
		  "midi": 72,
		  "name": "C5",
		  "ticks": 354402,
		  "time": 346.095703125,
		  "velocity": 0.3937007874015748
		},
		{
		  "duration": 3.3740234375,
		  "durationTicks": 3455,
		  "midi": 75,
		  "name": "D#5",
		  "ticks": 354530,
		  "time": 346.220703125,
		  "velocity": 0.3937007874015748
		},
		{
		  "duration": 3.1865234375,
		  "durationTicks": 3263,
		  "midi": 81,
		  "name": "A5",
		  "ticks": 354674,
		  "time": 346.361328125,
		  "velocity": 0.3937007874015748
		},
		{
		  "duration": 3.0927734375,
		  "durationTicks": 3167,
		  "midi": 54,
		  "name": "F#3",
		  "ticks": 354674,
		  "time": 346.361328125,
		  "velocity": 0.3937007874015748
		},
		{
		  "duration": 3.0927734375,
		  "durationTicks": 3167,
		  "midi": 57,
		  "name": "A3",
		  "ticks": 354674,
		  "time": 346.361328125,
		  "velocity": 0.3937007874015748
		},
		{
		  "duration": 3.0927734375,
		  "durationTicks": 3167,
		  "midi": 63,
		  "name": "D#4",
		  "ticks": 354674,
		  "time": 346.361328125,
		  "velocity": 0.3937007874015748
		},
		{
		  "duration": 3.0927734375,
		  "durationTicks": 3167,
		  "midi": 60,
		  "name": "C4",
		  "ticks": 354674,
		  "time": 346.361328125,
		  "velocity": 0.3937007874015748
		},
		{
		  "duration": 0.3740234375,
		  "durationTicks": 383,
		  "midi": 49,
		  "name": "C#3",
		  "ticks": 357898,
		  "time": 349.509765625,
		  "velocity": 0.3937007874015748
		},
		{
		  "duration": 0.09375,
		  "durationTicks": 96,
		  "midi": 68,
		  "name": "G#4",
		  "ticks": 357977,
		  "time": 349.5869140625,
		  "velocity": 0.3937007874015748
		},
		{
		  "duration": 0.09375,
		  "durationTicks": 96,
		  "midi": 64,
		  "name": "E4",
		  "ticks": 358089,
		  "time": 349.6962890625,
		  "velocity": 0.3937007874015748
		},
		{
		  "duration": 0.09375,
		  "durationTicks": 96,
		  "midi": 68,
		  "name": "G#4",
		  "ticks": 358185,
		  "time": 349.7900390625,
		  "velocity": 0.3937007874015748
		},
		{
		  "duration": 0.75,
		  "durationTicks": 768,
		  "midi": 56,
		  "name": "G#3",
		  "ticks": 358265,
		  "time": 349.8681640625,
		  "velocity": 0.3937007874015748
		},
		{
		  "duration": 0.09375,
		  "durationTicks": 96,
		  "midi": 61,
		  "name": "C#4",
		  "ticks": 358281,
		  "time": 349.8837890625,
		  "velocity": 0.3937007874015748
		},
		{
		  "duration": 0.09375,
		  "durationTicks": 96,
		  "midi": 68,
		  "name": "G#4",
		  "ticks": 358377,
		  "time": 349.9775390625,
		  "velocity": 0.3937007874015748
		},
		{
		  "duration": 0.09375,
		  "durationTicks": 96,
		  "midi": 64,
		  "name": "E4",
		  "ticks": 358473,
		  "time": 350.0712890625,
		  "velocity": 0.3937007874015748
		},
		{
		  "duration": 0.09375,
		  "durationTicks": 96,
		  "midi": 68,
		  "name": "G#4",
		  "ticks": 358569,
		  "time": 350.1650390625,
		  "velocity": 0.3937007874015748
		},
		{
		  "duration": 0.09375,
		  "durationTicks": 96,
		  "midi": 61,
		  "name": "C#4",
		  "ticks": 358665,
		  "time": 350.2587890625,
		  "velocity": 0.3937007874015748
		},
		{
		  "duration": 0.09375,
		  "durationTicks": 96,
		  "midi": 68,
		  "name": "G#4",
		  "ticks": 358761,
		  "time": 350.3525390625,
		  "velocity": 0.3937007874015748
		},
		{
		  "duration": 0.09375,
		  "durationTicks": 96,
		  "midi": 64,
		  "name": "E4",
		  "ticks": 358857,
		  "time": 350.4462890625,
		  "velocity": 0.3937007874015748
		},
		{
		  "duration": 0.09375,
		  "durationTicks": 96,
		  "midi": 68,
		  "name": "G#4",
		  "ticks": 358953,
		  "time": 350.5400390625,
		  "velocity": 0.3937007874015748
		},
		{
		  "duration": 0.28125,
		  "durationTicks": 288,
		  "midi": 52,
		  "name": "E3",
		  "ticks": 359033,
		  "time": 350.6181640625,
		  "velocity": 0.3937007874015748
		},
		{
		  "duration": 0.09375,
		  "durationTicks": 96,
		  "midi": 61,
		  "name": "C#4",
		  "ticks": 359049,
		  "time": 350.6337890625,
		  "velocity": 0.3937007874015748
		},
		{
		  "duration": 0.09375,
		  "durationTicks": 96,
		  "midi": 68,
		  "name": "G#4",
		  "ticks": 359145,
		  "time": 350.7275390625,
		  "velocity": 0.3937007874015748
		},
		{
		  "duration": 0.09375,
		  "durationTicks": 96,
		  "midi": 64,
		  "name": "E4",
		  "ticks": 359241,
		  "time": 350.8212890625,
		  "velocity": 0.3937007874015748
		},
		{
		  "duration": 0.09375,
		  "durationTicks": 96,
		  "midi": 49,
		  "name": "C#3",
		  "ticks": 359321,
		  "time": 350.8994140625,
		  "velocity": 0.3937007874015748
		},
		{
		  "duration": 0.09375,
		  "durationTicks": 96,
		  "midi": 68,
		  "name": "G#4",
		  "ticks": 359337,
		  "time": 350.9150390625,
		  "velocity": 0.3937007874015748
		},
		{
		  "duration": 0.09375,
		  "durationTicks": 96,
		  "midi": 63,
		  "name": "D#4",
		  "ticks": 359433,
		  "time": 351.0087890625,
		  "velocity": 0.3937007874015748
		},
		{
		  "duration": 0.375,
		  "durationTicks": 384,
		  "midi": 49,
		  "name": "C#3",
		  "ticks": 359433,
		  "time": 351.0087890625,
		  "velocity": 0.3937007874015748
		},
		{
		  "duration": 0.09375,
		  "durationTicks": 96,
		  "midi": 68,
		  "name": "G#4",
		  "ticks": 359529,
		  "time": 351.1025390625,
		  "velocity": 0.3937007874015748
		},
		{
		  "duration": 0.09375,
		  "durationTicks": 96,
		  "midi": 66,
		  "name": "F#4",
		  "ticks": 359625,
		  "time": 351.1962890625,
		  "velocity": 0.3937007874015748
		},
		{
		  "duration": 0.09375,
		  "durationTicks": 96,
		  "midi": 68,
		  "name": "G#4",
		  "ticks": 359721,
		  "time": 351.2900390625,
		  "velocity": 0.3937007874015748
		},
		{
		  "duration": 0.5625,
		  "durationTicks": 576,
		  "midi": 48,
		  "name": "C3",
		  "ticks": 359801,
		  "time": 351.3681640625,
		  "velocity": 0.3937007874015748
		},
		{
		  "duration": 0.09375,
		  "durationTicks": 96,
		  "midi": 63,
		  "name": "D#4",
		  "ticks": 359817,
		  "time": 351.3837890625,
		  "velocity": 0.3937007874015748
		},
		{
		  "duration": 0.09375,
		  "durationTicks": 96,
		  "midi": 68,
		  "name": "G#4",
		  "ticks": 359913,
		  "time": 351.4775390625,
		  "velocity": 0.3937007874015748
		},
		{
		  "duration": 0.09375,
		  "durationTicks": 96,
		  "midi": 66,
		  "name": "F#4",
		  "ticks": 360009,
		  "time": 351.5712890625,
		  "velocity": 0.3937007874015748
		},
		{
		  "duration": 0.09375,
		  "durationTicks": 96,
		  "midi": 68,
		  "name": "G#4",
		  "ticks": 360105,
		  "time": 351.6650390625,
		  "velocity": 0.3937007874015748
		},
		{
		  "duration": 0.09375,
		  "durationTicks": 96,
		  "midi": 63,
		  "name": "D#4",
		  "ticks": 360201,
		  "time": 351.7587890625,
		  "velocity": 0.3937007874015748
		},
		{
		  "duration": 0.09375,
		  "durationTicks": 96,
		  "midi": 68,
		  "name": "G#4",
		  "ticks": 360297,
		  "time": 351.8525390625,
		  "velocity": 0.3937007874015748
		},
		{
		  "duration": 0.09375,
		  "durationTicks": 96,
		  "midi": 66,
		  "name": "F#4",
		  "ticks": 360393,
		  "time": 351.9462890625,
		  "velocity": 0.3937007874015748
		},
		{
		  "duration": 0.1875,
		  "durationTicks": 192,
		  "midi": 48,
		  "name": "C3",
		  "ticks": 360393,
		  "time": 351.9462890625,
		  "velocity": 0.3937007874015748
		},
		{
		  "duration": 0.09375,
		  "durationTicks": 96,
		  "midi": 68,
		  "name": "G#4",
		  "ticks": 360489,
		  "time": 352.0400390625,
		  "velocity": 0.3937007874015748
		},
		{
		  "duration": 0.28125,
		  "durationTicks": 288,
		  "midi": 56,
		  "name": "G#3",
		  "ticks": 360569,
		  "time": 352.1181640625,
		  "velocity": 0.3937007874015748
		},
		{
		  "duration": 0.09375,
		  "durationTicks": 96,
		  "midi": 63,
		  "name": "D#4",
		  "ticks": 360585,
		  "time": 352.1337890625,
		  "velocity": 0.3937007874015748
		},
		{
		  "duration": 0.09375,
		  "durationTicks": 96,
		  "midi": 68,
		  "name": "G#4",
		  "ticks": 360681,
		  "time": 352.2275390625,
		  "velocity": 0.3937007874015748
		},
		{
		  "duration": 0.09375,
		  "durationTicks": 96,
		  "midi": 66,
		  "name": "F#4",
		  "ticks": 360777,
		  "time": 352.3212890625,
		  "velocity": 0.3937007874015748
		},
		{
		  "duration": 0.09375,
		  "durationTicks": 96,
		  "midi": 48,
		  "name": "C3",
		  "ticks": 360857,
		  "time": 352.3994140625,
		  "velocity": 0.3937007874015748
		},
		{
		  "duration": 0.09375,
		  "durationTicks": 96,
		  "midi": 68,
		  "name": "G#4",
		  "ticks": 360873,
		  "time": 352.4150390625,
		  "velocity": 0.3937007874015748
		},
		{
		  "duration": 0.09375,
		  "durationTicks": 96,
		  "midi": 61,
		  "name": "C#4",
		  "ticks": 360969,
		  "time": 352.5087890625,
		  "velocity": 0.3937007874015748
		},
		{
		  "duration": 0.375,
		  "durationTicks": 384,
		  "midi": 51,
		  "name": "D#3",
		  "ticks": 360969,
		  "time": 352.5087890625,
		  "velocity": 0.3937007874015748
		},
		{
		  "duration": 0.09375,
		  "durationTicks": 96,
		  "midi": 68,
		  "name": "G#4",
		  "ticks": 361065,
		  "time": 352.6025390625,
		  "velocity": 0.3937007874015748
		},
		{
		  "duration": 0.09375,
		  "durationTicks": 96,
		  "midi": 64,
		  "name": "E4",
		  "ticks": 361161,
		  "time": 352.6962890625,
		  "velocity": 0.3937007874015748
		},
		{
		  "duration": 0.09375,
		  "durationTicks": 96,
		  "midi": 68,
		  "name": "G#4",
		  "ticks": 361257,
		  "time": 352.7900390625,
		  "velocity": 0.3937007874015748
		},
		{
		  "duration": 0.5625,
		  "durationTicks": 576,
		  "midi": 49,
		  "name": "C#3",
		  "ticks": 361337,
		  "time": 352.8681640625,
		  "velocity": 0.3937007874015748
		},
		{
		  "duration": 0.09375,
		  "durationTicks": 96,
		  "midi": 61,
		  "name": "C#4",
		  "ticks": 361353,
		  "time": 352.8837890625,
		  "velocity": 0.3937007874015748
		},
		{
		  "duration": 0.09375,
		  "durationTicks": 96,
		  "midi": 68,
		  "name": "G#4",
		  "ticks": 361449,
		  "time": 352.9775390625,
		  "velocity": 0.3937007874015748
		},
		{
		  "duration": 0.09375,
		  "durationTicks": 96,
		  "midi": 64,
		  "name": "E4",
		  "ticks": 361545,
		  "time": 353.0712890625,
		  "velocity": 0.3937007874015748
		},
		{
		  "duration": 0.09375,
		  "durationTicks": 96,
		  "midi": 68,
		  "name": "G#4",
		  "ticks": 361641,
		  "time": 353.1650390625,
		  "velocity": 0.3937007874015748
		},
		{
		  "duration": 0.09375,
		  "durationTicks": 96,
		  "midi": 61,
		  "name": "C#4",
		  "ticks": 361737,
		  "time": 353.2587890625,
		  "velocity": 0.3937007874015748
		},
		{
		  "duration": 0.09375,
		  "durationTicks": 96,
		  "midi": 68,
		  "name": "G#4",
		  "ticks": 361833,
		  "time": 353.3525390625,
		  "velocity": 0.3937007874015748
		},
		{
		  "duration": 0.09375,
		  "durationTicks": 96,
		  "midi": 64,
		  "name": "E4",
		  "ticks": 361929,
		  "time": 353.4462890625,
		  "velocity": 0.3937007874015748
		},
		{
		  "duration": 0.1875,
		  "durationTicks": 192,
		  "midi": 49,
		  "name": "C#3",
		  "ticks": 361929,
		  "time": 353.4462890625,
		  "velocity": 0.3937007874015748
		},
		{
		  "duration": 0.09375,
		  "durationTicks": 96,
		  "midi": 68,
		  "name": "G#4",
		  "ticks": 362025,
		  "time": 353.5400390625,
		  "velocity": 0.3937007874015748
		},
		{
		  "duration": 0.28125,
		  "durationTicks": 288,
		  "midi": 56,
		  "name": "G#3",
		  "ticks": 362105,
		  "time": 353.6181640625,
		  "velocity": 0.3937007874015748
		},
		{
		  "duration": 0.09375,
		  "durationTicks": 96,
		  "midi": 61,
		  "name": "C#4",
		  "ticks": 362121,
		  "time": 353.6337890625,
		  "velocity": 0.3937007874015748
		},
		{
		  "duration": 0.09375,
		  "durationTicks": 96,
		  "midi": 68,
		  "name": "G#4",
		  "ticks": 362217,
		  "time": 353.7275390625,
		  "velocity": 0.3937007874015748
		},
		{
		  "duration": 0.09375,
		  "durationTicks": 96,
		  "midi": 64,
		  "name": "E4",
		  "ticks": 362313,
		  "time": 353.8212890625,
		  "velocity": 0.3937007874015748
		},
		{
		  "duration": 0.09375,
		  "durationTicks": 96,
		  "midi": 49,
		  "name": "C#3",
		  "ticks": 362393,
		  "time": 353.8994140625,
		  "velocity": 0.3937007874015748
		},
		{
		  "duration": 0.09375,
		  "durationTicks": 96,
		  "midi": 68,
		  "name": "G#4",
		  "ticks": 362409,
		  "time": 353.9150390625,
		  "velocity": 0.3937007874015748
		},
		{
		  "duration": 0.09375,
		  "durationTicks": 96,
		  "midi": 60,
		  "name": "C4",
		  "ticks": 362505,
		  "time": 354.0087890625,
		  "velocity": 0.3937007874015748
		},
		{
		  "duration": 0.375,
		  "durationTicks": 384,
		  "midi": 52,
		  "name": "E3",
		  "ticks": 362505,
		  "time": 354.0087890625,
		  "velocity": 0.3937007874015748
		},
		{
		  "duration": 0.09375,
		  "durationTicks": 96,
		  "midi": 68,
		  "name": "G#4",
		  "ticks": 362601,
		  "time": 354.1025390625,
		  "velocity": 0.3937007874015748
		},
		{
		  "duration": 0.09375,
		  "durationTicks": 96,
		  "midi": 66,
		  "name": "F#4",
		  "ticks": 362697,
		  "time": 354.1962890625,
		  "velocity": 0.3937007874015748
		},
		{
		  "duration": 0.09375,
		  "durationTicks": 96,
		  "midi": 68,
		  "name": "G#4",
		  "ticks": 362793,
		  "time": 354.2900390625,
		  "velocity": 0.3937007874015748
		},
		{
		  "duration": 0.5625,
		  "durationTicks": 576,
		  "midi": 51,
		  "name": "D#3",
		  "ticks": 362873,
		  "time": 354.3681640625,
		  "velocity": 0.3937007874015748
		},
		{
		  "duration": 0.09375,
		  "durationTicks": 96,
		  "midi": 60,
		  "name": "C4",
		  "ticks": 362889,
		  "time": 354.3837890625,
		  "velocity": 0.3937007874015748
		},
		{
		  "duration": 0.09375,
		  "durationTicks": 96,
		  "midi": 68,
		  "name": "G#4",
		  "ticks": 362985,
		  "time": 354.4775390625,
		  "velocity": 0.3937007874015748
		},
		{
		  "duration": 0.09375,
		  "durationTicks": 96,
		  "midi": 66,
		  "name": "F#4",
		  "ticks": 363081,
		  "time": 354.5712890625,
		  "velocity": 0.3937007874015748
		},
		{
		  "duration": 0.09375,
		  "durationTicks": 96,
		  "midi": 68,
		  "name": "G#4",
		  "ticks": 363177,
		  "time": 354.6650390625,
		  "velocity": 0.3937007874015748
		},
		{
		  "duration": 0.09375,
		  "durationTicks": 96,
		  "midi": 60,
		  "name": "C4",
		  "ticks": 363273,
		  "time": 354.7587890625,
		  "velocity": 0.3937007874015748
		},
		{
		  "duration": 0.09375,
		  "durationTicks": 96,
		  "midi": 68,
		  "name": "G#4",
		  "ticks": 363369,
		  "time": 354.8525390625,
		  "velocity": 0.3937007874015748
		},
		{
		  "duration": 0.09375,
		  "durationTicks": 96,
		  "midi": 66,
		  "name": "F#4",
		  "ticks": 363465,
		  "time": 354.9462890625,
		  "velocity": 0.3937007874015748
		},
		{
		  "duration": 0.1875,
		  "durationTicks": 192,
		  "midi": 51,
		  "name": "D#3",
		  "ticks": 363465,
		  "time": 354.9462890625,
		  "velocity": 0.3937007874015748
		},
		{
		  "duration": 0.09375,
		  "durationTicks": 96,
		  "midi": 68,
		  "name": "G#4",
		  "ticks": 363561,
		  "time": 355.0400390625,
		  "velocity": 0.3937007874015748
		},
		{
		  "duration": 0.28125,
		  "durationTicks": 288,
		  "midi": 56,
		  "name": "G#3",
		  "ticks": 363641,
		  "time": 355.1181640625,
		  "velocity": 0.3937007874015748
		},
		{
		  "duration": 0.09375,
		  "durationTicks": 96,
		  "midi": 60,
		  "name": "C4",
		  "ticks": 363657,
		  "time": 355.1337890625,
		  "velocity": 0.3937007874015748
		},
		{
		  "duration": 0.09375,
		  "durationTicks": 96,
		  "midi": 68,
		  "name": "G#4",
		  "ticks": 363753,
		  "time": 355.2275390625,
		  "velocity": 0.3937007874015748
		},
		{
		  "duration": 0.09375,
		  "durationTicks": 96,
		  "midi": 66,
		  "name": "F#4",
		  "ticks": 363849,
		  "time": 355.3212890625,
		  "velocity": 0.3937007874015748
		},
		{
		  "duration": 0.09375,
		  "durationTicks": 96,
		  "midi": 51,
		  "name": "D#3",
		  "ticks": 363929,
		  "time": 355.3994140625,
		  "velocity": 0.3937007874015748
		},
		{
		  "duration": 0.0947265625,
		  "durationTicks": 97,
		  "midi": 68,
		  "name": "G#4",
		  "ticks": 363945,
		  "time": 355.4150390625,
		  "velocity": 0.3937007874015748
		},
		{
		  "duration": 0.09375,
		  "durationTicks": 96,
		  "midi": 61,
		  "name": "C#4",
		  "ticks": 364033,
		  "time": 355.5009765625,
		  "velocity": 0.3937007874015748
		},
		{
		  "duration": 0.09375,
		  "durationTicks": 96,
		  "midi": 64,
		  "name": "E4",
		  "ticks": 364033,
		  "time": 355.5009765625,
		  "velocity": 0.3937007874015748
		},
		{
		  "duration": 0.09375,
		  "durationTicks": 96,
		  "midi": 68,
		  "name": "G#4",
		  "ticks": 364033,
		  "time": 355.5009765625,
		  "velocity": 0.3937007874015748
		},
		{
		  "duration": 0.09375,
		  "durationTicks": 96,
		  "midi": 52,
		  "name": "E3",
		  "ticks": 364042,
		  "time": 355.509765625,
		  "velocity": 0.3937007874015748
		},
		{
		  "duration": 0.09375,
		  "durationTicks": 96,
		  "midi": 56,
		  "name": "G#3",
		  "ticks": 364138,
		  "time": 355.603515625,
		  "velocity": 0.3937007874015748
		},
		{
		  "duration": 0.09375,
		  "durationTicks": 96,
		  "midi": 52,
		  "name": "E3",
		  "ticks": 364234,
		  "time": 355.697265625,
		  "velocity": 0.3937007874015748
		},
		{
		  "duration": 0.09375,
		  "durationTicks": 96,
		  "midi": 56,
		  "name": "G#3",
		  "ticks": 364330,
		  "time": 355.791015625,
		  "velocity": 0.3937007874015748
		},
		{
		  "duration": 0.75,
		  "durationTicks": 768,
		  "midi": 80,
		  "name": "G#5",
		  "ticks": 364410,
		  "time": 355.869140625,
		  "velocity": 0.3937007874015748
		},
		{
		  "duration": 0.75,
		  "durationTicks": 768,
		  "midi": 68,
		  "name": "G#4",
		  "ticks": 364410,
		  "time": 355.869140625,
		  "velocity": 0.3937007874015748
		},
		{
		  "duration": 0.09375,
		  "durationTicks": 96,
		  "midi": 52,
		  "name": "E3",
		  "ticks": 364426,
		  "time": 355.884765625,
		  "velocity": 0.3937007874015748
		},
		{
		  "duration": 0.09375,
		  "durationTicks": 96,
		  "midi": 56,
		  "name": "G#3",
		  "ticks": 364522,
		  "time": 355.978515625,
		  "velocity": 0.3937007874015748
		},
		{
		  "duration": 0.09375,
		  "durationTicks": 96,
		  "midi": 52,
		  "name": "E3",
		  "ticks": 364618,
		  "time": 356.072265625,
		  "velocity": 0.3937007874015748
		},
		{
		  "duration": 0.09375,
		  "durationTicks": 96,
		  "midi": 56,
		  "name": "G#3",
		  "ticks": 364714,
		  "time": 356.166015625,
		  "velocity": 0.3937007874015748
		},
		{
		  "duration": 0.09375,
		  "durationTicks": 96,
		  "midi": 52,
		  "name": "E3",
		  "ticks": 364810,
		  "time": 356.259765625,
		  "velocity": 0.3937007874015748
		},
		{
		  "duration": 0.09375,
		  "durationTicks": 96,
		  "midi": 56,
		  "name": "G#3",
		  "ticks": 364906,
		  "time": 356.353515625,
		  "velocity": 0.3937007874015748
		},
		{
		  "duration": 0.09375,
		  "durationTicks": 96,
		  "midi": 52,
		  "name": "E3",
		  "ticks": 365002,
		  "time": 356.447265625,
		  "velocity": 0.3937007874015748
		},
		{
		  "duration": 0.09375,
		  "durationTicks": 96,
		  "midi": 56,
		  "name": "G#3",
		  "ticks": 365098,
		  "time": 356.541015625,
		  "velocity": 0.3937007874015748
		},
		{
		  "duration": 0.28125,
		  "durationTicks": 288,
		  "midi": 64,
		  "name": "E4",
		  "ticks": 365194,
		  "time": 356.634765625,
		  "velocity": 0.3937007874015748
		},
		{
		  "duration": 0.28125,
		  "durationTicks": 288,
		  "midi": 76,
		  "name": "E5",
		  "ticks": 365194,
		  "time": 356.634765625,
		  "velocity": 0.3937007874015748
		},
		{
		  "duration": 0.09375,
		  "durationTicks": 96,
		  "midi": 52,
		  "name": "E3",
		  "ticks": 365194,
		  "time": 356.634765625,
		  "velocity": 0.3937007874015748
		},
		{
		  "duration": 0.09375,
		  "durationTicks": 96,
		  "midi": 56,
		  "name": "G#3",
		  "ticks": 365290,
		  "time": 356.728515625,
		  "velocity": 0.3937007874015748
		},
		{
		  "duration": 0.09375,
		  "durationTicks": 96,
		  "midi": 52,
		  "name": "E3",
		  "ticks": 365386,
		  "time": 356.822265625,
		  "velocity": 0.3937007874015748
		},
		{
		  "duration": 0.09375,
		  "durationTicks": 96,
		  "midi": 73,
		  "name": "C#5",
		  "ticks": 365482,
		  "time": 356.916015625,
		  "velocity": 0.3937007874015748
		},
		{
		  "duration": 0.09375,
		  "durationTicks": 96,
		  "midi": 61,
		  "name": "C#4",
		  "ticks": 365482,
		  "time": 356.916015625,
		  "velocity": 0.3937007874015748
		},
		{
		  "duration": 0.09375,
		  "durationTicks": 96,
		  "midi": 56,
		  "name": "G#3",
		  "ticks": 365482,
		  "time": 356.916015625,
		  "velocity": 0.3937007874015748
		},
		{
		  "duration": 0.375,
		  "durationTicks": 384,
		  "midi": 61,
		  "name": "C#4",
		  "ticks": 365578,
		  "time": 357.009765625,
		  "velocity": 0.3937007874015748
		},
		{
		  "duration": 0.375,
		  "durationTicks": 384,
		  "midi": 73,
		  "name": "C#5",
		  "ticks": 365578,
		  "time": 357.009765625,
		  "velocity": 0.3937007874015748
		},
		{
		  "duration": 0.09375,
		  "durationTicks": 96,
		  "midi": 54,
		  "name": "F#3",
		  "ticks": 365578,
		  "time": 357.009765625,
		  "velocity": 0.3937007874015748
		},
		{
		  "duration": 0.09375,
		  "durationTicks": 96,
		  "midi": 56,
		  "name": "G#3",
		  "ticks": 365674,
		  "time": 357.103515625,
		  "velocity": 0.3937007874015748
		},
		{
		  "duration": 0.09375,
		  "durationTicks": 96,
		  "midi": 54,
		  "name": "F#3",
		  "ticks": 365770,
		  "time": 357.197265625,
		  "velocity": 0.3937007874015748
		},
		{
		  "duration": 0.09375,
		  "durationTicks": 96,
		  "midi": 56,
		  "name": "G#3",
		  "ticks": 365866,
		  "time": 357.291015625,
		  "velocity": 0.3937007874015748
		},
		{
		  "duration": 0.5625,
		  "durationTicks": 576,
		  "midi": 72,
		  "name": "C5",
		  "ticks": 365946,
		  "time": 357.369140625,
		  "velocity": 0.3937007874015748
		},
		{
		  "duration": 0.5625,
		  "durationTicks": 576,
		  "midi": 60,
		  "name": "C4",
		  "ticks": 365946,
		  "time": 357.369140625,
		  "velocity": 0.3937007874015748
		},
		{
		  "duration": 0.09375,
		  "durationTicks": 96,
		  "midi": 54,
		  "name": "F#3",
		  "ticks": 365962,
		  "time": 357.384765625,
		  "velocity": 0.3937007874015748
		},
		{
		  "duration": 0.09375,
		  "durationTicks": 96,
		  "midi": 56,
		  "name": "G#3",
		  "ticks": 366058,
		  "time": 357.478515625,
		  "velocity": 0.3937007874015748
		},
		{
		  "duration": 0.09375,
		  "durationTicks": 96,
		  "midi": 54,
		  "name": "F#3",
		  "ticks": 366154,
		  "time": 357.572265625,
		  "velocity": 0.3937007874015748
		},
		{
		  "duration": 0.09375,
		  "durationTicks": 96,
		  "midi": 56,
		  "name": "G#3",
		  "ticks": 366250,
		  "time": 357.666015625,
		  "velocity": 0.3937007874015748
		},
		{
		  "duration": 0.09375,
		  "durationTicks": 96,
		  "midi": 54,
		  "name": "F#3",
		  "ticks": 366346,
		  "time": 357.759765625,
		  "velocity": 0.3937007874015748
		},
		{
		  "duration": 0.09375,
		  "durationTicks": 96,
		  "midi": 56,
		  "name": "G#3",
		  "ticks": 366442,
		  "time": 357.853515625,
		  "velocity": 0.3937007874015748
		},
		{
		  "duration": 0.1875,
		  "durationTicks": 192,
		  "midi": 60,
		  "name": "C4",
		  "ticks": 366538,
		  "time": 357.947265625,
		  "velocity": 0.3937007874015748
		},
		{
		  "duration": 0.1875,
		  "durationTicks": 192,
		  "midi": 72,
		  "name": "C5",
		  "ticks": 366538,
		  "time": 357.947265625,
		  "velocity": 0.3937007874015748
		},
		{
		  "duration": 0.09375,
		  "durationTicks": 96,
		  "midi": 54,
		  "name": "F#3",
		  "ticks": 366538,
		  "time": 357.947265625,
		  "velocity": 0.3937007874015748
		},
		{
		  "duration": 0.09375,
		  "durationTicks": 96,
		  "midi": 56,
		  "name": "G#3",
		  "ticks": 366634,
		  "time": 358.041015625,
		  "velocity": 0.3937007874015748
		},
		{
		  "duration": 0.28125,
		  "durationTicks": 288,
		  "midi": 68,
		  "name": "G#4",
		  "ticks": 366714,
		  "time": 358.119140625,
		  "velocity": 0.3937007874015748
		},
		{
		  "duration": 0.28125,
		  "durationTicks": 288,
		  "midi": 80,
		  "name": "G#5",
		  "ticks": 366714,
		  "time": 358.119140625,
		  "velocity": 0.3937007874015748
		},
		{
		  "duration": 0.09375,
		  "durationTicks": 96,
		  "midi": 54,
		  "name": "F#3",
		  "ticks": 366730,
		  "time": 358.134765625,
		  "velocity": 0.3937007874015748
		},
		{
		  "duration": 0.09375,
		  "durationTicks": 96,
		  "midi": 56,
		  "name": "G#3",
		  "ticks": 366826,
		  "time": 358.228515625,
		  "velocity": 0.3937007874015748
		},
		{
		  "duration": 0.09375,
		  "durationTicks": 96,
		  "midi": 54,
		  "name": "F#3",
		  "ticks": 366922,
		  "time": 358.322265625,
		  "velocity": 0.3937007874015748
		},
		{
		  "duration": 0.09375,
		  "durationTicks": 96,
		  "midi": 60,
		  "name": "C4",
		  "ticks": 367002,
		  "time": 358.400390625,
		  "velocity": 0.3937007874015748
		},
		{
		  "duration": 0.09375,
		  "durationTicks": 96,
		  "midi": 72,
		  "name": "C5",
		  "ticks": 367002,
		  "time": 358.400390625,
		  "velocity": 0.3937007874015748
		},
		{
		  "duration": 0.09375,
		  "durationTicks": 96,
		  "midi": 56,
		  "name": "G#3",
		  "ticks": 367018,
		  "time": 358.416015625,
		  "velocity": 0.3937007874015748
		},
		{
		  "duration": 0.375,
		  "durationTicks": 384,
		  "midi": 75,
		  "name": "D#5",
		  "ticks": 367114,
		  "time": 358.509765625,
		  "velocity": 0.3937007874015748
		},
		{
		  "duration": 0.375,
		  "durationTicks": 384,
		  "midi": 63,
		  "name": "D#4",
		  "ticks": 367114,
		  "time": 358.509765625,
		  "velocity": 0.3937007874015748
		},
		{
		  "duration": 0.09375,
		  "durationTicks": 96,
		  "midi": 52,
		  "name": "E3",
		  "ticks": 367114,
		  "time": 358.509765625,
		  "velocity": 0.3937007874015748
		},
		{
		  "duration": 0.09375,
		  "durationTicks": 96,
		  "midi": 56,
		  "name": "G#3",
		  "ticks": 367210,
		  "time": 358.603515625,
		  "velocity": 0.3937007874015748
		},
		{
		  "duration": 0.09375,
		  "durationTicks": 96,
		  "midi": 52,
		  "name": "E3",
		  "ticks": 367306,
		  "time": 358.697265625,
		  "velocity": 0.3937007874015748
		},
		{
		  "duration": 0.09375,
		  "durationTicks": 96,
		  "midi": 56,
		  "name": "G#3",
		  "ticks": 367402,
		  "time": 358.791015625,
		  "velocity": 0.3937007874015748
		},
		{
		  "duration": 0.5625,
		  "durationTicks": 576,
		  "midi": 61,
		  "name": "C#4",
		  "ticks": 367482,
		  "time": 358.869140625,
		  "velocity": 0.3937007874015748
		},
		{
		  "duration": 0.5625,
		  "durationTicks": 576,
		  "midi": 73,
		  "name": "C#5",
		  "ticks": 367482,
		  "time": 358.869140625,
		  "velocity": 0.3937007874015748
		},
		{
		  "duration": 0.09375,
		  "durationTicks": 96,
		  "midi": 52,
		  "name": "E3",
		  "ticks": 367498,
		  "time": 358.884765625,
		  "velocity": 0.3937007874015748
		},
		{
		  "duration": 0.09375,
		  "durationTicks": 96,
		  "midi": 56,
		  "name": "G#3",
		  "ticks": 367594,
		  "time": 358.978515625,
		  "velocity": 0.3937007874015748
		},
		{
		  "duration": 0.09375,
		  "durationTicks": 96,
		  "midi": 52,
		  "name": "E3",
		  "ticks": 367690,
		  "time": 359.072265625,
		  "velocity": 0.3937007874015748
		},
		{
		  "duration": 0.09375,
		  "durationTicks": 96,
		  "midi": 56,
		  "name": "G#3",
		  "ticks": 367786,
		  "time": 359.166015625,
		  "velocity": 0.3937007874015748
		},
		{
		  "duration": 0.09375,
		  "durationTicks": 96,
		  "midi": 52,
		  "name": "E3",
		  "ticks": 367882,
		  "time": 359.259765625,
		  "velocity": 0.3937007874015748
		},
		{
		  "duration": 0.09375,
		  "durationTicks": 96,
		  "midi": 56,
		  "name": "G#3",
		  "ticks": 367978,
		  "time": 359.353515625,
		  "velocity": 0.3937007874015748
		},
		{
		  "duration": 0.1875,
		  "durationTicks": 192,
		  "midi": 73,
		  "name": "C#5",
		  "ticks": 368074,
		  "time": 359.447265625,
		  "velocity": 0.3937007874015748
		},
		{
		  "duration": 0.1875,
		  "durationTicks": 192,
		  "midi": 61,
		  "name": "C#4",
		  "ticks": 368074,
		  "time": 359.447265625,
		  "velocity": 0.3937007874015748
		},
		{
		  "duration": 0.09375,
		  "durationTicks": 96,
		  "midi": 52,
		  "name": "E3",
		  "ticks": 368074,
		  "time": 359.447265625,
		  "velocity": 0.3937007874015748
		},
		{
		  "duration": 0.09375,
		  "durationTicks": 96,
		  "midi": 56,
		  "name": "G#3",
		  "ticks": 368170,
		  "time": 359.541015625,
		  "velocity": 0.3937007874015748
		},
		{
		  "duration": 0.28125,
		  "durationTicks": 288,
		  "midi": 80,
		  "name": "G#5",
		  "ticks": 368250,
		  "time": 359.619140625,
		  "velocity": 0.3937007874015748
		},
		{
		  "duration": 0.28125,
		  "durationTicks": 288,
		  "midi": 68,
		  "name": "G#4",
		  "ticks": 368250,
		  "time": 359.619140625,
		  "velocity": 0.3937007874015748
		},
		{
		  "duration": 0.09375,
		  "durationTicks": 96,
		  "midi": 52,
		  "name": "E3",
		  "ticks": 368266,
		  "time": 359.634765625,
		  "velocity": 0.3937007874015748
		},
		{
		  "duration": 0.09375,
		  "durationTicks": 96,
		  "midi": 56,
		  "name": "G#3",
		  "ticks": 368362,
		  "time": 359.728515625,
		  "velocity": 0.3937007874015748
		},
		{
		  "duration": 0.09375,
		  "durationTicks": 96,
		  "midi": 52,
		  "name": "E3",
		  "ticks": 368458,
		  "time": 359.822265625,
		  "velocity": 0.3937007874015748
		},
		{
		  "duration": 0.09375,
		  "durationTicks": 96,
		  "midi": 73,
		  "name": "C#5",
		  "ticks": 368538,
		  "time": 359.900390625,
		  "velocity": 0.3937007874015748
		},
		{
		  "duration": 0.09375,
		  "durationTicks": 96,
		  "midi": 61,
		  "name": "C#4",
		  "ticks": 368538,
		  "time": 359.900390625,
		  "velocity": 0.3937007874015748
		},
		{
		  "duration": 0.09375,
		  "durationTicks": 96,
		  "midi": 56,
		  "name": "G#3",
		  "ticks": 368554,
		  "time": 359.916015625,
		  "velocity": 0.3937007874015748
		},
		{
		  "duration": 0.375,
		  "durationTicks": 384,
		  "midi": 76,
		  "name": "E5",
		  "ticks": 368650,
		  "time": 360.009765625,
		  "velocity": 0.3937007874015748
		},
		{
		  "duration": 0.375,
		  "durationTicks": 384,
		  "midi": 64,
		  "name": "E4",
		  "ticks": 368650,
		  "time": 360.009765625,
		  "velocity": 0.3937007874015748
		},
		{
		  "duration": 0.09375,
		  "durationTicks": 96,
		  "midi": 48,
		  "name": "C3",
		  "ticks": 368650,
		  "time": 360.009765625,
		  "velocity": 0.3937007874015748
		},
		{
		  "duration": 0.09375,
		  "durationTicks": 96,
		  "midi": 56,
		  "name": "G#3",
		  "ticks": 368746,
		  "time": 360.103515625,
		  "velocity": 0.3937007874015748
		},
		{
		  "duration": 0.09375,
		  "durationTicks": 96,
		  "midi": 48,
		  "name": "C3",
		  "ticks": 368842,
		  "time": 360.197265625,
		  "velocity": 0.3937007874015748
		},
		{
		  "duration": 0.09375,
		  "durationTicks": 96,
		  "midi": 56,
		  "name": "G#3",
		  "ticks": 368938,
		  "time": 360.291015625,
		  "velocity": 0.3937007874015748
		},
		{
		  "duration": 0.5625,
		  "durationTicks": 576,
		  "midi": 75,
		  "name": "D#5",
		  "ticks": 369018,
		  "time": 360.369140625,
		  "velocity": 0.3937007874015748
		},
		{
		  "duration": 0.5625,
		  "durationTicks": 576,
		  "midi": 63,
		  "name": "D#4",
		  "ticks": 369018,
		  "time": 360.369140625,
		  "velocity": 0.3937007874015748
		},
		{
		  "duration": 0.09375,
		  "durationTicks": 96,
		  "midi": 48,
		  "name": "C3",
		  "ticks": 369034,
		  "time": 360.384765625,
		  "velocity": 0.3937007874015748
		},
		{
		  "duration": 0.09375,
		  "durationTicks": 96,
		  "midi": 56,
		  "name": "G#3",
		  "ticks": 369130,
		  "time": 360.478515625,
		  "velocity": 0.3937007874015748
		},
		{
		  "duration": 0.09375,
		  "durationTicks": 96,
		  "midi": 48,
		  "name": "C3",
		  "ticks": 369226,
		  "time": 360.572265625,
		  "velocity": 0.3937007874015748
		},
		{
		  "duration": 0.09375,
		  "durationTicks": 96,
		  "midi": 56,
		  "name": "G#3",
		  "ticks": 369322,
		  "time": 360.666015625,
		  "velocity": 0.3937007874015748
		},
		{
		  "duration": 0.09375,
		  "durationTicks": 96,
		  "midi": 48,
		  "name": "C3",
		  "ticks": 369418,
		  "time": 360.759765625,
		  "velocity": 0.3937007874015748
		},
		{
		  "duration": 0.09375,
		  "durationTicks": 96,
		  "midi": 56,
		  "name": "G#3",
		  "ticks": 369514,
		  "time": 360.853515625,
		  "velocity": 0.3937007874015748
		},
		{
		  "duration": 0.1875,
		  "durationTicks": 192,
		  "midi": 75,
		  "name": "D#5",
		  "ticks": 369610,
		  "time": 360.947265625,
		  "velocity": 0.3937007874015748
		},
		{
		  "duration": 0.1875,
		  "durationTicks": 192,
		  "midi": 63,
		  "name": "D#4",
		  "ticks": 369610,
		  "time": 360.947265625,
		  "velocity": 0.3937007874015748
		},
		{
		  "duration": 0.09375,
		  "durationTicks": 96,
		  "midi": 48,
		  "name": "C3",
		  "ticks": 369610,
		  "time": 360.947265625,
		  "velocity": 0.3937007874015748
		},
		{
		  "duration": 0.09375,
		  "durationTicks": 96,
		  "midi": 56,
		  "name": "G#3",
		  "ticks": 369706,
		  "time": 361.041015625,
		  "velocity": 0.3937007874015748
		},
		{
		  "duration": 0.28125,
		  "durationTicks": 288,
		  "midi": 80,
		  "name": "G#5",
		  "ticks": 369786,
		  "time": 361.119140625,
		  "velocity": 0.3937007874015748
		},
		{
		  "duration": 0.28125,
		  "durationTicks": 288,
		  "midi": 68,
		  "name": "G#4",
		  "ticks": 369786,
		  "time": 361.119140625,
		  "velocity": 0.3937007874015748
		},
		{
		  "duration": 0.09375,
		  "durationTicks": 96,
		  "midi": 48,
		  "name": "C3",
		  "ticks": 369802,
		  "time": 361.134765625,
		  "velocity": 0.3937007874015748
		},
		{
		  "duration": 0.09375,
		  "durationTicks": 96,
		  "midi": 56,
		  "name": "G#3",
		  "ticks": 369898,
		  "time": 361.228515625,
		  "velocity": 0.3937007874015748
		},
		{
		  "duration": 0.09375,
		  "durationTicks": 96,
		  "midi": 48,
		  "name": "C3",
		  "ticks": 369994,
		  "time": 361.322265625,
		  "velocity": 0.3937007874015748
		},
		{
		  "duration": 0.09375,
		  "durationTicks": 96,
		  "midi": 75,
		  "name": "D#5",
		  "ticks": 370074,
		  "time": 361.400390625,
		  "velocity": 0.3937007874015748
		},
		{
		  "duration": 0.09375,
		  "durationTicks": 96,
		  "midi": 63,
		  "name": "D#4",
		  "ticks": 370074,
		  "time": 361.400390625,
		  "velocity": 0.3937007874015748
		},
		{
		  "duration": 0.09375,
		  "durationTicks": 96,
		  "midi": 56,
		  "name": "G#3",
		  "ticks": 370090,
		  "time": 361.416015625,
		  "velocity": 0.3937007874015748
		},
		{
		  "duration": 0.1875,
		  "durationTicks": 192,
		  "midi": 78,
		  "name": "F#5",
		  "ticks": 370186,
		  "time": 361.509765625,
		  "velocity": 0.3937007874015748
		},
		{
		  "duration": 0.1875,
		  "durationTicks": 192,
		  "midi": 66,
		  "name": "F#4",
		  "ticks": 370186,
		  "time": 361.509765625,
		  "velocity": 0.3937007874015748
		},
		{
		  "duration": 0.09375,
		  "durationTicks": 96,
		  "midi": 49,
		  "name": "C#3",
		  "ticks": 370186,
		  "time": 361.509765625,
		  "velocity": 0.3937007874015748
		},
		{
		  "duration": 0.09375,
		  "durationTicks": 96,
		  "midi": 56,
		  "name": "G#3",
		  "ticks": 370282,
		  "time": 361.603515625,
		  "velocity": 0.3937007874015748
		},
		{
		  "duration": 0.1875,
		  "durationTicks": 192,
		  "midi": 76,
		  "name": "E5",
		  "ticks": 370362,
		  "time": 361.681640625,
		  "velocity": 0.3937007874015748
		},
		{
		  "duration": 0.1875,
		  "durationTicks": 192,
		  "midi": 64,
		  "name": "E4",
		  "ticks": 370362,
		  "time": 361.681640625,
		  "velocity": 0.3937007874015748
		},
		{
		  "duration": 0.09375,
		  "durationTicks": 96,
		  "midi": 49,
		  "name": "C#3",
		  "ticks": 370378,
		  "time": 361.697265625,
		  "velocity": 0.3937007874015748
		},
		{
		  "duration": 0.09375,
		  "durationTicks": 96,
		  "midi": 56,
		  "name": "G#3",
		  "ticks": 370474,
		  "time": 361.791015625,
		  "velocity": 0.3937007874015748
		},
		{
		  "duration": 0.1875,
		  "durationTicks": 192,
		  "midi": 85,
		  "name": "C#6",
		  "ticks": 370570,
		  "time": 361.884765625,
		  "velocity": 0.3937007874015748
		},
		{
		  "duration": 0.1875,
		  "durationTicks": 192,
		  "midi": 73,
		  "name": "C#5",
		  "ticks": 370570,
		  "time": 361.884765625,
		  "velocity": 0.3937007874015748
		},
		{
		  "duration": 0.09375,
		  "durationTicks": 96,
		  "midi": 49,
		  "name": "C#3",
		  "ticks": 370570,
		  "time": 361.884765625,
		  "velocity": 0.3937007874015748
		},
		{
		  "duration": 0.09375,
		  "durationTicks": 96,
		  "midi": 56,
		  "name": "G#3",
		  "ticks": 370666,
		  "time": 361.978515625,
		  "velocity": 0.3937007874015748
		},
		{
		  "duration": 0.1875,
		  "durationTicks": 192,
		  "midi": 64,
		  "name": "E4",
		  "ticks": 370746,
		  "time": 362.056640625,
		  "velocity": 0.3937007874015748
		},
		{
		  "duration": 0.1875,
		  "durationTicks": 192,
		  "midi": 76,
		  "name": "E5",
		  "ticks": 370746,
		  "time": 362.056640625,
		  "velocity": 0.3937007874015748
		},
		{
		  "duration": 0.09375,
		  "durationTicks": 96,
		  "midi": 49,
		  "name": "C#3",
		  "ticks": 370762,
		  "time": 362.072265625,
		  "velocity": 0.3937007874015748
		},
		{
		  "duration": 0.09375,
		  "durationTicks": 96,
		  "midi": 56,
		  "name": "G#3",
		  "ticks": 370858,
		  "time": 362.166015625,
		  "velocity": 0.3937007874015748
		},
		{
		  "duration": 0.1875,
		  "durationTicks": 192,
		  "midi": 66,
		  "name": "F#4",
		  "ticks": 370938,
		  "time": 362.244140625,
		  "velocity": 0.3937007874015748
		},
		{
		  "duration": 0.1875,
		  "durationTicks": 192,
		  "midi": 78,
		  "name": "F#5",
		  "ticks": 370938,
		  "time": 362.244140625,
		  "velocity": 0.3937007874015748
		},
		{
		  "duration": 0.09375,
		  "durationTicks": 96,
		  "midi": 47,
		  "name": "B2",
		  "ticks": 370954,
		  "time": 362.259765625,
		  "velocity": 0.3937007874015748
		},
		{
		  "duration": 0.09375,
		  "durationTicks": 96,
		  "midi": 49,
		  "name": "C#3",
		  "ticks": 371050,
		  "time": 362.353515625,
		  "velocity": 0.3937007874015748
		},
		{
		  "duration": 0.1875,
		  "durationTicks": 192,
		  "midi": 65,
		  "name": "F4",
		  "ticks": 371130,
		  "time": 362.431640625,
		  "velocity": 0.3937007874015748
		},
		{
		  "duration": 0.1875,
		  "durationTicks": 192,
		  "midi": 77,
		  "name": "F5",
		  "ticks": 371130,
		  "time": 362.431640625,
		  "velocity": 0.3937007874015748
		},
		{
		  "duration": 0.09375,
		  "durationTicks": 96,
		  "midi": 47,
		  "name": "B2",
		  "ticks": 371146,
		  "time": 362.447265625,
		  "velocity": 0.3937007874015748
		},
		{
		  "duration": 0.09375,
		  "durationTicks": 96,
		  "midi": 49,
		  "name": "C#3",
		  "ticks": 371242,
		  "time": 362.541015625,
		  "velocity": 0.3937007874015748
		},
		{
		  "duration": 0.1875,
		  "durationTicks": 192,
		  "midi": 85,
		  "name": "C#6",
		  "ticks": 371338,
		  "time": 362.634765625,
		  "velocity": 0.3937007874015748
		},
		{
		  "duration": 0.1875,
		  "durationTicks": 192,
		  "midi": 73,
		  "name": "C#5",
		  "ticks": 371338,
		  "time": 362.634765625,
		  "velocity": 0.3937007874015748
		},
		{
		  "duration": 0.09375,
		  "durationTicks": 96,
		  "midi": 47,
		  "name": "B2",
		  "ticks": 371338,
		  "time": 362.634765625,
		  "velocity": 0.3937007874015748
		},
		{
		  "duration": 0.09375,
		  "durationTicks": 96,
		  "midi": 49,
		  "name": "C#3",
		  "ticks": 371434,
		  "time": 362.728515625,
		  "velocity": 0.3937007874015748
		},
		{
		  "duration": 0.1875,
		  "durationTicks": 192,
		  "midi": 65,
		  "name": "F4",
		  "ticks": 371514,
		  "time": 362.806640625,
		  "velocity": 0.3937007874015748
		},
		{
		  "duration": 0.1875,
		  "durationTicks": 192,
		  "midi": 77,
		  "name": "F5",
		  "ticks": 371514,
		  "time": 362.806640625,
		  "velocity": 0.3937007874015748
		},
		{
		  "duration": 0.09375,
		  "durationTicks": 96,
		  "midi": 47,
		  "name": "B2",
		  "ticks": 371530,
		  "time": 362.822265625,
		  "velocity": 0.3937007874015748
		},
		{
		  "duration": 0.09375,
		  "durationTicks": 96,
		  "midi": 49,
		  "name": "C#3",
		  "ticks": 371626,
		  "time": 362.916015625,
		  "velocity": 0.3937007874015748
		},
		{
		  "duration": 0.1875,
		  "durationTicks": 192,
		  "midi": 68,
		  "name": "G#4",
		  "ticks": 371706,
		  "time": 362.994140625,
		  "velocity": 0.3937007874015748
		},
		{
		  "duration": 0.1875,
		  "durationTicks": 192,
		  "midi": 80,
		  "name": "G#5",
		  "ticks": 371706,
		  "time": 362.994140625,
		  "velocity": 0.3937007874015748
		},
		{
		  "duration": 0.09375,
		  "durationTicks": 96,
		  "midi": 45,
		  "name": "A2",
		  "ticks": 371722,
		  "time": 363.009765625,
		  "velocity": 0.3937007874015748
		},
		{
		  "duration": 0.09375,
		  "durationTicks": 96,
		  "midi": 49,
		  "name": "C#3",
		  "ticks": 371818,
		  "time": 363.103515625,
		  "velocity": 0.3937007874015748
		},
		{
		  "duration": 0.1875,
		  "durationTicks": 192,
		  "midi": 78,
		  "name": "F#5",
		  "ticks": 371898,
		  "time": 363.181640625,
		  "velocity": 0.3937007874015748
		},
		{
		  "duration": 0.1875,
		  "durationTicks": 192,
		  "midi": 66,
		  "name": "F#4",
		  "ticks": 371898,
		  "time": 363.181640625,
		  "velocity": 0.3937007874015748
		},
		{
		  "duration": 0.09375,
		  "durationTicks": 96,
		  "midi": 45,
		  "name": "A2",
		  "ticks": 371914,
		  "time": 363.197265625,
		  "velocity": 0.3937007874015748
		},
		{
		  "duration": 0.09375,
		  "durationTicks": 96,
		  "midi": 49,
		  "name": "C#3",
		  "ticks": 372010,
		  "time": 363.291015625,
		  "velocity": 0.3937007874015748
		},
		{
		  "duration": 0.1875,
		  "durationTicks": 192,
		  "midi": 85,
		  "name": "C#6",
		  "ticks": 372106,
		  "time": 363.384765625,
		  "velocity": 0.3937007874015748
		},
		{
		  "duration": 0.1875,
		  "durationTicks": 192,
		  "midi": 73,
		  "name": "C#5",
		  "ticks": 372106,
		  "time": 363.384765625,
		  "velocity": 0.3937007874015748
		},
		{
		  "duration": 0.09375,
		  "durationTicks": 96,
		  "midi": 45,
		  "name": "A2",
		  "ticks": 372106,
		  "time": 363.384765625,
		  "velocity": 0.3937007874015748
		},
		{
		  "duration": 0.09375,
		  "durationTicks": 96,
		  "midi": 49,
		  "name": "C#3",
		  "ticks": 372202,
		  "time": 363.478515625,
		  "velocity": 0.3937007874015748
		},
		{
		  "duration": 0.1875,
		  "durationTicks": 192,
		  "midi": 66,
		  "name": "F#4",
		  "ticks": 372282,
		  "time": 363.556640625,
		  "velocity": 0.3937007874015748
		},
		{
		  "duration": 0.1875,
		  "durationTicks": 192,
		  "midi": 78,
		  "name": "F#5",
		  "ticks": 372282,
		  "time": 363.556640625,
		  "velocity": 0.3937007874015748
		},
		{
		  "duration": 0.09375,
		  "durationTicks": 96,
		  "midi": 45,
		  "name": "A2",
		  "ticks": 372298,
		  "time": 363.572265625,
		  "velocity": 0.3937007874015748
		},
		{
		  "duration": 0.09375,
		  "durationTicks": 96,
		  "midi": 49,
		  "name": "C#3",
		  "ticks": 372394,
		  "time": 363.666015625,
		  "velocity": 0.3937007874015748
		},
		{
		  "duration": 0.1875,
		  "durationTicks": 192,
		  "midi": 69,
		  "name": "A4",
		  "ticks": 372474,
		  "time": 363.744140625,
		  "velocity": 0.3937007874015748
		},
		{
		  "duration": 0.1875,
		  "durationTicks": 192,
		  "midi": 81,
		  "name": "A5",
		  "ticks": 372474,
		  "time": 363.744140625,
		  "velocity": 0.3937007874015748
		},
		{
		  "duration": 0.09375,
		  "durationTicks": 96,
		  "midi": 41,
		  "name": "F2",
		  "ticks": 372490,
		  "time": 363.759765625,
		  "velocity": 0.3937007874015748
		},
		{
		  "duration": 0.09375,
		  "durationTicks": 96,
		  "midi": 49,
		  "name": "C#3",
		  "ticks": 372586,
		  "time": 363.853515625,
		  "velocity": 0.3937007874015748
		},
		{
		  "duration": 0.1875,
		  "durationTicks": 192,
		  "midi": 68,
		  "name": "G#4",
		  "ticks": 372666,
		  "time": 363.931640625,
		  "velocity": 0.3937007874015748
		},
		{
		  "duration": 0.1875,
		  "durationTicks": 192,
		  "midi": 80,
		  "name": "G#5",
		  "ticks": 372666,
		  "time": 363.931640625,
		  "velocity": 0.3937007874015748
		},
		{
		  "duration": 0.09375,
		  "durationTicks": 96,
		  "midi": 41,
		  "name": "F2",
		  "ticks": 372682,
		  "time": 363.947265625,
		  "velocity": 0.3937007874015748
		},
		{
		  "duration": 0.09375,
		  "durationTicks": 96,
		  "midi": 49,
		  "name": "C#3",
		  "ticks": 372778,
		  "time": 364.041015625,
		  "velocity": 0.3937007874015748
		},
		{
		  "duration": 0.1875,
		  "durationTicks": 192,
		  "midi": 85,
		  "name": "C#6",
		  "ticks": 372874,
		  "time": 364.134765625,
		  "velocity": 0.3937007874015748
		},
		{
		  "duration": 0.1875,
		  "durationTicks": 192,
		  "midi": 73,
		  "name": "C#5",
		  "ticks": 372874,
		  "time": 364.134765625,
		  "velocity": 0.3937007874015748
		},
		{
		  "duration": 0.09375,
		  "durationTicks": 96,
		  "midi": 41,
		  "name": "F2",
		  "ticks": 372874,
		  "time": 364.134765625,
		  "velocity": 0.3937007874015748
		},
		{
		  "duration": 0.09375,
		  "durationTicks": 96,
		  "midi": 49,
		  "name": "C#3",
		  "ticks": 372970,
		  "time": 364.228515625,
		  "velocity": 0.3937007874015748
		},
		{
		  "duration": 0.1875,
		  "durationTicks": 192,
		  "midi": 68,
		  "name": "G#4",
		  "ticks": 373050,
		  "time": 364.306640625,
		  "velocity": 0.3937007874015748
		},
		{
		  "duration": 0.1875,
		  "durationTicks": 192,
		  "midi": 80,
		  "name": "G#5",
		  "ticks": 373050,
		  "time": 364.306640625,
		  "velocity": 0.3937007874015748
		},
		{
		  "duration": 0.09375,
		  "durationTicks": 96,
		  "midi": 41,
		  "name": "F2",
		  "ticks": 373066,
		  "time": 364.322265625,
		  "velocity": 0.3937007874015748
		},
		{
		  "duration": 0.09375,
		  "durationTicks": 96,
		  "midi": 49,
		  "name": "C#3",
		  "ticks": 373162,
		  "time": 364.416015625,
		  "velocity": 0.3937007874015748
		},
		{
		  "duration": 0.09375,
		  "durationTicks": 96,
		  "midi": 81,
		  "name": "A5",
		  "ticks": 373242,
		  "time": 364.494140625,
		  "velocity": 0.3937007874015748
		},
		{
		  "duration": 3.0029296875,
		  "durationTicks": 3075,
		  "midi": 42,
		  "name": "F#2",
		  "ticks": 373242,
		  "time": 364.494140625,
		  "velocity": 0.3937007874015748
		},
		{
		  "duration": 3.0029296875,
		  "durationTicks": 3075,
		  "midi": 37,
		  "name": "C#2",
		  "ticks": 373242,
		  "time": 364.494140625,
		  "velocity": 0.3937007874015748
		},
		{
		  "duration": 3.0029296875,
		  "durationTicks": 3075,
		  "midi": 30,
		  "name": "F#1",
		  "ticks": 373242,
		  "time": 364.494140625,
		  "velocity": 0.3937007874015748
		},
		{
		  "duration": 0.09375,
		  "durationTicks": 96,
		  "midi": 78,
		  "name": "F#5",
		  "ticks": 373370,
		  "time": 364.619140625,
		  "velocity": 0.3937007874015748
		},
		{
		  "duration": 0.09375,
		  "durationTicks": 96,
		  "midi": 73,
		  "name": "C#5",
		  "ticks": 373499,
		  "time": 364.7451171875,
		  "velocity": 0.3937007874015748
		},
		{
		  "duration": 0.09375,
		  "durationTicks": 96,
		  "midi": 69,
		  "name": "A4",
		  "ticks": 373627,
		  "time": 364.8701171875,
		  "velocity": 0.3937007874015748
		},
		{
		  "duration": 0.09375,
		  "durationTicks": 96,
		  "midi": 66,
		  "name": "F#4",
		  "ticks": 373755,
		  "time": 364.9951171875,
		  "velocity": 0.3937007874015748
		},
		{
		  "duration": 0.09375,
		  "durationTicks": 96,
		  "midi": 61,
		  "name": "C#4",
		  "ticks": 373884,
		  "time": 365.12109375,
		  "velocity": 0.3937007874015748
		},
		{
		  "duration": 0.09375,
		  "durationTicks": 96,
		  "midi": 69,
		  "name": "A4",
		  "ticks": 374028,
		  "time": 365.26171875,
		  "velocity": 0.3937007874015748
		},
		{
		  "duration": 0.09375,
		  "durationTicks": 96,
		  "midi": 66,
		  "name": "F#4",
		  "ticks": 374139,
		  "time": 365.3701171875,
		  "velocity": 0.3937007874015748
		},
		{
		  "duration": 0.09375,
		  "durationTicks": 96,
		  "midi": 61,
		  "name": "C#4",
		  "ticks": 374268,
		  "time": 365.49609375,
		  "velocity": 0.3937007874015748
		},
		{
		  "duration": 0.09375,
		  "durationTicks": 96,
		  "midi": 57,
		  "name": "A3",
		  "ticks": 374396,
		  "time": 365.62109375,
		  "velocity": 0.3937007874015748
		},
		{
		  "duration": 0.09375,
		  "durationTicks": 96,
		  "midi": 54,
		  "name": "F#3",
		  "ticks": 374524,
		  "time": 365.74609375,
		  "velocity": 0.3937007874015748
		},
		{
		  "duration": 0.09375,
		  "durationTicks": 96,
		  "midi": 49,
		  "name": "C#3",
		  "ticks": 374653,
		  "time": 365.8720703125,
		  "velocity": 0.3937007874015748
		},
		{
		  "duration": 0.09375,
		  "durationTicks": 96,
		  "midi": 57,
		  "name": "A3",
		  "ticks": 374797,
		  "time": 366.0126953125,
		  "velocity": 0.3937007874015748
		},
		{
		  "duration": 0.09375,
		  "durationTicks": 96,
		  "midi": 54,
		  "name": "F#3",
		  "ticks": 374877,
		  "time": 366.0908203125,
		  "velocity": 0.3937007874015748
		},
		{
		  "duration": 0.09375,
		  "durationTicks": 96,
		  "midi": 49,
		  "name": "C#3",
		  "ticks": 374973,
		  "time": 366.1845703125,
		  "velocity": 0.3937007874015748
		},
		{
		  "duration": 0.09375,
		  "durationTicks": 96,
		  "midi": 45,
		  "name": "A2",
		  "ticks": 375069,
		  "time": 366.2783203125,
		  "velocity": 0.3937007874015748
		},
		{
		  "duration": 0.09375,
		  "durationTicks": 96,
		  "midi": 49,
		  "name": "C#3",
		  "ticks": 375165,
		  "time": 366.3720703125,
		  "velocity": 0.3937007874015748
		},
		{
		  "duration": 0.09375,
		  "durationTicks": 96,
		  "midi": 54,
		  "name": "F#3",
		  "ticks": 375261,
		  "time": 366.4658203125,
		  "velocity": 0.3937007874015748
		},
		{
		  "duration": 0.09375,
		  "durationTicks": 96,
		  "midi": 57,
		  "name": "A3",
		  "ticks": 375357,
		  "time": 366.5595703125,
		  "velocity": 0.3937007874015748
		},
		{
		  "duration": 0.09375,
		  "durationTicks": 96,
		  "midi": 61,
		  "name": "C#4",
		  "ticks": 375453,
		  "time": 366.6533203125,
		  "velocity": 0.3937007874015748
		},
		{
		  "duration": 0.09375,
		  "durationTicks": 96,
		  "midi": 66,
		  "name": "F#4",
		  "ticks": 375549,
		  "time": 366.7470703125,
		  "velocity": 0.3937007874015748
		},
		{
		  "duration": 0.09375,
		  "durationTicks": 96,
		  "midi": 69,
		  "name": "A4",
		  "ticks": 375645,
		  "time": 366.8408203125,
		  "velocity": 0.3937007874015748
		},
		{
		  "duration": 0.09375,
		  "durationTicks": 96,
		  "midi": 73,
		  "name": "C#5",
		  "ticks": 375741,
		  "time": 366.9345703125,
		  "velocity": 0.3937007874015748
		},
		{
		  "duration": 0.09375,
		  "durationTicks": 96,
		  "midi": 78,
		  "name": "F#5",
		  "ticks": 375837,
		  "time": 367.0283203125,
		  "velocity": 0.3937007874015748
		},
		{
		  "duration": 0.09375,
		  "durationTicks": 96,
		  "midi": 81,
		  "name": "A5",
		  "ticks": 375933,
		  "time": 367.1220703125,
		  "velocity": 0.3937007874015748
		},
		{
		  "duration": 0.09375,
		  "durationTicks": 96,
		  "midi": 78,
		  "name": "F#5",
		  "ticks": 376029,
		  "time": 367.2158203125,
		  "velocity": 0.3937007874015748
		},
		{
		  "duration": 0.09375,
		  "durationTicks": 96,
		  "midi": 73,
		  "name": "C#5",
		  "ticks": 376125,
		  "time": 367.3095703125,
		  "velocity": 0.3937007874015748
		},
		{
		  "duration": 0.09375,
		  "durationTicks": 96,
		  "midi": 69,
		  "name": "A4",
		  "ticks": 376221,
		  "time": 367.4033203125,
		  "velocity": 0.3937007874015748
		},
		{
		  "duration": 0.09375,
		  "durationTicks": 96,
		  "midi": 81,
		  "name": "A5",
		  "ticks": 376333,
		  "time": 367.5126953125,
		  "velocity": 0.3937007874015748
		},
		{
		  "duration": 3.001953125,
		  "durationTicks": 3074,
		  "midi": 42,
		  "name": "F#2",
		  "ticks": 376333,
		  "time": 367.5126953125,
		  "velocity": 0.3937007874015748
		},
		{
		  "duration": 3.001953125,
		  "durationTicks": 3074,
		  "midi": 38,
		  "name": "D2",
		  "ticks": 376333,
		  "time": 367.5126953125,
		  "velocity": 0.3937007874015748
		},
		{
		  "duration": 3.001953125,
		  "durationTicks": 3074,
		  "midi": 30,
		  "name": "F#1",
		  "ticks": 376337,
		  "time": 367.5166015625,
		  "velocity": 0.3937007874015748
		},
		{
		  "duration": 0.09375,
		  "durationTicks": 96,
		  "midi": 78,
		  "name": "F#5",
		  "ticks": 376444,
		  "time": 367.62109375,
		  "velocity": 0.3937007874015748
		},
		{
		  "duration": 0.09375,
		  "durationTicks": 96,
		  "midi": 74,
		  "name": "D5",
		  "ticks": 376573,
		  "time": 367.7470703125,
		  "velocity": 0.3937007874015748
		},
		{
		  "duration": 0.09375,
		  "durationTicks": 96,
		  "midi": 69,
		  "name": "A4",
		  "ticks": 376701,
		  "time": 367.8720703125,
		  "velocity": 0.3937007874015748
		},
		{
		  "duration": 0.09375,
		  "durationTicks": 96,
		  "midi": 66,
		  "name": "F#4",
		  "ticks": 376829,
		  "time": 367.9970703125,
		  "velocity": 0.3937007874015748
		},
		{
		  "duration": 0.09375,
		  "durationTicks": 96,
		  "midi": 62,
		  "name": "D4",
		  "ticks": 376958,
		  "time": 368.123046875,
		  "velocity": 0.3937007874015748
		},
		{
		  "duration": 0.09375,
		  "durationTicks": 96,
		  "midi": 69,
		  "name": "A4",
		  "ticks": 377102,
		  "time": 368.263671875,
		  "velocity": 0.3937007874015748
		},
		{
		  "duration": 0.09375,
		  "durationTicks": 96,
		  "midi": 66,
		  "name": "F#4",
		  "ticks": 377213,
		  "time": 368.3720703125,
		  "velocity": 0.3937007874015748
		},
		{
		  "duration": 0.09375,
		  "durationTicks": 96,
		  "midi": 62,
		  "name": "D4",
		  "ticks": 377342,
		  "time": 368.498046875,
		  "velocity": 0.3937007874015748
		},
		{
		  "duration": 0.09375,
		  "durationTicks": 96,
		  "midi": 57,
		  "name": "A3",
		  "ticks": 377470,
		  "time": 368.623046875,
		  "velocity": 0.3937007874015748
		},
		{
		  "duration": 0.09375,
		  "durationTicks": 96,
		  "midi": 54,
		  "name": "F#3",
		  "ticks": 377598,
		  "time": 368.748046875,
		  "velocity": 0.3937007874015748
		},
		{
		  "duration": 0.09375,
		  "durationTicks": 96,
		  "midi": 50,
		  "name": "D3",
		  "ticks": 377727,
		  "time": 368.8740234375,
		  "velocity": 0.3937007874015748
		},
		{
		  "duration": 0.09375,
		  "durationTicks": 96,
		  "midi": 57,
		  "name": "A3",
		  "ticks": 377871,
		  "time": 369.0146484375,
		  "velocity": 0.3937007874015748
		},
		{
		  "duration": 0.09375,
		  "durationTicks": 96,
		  "midi": 54,
		  "name": "F#3",
		  "ticks": 377951,
		  "time": 369.0927734375,
		  "velocity": 0.3937007874015748
		},
		{
		  "duration": 0.09375,
		  "durationTicks": 96,
		  "midi": 50,
		  "name": "D3",
		  "ticks": 378047,
		  "time": 369.1865234375,
		  "velocity": 0.3937007874015748
		},
		{
		  "duration": 0.09375,
		  "durationTicks": 96,
		  "midi": 45,
		  "name": "A2",
		  "ticks": 378143,
		  "time": 369.2802734375,
		  "velocity": 0.3937007874015748
		},
		{
		  "duration": 0.09375,
		  "durationTicks": 96,
		  "midi": 50,
		  "name": "D3",
		  "ticks": 378239,
		  "time": 369.3740234375,
		  "velocity": 0.3937007874015748
		},
		{
		  "duration": 0.09375,
		  "durationTicks": 96,
		  "midi": 54,
		  "name": "F#3",
		  "ticks": 378335,
		  "time": 369.4677734375,
		  "velocity": 0.3937007874015748
		},
		{
		  "duration": 0.09375,
		  "durationTicks": 96,
		  "midi": 57,
		  "name": "A3",
		  "ticks": 378431,
		  "time": 369.5615234375,
		  "velocity": 0.3937007874015748
		},
		{
		  "duration": 0.09375,
		  "durationTicks": 96,
		  "midi": 62,
		  "name": "D4",
		  "ticks": 378527,
		  "time": 369.6552734375,
		  "velocity": 0.3937007874015748
		},
		{
		  "duration": 0.09375,
		  "durationTicks": 96,
		  "midi": 66,
		  "name": "F#4",
		  "ticks": 378623,
		  "time": 369.7490234375,
		  "velocity": 0.3937007874015748
		},
		{
		  "duration": 0.09375,
		  "durationTicks": 96,
		  "midi": 69,
		  "name": "A4",
		  "ticks": 378719,
		  "time": 369.8427734375,
		  "velocity": 0.3937007874015748
		},
		{
		  "duration": 0.09375,
		  "durationTicks": 96,
		  "midi": 74,
		  "name": "D5",
		  "ticks": 378815,
		  "time": 369.9365234375,
		  "velocity": 0.3937007874015748
		},
		{
		  "duration": 0.09375,
		  "durationTicks": 96,
		  "midi": 78,
		  "name": "F#5",
		  "ticks": 378911,
		  "time": 370.0302734375,
		  "velocity": 0.3937007874015748
		},
		{
		  "duration": 0.09375,
		  "durationTicks": 96,
		  "midi": 81,
		  "name": "A5",
		  "ticks": 379007,
		  "time": 370.1240234375,
		  "velocity": 0.3937007874015748
		},
		{
		  "duration": 0.09375,
		  "durationTicks": 96,
		  "midi": 78,
		  "name": "F#5",
		  "ticks": 379103,
		  "time": 370.2177734375,
		  "velocity": 0.3937007874015748
		},
		{
		  "duration": 0.09375,
		  "durationTicks": 96,
		  "midi": 74,
		  "name": "D5",
		  "ticks": 379199,
		  "time": 370.3115234375,
		  "velocity": 0.3937007874015748
		},
		{
		  "duration": 0.09375,
		  "durationTicks": 96,
		  "midi": 69,
		  "name": "A4",
		  "ticks": 379295,
		  "time": 370.4052734375,
		  "velocity": 0.3937007874015748
		},
		{
		  "duration": 0.09375,
		  "durationTicks": 96,
		  "midi": 85,
		  "name": "C#6",
		  "ticks": 379407,
		  "time": 370.5146484375,
		  "velocity": 0.3937007874015748
		},
		{
		  "duration": 3.005859375,
		  "durationTicks": 3078,
		  "midi": 43,
		  "name": "G2",
		  "ticks": 379407,
		  "time": 370.5146484375,
		  "velocity": 0.3937007874015748
		},
		{
		  "duration": 3.005859375,
		  "durationTicks": 3078,
		  "midi": 37,
		  "name": "C#2",
		  "ticks": 379407,
		  "time": 370.5146484375,
		  "velocity": 0.3937007874015748
		},
		{
		  "duration": 3.005859375,
		  "durationTicks": 3078,
		  "midi": 31,
		  "name": "G1",
		  "ticks": 379407,
		  "time": 370.5146484375,
		  "velocity": 0.3937007874015748
		},
		{
		  "duration": 0.09375,
		  "durationTicks": 96,
		  "midi": 82,
		  "name": "A#5",
		  "ticks": 379518,
		  "time": 370.623046875,
		  "velocity": 0.3937007874015748
		},
		{
		  "duration": 0.09375,
		  "durationTicks": 96,
		  "midi": 79,
		  "name": "G5",
		  "ticks": 379647,
		  "time": 370.7490234375,
		  "velocity": 0.3937007874015748
		},
		{
		  "duration": 0.09375,
		  "durationTicks": 96,
		  "midi": 76,
		  "name": "E5",
		  "ticks": 379775,
		  "time": 370.8740234375,
		  "velocity": 0.3937007874015748
		},
		{
		  "duration": 0.1875,
		  "durationTicks": 192,
		  "midi": 73,
		  "name": "C#5",
		  "ticks": 379903,
		  "time": 370.9990234375,
		  "velocity": 0.3937007874015748
		},
		{
		  "duration": 0.09375,
		  "durationTicks": 96,
		  "midi": 70,
		  "name": "A#4",
		  "ticks": 380032,
		  "time": 371.125,
		  "velocity": 0.3937007874015748
		},
		{
		  "duration": 0.09375,
		  "durationTicks": 96,
		  "midi": 76,
		  "name": "E5",
		  "ticks": 380176,
		  "time": 371.265625,
		  "velocity": 0.3937007874015748
		},
		{
		  "duration": 0.09375,
		  "durationTicks": 96,
		  "midi": 73,
		  "name": "C#5",
		  "ticks": 380287,
		  "time": 371.3740234375,
		  "velocity": 0.3937007874015748
		},
		{
		  "duration": 0.09375,
		  "durationTicks": 96,
		  "midi": 70,
		  "name": "A#4",
		  "ticks": 380416,
		  "time": 371.5,
		  "velocity": 0.3937007874015748
		},
		{
		  "duration": 0.09375,
		  "durationTicks": 96,
		  "midi": 67,
		  "name": "G4",
		  "ticks": 380544,
		  "time": 371.625,
		  "velocity": 0.3937007874015748
		},
		{
		  "duration": 0.09375,
		  "durationTicks": 96,
		  "midi": 64,
		  "name": "E4",
		  "ticks": 380640,
		  "time": 371.71875,
		  "velocity": 0.3937007874015748
		},
		{
		  "duration": 0.09375,
		  "durationTicks": 96,
		  "midi": 61,
		  "name": "C#4",
		  "ticks": 380736,
		  "time": 371.8125,
		  "velocity": 0.3937007874015748
		},
		{
		  "duration": 0.09375,
		  "durationTicks": 96,
		  "midi": 58,
		  "name": "A#3",
		  "ticks": 380832,
		  "time": 371.90625,
		  "velocity": 0.3937007874015748
		},
		{
		  "duration": 0.09375,
		  "durationTicks": 96,
		  "midi": 64,
		  "name": "E4",
		  "ticks": 380944,
		  "time": 372.015625,
		  "velocity": 0.3937007874015748
		},
		{
		  "duration": 0.09375,
		  "durationTicks": 96,
		  "midi": 61,
		  "name": "C#4",
		  "ticks": 381024,
		  "time": 372.09375,
		  "velocity": 0.3937007874015748
		},
		{
		  "duration": 0.09375,
		  "durationTicks": 96,
		  "midi": 58,
		  "name": "A#3",
		  "ticks": 381120,
		  "time": 372.1875,
		  "velocity": 0.3937007874015748
		},
		{
		  "duration": 0.09375,
		  "durationTicks": 96,
		  "midi": 55,
		  "name": "G3",
		  "ticks": 381216,
		  "time": 372.28125,
		  "velocity": 0.3937007874015748
		},
		{
		  "duration": 0.09375,
		  "durationTicks": 96,
		  "midi": 52,
		  "name": "E3",
		  "ticks": 381312,
		  "time": 372.375,
		  "velocity": 0.3937007874015748
		},
		{
		  "duration": 0.09375,
		  "durationTicks": 96,
		  "midi": 49,
		  "name": "C#3",
		  "ticks": 381408,
		  "time": 372.46875,
		  "velocity": 0.3937007874015748
		},
		{
		  "duration": 0.09375,
		  "durationTicks": 96,
		  "midi": 52,
		  "name": "E3",
		  "ticks": 381504,
		  "time": 372.5625,
		  "velocity": 0.3937007874015748
		},
		{
		  "duration": 0.09375,
		  "durationTicks": 96,
		  "midi": 55,
		  "name": "G3",
		  "ticks": 381600,
		  "time": 372.65625,
		  "velocity": 0.3937007874015748
		},
		{
		  "duration": 0.09375,
		  "durationTicks": 96,
		  "midi": 58,
		  "name": "A#3",
		  "ticks": 381696,
		  "time": 372.75,
		  "velocity": 0.3937007874015748
		},
		{
		  "duration": 0.0947265625,
		  "durationTicks": 97,
		  "midi": 61,
		  "name": "C#4",
		  "ticks": 381760,
		  "time": 372.8125,
		  "velocity": 0.3937007874015748
		},
		{
		  "duration": 0.0947265625,
		  "durationTicks": 97,
		  "midi": 64,
		  "name": "E4",
		  "ticks": 381824,
		  "time": 372.875,
		  "velocity": 0.3937007874015748
		},
		{
		  "duration": 0.0947265625,
		  "durationTicks": 97,
		  "midi": 67,
		  "name": "G4",
		  "ticks": 381889,
		  "time": 372.9384765625,
		  "velocity": 0.3937007874015748
		},
		{
		  "duration": 0.0947265625,
		  "durationTicks": 97,
		  "midi": 70,
		  "name": "A#4",
		  "ticks": 381954,
		  "time": 373.001953125,
		  "velocity": 0.3937007874015748
		},
		{
		  "duration": 0.0947265625,
		  "durationTicks": 97,
		  "midi": 73,
		  "name": "C#5",
		  "ticks": 382018,
		  "time": 373.064453125,
		  "velocity": 0.3937007874015748
		},
		{
		  "duration": 0.0947265625,
		  "durationTicks": 97,
		  "midi": 76,
		  "name": "E5",
		  "ticks": 382083,
		  "time": 373.1279296875,
		  "velocity": 0.3937007874015748
		},
		{
		  "duration": 0.0947265625,
		  "durationTicks": 97,
		  "midi": 79,
		  "name": "G5",
		  "ticks": 382148,
		  "time": 373.19140625,
		  "velocity": 0.3937007874015748
		},
		{
		  "duration": 0.0947265625,
		  "durationTicks": 97,
		  "midi": 82,
		  "name": "A#5",
		  "ticks": 382212,
		  "time": 373.25390625,
		  "velocity": 0.3937007874015748
		},
		{
		  "duration": 0.09375,
		  "durationTicks": 96,
		  "midi": 85,
		  "name": "C#6",
		  "ticks": 382277,
		  "time": 373.3173828125,
		  "velocity": 0.3937007874015748
		},
		{
		  "duration": 0.09375,
		  "durationTicks": 96,
		  "midi": 82,
		  "name": "A#5",
		  "ticks": 382349,
		  "time": 373.3876953125,
		  "velocity": 0.3937007874015748
		},
		{
		  "duration": 0.0927734375,
		  "durationTicks": 95,
		  "midi": 76,
		  "name": "E5",
		  "ticks": 382405,
		  "time": 373.4423828125,
		  "velocity": 0.3937007874015748
		},
		{
		  "duration": 0.09375,
		  "durationTicks": 96,
		  "midi": 88,
		  "name": "E6",
		  "ticks": 382485,
		  "time": 373.5205078125,
		  "velocity": 0.3937007874015748
		},
		{
		  "duration": 3.001953125,
		  "durationTicks": 3074,
		  "midi": 44,
		  "name": "G#2",
		  "ticks": 382485,
		  "time": 373.5205078125,
		  "velocity": 0.3937007874015748
		},
		{
		  "duration": 3.001953125,
		  "durationTicks": 3074,
		  "midi": 37,
		  "name": "C#2",
		  "ticks": 382485,
		  "time": 373.5205078125,
		  "velocity": 0.3937007874015748
		},
		{
		  "duration": 3.001953125,
		  "durationTicks": 3074,
		  "midi": 32,
		  "name": "G#1",
		  "ticks": 382485,
		  "time": 373.5205078125,
		  "velocity": 0.3937007874015748
		},
		{
		  "duration": 0.09375,
		  "durationTicks": 96,
		  "midi": 85,
		  "name": "C#6",
		  "ticks": 382596,
		  "time": 373.62890625,
		  "velocity": 0.3937007874015748
		},
		{
		  "duration": 0.09375,
		  "durationTicks": 96,
		  "midi": 80,
		  "name": "G#5",
		  "ticks": 382725,
		  "time": 373.7548828125,
		  "velocity": 0.3937007874015748
		},
		{
		  "duration": 0.09375,
		  "durationTicks": 96,
		  "midi": 76,
		  "name": "E5",
		  "ticks": 382853,
		  "time": 373.8798828125,
		  "velocity": 0.3937007874015748
		},
		{
		  "duration": 0.09375,
		  "durationTicks": 96,
		  "midi": 73,
		  "name": "C#5",
		  "ticks": 382981,
		  "time": 374.0048828125,
		  "velocity": 0.3937007874015748
		},
		{
		  "duration": 0.09375,
		  "durationTicks": 96,
		  "midi": 68,
		  "name": "G#4",
		  "ticks": 383110,
		  "time": 374.130859375,
		  "velocity": 0.3937007874015748
		},
		{
		  "duration": 0.09375,
		  "durationTicks": 96,
		  "midi": 76,
		  "name": "E5",
		  "ticks": 383238,
		  "time": 374.255859375,
		  "velocity": 0.3937007874015748
		},
		{
		  "duration": 0.09375,
		  "durationTicks": 96,
		  "midi": 73,
		  "name": "C#5",
		  "ticks": 383366,
		  "time": 374.380859375,
		  "velocity": 0.3937007874015748
		},
		{
		  "duration": 0.09375,
		  "durationTicks": 96,
		  "midi": 68,
		  "name": "G#4",
		  "ticks": 383495,
		  "time": 374.5068359375,
		  "velocity": 0.3937007874015748
		},
		{
		  "duration": 0.09375,
		  "durationTicks": 96,
		  "midi": 64,
		  "name": "E4",
		  "ticks": 383623,
		  "time": 374.6318359375,
		  "velocity": 0.3937007874015748
		},
		{
		  "duration": 0.09375,
		  "durationTicks": 96,
		  "midi": 73,
		  "name": "C#5",
		  "ticks": 383719,
		  "time": 374.7255859375,
		  "velocity": 0.3937007874015748
		},
		{
		  "duration": 0.09375,
		  "durationTicks": 96,
		  "midi": 68,
		  "name": "G#4",
		  "ticks": 383815,
		  "time": 374.8193359375,
		  "velocity": 0.3937007874015748
		},
		{
		  "duration": 0.09375,
		  "durationTicks": 96,
		  "midi": 64,
		  "name": "E4",
		  "ticks": 383911,
		  "time": 374.9130859375,
		  "velocity": 0.3937007874015748
		},
		{
		  "duration": 0.09375,
		  "durationTicks": 96,
		  "midi": 61,
		  "name": "C#4",
		  "ticks": 384007,
		  "time": 375.0068359375,
		  "velocity": 0.3937007874015748
		},
		{
		  "duration": 0.09375,
		  "durationTicks": 96,
		  "midi": 68,
		  "name": "G#4",
		  "ticks": 384103,
		  "time": 375.1005859375,
		  "velocity": 0.3937007874015748
		},
		{
		  "duration": 0.09375,
		  "durationTicks": 96,
		  "midi": 64,
		  "name": "E4",
		  "ticks": 384199,
		  "time": 375.1943359375,
		  "velocity": 0.3937007874015748
		},
		{
		  "duration": 0.09375,
		  "durationTicks": 96,
		  "midi": 61,
		  "name": "C#4",
		  "ticks": 384295,
		  "time": 375.2880859375,
		  "velocity": 0.3937007874015748
		},
		{
		  "duration": 0.09375,
		  "durationTicks": 96,
		  "midi": 56,
		  "name": "G#3",
		  "ticks": 384391,
		  "time": 375.3818359375,
		  "velocity": 0.3937007874015748
		},
		{
		  "duration": 0.09375,
		  "durationTicks": 96,
		  "midi": 64,
		  "name": "E4",
		  "ticks": 384487,
		  "time": 375.4755859375,
		  "velocity": 0.3937007874015748
		},
		{
		  "duration": 0.09375,
		  "durationTicks": 96,
		  "midi": 61,
		  "name": "C#4",
		  "ticks": 384583,
		  "time": 375.5693359375,
		  "velocity": 0.3937007874015748
		},
		{
		  "duration": 0.09375,
		  "durationTicks": 96,
		  "midi": 56,
		  "name": "G#3",
		  "ticks": 384679,
		  "time": 375.6630859375,
		  "velocity": 0.3937007874015748
		},
		{
		  "duration": 0.09375,
		  "durationTicks": 96,
		  "midi": 52,
		  "name": "E3",
		  "ticks": 384775,
		  "time": 375.7568359375,
		  "velocity": 0.3937007874015748
		},
		{
		  "duration": 0.09375,
		  "durationTicks": 96,
		  "midi": 61,
		  "name": "C#4",
		  "ticks": 384871,
		  "time": 375.8505859375,
		  "velocity": 0.3937007874015748
		},
		{
		  "duration": 0.09375,
		  "durationTicks": 96,
		  "midi": 56,
		  "name": "G#3",
		  "ticks": 384967,
		  "time": 375.9443359375,
		  "velocity": 0.3937007874015748
		},
		{
		  "duration": 0.09375,
		  "durationTicks": 96,
		  "midi": 52,
		  "name": "E3",
		  "ticks": 385063,
		  "time": 376.0380859375,
		  "velocity": 0.3937007874015748
		},
		{
		  "duration": 0.09375,
		  "durationTicks": 96,
		  "midi": 49,
		  "name": "C#3",
		  "ticks": 385159,
		  "time": 376.1318359375,
		  "velocity": 0.3937007874015748
		},
		{
		  "duration": 0.09375,
		  "durationTicks": 96,
		  "midi": 56,
		  "name": "G#3",
		  "ticks": 385255,
		  "time": 376.2255859375,
		  "velocity": 0.3937007874015748
		},
		{
		  "duration": 0.09375,
		  "durationTicks": 96,
		  "midi": 52,
		  "name": "E3",
		  "ticks": 385351,
		  "time": 376.3193359375,
		  "velocity": 0.3937007874015748
		},
		{
		  "duration": 0.09375,
		  "durationTicks": 96,
		  "midi": 49,
		  "name": "C#3",
		  "ticks": 385447,
		  "time": 376.4130859375,
		  "velocity": 0.3937007874015748
		},
		{
		  "duration": 0.09375,
		  "durationTicks": 96,
		  "midi": 44,
		  "name": "G#2",
		  "ticks": 385559,
		  "time": 376.5224609375,
		  "velocity": 0.3937007874015748
		},
		{
		  "duration": 0.09375,
		  "durationTicks": 96,
		  "midi": 45,
		  "name": "A2",
		  "ticks": 385655,
		  "time": 376.6162109375,
		  "velocity": 0.3937007874015748
		},
		{
		  "duration": 0.09375,
		  "durationTicks": 96,
		  "midi": 46,
		  "name": "A#2",
		  "ticks": 385751,
		  "time": 376.7099609375,
		  "velocity": 0.3937007874015748
		},
		{
		  "duration": 0.09375,
		  "durationTicks": 96,
		  "midi": 47,
		  "name": "B2",
		  "ticks": 385847,
		  "time": 376.8037109375,
		  "velocity": 0.3937007874015748
		},
		{
		  "duration": 0.09375,
		  "durationTicks": 96,
		  "midi": 48,
		  "name": "C3",
		  "ticks": 385943,
		  "time": 376.8974609375,
		  "velocity": 0.3937007874015748
		},
		{
		  "duration": 0.09375,
		  "durationTicks": 96,
		  "midi": 49,
		  "name": "C#3",
		  "ticks": 386039,
		  "time": 376.9912109375,
		  "velocity": 0.3937007874015748
		},
		{
		  "duration": 0.09375,
		  "durationTicks": 96,
		  "midi": 50,
		  "name": "D3",
		  "ticks": 386135,
		  "time": 377.0849609375,
		  "velocity": 0.3937007874015748
		},
		{
		  "duration": 0.09375,
		  "durationTicks": 96,
		  "midi": 51,
		  "name": "D#3",
		  "ticks": 386231,
		  "time": 377.1787109375,
		  "velocity": 0.3937007874015748
		},
		{
		  "duration": 0.09375,
		  "durationTicks": 96,
		  "midi": 52,
		  "name": "E3",
		  "ticks": 386327,
		  "time": 377.2724609375,
		  "velocity": 0.3937007874015748
		},
		{
		  "duration": 0.09375,
		  "durationTicks": 96,
		  "midi": 53,
		  "name": "F3",
		  "ticks": 386423,
		  "time": 377.3662109375,
		  "velocity": 0.3937007874015748
		},
		{
		  "duration": 0.09375,
		  "durationTicks": 96,
		  "midi": 54,
		  "name": "F#3",
		  "ticks": 386519,
		  "time": 377.4599609375,
		  "velocity": 0.3937007874015748
		},
		{
		  "duration": 0.09375,
		  "durationTicks": 96,
		  "midi": 55,
		  "name": "G3",
		  "ticks": 386615,
		  "time": 377.5537109375,
		  "velocity": 0.3937007874015748
		},
		{
		  "duration": 0.09375,
		  "durationTicks": 96,
		  "midi": 56,
		  "name": "G#3",
		  "ticks": 386711,
		  "time": 377.6474609375,
		  "velocity": 0.3937007874015748
		},
		{
		  "duration": 0.09375,
		  "durationTicks": 96,
		  "midi": 57,
		  "name": "A3",
		  "ticks": 386807,
		  "time": 377.7412109375,
		  "velocity": 0.3937007874015748
		},
		{
		  "duration": 0.09375,
		  "durationTicks": 96,
		  "midi": 58,
		  "name": "A#3",
		  "ticks": 386903,
		  "time": 377.8349609375,
		  "velocity": 0.3937007874015748
		},
		{
		  "duration": 0.09375,
		  "durationTicks": 96,
		  "midi": 59,
		  "name": "B3",
		  "ticks": 386999,
		  "time": 377.9287109375,
		  "velocity": 0.3937007874015748
		},
		{
		  "duration": 0.09375,
		  "durationTicks": 96,
		  "midi": 60,
		  "name": "C4",
		  "ticks": 387095,
		  "time": 378.0224609375,
		  "velocity": 0.3937007874015748
		},
		{
		  "duration": 0.0947265625,
		  "durationTicks": 97,
		  "midi": 61,
		  "name": "C#4",
		  "ticks": 387187,
		  "time": 378.1123046875,
		  "velocity": 0.3937007874015748
		},
		{
		  "duration": 0.0947265625,
		  "durationTicks": 97,
		  "midi": 62,
		  "name": "D4",
		  "ticks": 387275,
		  "time": 378.1982421875,
		  "velocity": 0.3937007874015748
		},
		{
		  "duration": 0.0947265625,
		  "durationTicks": 97,
		  "midi": 63,
		  "name": "D#4",
		  "ticks": 387364,
		  "time": 378.28515625,
		  "velocity": 0.3937007874015748
		},
		{
		  "duration": 0.0947265625,
		  "durationTicks": 97,
		  "midi": 64,
		  "name": "E4",
		  "ticks": 387453,
		  "time": 378.3720703125,
		  "velocity": 0.3937007874015748
		},
		{
		  "duration": 0.09375,
		  "durationTicks": 96,
		  "midi": 65,
		  "name": "F4",
		  "ticks": 387521,
		  "time": 378.4384765625,
		  "velocity": 0.3937007874015748
		},
		{
		  "duration": 0.09375,
		  "durationTicks": 96,
		  "midi": 66,
		  "name": "F#4",
		  "ticks": 387598,
		  "time": 378.513671875,
		  "velocity": 0.3937007874015748
		},
		{
		  "duration": 0.09375,
		  "durationTicks": 96,
		  "midi": 67,
		  "name": "G4",
		  "ticks": 387665,
		  "time": 378.5791015625,
		  "velocity": 0.3937007874015748
		},
		{
		  "duration": 0.09375,
		  "durationTicks": 96,
		  "midi": 68,
		  "name": "G#4",
		  "ticks": 387733,
		  "time": 378.6455078125,
		  "velocity": 0.3937007874015748
		},
		{
		  "duration": 0.09375,
		  "durationTicks": 96,
		  "midi": 69,
		  "name": "A4",
		  "ticks": 387805,
		  "time": 378.7158203125,
		  "velocity": 0.3937007874015748
		},
		{
		  "duration": 0.09375,
		  "durationTicks": 96,
		  "midi": 70,
		  "name": "A#4",
		  "ticks": 387877,
		  "time": 378.7861328125,
		  "velocity": 0.3937007874015748
		},
		{
		  "duration": 0.09375,
		  "durationTicks": 96,
		  "midi": 71,
		  "name": "B4",
		  "ticks": 387949,
		  "time": 378.8564453125,
		  "velocity": 0.3937007874015748
		},
		{
		  "duration": 0.09375,
		  "durationTicks": 96,
		  "midi": 72,
		  "name": "C5",
		  "ticks": 388017,
		  "time": 378.9228515625,
		  "velocity": 0.3937007874015748
		},
		{
		  "duration": 0.09375,
		  "durationTicks": 96,
		  "midi": 73,
		  "name": "C#5",
		  "ticks": 388073,
		  "time": 378.9775390625,
		  "velocity": 0.3937007874015748
		},
		{
		  "duration": 0.09375,
		  "durationTicks": 96,
		  "midi": 74,
		  "name": "D5",
		  "ticks": 388121,
		  "time": 379.0244140625,
		  "velocity": 0.3937007874015748
		},
		{
		  "duration": 1.6875,
		  "durationTicks": 1728,
		  "midi": 66,
		  "name": "F#4",
		  "ticks": 388418,
		  "time": 379.314453125,
		  "velocity": 0.3937007874015748
		},
		{
		  "duration": 1.6875,
		  "durationTicks": 1728,
		  "midi": 60,
		  "name": "C4",
		  "ticks": 388418,
		  "time": 379.314453125,
		  "velocity": 0.3937007874015748
		},
		{
		  "duration": 1.6875,
		  "durationTicks": 1728,
		  "midi": 56,
		  "name": "G#3",
		  "ticks": 388418,
		  "time": 379.314453125,
		  "velocity": 0.3937007874015748
		},
		{
		  "duration": 0.1875,
		  "durationTicks": 192,
		  "midi": 80,
		  "name": "G#5",
		  "ticks": 390209,
		  "time": 381.0634765625,
		  "velocity": 0.3937007874015748
		},
		{
		  "duration": 0.1875,
		  "durationTicks": 192,
		  "midi": 78,
		  "name": "F#5",
		  "ticks": 390377,
		  "time": 381.2275390625,
		  "velocity": 0.3937007874015748
		},
		{
		  "duration": 0.1875,
		  "durationTicks": 192,
		  "midi": 76,
		  "name": "E5",
		  "ticks": 390569,
		  "time": 381.4150390625,
		  "velocity": 0.3937007874015748
		},
		{
		  "duration": 0.1875,
		  "durationTicks": 192,
		  "midi": 75,
		  "name": "D#5",
		  "ticks": 390761,
		  "time": 381.6025390625,
		  "velocity": 0.3937007874015748
		},
		{
		  "duration": 0.1875,
		  "durationTicks": 192,
		  "midi": 78,
		  "name": "F#5",
		  "ticks": 390953,
		  "time": 381.7900390625,
		  "velocity": 0.3937007874015748
		},
		{
		  "duration": 0.1875,
		  "durationTicks": 192,
		  "midi": 73,
		  "name": "C#5",
		  "ticks": 391145,
		  "time": 381.9775390625,
		  "velocity": 0.3937007874015748
		},
		{
		  "duration": 0.1875,
		  "durationTicks": 192,
		  "midi": 72,
		  "name": "C5",
		  "ticks": 391337,
		  "time": 382.1650390625,
		  "velocity": 0.3937007874015748
		},
		{
		  "duration": 0.1875,
		  "durationTicks": 192,
		  "midi": 75,
		  "name": "D#5",
		  "ticks": 391529,
		  "time": 382.3525390625,
		  "velocity": 0.3937007874015748
		},
		{
		  "duration": 0.1875,
		  "durationTicks": 192,
		  "midi": 69,
		  "name": "A4",
		  "ticks": 391721,
		  "time": 382.5400390625,
		  "velocity": 0.3937007874015748
		},
		{
		  "duration": 0.1875,
		  "durationTicks": 192,
		  "midi": 68,
		  "name": "G#4",
		  "ticks": 391913,
		  "time": 382.7275390625,
		  "velocity": 0.3937007874015748
		},
		{
		  "duration": 0.1875,
		  "durationTicks": 192,
		  "midi": 66,
		  "name": "F#4",
		  "ticks": 392105,
		  "time": 382.9150390625,
		  "velocity": 0.3937007874015748
		},
		{
		  "duration": 0.1875,
		  "durationTicks": 192,
		  "midi": 69,
		  "name": "A4",
		  "ticks": 392297,
		  "time": 383.1025390625,
		  "velocity": 0.3937007874015748
		},
		{
		  "duration": 0.1875,
		  "durationTicks": 192,
		  "midi": 64,
		  "name": "E4",
		  "ticks": 392489,
		  "time": 383.2900390625,
		  "velocity": 0.3937007874015748
		},
		{
		  "duration": 0.1875,
		  "durationTicks": 192,
		  "midi": 63,
		  "name": "D#4",
		  "ticks": 392681,
		  "time": 383.4775390625,
		  "velocity": 0.3937007874015748
		},
		{
		  "duration": 0.1875,
		  "durationTicks": 192,
		  "midi": 66,
		  "name": "F#4",
		  "ticks": 392889,
		  "time": 383.6806640625,
		  "velocity": 0.3937007874015748
		},
		{
		  "duration": 0.1875,
		  "durationTicks": 192,
		  "midi": 61,
		  "name": "C#4",
		  "ticks": 393089,
		  "time": 383.8759765625,
		  "velocity": 0.3937007874015748
		},
		{
		  "duration": 0.1875,
		  "durationTicks": 192,
		  "midi": 60,
		  "name": "C4",
		  "ticks": 393305,
		  "time": 384.0869140625,
		  "velocity": 0.3937007874015748
		},
		{
		  "duration": 0.1875,
		  "durationTicks": 192,
		  "midi": 63,
		  "name": "D#4",
		  "ticks": 393513,
		  "time": 384.2900390625,
		  "velocity": 0.3937007874015748
		},
		{
		  "duration": 0.1875,
		  "durationTicks": 192,
		  "midi": 57,
		  "name": "A3",
		  "ticks": 393745,
		  "time": 384.5166015625,
		  "velocity": 0.3937007874015748
		},
		{
		  "duration": 0.28125,
		  "durationTicks": 288,
		  "midi": 56,
		  "name": "G#3",
		  "ticks": 393976,
		  "time": 384.7421875,
		  "velocity": 0.3937007874015748
		},
		{
		  "duration": 0.28125,
		  "durationTicks": 288,
		  "midi": 54,
		  "name": "F#3",
		  "ticks": 394225,
		  "time": 384.9853515625,
		  "velocity": 0.3937007874015748
		},
		{
		  "duration": 0.1875,
		  "durationTicks": 192,
		  "midi": 57,
		  "name": "A3",
		  "ticks": 394480,
		  "time": 385.234375,
		  "velocity": 0.3937007874015748
		},
		{
		  "duration": 0.1875,
		  "durationTicks": 192,
		  "midi": 52,
		  "name": "E3",
		  "ticks": 394712,
		  "time": 385.4609375,
		  "velocity": 0.3937007874015748
		},
		{
		  "duration": 0.28125,
		  "durationTicks": 288,
		  "midi": 51,
		  "name": "D#3",
		  "ticks": 394952,
		  "time": 385.6953125,
		  "velocity": 0.3937007874015748
		},
		{
		  "duration": 0.1875,
		  "durationTicks": 192,
		  "midi": 54,
		  "name": "F#3",
		  "ticks": 395192,
		  "time": 385.9296875,
		  "velocity": 0.3937007874015748
		},
		{
		  "duration": 0.28125,
		  "durationTicks": 288,
		  "midi": 49,
		  "name": "C#3",
		  "ticks": 395416,
		  "time": 386.1484375,
		  "velocity": 0.3937007874015748
		},
		{
		  "duration": 0.28125,
		  "durationTicks": 288,
		  "midi": 48,
		  "name": "C3",
		  "ticks": 395665,
		  "time": 386.3916015625,
		  "velocity": 0.3937007874015748
		},
		{
		  "duration": 0.375,
		  "durationTicks": 384,
		  "midi": 51,
		  "name": "D#3",
		  "ticks": 395953,
		  "time": 386.6728515625,
		  "velocity": 0.3937007874015748
		},
		{
		  "duration": 0.9375,
		  "durationTicks": 960,
		  "midi": 45,
		  "name": "A2",
		  "ticks": 396376,
		  "time": 387.0859375,
		  "velocity": 0.3937007874015748
		},
		{
		  "duration": 0.9375,
		  "durationTicks": 960,
		  "midi": 44,
		  "name": "G#2",
		  "ticks": 397297,
		  "time": 387.9853515625,
		  "velocity": 0.3937007874015748
		},
		{
		  "duration": 2.625,
		  "durationTicks": 2688,
		  "midi": 43,
		  "name": "G2",
		  "ticks": 398293,
		  "time": 388.9580078125,
		  "velocity": 0.3937007874015748
		},
		{
		  "duration": 2.625,
		  "durationTicks": 2688,
		  "midi": 31,
		  "name": "G1",
		  "ticks": 398293,
		  "time": 388.9580078125,
		  "velocity": 0.3937007874015748
		},
		{
		  "duration": 2.34375,
		  "durationTicks": 2400,
		  "midi": 44,
		  "name": "G#2",
		  "ticks": 400977,
		  "time": 391.5791015625,
		  "velocity": 0.3937007874015748
		},
		{
		  "duration": 2.34375,
		  "durationTicks": 2400,
		  "midi": 32,
		  "name": "G#1",
		  "ticks": 400977,
		  "time": 391.5791015625,
		  "velocity": 0.3937007874015748
		},
		{
		  "duration": 0.09375,
		  "durationTicks": 96,
		  "midi": 37,
		  "name": "C#2",
		  "ticks": 403413,
		  "time": 393.9580078125,
		  "velocity": 0.3937007874015748
		},
		{
		  "duration": 0.1875,
		  "durationTicks": 192,
		  "midi": 49,
		  "name": "C#3",
		  "ticks": 403425,
		  "time": 393.9697265625,
		  "velocity": 0.3937007874015748
		},
		{
		  "duration": 0.28125,
		  "durationTicks": 288,
		  "midi": 49,
		  "name": "C#3",
		  "ticks": 403521,
		  "time": 394.0634765625,
		  "velocity": 0.3937007874015748
		},
		{
		  "duration": 0.09375,
		  "durationTicks": 96,
		  "midi": 44,
		  "name": "G#2",
		  "ticks": 403617,
		  "time": 394.1572265625,
		  "velocity": 0.3937007874015748
		},
		{
		  "duration": 0.09375,
		  "durationTicks": 96,
		  "midi": 49,
		  "name": "C#3",
		  "ticks": 403713,
		  "time": 394.2509765625,
		  "velocity": 0.3937007874015748
		},
		{
		  "duration": 0.09375,
		  "durationTicks": 96,
		  "midi": 37,
		  "name": "C#2",
		  "ticks": 403809,
		  "time": 394.3447265625,
		  "velocity": 0.3937007874015748
		},
		{
		  "duration": 0.09375,
		  "durationTicks": 96,
		  "midi": 49,
		  "name": "C#3",
		  "ticks": 403905,
		  "time": 394.4384765625,
		  "velocity": 0.3937007874015748
		},
		{
		  "duration": 0.09375,
		  "durationTicks": 96,
		  "midi": 44,
		  "name": "G#2",
		  "ticks": 404001,
		  "time": 394.5322265625,
		  "velocity": 0.3937007874015748
		},
		{
		  "duration": 0.09375,
		  "durationTicks": 96,
		  "midi": 49,
		  "name": "C#3",
		  "ticks": 404097,
		  "time": 394.6259765625,
		  "velocity": 0.3937007874015748
		},
		{
		  "duration": 0.09375,
		  "durationTicks": 96,
		  "midi": 37,
		  "name": "C#2",
		  "ticks": 404197,
		  "time": 394.7236328125,
		  "velocity": 0.3937007874015748
		},
		{
		  "duration": 0.09375,
		  "durationTicks": 96,
		  "midi": 49,
		  "name": "C#3",
		  "ticks": 404293,
		  "time": 394.8173828125,
		  "velocity": 0.3937007874015748
		},
		{
		  "duration": 0.09375,
		  "durationTicks": 96,
		  "midi": 44,
		  "name": "G#2",
		  "ticks": 404389,
		  "time": 394.9111328125,
		  "velocity": 0.3937007874015748
		},
		{
		  "duration": 0.0947265625,
		  "durationTicks": 97,
		  "midi": 49,
		  "name": "C#3",
		  "ticks": 404481,
		  "time": 395.0009765625,
		  "velocity": 0.3937007874015748
		},
		{
		  "duration": 0.2822265625,
		  "durationTicks": 289,
		  "midi": 64,
		  "name": "E4",
		  "ticks": 404566,
		  "time": 395.083984375,
		  "velocity": 0.3937007874015748
		},
		{
		  "duration": 0.09375,
		  "durationTicks": 96,
		  "midi": 37,
		  "name": "C#2",
		  "ticks": 404578,
		  "time": 395.095703125,
		  "velocity": 0.3937007874015748
		},
		{
		  "duration": 0.09375,
		  "durationTicks": 96,
		  "midi": 49,
		  "name": "C#3",
		  "ticks": 404674,
		  "time": 395.189453125,
		  "velocity": 0.3937007874015748
		},
		{
		  "duration": 0.0947265625,
		  "durationTicks": 97,
		  "midi": 44,
		  "name": "G#2",
		  "ticks": 404770,
		  "time": 395.283203125,
		  "velocity": 0.3937007874015748
		},
		{
		  "duration": 0.0947265625,
		  "durationTicks": 97,
		  "midi": 61,
		  "name": "C#4",
		  "ticks": 404850,
		  "time": 395.361328125,
		  "velocity": 0.3937007874015748
		},
		{
		  "duration": 0.09375,
		  "durationTicks": 96,
		  "midi": 49,
		  "name": "C#3",
		  "ticks": 404867,
		  "time": 395.3779296875,
		  "velocity": 0.3937007874015748
		},
		{
		  "duration": 0.375,
		  "durationTicks": 384,
		  "midi": 60,
		  "name": "C4",
		  "ticks": 404963,
		  "time": 395.4716796875,
		  "velocity": 0.3937007874015748
		},
		{
		  "duration": 0.09375,
		  "durationTicks": 96,
		  "midi": 37,
		  "name": "C#2",
		  "ticks": 404963,
		  "time": 395.4716796875,
		  "velocity": 0.3937007874015748
		},
		{
		  "duration": 0.09375,
		  "durationTicks": 96,
		  "midi": 51,
		  "name": "D#3",
		  "ticks": 405059,
		  "time": 395.5654296875,
		  "velocity": 0.3937007874015748
		},
		{
		  "duration": 0.09375,
		  "durationTicks": 96,
		  "midi": 44,
		  "name": "G#2",
		  "ticks": 405155,
		  "time": 395.6591796875,
		  "velocity": 0.3937007874015748
		},
		{
		  "duration": 0.09375,
		  "durationTicks": 96,
		  "midi": 51,
		  "name": "D#3",
		  "ticks": 405251,
		  "time": 395.7529296875,
		  "velocity": 0.3937007874015748
		},
		{
		  "duration": 0.2822265625,
		  "durationTicks": 289,
		  "midi": 68,
		  "name": "G#4",
		  "ticks": 405335,
		  "time": 395.8349609375,
		  "velocity": 0.3937007874015748
		},
		{
		  "duration": 0.2822265625,
		  "durationTicks": 289,
		  "midi": 60,
		  "name": "C4",
		  "ticks": 405335,
		  "time": 395.8349609375,
		  "velocity": 0.3937007874015748
		},
		{
		  "duration": 0.2822265625,
		  "durationTicks": 289,
		  "midi": 54,
		  "name": "F#3",
		  "ticks": 405335,
		  "time": 395.8349609375,
		  "velocity": 0.3937007874015748
		},
		{
		  "duration": 0.09375,
		  "durationTicks": 96,
		  "midi": 37,
		  "name": "C#2",
		  "ticks": 405351,
		  "time": 395.8505859375,
		  "velocity": 0.3937007874015748
		},
		{
		  "duration": 0.09375,
		  "durationTicks": 96,
		  "midi": 51,
		  "name": "D#3",
		  "ticks": 405447,
		  "time": 395.9443359375,
		  "velocity": 0.3937007874015748
		},
		{
		  "duration": 0.0947265625,
		  "durationTicks": 97,
		  "midi": 44,
		  "name": "G#2",
		  "ticks": 405543,
		  "time": 396.0380859375,
		  "velocity": 0.3937007874015748
		},
		{
		  "duration": 0.0947265625,
		  "durationTicks": 97,
		  "midi": 51,
		  "name": "D#3",
		  "ticks": 405636,
		  "time": 396.12890625,
		  "velocity": 0.3937007874015748
		},
		{
		  "duration": 0.28125,
		  "durationTicks": 288,
		  "midi": 68,
		  "name": "G#4",
		  "ticks": 405721,
		  "time": 396.2119140625,
		  "velocity": 0.3937007874015748
		},
		{
		  "duration": 0.28125,
		  "durationTicks": 288,
		  "midi": 60,
		  "name": "C4",
		  "ticks": 405721,
		  "time": 396.2119140625,
		  "velocity": 0.3937007874015748
		},
		{
		  "duration": 0.28125,
		  "durationTicks": 288,
		  "midi": 54,
		  "name": "F#3",
		  "ticks": 405721,
		  "time": 396.2119140625,
		  "velocity": 0.3937007874015748
		},
		{
		  "duration": 0.09375,
		  "durationTicks": 96,
		  "midi": 37,
		  "name": "C#2",
		  "ticks": 405733,
		  "time": 396.2236328125,
		  "velocity": 0.3937007874015748
		},
		{
		  "duration": 0.09375,
		  "durationTicks": 96,
		  "midi": 51,
		  "name": "D#3",
		  "ticks": 405829,
		  "time": 396.3173828125,
		  "velocity": 0.3937007874015748
		},
		{
		  "duration": 0.09375,
		  "durationTicks": 96,
		  "midi": 44,
		  "name": "G#2",
		  "ticks": 405925,
		  "time": 396.4111328125,
		  "velocity": 0.3937007874015748
		},
		{
		  "duration": 0.09375,
		  "durationTicks": 96,
		  "midi": 51,
		  "name": "D#3",
		  "ticks": 406021,
		  "time": 396.5048828125,
		  "velocity": 0.3937007874015748
		},
		{
		  "duration": 0.2822265625,
		  "durationTicks": 289,
		  "midi": 68,
		  "name": "G#4",
		  "ticks": 406105,
		  "time": 396.5869140625,
		  "velocity": 0.3937007874015748
		},
		{
		  "duration": 0.2822265625,
		  "durationTicks": 289,
		  "midi": 60,
		  "name": "C4",
		  "ticks": 406105,
		  "time": 396.5869140625,
		  "velocity": 0.3937007874015748
		},
		{
		  "duration": 0.2822265625,
		  "durationTicks": 289,
		  "midi": 54,
		  "name": "F#3",
		  "ticks": 406105,
		  "time": 396.5869140625,
		  "velocity": 0.3937007874015748
		},
		{
		  "duration": 0.09375,
		  "durationTicks": 96,
		  "midi": 37,
		  "name": "C#2",
		  "ticks": 406117,
		  "time": 396.5986328125,
		  "velocity": 0.3937007874015748
		},
		{
		  "duration": 0.09375,
		  "durationTicks": 96,
		  "midi": 51,
		  "name": "D#3",
		  "ticks": 406213,
		  "time": 396.6923828125,
		  "velocity": 0.3937007874015748
		},
		{
		  "duration": 0.09375,
		  "durationTicks": 96,
		  "midi": 44,
		  "name": "G#2",
		  "ticks": 406313,
		  "time": 396.7900390625,
		  "velocity": 0.3937007874015748
		},
		{
		  "duration": 0.09375,
		  "durationTicks": 96,
		  "midi": 51,
		  "name": "D#3",
		  "ticks": 406409,
		  "time": 396.8837890625,
		  "velocity": 0.3937007874015748
		},
		{
		  "duration": 0.09375,
		  "durationTicks": 96,
		  "midi": 52,
		  "name": "E3",
		  "ticks": 406485,
		  "time": 396.9580078125,
		  "velocity": 0.3937007874015748
		},
		{
		  "duration": 0.09375,
		  "durationTicks": 96,
		  "midi": 37,
		  "name": "C#2",
		  "ticks": 406505,
		  "time": 396.9775390625,
		  "velocity": 0.3937007874015748
		},
		{
		  "duration": 0.09375,
		  "durationTicks": 96,
		  "midi": 61,
		  "name": "C#4",
		  "ticks": 406549,
		  "time": 397.0205078125,
		  "velocity": 0.3937007874015748
		},
		{
		  "duration": 0.09375,
		  "durationTicks": 96,
		  "midi": 49,
		  "name": "C#3",
		  "ticks": 406601,
		  "time": 397.0712890625,
		  "velocity": 0.3937007874015748
		},
		{
		  "duration": 1.03125,
		  "durationTicks": 1056,
		  "midi": 68,
		  "name": "G#4",
		  "ticks": 406617,
		  "time": 397.0869140625,
		  "velocity": 0.3937007874015748
		},
		{
		  "duration": 0.09375,
		  "durationTicks": 96,
		  "midi": 44,
		  "name": "G#2",
		  "ticks": 406693,
		  "time": 397.1611328125,
		  "velocity": 0.3937007874015748
		},
		{
		  "duration": 0.09375,
		  "durationTicks": 96,
		  "midi": 49,
		  "name": "C#3",
		  "ticks": 406789,
		  "time": 397.2548828125,
		  "velocity": 0.3937007874015748
		},
		{
		  "duration": 0.09375,
		  "durationTicks": 96,
		  "midi": 37,
		  "name": "C#2",
		  "ticks": 406885,
		  "time": 397.3486328125,
		  "velocity": 0.3937007874015748
		},
		{
		  "duration": 0.09375,
		  "durationTicks": 96,
		  "midi": 49,
		  "name": "C#3",
		  "ticks": 406981,
		  "time": 397.4423828125,
		  "velocity": 0.3937007874015748
		},
		{
		  "duration": 0.09375,
		  "durationTicks": 96,
		  "midi": 44,
		  "name": "G#2",
		  "ticks": 407077,
		  "time": 397.5361328125,
		  "velocity": 0.3937007874015748
		},
		{
		  "duration": 0.09375,
		  "durationTicks": 96,
		  "midi": 49,
		  "name": "C#3",
		  "ticks": 407173,
		  "time": 397.6298828125,
		  "velocity": 0.3937007874015748
		},
		{
		  "duration": 0.09375,
		  "durationTicks": 96,
		  "midi": 37,
		  "name": "C#2",
		  "ticks": 407269,
		  "time": 397.7236328125,
		  "velocity": 0.3937007874015748
		},
		{
		  "duration": 0.09375,
		  "durationTicks": 96,
		  "midi": 49,
		  "name": "C#3",
		  "ticks": 407369,
		  "time": 397.8212890625,
		  "velocity": 0.3937007874015748
		},
		{
		  "duration": 0.09375,
		  "durationTicks": 96,
		  "midi": 44,
		  "name": "G#2",
		  "ticks": 407465,
		  "time": 397.9150390625,
		  "velocity": 0.3937007874015748
		},
		{
		  "duration": 0.09375,
		  "durationTicks": 96,
		  "midi": 49,
		  "name": "C#3",
		  "ticks": 407561,
		  "time": 398.0087890625,
		  "velocity": 0.3937007874015748
		},
		{
		  "duration": 0.28125,
		  "durationTicks": 288,
		  "midi": 76,
		  "name": "E5",
		  "ticks": 407653,
		  "time": 398.0986328125,
		  "velocity": 0.3937007874015748
		},
		{
		  "duration": 0.09375,
		  "durationTicks": 96,
		  "midi": 37,
		  "name": "C#2",
		  "ticks": 407657,
		  "time": 398.1025390625,
		  "velocity": 0.3937007874015748
		},
		{
		  "duration": 0.09375,
		  "durationTicks": 96,
		  "midi": 49,
		  "name": "C#3",
		  "ticks": 407749,
		  "time": 398.1923828125,
		  "velocity": 0.3937007874015748
		},
		{
		  "duration": 0.09375,
		  "durationTicks": 96,
		  "midi": 44,
		  "name": "G#2",
		  "ticks": 407845,
		  "time": 398.2861328125,
		  "velocity": 0.3937007874015748
		},
		{
		  "duration": 0.09375,
		  "durationTicks": 96,
		  "midi": 73,
		  "name": "C#5",
		  "ticks": 407941,
		  "time": 398.3798828125,
		  "velocity": 0.3937007874015748
		},
		{
		  "duration": 0.09375,
		  "durationTicks": 96,
		  "midi": 49,
		  "name": "C#3",
		  "ticks": 407945,
		  "time": 398.3837890625,
		  "velocity": 0.3937007874015748
		},
		{
		  "duration": 0.375,
		  "durationTicks": 384,
		  "midi": 72,
		  "name": "C5",
		  "ticks": 408037,
		  "time": 398.4736328125,
		  "velocity": 0.3937007874015748
		},
		{
		  "duration": 0.09375,
		  "durationTicks": 96,
		  "midi": 37,
		  "name": "C#2",
		  "ticks": 408037,
		  "time": 398.4736328125,
		  "velocity": 0.3937007874015748
		},
		{
		  "duration": 0.09375,
		  "durationTicks": 96,
		  "midi": 51,
		  "name": "D#3",
		  "ticks": 408133,
		  "time": 398.5673828125,
		  "velocity": 0.3937007874015748
		},
		{
		  "duration": 0.09375,
		  "durationTicks": 96,
		  "midi": 44,
		  "name": "G#2",
		  "ticks": 408229,
		  "time": 398.6611328125,
		  "velocity": 0.3937007874015748
		},
		{
		  "duration": 0.09375,
		  "durationTicks": 96,
		  "midi": 51,
		  "name": "D#3",
		  "ticks": 408325,
		  "time": 398.7548828125,
		  "velocity": 0.3937007874015748
		},
		{
		  "duration": 0.28125,
		  "durationTicks": 288,
		  "midi": 66,
		  "name": "F#4",
		  "ticks": 408405,
		  "time": 398.8330078125,
		  "velocity": 0.3937007874015748
		},
		{
		  "duration": 0.28125,
		  "durationTicks": 288,
		  "midi": 72,
		  "name": "C5",
		  "ticks": 408405,
		  "time": 398.8330078125,
		  "velocity": 0.3937007874015748
		},
		{
		  "duration": 0.28125,
		  "durationTicks": 288,
		  "midi": 80,
		  "name": "G#5",
		  "ticks": 408405,
		  "time": 398.8330078125,
		  "velocity": 0.3937007874015748
		},
		{
		  "duration": 0.09375,
		  "durationTicks": 96,
		  "midi": 37,
		  "name": "C#2",
		  "ticks": 408421,
		  "time": 398.8486328125,
		  "velocity": 0.3937007874015748
		},
		{
		  "duration": 0.09375,
		  "durationTicks": 96,
		  "midi": 51,
		  "name": "D#3",
		  "ticks": 408521,
		  "time": 398.9462890625,
		  "velocity": 0.3937007874015748
		},
		{
		  "duration": 0.09375,
		  "durationTicks": 96,
		  "midi": 44,
		  "name": "G#2",
		  "ticks": 408617,
		  "time": 399.0400390625,
		  "velocity": 0.3937007874015748
		},
		{
		  "duration": 0.09375,
		  "durationTicks": 96,
		  "midi": 51,
		  "name": "D#3",
		  "ticks": 408713,
		  "time": 399.1337890625,
		  "velocity": 0.3937007874015748
		},
		{
		  "duration": 0.28125,
		  "durationTicks": 288,
		  "midi": 72,
		  "name": "C5",
		  "ticks": 408789,
		  "time": 399.2080078125,
		  "velocity": 0.3937007874015748
		},
		{
		  "duration": 0.28125,
		  "durationTicks": 288,
		  "midi": 66,
		  "name": "F#4",
		  "ticks": 408789,
		  "time": 399.2080078125,
		  "velocity": 0.3937007874015748
		},
		{
		  "duration": 0.28125,
		  "durationTicks": 288,
		  "midi": 80,
		  "name": "G#5",
		  "ticks": 408789,
		  "time": 399.2080078125,
		  "velocity": 0.3937007874015748
		},
		{
		  "duration": 0.09375,
		  "durationTicks": 96,
		  "midi": 37,
		  "name": "C#2",
		  "ticks": 408805,
		  "time": 399.2236328125,
		  "velocity": 0.3937007874015748
		},
		{
		  "duration": 0.09375,
		  "durationTicks": 96,
		  "midi": 51,
		  "name": "D#3",
		  "ticks": 408901,
		  "time": 399.3173828125,
		  "velocity": 0.3937007874015748
		},
		{
		  "duration": 0.09375,
		  "durationTicks": 96,
		  "midi": 44,
		  "name": "G#2",
		  "ticks": 408997,
		  "time": 399.4111328125,
		  "velocity": 0.3937007874015748
		},
		{
		  "duration": 0.09375,
		  "durationTicks": 96,
		  "midi": 51,
		  "name": "D#3",
		  "ticks": 409093,
		  "time": 399.5048828125,
		  "velocity": 0.3937007874015748
		},
		{
		  "duration": 0.28125,
		  "durationTicks": 288,
		  "midi": 80,
		  "name": "G#5",
		  "ticks": 409177,
		  "time": 399.5869140625,
		  "velocity": 0.3937007874015748
		},
		{
		  "duration": 0.28125,
		  "durationTicks": 288,
		  "midi": 72,
		  "name": "C5",
		  "ticks": 409177,
		  "time": 399.5869140625,
		  "velocity": 0.3937007874015748
		},
		{
		  "duration": 0.28125,
		  "durationTicks": 288,
		  "midi": 66,
		  "name": "F#4",
		  "ticks": 409177,
		  "time": 399.5869140625,
		  "velocity": 0.3937007874015748
		},
		{
		  "duration": 0.09375,
		  "durationTicks": 96,
		  "midi": 37,
		  "name": "C#2",
		  "ticks": 409189,
		  "time": 399.5986328125,
		  "velocity": 0.3937007874015748
		},
		{
		  "duration": 0.09375,
		  "durationTicks": 96,
		  "midi": 51,
		  "name": "D#3",
		  "ticks": 409285,
		  "time": 399.6923828125,
		  "velocity": 0.3937007874015748
		},
		{
		  "duration": 0.09375,
		  "durationTicks": 96,
		  "midi": 44,
		  "name": "G#2",
		  "ticks": 409381,
		  "time": 399.7861328125,
		  "velocity": 0.3937007874015748
		},
		{
		  "duration": 0.09375,
		  "durationTicks": 96,
		  "midi": 51,
		  "name": "D#3",
		  "ticks": 409477,
		  "time": 399.8798828125,
		  "velocity": 0.3937007874015748
		},
		{
		  "duration": 0.09375,
		  "durationTicks": 96,
		  "midi": 64,
		  "name": "E4",
		  "ticks": 409557,
		  "time": 399.9580078125,
		  "velocity": 0.3937007874015748
		},
		{
		  "duration": 0.09375,
		  "durationTicks": 96,
		  "midi": 37,
		  "name": "C#2",
		  "ticks": 409573,
		  "time": 399.9736328125,
		  "velocity": 0.3937007874015748
		},
		{
		  "duration": 0.09375,
		  "durationTicks": 96,
		  "midi": 73,
		  "name": "C#5",
		  "ticks": 409621,
		  "time": 400.0205078125,
		  "velocity": 0.3937007874015748
		},
		{
		  "duration": 0.09375,
		  "durationTicks": 96,
		  "midi": 49,
		  "name": "C#3",
		  "ticks": 409669,
		  "time": 400.0673828125,
		  "velocity": 0.3937007874015748
		},
		{
		  "duration": 0.65625,
		  "durationTicks": 672,
		  "midi": 80,
		  "name": "G#5",
		  "ticks": 409689,
		  "time": 400.0869140625,
		  "velocity": 0.3937007874015748
		},
		{
		  "duration": 0.09375,
		  "durationTicks": 96,
		  "midi": 44,
		  "name": "G#2",
		  "ticks": 409765,
		  "time": 400.1611328125,
		  "velocity": 0.3937007874015748
		},
		{
		  "duration": 0.09375,
		  "durationTicks": 96,
		  "midi": 49,
		  "name": "C#3",
		  "ticks": 409865,
		  "time": 400.2587890625,
		  "velocity": 0.3937007874015748
		},
		{
		  "duration": 0.09375,
		  "durationTicks": 96,
		  "midi": 37,
		  "name": "C#2",
		  "ticks": 409957,
		  "time": 400.3486328125,
		  "velocity": 0.3937007874015748
		},
		{
		  "duration": 0.09375,
		  "durationTicks": 96,
		  "midi": 49,
		  "name": "C#3",
		  "ticks": 410053,
		  "time": 400.4423828125,
		  "velocity": 0.3937007874015748
		},
		{
		  "duration": 0.09375,
		  "durationTicks": 96,
		  "midi": 44,
		  "name": "G#2",
		  "ticks": 410149,
		  "time": 400.5361328125,
		  "velocity": 0.3937007874015748
		},
		{
		  "duration": 0.09375,
		  "durationTicks": 96,
		  "midi": 49,
		  "name": "C#3",
		  "ticks": 410245,
		  "time": 400.6298828125,
		  "velocity": 0.3937007874015748
		},
		{
		  "duration": 0.09375,
		  "durationTicks": 96,
		  "midi": 66,
		  "name": "F#4",
		  "ticks": 410341,
		  "time": 400.7236328125,
		  "velocity": 0.3937007874015748
		},
		{
		  "duration": 0.09375,
		  "durationTicks": 96,
		  "midi": 37,
		  "name": "C#2",
		  "ticks": 410341,
		  "time": 400.7236328125,
		  "velocity": 0.3937007874015748
		},
		{
		  "duration": 0.09375,
		  "durationTicks": 96,
		  "midi": 72,
		  "name": "C5",
		  "ticks": 410389,
		  "time": 400.7705078125,
		  "velocity": 0.3937007874015748
		},
		{
		  "duration": 0.09375,
		  "durationTicks": 96,
		  "midi": 51,
		  "name": "D#3",
		  "ticks": 410437,
		  "time": 400.8173828125,
		  "velocity": 0.3937007874015748
		},
		{
		  "duration": 0.65625,
		  "durationTicks": 672,
		  "midi": 80,
		  "name": "G#5",
		  "ticks": 410453,
		  "time": 400.8330078125,
		  "velocity": 0.3937007874015748
		},
		{
		  "duration": 0.09375,
		  "durationTicks": 96,
		  "midi": 44,
		  "name": "G#2",
		  "ticks": 410533,
		  "time": 400.9111328125,
		  "velocity": 0.3937007874015748
		},
		{
		  "duration": 0.09375,
		  "durationTicks": 96,
		  "midi": 51,
		  "name": "D#3",
		  "ticks": 410633,
		  "time": 401.0087890625,
		  "velocity": 0.3937007874015748
		},
		{
		  "duration": 0.09375,
		  "durationTicks": 96,
		  "midi": 37,
		  "name": "C#2",
		  "ticks": 410729,
		  "time": 401.1025390625,
		  "velocity": 0.3937007874015748
		},
		{
		  "duration": 0.09375,
		  "durationTicks": 96,
		  "midi": 51,
		  "name": "D#3",
		  "ticks": 410825,
		  "time": 401.1962890625,
		  "velocity": 0.3937007874015748
		},
		{
		  "duration": 0.09375,
		  "durationTicks": 96,
		  "midi": 44,
		  "name": "G#2",
		  "ticks": 410921,
		  "time": 401.2900390625,
		  "velocity": 0.3937007874015748
		},
		{
		  "duration": 0.09375,
		  "durationTicks": 96,
		  "midi": 51,
		  "name": "D#3",
		  "ticks": 411017,
		  "time": 401.3837890625,
		  "velocity": 0.3937007874015748
		},
		{
		  "duration": 0.09375,
		  "durationTicks": 96,
		  "midi": 64,
		  "name": "E4",
		  "ticks": 411109,
		  "time": 401.4736328125,
		  "velocity": 0.3937007874015748
		},
		{
		  "duration": 0.09375,
		  "durationTicks": 96,
		  "midi": 37,
		  "name": "C#2",
		  "ticks": 411113,
		  "time": 401.4775390625,
		  "velocity": 0.3937007874015748
		},
		{
		  "duration": 0.09375,
		  "durationTicks": 96,
		  "midi": 73,
		  "name": "C#5",
		  "ticks": 411173,
		  "time": 401.5361328125,
		  "velocity": 0.3937007874015748
		},
		{
		  "duration": 0.09375,
		  "durationTicks": 96,
		  "midi": 49,
		  "name": "C#3",
		  "ticks": 411205,
		  "time": 401.5673828125,
		  "velocity": 0.3937007874015748
		},
		{
		  "duration": 0.65625,
		  "durationTicks": 672,
		  "midi": 80,
		  "name": "G#5",
		  "ticks": 411221,
		  "time": 401.5830078125,
		  "velocity": 0.3937007874015748
		},
		{
		  "duration": 0.09375,
		  "durationTicks": 96,
		  "midi": 44,
		  "name": "G#2",
		  "ticks": 411301,
		  "time": 401.6611328125,
		  "velocity": 0.3937007874015748
		},
		{
		  "duration": 0.09375,
		  "durationTicks": 96,
		  "midi": 49,
		  "name": "C#3",
		  "ticks": 411397,
		  "time": 401.7548828125,
		  "velocity": 0.3937007874015748
		},
		{
		  "duration": 0.09375,
		  "durationTicks": 96,
		  "midi": 37,
		  "name": "C#2",
		  "ticks": 411493,
		  "time": 401.8486328125,
		  "velocity": 0.3937007874015748
		},
		{
		  "duration": 0.09375,
		  "durationTicks": 96,
		  "midi": 49,
		  "name": "C#3",
		  "ticks": 411589,
		  "time": 401.9423828125,
		  "velocity": 0.3937007874015748
		},
		{
		  "duration": 0.09375,
		  "durationTicks": 96,
		  "midi": 44,
		  "name": "G#2",
		  "ticks": 411685,
		  "time": 402.0361328125,
		  "velocity": 0.3937007874015748
		},
		{
		  "duration": 0.09375,
		  "durationTicks": 96,
		  "midi": 49,
		  "name": "C#3",
		  "ticks": 411785,
		  "time": 402.1337890625,
		  "velocity": 0.3937007874015748
		},
		{
		  "duration": 0.09375,
		  "durationTicks": 96,
		  "midi": 37,
		  "name": "C#2",
		  "ticks": 411881,
		  "time": 402.2275390625,
		  "velocity": 0.3937007874015748
		},
		{
		  "duration": 0.09375,
		  "durationTicks": 96,
		  "midi": 66,
		  "name": "F#4",
		  "ticks": 411893,
		  "time": 402.2392578125,
		  "velocity": 0.3937007874015748
		},
		{
		  "duration": 0.09375,
		  "durationTicks": 96,
		  "midi": 72,
		  "name": "C5",
		  "ticks": 411941,
		  "time": 402.2861328125,
		  "velocity": 0.3937007874015748
		},
		{
		  "duration": 0.09375,
		  "durationTicks": 96,
		  "midi": 51,
		  "name": "D#3",
		  "ticks": 411973,
		  "time": 402.3173828125,
		  "velocity": 0.3937007874015748
		},
		{
		  "duration": 0.6572265625,
		  "durationTicks": 673,
		  "midi": 80,
		  "name": "G#5",
		  "ticks": 412004,
		  "time": 402.34765625,
		  "velocity": 0.3937007874015748
		},
		{
		  "duration": 0.09375,
		  "durationTicks": 96,
		  "midi": 44,
		  "name": "G#2",
		  "ticks": 412073,
		  "time": 402.4150390625,
		  "velocity": 0.3937007874015748
		},
		{
		  "duration": 0.09375,
		  "durationTicks": 96,
		  "midi": 51,
		  "name": "D#3",
		  "ticks": 412165,
		  "time": 402.5048828125,
		  "velocity": 0.3937007874015748
		},
		{
		  "duration": 0.09375,
		  "durationTicks": 96,
		  "midi": 37,
		  "name": "C#2",
		  "ticks": 412261,
		  "time": 402.5986328125,
		  "velocity": 0.3937007874015748
		},
		{
		  "duration": 0.09375,
		  "durationTicks": 96,
		  "midi": 51,
		  "name": "D#3",
		  "ticks": 412357,
		  "time": 402.6923828125,
		  "velocity": 0.3937007874015748
		},
		{
		  "duration": 0.09375,
		  "durationTicks": 96,
		  "midi": 44,
		  "name": "G#2",
		  "ticks": 412453,
		  "time": 402.7861328125,
		  "velocity": 0.3937007874015748
		},
		{
		  "duration": 0.09375,
		  "durationTicks": 96,
		  "midi": 51,
		  "name": "D#3",
		  "ticks": 412549,
		  "time": 402.8798828125,
		  "velocity": 0.3937007874015748
		},
		{
		  "duration": 0.0947265625,
		  "durationTicks": 97,
		  "midi": 64,
		  "name": "E4",
		  "ticks": 412637,
		  "time": 402.9658203125,
		  "velocity": 0.3937007874015748
		},
		{
		  "duration": 0.1875,
		  "durationTicks": 192,
		  "midi": 37,
		  "name": "C#2",
		  "ticks": 412637,
		  "time": 402.9658203125,
		  "velocity": 0.3937007874015748
		},
		{
		  "duration": 0.1875,
		  "durationTicks": 192,
		  "midi": 44,
		  "name": "G#2",
		  "ticks": 412637,
		  "time": 402.9658203125,
		  "velocity": 0.3937007874015748
		},
		{
		  "duration": 0.1875,
		  "durationTicks": 192,
		  "midi": 49,
		  "name": "C#3",
		  "ticks": 412637,
		  "time": 402.9658203125,
		  "velocity": 0.3937007874015748
		},
		{
		  "duration": 0.09375,
		  "durationTicks": 96,
		  "midi": 73,
		  "name": "C#5",
		  "ticks": 412701,
		  "time": 403.0283203125,
		  "velocity": 0.3937007874015748
		},
		{
		  "duration": 0.0927734375,
		  "durationTicks": 95,
		  "midi": 80,
		  "name": "G#5",
		  "ticks": 412749,
		  "time": 403.0751953125,
		  "velocity": 0.3937007874015748
		},
		{
		  "duration": 0.09375,
		  "durationTicks": 96,
		  "midi": 64,
		  "name": "E4",
		  "ticks": 412813,
		  "time": 403.1376953125,
		  "velocity": 0.3937007874015748
		},
		{
		  "duration": 0.09375,
		  "durationTicks": 96,
		  "midi": 52,
		  "name": "E3",
		  "ticks": 412813,
		  "time": 403.1376953125,
		  "velocity": 0.3937007874015748
		},
		{
		  "duration": 0.09375,
		  "durationTicks": 96,
		  "midi": 56,
		  "name": "G#3",
		  "ticks": 412901,
		  "time": 403.2236328125,
		  "velocity": 0.3937007874015748
		},
		{
		  "duration": 0.09375,
		  "durationTicks": 96,
		  "midi": 68,
		  "name": "G#4",
		  "ticks": 412913,
		  "time": 403.2353515625,
		  "velocity": 0.3937007874015748
		},
		{
		  "duration": 0.09375,
		  "durationTicks": 96,
		  "midi": 73,
		  "name": "C#5",
		  "ticks": 413009,
		  "time": 403.3291015625,
		  "velocity": 0.3937007874015748
		},
		{
		  "duration": 0.09375,
		  "durationTicks": 96,
		  "midi": 61,
		  "name": "C#4",
		  "ticks": 413009,
		  "time": 403.3291015625,
		  "velocity": 0.3937007874015748
		},
		{
		  "duration": 0.09375,
		  "durationTicks": 96,
		  "midi": 76,
		  "name": "E5",
		  "ticks": 413105,
		  "time": 403.4228515625,
		  "velocity": 0.3937007874015748
		},
		{
		  "duration": 0.09375,
		  "durationTicks": 96,
		  "midi": 64,
		  "name": "E4",
		  "ticks": 413105,
		  "time": 403.4228515625,
		  "velocity": 0.3937007874015748
		},
		{
		  "duration": 0.09375,
		  "durationTicks": 96,
		  "midi": 68,
		  "name": "G#4",
		  "ticks": 413197,
		  "time": 403.5126953125,
		  "velocity": 0.3937007874015748
		},
		{
		  "duration": 0.09375,
		  "durationTicks": 96,
		  "midi": 56,
		  "name": "G#3",
		  "ticks": 413201,
		  "time": 403.5166015625,
		  "velocity": 0.3937007874015748
		},
		{
		  "duration": 0.09375,
		  "durationTicks": 96,
		  "midi": 73,
		  "name": "C#5",
		  "ticks": 413293,
		  "time": 403.6064453125,
		  "velocity": 0.3937007874015748
		},
		{
		  "duration": 0.09375,
		  "durationTicks": 96,
		  "midi": 61,
		  "name": "C#4",
		  "ticks": 413297,
		  "time": 403.6103515625,
		  "velocity": 0.3937007874015748
		},
		{
		  "duration": 0.09375,
		  "durationTicks": 96,
		  "midi": 76,
		  "name": "E5",
		  "ticks": 413389,
		  "time": 403.7001953125,
		  "velocity": 0.3937007874015748
		},
		{
		  "duration": 0.09375,
		  "durationTicks": 96,
		  "midi": 64,
		  "name": "E4",
		  "ticks": 413393,
		  "time": 403.7041015625,
		  "velocity": 0.3937007874015748
		},
		{
		  "duration": 0.09375,
		  "durationTicks": 96,
		  "midi": 80,
		  "name": "G#5",
		  "ticks": 413485,
		  "time": 403.7939453125,
		  "velocity": 0.3937007874015748
		},
		{
		  "duration": 0.09375,
		  "durationTicks": 96,
		  "midi": 68,
		  "name": "G#4",
		  "ticks": 413489,
		  "time": 403.7978515625,
		  "velocity": 0.3937007874015748
		},
		{
		  "duration": 0.09375,
		  "durationTicks": 96,
		  "midi": 73,
		  "name": "C#5",
		  "ticks": 413581,
		  "time": 403.8876953125,
		  "velocity": 0.3937007874015748
		},
		{
		  "duration": 0.09375,
		  "durationTicks": 96,
		  "midi": 61,
		  "name": "C#4",
		  "ticks": 413581,
		  "time": 403.8876953125,
		  "velocity": 0.3937007874015748
		},
		{
		  "duration": 0.09375,
		  "durationTicks": 96,
		  "midi": 76,
		  "name": "E5",
		  "ticks": 413677,
		  "time": 403.9814453125,
		  "velocity": 0.3937007874015748
		},
		{
		  "duration": 0.09375,
		  "durationTicks": 96,
		  "midi": 64,
		  "name": "E4",
		  "ticks": 413677,
		  "time": 403.9814453125,
		  "velocity": 0.3937007874015748
		},
		{
		  "duration": 0.09375,
		  "durationTicks": 96,
		  "midi": 80,
		  "name": "G#5",
		  "ticks": 413773,
		  "time": 404.0751953125,
		  "velocity": 0.3937007874015748
		},
		{
		  "duration": 0.09375,
		  "durationTicks": 96,
		  "midi": 68,
		  "name": "G#4",
		  "ticks": 413773,
		  "time": 404.0751953125,
		  "velocity": 0.3937007874015748
		},
		{
		  "duration": 0.09375,
		  "durationTicks": 96,
		  "midi": 85,
		  "name": "C#6",
		  "ticks": 413869,
		  "time": 404.1689453125,
		  "velocity": 0.3937007874015748
		},
		{
		  "duration": 0.09375,
		  "durationTicks": 96,
		  "midi": 73,
		  "name": "C#5",
		  "ticks": 413869,
		  "time": 404.1689453125,
		  "velocity": 0.3937007874015748
		},
		{
		  "duration": 0.09375,
		  "durationTicks": 96,
		  "midi": 76,
		  "name": "E5",
		  "ticks": 413965,
		  "time": 404.2626953125,
		  "velocity": 0.3937007874015748
		},
		{
		  "duration": 0.09375,
		  "durationTicks": 96,
		  "midi": 64,
		  "name": "E4",
		  "ticks": 413965,
		  "time": 404.2626953125,
		  "velocity": 0.3937007874015748
		},
		{
		  "duration": 0.09375,
		  "durationTicks": 96,
		  "midi": 80,
		  "name": "G#5",
		  "ticks": 414065,
		  "time": 404.3603515625,
		  "velocity": 0.3937007874015748
		},
		{
		  "duration": 0.09375,
		  "durationTicks": 96,
		  "midi": 68,
		  "name": "G#4",
		  "ticks": 414065,
		  "time": 404.3603515625,
		  "velocity": 0.3937007874015748
		},
		{
		  "duration": 0.09375,
		  "durationTicks": 96,
		  "midi": 85,
		  "name": "C#6",
		  "ticks": 414161,
		  "time": 404.4541015625,
		  "velocity": 0.3937007874015748
		},
		{
		  "duration": 0.09375,
		  "durationTicks": 96,
		  "midi": 73,
		  "name": "C#5",
		  "ticks": 414161,
		  "time": 404.4541015625,
		  "velocity": 0.3937007874015748
		},
		{
		  "duration": 0.09375,
		  "durationTicks": 96,
		  "midi": 88,
		  "name": "E6",
		  "ticks": 414253,
		  "time": 404.5439453125,
		  "velocity": 0.3937007874015748
		},
		{
		  "duration": 0.09375,
		  "durationTicks": 96,
		  "midi": 76,
		  "name": "E5",
		  "ticks": 414257,
		  "time": 404.5478515625,
		  "velocity": 0.3937007874015748
		},
		{
		  "duration": 0.09375,
		  "durationTicks": 96,
		  "midi": 85,
		  "name": "C#6",
		  "ticks": 414349,
		  "time": 404.6376953125,
		  "velocity": 0.3937007874015748
		},
		{
		  "duration": 0.09375,
		  "durationTicks": 96,
		  "midi": 73,
		  "name": "C#5",
		  "ticks": 414353,
		  "time": 404.6416015625,
		  "velocity": 0.3937007874015748
		},
		{
		  "duration": 0.09375,
		  "durationTicks": 96,
		  "midi": 80,
		  "name": "G#5",
		  "ticks": 414445,
		  "time": 404.7314453125,
		  "velocity": 0.3937007874015748
		},
		{
		  "duration": 0.09375,
		  "durationTicks": 96,
		  "midi": 68,
		  "name": "G#4",
		  "ticks": 414449,
		  "time": 404.7353515625,
		  "velocity": 0.3937007874015748
		},
		{
		  "duration": 0.09375,
		  "durationTicks": 96,
		  "midi": 76,
		  "name": "E5",
		  "ticks": 414541,
		  "time": 404.8251953125,
		  "velocity": 0.3937007874015748
		},
		{
		  "duration": 0.09375,
		  "durationTicks": 96,
		  "midi": 64,
		  "name": "E4",
		  "ticks": 414545,
		  "time": 404.8291015625,
		  "velocity": 0.3937007874015748
		},
		{
		  "duration": 0.09375,
		  "durationTicks": 96,
		  "midi": 85,
		  "name": "C#6",
		  "ticks": 414637,
		  "time": 404.9189453125,
		  "velocity": 0.3937007874015748
		},
		{
		  "duration": 0.09375,
		  "durationTicks": 96,
		  "midi": 73,
		  "name": "C#5",
		  "ticks": 414637,
		  "time": 404.9189453125,
		  "velocity": 0.3937007874015748
		},
		{
		  "duration": 0.09375,
		  "durationTicks": 96,
		  "midi": 80,
		  "name": "G#5",
		  "ticks": 414733,
		  "time": 405.0126953125,
		  "velocity": 0.3937007874015748
		},
		{
		  "duration": 0.09375,
		  "durationTicks": 96,
		  "midi": 68,
		  "name": "G#4",
		  "ticks": 414733,
		  "time": 405.0126953125,
		  "velocity": 0.3937007874015748
		},
		{
		  "duration": 0.09375,
		  "durationTicks": 96,
		  "midi": 76,
		  "name": "E5",
		  "ticks": 414829,
		  "time": 405.1064453125,
		  "velocity": 0.3937007874015748
		},
		{
		  "duration": 0.09375,
		  "durationTicks": 96,
		  "midi": 64,
		  "name": "E4",
		  "ticks": 414829,
		  "time": 405.1064453125,
		  "velocity": 0.3937007874015748
		},
		{
		  "duration": 0.09375,
		  "durationTicks": 96,
		  "midi": 73,
		  "name": "C#5",
		  "ticks": 414925,
		  "time": 405.2001953125,
		  "velocity": 0.3937007874015748
		},
		{
		  "duration": 0.09375,
		  "durationTicks": 96,
		  "midi": 61,
		  "name": "C#4",
		  "ticks": 414925,
		  "time": 405.2001953125,
		  "velocity": 0.3937007874015748
		},
		{
		  "duration": 0.09375,
		  "durationTicks": 96,
		  "midi": 80,
		  "name": "G#5",
		  "ticks": 415021,
		  "time": 405.2939453125,
		  "velocity": 0.3937007874015748
		},
		{
		  "duration": 0.09375,
		  "durationTicks": 96,
		  "midi": 68,
		  "name": "G#4",
		  "ticks": 415021,
		  "time": 405.2939453125,
		  "velocity": 0.3937007874015748
		},
		{
		  "duration": 0.09375,
		  "durationTicks": 96,
		  "midi": 76,
		  "name": "E5",
		  "ticks": 415121,
		  "time": 405.3916015625,
		  "velocity": 0.3937007874015748
		},
		{
		  "duration": 0.09375,
		  "durationTicks": 96,
		  "midi": 64,
		  "name": "E4",
		  "ticks": 415121,
		  "time": 405.3916015625,
		  "velocity": 0.3937007874015748
		},
		{
		  "duration": 0.09375,
		  "durationTicks": 96,
		  "midi": 73,
		  "name": "C#5",
		  "ticks": 415217,
		  "time": 405.4853515625,
		  "velocity": 0.3937007874015748
		},
		{
		  "duration": 0.09375,
		  "durationTicks": 96,
		  "midi": 61,
		  "name": "C#4",
		  "ticks": 415217,
		  "time": 405.4853515625,
		  "velocity": 0.3937007874015748
		},
		{
		  "duration": 0.09375,
		  "durationTicks": 96,
		  "midi": 68,
		  "name": "G#4",
		  "ticks": 415309,
		  "time": 405.5751953125,
		  "velocity": 0.3937007874015748
		},
		{
		  "duration": 0.09375,
		  "durationTicks": 96,
		  "midi": 56,
		  "name": "G#3",
		  "ticks": 415313,
		  "time": 405.5791015625,
		  "velocity": 0.3937007874015748
		},
		{
		  "duration": 0.09375,
		  "durationTicks": 96,
		  "midi": 76,
		  "name": "E5",
		  "ticks": 415409,
		  "time": 405.6728515625,
		  "velocity": 0.3937007874015748
		},
		{
		  "duration": 0.09375,
		  "durationTicks": 96,
		  "midi": 64,
		  "name": "E4",
		  "ticks": 415409,
		  "time": 405.6728515625,
		  "velocity": 0.3937007874015748
		},
		{
		  "duration": 0.09375,
		  "durationTicks": 96,
		  "midi": 73,
		  "name": "C#5",
		  "ticks": 415501,
		  "time": 405.7626953125,
		  "velocity": 0.3937007874015748
		},
		{
		  "duration": 0.09375,
		  "durationTicks": 96,
		  "midi": 61,
		  "name": "C#4",
		  "ticks": 415505,
		  "time": 405.7666015625,
		  "velocity": 0.3937007874015748
		},
		{
		  "duration": 0.09375,
		  "durationTicks": 96,
		  "midi": 68,
		  "name": "G#4",
		  "ticks": 415597,
		  "time": 405.8564453125,
		  "velocity": 0.3937007874015748
		},
		{
		  "duration": 0.09375,
		  "durationTicks": 96,
		  "midi": 56,
		  "name": "G#3",
		  "ticks": 415601,
		  "time": 405.8603515625,
		  "velocity": 0.3937007874015748
		},
		{
		  "duration": 0.09375,
		  "durationTicks": 96,
		  "midi": 64,
		  "name": "E4",
		  "ticks": 415693,
		  "time": 405.9501953125,
		  "velocity": 0.3937007874015748
		},
		{
		  "duration": 0.09375,
		  "durationTicks": 96,
		  "midi": 52,
		  "name": "E3",
		  "ticks": 415697,
		  "time": 405.9541015625,
		  "velocity": 0.3937007874015748
		},
		{
		  "duration": 0.09375,
		  "durationTicks": 96,
		  "midi": 73,
		  "name": "C#5",
		  "ticks": 415789,
		  "time": 406.0439453125,
		  "velocity": 0.3937007874015748
		},
		{
		  "duration": 0.09375,
		  "durationTicks": 96,
		  "midi": 61,
		  "name": "C#4",
		  "ticks": 415789,
		  "time": 406.0439453125,
		  "velocity": 0.3937007874015748
		},
		{
		  "duration": 0.09375,
		  "durationTicks": 96,
		  "midi": 68,
		  "name": "G#4",
		  "ticks": 415885,
		  "time": 406.1376953125,
		  "velocity": 0.3937007874015748
		},
		{
		  "duration": 0.09375,
		  "durationTicks": 96,
		  "midi": 56,
		  "name": "G#3",
		  "ticks": 415885,
		  "time": 406.1376953125,
		  "velocity": 0.3937007874015748
		},
		{
		  "duration": 0.09375,
		  "durationTicks": 96,
		  "midi": 64,
		  "name": "E4",
		  "ticks": 415981,
		  "time": 406.2314453125,
		  "velocity": 0.3937007874015748
		},
		{
		  "duration": 0.09375,
		  "durationTicks": 96,
		  "midi": 52,
		  "name": "E3",
		  "ticks": 415981,
		  "time": 406.2314453125,
		  "velocity": 0.3937007874015748
		},
		{
		  "duration": 0.09375,
		  "durationTicks": 96,
		  "midi": 61,
		  "name": "C#4",
		  "ticks": 416077,
		  "time": 406.3251953125,
		  "velocity": 0.3937007874015748
		},
		{
		  "duration": 0.09375,
		  "durationTicks": 96,
		  "midi": 49,
		  "name": "C#3",
		  "ticks": 416077,
		  "time": 406.3251953125,
		  "velocity": 0.3937007874015748
		},
		{
		  "duration": 0.09375,
		  "durationTicks": 96,
		  "midi": 68,
		  "name": "G#4",
		  "ticks": 416177,
		  "time": 406.4228515625,
		  "velocity": 0.3937007874015748
		},
		{
		  "duration": 0.09375,
		  "durationTicks": 96,
		  "midi": 56,
		  "name": "G#3",
		  "ticks": 416177,
		  "time": 406.4228515625,
		  "velocity": 0.3937007874015748
		},
		{
		  "duration": 0.09375,
		  "durationTicks": 96,
		  "midi": 64,
		  "name": "E4",
		  "ticks": 416273,
		  "time": 406.5166015625,
		  "velocity": 0.3937007874015748
		},
		{
		  "duration": 0.09375,
		  "durationTicks": 96,
		  "midi": 52,
		  "name": "E3",
		  "ticks": 416273,
		  "time": 406.5166015625,
		  "velocity": 0.3937007874015748
		},
		{
		  "duration": 0.09375,
		  "durationTicks": 96,
		  "midi": 61,
		  "name": "C#4",
		  "ticks": 416369,
		  "time": 406.6103515625,
		  "velocity": 0.3937007874015748
		},
		{
		  "duration": 0.09375,
		  "durationTicks": 96,
		  "midi": 49,
		  "name": "C#3",
		  "ticks": 416369,
		  "time": 406.6103515625,
		  "velocity": 0.3937007874015748
		},
		{
		  "duration": 0.09375,
		  "durationTicks": 96,
		  "midi": 56,
		  "name": "G#3",
		  "ticks": 416461,
		  "time": 406.7001953125,
		  "velocity": 0.3937007874015748
		},
		{
		  "duration": 0.09375,
		  "durationTicks": 96,
		  "midi": 44,
		  "name": "G#2",
		  "ticks": 416465,
		  "time": 406.7041015625,
		  "velocity": 0.3937007874015748
		},
		{
		  "duration": 0.09375,
		  "durationTicks": 96,
		  "midi": 64,
		  "name": "E4",
		  "ticks": 416557,
		  "time": 406.7939453125,
		  "velocity": 0.3937007874015748
		},
		{
		  "duration": 0.09375,
		  "durationTicks": 96,
		  "midi": 52,
		  "name": "E3",
		  "ticks": 416561,
		  "time": 406.7978515625,
		  "velocity": 0.3937007874015748
		},
		{
		  "duration": 0.09375,
		  "durationTicks": 96,
		  "midi": 61,
		  "name": "C#4",
		  "ticks": 416653,
		  "time": 406.8876953125,
		  "velocity": 0.3937007874015748
		},
		{
		  "duration": 0.09375,
		  "durationTicks": 96,
		  "midi": 49,
		  "name": "C#3",
		  "ticks": 416657,
		  "time": 406.8916015625,
		  "velocity": 0.3937007874015748
		},
		{
		  "duration": 0.09375,
		  "durationTicks": 96,
		  "midi": 56,
		  "name": "G#3",
		  "ticks": 416749,
		  "time": 406.9814453125,
		  "velocity": 0.3937007874015748
		},
		{
		  "duration": 0.09375,
		  "durationTicks": 96,
		  "midi": 44,
		  "name": "G#2",
		  "ticks": 416753,
		  "time": 406.9853515625,
		  "velocity": 0.3937007874015748
		},
		{
		  "duration": 0.09375,
		  "durationTicks": 96,
		  "midi": 52,
		  "name": "E3",
		  "ticks": 416845,
		  "time": 407.0751953125,
		  "velocity": 0.3937007874015748
		},
		{
		  "duration": 0.09375,
		  "durationTicks": 96,
		  "midi": 40,
		  "name": "E2",
		  "ticks": 416849,
		  "time": 407.0791015625,
		  "velocity": 0.3937007874015748
		},
		{
		  "duration": 0.09375,
		  "durationTicks": 96,
		  "midi": 61,
		  "name": "C#4",
		  "ticks": 416941,
		  "time": 407.1689453125,
		  "velocity": 0.3937007874015748
		},
		{
		  "duration": 0.09375,
		  "durationTicks": 96,
		  "midi": 49,
		  "name": "C#3",
		  "ticks": 416941,
		  "time": 407.1689453125,
		  "velocity": 0.3937007874015748
		},
		{
		  "duration": 0.09375,
		  "durationTicks": 96,
		  "midi": 56,
		  "name": "G#3",
		  "ticks": 417037,
		  "time": 407.2626953125,
		  "velocity": 0.3937007874015748
		},
		{
		  "duration": 0.09375,
		  "durationTicks": 96,
		  "midi": 44,
		  "name": "G#2",
		  "ticks": 417037,
		  "time": 407.2626953125,
		  "velocity": 0.3937007874015748
		},
		{
		  "duration": 0.09375,
		  "durationTicks": 96,
		  "midi": 52,
		  "name": "E3",
		  "ticks": 417133,
		  "time": 407.3564453125,
		  "velocity": 0.3937007874015748
		},
		{
		  "duration": 0.09375,
		  "durationTicks": 96,
		  "midi": 40,
		  "name": "E2",
		  "ticks": 417133,
		  "time": 407.3564453125,
		  "velocity": 0.3937007874015748
		},
		{
		  "duration": 0.09375,
		  "durationTicks": 96,
		  "midi": 56,
		  "name": "G#3",
		  "ticks": 417229,
		  "time": 407.4501953125,
		  "velocity": 0.3937007874015748
		},
		{
		  "duration": 0.09375,
		  "durationTicks": 96,
		  "midi": 44,
		  "name": "G#2",
		  "ticks": 417229,
		  "time": 407.4501953125,
		  "velocity": 0.3937007874015748
		},
		{
		  "duration": 0.375,
		  "durationTicks": 384,
		  "midi": 49,
		  "name": "C#3",
		  "ticks": 417333,
		  "time": 407.5517578125,
		  "velocity": 0.3937007874015748
		},
		{
		  "duration": 0.375,
		  "durationTicks": 384,
		  "midi": 37,
		  "name": "C#2",
		  "ticks": 417333,
		  "time": 407.5517578125,
		  "velocity": 0.3937007874015748
		},
		{
		  "duration": 0.28125,
		  "durationTicks": 288,
		  "midi": 73,
		  "name": "C#5",
		  "ticks": 418178,
		  "time": 408.376953125,
		  "velocity": 0.3937007874015748
		},
		{
		  "duration": 0.28125,
		  "durationTicks": 288,
		  "midi": 76,
		  "name": "E5",
		  "ticks": 418178,
		  "time": 408.376953125,
		  "velocity": 0.3937007874015748
		},
		{
		  "duration": 0.28125,
		  "durationTicks": 288,
		  "midi": 80,
		  "name": "G#5",
		  "ticks": 418178,
		  "time": 408.376953125,
		  "velocity": 0.3937007874015748
		},
		{
		  "duration": 0.28125,
		  "durationTicks": 288,
		  "midi": 85,
		  "name": "C#6",
		  "ticks": 418178,
		  "time": 408.376953125,
		  "velocity": 0.3937007874015748
		},
		{
		  "duration": 0.28125,
		  "durationTicks": 288,
		  "midi": 37,
		  "name": "C#2",
		  "ticks": 418178,
		  "time": 408.376953125,
		  "velocity": 0.3937007874015748
		},
		{
		  "duration": 0.28125,
		  "durationTicks": 288,
		  "midi": 40,
		  "name": "E2",
		  "ticks": 418178,
		  "time": 408.376953125,
		  "velocity": 0.3937007874015748
		},
		{
		  "duration": 0.28125,
		  "durationTicks": 288,
		  "midi": 44,
		  "name": "G#2",
		  "ticks": 418178,
		  "time": 408.376953125,
		  "velocity": 0.3937007874015748
		},
		{
		  "duration": 0.28125,
		  "durationTicks": 288,
		  "midi": 49,
		  "name": "C#3",
		  "ticks": 418178,
		  "time": 408.376953125,
		  "velocity": 0.3937007874015748
		},
		{
		  "duration": 0.28125,
		  "durationTicks": 288,
		  "midi": 61,
		  "name": "C#4",
		  "ticks": 418946,
		  "time": 409.126953125,
		  "velocity": 0.3937007874015748
		},
		{
		  "duration": 0.28125,
		  "durationTicks": 288,
		  "midi": 64,
		  "name": "E4",
		  "ticks": 418946,
		  "time": 409.126953125,
		  "velocity": 0.3937007874015748
		},
		{
		  "duration": 0.28125,
		  "durationTicks": 288,
		  "midi": 68,
		  "name": "G#4",
		  "ticks": 418946,
		  "time": 409.126953125,
		  "velocity": 0.3937007874015748
		},
		{
		  "duration": 0.28125,
		  "durationTicks": 288,
		  "midi": 73,
		  "name": "C#5",
		  "ticks": 418946,
		  "time": 409.126953125,
		  "velocity": 0.3937007874015748
		},
		{
		  "duration": 0.28125,
		  "durationTicks": 288,
		  "midi": 37,
		  "name": "C#2",
		  "ticks": 418946,
		  "time": 409.126953125,
		  "velocity": 0.3937007874015748
		},
		{
		  "duration": 0.28125,
		  "durationTicks": 288,
		  "midi": 40,
		  "name": "E2",
		  "ticks": 418946,
		  "time": 409.126953125,
		  "velocity": 0.3937007874015748
		},
		{
		  "duration": 0.28125,
		  "durationTicks": 288,
		  "midi": 44,
		  "name": "G#2",
		  "ticks": 418946,
		  "time": 409.126953125,
		  "velocity": 0.3937007874015748
		},
		{
		  "duration": 0.28125,
		  "durationTicks": 288,
		  "midi": 49,
		  "name": "C#3",
		  "ticks": 418946,
		  "time": 409.126953125,
		  "velocity": 0.3937007874015748
		}
	  ],
	  "endOfTrackTicks": 419234
	}
  ]
}
