{
  "header": {
	"keySignatures": [],
	"meta": [],
	"name": "Electric Piano",
	"ppq": 384,
	"tempos": [
	  {
		"bpm": 110.00011000011,
		"ticks": 0
	  }
	],
	"timeSignatures": [
	  {
		"ticks": 0,
		"timeSignature": [
		  4,
		  4
		],
		"measures": 0
	  }
	]
  },
  "tracks": [
	{
	  "channel": 0,
	  "controlChanges": {},
	  "pitchBends": [],
	  "instrument": {
		"family": "piano",
		"number": 0,
		"name": "acoustic grand piano"
	  },
	  "name": "Electric Piano",
	  "notes": [
		{
		  "duration": 0.272727,
		  "durationTicks": 192,
		  "midi": 53,
		  "name": "F3",
		  "ticks": 0,
		  "time": 0,
		  "velocity": 0.3937007874015748
		},
		{
		  "duration": 0.272727,
		  "durationTicks": 192,
		  "midi": 57,
		  "name": "A3",
		  "ticks": 192,
		  "time": 0.272727,
		  "velocity": 0.3937007874015748
		},
		{
		  "duration": 0.27272700000000005,
		  "durationTicks": 192,
		  "midi": 53,
		  "name": "F3",
		  "ticks": 384,
		  "time": 0.545454,
		  "velocity": 0.3937007874015748
		},
		{
		  "duration": 0.27272699999999994,
		  "durationTicks": 192,
		  "midi": 57,
		  "name": "A3",
		  "ticks": 576,
		  "time": 0.818181,
		  "velocity": 0.3937007874015748
		},
		{
		  "duration": 0.27272699999999994,
		  "durationTicks": 192,
		  "midi": 53,
		  "name": "F3",
		  "ticks": 768,
		  "time": 1.090908,
		  "velocity": 0.3937007874015748
		},
		{
		  "duration": 0.5454539999999999,
		  "durationTicks": 384,
		  "midi": 48,
		  "name": "C3",
		  "ticks": 1536,
		  "time": 2.181816,
		  "velocity": 0.3937007874015748
		},
		{
		  "duration": 0.5454539999999999,
		  "durationTicks": 384,
		  "midi": 52,
		  "name": "E3",
		  "ticks": 1536,
		  "time": 2.181816,
		  "velocity": 0.3937007874015748
		},
		{
		  "duration": 0.5454539999999999,
		  "durationTicks": 384,
		  "midi": 57,
		  "name": "A3",
		  "ticks": 1536,
		  "time": 2.181816,
		  "velocity": 0.3937007874015748
		},
		{
		  "duration": 0.5454540000000003,
		  "durationTicks": 384,
		  "midi": 57,
		  "name": "A3",
		  "ticks": 1920,
		  "time": 2.72727,
		  "velocity": 0.3937007874015748
		},
		{
		  "duration": 0.5454540000000003,
		  "durationTicks": 384,
		  "midi": 52,
		  "name": "E3",
		  "ticks": 1920,
		  "time": 2.72727,
		  "velocity": 0.3937007874015748
		},
		{
		  "duration": 0.5454540000000003,
		  "durationTicks": 384,
		  "midi": 48,
		  "name": "C3",
		  "ticks": 1920,
		  "time": 2.72727,
		  "velocity": 0.3937007874015748
		},
		{
		  "duration": 0.5454539999999999,
		  "durationTicks": 384,
		  "midi": 48,
		  "name": "C3",
		  "ticks": 2304,
		  "time": 3.272724,
		  "velocity": 0.3937007874015748
		},
		{
		  "duration": 0.5454539999999999,
		  "durationTicks": 384,
		  "midi": 52,
		  "name": "E3",
		  "ticks": 2304,
		  "time": 3.272724,
		  "velocity": 0.3937007874015748
		},
		{
		  "duration": 0.5454539999999999,
		  "durationTicks": 384,
		  "midi": 57,
		  "name": "A3",
		  "ticks": 2304,
		  "time": 3.272724,
		  "velocity": 0.3937007874015748
		},
		{
		  "duration": 0.1363635000000003,
		  "durationTicks": 96,
		  "midi": 53,
		  "name": "F3",
		  "ticks": 2784,
		  "time": 3.9545415,
		  "velocity": 0.3937007874015748
		},
		{
		  "duration": 0.13636349999999986,
		  "durationTicks": 96,
		  "midi": 52,
		  "name": "E3",
		  "ticks": 2880,
		  "time": 4.090905,
		  "velocity": 0.3937007874015748
		},
		{
		  "duration": 0.13636349999999986,
		  "durationTicks": 96,
		  "midi": 51,
		  "name": "D#3",
		  "ticks": 2976,
		  "time": 4.2272685,
		  "velocity": 0.3937007874015748
		},
		{
		  "duration": 0.13636349999999986,
		  "durationTicks": 96,
		  "midi": 50,
		  "name": "D3",
		  "ticks": 3072,
		  "time": 4.363632,
		  "velocity": 0.3937007874015748
		},
		{
		  "duration": 0.13636349999999986,
		  "durationTicks": 96,
		  "midi": 51,
		  "name": "D#3",
		  "ticks": 3168,
		  "time": 4.4999955,
		  "velocity": 0.3937007874015748
		},
		{
		  "duration": 0.13636349999999986,
		  "durationTicks": 96,
		  "midi": 52,
		  "name": "E3",
		  "ticks": 3264,
		  "time": 4.636359,
		  "velocity": 0.3937007874015748
		},
		{
		  "duration": 0.13636350000000075,
		  "durationTicks": 96,
		  "midi": 53,
		  "name": "F3",
		  "ticks": 3360,
		  "time": 4.7727224999999995,
		  "velocity": 0.3937007874015748
		},
		{
		  "duration": 0.13636349999999986,
		  "durationTicks": 96,
		  "midi": 52,
		  "name": "E3",
		  "ticks": 3456,
		  "time": 4.909086,
		  "velocity": 0.3937007874015748
		},
		{
		  "duration": 0.13636349999999986,
		  "durationTicks": 96,
		  "midi": 51,
		  "name": "D#3",
		  "ticks": 3552,
		  "time": 5.0454495,
		  "velocity": 0.3937007874015748
		},
		{
		  "duration": 0.13636349999999986,
		  "durationTicks": 96,
		  "midi": 50,
		  "name": "D3",
		  "ticks": 3648,
		  "time": 5.181813,
		  "velocity": 0.3937007874015748
		},
		{
		  "duration": 0.13636349999999986,
		  "durationTicks": 96,
		  "midi": 51,
		  "name": "D#3",
		  "ticks": 3744,
		  "time": 5.3181765,
		  "velocity": 0.3937007874015748
		},
		{
		  "duration": 0.13636349999999986,
		  "durationTicks": 96,
		  "midi": 52,
		  "name": "E3",
		  "ticks": 3840,
		  "time": 5.45454,
		  "velocity": 0.3937007874015748
		},
		{
		  "duration": 0.13636350000000075,
		  "durationTicks": 96,
		  "midi": 53,
		  "name": "F3",
		  "ticks": 3936,
		  "time": 5.5909035,
		  "velocity": 0.3937007874015748
		}
	  ],
	  "endOfTrackTicks": 4032
	}
  ]
}
