{
  "header": {
	"keySignatures": [],
	"meta": [],
	"name": "Elec. Piano (Classic)",
	"ppq": 384,
	"tempos": [
	  {
		"bpm": 160,
		"ticks": 0
	  }
	],
	"timeSignatures": [
	  {
		"ticks": 0,
		"timeSignature": [
		  4,
		  4
		],
		"measures": 0
	  }
	]
  },
  "tracks": [
	{
	  "channel": 0,
	  "controlChanges": {},
	  "pitchBends": [],
	  "instrument": {
		"family": "piano",
		"number": 0,
		"name": "acoustic grand piano"
	  },
	  "name": "Elec. Piano (Classic)",
	  "notes": [
		{
		  "duration": 0.75,
		  "durationTicks": 768,
		  "midi": 33,
		  "name": "A1",
		  "ticks": 0,
		  "time": 0,
		  "velocity": 0.3937007874015748
		},
		{
		  "duration": 0.09375,
		  "durationTicks": 96,
		  "midi": 40,
		  "name": "E2",
		  "ticks": 768,
		  "time": 0.75,
		  "velocity": 0.3937007874015748
		},
		{
		  "duration": 0.09375,
		  "durationTicks": 96,
		  "midi": 36,
		  "name": "C2",
		  "ticks": 768,
		  "time": 0.75,
		  "velocity": 0.3937007874015748
		},
		{
		  "duration": 0.09375,
		  "durationTicks": 96,
		  "midi": 28,
		  "name": "E1",
		  "ticks": 1536,
		  "time": 1.5,
		  "velocity": 0.3937007874015748
		},
		{
		  "duration": 0.09375,
		  "durationTicks": 96,
		  "midi": 40,
		  "name": "E2",
		  "ticks": 2304,
		  "time": 2.25,
		  "velocity": 0.3937007874015748
		},
		{
		  "duration": 0.09375,
		  "durationTicks": 96,
		  "midi": 36,
		  "name": "C2",
		  "ticks": 2304,
		  "time": 2.25,
		  "velocity": 0.3937007874015748
		},
		{
		  "duration": 0.046875,
		  "durationTicks": 48,
		  "midi": 28,
		  "name": "E1",
		  "ticks": 2928,
		  "time": 2.859375,
		  "velocity": 0.3937007874015748
		},
		{
		  "duration": 0.046875,
		  "durationTicks": 48,
		  "midi": 30,
		  "name": "F#1",
		  "ticks": 2976,
		  "time": 2.90625,
		  "velocity": 0.3937007874015748
		},
		{
		  "duration": 0.046875,
		  "durationTicks": 48,
		  "midi": 32,
		  "name": "G#1",
		  "ticks": 3024,
		  "time": 2.953125,
		  "velocity": 0.3937007874015748
		},
		{
		  "duration": 0.75,
		  "durationTicks": 768,
		  "midi": 33,
		  "name": "A1",
		  "ticks": 3072,
		  "time": 3,
		  "velocity": 0.3937007874015748
		},
		{
		  "duration": 0.09375,
		  "durationTicks": 96,
		  "midi": 40,
		  "name": "E2",
		  "ticks": 3840,
		  "time": 3.75,
		  "velocity": 0.3937007874015748
		},
		{
		  "duration": 0.09375,
		  "durationTicks": 96,
		  "midi": 36,
		  "name": "C2",
		  "ticks": 3840,
		  "time": 3.75,
		  "velocity": 0.3937007874015748
		},
		{
		  "duration": 0.09375,
		  "durationTicks": 96,
		  "midi": 28,
		  "name": "E1",
		  "ticks": 4608,
		  "time": 4.5,
		  "velocity": 0.3937007874015748
		},
		{
		  "duration": 0.09375,
		  "durationTicks": 96,
		  "midi": 40,
		  "name": "E2",
		  "ticks": 5376,
		  "time": 5.25,
		  "velocity": 0.3937007874015748
		},
		{
		  "duration": 0.09375,
		  "durationTicks": 96,
		  "midi": 36,
		  "name": "C2",
		  "ticks": 5376,
		  "time": 5.25,
		  "velocity": 0.3937007874015748
		},
		{
		  "duration": 0.65625,
		  "durationTicks": 672,
		  "midi": 33,
		  "name": "A1",
		  "ticks": 6144,
		  "time": 6,
		  "velocity": 0.3937007874015748
		},
		{
		  "duration": 0.09375,
		  "durationTicks": 96,
		  "midi": 52,
		  "name": "E3",
		  "ticks": 6144,
		  "time": 6,
		  "velocity": 0.3937007874015748
		},
		{
		  "duration": 0.09375,
		  "durationTicks": 96,
		  "midi": 52,
		  "name": "E3",
		  "ticks": 6480,
		  "time": 6.328125,
		  "velocity": 0.3937007874015748
		},
		{
		  "duration": 0.09375,
		  "durationTicks": 96,
		  "midi": 40,
		  "name": "E2",
		  "ticks": 6816,
		  "time": 6.65625,
		  "velocity": 0.3937007874015748
		},
		{
		  "duration": 0.09375,
		  "durationTicks": 96,
		  "midi": 36,
		  "name": "C2",
		  "ticks": 6816,
		  "time": 6.65625,
		  "velocity": 0.3937007874015748
		},
		{
		  "duration": 0.09375,
		  "durationTicks": 96,
		  "midi": 52,
		  "name": "E3",
		  "ticks": 6816,
		  "time": 6.65625,
		  "velocity": 0.3937007874015748
		},
		{
		  "duration": 0.09375,
		  "durationTicks": 96,
		  "midi": 52,
		  "name": "E3",
		  "ticks": 7152,
		  "time": 6.984375,
		  "velocity": 0.3937007874015748
		},
		{
		  "duration": 0.09375,
		  "durationTicks": 96,
		  "midi": 28,
		  "name": "E1",
		  "ticks": 7488,
		  "time": 7.3125,
		  "velocity": 0.3937007874015748
		},
		{
		  "duration": 0.09375,
		  "durationTicks": 96,
		  "midi": 52,
		  "name": "E3",
		  "ticks": 7488,
		  "time": 7.3125,
		  "velocity": 0.3937007874015748
		},
		{
		  "duration": 0.09375,
		  "durationTicks": 96,
		  "midi": 52,
		  "name": "E3",
		  "ticks": 7824,
		  "time": 7.640625,
		  "velocity": 0.3937007874015748
		},
		{
		  "duration": 0.09375,
		  "durationTicks": 96,
		  "midi": 36,
		  "name": "C2",
		  "ticks": 8160,
		  "time": 7.96875,
		  "velocity": 0.3937007874015748
		},
		{
		  "duration": 0.09375,
		  "durationTicks": 96,
		  "midi": 40,
		  "name": "E2",
		  "ticks": 8160,
		  "time": 7.96875,
		  "velocity": 0.3937007874015748
		},
		{
		  "duration": 0.09375,
		  "durationTicks": 96,
		  "midi": 52,
		  "name": "E3",
		  "ticks": 8160,
		  "time": 7.96875,
		  "velocity": 0.3937007874015748
		},
		{
		  "duration": 0.09375,
		  "durationTicks": 96,
		  "midi": 52,
		  "name": "E3",
		  "ticks": 8496,
		  "time": 8.296875,
		  "velocity": 0.3937007874015748
		},
		{
		  "duration": 0.09375,
		  "durationTicks": 96,
		  "midi": 33,
		  "name": "A1",
		  "ticks": 8832,
		  "time": 8.625,
		  "velocity": 0.3937007874015748
		},
		{
		  "duration": 0.09375,
		  "durationTicks": 96,
		  "midi": 52,
		  "name": "E3",
		  "ticks": 8832,
		  "time": 8.625,
		  "velocity": 0.3937007874015748
		},
		{
		  "duration": 0.09375,
		  "durationTicks": 96,
		  "midi": 52,
		  "name": "E3",
		  "ticks": 9168,
		  "time": 8.953125,
		  "velocity": 0.3937007874015748
		},
		{
		  "duration": 0.09375,
		  "durationTicks": 96,
		  "midi": 36,
		  "name": "C2",
		  "ticks": 9504,
		  "time": 9.28125,
		  "velocity": 0.3937007874015748
		},
		{
		  "duration": 0.09375,
		  "durationTicks": 96,
		  "midi": 40,
		  "name": "E2",
		  "ticks": 9504,
		  "time": 9.28125,
		  "velocity": 0.3937007874015748
		},
		{
		  "duration": 0.09375,
		  "durationTicks": 96,
		  "midi": 52,
		  "name": "E3",
		  "ticks": 9504,
		  "time": 9.28125,
		  "velocity": 0.3937007874015748
		},
		{
		  "duration": 0.09375,
		  "durationTicks": 96,
		  "midi": 52,
		  "name": "E3",
		  "ticks": 9840,
		  "time": 9.609375,
		  "velocity": 0.3937007874015748
		},
		{
		  "duration": 0.09375,
		  "durationTicks": 96,
		  "midi": 28,
		  "name": "E1",
		  "ticks": 10176,
		  "time": 9.9375,
		  "velocity": 0.3937007874015748
		},
		{
		  "duration": 0.09375,
		  "durationTicks": 96,
		  "midi": 52,
		  "name": "E3",
		  "ticks": 10176,
		  "time": 9.9375,
		  "velocity": 0.3937007874015748
		},
		{
		  "duration": 0.09375,
		  "durationTicks": 96,
		  "midi": 52,
		  "name": "E3",
		  "ticks": 10512,
		  "time": 10.265625,
		  "velocity": 0.3937007874015748
		},
		{
		  "duration": 0.09375,
		  "durationTicks": 96,
		  "midi": 36,
		  "name": "C2",
		  "ticks": 10848,
		  "time": 10.59375,
		  "velocity": 0.3937007874015748
		},
		{
		  "duration": 0.09375,
		  "durationTicks": 96,
		  "midi": 40,
		  "name": "E2",
		  "ticks": 10848,
		  "time": 10.59375,
		  "velocity": 0.3937007874015748
		},
		{
		  "duration": 0.09375,
		  "durationTicks": 96,
		  "midi": 52,
		  "name": "E3",
		  "ticks": 10848,
		  "time": 10.59375,
		  "velocity": 0.3937007874015748
		},
		{
		  "duration": 0.09375,
		  "durationTicks": 96,
		  "midi": 52,
		  "name": "E3",
		  "ticks": 11184,
		  "time": 10.921875,
		  "velocity": 0.3937007874015748
		},
		{
		  "duration": 0.09375,
		  "durationTicks": 96,
		  "midi": 33,
		  "name": "A1",
		  "ticks": 11520,
		  "time": 11.25,
		  "velocity": 0.3937007874015748
		},
		{
		  "duration": 0.09375,
		  "durationTicks": 96,
		  "midi": 52,
		  "name": "E3",
		  "ticks": 11520,
		  "time": 11.25,
		  "velocity": 0.3937007874015748
		},
		{
		  "duration": 0.09375,
		  "durationTicks": 96,
		  "midi": 52,
		  "name": "E3",
		  "ticks": 11808,
		  "time": 11.53125,
		  "velocity": 0.3937007874015748
		},
		{
		  "duration": 0.09375,
		  "durationTicks": 96,
		  "midi": 36,
		  "name": "C2",
		  "ticks": 12096,
		  "time": 11.8125,
		  "velocity": 0.3937007874015748
		},
		{
		  "duration": 0.09375,
		  "durationTicks": 96,
		  "midi": 40,
		  "name": "E2",
		  "ticks": 12096,
		  "time": 11.8125,
		  "velocity": 0.3937007874015748
		},
		{
		  "duration": 0.09375,
		  "durationTicks": 96,
		  "midi": 52,
		  "name": "E3",
		  "ticks": 12096,
		  "time": 11.8125,
		  "velocity": 0.3937007874015748
		},
		{
		  "duration": 0.09375,
		  "durationTicks": 96,
		  "midi": 52,
		  "name": "E3",
		  "ticks": 12384,
		  "time": 12.09375,
		  "velocity": 0.3937007874015748
		},
		{
		  "duration": 0.09375,
		  "durationTicks": 96,
		  "midi": 28,
		  "name": "E1",
		  "ticks": 12672,
		  "time": 12.375,
		  "velocity": 0.3937007874015748
		},
		{
		  "duration": 0.28125,
		  "durationTicks": 288,
		  "midi": 52,
		  "name": "E3",
		  "ticks": 12672,
		  "time": 12.375,
		  "velocity": 0.3937007874015748
		},
		{
		  "duration": 0.28125,
		  "durationTicks": 288,
		  "midi": 53,
		  "name": "F3",
		  "ticks": 12960,
		  "time": 12.65625,
		  "velocity": 0.3937007874015748
		},
		{
		  "duration": 0.09375,
		  "durationTicks": 96,
		  "midi": 36,
		  "name": "C2",
		  "ticks": 13248,
		  "time": 12.9375,
		  "velocity": 0.3937007874015748
		},
		{
		  "duration": 0.09375,
		  "durationTicks": 96,
		  "midi": 40,
		  "name": "E2",
		  "ticks": 13248,
		  "time": 12.9375,
		  "velocity": 0.3937007874015748
		},
		{
		  "duration": 0.28125,
		  "durationTicks": 288,
		  "midi": 52,
		  "name": "E3",
		  "ticks": 13248,
		  "time": 12.9375,
		  "velocity": 0.3937007874015748
		},
		{
		  "duration": 0.28125,
		  "durationTicks": 288,
		  "midi": 51,
		  "name": "D#3",
		  "ticks": 13536,
		  "time": 13.21875,
		  "velocity": 0.3937007874015748
		},
		{
		  "duration": 0.09375,
		  "durationTicks": 96,
		  "midi": 52,
		  "name": "E3",
		  "ticks": 13824,
		  "time": 13.5,
		  "velocity": 0.3937007874015748
		},
		{
		  "duration": 0.09375,
		  "durationTicks": 96,
		  "midi": 33,
		  "name": "A1",
		  "ticks": 13824,
		  "time": 13.5,
		  "velocity": 0.3937007874015748
		},
		{
		  "duration": 0.09375,
		  "durationTicks": 96,
		  "midi": 40,
		  "name": "E2",
		  "ticks": 14400,
		  "time": 14.0625,
		  "velocity": 0.3937007874015748
		},
		{
		  "duration": 0.09375,
		  "durationTicks": 96,
		  "midi": 36,
		  "name": "C2",
		  "ticks": 14400,
		  "time": 14.0625,
		  "velocity": 0.3937007874015748
		},
		{
		  "duration": 0.09375,
		  "durationTicks": 96,
		  "midi": 57,
		  "name": "A3",
		  "ticks": 14400,
		  "time": 14.0625,
		  "velocity": 0.3937007874015748
		},
		{
		  "duration": 0.09375,
		  "durationTicks": 96,
		  "midi": 28,
		  "name": "E1",
		  "ticks": 14976,
		  "time": 14.625,
		  "velocity": 0.3937007874015748
		},
		{
		  "duration": 0.75,
		  "durationTicks": 768,
		  "midi": 60,
		  "name": "C4",
		  "ticks": 14976,
		  "time": 14.625,
		  "velocity": 0.3937007874015748
		},
		{
		  "duration": 0.09375,
		  "durationTicks": 96,
		  "midi": 40,
		  "name": "E2",
		  "ticks": 15552,
		  "time": 15.1875,
		  "velocity": 0.3937007874015748
		},
		{
		  "duration": 0.09375,
		  "durationTicks": 96,
		  "midi": 36,
		  "name": "C2",
		  "ticks": 15552,
		  "time": 15.1875,
		  "velocity": 0.3937007874015748
		},
		{
		  "duration": 0.09375,
		  "durationTicks": 96,
		  "midi": 32,
		  "name": "G#1",
		  "ticks": 16128,
		  "time": 15.75,
		  "velocity": 0.3937007874015748
		},
		{
		  "duration": 0.09375,
		  "durationTicks": 96,
		  "midi": 62,
		  "name": "D4",
		  "ticks": 16128,
		  "time": 15.75,
		  "velocity": 0.3937007874015748
		},
		{
		  "duration": 0.09375,
		  "durationTicks": 96,
		  "midi": 62,
		  "name": "D4",
		  "ticks": 16368,
		  "time": 15.984375,
		  "velocity": 0.3937007874015748
		},
		{
		  "duration": 0.09375,
		  "durationTicks": 96,
		  "midi": 40,
		  "name": "E2",
		  "ticks": 16608,
		  "time": 16.21875,
		  "velocity": 0.3937007874015748
		},
		{
		  "duration": 0.09375,
		  "durationTicks": 96,
		  "midi": 38,
		  "name": "D2",
		  "ticks": 16608,
		  "time": 16.21875,
		  "velocity": 0.3937007874015748
		},
		{
		  "duration": 0.09375,
		  "durationTicks": 96,
		  "midi": 62,
		  "name": "D4",
		  "ticks": 16608,
		  "time": 16.21875,
		  "velocity": 0.3937007874015748
		},
		{
		  "duration": 0.09375,
		  "durationTicks": 96,
		  "midi": 62,
		  "name": "D4",
		  "ticks": 16848,
		  "time": 16.453125,
		  "velocity": 0.3937007874015748
		},
		{
		  "duration": 0.09375,
		  "durationTicks": 96,
		  "midi": 28,
		  "name": "E1",
		  "ticks": 17088,
		  "time": 16.6875,
		  "velocity": 0.3937007874015748
		},
		{
		  "duration": 0.09375,
		  "durationTicks": 96,
		  "midi": 62,
		  "name": "D4",
		  "ticks": 17088,
		  "time": 16.6875,
		  "velocity": 0.3937007874015748
		},
		{
		  "duration": 0.09375,
		  "durationTicks": 96,
		  "midi": 60,
		  "name": "C4",
		  "ticks": 17328,
		  "time": 16.921875,
		  "velocity": 0.3937007874015748
		},
		{
		  "duration": 0.09375,
		  "durationTicks": 96,
		  "midi": 40,
		  "name": "E2",
		  "ticks": 17568,
		  "time": 17.15625,
		  "velocity": 0.3937007874015748
		},
		{
		  "duration": 0.09375,
		  "durationTicks": 96,
		  "midi": 38,
		  "name": "D2",
		  "ticks": 17568,
		  "time": 17.15625,
		  "velocity": 0.3937007874015748
		},
		{
		  "duration": 0.09375,
		  "durationTicks": 96,
		  "midi": 59,
		  "name": "B3",
		  "ticks": 17568,
		  "time": 17.15625,
		  "velocity": 0.3937007874015748
		},
		{
		  "duration": 0.09375,
		  "durationTicks": 96,
		  "midi": 62,
		  "name": "D4",
		  "ticks": 17808,
		  "time": 17.390625,
		  "velocity": 0.3937007874015748
		},
		{
		  "duration": 0.09375,
		  "durationTicks": 96,
		  "midi": 60,
		  "name": "C4",
		  "ticks": 18048,
		  "time": 17.625,
		  "velocity": 0.3937007874015748
		},
		{
		  "duration": 0.09375,
		  "durationTicks": 96,
		  "midi": 33,
		  "name": "A1",
		  "ticks": 18048,
		  "time": 17.625,
		  "velocity": 0.3937007874015748
		},
		{
		  "duration": 0.09375,
		  "durationTicks": 96,
		  "midi": 60,
		  "name": "C4",
		  "ticks": 18288,
		  "time": 17.859375,
		  "velocity": 0.3937007874015748
		},
		{
		  "duration": 0.09375,
		  "durationTicks": 96,
		  "midi": 60,
		  "name": "C4",
		  "ticks": 18528,
		  "time": 18.09375,
		  "velocity": 0.3937007874015748
		},
		{
		  "duration": 0.09375,
		  "durationTicks": 96,
		  "midi": 40,
		  "name": "E2",
		  "ticks": 18528,
		  "time": 18.09375,
		  "velocity": 0.3937007874015748
		},
		{
		  "duration": 0.09375,
		  "durationTicks": 96,
		  "midi": 36,
		  "name": "C2",
		  "ticks": 18528,
		  "time": 18.09375,
		  "velocity": 0.3937007874015748
		},
		{
		  "duration": 0.09375,
		  "durationTicks": 96,
		  "midi": 60,
		  "name": "C4",
		  "ticks": 18768,
		  "time": 18.328125,
		  "velocity": 0.3937007874015748
		},
		{
		  "duration": 0.09375,
		  "durationTicks": 96,
		  "midi": 60,
		  "name": "C4",
		  "ticks": 19008,
		  "time": 18.5625,
		  "velocity": 0.3937007874015748
		},
		{
		  "duration": 0.09375,
		  "durationTicks": 96,
		  "midi": 28,
		  "name": "E1",
		  "ticks": 19008,
		  "time": 18.5625,
		  "velocity": 0.3937007874015748
		},
		{
		  "duration": 0.09375,
		  "durationTicks": 96,
		  "midi": 59,
		  "name": "B3",
		  "ticks": 19248,
		  "time": 18.796875,
		  "velocity": 0.3937007874015748
		},
		{
		  "duration": 0.09375,
		  "durationTicks": 96,
		  "midi": 57,
		  "name": "A3",
		  "ticks": 19488,
		  "time": 19.03125,
		  "velocity": 0.3937007874015748
		},
		{
		  "duration": 0.09375,
		  "durationTicks": 96,
		  "midi": 40,
		  "name": "E2",
		  "ticks": 19488,
		  "time": 19.03125,
		  "velocity": 0.3937007874015748
		},
		{
		  "duration": 0.09375,
		  "durationTicks": 96,
		  "midi": 36,
		  "name": "C2",
		  "ticks": 19488,
		  "time": 19.03125,
		  "velocity": 0.3937007874015748
		},
		{
		  "duration": 0.09375,
		  "durationTicks": 96,
		  "midi": 60,
		  "name": "C4",
		  "ticks": 19728,
		  "time": 19.265625,
		  "velocity": 0.3937007874015748
		},
		{
		  "duration": 0.09375,
		  "durationTicks": 96,
		  "midi": 35,
		  "name": "B1",
		  "ticks": 19968,
		  "time": 19.5,
		  "velocity": 0.3937007874015748
		},
		{
		  "duration": 0.09375,
		  "durationTicks": 96,
		  "midi": 59,
		  "name": "B3",
		  "ticks": 19968,
		  "time": 19.5,
		  "velocity": 0.3937007874015748
		},
		{
		  "duration": 0.09375,
		  "durationTicks": 96,
		  "midi": 59,
		  "name": "B3",
		  "ticks": 20208,
		  "time": 19.734375,
		  "velocity": 0.3937007874015748
		},
		{
		  "duration": 0.09375,
		  "durationTicks": 96,
		  "midi": 39,
		  "name": "D#2",
		  "ticks": 20448,
		  "time": 19.96875,
		  "velocity": 0.3937007874015748
		},
		{
		  "duration": 0.09375,
		  "durationTicks": 96,
		  "midi": 45,
		  "name": "A2",
		  "ticks": 20448,
		  "time": 19.96875,
		  "velocity": 0.3937007874015748
		},
		{
		  "duration": 0.09375,
		  "durationTicks": 96,
		  "midi": 59,
		  "name": "B3",
		  "ticks": 20448,
		  "time": 19.96875,
		  "velocity": 0.3937007874015748
		},
		{
		  "duration": 0.09375,
		  "durationTicks": 96,
		  "midi": 59,
		  "name": "B3",
		  "ticks": 20688,
		  "time": 20.203125,
		  "velocity": 0.3937007874015748
		},
		{
		  "duration": 0.09375,
		  "durationTicks": 96,
		  "midi": 30,
		  "name": "F#1",
		  "ticks": 20928,
		  "time": 20.4375,
		  "velocity": 0.3937007874015748
		},
		{
		  "duration": 0.09375,
		  "durationTicks": 96,
		  "midi": 54,
		  "name": "F#3",
		  "ticks": 20928,
		  "time": 20.4375,
		  "velocity": 0.3937007874015748
		},
		{
		  "duration": 0.09375,
		  "durationTicks": 96,
		  "midi": 39,
		  "name": "D#2",
		  "ticks": 21408,
		  "time": 20.90625,
		  "velocity": 0.3937007874015748
		},
		{
		  "duration": 0.09375,
		  "durationTicks": 96,
		  "midi": 45,
		  "name": "A2",
		  "ticks": 21408,
		  "time": 20.90625,
		  "velocity": 0.3937007874015748
		},
		{
		  "duration": 0.09375,
		  "durationTicks": 96,
		  "midi": 59,
		  "name": "B3",
		  "ticks": 21408,
		  "time": 20.90625,
		  "velocity": 0.3937007874015748
		},
		{
		  "duration": 0.09375,
		  "durationTicks": 96,
		  "midi": 56,
		  "name": "G#3",
		  "ticks": 21888,
		  "time": 21.375,
		  "velocity": 0.3937007874015748
		},
		{
		  "duration": 0.09375,
		  "durationTicks": 96,
		  "midi": 44,
		  "name": "G#2",
		  "ticks": 21888,
		  "time": 21.375,
		  "velocity": 0.3937007874015748
		},
		{
		  "duration": 0.09375,
		  "durationTicks": 96,
		  "midi": 40,
		  "name": "E2",
		  "ticks": 21888,
		  "time": 21.375,
		  "velocity": 0.3937007874015748
		},
		{
		  "duration": 0.75,
		  "durationTicks": 768,
		  "midi": 28,
		  "name": "E1",
		  "ticks": 22848,
		  "time": 22.3125,
		  "velocity": 0.3937007874015748
		},
		{
		  "duration": 0.046875,
		  "durationTicks": 48,
		  "midi": 30,
		  "name": "F#1",
		  "ticks": 23616,
		  "time": 23.0625,
		  "velocity": 0.3937007874015748
		},
		{
		  "duration": 0.046875,
		  "durationTicks": 48,
		  "midi": 32,
		  "name": "G#1",
		  "ticks": 23664,
		  "time": 23.109375,
		  "velocity": 0.3937007874015748
		},
		{
		  "duration": 0.375,
		  "durationTicks": 384,
		  "midi": 33,
		  "name": "A1",
		  "ticks": 23712,
		  "time": 23.15625,
		  "velocity": 0.3937007874015748
		},
		{
		  "duration": 0.09375,
		  "durationTicks": 96,
		  "midi": 52,
		  "name": "E3",
		  "ticks": 23712,
		  "time": 23.15625,
		  "velocity": 0.3937007874015748
		},
		{
		  "duration": 0.09375,
		  "durationTicks": 96,
		  "midi": 52,
		  "name": "E3",
		  "ticks": 23904,
		  "time": 23.34375,
		  "velocity": 0.3937007874015748
		},
		{
		  "duration": 0.09375,
		  "durationTicks": 96,
		  "midi": 40,
		  "name": "E2",
		  "ticks": 24096,
		  "time": 23.53125,
		  "velocity": 0.3937007874015748
		},
		{
		  "duration": 0.09375,
		  "durationTicks": 96,
		  "midi": 36,
		  "name": "C2",
		  "ticks": 24096,
		  "time": 23.53125,
		  "velocity": 0.3937007874015748
		},
		{
		  "duration": 0.09375,
		  "durationTicks": 96,
		  "midi": 52,
		  "name": "E3",
		  "ticks": 24096,
		  "time": 23.53125,
		  "velocity": 0.3937007874015748
		},
		{
		  "duration": 0.09375,
		  "durationTicks": 96,
		  "midi": 52,
		  "name": "E3",
		  "ticks": 24288,
		  "time": 23.71875,
		  "velocity": 0.3937007874015748
		},
		{
		  "duration": 0.09375,
		  "durationTicks": 96,
		  "midi": 28,
		  "name": "E1",
		  "ticks": 24480,
		  "time": 23.90625,
		  "velocity": 0.3937007874015748
		},
		{
		  "duration": 0.09375,
		  "durationTicks": 96,
		  "midi": 52,
		  "name": "E3",
		  "ticks": 24480,
		  "time": 23.90625,
		  "velocity": 0.3937007874015748
		},
		{
		  "duration": 0.09375,
		  "durationTicks": 96,
		  "midi": 52,
		  "name": "E3",
		  "ticks": 24672,
		  "time": 24.09375,
		  "velocity": 0.3937007874015748
		},
		{
		  "duration": 0.09375,
		  "durationTicks": 96,
		  "midi": 40,
		  "name": "E2",
		  "ticks": 24864,
		  "time": 24.28125,
		  "velocity": 0.3937007874015748
		},
		{
		  "duration": 0.09375,
		  "durationTicks": 96,
		  "midi": 36,
		  "name": "C2",
		  "ticks": 24864,
		  "time": 24.28125,
		  "velocity": 0.3937007874015748
		},
		{
		  "duration": 0.09375,
		  "durationTicks": 96,
		  "midi": 52,
		  "name": "E3",
		  "ticks": 24864,
		  "time": 24.28125,
		  "velocity": 0.3937007874015748
		},
		{
		  "duration": 0.09375,
		  "durationTicks": 96,
		  "midi": 52,
		  "name": "E3",
		  "ticks": 25056,
		  "time": 24.46875,
		  "velocity": 0.3937007874015748
		},
		{
		  "duration": 0.09375,
		  "durationTicks": 96,
		  "midi": 33,
		  "name": "A1",
		  "ticks": 25248,
		  "time": 24.65625,
		  "velocity": 0.3937007874015748
		},
		{
		  "duration": 0.09375,
		  "durationTicks": 96,
		  "midi": 52,
		  "name": "E3",
		  "ticks": 25248,
		  "time": 24.65625,
		  "velocity": 0.3937007874015748
		},
		{
		  "duration": 0.09375,
		  "durationTicks": 96,
		  "midi": 52,
		  "name": "E3",
		  "ticks": 25440,
		  "time": 24.84375,
		  "velocity": 0.3937007874015748
		},
		{
		  "duration": 0.09375,
		  "durationTicks": 96,
		  "midi": 40,
		  "name": "E2",
		  "ticks": 25632,
		  "time": 25.03125,
		  "velocity": 0.3937007874015748
		},
		{
		  "duration": 0.09375,
		  "durationTicks": 96,
		  "midi": 36,
		  "name": "C2",
		  "ticks": 25632,
		  "time": 25.03125,
		  "velocity": 0.3937007874015748
		},
		{
		  "duration": 0.09375,
		  "durationTicks": 96,
		  "midi": 52,
		  "name": "E3",
		  "ticks": 25632,
		  "time": 25.03125,
		  "velocity": 0.3937007874015748
		},
		{
		  "duration": 0.09375,
		  "durationTicks": 96,
		  "midi": 52,
		  "name": "E3",
		  "ticks": 25824,
		  "time": 25.21875,
		  "velocity": 0.3937007874015748
		},
		{
		  "duration": 0.09375,
		  "durationTicks": 96,
		  "midi": 28,
		  "name": "E1",
		  "ticks": 26016,
		  "time": 25.40625,
		  "velocity": 0.3937007874015748
		},
		{
		  "duration": 0.09375,
		  "durationTicks": 96,
		  "midi": 52,
		  "name": "E3",
		  "ticks": 26016,
		  "time": 25.40625,
		  "velocity": 0.3937007874015748
		},
		{
		  "duration": 0.09375,
		  "durationTicks": 96,
		  "midi": 52,
		  "name": "E3",
		  "ticks": 26208,
		  "time": 25.59375,
		  "velocity": 0.3937007874015748
		},
		{
		  "duration": 0.09375,
		  "durationTicks": 96,
		  "midi": 40,
		  "name": "E2",
		  "ticks": 26400,
		  "time": 25.78125,
		  "velocity": 0.3937007874015748
		},
		{
		  "duration": 0.09375,
		  "durationTicks": 96,
		  "midi": 36,
		  "name": "C2",
		  "ticks": 26400,
		  "time": 25.78125,
		  "velocity": 0.3937007874015748
		},
		{
		  "duration": 0.09375,
		  "durationTicks": 96,
		  "midi": 52,
		  "name": "E3",
		  "ticks": 26400,
		  "time": 25.78125,
		  "velocity": 0.3937007874015748
		},
		{
		  "duration": 0.09375,
		  "durationTicks": 96,
		  "midi": 52,
		  "name": "E3",
		  "ticks": 26592,
		  "time": 25.96875,
		  "velocity": 0.3937007874015748
		},
		{
		  "duration": 0.09375,
		  "durationTicks": 96,
		  "midi": 33,
		  "name": "A1",
		  "ticks": 26784,
		  "time": 26.15625,
		  "velocity": 0.3937007874015748
		},
		{
		  "duration": 0.09375,
		  "durationTicks": 96,
		  "midi": 52,
		  "name": "E3",
		  "ticks": 26784,
		  "time": 26.15625,
		  "velocity": 0.3937007874015748
		},
		{
		  "duration": 0.09375,
		  "durationTicks": 96,
		  "midi": 52,
		  "name": "E3",
		  "ticks": 26976,
		  "time": 26.34375,
		  "velocity": 0.3937007874015748
		},
		{
		  "duration": 0.09375,
		  "durationTicks": 96,
		  "midi": 36,
		  "name": "C2",
		  "ticks": 27168,
		  "time": 26.53125,
		  "velocity": 0.3937007874015748
		},
		{
		  "duration": 0.09375,
		  "durationTicks": 96,
		  "midi": 40,
		  "name": "E2",
		  "ticks": 27168,
		  "time": 26.53125,
		  "velocity": 0.3937007874015748
		},
		{
		  "duration": 0.09375,
		  "durationTicks": 96,
		  "midi": 52,
		  "name": "E3",
		  "ticks": 27168,
		  "time": 26.53125,
		  "velocity": 0.3937007874015748
		},
		{
		  "duration": 0.09375,
		  "durationTicks": 96,
		  "midi": 52,
		  "name": "E3",
		  "ticks": 27360,
		  "time": 26.71875,
		  "velocity": 0.3937007874015748
		},
		{
		  "duration": 0.09375,
		  "durationTicks": 96,
		  "midi": 28,
		  "name": "E1",
		  "ticks": 27552,
		  "time": 26.90625,
		  "velocity": 0.3937007874015748
		},
		{
		  "duration": 0.09375,
		  "durationTicks": 96,
		  "midi": 52,
		  "name": "E3",
		  "ticks": 27552,
		  "time": 26.90625,
		  "velocity": 0.3937007874015748
		},
		{
		  "duration": 0.09375,
		  "durationTicks": 96,
		  "midi": 53,
		  "name": "F3",
		  "ticks": 27744,
		  "time": 27.09375,
		  "velocity": 0.3937007874015748
		},
		{
		  "duration": 0.09375,
		  "durationTicks": 96,
		  "midi": 36,
		  "name": "C2",
		  "ticks": 27936,
		  "time": 27.28125,
		  "velocity": 0.3937007874015748
		},
		{
		  "duration": 0.09375,
		  "durationTicks": 96,
		  "midi": 40,
		  "name": "E2",
		  "ticks": 27936,
		  "time": 27.28125,
		  "velocity": 0.3937007874015748
		},
		{
		  "duration": 0.09375,
		  "durationTicks": 96,
		  "midi": 52,
		  "name": "E3",
		  "ticks": 27936,
		  "time": 27.28125,
		  "velocity": 0.3937007874015748
		},
		{
		  "duration": 0.09375,
		  "durationTicks": 96,
		  "midi": 51,
		  "name": "D#3",
		  "ticks": 28128,
		  "time": 27.46875,
		  "velocity": 0.3937007874015748
		},
		{
		  "duration": 0.09375,
		  "durationTicks": 96,
		  "midi": 33,
		  "name": "A1",
		  "ticks": 28320,
		  "time": 27.65625,
		  "velocity": 0.3937007874015748
		},
		{
		  "duration": 0.09375,
		  "durationTicks": 96,
		  "midi": 52,
		  "name": "E3",
		  "ticks": 28320,
		  "time": 27.65625,
		  "velocity": 0.3937007874015748
		},
		{
		  "duration": 0.09375,
		  "durationTicks": 96,
		  "midi": 36,
		  "name": "C2",
		  "ticks": 28704,
		  "time": 28.03125,
		  "velocity": 0.3937007874015748
		},
		{
		  "duration": 0.09375,
		  "durationTicks": 96,
		  "midi": 40,
		  "name": "E2",
		  "ticks": 28704,
		  "time": 28.03125,
		  "velocity": 0.3937007874015748
		},
		{
		  "duration": 0.09375,
		  "durationTicks": 96,
		  "midi": 57,
		  "name": "A3",
		  "ticks": 28704,
		  "time": 28.03125,
		  "velocity": 0.3937007874015748
		},
		{
		  "duration": 0.09375,
		  "durationTicks": 96,
		  "midi": 60,
		  "name": "C4",
		  "ticks": 28896,
		  "time": 28.21875,
		  "velocity": 0.3937007874015748
		},
		{
		  "duration": 0.09375,
		  "durationTicks": 96,
		  "midi": 28,
		  "name": "E1",
		  "ticks": 29088,
		  "time": 28.40625,
		  "velocity": 0.3937007874015748
		},
		{
		  "duration": 0.09375,
		  "durationTicks": 96,
		  "midi": 64,
		  "name": "E4",
		  "ticks": 29088,
		  "time": 28.40625,
		  "velocity": 0.3937007874015748
		},
		{
		  "duration": 0.09375,
		  "durationTicks": 96,
		  "midi": 69,
		  "name": "A4",
		  "ticks": 29280,
		  "time": 28.59375,
		  "velocity": 0.3937007874015748
		},
		{
		  "duration": 0.09375,
		  "durationTicks": 96,
		  "midi": 36,
		  "name": "C2",
		  "ticks": 29472,
		  "time": 28.78125,
		  "velocity": 0.3937007874015748
		},
		{
		  "duration": 0.09375,
		  "durationTicks": 96,
		  "midi": 40,
		  "name": "E2",
		  "ticks": 29472,
		  "time": 28.78125,
		  "velocity": 0.3937007874015748
		},
		{
		  "duration": 0.375,
		  "durationTicks": 384,
		  "midi": 72,
		  "name": "C5",
		  "ticks": 29472,
		  "time": 28.78125,
		  "velocity": 0.3937007874015748
		},
		{
		  "duration": 0.09375,
		  "durationTicks": 96,
		  "midi": 38,
		  "name": "D2",
		  "ticks": 29856,
		  "time": 29.15625,
		  "velocity": 0.3937007874015748
		},
		{
		  "duration": 0.09375,
		  "durationTicks": 96,
		  "midi": 74,
		  "name": "D5",
		  "ticks": 29856,
		  "time": 29.15625,
		  "velocity": 0.3937007874015748
		},
		{
		  "duration": 0.09375,
		  "durationTicks": 96,
		  "midi": 72,
		  "name": "C5",
		  "ticks": 30000,
		  "time": 29.296875,
		  "velocity": 0.3937007874015748
		},
		{
		  "duration": 0.09375,
		  "durationTicks": 96,
		  "midi": 41,
		  "name": "F2",
		  "ticks": 30144,
		  "time": 29.4375,
		  "velocity": 0.3937007874015748
		},
		{
		  "duration": 0.09375,
		  "durationTicks": 96,
		  "midi": 45,
		  "name": "A2",
		  "ticks": 30144,
		  "time": 29.4375,
		  "velocity": 0.3937007874015748
		},
		{
		  "duration": 0.09375,
		  "durationTicks": 96,
		  "midi": 71,
		  "name": "B4",
		  "ticks": 30144,
		  "time": 29.4375,
		  "velocity": 0.3937007874015748
		},
		{
		  "duration": 0.09375,
		  "durationTicks": 96,
		  "midi": 74,
		  "name": "D5",
		  "ticks": 30288,
		  "time": 29.578125,
		  "velocity": 0.3937007874015748
		},
		{
		  "duration": 0.09375,
		  "durationTicks": 96,
		  "midi": 36,
		  "name": "C2",
		  "ticks": 30432,
		  "time": 29.71875,
		  "velocity": 0.3937007874015748
		},
		{
		  "duration": 0.09375,
		  "durationTicks": 96,
		  "midi": 72,
		  "name": "C5",
		  "ticks": 30432,
		  "time": 29.71875,
		  "velocity": 0.3937007874015748
		},
		{
		  "duration": 0.09375,
		  "durationTicks": 96,
		  "midi": 71,
		  "name": "B4",
		  "ticks": 30576,
		  "time": 29.859375,
		  "velocity": 0.3937007874015748
		},
		{
		  "duration": 0.09375,
		  "durationTicks": 96,
		  "midi": 40,
		  "name": "E2",
		  "ticks": 30720,
		  "time": 30,
		  "velocity": 0.3937007874015748
		},
		{
		  "duration": 0.09375,
		  "durationTicks": 96,
		  "midi": 45,
		  "name": "A2",
		  "ticks": 30720,
		  "time": 30,
		  "velocity": 0.3937007874015748
		},
		{
		  "duration": 0.09375,
		  "durationTicks": 96,
		  "midi": 69,
		  "name": "A4",
		  "ticks": 30720,
		  "time": 30,
		  "velocity": 0.3937007874015748
		},
		{
		  "duration": 0.09375,
		  "durationTicks": 96,
		  "midi": 72,
		  "name": "C5",
		  "ticks": 30864,
		  "time": 30.140625,
		  "velocity": 0.3937007874015748
		},
		{
		  "duration": 0.09375,
		  "durationTicks": 96,
		  "midi": 35,
		  "name": "B1",
		  "ticks": 31008,
		  "time": 30.28125,
		  "velocity": 0.3937007874015748
		},
		{
		  "duration": 0.09375,
		  "durationTicks": 96,
		  "midi": 71,
		  "name": "B4",
		  "ticks": 31008,
		  "time": 30.28125,
		  "velocity": 0.3937007874015748
		},
		{
		  "duration": 0.09375,
		  "durationTicks": 96,
		  "midi": 69,
		  "name": "A4",
		  "ticks": 31152,
		  "time": 30.421875,
		  "velocity": 0.3937007874015748
		},
		{
		  "duration": 0.09375,
		  "durationTicks": 96,
		  "midi": 38,
		  "name": "D2",
		  "ticks": 31296,
		  "time": 30.5625,
		  "velocity": 0.3937007874015748
		},
		{
		  "duration": 0.09375,
		  "durationTicks": 96,
		  "midi": 41,
		  "name": "F2",
		  "ticks": 31296,
		  "time": 30.5625,
		  "velocity": 0.3937007874015748
		},
		{
		  "duration": 0.09375,
		  "durationTicks": 96,
		  "midi": 68,
		  "name": "G#4",
		  "ticks": 31296,
		  "time": 30.5625,
		  "velocity": 0.3937007874015748
		},
		{
		  "duration": 0.09375,
		  "durationTicks": 96,
		  "midi": 71,
		  "name": "B4",
		  "ticks": 31440,
		  "time": 30.703125,
		  "velocity": 0.3937007874015748
		},
		{
		  "duration": 0.09375,
		  "durationTicks": 96,
		  "midi": 33,
		  "name": "A1",
		  "ticks": 31584,
		  "time": 30.84375,
		  "velocity": 0.3937007874015748
		},
		{
		  "duration": 0.09375,
		  "durationTicks": 96,
		  "midi": 69,
		  "name": "A4",
		  "ticks": 31584,
		  "time": 30.84375,
		  "velocity": 0.3937007874015748
		},
		{
		  "duration": 0.09375,
		  "durationTicks": 96,
		  "midi": 64,
		  "name": "E4",
		  "ticks": 31728,
		  "time": 30.984375,
		  "velocity": 0.3937007874015748
		},
		{
		  "duration": 0.09375,
		  "durationTicks": 96,
		  "midi": 60,
		  "name": "C4",
		  "ticks": 31824,
		  "time": 31.078125,
		  "velocity": 0.3937007874015748
		},
		{
		  "duration": 0.09375,
		  "durationTicks": 96,
		  "midi": 36,
		  "name": "C2",
		  "ticks": 31872,
		  "time": 31.125,
		  "velocity": 0.3937007874015748
		},
		{
		  "duration": 0.09375,
		  "durationTicks": 96,
		  "midi": 40,
		  "name": "E2",
		  "ticks": 31872,
		  "time": 31.125,
		  "velocity": 0.3937007874015748
		},
		{
		  "duration": 0.09375,
		  "durationTicks": 96,
		  "midi": 57,
		  "name": "A3",
		  "ticks": 31920,
		  "time": 31.171875,
		  "velocity": 0.3937007874015748
		},
		{
		  "duration": 0.09375,
		  "durationTicks": 96,
		  "midi": 65,
		  "name": "F4",
		  "ticks": 32160,
		  "time": 31.40625,
		  "velocity": 0.3937007874015748
		},
		{
		  "duration": 0.09375,
		  "durationTicks": 96,
		  "midi": 28,
		  "name": "E1",
		  "ticks": 32160,
		  "time": 31.40625,
		  "velocity": 0.3937007874015748
		},
		{
		  "duration": 0.09375,
		  "durationTicks": 96,
		  "midi": 64,
		  "name": "E4",
		  "ticks": 32304,
		  "time": 31.546875,
		  "velocity": 0.3937007874015748
		},
		{
		  "duration": 0.09375,
		  "durationTicks": 96,
		  "midi": 30,
		  "name": "F#1",
		  "ticks": 32448,
		  "time": 31.6875,
		  "velocity": 0.3937007874015748
		},
		{
		  "duration": 0.09375,
		  "durationTicks": 96,
		  "midi": 62,
		  "name": "D4",
		  "ticks": 32448,
		  "time": 31.6875,
		  "velocity": 0.3937007874015748
		},
		{
		  "duration": 0.09375,
		  "durationTicks": 96,
		  "midi": 60,
		  "name": "C4",
		  "ticks": 32592,
		  "time": 31.828125,
		  "velocity": 0.3937007874015748
		},
		{
		  "duration": 0.09375,
		  "durationTicks": 96,
		  "midi": 32,
		  "name": "G#1",
		  "ticks": 32736,
		  "time": 31.96875,
		  "velocity": 0.3937007874015748
		},
		{
		  "duration": 0.09375,
		  "durationTicks": 96,
		  "midi": 59,
		  "name": "B3",
		  "ticks": 32736,
		  "time": 31.96875,
		  "velocity": 0.3937007874015748
		},
		{
		  "duration": 0.09375,
		  "durationTicks": 96,
		  "midi": 57,
		  "name": "A3",
		  "ticks": 32880,
		  "time": 32.109375,
		  "velocity": 0.3937007874015748
		},
		{
		  "duration": 0.09375,
		  "durationTicks": 96,
		  "midi": 28,
		  "name": "E1",
		  "ticks": 33024,
		  "time": 32.25,
		  "velocity": 0.3937007874015748
		},
		{
		  "duration": 0.09375,
		  "durationTicks": 96,
		  "midi": 56,
		  "name": "G#3",
		  "ticks": 33024,
		  "time": 32.25,
		  "velocity": 0.3937007874015748
		},
		{
		  "duration": 0.09375,
		  "durationTicks": 96,
		  "midi": 59,
		  "name": "B3",
		  "ticks": 33168,
		  "time": 32.390625,
		  "velocity": 0.3937007874015748
		},
		{
		  "duration": 0.09375,
		  "durationTicks": 96,
		  "midi": 33,
		  "name": "A1",
		  "ticks": 33312,
		  "time": 32.53125,
		  "velocity": 0.3937007874015748
		},
		{
		  "duration": 0.09375,
		  "durationTicks": 96,
		  "midi": 57,
		  "name": "A3",
		  "ticks": 33312,
		  "time": 32.53125,
		  "velocity": 0.3937007874015748
		},
		{
		  "duration": 0.46875,
		  "durationTicks": 480,
		  "midi": 28,
		  "name": "E1",
		  "ticks": 33888,
		  "time": 33.09375,
		  "velocity": 0.3937007874015748
		},
		{
		  "duration": 0.046875,
		  "durationTicks": 48,
		  "midi": 30,
		  "name": "F#1",
		  "ticks": 34368,
		  "time": 33.5625,
		  "velocity": 0.3937007874015748
		},
		{
		  "duration": 0.046875,
		  "durationTicks": 48,
		  "midi": 32,
		  "name": "G#1",
		  "ticks": 34416,
		  "time": 33.609375,
		  "velocity": 0.3937007874015748
		},
		{
		  "duration": 0.09375,
		  "durationTicks": 96,
		  "midi": 33,
		  "name": "A1",
		  "ticks": 34464,
		  "time": 33.65625,
		  "velocity": 0.3937007874015748
		},
		{
		  "duration": 0.09375,
		  "durationTicks": 96,
		  "midi": 52,
		  "name": "E3",
		  "ticks": 34464,
		  "time": 33.65625,
		  "velocity": 0.3937007874015748
		},
		{
		  "duration": 0.09375,
		  "durationTicks": 96,
		  "midi": 52,
		  "name": "E3",
		  "ticks": 34560,
		  "time": 33.75,
		  "velocity": 0.3937007874015748
		},
		{
		  "duration": 0.09375,
		  "durationTicks": 96,
		  "midi": 40,
		  "name": "E2",
		  "ticks": 34656,
		  "time": 33.84375,
		  "velocity": 0.3937007874015748
		},
		{
		  "duration": 0.09375,
		  "durationTicks": 96,
		  "midi": 36,
		  "name": "C2",
		  "ticks": 34656,
		  "time": 33.84375,
		  "velocity": 0.3937007874015748
		},
		{
		  "duration": 0.09375,
		  "durationTicks": 96,
		  "midi": 52,
		  "name": "E3",
		  "ticks": 34656,
		  "time": 33.84375,
		  "velocity": 0.3937007874015748
		},
		{
		  "duration": 0.09375,
		  "durationTicks": 96,
		  "midi": 52,
		  "name": "E3",
		  "ticks": 34752,
		  "time": 33.9375,
		  "velocity": 0.3937007874015748
		},
		{
		  "duration": 0.09375,
		  "durationTicks": 96,
		  "midi": 28,
		  "name": "E1",
		  "ticks": 34848,
		  "time": 34.03125,
		  "velocity": 0.3937007874015748
		},
		{
		  "duration": 0.09375,
		  "durationTicks": 96,
		  "midi": 52,
		  "name": "E3",
		  "ticks": 34848,
		  "time": 34.03125,
		  "velocity": 0.3937007874015748
		},
		{
		  "duration": 0.09375,
		  "durationTicks": 96,
		  "midi": 52,
		  "name": "E3",
		  "ticks": 34944,
		  "time": 34.125,
		  "velocity": 0.3937007874015748
		},
		{
		  "duration": 0.09375,
		  "durationTicks": 96,
		  "midi": 40,
		  "name": "E2",
		  "ticks": 35040,
		  "time": 34.21875,
		  "velocity": 0.3937007874015748
		},
		{
		  "duration": 0.09375,
		  "durationTicks": 96,
		  "midi": 36,
		  "name": "C2",
		  "ticks": 35040,
		  "time": 34.21875,
		  "velocity": 0.3937007874015748
		},
		{
		  "duration": 0.09375,
		  "durationTicks": 96,
		  "midi": 52,
		  "name": "E3",
		  "ticks": 35040,
		  "time": 34.21875,
		  "velocity": 0.3937007874015748
		},
		{
		  "duration": 0.09375,
		  "durationTicks": 96,
		  "midi": 52,
		  "name": "E3",
		  "ticks": 35136,
		  "time": 34.3125,
		  "velocity": 0.3937007874015748
		},
		{
		  "duration": 0.09375,
		  "durationTicks": 96,
		  "midi": 33,
		  "name": "A1",
		  "ticks": 35232,
		  "time": 34.40625,
		  "velocity": 0.3937007874015748
		},
		{
		  "duration": 0.09375,
		  "durationTicks": 96,
		  "midi": 52,
		  "name": "E3",
		  "ticks": 35232,
		  "time": 34.40625,
		  "velocity": 0.3937007874015748
		},
		{
		  "duration": 0.09375,
		  "durationTicks": 96,
		  "midi": 52,
		  "name": "E3",
		  "ticks": 35328,
		  "time": 34.5,
		  "velocity": 0.3937007874015748
		},
		{
		  "duration": 0.09375,
		  "durationTicks": 96,
		  "midi": 40,
		  "name": "E2",
		  "ticks": 35424,
		  "time": 34.59375,
		  "velocity": 0.3937007874015748
		},
		{
		  "duration": 0.09375,
		  "durationTicks": 96,
		  "midi": 36,
		  "name": "C2",
		  "ticks": 35424,
		  "time": 34.59375,
		  "velocity": 0.3937007874015748
		},
		{
		  "duration": 0.09375,
		  "durationTicks": 96,
		  "midi": 52,
		  "name": "E3",
		  "ticks": 35424,
		  "time": 34.59375,
		  "velocity": 0.3937007874015748
		},
		{
		  "duration": 0.09375,
		  "durationTicks": 96,
		  "midi": 52,
		  "name": "E3",
		  "ticks": 35520,
		  "time": 34.6875,
		  "velocity": 0.3937007874015748
		},
		{
		  "duration": 0.09375,
		  "durationTicks": 96,
		  "midi": 28,
		  "name": "E1",
		  "ticks": 35616,
		  "time": 34.78125,
		  "velocity": 0.3937007874015748
		},
		{
		  "duration": 0.09375,
		  "durationTicks": 96,
		  "midi": 52,
		  "name": "E3",
		  "ticks": 35616,
		  "time": 34.78125,
		  "velocity": 0.3937007874015748
		},
		{
		  "duration": 0.09375,
		  "durationTicks": 96,
		  "midi": 52,
		  "name": "E3",
		  "ticks": 35712,
		  "time": 34.875,
		  "velocity": 0.3937007874015748
		},
		{
		  "duration": 0.09375,
		  "durationTicks": 96,
		  "midi": 40,
		  "name": "E2",
		  "ticks": 35808,
		  "time": 34.96875,
		  "velocity": 0.3937007874015748
		},
		{
		  "duration": 0.09375,
		  "durationTicks": 96,
		  "midi": 36,
		  "name": "C2",
		  "ticks": 35808,
		  "time": 34.96875,
		  "velocity": 0.3937007874015748
		},
		{
		  "duration": 0.09375,
		  "durationTicks": 96,
		  "midi": 52,
		  "name": "E3",
		  "ticks": 35808,
		  "time": 34.96875,
		  "velocity": 0.3937007874015748
		},
		{
		  "duration": 0.09375,
		  "durationTicks": 96,
		  "midi": 52,
		  "name": "E3",
		  "ticks": 35904,
		  "time": 35.0625,
		  "velocity": 0.3937007874015748
		},
		{
		  "duration": 0.09375,
		  "durationTicks": 96,
		  "midi": 33,
		  "name": "A1",
		  "ticks": 36000,
		  "time": 35.15625,
		  "velocity": 0.3937007874015748
		},
		{
		  "duration": 0.09375,
		  "durationTicks": 96,
		  "midi": 52,
		  "name": "E3",
		  "ticks": 36000,
		  "time": 35.15625,
		  "velocity": 0.3937007874015748
		},
		{
		  "duration": 0.09375,
		  "durationTicks": 96,
		  "midi": 52,
		  "name": "E3",
		  "ticks": 36096,
		  "time": 35.25,
		  "velocity": 0.3937007874015748
		},
		{
		  "duration": 0.09375,
		  "durationTicks": 96,
		  "midi": 36,
		  "name": "C2",
		  "ticks": 36192,
		  "time": 35.34375,
		  "velocity": 0.3937007874015748
		},
		{
		  "duration": 0.09375,
		  "durationTicks": 96,
		  "midi": 40,
		  "name": "E2",
		  "ticks": 36192,
		  "time": 35.34375,
		  "velocity": 0.3937007874015748
		},
		{
		  "duration": 0.09375,
		  "durationTicks": 96,
		  "midi": 52,
		  "name": "E3",
		  "ticks": 36192,
		  "time": 35.34375,
		  "velocity": 0.3937007874015748
		},
		{
		  "duration": 0.09375,
		  "durationTicks": 96,
		  "midi": 52,
		  "name": "E3",
		  "ticks": 36288,
		  "time": 35.4375,
		  "velocity": 0.3937007874015748
		},
		{
		  "duration": 0.09375,
		  "durationTicks": 96,
		  "midi": 28,
		  "name": "E1",
		  "ticks": 36384,
		  "time": 35.53125,
		  "velocity": 0.3937007874015748
		},
		{
		  "duration": 0.09375,
		  "durationTicks": 96,
		  "midi": 52,
		  "name": "E3",
		  "ticks": 36384,
		  "time": 35.53125,
		  "velocity": 0.3937007874015748
		},
		{
		  "duration": 0.09375,
		  "durationTicks": 96,
		  "midi": 53,
		  "name": "F3",
		  "ticks": 36480,
		  "time": 35.625,
		  "velocity": 0.3937007874015748
		},
		{
		  "duration": 0.09375,
		  "durationTicks": 96,
		  "midi": 36,
		  "name": "C2",
		  "ticks": 36576,
		  "time": 35.71875,
		  "velocity": 0.3937007874015748
		},
		{
		  "duration": 0.09375,
		  "durationTicks": 96,
		  "midi": 40,
		  "name": "E2",
		  "ticks": 36576,
		  "time": 35.71875,
		  "velocity": 0.3937007874015748
		},
		{
		  "duration": 0.09375,
		  "durationTicks": 96,
		  "midi": 52,
		  "name": "E3",
		  "ticks": 36576,
		  "time": 35.71875,
		  "velocity": 0.3937007874015748
		},
		{
		  "duration": 0.09375,
		  "durationTicks": 96,
		  "midi": 51,
		  "name": "D#3",
		  "ticks": 36672,
		  "time": 35.8125,
		  "velocity": 0.3937007874015748
		},
		{
		  "duration": 0.09375,
		  "durationTicks": 96,
		  "midi": 33,
		  "name": "A1",
		  "ticks": 36768,
		  "time": 35.90625,
		  "velocity": 0.3937007874015748
		},
		{
		  "duration": 0.09375,
		  "durationTicks": 96,
		  "midi": 52,
		  "name": "E3",
		  "ticks": 36768,
		  "time": 35.90625,
		  "velocity": 0.3937007874015748
		},
		{
		  "duration": 0.09375,
		  "durationTicks": 96,
		  "midi": 36,
		  "name": "C2",
		  "ticks": 36960,
		  "time": 36.09375,
		  "velocity": 0.3937007874015748
		},
		{
		  "duration": 0.09375,
		  "durationTicks": 96,
		  "midi": 40,
		  "name": "E2",
		  "ticks": 36960,
		  "time": 36.09375,
		  "velocity": 0.3937007874015748
		},
		{
		  "duration": 0.09375,
		  "durationTicks": 96,
		  "midi": 57,
		  "name": "A3",
		  "ticks": 36960,
		  "time": 36.09375,
		  "velocity": 0.3937007874015748
		},
		{
		  "duration": 0.09375,
		  "durationTicks": 96,
		  "midi": 28,
		  "name": "E1",
		  "ticks": 37152,
		  "time": 36.28125,
		  "velocity": 0.3937007874015748
		},
		{
		  "duration": 0.375,
		  "durationTicks": 384,
		  "midi": 60,
		  "name": "C4",
		  "ticks": 37152,
		  "time": 36.28125,
		  "velocity": 0.3937007874015748
		},
		{
		  "duration": 0.09375,
		  "durationTicks": 96,
		  "midi": 36,
		  "name": "C2",
		  "ticks": 37344,
		  "time": 36.46875,
		  "velocity": 0.3937007874015748
		},
		{
		  "duration": 0.09375,
		  "durationTicks": 96,
		  "midi": 40,
		  "name": "E2",
		  "ticks": 37344,
		  "time": 36.46875,
		  "velocity": 0.3937007874015748
		},
		{
		  "duration": 0.09375,
		  "durationTicks": 96,
		  "midi": 35,
		  "name": "B1",
		  "ticks": 37536,
		  "time": 36.65625,
		  "velocity": 0.3937007874015748
		},
		{
		  "duration": 0.09375,
		  "durationTicks": 96,
		  "midi": 62,
		  "name": "D4",
		  "ticks": 37536,
		  "time": 36.65625,
		  "velocity": 0.3937007874015748
		},
		{
		  "duration": 0.09375,
		  "durationTicks": 96,
		  "midi": 62,
		  "name": "D4",
		  "ticks": 37632,
		  "time": 36.75,
		  "velocity": 0.3937007874015748
		},
		{
		  "duration": 0.09375,
		  "durationTicks": 96,
		  "midi": 40,
		  "name": "E2",
		  "ticks": 37728,
		  "time": 36.84375,
		  "velocity": 0.3937007874015748
		},
		{
		  "duration": 0.09375,
		  "durationTicks": 96,
		  "midi": 38,
		  "name": "D2",
		  "ticks": 37728,
		  "time": 36.84375,
		  "velocity": 0.3937007874015748
		},
		{
		  "duration": 0.09375,
		  "durationTicks": 96,
		  "midi": 62,
		  "name": "D4",
		  "ticks": 37728,
		  "time": 36.84375,
		  "velocity": 0.3937007874015748
		},
		{
		  "duration": 0.09375,
		  "durationTicks": 96,
		  "midi": 62,
		  "name": "D4",
		  "ticks": 37824,
		  "time": 36.9375,
		  "velocity": 0.3937007874015748
		},
		{
		  "duration": 0.09375,
		  "durationTicks": 96,
		  "midi": 28,
		  "name": "E1",
		  "ticks": 37920,
		  "time": 37.03125,
		  "velocity": 0.3937007874015748
		},
		{
		  "duration": 0.09375,
		  "durationTicks": 96,
		  "midi": 62,
		  "name": "D4",
		  "ticks": 37920,
		  "time": 37.03125,
		  "velocity": 0.3937007874015748
		},
		{
		  "duration": 0.09375,
		  "durationTicks": 96,
		  "midi": 60,
		  "name": "C4",
		  "ticks": 38016,
		  "time": 37.125,
		  "velocity": 0.3937007874015748
		},
		{
		  "duration": 0.09375,
		  "durationTicks": 96,
		  "midi": 40,
		  "name": "E2",
		  "ticks": 38112,
		  "time": 37.21875,
		  "velocity": 0.3937007874015748
		},
		{
		  "duration": 0.09375,
		  "durationTicks": 96,
		  "midi": 38,
		  "name": "D2",
		  "ticks": 38112,
		  "time": 37.21875,
		  "velocity": 0.3937007874015748
		},
		{
		  "duration": 0.09375,
		  "durationTicks": 96,
		  "midi": 59,
		  "name": "B3",
		  "ticks": 38112,
		  "time": 37.21875,
		  "velocity": 0.3937007874015748
		},
		{
		  "duration": 0.09375,
		  "durationTicks": 96,
		  "midi": 62,
		  "name": "D4",
		  "ticks": 38208,
		  "time": 37.3125,
		  "velocity": 0.3937007874015748
		},
		{
		  "duration": 0.09375,
		  "durationTicks": 96,
		  "midi": 33,
		  "name": "A1",
		  "ticks": 38304,
		  "time": 37.40625,
		  "velocity": 0.3937007874015748
		},
		{
		  "duration": 0.09375,
		  "durationTicks": 96,
		  "midi": 60,
		  "name": "C4",
		  "ticks": 38304,
		  "time": 37.40625,
		  "velocity": 0.3937007874015748
		},
		{
		  "duration": 0.09375,
		  "durationTicks": 96,
		  "midi": 60,
		  "name": "C4",
		  "ticks": 38400,
		  "time": 37.5,
		  "velocity": 0.3937007874015748
		},
		{
		  "duration": 0.09375,
		  "durationTicks": 96,
		  "midi": 40,
		  "name": "E2",
		  "ticks": 38496,
		  "time": 37.59375,
		  "velocity": 0.3937007874015748
		},
		{
		  "duration": 0.09375,
		  "durationTicks": 96,
		  "midi": 36,
		  "name": "C2",
		  "ticks": 38496,
		  "time": 37.59375,
		  "velocity": 0.3937007874015748
		},
		{
		  "duration": 0.09375,
		  "durationTicks": 96,
		  "midi": 60,
		  "name": "C4",
		  "ticks": 38496,
		  "time": 37.59375,
		  "velocity": 0.3937007874015748
		},
		{
		  "duration": 0.09375,
		  "durationTicks": 96,
		  "midi": 60,
		  "name": "C4",
		  "ticks": 38592,
		  "time": 37.6875,
		  "velocity": 0.3937007874015748
		},
		{
		  "duration": 0.09375,
		  "durationTicks": 96,
		  "midi": 28,
		  "name": "E1",
		  "ticks": 38688,
		  "time": 37.78125,
		  "velocity": 0.3937007874015748
		},
		{
		  "duration": 0.09375,
		  "durationTicks": 96,
		  "midi": 60,
		  "name": "C4",
		  "ticks": 38688,
		  "time": 37.78125,
		  "velocity": 0.3937007874015748
		},
		{
		  "duration": 0.09375,
		  "durationTicks": 96,
		  "midi": 59,
		  "name": "B3",
		  "ticks": 38784,
		  "time": 37.875,
		  "velocity": 0.3937007874015748
		},
		{
		  "duration": 0.09375,
		  "durationTicks": 96,
		  "midi": 40,
		  "name": "E2",
		  "ticks": 38880,
		  "time": 37.96875,
		  "velocity": 0.3937007874015748
		},
		{
		  "duration": 0.09375,
		  "durationTicks": 96,
		  "midi": 36,
		  "name": "C2",
		  "ticks": 38880,
		  "time": 37.96875,
		  "velocity": 0.3937007874015748
		},
		{
		  "duration": 0.09375,
		  "durationTicks": 96,
		  "midi": 57,
		  "name": "A3",
		  "ticks": 38880,
		  "time": 37.96875,
		  "velocity": 0.3937007874015748
		},
		{
		  "duration": 0.09375,
		  "durationTicks": 96,
		  "midi": 60,
		  "name": "C4",
		  "ticks": 38976,
		  "time": 38.0625,
		  "velocity": 0.3937007874015748
		},
		{
		  "duration": 0.09375,
		  "durationTicks": 96,
		  "midi": 35,
		  "name": "B1",
		  "ticks": 39072,
		  "time": 38.15625,
		  "velocity": 0.3937007874015748
		},
		{
		  "duration": 0.09375,
		  "durationTicks": 96,
		  "midi": 59,
		  "name": "B3",
		  "ticks": 39072,
		  "time": 38.15625,
		  "velocity": 0.3937007874015748
		},
		{
		  "duration": 0.09375,
		  "durationTicks": 96,
		  "midi": 59,
		  "name": "B3",
		  "ticks": 39168,
		  "time": 38.25,
		  "velocity": 0.3937007874015748
		},
		{
		  "duration": 0.09375,
		  "durationTicks": 96,
		  "midi": 59,
		  "name": "B3",
		  "ticks": 39264,
		  "time": 38.34375,
		  "velocity": 0.3937007874015748
		},
		{
		  "duration": 0.09375,
		  "durationTicks": 96,
		  "midi": 39,
		  "name": "D#2",
		  "ticks": 39264,
		  "time": 38.34375,
		  "velocity": 0.3937007874015748
		},
		{
		  "duration": 0.09375,
		  "durationTicks": 96,
		  "midi": 42,
		  "name": "F#2",
		  "ticks": 39264,
		  "time": 38.34375,
		  "velocity": 0.3937007874015748
		},
		{
		  "duration": 0.09375,
		  "durationTicks": 96,
		  "midi": 59,
		  "name": "B3",
		  "ticks": 39360,
		  "time": 38.4375,
		  "velocity": 0.3937007874015748
		},
		{
		  "duration": 0.09375,
		  "durationTicks": 96,
		  "midi": 30,
		  "name": "F#1",
		  "ticks": 39456,
		  "time": 38.53125,
		  "velocity": 0.3937007874015748
		},
		{
		  "duration": 0.09375,
		  "durationTicks": 96,
		  "midi": 54,
		  "name": "F#3",
		  "ticks": 39456,
		  "time": 38.53125,
		  "velocity": 0.3937007874015748
		},
		{
		  "duration": 0.09375,
		  "durationTicks": 96,
		  "midi": 39,
		  "name": "D#2",
		  "ticks": 39648,
		  "time": 38.71875,
		  "velocity": 0.3937007874015748
		},
		{
		  "duration": 0.09375,
		  "durationTicks": 96,
		  "midi": 42,
		  "name": "F#2",
		  "ticks": 39648,
		  "time": 38.71875,
		  "velocity": 0.3937007874015748
		},
		{
		  "duration": 0.09375,
		  "durationTicks": 96,
		  "midi": 59,
		  "name": "B3",
		  "ticks": 39648,
		  "time": 38.71875,
		  "velocity": 0.3937007874015748
		},
		{
		  "duration": 0.09375,
		  "durationTicks": 96,
		  "midi": 40,
		  "name": "E2",
		  "ticks": 39840,
		  "time": 38.90625,
		  "velocity": 0.3937007874015748
		},
		{
		  "duration": 0.09375,
		  "durationTicks": 96,
		  "midi": 44,
		  "name": "G#2",
		  "ticks": 39840,
		  "time": 38.90625,
		  "velocity": 0.3937007874015748
		},
		{
		  "duration": 0.09375,
		  "durationTicks": 96,
		  "midi": 56,
		  "name": "G#3",
		  "ticks": 39840,
		  "time": 38.90625,
		  "velocity": 0.3937007874015748
		},
		{
		  "duration": 0.28125,
		  "durationTicks": 288,
		  "midi": 28,
		  "name": "E1",
		  "ticks": 40224,
		  "time": 39.28125,
		  "velocity": 0.3937007874015748
		},
		{
		  "duration": 0.09375,
		  "durationTicks": 96,
		  "midi": 33,
		  "name": "A1",
		  "ticks": 40608,
		  "time": 39.65625,
		  "velocity": 0.3937007874015748
		},
		{
		  "duration": 0.09375,
		  "durationTicks": 96,
		  "midi": 52,
		  "name": "E3",
		  "ticks": 40608,
		  "time": 39.65625,
		  "velocity": 0.3937007874015748
		},
		{
		  "duration": 0.09375,
		  "durationTicks": 96,
		  "midi": 52,
		  "name": "E3",
		  "ticks": 40704,
		  "time": 39.75,
		  "velocity": 0.3937007874015748
		},
		{
		  "duration": 0.09375,
		  "durationTicks": 96,
		  "midi": 40,
		  "name": "E2",
		  "ticks": 40800,
		  "time": 39.84375,
		  "velocity": 0.3937007874015748
		},
		{
		  "duration": 0.09375,
		  "durationTicks": 96,
		  "midi": 36,
		  "name": "C2",
		  "ticks": 40800,
		  "time": 39.84375,
		  "velocity": 0.3937007874015748
		},
		{
		  "duration": 0.09375,
		  "durationTicks": 96,
		  "midi": 52,
		  "name": "E3",
		  "ticks": 40800,
		  "time": 39.84375,
		  "velocity": 0.3937007874015748
		},
		{
		  "duration": 0.09375,
		  "durationTicks": 96,
		  "midi": 52,
		  "name": "E3",
		  "ticks": 40896,
		  "time": 39.9375,
		  "velocity": 0.3937007874015748
		},
		{
		  "duration": 0.09375,
		  "durationTicks": 96,
		  "midi": 28,
		  "name": "E1",
		  "ticks": 40992,
		  "time": 40.03125,
		  "velocity": 0.3937007874015748
		},
		{
		  "duration": 0.09375,
		  "durationTicks": 96,
		  "midi": 52,
		  "name": "E3",
		  "ticks": 40992,
		  "time": 40.03125,
		  "velocity": 0.3937007874015748
		},
		{
		  "duration": 0.09375,
		  "durationTicks": 96,
		  "midi": 52,
		  "name": "E3",
		  "ticks": 41088,
		  "time": 40.125,
		  "velocity": 0.3937007874015748
		},
		{
		  "duration": 0.09375,
		  "durationTicks": 96,
		  "midi": 40,
		  "name": "E2",
		  "ticks": 41184,
		  "time": 40.21875,
		  "velocity": 0.3937007874015748
		},
		{
		  "duration": 0.09375,
		  "durationTicks": 96,
		  "midi": 36,
		  "name": "C2",
		  "ticks": 41184,
		  "time": 40.21875,
		  "velocity": 0.3937007874015748
		},
		{
		  "duration": 0.09375,
		  "durationTicks": 96,
		  "midi": 52,
		  "name": "E3",
		  "ticks": 41184,
		  "time": 40.21875,
		  "velocity": 0.3937007874015748
		},
		{
		  "duration": 0.09375,
		  "durationTicks": 96,
		  "midi": 52,
		  "name": "E3",
		  "ticks": 41280,
		  "time": 40.3125,
		  "velocity": 0.3937007874015748
		},
		{
		  "duration": 0.09375,
		  "durationTicks": 96,
		  "midi": 33,
		  "name": "A1",
		  "ticks": 41376,
		  "time": 40.40625,
		  "velocity": 0.3937007874015748
		},
		{
		  "duration": 0.09375,
		  "durationTicks": 96,
		  "midi": 52,
		  "name": "E3",
		  "ticks": 41376,
		  "time": 40.40625,
		  "velocity": 0.3937007874015748
		},
		{
		  "duration": 0.09375,
		  "durationTicks": 96,
		  "midi": 52,
		  "name": "E3",
		  "ticks": 41472,
		  "time": 40.5,
		  "velocity": 0.3937007874015748
		},
		{
		  "duration": 0.09375,
		  "durationTicks": 96,
		  "midi": 40,
		  "name": "E2",
		  "ticks": 41568,
		  "time": 40.59375,
		  "velocity": 0.3937007874015748
		},
		{
		  "duration": 0.09375,
		  "durationTicks": 96,
		  "midi": 36,
		  "name": "C2",
		  "ticks": 41568,
		  "time": 40.59375,
		  "velocity": 0.3937007874015748
		},
		{
		  "duration": 0.09375,
		  "durationTicks": 96,
		  "midi": 52,
		  "name": "E3",
		  "ticks": 41568,
		  "time": 40.59375,
		  "velocity": 0.3937007874015748
		},
		{
		  "duration": 0.09375,
		  "durationTicks": 96,
		  "midi": 52,
		  "name": "E3",
		  "ticks": 41664,
		  "time": 40.6875,
		  "velocity": 0.3937007874015748
		},
		{
		  "duration": 0.09375,
		  "durationTicks": 96,
		  "midi": 28,
		  "name": "E1",
		  "ticks": 41760,
		  "time": 40.78125,
		  "velocity": 0.3937007874015748
		},
		{
		  "duration": 0.09375,
		  "durationTicks": 96,
		  "midi": 52,
		  "name": "E3",
		  "ticks": 41760,
		  "time": 40.78125,
		  "velocity": 0.3937007874015748
		},
		{
		  "duration": 0.09375,
		  "durationTicks": 96,
		  "midi": 52,
		  "name": "E3",
		  "ticks": 41856,
		  "time": 40.875,
		  "velocity": 0.3937007874015748
		},
		{
		  "duration": 0.09375,
		  "durationTicks": 96,
		  "midi": 40,
		  "name": "E2",
		  "ticks": 41952,
		  "time": 40.96875,
		  "velocity": 0.3937007874015748
		},
		{
		  "duration": 0.09375,
		  "durationTicks": 96,
		  "midi": 36,
		  "name": "C2",
		  "ticks": 41952,
		  "time": 40.96875,
		  "velocity": 0.3937007874015748
		},
		{
		  "duration": 0.09375,
		  "durationTicks": 96,
		  "midi": 52,
		  "name": "E3",
		  "ticks": 41952,
		  "time": 40.96875,
		  "velocity": 0.3937007874015748
		},
		{
		  "duration": 0.09375,
		  "durationTicks": 96,
		  "midi": 52,
		  "name": "E3",
		  "ticks": 42048,
		  "time": 41.0625,
		  "velocity": 0.3937007874015748
		},
		{
		  "duration": 0.09375,
		  "durationTicks": 96,
		  "midi": 33,
		  "name": "A1",
		  "ticks": 42144,
		  "time": 41.15625,
		  "velocity": 0.3937007874015748
		},
		{
		  "duration": 0.09375,
		  "durationTicks": 96,
		  "midi": 52,
		  "name": "E3",
		  "ticks": 42144,
		  "time": 41.15625,
		  "velocity": 0.3937007874015748
		},
		{
		  "duration": 0.09375,
		  "durationTicks": 96,
		  "midi": 52,
		  "name": "E3",
		  "ticks": 42240,
		  "time": 41.25,
		  "velocity": 0.3937007874015748
		},
		{
		  "duration": 0.09375,
		  "durationTicks": 96,
		  "midi": 40,
		  "name": "E2",
		  "ticks": 42336,
		  "time": 41.34375,
		  "velocity": 0.3937007874015748
		},
		{
		  "duration": 0.09375,
		  "durationTicks": 96,
		  "midi": 36,
		  "name": "C2",
		  "ticks": 42336,
		  "time": 41.34375,
		  "velocity": 0.3937007874015748
		},
		{
		  "duration": 0.09375,
		  "durationTicks": 96,
		  "midi": 52,
		  "name": "E3",
		  "ticks": 42336,
		  "time": 41.34375,
		  "velocity": 0.3937007874015748
		},
		{
		  "duration": 0.09375,
		  "durationTicks": 96,
		  "midi": 52,
		  "name": "E3",
		  "ticks": 42432,
		  "time": 41.4375,
		  "velocity": 0.3937007874015748
		},
		{
		  "duration": 0.09375,
		  "durationTicks": 96,
		  "midi": 28,
		  "name": "E1",
		  "ticks": 42528,
		  "time": 41.53125,
		  "velocity": 0.3937007874015748
		},
		{
		  "duration": 0.09375,
		  "durationTicks": 96,
		  "midi": 52,
		  "name": "E3",
		  "ticks": 42528,
		  "time": 41.53125,
		  "velocity": 0.3937007874015748
		},
		{
		  "duration": 0.09375,
		  "durationTicks": 96,
		  "midi": 53,
		  "name": "F3",
		  "ticks": 42624,
		  "time": 41.625,
		  "velocity": 0.3937007874015748
		},
		{
		  "duration": 0.09375,
		  "durationTicks": 96,
		  "midi": 40,
		  "name": "E2",
		  "ticks": 42720,
		  "time": 41.71875,
		  "velocity": 0.3937007874015748
		},
		{
		  "duration": 0.09375,
		  "durationTicks": 96,
		  "midi": 36,
		  "name": "C2",
		  "ticks": 42720,
		  "time": 41.71875,
		  "velocity": 0.3937007874015748
		},
		{
		  "duration": 0.09375,
		  "durationTicks": 96,
		  "midi": 52,
		  "name": "E3",
		  "ticks": 42720,
		  "time": 41.71875,
		  "velocity": 0.3937007874015748
		},
		{
		  "duration": 0.09375,
		  "durationTicks": 96,
		  "midi": 51,
		  "name": "D#3",
		  "ticks": 42816,
		  "time": 41.8125,
		  "velocity": 0.3937007874015748
		},
		{
		  "duration": 0.09375,
		  "durationTicks": 96,
		  "midi": 33,
		  "name": "A1",
		  "ticks": 42912,
		  "time": 41.90625,
		  "velocity": 0.3937007874015748
		},
		{
		  "duration": 0.09375,
		  "durationTicks": 96,
		  "midi": 52,
		  "name": "E3",
		  "ticks": 42912,
		  "time": 41.90625,
		  "velocity": 0.3937007874015748
		},
		{
		  "duration": 0.09375,
		  "durationTicks": 96,
		  "midi": 40,
		  "name": "E2",
		  "ticks": 43104,
		  "time": 42.09375,
		  "velocity": 0.3937007874015748
		},
		{
		  "duration": 0.09375,
		  "durationTicks": 96,
		  "midi": 36,
		  "name": "C2",
		  "ticks": 43104,
		  "time": 42.09375,
		  "velocity": 0.3937007874015748
		},
		{
		  "duration": 0.09375,
		  "durationTicks": 96,
		  "midi": 57,
		  "name": "A3",
		  "ticks": 43104,
		  "time": 42.09375,
		  "velocity": 0.3937007874015748
		},
		{
		  "duration": 0.09375,
		  "durationTicks": 96,
		  "midi": 60,
		  "name": "C4",
		  "ticks": 43200,
		  "time": 42.1875,
		  "velocity": 0.3937007874015748
		},
		{
		  "duration": 0.09375,
		  "durationTicks": 96,
		  "midi": 28,
		  "name": "E1",
		  "ticks": 43296,
		  "time": 42.28125,
		  "velocity": 0.3937007874015748
		},
		{
		  "duration": 0.09375,
		  "durationTicks": 96,
		  "midi": 64,
		  "name": "E4",
		  "ticks": 43296,
		  "time": 42.28125,
		  "velocity": 0.3937007874015748
		},
		{
		  "duration": 0.09375,
		  "durationTicks": 96,
		  "midi": 69,
		  "name": "A4",
		  "ticks": 43392,
		  "time": 42.375,
		  "velocity": 0.3937007874015748
		},
		{
		  "duration": 0.09375,
		  "durationTicks": 96,
		  "midi": 40,
		  "name": "E2",
		  "ticks": 43488,
		  "time": 42.46875,
		  "velocity": 0.3937007874015748
		},
		{
		  "duration": 0.09375,
		  "durationTicks": 96,
		  "midi": 36,
		  "name": "C2",
		  "ticks": 43488,
		  "time": 42.46875,
		  "velocity": 0.3937007874015748
		},
		{
		  "duration": 0.09375,
		  "durationTicks": 96,
		  "midi": 72,
		  "name": "C5",
		  "ticks": 43488,
		  "time": 42.46875,
		  "velocity": 0.3937007874015748
		},
		{
		  "duration": 0.09375,
		  "durationTicks": 96,
		  "midi": 38,
		  "name": "D2",
		  "ticks": 43680,
		  "time": 42.65625,
		  "velocity": 0.3937007874015748
		},
		{
		  "duration": 0.09375,
		  "durationTicks": 96,
		  "midi": 74,
		  "name": "D5",
		  "ticks": 43680,
		  "time": 42.65625,
		  "velocity": 0.3937007874015748
		},
		{
		  "duration": 0.09375,
		  "durationTicks": 96,
		  "midi": 72,
		  "name": "C5",
		  "ticks": 43776,
		  "time": 42.75,
		  "velocity": 0.3937007874015748
		},
		{
		  "duration": 0.09375,
		  "durationTicks": 96,
		  "midi": 45,
		  "name": "A2",
		  "ticks": 43872,
		  "time": 42.84375,
		  "velocity": 0.3937007874015748
		},
		{
		  "duration": 0.09375,
		  "durationTicks": 96,
		  "midi": 41,
		  "name": "F2",
		  "ticks": 43872,
		  "time": 42.84375,
		  "velocity": 0.3937007874015748
		},
		{
		  "duration": 0.09375,
		  "durationTicks": 96,
		  "midi": 71,
		  "name": "B4",
		  "ticks": 43872,
		  "time": 42.84375,
		  "velocity": 0.3937007874015748
		},
		{
		  "duration": 0.09375,
		  "durationTicks": 96,
		  "midi": 74,
		  "name": "D5",
		  "ticks": 43968,
		  "time": 42.9375,
		  "velocity": 0.3937007874015748
		},
		{
		  "duration": 0.09375,
		  "durationTicks": 96,
		  "midi": 36,
		  "name": "C2",
		  "ticks": 44064,
		  "time": 43.03125,
		  "velocity": 0.3937007874015748
		},
		{
		  "duration": 0.09375,
		  "durationTicks": 96,
		  "midi": 72,
		  "name": "C5",
		  "ticks": 44064,
		  "time": 43.03125,
		  "velocity": 0.3937007874015748
		},
		{
		  "duration": 0.09375,
		  "durationTicks": 96,
		  "midi": 71,
		  "name": "B4",
		  "ticks": 44160,
		  "time": 43.125,
		  "velocity": 0.3937007874015748
		},
		{
		  "duration": 0.09375,
		  "durationTicks": 96,
		  "midi": 45,
		  "name": "A2",
		  "ticks": 44256,
		  "time": 43.21875,
		  "velocity": 0.3937007874015748
		},
		{
		  "duration": 0.09375,
		  "durationTicks": 96,
		  "midi": 40,
		  "name": "E2",
		  "ticks": 44256,
		  "time": 43.21875,
		  "velocity": 0.3937007874015748
		},
		{
		  "duration": 0.09375,
		  "durationTicks": 96,
		  "midi": 69,
		  "name": "A4",
		  "ticks": 44256,
		  "time": 43.21875,
		  "velocity": 0.3937007874015748
		},
		{
		  "duration": 0.09375,
		  "durationTicks": 96,
		  "midi": 72,
		  "name": "C5",
		  "ticks": 44352,
		  "time": 43.3125,
		  "velocity": 0.3937007874015748
		},
		{
		  "duration": 0.09375,
		  "durationTicks": 96,
		  "midi": 35,
		  "name": "B1",
		  "ticks": 44448,
		  "time": 43.40625,
		  "velocity": 0.3937007874015748
		},
		{
		  "duration": 0.09375,
		  "durationTicks": 96,
		  "midi": 71,
		  "name": "B4",
		  "ticks": 44448,
		  "time": 43.40625,
		  "velocity": 0.3937007874015748
		},
		{
		  "duration": 0.09375,
		  "durationTicks": 96,
		  "midi": 69,
		  "name": "A4",
		  "ticks": 44544,
		  "time": 43.5,
		  "velocity": 0.3937007874015748
		},
		{
		  "duration": 0.09375,
		  "durationTicks": 96,
		  "midi": 44,
		  "name": "G#2",
		  "ticks": 44640,
		  "time": 43.59375,
		  "velocity": 0.3937007874015748
		},
		{
		  "duration": 0.09375,
		  "durationTicks": 96,
		  "midi": 38,
		  "name": "D2",
		  "ticks": 44640,
		  "time": 43.59375,
		  "velocity": 0.3937007874015748
		},
		{
		  "duration": 0.09375,
		  "durationTicks": 96,
		  "midi": 68,
		  "name": "G#4",
		  "ticks": 44640,
		  "time": 43.59375,
		  "velocity": 0.3937007874015748
		},
		{
		  "duration": 0.09375,
		  "durationTicks": 96,
		  "midi": 71,
		  "name": "B4",
		  "ticks": 44736,
		  "time": 43.6875,
		  "velocity": 0.3937007874015748
		},
		{
		  "duration": 0.09375,
		  "durationTicks": 96,
		  "midi": 33,
		  "name": "A1",
		  "ticks": 44832,
		  "time": 43.78125,
		  "velocity": 0.3937007874015748
		},
		{
		  "duration": 0.09375,
		  "durationTicks": 96,
		  "midi": 69,
		  "name": "A4",
		  "ticks": 44832,
		  "time": 43.78125,
		  "velocity": 0.3937007874015748
		},
		{
		  "duration": 0.09375,
		  "durationTicks": 96,
		  "midi": 64,
		  "name": "E4",
		  "ticks": 44928,
		  "time": 43.875,
		  "velocity": 0.3937007874015748
		},
		{
		  "duration": 0.09375,
		  "durationTicks": 96,
		  "midi": 45,
		  "name": "A2",
		  "ticks": 45024,
		  "time": 43.96875,
		  "velocity": 0.3937007874015748
		},
		{
		  "duration": 0.09375,
		  "durationTicks": 96,
		  "midi": 36,
		  "name": "C2",
		  "ticks": 45024,
		  "time": 43.96875,
		  "velocity": 0.3937007874015748
		},
		{
		  "duration": 0.09375,
		  "durationTicks": 96,
		  "midi": 60,
		  "name": "C4",
		  "ticks": 45024,
		  "time": 43.96875,
		  "velocity": 0.3937007874015748
		},
		{
		  "duration": 0.09375,
		  "durationTicks": 96,
		  "midi": 57,
		  "name": "A3",
		  "ticks": 45120,
		  "time": 44.0625,
		  "velocity": 0.3937007874015748
		},
		{
		  "duration": 0.09375,
		  "durationTicks": 96,
		  "midi": 35,
		  "name": "B1",
		  "ticks": 45216,
		  "time": 44.15625,
		  "velocity": 0.3937007874015748
		},
		{
		  "duration": 0.09375,
		  "durationTicks": 96,
		  "midi": 65,
		  "name": "F4",
		  "ticks": 45216,
		  "time": 44.15625,
		  "velocity": 0.3937007874015748
		},
		{
		  "duration": 0.09375,
		  "durationTicks": 96,
		  "midi": 64,
		  "name": "E4",
		  "ticks": 45312,
		  "time": 44.25,
		  "velocity": 0.3937007874015748
		},
		{
		  "duration": 0.09375,
		  "durationTicks": 96,
		  "midi": 62,
		  "name": "D4",
		  "ticks": 45408,
		  "time": 44.34375,
		  "velocity": 0.3937007874015748
		},
		{
		  "duration": 0.09375,
		  "durationTicks": 96,
		  "midi": 60,
		  "name": "C4",
		  "ticks": 45504,
		  "time": 44.4375,
		  "velocity": 0.3937007874015748
		},
		{
		  "duration": 0.09375,
		  "durationTicks": 96,
		  "midi": 59,
		  "name": "B3",
		  "ticks": 45600,
		  "time": 44.53125,
		  "velocity": 0.3937007874015748
		},
		{
		  "duration": 0.375,
		  "durationTicks": 384,
		  "midi": 28,
		  "name": "E1",
		  "ticks": 45600,
		  "time": 44.53125,
		  "velocity": 0.3937007874015748
		},
		{
		  "duration": 0.09375,
		  "durationTicks": 96,
		  "midi": 57,
		  "name": "A3",
		  "ticks": 45696,
		  "time": 44.625,
		  "velocity": 0.3937007874015748
		},
		{
		  "duration": 0.09375,
		  "durationTicks": 96,
		  "midi": 56,
		  "name": "G#3",
		  "ticks": 45792,
		  "time": 44.71875,
		  "velocity": 0.3937007874015748
		},
		{
		  "duration": 0.09375,
		  "durationTicks": 96,
		  "midi": 59,
		  "name": "B3",
		  "ticks": 45888,
		  "time": 44.8125,
		  "velocity": 0.3937007874015748
		},
		{
		  "duration": 0.09375,
		  "durationTicks": 96,
		  "midi": 57,
		  "name": "A3",
		  "ticks": 45984,
		  "time": 44.90625,
		  "velocity": 0.3937007874015748
		},
		{
		  "duration": 0.09375,
		  "durationTicks": 96,
		  "midi": 33,
		  "name": "A1",
		  "ticks": 45984,
		  "time": 44.90625,
		  "velocity": 0.3937007874015748
		},
		{
		  "duration": 0.28125,
		  "durationTicks": 288,
		  "midi": 33,
		  "name": "A1",
		  "ticks": 46368,
		  "time": 45.28125,
		  "velocity": 0.3937007874015748
		},
		{
		  "duration": 0.046875,
		  "durationTicks": 48,
		  "midi": 35,
		  "name": "B1",
		  "ticks": 46656,
		  "time": 45.5625,
		  "velocity": 0.3937007874015748
		},
		{
		  "duration": 0.046875,
		  "durationTicks": 48,
		  "midi": 37,
		  "name": "C#2",
		  "ticks": 46704,
		  "time": 45.609375,
		  "velocity": 0.3937007874015748
		},
		{
		  "duration": 0.09375,
		  "durationTicks": 96,
		  "midi": 38,
		  "name": "D2",
		  "ticks": 46752,
		  "time": 45.65625,
		  "velocity": 0.3937007874015748
		},
		{
		  "duration": 0.09375,
		  "durationTicks": 96,
		  "midi": 26,
		  "name": "D1",
		  "ticks": 46752,
		  "time": 45.65625,
		  "velocity": 0.3937007874015748
		},
		{
		  "duration": 0.28125,
		  "durationTicks": 288,
		  "midi": 62,
		  "name": "D4",
		  "ticks": 46752,
		  "time": 45.65625,
		  "velocity": 0.3937007874015748
		},
		{
		  "duration": 0.09375,
		  "durationTicks": 96,
		  "midi": 45,
		  "name": "A2",
		  "ticks": 46944,
		  "time": 45.84375,
		  "velocity": 0.3937007874015748
		},
		{
		  "duration": 0.09375,
		  "durationTicks": 96,
		  "midi": 41,
		  "name": "F2",
		  "ticks": 46944,
		  "time": 45.84375,
		  "velocity": 0.3937007874015748
		},
		{
		  "duration": 0.09375,
		  "durationTicks": 96,
		  "midi": 61,
		  "name": "C#4",
		  "ticks": 47040,
		  "time": 45.9375,
		  "velocity": 0.3937007874015748
		},
		{
		  "duration": 0.09375,
		  "durationTicks": 96,
		  "midi": 33,
		  "name": "A1",
		  "ticks": 47136,
		  "time": 46.03125,
		  "velocity": 0.3937007874015748
		},
		{
		  "duration": 0.09375,
		  "durationTicks": 96,
		  "midi": 62,
		  "name": "D4",
		  "ticks": 47136,
		  "time": 46.03125,
		  "velocity": 0.3937007874015748
		},
		{
		  "duration": 0.09375,
		  "durationTicks": 96,
		  "midi": 41,
		  "name": "F2",
		  "ticks": 47328,
		  "time": 46.21875,
		  "velocity": 0.3937007874015748
		},
		{
		  "duration": 0.09375,
		  "durationTicks": 96,
		  "midi": 45,
		  "name": "A2",
		  "ticks": 47328,
		  "time": 46.21875,
		  "velocity": 0.3937007874015748
		},
		{
		  "duration": 0.09375,
		  "durationTicks": 96,
		  "midi": 64,
		  "name": "E4",
		  "ticks": 47328,
		  "time": 46.21875,
		  "velocity": 0.3937007874015748
		},
		{
		  "duration": 0.09375,
		  "durationTicks": 96,
		  "midi": 38,
		  "name": "D2",
		  "ticks": 47520,
		  "time": 46.40625,
		  "velocity": 0.3937007874015748
		},
		{
		  "duration": 0.09375,
		  "durationTicks": 96,
		  "midi": 65,
		  "name": "F4",
		  "ticks": 47520,
		  "time": 46.40625,
		  "velocity": 0.3937007874015748
		},
		{
		  "duration": 0.09375,
		  "durationTicks": 96,
		  "midi": 41,
		  "name": "F2",
		  "ticks": 47712,
		  "time": 46.59375,
		  "velocity": 0.3937007874015748
		},
		{
		  "duration": 0.09375,
		  "durationTicks": 96,
		  "midi": 45,
		  "name": "A2",
		  "ticks": 47712,
		  "time": 46.59375,
		  "velocity": 0.3937007874015748
		},
		{
		  "duration": 0.09375,
		  "durationTicks": 96,
		  "midi": 64,
		  "name": "E4",
		  "ticks": 47712,
		  "time": 46.59375,
		  "velocity": 0.3937007874015748
		},
		{
		  "duration": 0.09375,
		  "durationTicks": 96,
		  "midi": 33,
		  "name": "A1",
		  "ticks": 47904,
		  "time": 46.78125,
		  "velocity": 0.3937007874015748
		},
		{
		  "duration": 0.09375,
		  "durationTicks": 96,
		  "midi": 62,
		  "name": "D4",
		  "ticks": 47904,
		  "time": 46.78125,
		  "velocity": 0.3937007874015748
		},
		{
		  "duration": 0.09375,
		  "durationTicks": 96,
		  "midi": 41,
		  "name": "F2",
		  "ticks": 48096,
		  "time": 46.96875,
		  "velocity": 0.3937007874015748
		},
		{
		  "duration": 0.09375,
		  "durationTicks": 96,
		  "midi": 45,
		  "name": "A2",
		  "ticks": 48096,
		  "time": 46.96875,
		  "velocity": 0.3937007874015748
		},
		{
		  "duration": 0.09375,
		  "durationTicks": 96,
		  "midi": 65,
		  "name": "F4",
		  "ticks": 48096,
		  "time": 46.96875,
		  "velocity": 0.3937007874015748
		},
		{
		  "duration": 0.09375,
		  "durationTicks": 96,
		  "midi": 36,
		  "name": "C2",
		  "ticks": 48288,
		  "time": 47.15625,
		  "velocity": 0.3937007874015748
		},
		{
		  "duration": 0.28125,
		  "durationTicks": 288,
		  "midi": 64,
		  "name": "E4",
		  "ticks": 48288,
		  "time": 47.15625,
		  "velocity": 0.3937007874015748
		},
		{
		  "duration": 0.09375,
		  "durationTicks": 96,
		  "midi": 45,
		  "name": "A2",
		  "ticks": 48480,
		  "time": 47.34375,
		  "velocity": 0.3937007874015748
		},
		{
		  "duration": 0.09375,
		  "durationTicks": 96,
		  "midi": 40,
		  "name": "E2",
		  "ticks": 48480,
		  "time": 47.34375,
		  "velocity": 0.3937007874015748
		},
		{
		  "duration": 0.09375,
		  "durationTicks": 96,
		  "midi": 62,
		  "name": "D4",
		  "ticks": 48576,
		  "time": 47.4375,
		  "velocity": 0.3937007874015748
		},
		{
		  "duration": 0.09375,
		  "durationTicks": 96,
		  "midi": 33,
		  "name": "A1",
		  "ticks": 48672,
		  "time": 47.53125,
		  "velocity": 0.3937007874015748
		},
		{
		  "duration": 0.09375,
		  "durationTicks": 96,
		  "midi": 60,
		  "name": "C4",
		  "ticks": 48672,
		  "time": 47.53125,
		  "velocity": 0.3937007874015748
		},
		{
		  "duration": 0.09375,
		  "durationTicks": 96,
		  "midi": 45,
		  "name": "A2",
		  "ticks": 48864,
		  "time": 47.71875,
		  "velocity": 0.3937007874015748
		},
		{
		  "duration": 0.09375,
		  "durationTicks": 96,
		  "midi": 40,
		  "name": "E2",
		  "ticks": 48864,
		  "time": 47.71875,
		  "velocity": 0.3937007874015748
		},
		{
		  "duration": 0.09375,
		  "durationTicks": 96,
		  "midi": 62,
		  "name": "D4",
		  "ticks": 48864,
		  "time": 47.71875,
		  "velocity": 0.3937007874015748
		},
		{
		  "duration": 0.09375,
		  "durationTicks": 96,
		  "midi": 36,
		  "name": "C2",
		  "ticks": 49056,
		  "time": 47.90625,
		  "velocity": 0.3937007874015748
		},
		{
		  "duration": 0.46875,
		  "durationTicks": 480,
		  "midi": 64,
		  "name": "E4",
		  "ticks": 49056,
		  "time": 47.90625,
		  "velocity": 0.3937007874015748
		},
		{
		  "duration": 0.09375,
		  "durationTicks": 96,
		  "midi": 45,
		  "name": "A2",
		  "ticks": 49248,
		  "time": 48.09375,
		  "velocity": 0.3937007874015748
		},
		{
		  "duration": 0.09375,
		  "durationTicks": 96,
		  "midi": 40,
		  "name": "E2",
		  "ticks": 49248,
		  "time": 48.09375,
		  "velocity": 0.3937007874015748
		},
		{
		  "duration": 0.09375,
		  "durationTicks": 96,
		  "midi": 33,
		  "name": "A1",
		  "ticks": 49440,
		  "time": 48.28125,
		  "velocity": 0.3937007874015748
		},
		{
		  "duration": 0.09375,
		  "durationTicks": 96,
		  "midi": 45,
		  "name": "A2",
		  "ticks": 49632,
		  "time": 48.46875,
		  "velocity": 0.3937007874015748
		},
		{
		  "duration": 0.09375,
		  "durationTicks": 96,
		  "midi": 40,
		  "name": "E2",
		  "ticks": 49632,
		  "time": 48.46875,
		  "velocity": 0.3937007874015748
		},
		{
		  "duration": 0.09375,
		  "durationTicks": 96,
		  "midi": 60,
		  "name": "C4",
		  "ticks": 49632,
		  "time": 48.46875,
		  "velocity": 0.3937007874015748
		},
		{
		  "duration": 0.09375,
		  "durationTicks": 96,
		  "midi": 40,
		  "name": "E2",
		  "ticks": 49824,
		  "time": 48.65625,
		  "velocity": 0.3937007874015748
		},
		{
		  "duration": 0.28125,
		  "durationTicks": 288,
		  "midi": 59,
		  "name": "B3",
		  "ticks": 49824,
		  "time": 48.65625,
		  "velocity": 0.3937007874015748
		},
		{
		  "duration": 0.09375,
		  "durationTicks": 96,
		  "midi": 47,
		  "name": "B2",
		  "ticks": 50016,
		  "time": 48.84375,
		  "velocity": 0.3937007874015748
		},
		{
		  "duration": 0.09375,
		  "durationTicks": 96,
		  "midi": 44,
		  "name": "G#2",
		  "ticks": 50016,
		  "time": 48.84375,
		  "velocity": 0.3937007874015748
		},
		{
		  "duration": 0.09375,
		  "durationTicks": 96,
		  "midi": 58,
		  "name": "A#3",
		  "ticks": 50112,
		  "time": 48.9375,
		  "velocity": 0.3937007874015748
		},
		{
		  "duration": 0.09375,
		  "durationTicks": 96,
		  "midi": 35,
		  "name": "B1",
		  "ticks": 50208,
		  "time": 49.03125,
		  "velocity": 0.3937007874015748
		},
		{
		  "duration": 0.09375,
		  "durationTicks": 96,
		  "midi": 59,
		  "name": "B3",
		  "ticks": 50208,
		  "time": 49.03125,
		  "velocity": 0.3937007874015748
		},
		{
		  "duration": 0.09375,
		  "durationTicks": 96,
		  "midi": 47,
		  "name": "B2",
		  "ticks": 50400,
		  "time": 49.21875,
		  "velocity": 0.3937007874015748
		},
		{
		  "duration": 0.09375,
		  "durationTicks": 96,
		  "midi": 44,
		  "name": "G#2",
		  "ticks": 50400,
		  "time": 49.21875,
		  "velocity": 0.3937007874015748
		},
		{
		  "duration": 0.09375,
		  "durationTicks": 96,
		  "midi": 60,
		  "name": "C4",
		  "ticks": 50400,
		  "time": 49.21875,
		  "velocity": 0.3937007874015748
		},
		{
		  "duration": 0.09375,
		  "durationTicks": 96,
		  "midi": 40,
		  "name": "E2",
		  "ticks": 50592,
		  "time": 49.40625,
		  "velocity": 0.3937007874015748
		},
		{
		  "duration": 0.09375,
		  "durationTicks": 96,
		  "midi": 62,
		  "name": "D4",
		  "ticks": 50592,
		  "time": 49.40625,
		  "velocity": 0.3937007874015748
		},
		{
		  "duration": 0.09375,
		  "durationTicks": 96,
		  "midi": 47,
		  "name": "B2",
		  "ticks": 50784,
		  "time": 49.59375,
		  "velocity": 0.3937007874015748
		},
		{
		  "duration": 0.09375,
		  "durationTicks": 96,
		  "midi": 44,
		  "name": "G#2",
		  "ticks": 50784,
		  "time": 49.59375,
		  "velocity": 0.3937007874015748
		},
		{
		  "duration": 0.09375,
		  "durationTicks": 96,
		  "midi": 60,
		  "name": "C4",
		  "ticks": 50784,
		  "time": 49.59375,
		  "velocity": 0.3937007874015748
		},
		{
		  "duration": 0.09375,
		  "durationTicks": 96,
		  "midi": 35,
		  "name": "B1",
		  "ticks": 50976,
		  "time": 49.78125,
		  "velocity": 0.3937007874015748
		},
		{
		  "duration": 0.09375,
		  "durationTicks": 96,
		  "midi": 59,
		  "name": "B3",
		  "ticks": 50976,
		  "time": 49.78125,
		  "velocity": 0.3937007874015748
		},
		{
		  "duration": 0.09375,
		  "durationTicks": 96,
		  "midi": 47,
		  "name": "B2",
		  "ticks": 51168,
		  "time": 49.96875,
		  "velocity": 0.3937007874015748
		},
		{
		  "duration": 0.09375,
		  "durationTicks": 96,
		  "midi": 44,
		  "name": "G#2",
		  "ticks": 51168,
		  "time": 49.96875,
		  "velocity": 0.3937007874015748
		},
		{
		  "duration": 0.09375,
		  "durationTicks": 96,
		  "midi": 62,
		  "name": "D4",
		  "ticks": 51168,
		  "time": 49.96875,
		  "velocity": 0.3937007874015748
		},
		{
		  "duration": 0.09375,
		  "durationTicks": 96,
		  "midi": 33,
		  "name": "A1",
		  "ticks": 51360,
		  "time": 50.15625,
		  "velocity": 0.3937007874015748
		},
		{
		  "duration": 0.09375,
		  "durationTicks": 96,
		  "midi": 60,
		  "name": "C4",
		  "ticks": 51360,
		  "time": 50.15625,
		  "velocity": 0.3937007874015748
		},
		{
		  "duration": 0.09375,
		  "durationTicks": 96,
		  "midi": 33,
		  "name": "A1",
		  "ticks": 51552,
		  "time": 50.34375,
		  "velocity": 0.3937007874015748
		},
		{
		  "duration": 0.09375,
		  "durationTicks": 96,
		  "midi": 57,
		  "name": "A3",
		  "ticks": 51552,
		  "time": 50.34375,
		  "velocity": 0.3937007874015748
		},
		{
		  "duration": 0.09375,
		  "durationTicks": 96,
		  "midi": 36,
		  "name": "C2",
		  "ticks": 51744,
		  "time": 50.53125,
		  "velocity": 0.3937007874015748
		},
		{
		  "duration": 0.09375,
		  "durationTicks": 96,
		  "midi": 60,
		  "name": "C4",
		  "ticks": 51744,
		  "time": 50.53125,
		  "velocity": 0.3937007874015748
		},
		{
		  "duration": 0.09375,
		  "durationTicks": 96,
		  "midi": 40,
		  "name": "E2",
		  "ticks": 51936,
		  "time": 50.71875,
		  "velocity": 0.3937007874015748
		},
		{
		  "duration": 0.09375,
		  "durationTicks": 96,
		  "midi": 64,
		  "name": "E4",
		  "ticks": 51936,
		  "time": 50.71875,
		  "velocity": 0.3937007874015748
		},
		{
		  "duration": 0.09375,
		  "durationTicks": 96,
		  "midi": 45,
		  "name": "A2",
		  "ticks": 52128,
		  "time": 50.90625,
		  "velocity": 0.3937007874015748
		},
		{
		  "duration": 0.09375,
		  "durationTicks": 96,
		  "midi": 69,
		  "name": "A4",
		  "ticks": 52128,
		  "time": 50.90625,
		  "velocity": 0.3937007874015748
		},
		{
		  "duration": 0.09375,
		  "durationTicks": 96,
		  "midi": 40,
		  "name": "E2",
		  "ticks": 52320,
		  "time": 51.09375,
		  "velocity": 0.3937007874015748
		},
		{
		  "duration": 0.09375,
		  "durationTicks": 96,
		  "midi": 64,
		  "name": "E4",
		  "ticks": 52320,
		  "time": 51.09375,
		  "velocity": 0.3937007874015748
		},
		{
		  "duration": 0.09375,
		  "durationTicks": 96,
		  "midi": 36,
		  "name": "C2",
		  "ticks": 52512,
		  "time": 51.28125,
		  "velocity": 0.3937007874015748
		},
		{
		  "duration": 0.09375,
		  "durationTicks": 96,
		  "midi": 60,
		  "name": "C4",
		  "ticks": 52512,
		  "time": 51.28125,
		  "velocity": 0.3937007874015748
		},
		{
		  "duration": 0.09375,
		  "durationTicks": 96,
		  "midi": 33,
		  "name": "A1",
		  "ticks": 52704,
		  "time": 51.46875,
		  "velocity": 0.3937007874015748
		},
		{
		  "duration": 0.09375,
		  "durationTicks": 96,
		  "midi": 57,
		  "name": "A3",
		  "ticks": 52704,
		  "time": 51.46875,
		  "velocity": 0.3937007874015748
		},
		{
		  "duration": 0.09375,
		  "durationTicks": 96,
		  "midi": 38,
		  "name": "D2",
		  "ticks": 52896,
		  "time": 51.65625,
		  "velocity": 0.3937007874015748
		},
		{
		  "duration": 0.09375,
		  "durationTicks": 96,
		  "midi": 62,
		  "name": "D4",
		  "ticks": 52896,
		  "time": 51.65625,
		  "velocity": 0.3937007874015748
		},
		{
		  "duration": 0.09375,
		  "durationTicks": 96,
		  "midi": 45,
		  "name": "A2",
		  "ticks": 53088,
		  "time": 51.84375,
		  "velocity": 0.3937007874015748
		},
		{
		  "duration": 0.09375,
		  "durationTicks": 96,
		  "midi": 41,
		  "name": "F2",
		  "ticks": 53088,
		  "time": 51.84375,
		  "velocity": 0.3937007874015748
		},
		{
		  "duration": 0.09375,
		  "durationTicks": 96,
		  "midi": 61,
		  "name": "C#4",
		  "ticks": 53184,
		  "time": 51.9375,
		  "velocity": 0.3937007874015748
		},
		{
		  "duration": 0.09375,
		  "durationTicks": 96,
		  "midi": 33,
		  "name": "A1",
		  "ticks": 53280,
		  "time": 52.03125,
		  "velocity": 0.3937007874015748
		},
		{
		  "duration": 0.09375,
		  "durationTicks": 96,
		  "midi": 62,
		  "name": "D4",
		  "ticks": 53280,
		  "time": 52.03125,
		  "velocity": 0.3937007874015748
		},
		{
		  "duration": 0.09375,
		  "durationTicks": 96,
		  "midi": 45,
		  "name": "A2",
		  "ticks": 53472,
		  "time": 52.21875,
		  "velocity": 0.3937007874015748
		},
		{
		  "duration": 0.09375,
		  "durationTicks": 96,
		  "midi": 41,
		  "name": "F2",
		  "ticks": 53472,
		  "time": 52.21875,
		  "velocity": 0.3937007874015748
		},
		{
		  "duration": 0.09375,
		  "durationTicks": 96,
		  "midi": 64,
		  "name": "E4",
		  "ticks": 53472,
		  "time": 52.21875,
		  "velocity": 0.3937007874015748
		},
		{
		  "duration": 0.09375,
		  "durationTicks": 96,
		  "midi": 38,
		  "name": "D2",
		  "ticks": 53664,
		  "time": 52.40625,
		  "velocity": 0.3937007874015748
		},
		{
		  "duration": 0.09375,
		  "durationTicks": 96,
		  "midi": 65,
		  "name": "F4",
		  "ticks": 53664,
		  "time": 52.40625,
		  "velocity": 0.3937007874015748
		},
		{
		  "duration": 0.09375,
		  "durationTicks": 96,
		  "midi": 45,
		  "name": "A2",
		  "ticks": 53856,
		  "time": 52.59375,
		  "velocity": 0.3937007874015748
		},
		{
		  "duration": 0.09375,
		  "durationTicks": 96,
		  "midi": 41,
		  "name": "F2",
		  "ticks": 53856,
		  "time": 52.59375,
		  "velocity": 0.3937007874015748
		},
		{
		  "duration": 0.09375,
		  "durationTicks": 96,
		  "midi": 64,
		  "name": "E4",
		  "ticks": 53856,
		  "time": 52.59375,
		  "velocity": 0.3937007874015748
		},
		{
		  "duration": 0.09375,
		  "durationTicks": 96,
		  "midi": 33,
		  "name": "A1",
		  "ticks": 54048,
		  "time": 52.78125,
		  "velocity": 0.3937007874015748
		},
		{
		  "duration": 0.09375,
		  "durationTicks": 96,
		  "midi": 62,
		  "name": "D4",
		  "ticks": 54048,
		  "time": 52.78125,
		  "velocity": 0.3937007874015748
		},
		{
		  "duration": 0.09375,
		  "durationTicks": 96,
		  "midi": 45,
		  "name": "A2",
		  "ticks": 54240,
		  "time": 52.96875,
		  "velocity": 0.3937007874015748
		},
		{
		  "duration": 0.09375,
		  "durationTicks": 96,
		  "midi": 41,
		  "name": "F2",
		  "ticks": 54240,
		  "time": 52.96875,
		  "velocity": 0.3937007874015748
		},
		{
		  "duration": 0.09375,
		  "durationTicks": 96,
		  "midi": 65,
		  "name": "F4",
		  "ticks": 54240,
		  "time": 52.96875,
		  "velocity": 0.3937007874015748
		},
		{
		  "duration": 0.09375,
		  "durationTicks": 96,
		  "midi": 36,
		  "name": "C2",
		  "ticks": 54432,
		  "time": 53.15625,
		  "velocity": 0.3937007874015748
		},
		{
		  "duration": 0.28125,
		  "durationTicks": 288,
		  "midi": 64,
		  "name": "E4",
		  "ticks": 54432,
		  "time": 53.15625,
		  "velocity": 0.3937007874015748
		},
		{
		  "duration": 0.09375,
		  "durationTicks": 96,
		  "midi": 45,
		  "name": "A2",
		  "ticks": 54624,
		  "time": 53.34375,
		  "velocity": 0.3937007874015748
		},
		{
		  "duration": 0.09375,
		  "durationTicks": 96,
		  "midi": 40,
		  "name": "E2",
		  "ticks": 54624,
		  "time": 53.34375,
		  "velocity": 0.3937007874015748
		},
		{
		  "duration": 0.09375,
		  "durationTicks": 96,
		  "midi": 62,
		  "name": "D4",
		  "ticks": 54720,
		  "time": 53.4375,
		  "velocity": 0.3937007874015748
		},
		{
		  "duration": 0.09375,
		  "durationTicks": 96,
		  "midi": 33,
		  "name": "A1",
		  "ticks": 54816,
		  "time": 53.53125,
		  "velocity": 0.3937007874015748
		},
		{
		  "duration": 0.09375,
		  "durationTicks": 96,
		  "midi": 60,
		  "name": "C4",
		  "ticks": 54816,
		  "time": 53.53125,
		  "velocity": 0.3937007874015748
		},
		{
		  "duration": 0.09375,
		  "durationTicks": 96,
		  "midi": 45,
		  "name": "A2",
		  "ticks": 55008,
		  "time": 53.71875,
		  "velocity": 0.3937007874015748
		},
		{
		  "duration": 0.09375,
		  "durationTicks": 96,
		  "midi": 40,
		  "name": "E2",
		  "ticks": 55008,
		  "time": 53.71875,
		  "velocity": 0.3937007874015748
		},
		{
		  "duration": 0.09375,
		  "durationTicks": 96,
		  "midi": 62,
		  "name": "D4",
		  "ticks": 55008,
		  "time": 53.71875,
		  "velocity": 0.3937007874015748
		},
		{
		  "duration": 0.09375,
		  "durationTicks": 96,
		  "midi": 36,
		  "name": "C2",
		  "ticks": 55200,
		  "time": 53.90625,
		  "velocity": 0.3937007874015748
		},
		{
		  "duration": 0.09375,
		  "durationTicks": 96,
		  "midi": 64,
		  "name": "E4",
		  "ticks": 55200,
		  "time": 53.90625,
		  "velocity": 0.3937007874015748
		},
		{
		  "duration": 0.09375,
		  "durationTicks": 96,
		  "midi": 45,
		  "name": "A2",
		  "ticks": 55392,
		  "time": 54.09375,
		  "velocity": 0.3937007874015748
		},
		{
		  "duration": 0.09375,
		  "durationTicks": 96,
		  "midi": 40,
		  "name": "E2",
		  "ticks": 55392,
		  "time": 54.09375,
		  "velocity": 0.3937007874015748
		},
		{
		  "duration": 0.09375,
		  "durationTicks": 96,
		  "midi": 33,
		  "name": "A1",
		  "ticks": 55584,
		  "time": 54.28125,
		  "velocity": 0.3937007874015748
		},
		{
		  "duration": 0.375,
		  "durationTicks": 384,
		  "midi": 69,
		  "name": "A4",
		  "ticks": 55584,
		  "time": 54.28125,
		  "velocity": 0.3937007874015748
		},
		{
		  "duration": 0.09375,
		  "durationTicks": 96,
		  "midi": 45,
		  "name": "A2",
		  "ticks": 55776,
		  "time": 54.46875,
		  "velocity": 0.3937007874015748
		},
		{
		  "duration": 0.09375,
		  "durationTicks": 96,
		  "midi": 40,
		  "name": "E2",
		  "ticks": 55776,
		  "time": 54.46875,
		  "velocity": 0.3937007874015748
		},
		{
		  "duration": 0.09375,
		  "durationTicks": 96,
		  "midi": 38,
		  "name": "D2",
		  "ticks": 55968,
		  "time": 54.65625,
		  "velocity": 0.3937007874015748
		},
		{
		  "duration": 0.09375,
		  "durationTicks": 96,
		  "midi": 45,
		  "name": "A2",
		  "ticks": 56160,
		  "time": 54.84375,
		  "velocity": 0.3937007874015748
		},
		{
		  "duration": 0.09375,
		  "durationTicks": 96,
		  "midi": 41,
		  "name": "F2",
		  "ticks": 56160,
		  "time": 54.84375,
		  "velocity": 0.3937007874015748
		},
		{
		  "duration": 0.375,
		  "durationTicks": 384,
		  "midi": 62,
		  "name": "D4",
		  "ticks": 56160,
		  "time": 54.84375,
		  "velocity": 0.3937007874015748
		},
		{
		  "duration": 0.09375,
		  "durationTicks": 96,
		  "midi": 35,
		  "name": "B1",
		  "ticks": 56352,
		  "time": 55.03125,
		  "velocity": 0.3937007874015748
		},
		{
		  "duration": 0.09375,
		  "durationTicks": 96,
		  "midi": 45,
		  "name": "A2",
		  "ticks": 56544,
		  "time": 55.21875,
		  "velocity": 0.3937007874015748
		},
		{
		  "duration": 0.09375,
		  "durationTicks": 96,
		  "midi": 41,
		  "name": "F2",
		  "ticks": 56544,
		  "time": 55.21875,
		  "velocity": 0.3937007874015748
		},
		{
		  "duration": 0.09375,
		  "durationTicks": 96,
		  "midi": 65,
		  "name": "F4",
		  "ticks": 56544,
		  "time": 55.21875,
		  "velocity": 0.3937007874015748
		},
		{
		  "duration": 0.09375,
		  "durationTicks": 96,
		  "midi": 40,
		  "name": "E2",
		  "ticks": 56736,
		  "time": 55.40625,
		  "velocity": 0.3937007874015748
		},
		{
		  "duration": 0.09375,
		  "durationTicks": 96,
		  "midi": 64,
		  "name": "E4",
		  "ticks": 56736,
		  "time": 55.40625,
		  "velocity": 0.3937007874015748
		},
		{
		  "duration": 0.09375,
		  "durationTicks": 96,
		  "midi": 36,
		  "name": "C2",
		  "ticks": 56928,
		  "time": 55.59375,
		  "velocity": 0.3937007874015748
		},
		{
		  "duration": 0.09375,
		  "durationTicks": 96,
		  "midi": 60,
		  "name": "C4",
		  "ticks": 56928,
		  "time": 55.59375,
		  "velocity": 0.3937007874015748
		},
		{
		  "duration": 0.09375,
		  "durationTicks": 96,
		  "midi": 38,
		  "name": "D2",
		  "ticks": 57120,
		  "time": 55.78125,
		  "velocity": 0.3937007874015748
		},
		{
		  "duration": 0.09375,
		  "durationTicks": 96,
		  "midi": 62,
		  "name": "D4",
		  "ticks": 57120,
		  "time": 55.78125,
		  "velocity": 0.3937007874015748
		},
		{
		  "duration": 0.09375,
		  "durationTicks": 96,
		  "midi": 35,
		  "name": "B1",
		  "ticks": 57312,
		  "time": 55.96875,
		  "velocity": 0.3937007874015748
		},
		{
		  "duration": 0.09375,
		  "durationTicks": 96,
		  "midi": 59,
		  "name": "B3",
		  "ticks": 57312,
		  "time": 55.96875,
		  "velocity": 0.3937007874015748
		},
		{
		  "duration": 0.09375,
		  "durationTicks": 96,
		  "midi": 33,
		  "name": "A1",
		  "ticks": 57504,
		  "time": 56.15625,
		  "velocity": 0.3937007874015748
		},
		{
		  "duration": 0.09375,
		  "durationTicks": 96,
		  "midi": 57,
		  "name": "A3",
		  "ticks": 57504,
		  "time": 56.15625,
		  "velocity": 0.3937007874015748
		},
		{
		  "duration": 0.09375,
		  "durationTicks": 96,
		  "midi": 28,
		  "name": "E1",
		  "ticks": 58080,
		  "time": 56.71875,
		  "velocity": 0.3937007874015748
		},
		{
		  "duration": 0.09375,
		  "durationTicks": 96,
		  "midi": 52,
		  "name": "E3",
		  "ticks": 58080,
		  "time": 56.71875,
		  "velocity": 0.3937007874015748
		},
		{
		  "duration": 0.09375,
		  "durationTicks": 96,
		  "midi": 56,
		  "name": "G#3",
		  "ticks": 58080,
		  "time": 56.71875,
		  "velocity": 0.3937007874015748
		},
		{
		  "duration": 0.09375,
		  "durationTicks": 96,
		  "midi": 64,
		  "name": "E4",
		  "ticks": 58080,
		  "time": 56.71875,
		  "velocity": 0.3937007874015748
		},
		{
		  "duration": 0.09375,
		  "durationTicks": 96,
		  "midi": 40,
		  "name": "E2",
		  "ticks": 58080,
		  "time": 56.71875,
		  "velocity": 0.3937007874015748
		},
		{
		  "duration": 0.09375,
		  "durationTicks": 96,
		  "midi": 33,
		  "name": "A1",
		  "ticks": 58272,
		  "time": 56.90625,
		  "velocity": 0.3937007874015748
		},
		{
		  "duration": 0.09375,
		  "durationTicks": 96,
		  "midi": 57,
		  "name": "A3",
		  "ticks": 58272,
		  "time": 56.90625,
		  "velocity": 0.3937007874015748
		},
		{
		  "duration": 0.09375,
		  "durationTicks": 96,
		  "midi": 60,
		  "name": "C4",
		  "ticks": 58272,
		  "time": 56.90625,
		  "velocity": 0.3937007874015748
		},
		{
		  "duration": 0.09375,
		  "durationTicks": 96,
		  "midi": 69,
		  "name": "A4",
		  "ticks": 58272,
		  "time": 56.90625,
		  "velocity": 0.3937007874015748
		},
		{
		  "duration": 0.09375,
		  "durationTicks": 96,
		  "midi": 45,
		  "name": "A2",
		  "ticks": 58272,
		  "time": 56.90625,
		  "velocity": 0.3937007874015748
		},
		{
		  "duration": 0.28125,
		  "durationTicks": 288,
		  "midi": 28,
		  "name": "E1",
		  "ticks": 58656,
		  "time": 57.28125,
		  "velocity": 0.3937007874015748
		},
		{
		  "duration": 0.046875,
		  "durationTicks": 48,
		  "midi": 30,
		  "name": "F#1",
		  "ticks": 58944,
		  "time": 57.5625,
		  "velocity": 0.3937007874015748
		},
		{
		  "duration": 0.046875,
		  "durationTicks": 48,
		  "midi": 32,
		  "name": "G#1",
		  "ticks": 58992,
		  "time": 57.609375,
		  "velocity": 0.3937007874015748
		},
		{
		  "duration": 0.09375,
		  "durationTicks": 96,
		  "midi": 33,
		  "name": "A1",
		  "ticks": 59040,
		  "time": 57.65625,
		  "velocity": 0.3937007874015748
		},
		{
		  "duration": 0.09375,
		  "durationTicks": 96,
		  "midi": 52,
		  "name": "E3",
		  "ticks": 59040,
		  "time": 57.65625,
		  "velocity": 0.3937007874015748
		},
		{
		  "duration": 0.09375,
		  "durationTicks": 96,
		  "midi": 52,
		  "name": "E3",
		  "ticks": 59136,
		  "time": 57.75,
		  "velocity": 0.3937007874015748
		},
		{
		  "duration": 0.09375,
		  "durationTicks": 96,
		  "midi": 40,
		  "name": "E2",
		  "ticks": 59232,
		  "time": 57.84375,
		  "velocity": 0.3937007874015748
		},
		{
		  "duration": 0.09375,
		  "durationTicks": 96,
		  "midi": 36,
		  "name": "C2",
		  "ticks": 59232,
		  "time": 57.84375,
		  "velocity": 0.3937007874015748
		},
		{
		  "duration": 0.09375,
		  "durationTicks": 96,
		  "midi": 52,
		  "name": "E3",
		  "ticks": 59232,
		  "time": 57.84375,
		  "velocity": 0.3937007874015748
		},
		{
		  "duration": 0.09375,
		  "durationTicks": 96,
		  "midi": 52,
		  "name": "E3",
		  "ticks": 59328,
		  "time": 57.9375,
		  "velocity": 0.3937007874015748
		},
		{
		  "duration": 0.09375,
		  "durationTicks": 96,
		  "midi": 28,
		  "name": "E1",
		  "ticks": 59424,
		  "time": 58.03125,
		  "velocity": 0.3937007874015748
		},
		{
		  "duration": 0.09375,
		  "durationTicks": 96,
		  "midi": 52,
		  "name": "E3",
		  "ticks": 59424,
		  "time": 58.03125,
		  "velocity": 0.3937007874015748
		},
		{
		  "duration": 0.09375,
		  "durationTicks": 96,
		  "midi": 52,
		  "name": "E3",
		  "ticks": 59520,
		  "time": 58.125,
		  "velocity": 0.3937007874015748
		},
		{
		  "duration": 0.09375,
		  "durationTicks": 96,
		  "midi": 40,
		  "name": "E2",
		  "ticks": 59616,
		  "time": 58.21875,
		  "velocity": 0.3937007874015748
		},
		{
		  "duration": 0.09375,
		  "durationTicks": 96,
		  "midi": 36,
		  "name": "C2",
		  "ticks": 59616,
		  "time": 58.21875,
		  "velocity": 0.3937007874015748
		},
		{
		  "duration": 0.09375,
		  "durationTicks": 96,
		  "midi": 52,
		  "name": "E3",
		  "ticks": 59616,
		  "time": 58.21875,
		  "velocity": 0.3937007874015748
		},
		{
		  "duration": 0.09375,
		  "durationTicks": 96,
		  "midi": 52,
		  "name": "E3",
		  "ticks": 59712,
		  "time": 58.3125,
		  "velocity": 0.3937007874015748
		},
		{
		  "duration": 0.09375,
		  "durationTicks": 96,
		  "midi": 33,
		  "name": "A1",
		  "ticks": 59808,
		  "time": 58.40625,
		  "velocity": 0.3937007874015748
		},
		{
		  "duration": 0.09375,
		  "durationTicks": 96,
		  "midi": 52,
		  "name": "E3",
		  "ticks": 59808,
		  "time": 58.40625,
		  "velocity": 0.3937007874015748
		},
		{
		  "duration": 0.09375,
		  "durationTicks": 96,
		  "midi": 52,
		  "name": "E3",
		  "ticks": 59904,
		  "time": 58.5,
		  "velocity": 0.3937007874015748
		},
		{
		  "duration": 0.09375,
		  "durationTicks": 96,
		  "midi": 40,
		  "name": "E2",
		  "ticks": 60000,
		  "time": 58.59375,
		  "velocity": 0.3937007874015748
		},
		{
		  "duration": 0.09375,
		  "durationTicks": 96,
		  "midi": 36,
		  "name": "C2",
		  "ticks": 60000,
		  "time": 58.59375,
		  "velocity": 0.3937007874015748
		},
		{
		  "duration": 0.09375,
		  "durationTicks": 96,
		  "midi": 52,
		  "name": "E3",
		  "ticks": 60000,
		  "time": 58.59375,
		  "velocity": 0.3937007874015748
		},
		{
		  "duration": 0.09375,
		  "durationTicks": 96,
		  "midi": 52,
		  "name": "E3",
		  "ticks": 60096,
		  "time": 58.6875,
		  "velocity": 0.3937007874015748
		},
		{
		  "duration": 0.09375,
		  "durationTicks": 96,
		  "midi": 28,
		  "name": "E1",
		  "ticks": 60192,
		  "time": 58.78125,
		  "velocity": 0.3937007874015748
		},
		{
		  "duration": 0.09375,
		  "durationTicks": 96,
		  "midi": 52,
		  "name": "E3",
		  "ticks": 60192,
		  "time": 58.78125,
		  "velocity": 0.3937007874015748
		},
		{
		  "duration": 0.09375,
		  "durationTicks": 96,
		  "midi": 52,
		  "name": "E3",
		  "ticks": 60288,
		  "time": 58.875,
		  "velocity": 0.3937007874015748
		},
		{
		  "duration": 0.09375,
		  "durationTicks": 96,
		  "midi": 40,
		  "name": "E2",
		  "ticks": 60384,
		  "time": 58.96875,
		  "velocity": 0.3937007874015748
		},
		{
		  "duration": 0.09375,
		  "durationTicks": 96,
		  "midi": 36,
		  "name": "C2",
		  "ticks": 60384,
		  "time": 58.96875,
		  "velocity": 0.3937007874015748
		},
		{
		  "duration": 0.09375,
		  "durationTicks": 96,
		  "midi": 52,
		  "name": "E3",
		  "ticks": 60384,
		  "time": 58.96875,
		  "velocity": 0.3937007874015748
		},
		{
		  "duration": 0.09375,
		  "durationTicks": 96,
		  "midi": 52,
		  "name": "E3",
		  "ticks": 60480,
		  "time": 59.0625,
		  "velocity": 0.3937007874015748
		},
		{
		  "duration": 0.09375,
		  "durationTicks": 96,
		  "midi": 33,
		  "name": "A1",
		  "ticks": 60576,
		  "time": 59.15625,
		  "velocity": 0.3937007874015748
		},
		{
		  "duration": 0.09375,
		  "durationTicks": 96,
		  "midi": 52,
		  "name": "E3",
		  "ticks": 60576,
		  "time": 59.15625,
		  "velocity": 0.3937007874015748
		},
		{
		  "duration": 0.09375,
		  "durationTicks": 96,
		  "midi": 52,
		  "name": "E3",
		  "ticks": 60672,
		  "time": 59.25,
		  "velocity": 0.3937007874015748
		},
		{
		  "duration": 0.09375,
		  "durationTicks": 96,
		  "midi": 40,
		  "name": "E2",
		  "ticks": 60768,
		  "time": 59.34375,
		  "velocity": 0.3937007874015748
		},
		{
		  "duration": 0.09375,
		  "durationTicks": 96,
		  "midi": 36,
		  "name": "C2",
		  "ticks": 60768,
		  "time": 59.34375,
		  "velocity": 0.3937007874015748
		},
		{
		  "duration": 0.09375,
		  "durationTicks": 96,
		  "midi": 52,
		  "name": "E3",
		  "ticks": 60768,
		  "time": 59.34375,
		  "velocity": 0.3937007874015748
		},
		{
		  "duration": 0.09375,
		  "durationTicks": 96,
		  "midi": 52,
		  "name": "E3",
		  "ticks": 60864,
		  "time": 59.4375,
		  "velocity": 0.3937007874015748
		},
		{
		  "duration": 0.09375,
		  "durationTicks": 96,
		  "midi": 28,
		  "name": "E1",
		  "ticks": 60960,
		  "time": 59.53125,
		  "velocity": 0.3937007874015748
		},
		{
		  "duration": 0.09375,
		  "durationTicks": 96,
		  "midi": 52,
		  "name": "E3",
		  "ticks": 60960,
		  "time": 59.53125,
		  "velocity": 0.3937007874015748
		},
		{
		  "duration": 0.09375,
		  "durationTicks": 96,
		  "midi": 53,
		  "name": "F3",
		  "ticks": 61056,
		  "time": 59.625,
		  "velocity": 0.3937007874015748
		},
		{
		  "duration": 0.09375,
		  "durationTicks": 96,
		  "midi": 40,
		  "name": "E2",
		  "ticks": 61152,
		  "time": 59.71875,
		  "velocity": 0.3937007874015748
		},
		{
		  "duration": 0.09375,
		  "durationTicks": 96,
		  "midi": 36,
		  "name": "C2",
		  "ticks": 61152,
		  "time": 59.71875,
		  "velocity": 0.3937007874015748
		},
		{
		  "duration": 0.09375,
		  "durationTicks": 96,
		  "midi": 52,
		  "name": "E3",
		  "ticks": 61152,
		  "time": 59.71875,
		  "velocity": 0.3937007874015748
		},
		{
		  "duration": 0.09375,
		  "durationTicks": 96,
		  "midi": 51,
		  "name": "D#3",
		  "ticks": 61248,
		  "time": 59.8125,
		  "velocity": 0.3937007874015748
		},
		{
		  "duration": 0.09375,
		  "durationTicks": 96,
		  "midi": 33,
		  "name": "A1",
		  "ticks": 61344,
		  "time": 59.90625,
		  "velocity": 0.3937007874015748
		},
		{
		  "duration": 0.09375,
		  "durationTicks": 96,
		  "midi": 52,
		  "name": "E3",
		  "ticks": 61344,
		  "time": 59.90625,
		  "velocity": 0.3937007874015748
		},
		{
		  "duration": 0.09375,
		  "durationTicks": 96,
		  "midi": 40,
		  "name": "E2",
		  "ticks": 61536,
		  "time": 60.09375,
		  "velocity": 0.3937007874015748
		},
		{
		  "duration": 0.09375,
		  "durationTicks": 96,
		  "midi": 36,
		  "name": "C2",
		  "ticks": 61536,
		  "time": 60.09375,
		  "velocity": 0.3937007874015748
		},
		{
		  "duration": 0.09375,
		  "durationTicks": 96,
		  "midi": 57,
		  "name": "A3",
		  "ticks": 61536,
		  "time": 60.09375,
		  "velocity": 0.3937007874015748
		},
		{
		  "duration": 0.09375,
		  "durationTicks": 96,
		  "midi": 28,
		  "name": "E1",
		  "ticks": 61728,
		  "time": 60.28125,
		  "velocity": 0.3937007874015748
		},
		{
		  "duration": 0.375,
		  "durationTicks": 384,
		  "midi": 60,
		  "name": "C4",
		  "ticks": 61728,
		  "time": 60.28125,
		  "velocity": 0.3937007874015748
		},
		{
		  "duration": 0.09375,
		  "durationTicks": 96,
		  "midi": 40,
		  "name": "E2",
		  "ticks": 61920,
		  "time": 60.46875,
		  "velocity": 0.3937007874015748
		},
		{
		  "duration": 0.09375,
		  "durationTicks": 96,
		  "midi": 36,
		  "name": "C2",
		  "ticks": 61920,
		  "time": 60.46875,
		  "velocity": 0.3937007874015748
		},
		{
		  "duration": 0.09375,
		  "durationTicks": 96,
		  "midi": 35,
		  "name": "B1",
		  "ticks": 62112,
		  "time": 60.65625,
		  "velocity": 0.3937007874015748
		},
		{
		  "duration": 0.09375,
		  "durationTicks": 96,
		  "midi": 62,
		  "name": "D4",
		  "ticks": 62112,
		  "time": 60.65625,
		  "velocity": 0.3937007874015748
		},
		{
		  "duration": 0.09375,
		  "durationTicks": 96,
		  "midi": 62,
		  "name": "D4",
		  "ticks": 62208,
		  "time": 60.75,
		  "velocity": 0.3937007874015748
		},
		{
		  "duration": 0.09375,
		  "durationTicks": 96,
		  "midi": 40,
		  "name": "E2",
		  "ticks": 62304,
		  "time": 60.84375,
		  "velocity": 0.3937007874015748
		},
		{
		  "duration": 0.09375,
		  "durationTicks": 96,
		  "midi": 38,
		  "name": "D2",
		  "ticks": 62304,
		  "time": 60.84375,
		  "velocity": 0.3937007874015748
		},
		{
		  "duration": 0.09375,
		  "durationTicks": 96,
		  "midi": 62,
		  "name": "D4",
		  "ticks": 62304,
		  "time": 60.84375,
		  "velocity": 0.3937007874015748
		},
		{
		  "duration": 0.09375,
		  "durationTicks": 96,
		  "midi": 62,
		  "name": "D4",
		  "ticks": 62400,
		  "time": 60.9375,
		  "velocity": 0.3937007874015748
		},
		{
		  "duration": 0.09375,
		  "durationTicks": 96,
		  "midi": 28,
		  "name": "E1",
		  "ticks": 62496,
		  "time": 61.03125,
		  "velocity": 0.3937007874015748
		},
		{
		  "duration": 0.09375,
		  "durationTicks": 96,
		  "midi": 62,
		  "name": "D4",
		  "ticks": 62496,
		  "time": 61.03125,
		  "velocity": 0.3937007874015748
		},
		{
		  "duration": 0.09375,
		  "durationTicks": 96,
		  "midi": 60,
		  "name": "C4",
		  "ticks": 62592,
		  "time": 61.125,
		  "velocity": 0.3937007874015748
		},
		{
		  "duration": 0.09375,
		  "durationTicks": 96,
		  "midi": 40,
		  "name": "E2",
		  "ticks": 62688,
		  "time": 61.21875,
		  "velocity": 0.3937007874015748
		},
		{
		  "duration": 0.09375,
		  "durationTicks": 96,
		  "midi": 38,
		  "name": "D2",
		  "ticks": 62688,
		  "time": 61.21875,
		  "velocity": 0.3937007874015748
		},
		{
		  "duration": 0.09375,
		  "durationTicks": 96,
		  "midi": 59,
		  "name": "B3",
		  "ticks": 62688,
		  "time": 61.21875,
		  "velocity": 0.3937007874015748
		},
		{
		  "duration": 0.09375,
		  "durationTicks": 96,
		  "midi": 62,
		  "name": "D4",
		  "ticks": 62784,
		  "time": 61.3125,
		  "velocity": 0.3937007874015748
		},
		{
		  "duration": 0.09375,
		  "durationTicks": 96,
		  "midi": 33,
		  "name": "A1",
		  "ticks": 62880,
		  "time": 61.40625,
		  "velocity": 0.3937007874015748
		},
		{
		  "duration": 0.09375,
		  "durationTicks": 96,
		  "midi": 60,
		  "name": "C4",
		  "ticks": 62880,
		  "time": 61.40625,
		  "velocity": 0.3937007874015748
		},
		{
		  "duration": 0.09375,
		  "durationTicks": 96,
		  "midi": 60,
		  "name": "C4",
		  "ticks": 62976,
		  "time": 61.5,
		  "velocity": 0.3937007874015748
		},
		{
		  "duration": 0.09375,
		  "durationTicks": 96,
		  "midi": 40,
		  "name": "E2",
		  "ticks": 63072,
		  "time": 61.59375,
		  "velocity": 0.3937007874015748
		},
		{
		  "duration": 0.09375,
		  "durationTicks": 96,
		  "midi": 36,
		  "name": "C2",
		  "ticks": 63072,
		  "time": 61.59375,
		  "velocity": 0.3937007874015748
		},
		{
		  "duration": 0.09375,
		  "durationTicks": 96,
		  "midi": 60,
		  "name": "C4",
		  "ticks": 63072,
		  "time": 61.59375,
		  "velocity": 0.3937007874015748
		},
		{
		  "duration": 0.09375,
		  "durationTicks": 96,
		  "midi": 60,
		  "name": "C4",
		  "ticks": 63168,
		  "time": 61.6875,
		  "velocity": 0.3937007874015748
		},
		{
		  "duration": 0.09375,
		  "durationTicks": 96,
		  "midi": 28,
		  "name": "E1",
		  "ticks": 63264,
		  "time": 61.78125,
		  "velocity": 0.3937007874015748
		},
		{
		  "duration": 0.09375,
		  "durationTicks": 96,
		  "midi": 60,
		  "name": "C4",
		  "ticks": 63264,
		  "time": 61.78125,
		  "velocity": 0.3937007874015748
		},
		{
		  "duration": 0.09375,
		  "durationTicks": 96,
		  "midi": 59,
		  "name": "B3",
		  "ticks": 63360,
		  "time": 61.875,
		  "velocity": 0.3937007874015748
		},
		{
		  "duration": 0.09375,
		  "durationTicks": 96,
		  "midi": 40,
		  "name": "E2",
		  "ticks": 63456,
		  "time": 61.96875,
		  "velocity": 0.3937007874015748
		},
		{
		  "duration": 0.09375,
		  "durationTicks": 96,
		  "midi": 36,
		  "name": "C2",
		  "ticks": 63456,
		  "time": 61.96875,
		  "velocity": 0.3937007874015748
		},
		{
		  "duration": 0.09375,
		  "durationTicks": 96,
		  "midi": 57,
		  "name": "A3",
		  "ticks": 63456,
		  "time": 61.96875,
		  "velocity": 0.3937007874015748
		},
		{
		  "duration": 0.09375,
		  "durationTicks": 96,
		  "midi": 60,
		  "name": "C4",
		  "ticks": 63552,
		  "time": 62.0625,
		  "velocity": 0.3937007874015748
		},
		{
		  "duration": 0.09375,
		  "durationTicks": 96,
		  "midi": 35,
		  "name": "B1",
		  "ticks": 63648,
		  "time": 62.15625,
		  "velocity": 0.3937007874015748
		},
		{
		  "duration": 0.09375,
		  "durationTicks": 96,
		  "midi": 59,
		  "name": "B3",
		  "ticks": 63648,
		  "time": 62.15625,
		  "velocity": 0.3937007874015748
		},
		{
		  "duration": 0.09375,
		  "durationTicks": 96,
		  "midi": 59,
		  "name": "B3",
		  "ticks": 63744,
		  "time": 62.25,
		  "velocity": 0.3937007874015748
		},
		{
		  "duration": 0.09375,
		  "durationTicks": 96,
		  "midi": 39,
		  "name": "D#2",
		  "ticks": 63840,
		  "time": 62.34375,
		  "velocity": 0.3937007874015748
		},
		{
		  "duration": 0.09375,
		  "durationTicks": 96,
		  "midi": 42,
		  "name": "F#2",
		  "ticks": 63840,
		  "time": 62.34375,
		  "velocity": 0.3937007874015748
		},
		{
		  "duration": 0.09375,
		  "durationTicks": 96,
		  "midi": 59,
		  "name": "B3",
		  "ticks": 63840,
		  "time": 62.34375,
		  "velocity": 0.3937007874015748
		},
		{
		  "duration": 0.09375,
		  "durationTicks": 96,
		  "midi": 59,
		  "name": "B3",
		  "ticks": 63936,
		  "time": 62.4375,
		  "velocity": 0.3937007874015748
		},
		{
		  "duration": 0.09375,
		  "durationTicks": 96,
		  "midi": 30,
		  "name": "F#1",
		  "ticks": 64032,
		  "time": 62.53125,
		  "velocity": 0.3937007874015748
		},
		{
		  "duration": 0.09375,
		  "durationTicks": 96,
		  "midi": 54,
		  "name": "F#3",
		  "ticks": 64032,
		  "time": 62.53125,
		  "velocity": 0.3937007874015748
		},
		{
		  "duration": 0.09375,
		  "durationTicks": 96,
		  "midi": 39,
		  "name": "D#2",
		  "ticks": 64224,
		  "time": 62.71875,
		  "velocity": 0.3937007874015748
		},
		{
		  "duration": 0.09375,
		  "durationTicks": 96,
		  "midi": 42,
		  "name": "F#2",
		  "ticks": 64224,
		  "time": 62.71875,
		  "velocity": 0.3937007874015748
		},
		{
		  "duration": 0.09375,
		  "durationTicks": 96,
		  "midi": 59,
		  "name": "B3",
		  "ticks": 64224,
		  "time": 62.71875,
		  "velocity": 0.3937007874015748
		},
		{
		  "duration": 0.09375,
		  "durationTicks": 96,
		  "midi": 40,
		  "name": "E2",
		  "ticks": 64416,
		  "time": 62.90625,
		  "velocity": 0.3937007874015748
		},
		{
		  "duration": 0.09375,
		  "durationTicks": 96,
		  "midi": 44,
		  "name": "G#2",
		  "ticks": 64416,
		  "time": 62.90625,
		  "velocity": 0.3937007874015748
		},
		{
		  "duration": 0.09375,
		  "durationTicks": 96,
		  "midi": 56,
		  "name": "G#3",
		  "ticks": 64416,
		  "time": 62.90625,
		  "velocity": 0.3937007874015748
		},
		{
		  "duration": 0.375,
		  "durationTicks": 384,
		  "midi": 28,
		  "name": "E1",
		  "ticks": 64800,
		  "time": 63.28125,
		  "velocity": 0.3937007874015748
		},
		{
		  "duration": 0.09375,
		  "durationTicks": 96,
		  "midi": 33,
		  "name": "A1",
		  "ticks": 65184,
		  "time": 63.65625,
		  "velocity": 0.3937007874015748
		},
		{
		  "duration": 0.09375,
		  "durationTicks": 96,
		  "midi": 52,
		  "name": "E3",
		  "ticks": 65184,
		  "time": 63.65625,
		  "velocity": 0.3937007874015748
		},
		{
		  "duration": 0.09375,
		  "durationTicks": 96,
		  "midi": 52,
		  "name": "E3",
		  "ticks": 65280,
		  "time": 63.75,
		  "velocity": 0.3937007874015748
		},
		{
		  "duration": 0.09375,
		  "durationTicks": 96,
		  "midi": 36,
		  "name": "C2",
		  "ticks": 65376,
		  "time": 63.84375,
		  "velocity": 0.3937007874015748
		},
		{
		  "duration": 0.09375,
		  "durationTicks": 96,
		  "midi": 40,
		  "name": "E2",
		  "ticks": 65376,
		  "time": 63.84375,
		  "velocity": 0.3937007874015748
		},
		{
		  "duration": 0.09375,
		  "durationTicks": 96,
		  "midi": 52,
		  "name": "E3",
		  "ticks": 65376,
		  "time": 63.84375,
		  "velocity": 0.3937007874015748
		},
		{
		  "duration": 0.09375,
		  "durationTicks": 96,
		  "midi": 52,
		  "name": "E3",
		  "ticks": 65472,
		  "time": 63.9375,
		  "velocity": 0.3937007874015748
		},
		{
		  "duration": 0.09375,
		  "durationTicks": 96,
		  "midi": 28,
		  "name": "E1",
		  "ticks": 65568,
		  "time": 64.03125,
		  "velocity": 0.3937007874015748
		},
		{
		  "duration": 0.09375,
		  "durationTicks": 96,
		  "midi": 52,
		  "name": "E3",
		  "ticks": 65568,
		  "time": 64.03125,
		  "velocity": 0.3937007874015748
		},
		{
		  "duration": 0.09375,
		  "durationTicks": 96,
		  "midi": 52,
		  "name": "E3",
		  "ticks": 65664,
		  "time": 64.125,
		  "velocity": 0.3937007874015748
		},
		{
		  "duration": 0.09375,
		  "durationTicks": 96,
		  "midi": 36,
		  "name": "C2",
		  "ticks": 65760,
		  "time": 64.21875,
		  "velocity": 0.3937007874015748
		},
		{
		  "duration": 0.09375,
		  "durationTicks": 96,
		  "midi": 40,
		  "name": "E2",
		  "ticks": 65760,
		  "time": 64.21875,
		  "velocity": 0.3937007874015748
		},
		{
		  "duration": 0.09375,
		  "durationTicks": 96,
		  "midi": 52,
		  "name": "E3",
		  "ticks": 65760,
		  "time": 64.21875,
		  "velocity": 0.3937007874015748
		},
		{
		  "duration": 0.09375,
		  "durationTicks": 96,
		  "midi": 52,
		  "name": "E3",
		  "ticks": 65856,
		  "time": 64.3125,
		  "velocity": 0.3937007874015748
		},
		{
		  "duration": 0.09375,
		  "durationTicks": 96,
		  "midi": 33,
		  "name": "A1",
		  "ticks": 65952,
		  "time": 64.40625,
		  "velocity": 0.3937007874015748
		},
		{
		  "duration": 0.09375,
		  "durationTicks": 96,
		  "midi": 52,
		  "name": "E3",
		  "ticks": 65952,
		  "time": 64.40625,
		  "velocity": 0.3937007874015748
		},
		{
		  "duration": 0.09375,
		  "durationTicks": 96,
		  "midi": 52,
		  "name": "E3",
		  "ticks": 66048,
		  "time": 64.5,
		  "velocity": 0.3937007874015748
		},
		{
		  "duration": 0.09375,
		  "durationTicks": 96,
		  "midi": 36,
		  "name": "C2",
		  "ticks": 66144,
		  "time": 64.59375,
		  "velocity": 0.3937007874015748
		},
		{
		  "duration": 0.09375,
		  "durationTicks": 96,
		  "midi": 40,
		  "name": "E2",
		  "ticks": 66144,
		  "time": 64.59375,
		  "velocity": 0.3937007874015748
		},
		{
		  "duration": 0.09375,
		  "durationTicks": 96,
		  "midi": 52,
		  "name": "E3",
		  "ticks": 66144,
		  "time": 64.59375,
		  "velocity": 0.3937007874015748
		},
		{
		  "duration": 0.09375,
		  "durationTicks": 96,
		  "midi": 52,
		  "name": "E3",
		  "ticks": 66240,
		  "time": 64.6875,
		  "velocity": 0.3937007874015748
		},
		{
		  "duration": 0.09375,
		  "durationTicks": 96,
		  "midi": 28,
		  "name": "E1",
		  "ticks": 66336,
		  "time": 64.78125,
		  "velocity": 0.3937007874015748
		},
		{
		  "duration": 0.09375,
		  "durationTicks": 96,
		  "midi": 52,
		  "name": "E3",
		  "ticks": 66336,
		  "time": 64.78125,
		  "velocity": 0.3937007874015748
		},
		{
		  "duration": 0.09375,
		  "durationTicks": 96,
		  "midi": 52,
		  "name": "E3",
		  "ticks": 66432,
		  "time": 64.875,
		  "velocity": 0.3937007874015748
		},
		{
		  "duration": 0.09375,
		  "durationTicks": 96,
		  "midi": 36,
		  "name": "C2",
		  "ticks": 66528,
		  "time": 64.96875,
		  "velocity": 0.3937007874015748
		},
		{
		  "duration": 0.09375,
		  "durationTicks": 96,
		  "midi": 40,
		  "name": "E2",
		  "ticks": 66528,
		  "time": 64.96875,
		  "velocity": 0.3937007874015748
		},
		{
		  "duration": 0.09375,
		  "durationTicks": 96,
		  "midi": 52,
		  "name": "E3",
		  "ticks": 66528,
		  "time": 64.96875,
		  "velocity": 0.3937007874015748
		},
		{
		  "duration": 0.09375,
		  "durationTicks": 96,
		  "midi": 52,
		  "name": "E3",
		  "ticks": 66624,
		  "time": 65.0625,
		  "velocity": 0.3937007874015748
		},
		{
		  "duration": 0.09375,
		  "durationTicks": 96,
		  "midi": 33,
		  "name": "A1",
		  "ticks": 66720,
		  "time": 65.15625,
		  "velocity": 0.3937007874015748
		},
		{
		  "duration": 0.09375,
		  "durationTicks": 96,
		  "midi": 52,
		  "name": "E3",
		  "ticks": 66720,
		  "time": 65.15625,
		  "velocity": 0.3937007874015748
		},
		{
		  "duration": 0.09375,
		  "durationTicks": 96,
		  "midi": 53,
		  "name": "F3",
		  "ticks": 66816,
		  "time": 65.25,
		  "velocity": 0.3937007874015748
		},
		{
		  "duration": 0.09375,
		  "durationTicks": 96,
		  "midi": 36,
		  "name": "C2",
		  "ticks": 66912,
		  "time": 65.34375,
		  "velocity": 0.3937007874015748
		},
		{
		  "duration": 0.09375,
		  "durationTicks": 96,
		  "midi": 40,
		  "name": "E2",
		  "ticks": 66912,
		  "time": 65.34375,
		  "velocity": 0.3937007874015748
		},
		{
		  "duration": 0.09375,
		  "durationTicks": 96,
		  "midi": 52,
		  "name": "E3",
		  "ticks": 66912,
		  "time": 65.34375,
		  "velocity": 0.3937007874015748
		},
		{
		  "duration": 0.09375,
		  "durationTicks": 96,
		  "midi": 51,
		  "name": "D#3",
		  "ticks": 67008,
		  "time": 65.4375,
		  "velocity": 0.3937007874015748
		},
		{
		  "duration": 0.09375,
		  "durationTicks": 96,
		  "midi": 28,
		  "name": "E1",
		  "ticks": 67104,
		  "time": 65.53125,
		  "velocity": 0.3937007874015748
		},
		{
		  "duration": 0.09375,
		  "durationTicks": 96,
		  "midi": 52,
		  "name": "E3",
		  "ticks": 67104,
		  "time": 65.53125,
		  "velocity": 0.3937007874015748
		},
		{
		  "duration": 0.09375,
		  "durationTicks": 96,
		  "midi": 36,
		  "name": "C2",
		  "ticks": 67296,
		  "time": 65.71875,
		  "velocity": 0.3937007874015748
		},
		{
		  "duration": 0.09375,
		  "durationTicks": 96,
		  "midi": 40,
		  "name": "E2",
		  "ticks": 67296,
		  "time": 65.71875,
		  "velocity": 0.3937007874015748
		},
		{
		  "duration": 0.09375,
		  "durationTicks": 96,
		  "midi": 57,
		  "name": "A3",
		  "ticks": 67296,
		  "time": 65.71875,
		  "velocity": 0.3937007874015748
		},
		{
		  "duration": 0.09375,
		  "durationTicks": 96,
		  "midi": 60,
		  "name": "C4",
		  "ticks": 67392,
		  "time": 65.8125,
		  "velocity": 0.3937007874015748
		},
		{
		  "duration": 0.09375,
		  "durationTicks": 96,
		  "midi": 33,
		  "name": "A1",
		  "ticks": 67488,
		  "time": 65.90625,
		  "velocity": 0.3937007874015748
		},
		{
		  "duration": 0.09375,
		  "durationTicks": 96,
		  "midi": 64,
		  "name": "E4",
		  "ticks": 67488,
		  "time": 65.90625,
		  "velocity": 0.3937007874015748
		},
		{
		  "duration": 0.09375,
		  "durationTicks": 96,
		  "midi": 36,
		  "name": "C2",
		  "ticks": 67680,
		  "time": 66.09375,
		  "velocity": 0.3937007874015748
		},
		{
		  "duration": 0.09375,
		  "durationTicks": 96,
		  "midi": 40,
		  "name": "E2",
		  "ticks": 67680,
		  "time": 66.09375,
		  "velocity": 0.3937007874015748
		},
		{
		  "duration": 0.09375,
		  "durationTicks": 96,
		  "midi": 69,
		  "name": "A4",
		  "ticks": 67680,
		  "time": 66.09375,
		  "velocity": 0.3937007874015748
		},
		{
		  "duration": 0.09375,
		  "durationTicks": 96,
		  "midi": 28,
		  "name": "E1",
		  "ticks": 67872,
		  "time": 66.28125,
		  "velocity": 0.3937007874015748
		},
		{
		  "duration": 0.09375,
		  "durationTicks": 96,
		  "midi": 72,
		  "name": "C5",
		  "ticks": 67872,
		  "time": 66.28125,
		  "velocity": 0.3937007874015748
		},
		{
		  "duration": 0.09375,
		  "durationTicks": 96,
		  "midi": 36,
		  "name": "C2",
		  "ticks": 68064,
		  "time": 66.46875,
		  "velocity": 0.3937007874015748
		},
		{
		  "duration": 0.09375,
		  "durationTicks": 96,
		  "midi": 40,
		  "name": "E2",
		  "ticks": 68064,
		  "time": 66.46875,
		  "velocity": 0.3937007874015748
		},
		{
		  "duration": 0.09375,
		  "durationTicks": 96,
		  "midi": 38,
		  "name": "D2",
		  "ticks": 68256,
		  "time": 66.65625,
		  "velocity": 0.3937007874015748
		},
		{
		  "duration": 0.09375,
		  "durationTicks": 96,
		  "midi": 74,
		  "name": "D5",
		  "ticks": 68256,
		  "time": 66.65625,
		  "velocity": 0.3937007874015748
		},
		{
		  "duration": 0.09375,
		  "durationTicks": 96,
		  "midi": 72,
		  "name": "C5",
		  "ticks": 68352,
		  "time": 66.75,
		  "velocity": 0.3937007874015748
		},
		{
		  "duration": 0.09375,
		  "durationTicks": 96,
		  "midi": 41,
		  "name": "F2",
		  "ticks": 68448,
		  "time": 66.84375,
		  "velocity": 0.3937007874015748
		},
		{
		  "duration": 0.09375,
		  "durationTicks": 96,
		  "midi": 45,
		  "name": "A2",
		  "ticks": 68448,
		  "time": 66.84375,
		  "velocity": 0.3937007874015748
		},
		{
		  "duration": 0.09375,
		  "durationTicks": 96,
		  "midi": 71,
		  "name": "B4",
		  "ticks": 68448,
		  "time": 66.84375,
		  "velocity": 0.3937007874015748
		},
		{
		  "duration": 0.09375,
		  "durationTicks": 96,
		  "midi": 74,
		  "name": "D5",
		  "ticks": 68544,
		  "time": 66.9375,
		  "velocity": 0.3937007874015748
		},
		{
		  "duration": 0.09375,
		  "durationTicks": 96,
		  "midi": 36,
		  "name": "C2",
		  "ticks": 68640,
		  "time": 67.03125,
		  "velocity": 0.3937007874015748
		},
		{
		  "duration": 0.09375,
		  "durationTicks": 96,
		  "midi": 72,
		  "name": "C5",
		  "ticks": 68640,
		  "time": 67.03125,
		  "velocity": 0.3937007874015748
		},
		{
		  "duration": 0.09375,
		  "durationTicks": 96,
		  "midi": 71,
		  "name": "B4",
		  "ticks": 68736,
		  "time": 67.125,
		  "velocity": 0.3937007874015748
		},
		{
		  "duration": 0.09375,
		  "durationTicks": 96,
		  "midi": 40,
		  "name": "E2",
		  "ticks": 68832,
		  "time": 67.21875,
		  "velocity": 0.3937007874015748
		},
		{
		  "duration": 0.09375,
		  "durationTicks": 96,
		  "midi": 45,
		  "name": "A2",
		  "ticks": 68832,
		  "time": 67.21875,
		  "velocity": 0.3937007874015748
		},
		{
		  "duration": 0.09375,
		  "durationTicks": 96,
		  "midi": 69,
		  "name": "A4",
		  "ticks": 68832,
		  "time": 67.21875,
		  "velocity": 0.3937007874015748
		},
		{
		  "duration": 0.09375,
		  "durationTicks": 96,
		  "midi": 72,
		  "name": "C5",
		  "ticks": 68928,
		  "time": 67.3125,
		  "velocity": 0.3937007874015748
		},
		{
		  "duration": 0.09375,
		  "durationTicks": 96,
		  "midi": 35,
		  "name": "B1",
		  "ticks": 69024,
		  "time": 67.40625,
		  "velocity": 0.3937007874015748
		},
		{
		  "duration": 0.09375,
		  "durationTicks": 96,
		  "midi": 71,
		  "name": "B4",
		  "ticks": 69024,
		  "time": 67.40625,
		  "velocity": 0.3937007874015748
		},
		{
		  "duration": 0.09375,
		  "durationTicks": 96,
		  "midi": 69,
		  "name": "A4",
		  "ticks": 69120,
		  "time": 67.5,
		  "velocity": 0.3937007874015748
		},
		{
		  "duration": 0.09375,
		  "durationTicks": 96,
		  "midi": 38,
		  "name": "D2",
		  "ticks": 69216,
		  "time": 67.59375,
		  "velocity": 0.3937007874015748
		},
		{
		  "duration": 0.09375,
		  "durationTicks": 96,
		  "midi": 44,
		  "name": "G#2",
		  "ticks": 69216,
		  "time": 67.59375,
		  "velocity": 0.3937007874015748
		},
		{
		  "duration": 0.09375,
		  "durationTicks": 96,
		  "midi": 68,
		  "name": "G#4",
		  "ticks": 69216,
		  "time": 67.59375,
		  "velocity": 0.3937007874015748
		},
		{
		  "duration": 0.09375,
		  "durationTicks": 96,
		  "midi": 71,
		  "name": "B4",
		  "ticks": 69312,
		  "time": 67.6875,
		  "velocity": 0.3937007874015748
		},
		{
		  "duration": 0.09375,
		  "durationTicks": 96,
		  "midi": 33,
		  "name": "A1",
		  "ticks": 69408,
		  "time": 67.78125,
		  "velocity": 0.3937007874015748
		},
		{
		  "duration": 0.09375,
		  "durationTicks": 96,
		  "midi": 69,
		  "name": "A4",
		  "ticks": 69408,
		  "time": 67.78125,
		  "velocity": 0.3937007874015748
		},
		{
		  "duration": 0.09375,
		  "durationTicks": 96,
		  "midi": 64,
		  "name": "E4",
		  "ticks": 69504,
		  "time": 67.875,
		  "velocity": 0.3937007874015748
		},
		{
		  "duration": 0.09375,
		  "durationTicks": 96,
		  "midi": 36,
		  "name": "C2",
		  "ticks": 69600,
		  "time": 67.96875,
		  "velocity": 0.3937007874015748
		},
		{
		  "duration": 0.09375,
		  "durationTicks": 96,
		  "midi": 45,
		  "name": "A2",
		  "ticks": 69600,
		  "time": 67.96875,
		  "velocity": 0.3937007874015748
		},
		{
		  "duration": 0.09375,
		  "durationTicks": 96,
		  "midi": 60,
		  "name": "C4",
		  "ticks": 69600,
		  "time": 67.96875,
		  "velocity": 0.3937007874015748
		},
		{
		  "duration": 0.09375,
		  "durationTicks": 96,
		  "midi": 57,
		  "name": "A3",
		  "ticks": 69696,
		  "time": 68.0625,
		  "velocity": 0.3937007874015748
		},
		{
		  "duration": 0.09375,
		  "durationTicks": 96,
		  "midi": 35,
		  "name": "B1",
		  "ticks": 69792,
		  "time": 68.15625,
		  "velocity": 0.3937007874015748
		},
		{
		  "duration": 0.09375,
		  "durationTicks": 96,
		  "midi": 65,
		  "name": "F4",
		  "ticks": 69792,
		  "time": 68.15625,
		  "velocity": 0.3937007874015748
		},
		{
		  "duration": 0.09375,
		  "durationTicks": 96,
		  "midi": 64,
		  "name": "E4",
		  "ticks": 69888,
		  "time": 68.25,
		  "velocity": 0.3937007874015748
		},
		{
		  "duration": 0.09375,
		  "durationTicks": 96,
		  "midi": 62,
		  "name": "D4",
		  "ticks": 69984,
		  "time": 68.34375,
		  "velocity": 0.3937007874015748
		},
		{
		  "duration": 0.09375,
		  "durationTicks": 96,
		  "midi": 60,
		  "name": "C4",
		  "ticks": 70080,
		  "time": 68.4375,
		  "velocity": 0.3937007874015748
		},
		{
		  "duration": 0.09375,
		  "durationTicks": 96,
		  "midi": 59,
		  "name": "B3",
		  "ticks": 70176,
		  "time": 68.53125,
		  "velocity": 0.3937007874015748
		},
		{
		  "duration": 0.375,
		  "durationTicks": 384,
		  "midi": 28,
		  "name": "E1",
		  "ticks": 70176,
		  "time": 68.53125,
		  "velocity": 0.3937007874015748
		},
		{
		  "duration": 0.09375,
		  "durationTicks": 96,
		  "midi": 57,
		  "name": "A3",
		  "ticks": 70272,
		  "time": 68.625,
		  "velocity": 0.3937007874015748
		},
		{
		  "duration": 0.09375,
		  "durationTicks": 96,
		  "midi": 56,
		  "name": "G#3",
		  "ticks": 70368,
		  "time": 68.71875,
		  "velocity": 0.3937007874015748
		},
		{
		  "duration": 0.09375,
		  "durationTicks": 96,
		  "midi": 59,
		  "name": "B3",
		  "ticks": 70464,
		  "time": 68.8125,
		  "velocity": 0.3937007874015748
		},
		{
		  "duration": 0.09375,
		  "durationTicks": 96,
		  "midi": 57,
		  "name": "A3",
		  "ticks": 70560,
		  "time": 68.90625,
		  "velocity": 0.3937007874015748
		},
		{
		  "duration": 0.09375,
		  "durationTicks": 96,
		  "midi": 33,
		  "name": "A1",
		  "ticks": 70560,
		  "time": 68.90625,
		  "velocity": 0.3937007874015748
		},
		{
		  "duration": 0.75,
		  "durationTicks": 768,
		  "midi": 33,
		  "name": "A1",
		  "ticks": 71424,
		  "time": 69.75,
		  "velocity": 0.3937007874015748
		},
		{
		  "duration": 0.09375,
		  "durationTicks": 96,
		  "midi": 36,
		  "name": "C2",
		  "ticks": 72192,
		  "time": 70.5,
		  "velocity": 0.3937007874015748
		},
		{
		  "duration": 0.09375,
		  "durationTicks": 96,
		  "midi": 40,
		  "name": "E2",
		  "ticks": 72192,
		  "time": 70.5,
		  "velocity": 0.3937007874015748
		},
		{
		  "duration": 0.09375,
		  "durationTicks": 96,
		  "midi": 28,
		  "name": "E1",
		  "ticks": 72960,
		  "time": 71.25,
		  "velocity": 0.3937007874015748
		},
		{
		  "duration": 0.09375,
		  "durationTicks": 96,
		  "midi": 36,
		  "name": "C2",
		  "ticks": 73728,
		  "time": 72,
		  "velocity": 0.3937007874015748
		},
		{
		  "duration": 0.09375,
		  "durationTicks": 96,
		  "midi": 40,
		  "name": "E2",
		  "ticks": 73728,
		  "time": 72,
		  "velocity": 0.3937007874015748
		},
		{
		  "duration": 0.046875,
		  "durationTicks": 48,
		  "midi": 28,
		  "name": "E1",
		  "ticks": 74352,
		  "time": 72.609375,
		  "velocity": 0.3937007874015748
		},
		{
		  "duration": 0.046875,
		  "durationTicks": 48,
		  "midi": 30,
		  "name": "F#1",
		  "ticks": 74400,
		  "time": 72.65625,
		  "velocity": 0.3937007874015748
		},
		{
		  "duration": 0.046875,
		  "durationTicks": 48,
		  "midi": 32,
		  "name": "G#1",
		  "ticks": 74448,
		  "time": 72.703125,
		  "velocity": 0.3937007874015748
		},
		{
		  "duration": 0.65625,
		  "durationTicks": 672,
		  "midi": 33,
		  "name": "A1",
		  "ticks": 74496,
		  "time": 72.75,
		  "velocity": 0.3937007874015748
		},
		{
		  "duration": 0.09375,
		  "durationTicks": 96,
		  "midi": 36,
		  "name": "C2",
		  "ticks": 75168,
		  "time": 73.40625,
		  "velocity": 0.3937007874015748
		},
		{
		  "duration": 0.09375,
		  "durationTicks": 96,
		  "midi": 40,
		  "name": "E2",
		  "ticks": 75168,
		  "time": 73.40625,
		  "velocity": 0.3937007874015748
		},
		{
		  "duration": 0.09375,
		  "durationTicks": 96,
		  "midi": 28,
		  "name": "E1",
		  "ticks": 75840,
		  "time": 74.0625,
		  "velocity": 0.3937007874015748
		},
		{
		  "duration": 0.09375,
		  "durationTicks": 96,
		  "midi": 36,
		  "name": "C2",
		  "ticks": 76512,
		  "time": 74.71875,
		  "velocity": 0.3937007874015748
		},
		{
		  "duration": 0.09375,
		  "durationTicks": 96,
		  "midi": 40,
		  "name": "E2",
		  "ticks": 76512,
		  "time": 74.71875,
		  "velocity": 0.3937007874015748
		},
		{
		  "duration": 0.46875,
		  "durationTicks": 480,
		  "midi": 33,
		  "name": "A1",
		  "ticks": 77088,
		  "time": 75.28125,
		  "velocity": 0.3937007874015748
		},
		{
		  "duration": 0.09375,
		  "durationTicks": 96,
		  "midi": 36,
		  "name": "C2",
		  "ticks": 77568,
		  "time": 75.75,
		  "velocity": 0.3937007874015748
		},
		{
		  "duration": 0.09375,
		  "durationTicks": 96,
		  "midi": 40,
		  "name": "E2",
		  "ticks": 77568,
		  "time": 75.75,
		  "velocity": 0.3937007874015748
		},
		{
		  "duration": 0.09375,
		  "durationTicks": 96,
		  "midi": 45,
		  "name": "A2",
		  "ticks": 77568,
		  "time": 75.75,
		  "velocity": 0.3937007874015748
		},
		{
		  "duration": 0.09375,
		  "durationTicks": 96,
		  "midi": 28,
		  "name": "E1",
		  "ticks": 78048,
		  "time": 76.21875,
		  "velocity": 0.3937007874015748
		},
		{
		  "duration": 0.09375,
		  "durationTicks": 96,
		  "midi": 36,
		  "name": "C2",
		  "ticks": 78528,
		  "time": 76.6875,
		  "velocity": 0.3937007874015748
		},
		{
		  "duration": 0.09375,
		  "durationTicks": 96,
		  "midi": 40,
		  "name": "E2",
		  "ticks": 78528,
		  "time": 76.6875,
		  "velocity": 0.3937007874015748
		},
		{
		  "duration": 0.09375,
		  "durationTicks": 96,
		  "midi": 45,
		  "name": "A2",
		  "ticks": 78528,
		  "time": 76.6875,
		  "velocity": 0.3937007874015748
		},
		{
		  "duration": 0.046875,
		  "durationTicks": 48,
		  "midi": 28,
		  "name": "E1",
		  "ticks": 78864,
		  "time": 77.015625,
		  "velocity": 0.3937007874015748
		},
		{
		  "duration": 0.046875,
		  "durationTicks": 48,
		  "midi": 30,
		  "name": "F#1",
		  "ticks": 78912,
		  "time": 77.0625,
		  "velocity": 0.3937007874015748
		},
		{
		  "duration": 0.046875,
		  "durationTicks": 48,
		  "midi": 32,
		  "name": "G#1",
		  "ticks": 78960,
		  "time": 77.109375,
		  "velocity": 0.3937007874015748
		},
		{
		  "duration": 0.375,
		  "durationTicks": 384,
		  "midi": 33,
		  "name": "A1",
		  "ticks": 79008,
		  "time": 77.15625,
		  "velocity": 0.3937007874015748
		},
		{
		  "duration": 0.09375,
		  "durationTicks": 96,
		  "midi": 36,
		  "name": "C2",
		  "ticks": 79392,
		  "time": 77.53125,
		  "velocity": 0.3937007874015748
		},
		{
		  "duration": 0.09375,
		  "durationTicks": 96,
		  "midi": 40,
		  "name": "E2",
		  "ticks": 79392,
		  "time": 77.53125,
		  "velocity": 0.3937007874015748
		},
		{
		  "duration": 0.09375,
		  "durationTicks": 96,
		  "midi": 45,
		  "name": "A2",
		  "ticks": 79392,
		  "time": 77.53125,
		  "velocity": 0.3937007874015748
		},
		{
		  "duration": 0.09375,
		  "durationTicks": 96,
		  "midi": 28,
		  "name": "E1",
		  "ticks": 79776,
		  "time": 77.90625,
		  "velocity": 0.3937007874015748
		},
		{
		  "duration": 0.09375,
		  "durationTicks": 96,
		  "midi": 36,
		  "name": "C2",
		  "ticks": 80160,
		  "time": 78.28125,
		  "velocity": 0.3937007874015748
		},
		{
		  "duration": 0.09375,
		  "durationTicks": 96,
		  "midi": 40,
		  "name": "E2",
		  "ticks": 80160,
		  "time": 78.28125,
		  "velocity": 0.3937007874015748
		},
		{
		  "duration": 0.09375,
		  "durationTicks": 96,
		  "midi": 45,
		  "name": "A2",
		  "ticks": 80160,
		  "time": 78.28125,
		  "velocity": 0.3937007874015748
		},
		{
		  "duration": 0.28125,
		  "durationTicks": 288,
		  "midi": 33,
		  "name": "A1",
		  "ticks": 80544,
		  "time": 78.65625,
		  "velocity": 0.3937007874015748
		},
		{
		  "duration": 0.09375,
		  "durationTicks": 96,
		  "midi": 40,
		  "name": "E2",
		  "ticks": 80832,
		  "time": 78.9375,
		  "velocity": 0.3937007874015748
		},
		{
		  "duration": 0.09375,
		  "durationTicks": 96,
		  "midi": 45,
		  "name": "A2",
		  "ticks": 80832,
		  "time": 78.9375,
		  "velocity": 0.3937007874015748
		},
		{
		  "duration": 0.09375,
		  "durationTicks": 96,
		  "midi": 48,
		  "name": "C3",
		  "ticks": 80832,
		  "time": 78.9375,
		  "velocity": 0.3937007874015748
		},
		{
		  "duration": 0.09375,
		  "durationTicks": 96,
		  "midi": 28,
		  "name": "E1",
		  "ticks": 81120,
		  "time": 79.21875,
		  "velocity": 0.3937007874015748
		},
		{
		  "duration": 0.09375,
		  "durationTicks": 96,
		  "midi": 40,
		  "name": "E2",
		  "ticks": 81408,
		  "time": 79.5,
		  "velocity": 0.3937007874015748
		},
		{
		  "duration": 0.09375,
		  "durationTicks": 96,
		  "midi": 45,
		  "name": "A2",
		  "ticks": 81408,
		  "time": 79.5,
		  "velocity": 0.3937007874015748
		},
		{
		  "duration": 0.09375,
		  "durationTicks": 96,
		  "midi": 48,
		  "name": "C3",
		  "ticks": 81408,
		  "time": 79.5,
		  "velocity": 0.3937007874015748
		},
		{
		  "duration": 0.28125,
		  "durationTicks": 288,
		  "midi": 33,
		  "name": "A1",
		  "ticks": 81696,
		  "time": 79.78125,
		  "velocity": 0.3937007874015748
		},
		{
		  "duration": 0.09375,
		  "durationTicks": 96,
		  "midi": 45,
		  "name": "A2",
		  "ticks": 81984,
		  "time": 80.0625,
		  "velocity": 0.3937007874015748
		},
		{
		  "duration": 0.09375,
		  "durationTicks": 96,
		  "midi": 48,
		  "name": "C3",
		  "ticks": 81984,
		  "time": 80.0625,
		  "velocity": 0.3937007874015748
		},
		{
		  "duration": 0.09375,
		  "durationTicks": 96,
		  "midi": 52,
		  "name": "E3",
		  "ticks": 81984,
		  "time": 80.0625,
		  "velocity": 0.3937007874015748
		},
		{
		  "duration": 0.09375,
		  "durationTicks": 96,
		  "midi": 28,
		  "name": "E1",
		  "ticks": 82272,
		  "time": 80.34375,
		  "velocity": 0.3937007874015748
		},
		{
		  "duration": 0.09375,
		  "durationTicks": 96,
		  "midi": 45,
		  "name": "A2",
		  "ticks": 82560,
		  "time": 80.625,
		  "velocity": 0.3937007874015748
		},
		{
		  "duration": 0.09375,
		  "durationTicks": 96,
		  "midi": 48,
		  "name": "C3",
		  "ticks": 82560,
		  "time": 80.625,
		  "velocity": 0.3937007874015748
		},
		{
		  "duration": 0.09375,
		  "durationTicks": 96,
		  "midi": 52,
		  "name": "E3",
		  "ticks": 82560,
		  "time": 80.625,
		  "velocity": 0.3937007874015748
		},
		{
		  "duration": 0.28125,
		  "durationTicks": 288,
		  "midi": 33,
		  "name": "A1",
		  "ticks": 82848,
		  "time": 80.90625,
		  "velocity": 0.3937007874015748
		},
		{
		  "duration": 0.09375,
		  "durationTicks": 96,
		  "midi": 48,
		  "name": "C3",
		  "ticks": 83136,
		  "time": 81.1875,
		  "velocity": 0.3937007874015748
		},
		{
		  "duration": 0.09375,
		  "durationTicks": 96,
		  "midi": 52,
		  "name": "E3",
		  "ticks": 83136,
		  "time": 81.1875,
		  "velocity": 0.3937007874015748
		},
		{
		  "duration": 0.09375,
		  "durationTicks": 96,
		  "midi": 57,
		  "name": "A3",
		  "ticks": 83136,
		  "time": 81.1875,
		  "velocity": 0.3937007874015748
		},
		{
		  "duration": 0.09375,
		  "durationTicks": 96,
		  "midi": 28,
		  "name": "E1",
		  "ticks": 83328,
		  "time": 81.375,
		  "velocity": 0.3937007874015748
		},
		{
		  "duration": 0.09375,
		  "durationTicks": 96,
		  "midi": 52,
		  "name": "E3",
		  "ticks": 83520,
		  "time": 81.5625,
		  "velocity": 0.3937007874015748
		},
		{
		  "duration": 0.09375,
		  "durationTicks": 96,
		  "midi": 57,
		  "name": "A3",
		  "ticks": 83520,
		  "time": 81.5625,
		  "velocity": 0.3937007874015748
		},
		{
		  "duration": 0.09375,
		  "durationTicks": 96,
		  "midi": 60,
		  "name": "C4",
		  "ticks": 83520,
		  "time": 81.5625,
		  "velocity": 0.3937007874015748
		},
		{
		  "duration": 0.1875,
		  "durationTicks": 192,
		  "midi": 33,
		  "name": "A1",
		  "ticks": 83712,
		  "time": 81.75,
		  "velocity": 0.3937007874015748
		},
		{
		  "duration": 0.09375,
		  "durationTicks": 96,
		  "midi": 57,
		  "name": "A3",
		  "ticks": 83904,
		  "time": 81.9375,
		  "velocity": 0.3937007874015748
		},
		{
		  "duration": 0.09375,
		  "durationTicks": 96,
		  "midi": 60,
		  "name": "C4",
		  "ticks": 83904,
		  "time": 81.9375,
		  "velocity": 0.3937007874015748
		},
		{
		  "duration": 0.09375,
		  "durationTicks": 96,
		  "midi": 64,
		  "name": "E4",
		  "ticks": 83904,
		  "time": 81.9375,
		  "velocity": 0.3937007874015748
		},
		{
		  "duration": 0.09375,
		  "durationTicks": 96,
		  "midi": 28,
		  "name": "E1",
		  "ticks": 84096,
		  "time": 82.125,
		  "velocity": 0.3937007874015748
		},
		{
		  "duration": 0.09375,
		  "durationTicks": 96,
		  "midi": 60,
		  "name": "C4",
		  "ticks": 84288,
		  "time": 82.3125,
		  "velocity": 0.3937007874015748
		},
		{
		  "duration": 0.09375,
		  "durationTicks": 96,
		  "midi": 64,
		  "name": "E4",
		  "ticks": 84288,
		  "time": 82.3125,
		  "velocity": 0.3937007874015748
		},
		{
		  "duration": 0.09375,
		  "durationTicks": 96,
		  "midi": 69,
		  "name": "A4",
		  "ticks": 84288,
		  "time": 82.3125,
		  "velocity": 0.3937007874015748
		},
		{
		  "duration": 0.09375,
		  "durationTicks": 96,
		  "midi": 33,
		  "name": "A1",
		  "ticks": 84480,
		  "time": 82.5,
		  "velocity": 0.3937007874015748
		},
		{
		  "duration": 0.09375,
		  "durationTicks": 96,
		  "midi": 64,
		  "name": "E4",
		  "ticks": 84480,
		  "time": 82.5,
		  "velocity": 0.3937007874015748
		},
		{
		  "duration": 0.09375,
		  "durationTicks": 96,
		  "midi": 60,
		  "name": "C4",
		  "ticks": 84576,
		  "time": 82.59375,
		  "velocity": 0.3937007874015748
		},
		{
		  "duration": 0.09375,
		  "durationTicks": 96,
		  "midi": 57,
		  "name": "A3",
		  "ticks": 84576,
		  "time": 82.59375,
		  "velocity": 0.3937007874015748
		},
		{
		  "duration": 0.09375,
		  "durationTicks": 96,
		  "midi": 40,
		  "name": "E2",
		  "ticks": 84672,
		  "time": 82.6875,
		  "velocity": 0.3937007874015748
		},
		{
		  "duration": 0.09375,
		  "durationTicks": 96,
		  "midi": 36,
		  "name": "C2",
		  "ticks": 84672,
		  "time": 82.6875,
		  "velocity": 0.3937007874015748
		},
		{
		  "duration": 0.09375,
		  "durationTicks": 96,
		  "midi": 64,
		  "name": "E4",
		  "ticks": 84672,
		  "time": 82.6875,
		  "velocity": 0.3937007874015748
		},
		{
		  "duration": 0.09375,
		  "durationTicks": 96,
		  "midi": 60,
		  "name": "C4",
		  "ticks": 84768,
		  "time": 82.78125,
		  "velocity": 0.3937007874015748
		},
		{
		  "duration": 0.09375,
		  "durationTicks": 96,
		  "midi": 57,
		  "name": "A3",
		  "ticks": 84768,
		  "time": 82.78125,
		  "velocity": 0.3937007874015748
		},
		{
		  "duration": 0.09375,
		  "durationTicks": 96,
		  "midi": 28,
		  "name": "E1",
		  "ticks": 84864,
		  "time": 82.875,
		  "velocity": 0.3937007874015748
		},
		{
		  "duration": 0.09375,
		  "durationTicks": 96,
		  "midi": 64,
		  "name": "E4",
		  "ticks": 84864,
		  "time": 82.875,
		  "velocity": 0.3937007874015748
		},
		{
		  "duration": 0.09375,
		  "durationTicks": 96,
		  "midi": 60,
		  "name": "C4",
		  "ticks": 84960,
		  "time": 82.96875,
		  "velocity": 0.3937007874015748
		},
		{
		  "duration": 0.09375,
		  "durationTicks": 96,
		  "midi": 57,
		  "name": "A3",
		  "ticks": 84960,
		  "time": 82.96875,
		  "velocity": 0.3937007874015748
		},
		{
		  "duration": 0.09375,
		  "durationTicks": 96,
		  "midi": 36,
		  "name": "C2",
		  "ticks": 85056,
		  "time": 83.0625,
		  "velocity": 0.3937007874015748
		},
		{
		  "duration": 0.09375,
		  "durationTicks": 96,
		  "midi": 40,
		  "name": "E2",
		  "ticks": 85056,
		  "time": 83.0625,
		  "velocity": 0.3937007874015748
		},
		{
		  "duration": 0.09375,
		  "durationTicks": 96,
		  "midi": 64,
		  "name": "E4",
		  "ticks": 85056,
		  "time": 83.0625,
		  "velocity": 0.3937007874015748
		},
		{
		  "duration": 0.09375,
		  "durationTicks": 96,
		  "midi": 60,
		  "name": "C4",
		  "ticks": 85152,
		  "time": 83.15625,
		  "velocity": 0.3937007874015748
		},
		{
		  "duration": 0.09375,
		  "durationTicks": 96,
		  "midi": 57,
		  "name": "A3",
		  "ticks": 85152,
		  "time": 83.15625,
		  "velocity": 0.3937007874015748
		},
		{
		  "duration": 0.09375,
		  "durationTicks": 96,
		  "midi": 33,
		  "name": "A1",
		  "ticks": 85248,
		  "time": 83.25,
		  "velocity": 0.3937007874015748
		},
		{
		  "duration": 0.09375,
		  "durationTicks": 96,
		  "midi": 64,
		  "name": "E4",
		  "ticks": 85248,
		  "time": 83.25,
		  "velocity": 0.3937007874015748
		},
		{
		  "duration": 0.09375,
		  "durationTicks": 96,
		  "midi": 60,
		  "name": "C4",
		  "ticks": 85344,
		  "time": 83.34375,
		  "velocity": 0.3937007874015748
		},
		{
		  "duration": 0.09375,
		  "durationTicks": 96,
		  "midi": 57,
		  "name": "A3",
		  "ticks": 85344,
		  "time": 83.34375,
		  "velocity": 0.3937007874015748
		},
		{
		  "duration": 0.09375,
		  "durationTicks": 96,
		  "midi": 36,
		  "name": "C2",
		  "ticks": 85440,
		  "time": 83.4375,
		  "velocity": 0.3937007874015748
		},
		{
		  "duration": 0.09375,
		  "durationTicks": 96,
		  "midi": 40,
		  "name": "E2",
		  "ticks": 85440,
		  "time": 83.4375,
		  "velocity": 0.3937007874015748
		},
		{
		  "duration": 0.09375,
		  "durationTicks": 96,
		  "midi": 64,
		  "name": "E4",
		  "ticks": 85440,
		  "time": 83.4375,
		  "velocity": 0.3937007874015748
		},
		{
		  "duration": 0.09375,
		  "durationTicks": 96,
		  "midi": 60,
		  "name": "C4",
		  "ticks": 85536,
		  "time": 83.53125,
		  "velocity": 0.3937007874015748
		},
		{
		  "duration": 0.09375,
		  "durationTicks": 96,
		  "midi": 57,
		  "name": "A3",
		  "ticks": 85536,
		  "time": 83.53125,
		  "velocity": 0.3937007874015748
		},
		{
		  "duration": 0.09375,
		  "durationTicks": 96,
		  "midi": 28,
		  "name": "E1",
		  "ticks": 85632,
		  "time": 83.625,
		  "velocity": 0.3937007874015748
		},
		{
		  "duration": 0.09375,
		  "durationTicks": 96,
		  "midi": 64,
		  "name": "E4",
		  "ticks": 85632,
		  "time": 83.625,
		  "velocity": 0.3937007874015748
		},
		{
		  "duration": 0.09375,
		  "durationTicks": 96,
		  "midi": 60,
		  "name": "C4",
		  "ticks": 85728,
		  "time": 83.71875,
		  "velocity": 0.3937007874015748
		},
		{
		  "duration": 0.09375,
		  "durationTicks": 96,
		  "midi": 57,
		  "name": "A3",
		  "ticks": 85728,
		  "time": 83.71875,
		  "velocity": 0.3937007874015748
		},
		{
		  "duration": 0.09375,
		  "durationTicks": 96,
		  "midi": 36,
		  "name": "C2",
		  "ticks": 85824,
		  "time": 83.8125,
		  "velocity": 0.3937007874015748
		},
		{
		  "duration": 0.09375,
		  "durationTicks": 96,
		  "midi": 40,
		  "name": "E2",
		  "ticks": 85824,
		  "time": 83.8125,
		  "velocity": 0.3937007874015748
		},
		{
		  "duration": 0.09375,
		  "durationTicks": 96,
		  "midi": 64,
		  "name": "E4",
		  "ticks": 85824,
		  "time": 83.8125,
		  "velocity": 0.3937007874015748
		},
		{
		  "duration": 0.09375,
		  "durationTicks": 96,
		  "midi": 60,
		  "name": "C4",
		  "ticks": 85920,
		  "time": 83.90625,
		  "velocity": 0.3937007874015748
		},
		{
		  "duration": 0.09375,
		  "durationTicks": 96,
		  "midi": 57,
		  "name": "A3",
		  "ticks": 85920,
		  "time": 83.90625,
		  "velocity": 0.3937007874015748
		},
		{
		  "duration": 0.09375,
		  "durationTicks": 96,
		  "midi": 33,
		  "name": "A1",
		  "ticks": 86016,
		  "time": 84,
		  "velocity": 0.3937007874015748
		},
		{
		  "duration": 0.09375,
		  "durationTicks": 96,
		  "midi": 64,
		  "name": "E4",
		  "ticks": 86016,
		  "time": 84,
		  "velocity": 0.3937007874015748
		},
		{
		  "duration": 0.09375,
		  "durationTicks": 96,
		  "midi": 60,
		  "name": "C4",
		  "ticks": 86112,
		  "time": 84.09375,
		  "velocity": 0.3937007874015748
		},
		{
		  "duration": 0.09375,
		  "durationTicks": 96,
		  "midi": 57,
		  "name": "A3",
		  "ticks": 86112,
		  "time": 84.09375,
		  "velocity": 0.3937007874015748
		},
		{
		  "duration": 0.09375,
		  "durationTicks": 96,
		  "midi": 36,
		  "name": "C2",
		  "ticks": 86208,
		  "time": 84.1875,
		  "velocity": 0.3937007874015748
		},
		{
		  "duration": 0.09375,
		  "durationTicks": 96,
		  "midi": 40,
		  "name": "E2",
		  "ticks": 86208,
		  "time": 84.1875,
		  "velocity": 0.3937007874015748
		},
		{
		  "duration": 0.09375,
		  "durationTicks": 96,
		  "midi": 64,
		  "name": "E4",
		  "ticks": 86208,
		  "time": 84.1875,
		  "velocity": 0.3937007874015748
		},
		{
		  "duration": 0.09375,
		  "durationTicks": 96,
		  "midi": 60,
		  "name": "C4",
		  "ticks": 86304,
		  "time": 84.28125,
		  "velocity": 0.3937007874015748
		},
		{
		  "duration": 0.09375,
		  "durationTicks": 96,
		  "midi": 57,
		  "name": "A3",
		  "ticks": 86304,
		  "time": 84.28125,
		  "velocity": 0.3937007874015748
		},
		{
		  "duration": 0.09375,
		  "durationTicks": 96,
		  "midi": 28,
		  "name": "E1",
		  "ticks": 86400,
		  "time": 84.375,
		  "velocity": 0.3937007874015748
		},
		{
		  "duration": 0.09375,
		  "durationTicks": 96,
		  "midi": 64,
		  "name": "E4",
		  "ticks": 86400,
		  "time": 84.375,
		  "velocity": 0.3937007874015748
		},
		{
		  "duration": 0.09375,
		  "durationTicks": 96,
		  "midi": 65,
		  "name": "F4",
		  "ticks": 86496,
		  "time": 84.46875,
		  "velocity": 0.3937007874015748
		},
		{
		  "duration": 0.09375,
		  "durationTicks": 96,
		  "midi": 36,
		  "name": "C2",
		  "ticks": 86592,
		  "time": 84.5625,
		  "velocity": 0.3937007874015748
		},
		{
		  "duration": 0.09375,
		  "durationTicks": 96,
		  "midi": 40,
		  "name": "E2",
		  "ticks": 86592,
		  "time": 84.5625,
		  "velocity": 0.3937007874015748
		},
		{
		  "duration": 0.09375,
		  "durationTicks": 96,
		  "midi": 64,
		  "name": "E4",
		  "ticks": 86592,
		  "time": 84.5625,
		  "velocity": 0.3937007874015748
		},
		{
		  "duration": 0.09375,
		  "durationTicks": 96,
		  "midi": 63,
		  "name": "D#4",
		  "ticks": 86688,
		  "time": 84.65625,
		  "velocity": 0.3937007874015748
		},
		{
		  "duration": 0.09375,
		  "durationTicks": 96,
		  "midi": 33,
		  "name": "A1",
		  "ticks": 86784,
		  "time": 84.75,
		  "velocity": 0.3937007874015748
		},
		{
		  "duration": 0.09375,
		  "durationTicks": 96,
		  "midi": 64,
		  "name": "E4",
		  "ticks": 86784,
		  "time": 84.75,
		  "velocity": 0.3937007874015748
		},
		{
		  "duration": 0.09375,
		  "durationTicks": 96,
		  "midi": 36,
		  "name": "C2",
		  "ticks": 86976,
		  "time": 84.9375,
		  "velocity": 0.3937007874015748
		},
		{
		  "duration": 0.09375,
		  "durationTicks": 96,
		  "midi": 40,
		  "name": "E2",
		  "ticks": 86976,
		  "time": 84.9375,
		  "velocity": 0.3937007874015748
		},
		{
		  "duration": 0.09375,
		  "durationTicks": 96,
		  "midi": 69,
		  "name": "A4",
		  "ticks": 86976,
		  "time": 84.9375,
		  "velocity": 0.3937007874015748
		},
		{
		  "duration": 0.09375,
		  "durationTicks": 96,
		  "midi": 28,
		  "name": "E1",
		  "ticks": 87168,
		  "time": 85.125,
		  "velocity": 0.3937007874015748
		},
		{
		  "duration": 0.28125,
		  "durationTicks": 288,
		  "midi": 72,
		  "name": "C5",
		  "ticks": 87168,
		  "time": 85.125,
		  "velocity": 0.3937007874015748
		},
		{
		  "duration": 0.09375,
		  "durationTicks": 96,
		  "midi": 36,
		  "name": "C2",
		  "ticks": 87360,
		  "time": 85.3125,
		  "velocity": 0.3937007874015748
		},
		{
		  "duration": 0.09375,
		  "durationTicks": 96,
		  "midi": 40,
		  "name": "E2",
		  "ticks": 87360,
		  "time": 85.3125,
		  "velocity": 0.3937007874015748
		},
		{
		  "duration": 0.09375,
		  "durationTicks": 96,
		  "midi": 35,
		  "name": "B1",
		  "ticks": 87552,
		  "time": 85.5,
		  "velocity": 0.3937007874015748
		},
		{
		  "duration": 0.09375,
		  "durationTicks": 96,
		  "midi": 64,
		  "name": "E4",
		  "ticks": 87552,
		  "time": 85.5,
		  "velocity": 0.3937007874015748
		},
		{
		  "duration": 0.09375,
		  "durationTicks": 96,
		  "midi": 68,
		  "name": "G#4",
		  "ticks": 87552,
		  "time": 85.5,
		  "velocity": 0.3937007874015748
		},
		{
		  "duration": 0.09375,
		  "durationTicks": 96,
		  "midi": 74,
		  "name": "D5",
		  "ticks": 87648,
		  "time": 85.59375,
		  "velocity": 0.3937007874015748
		},
		{
		  "duration": 0.09375,
		  "durationTicks": 96,
		  "midi": 40,
		  "name": "E2",
		  "ticks": 87744,
		  "time": 85.6875,
		  "velocity": 0.3937007874015748
		},
		{
		  "duration": 0.09375,
		  "durationTicks": 96,
		  "midi": 38,
		  "name": "D2",
		  "ticks": 87744,
		  "time": 85.6875,
		  "velocity": 0.3937007874015748
		},
		{
		  "duration": 0.09375,
		  "durationTicks": 96,
		  "midi": 64,
		  "name": "E4",
		  "ticks": 87744,
		  "time": 85.6875,
		  "velocity": 0.3937007874015748
		},
		{
		  "duration": 0.09375,
		  "durationTicks": 96,
		  "midi": 68,
		  "name": "G#4",
		  "ticks": 87744,
		  "time": 85.6875,
		  "velocity": 0.3937007874015748
		},
		{
		  "duration": 0.09375,
		  "durationTicks": 96,
		  "midi": 74,
		  "name": "D5",
		  "ticks": 87840,
		  "time": 85.78125,
		  "velocity": 0.3937007874015748
		},
		{
		  "duration": 0.09375,
		  "durationTicks": 96,
		  "midi": 28,
		  "name": "E1",
		  "ticks": 87936,
		  "time": 85.875,
		  "velocity": 0.3937007874015748
		},
		{
		  "duration": 0.09375,
		  "durationTicks": 96,
		  "midi": 64,
		  "name": "E4",
		  "ticks": 87936,
		  "time": 85.875,
		  "velocity": 0.3937007874015748
		},
		{
		  "duration": 0.09375,
		  "durationTicks": 96,
		  "midi": 68,
		  "name": "G#4",
		  "ticks": 87936,
		  "time": 85.875,
		  "velocity": 0.3937007874015748
		},
		{
		  "duration": 0.09375,
		  "durationTicks": 96,
		  "midi": 74,
		  "name": "D5",
		  "ticks": 88032,
		  "time": 85.96875,
		  "velocity": 0.3937007874015748
		},
		{
		  "duration": 0.09375,
		  "durationTicks": 96,
		  "midi": 40,
		  "name": "E2",
		  "ticks": 88128,
		  "time": 86.0625,
		  "velocity": 0.3937007874015748
		},
		{
		  "duration": 0.09375,
		  "durationTicks": 96,
		  "midi": 38,
		  "name": "D2",
		  "ticks": 88128,
		  "time": 86.0625,
		  "velocity": 0.3937007874015748
		},
		{
		  "duration": 0.09375,
		  "durationTicks": 96,
		  "midi": 64,
		  "name": "E4",
		  "ticks": 88128,
		  "time": 86.0625,
		  "velocity": 0.3937007874015748
		},
		{
		  "duration": 0.09375,
		  "durationTicks": 96,
		  "midi": 68,
		  "name": "G#4",
		  "ticks": 88128,
		  "time": 86.0625,
		  "velocity": 0.3937007874015748
		},
		{
		  "duration": 0.09375,
		  "durationTicks": 96,
		  "midi": 74,
		  "name": "D5",
		  "ticks": 88224,
		  "time": 86.15625,
		  "velocity": 0.3937007874015748
		},
		{
		  "duration": 0.09375,
		  "durationTicks": 96,
		  "midi": 33,
		  "name": "A1",
		  "ticks": 88320,
		  "time": 86.25,
		  "velocity": 0.3937007874015748
		},
		{
		  "duration": 0.09375,
		  "durationTicks": 96,
		  "midi": 64,
		  "name": "E4",
		  "ticks": 88320,
		  "time": 86.25,
		  "velocity": 0.3937007874015748
		},
		{
		  "duration": 0.09375,
		  "durationTicks": 96,
		  "midi": 69,
		  "name": "A4",
		  "ticks": 88320,
		  "time": 86.25,
		  "velocity": 0.3937007874015748
		},
		{
		  "duration": 0.09375,
		  "durationTicks": 96,
		  "midi": 72,
		  "name": "C5",
		  "ticks": 88416,
		  "time": 86.34375,
		  "velocity": 0.3937007874015748
		},
		{
		  "duration": 0.09375,
		  "durationTicks": 96,
		  "midi": 40,
		  "name": "E2",
		  "ticks": 88512,
		  "time": 86.4375,
		  "velocity": 0.3937007874015748
		},
		{
		  "duration": 0.09375,
		  "durationTicks": 96,
		  "midi": 36,
		  "name": "C2",
		  "ticks": 88512,
		  "time": 86.4375,
		  "velocity": 0.3937007874015748
		},
		{
		  "duration": 0.09375,
		  "durationTicks": 96,
		  "midi": 64,
		  "name": "E4",
		  "ticks": 88512,
		  "time": 86.4375,
		  "velocity": 0.3937007874015748
		},
		{
		  "duration": 0.09375,
		  "durationTicks": 96,
		  "midi": 69,
		  "name": "A4",
		  "ticks": 88512,
		  "time": 86.4375,
		  "velocity": 0.3937007874015748
		},
		{
		  "duration": 0.09375,
		  "durationTicks": 96,
		  "midi": 72,
		  "name": "C5",
		  "ticks": 88608,
		  "time": 86.53125,
		  "velocity": 0.3937007874015748
		},
		{
		  "duration": 0.09375,
		  "durationTicks": 96,
		  "midi": 28,
		  "name": "E1",
		  "ticks": 88704,
		  "time": 86.625,
		  "velocity": 0.3937007874015748
		},
		{
		  "duration": 0.09375,
		  "durationTicks": 96,
		  "midi": 64,
		  "name": "E4",
		  "ticks": 88704,
		  "time": 86.625,
		  "velocity": 0.3937007874015748
		},
		{
		  "duration": 0.09375,
		  "durationTicks": 96,
		  "midi": 69,
		  "name": "A4",
		  "ticks": 88704,
		  "time": 86.625,
		  "velocity": 0.3937007874015748
		},
		{
		  "duration": 0.09375,
		  "durationTicks": 96,
		  "midi": 72,
		  "name": "C5",
		  "ticks": 88800,
		  "time": 86.71875,
		  "velocity": 0.3937007874015748
		},
		{
		  "duration": 0.09375,
		  "durationTicks": 96,
		  "midi": 40,
		  "name": "E2",
		  "ticks": 88896,
		  "time": 86.8125,
		  "velocity": 0.3937007874015748
		},
		{
		  "duration": 0.09375,
		  "durationTicks": 96,
		  "midi": 36,
		  "name": "C2",
		  "ticks": 88896,
		  "time": 86.8125,
		  "velocity": 0.3937007874015748
		},
		{
		  "duration": 0.09375,
		  "durationTicks": 96,
		  "midi": 64,
		  "name": "E4",
		  "ticks": 88896,
		  "time": 86.8125,
		  "velocity": 0.3937007874015748
		},
		{
		  "duration": 0.09375,
		  "durationTicks": 96,
		  "midi": 69,
		  "name": "A4",
		  "ticks": 88896,
		  "time": 86.8125,
		  "velocity": 0.3937007874015748
		},
		{
		  "duration": 0.09375,
		  "durationTicks": 96,
		  "midi": 72,
		  "name": "C5",
		  "ticks": 88992,
		  "time": 86.90625,
		  "velocity": 0.3937007874015748
		},
		{
		  "duration": 0.09375,
		  "durationTicks": 96,
		  "midi": 35,
		  "name": "B1",
		  "ticks": 89088,
		  "time": 87,
		  "velocity": 0.3937007874015748
		},
		{
		  "duration": 0.09375,
		  "durationTicks": 96,
		  "midi": 63,
		  "name": "D#4",
		  "ticks": 89088,
		  "time": 87,
		  "velocity": 0.3937007874015748
		},
		{
		  "duration": 0.09375,
		  "durationTicks": 96,
		  "midi": 66,
		  "name": "F#4",
		  "ticks": 89088,
		  "time": 87,
		  "velocity": 0.3937007874015748
		},
		{
		  "duration": 0.09375,
		  "durationTicks": 96,
		  "midi": 71,
		  "name": "B4",
		  "ticks": 89184,
		  "time": 87.09375,
		  "velocity": 0.3937007874015748
		},
		{
		  "duration": 0.09375,
		  "durationTicks": 96,
		  "midi": 39,
		  "name": "D#2",
		  "ticks": 89280,
		  "time": 87.1875,
		  "velocity": 0.3937007874015748
		},
		{
		  "duration": 0.09375,
		  "durationTicks": 96,
		  "midi": 42,
		  "name": "F#2",
		  "ticks": 89280,
		  "time": 87.1875,
		  "velocity": 0.3937007874015748
		},
		{
		  "duration": 0.09375,
		  "durationTicks": 96,
		  "midi": 63,
		  "name": "D#4",
		  "ticks": 89280,
		  "time": 87.1875,
		  "velocity": 0.3937007874015748
		},
		{
		  "duration": 0.09375,
		  "durationTicks": 96,
		  "midi": 66,
		  "name": "F#4",
		  "ticks": 89280,
		  "time": 87.1875,
		  "velocity": 0.3937007874015748
		},
		{
		  "duration": 0.09375,
		  "durationTicks": 96,
		  "midi": 71,
		  "name": "B4",
		  "ticks": 89376,
		  "time": 87.28125,
		  "velocity": 0.3937007874015748
		},
		{
		  "duration": 0.09375,
		  "durationTicks": 96,
		  "midi": 30,
		  "name": "F#1",
		  "ticks": 89472,
		  "time": 87.375,
		  "velocity": 0.3937007874015748
		},
		{
		  "duration": 0.09375,
		  "durationTicks": 96,
		  "midi": 66,
		  "name": "F#4",
		  "ticks": 89472,
		  "time": 87.375,
		  "velocity": 0.3937007874015748
		},
		{
		  "duration": 0.09375,
		  "durationTicks": 96,
		  "midi": 39,
		  "name": "D#2",
		  "ticks": 89664,
		  "time": 87.5625,
		  "velocity": 0.3937007874015748
		},
		{
		  "duration": 0.09375,
		  "durationTicks": 96,
		  "midi": 42,
		  "name": "F#2",
		  "ticks": 89664,
		  "time": 87.5625,
		  "velocity": 0.3937007874015748
		},
		{
		  "duration": 0.09375,
		  "durationTicks": 96,
		  "midi": 71,
		  "name": "B4",
		  "ticks": 89664,
		  "time": 87.5625,
		  "velocity": 0.3937007874015748
		},
		{
		  "duration": 0.09375,
		  "durationTicks": 96,
		  "midi": 40,
		  "name": "E2",
		  "ticks": 89856,
		  "time": 87.75,
		  "velocity": 0.3937007874015748
		},
		{
		  "duration": 0.09375,
		  "durationTicks": 96,
		  "midi": 44,
		  "name": "G#2",
		  "ticks": 89856,
		  "time": 87.75,
		  "velocity": 0.3937007874015748
		},
		{
		  "duration": 0.09375,
		  "durationTicks": 96,
		  "midi": 64,
		  "name": "E4",
		  "ticks": 89856,
		  "time": 87.75,
		  "velocity": 0.3937007874015748
		},
		{
		  "duration": 0.09375,
		  "durationTicks": 96,
		  "midi": 68,
		  "name": "G#4",
		  "ticks": 89856,
		  "time": 87.75,
		  "velocity": 0.3937007874015748
		},
		{
		  "duration": 0.375,
		  "durationTicks": 384,
		  "midi": 28,
		  "name": "E1",
		  "ticks": 90240,
		  "time": 88.125,
		  "velocity": 0.3937007874015748
		},
		{
		  "duration": 0.09375,
		  "durationTicks": 96,
		  "midi": 33,
		  "name": "A1",
		  "ticks": 90624,
		  "time": 88.5,
		  "velocity": 0.3937007874015748
		},
		{
		  "duration": 0.09375,
		  "durationTicks": 96,
		  "midi": 64,
		  "name": "E4",
		  "ticks": 90624,
		  "time": 88.5,
		  "velocity": 0.3937007874015748
		},
		{
		  "duration": 0.09375,
		  "durationTicks": 96,
		  "midi": 60,
		  "name": "C4",
		  "ticks": 90720,
		  "time": 88.59375,
		  "velocity": 0.3937007874015748
		},
		{
		  "duration": 0.09375,
		  "durationTicks": 96,
		  "midi": 57,
		  "name": "A3",
		  "ticks": 90720,
		  "time": 88.59375,
		  "velocity": 0.3937007874015748
		},
		{
		  "duration": 0.09375,
		  "durationTicks": 96,
		  "midi": 36,
		  "name": "C2",
		  "ticks": 90816,
		  "time": 88.6875,
		  "velocity": 0.3937007874015748
		},
		{
		  "duration": 0.09375,
		  "durationTicks": 96,
		  "midi": 40,
		  "name": "E2",
		  "ticks": 90816,
		  "time": 88.6875,
		  "velocity": 0.3937007874015748
		},
		{
		  "duration": 0.09375,
		  "durationTicks": 96,
		  "midi": 64,
		  "name": "E4",
		  "ticks": 90816,
		  "time": 88.6875,
		  "velocity": 0.3937007874015748
		},
		{
		  "duration": 0.09375,
		  "durationTicks": 96,
		  "midi": 60,
		  "name": "C4",
		  "ticks": 90912,
		  "time": 88.78125,
		  "velocity": 0.3937007874015748
		},
		{
		  "duration": 0.09375,
		  "durationTicks": 96,
		  "midi": 57,
		  "name": "A3",
		  "ticks": 90912,
		  "time": 88.78125,
		  "velocity": 0.3937007874015748
		},
		{
		  "duration": 0.09375,
		  "durationTicks": 96,
		  "midi": 28,
		  "name": "E1",
		  "ticks": 91008,
		  "time": 88.875,
		  "velocity": 0.3937007874015748
		},
		{
		  "duration": 0.09375,
		  "durationTicks": 96,
		  "midi": 64,
		  "name": "E4",
		  "ticks": 91008,
		  "time": 88.875,
		  "velocity": 0.3937007874015748
		},
		{
		  "duration": 0.09375,
		  "durationTicks": 96,
		  "midi": 60,
		  "name": "C4",
		  "ticks": 91104,
		  "time": 88.96875,
		  "velocity": 0.3937007874015748
		},
		{
		  "duration": 0.09375,
		  "durationTicks": 96,
		  "midi": 57,
		  "name": "A3",
		  "ticks": 91104,
		  "time": 88.96875,
		  "velocity": 0.3937007874015748
		},
		{
		  "duration": 0.09375,
		  "durationTicks": 96,
		  "midi": 36,
		  "name": "C2",
		  "ticks": 91200,
		  "time": 89.0625,
		  "velocity": 0.3937007874015748
		},
		{
		  "duration": 0.09375,
		  "durationTicks": 96,
		  "midi": 40,
		  "name": "E2",
		  "ticks": 91200,
		  "time": 89.0625,
		  "velocity": 0.3937007874015748
		},
		{
		  "duration": 0.09375,
		  "durationTicks": 96,
		  "midi": 64,
		  "name": "E4",
		  "ticks": 91200,
		  "time": 89.0625,
		  "velocity": 0.3937007874015748
		},
		{
		  "duration": 0.09375,
		  "durationTicks": 96,
		  "midi": 60,
		  "name": "C4",
		  "ticks": 91296,
		  "time": 89.15625,
		  "velocity": 0.3937007874015748
		},
		{
		  "duration": 0.09375,
		  "durationTicks": 96,
		  "midi": 57,
		  "name": "A3",
		  "ticks": 91296,
		  "time": 89.15625,
		  "velocity": 0.3937007874015748
		},
		{
		  "duration": 0.09375,
		  "durationTicks": 96,
		  "midi": 33,
		  "name": "A1",
		  "ticks": 91392,
		  "time": 89.25,
		  "velocity": 0.3937007874015748
		},
		{
		  "duration": 0.09375,
		  "durationTicks": 96,
		  "midi": 64,
		  "name": "E4",
		  "ticks": 91392,
		  "time": 89.25,
		  "velocity": 0.3937007874015748
		},
		{
		  "duration": 0.09375,
		  "durationTicks": 96,
		  "midi": 60,
		  "name": "C4",
		  "ticks": 91488,
		  "time": 89.34375,
		  "velocity": 0.3937007874015748
		},
		{
		  "duration": 0.09375,
		  "durationTicks": 96,
		  "midi": 57,
		  "name": "A3",
		  "ticks": 91488,
		  "time": 89.34375,
		  "velocity": 0.3937007874015748
		},
		{
		  "duration": 0.09375,
		  "durationTicks": 96,
		  "midi": 36,
		  "name": "C2",
		  "ticks": 91584,
		  "time": 89.4375,
		  "velocity": 0.3937007874015748
		},
		{
		  "duration": 0.09375,
		  "durationTicks": 96,
		  "midi": 40,
		  "name": "E2",
		  "ticks": 91584,
		  "time": 89.4375,
		  "velocity": 0.3937007874015748
		},
		{
		  "duration": 0.09375,
		  "durationTicks": 96,
		  "midi": 64,
		  "name": "E4",
		  "ticks": 91584,
		  "time": 89.4375,
		  "velocity": 0.3937007874015748
		},
		{
		  "duration": 0.09375,
		  "durationTicks": 96,
		  "midi": 60,
		  "name": "C4",
		  "ticks": 91680,
		  "time": 89.53125,
		  "velocity": 0.3937007874015748
		},
		{
		  "duration": 0.09375,
		  "durationTicks": 96,
		  "midi": 57,
		  "name": "A3",
		  "ticks": 91680,
		  "time": 89.53125,
		  "velocity": 0.3937007874015748
		},
		{
		  "duration": 0.09375,
		  "durationTicks": 96,
		  "midi": 28,
		  "name": "E1",
		  "ticks": 91776,
		  "time": 89.625,
		  "velocity": 0.3937007874015748
		},
		{
		  "duration": 0.09375,
		  "durationTicks": 96,
		  "midi": 64,
		  "name": "E4",
		  "ticks": 91776,
		  "time": 89.625,
		  "velocity": 0.3937007874015748
		},
		{
		  "duration": 0.09375,
		  "durationTicks": 96,
		  "midi": 60,
		  "name": "C4",
		  "ticks": 91872,
		  "time": 89.71875,
		  "velocity": 0.3937007874015748
		},
		{
		  "duration": 0.09375,
		  "durationTicks": 96,
		  "midi": 57,
		  "name": "A3",
		  "ticks": 91872,
		  "time": 89.71875,
		  "velocity": 0.3937007874015748
		},
		{
		  "duration": 0.09375,
		  "durationTicks": 96,
		  "midi": 36,
		  "name": "C2",
		  "ticks": 91968,
		  "time": 89.8125,
		  "velocity": 0.3937007874015748
		},
		{
		  "duration": 0.09375,
		  "durationTicks": 96,
		  "midi": 40,
		  "name": "E2",
		  "ticks": 91968,
		  "time": 89.8125,
		  "velocity": 0.3937007874015748
		},
		{
		  "duration": 0.09375,
		  "durationTicks": 96,
		  "midi": 64,
		  "name": "E4",
		  "ticks": 91968,
		  "time": 89.8125,
		  "velocity": 0.3937007874015748
		},
		{
		  "duration": 0.09375,
		  "durationTicks": 96,
		  "midi": 60,
		  "name": "C4",
		  "ticks": 92064,
		  "time": 89.90625,
		  "velocity": 0.3937007874015748
		},
		{
		  "duration": 0.09375,
		  "durationTicks": 96,
		  "midi": 57,
		  "name": "A3",
		  "ticks": 92064,
		  "time": 89.90625,
		  "velocity": 0.3937007874015748
		},
		{
		  "duration": 0.09375,
		  "durationTicks": 96,
		  "midi": 33,
		  "name": "A1",
		  "ticks": 92160,
		  "time": 90,
		  "velocity": 0.3937007874015748
		},
		{
		  "duration": 0.09375,
		  "durationTicks": 96,
		  "midi": 64,
		  "name": "E4",
		  "ticks": 92160,
		  "time": 90,
		  "velocity": 0.3937007874015748
		},
		{
		  "duration": 0.09375,
		  "durationTicks": 96,
		  "midi": 65,
		  "name": "F4",
		  "ticks": 92256,
		  "time": 90.09375,
		  "velocity": 0.3937007874015748
		},
		{
		  "duration": 0.09375,
		  "durationTicks": 96,
		  "midi": 36,
		  "name": "C2",
		  "ticks": 92352,
		  "time": 90.1875,
		  "velocity": 0.3937007874015748
		},
		{
		  "duration": 0.09375,
		  "durationTicks": 96,
		  "midi": 40,
		  "name": "E2",
		  "ticks": 92352,
		  "time": 90.1875,
		  "velocity": 0.3937007874015748
		},
		{
		  "duration": 0.09375,
		  "durationTicks": 96,
		  "midi": 64,
		  "name": "E4",
		  "ticks": 92352,
		  "time": 90.1875,
		  "velocity": 0.3937007874015748
		},
		{
		  "duration": 0.09375,
		  "durationTicks": 96,
		  "midi": 63,
		  "name": "D#4",
		  "ticks": 92448,
		  "time": 90.28125,
		  "velocity": 0.3937007874015748
		},
		{
		  "duration": 0.09375,
		  "durationTicks": 96,
		  "midi": 28,
		  "name": "E1",
		  "ticks": 92544,
		  "time": 90.375,
		  "velocity": 0.3937007874015748
		},
		{
		  "duration": 0.09375,
		  "durationTicks": 96,
		  "midi": 64,
		  "name": "E4",
		  "ticks": 92544,
		  "time": 90.375,
		  "velocity": 0.3937007874015748
		},
		{
		  "duration": 0.09375,
		  "durationTicks": 96,
		  "midi": 36,
		  "name": "C2",
		  "ticks": 92736,
		  "time": 90.5625,
		  "velocity": 0.3937007874015748
		},
		{
		  "duration": 0.09375,
		  "durationTicks": 96,
		  "midi": 40,
		  "name": "E2",
		  "ticks": 92736,
		  "time": 90.5625,
		  "velocity": 0.3937007874015748
		},
		{
		  "duration": 0.09375,
		  "durationTicks": 96,
		  "midi": 69,
		  "name": "A4",
		  "ticks": 92736,
		  "time": 90.5625,
		  "velocity": 0.3937007874015748
		},
		{
		  "duration": 0.09375,
		  "durationTicks": 96,
		  "midi": 72,
		  "name": "C5",
		  "ticks": 92832,
		  "time": 90.65625,
		  "velocity": 0.3937007874015748
		},
		{
		  "duration": 0.09375,
		  "durationTicks": 96,
		  "midi": 33,
		  "name": "A1",
		  "ticks": 92928,
		  "time": 90.75,
		  "velocity": 0.3937007874015748
		},
		{
		  "duration": 0.09375,
		  "durationTicks": 96,
		  "midi": 76,
		  "name": "E5",
		  "ticks": 92928,
		  "time": 90.75,
		  "velocity": 0.3937007874015748
		},
		{
		  "duration": 0.09375,
		  "durationTicks": 96,
		  "midi": 36,
		  "name": "C2",
		  "ticks": 93120,
		  "time": 90.9375,
		  "velocity": 0.3937007874015748
		},
		{
		  "duration": 0.09375,
		  "durationTicks": 96,
		  "midi": 40,
		  "name": "E2",
		  "ticks": 93120,
		  "time": 90.9375,
		  "velocity": 0.3937007874015748
		},
		{
		  "duration": 0.09375,
		  "durationTicks": 96,
		  "midi": 81,
		  "name": "A5",
		  "ticks": 93120,
		  "time": 90.9375,
		  "velocity": 0.3937007874015748
		},
		{
		  "duration": 0.09375,
		  "durationTicks": 96,
		  "midi": 28,
		  "name": "E1",
		  "ticks": 93312,
		  "time": 91.125,
		  "velocity": 0.3937007874015748
		},
		{
		  "duration": 0.09375,
		  "durationTicks": 96,
		  "midi": 84,
		  "name": "C6",
		  "ticks": 93312,
		  "time": 91.125,
		  "velocity": 0.3937007874015748
		},
		{
		  "duration": 0.09375,
		  "durationTicks": 96,
		  "midi": 36,
		  "name": "C2",
		  "ticks": 93504,
		  "time": 91.3125,
		  "velocity": 0.3937007874015748
		},
		{
		  "duration": 0.09375,
		  "durationTicks": 96,
		  "midi": 40,
		  "name": "E2",
		  "ticks": 93504,
		  "time": 91.3125,
		  "velocity": 0.3937007874015748
		},
		{
		  "duration": 0.09375,
		  "durationTicks": 96,
		  "midi": 38,
		  "name": "D2",
		  "ticks": 93696,
		  "time": 91.5,
		  "velocity": 0.3937007874015748
		},
		{
		  "duration": 0.09375,
		  "durationTicks": 96,
		  "midi": 86,
		  "name": "D6",
		  "ticks": 93696,
		  "time": 91.5,
		  "velocity": 0.3937007874015748
		},
		{
		  "duration": 0.09375,
		  "durationTicks": 96,
		  "midi": 84,
		  "name": "C6",
		  "ticks": 93792,
		  "time": 91.59375,
		  "velocity": 0.3937007874015748
		},
		{
		  "duration": 0.09375,
		  "durationTicks": 96,
		  "midi": 41,
		  "name": "F2",
		  "ticks": 93888,
		  "time": 91.6875,
		  "velocity": 0.3937007874015748
		},
		{
		  "duration": 0.09375,
		  "durationTicks": 96,
		  "midi": 45,
		  "name": "A2",
		  "ticks": 93888,
		  "time": 91.6875,
		  "velocity": 0.3937007874015748
		},
		{
		  "duration": 0.09375,
		  "durationTicks": 96,
		  "midi": 83,
		  "name": "B5",
		  "ticks": 93888,
		  "time": 91.6875,
		  "velocity": 0.3937007874015748
		},
		{
		  "duration": 0.09375,
		  "durationTicks": 96,
		  "midi": 86,
		  "name": "D6",
		  "ticks": 93984,
		  "time": 91.78125,
		  "velocity": 0.3937007874015748
		},
		{
		  "duration": 0.09375,
		  "durationTicks": 96,
		  "midi": 36,
		  "name": "C2",
		  "ticks": 94080,
		  "time": 91.875,
		  "velocity": 0.3937007874015748
		},
		{
		  "duration": 0.09375,
		  "durationTicks": 96,
		  "midi": 84,
		  "name": "C6",
		  "ticks": 94080,
		  "time": 91.875,
		  "velocity": 0.3937007874015748
		},
		{
		  "duration": 0.09375,
		  "durationTicks": 96,
		  "midi": 83,
		  "name": "B5",
		  "ticks": 94176,
		  "time": 91.96875,
		  "velocity": 0.3937007874015748
		},
		{
		  "duration": 0.09375,
		  "durationTicks": 96,
		  "midi": 40,
		  "name": "E2",
		  "ticks": 94272,
		  "time": 92.0625,
		  "velocity": 0.3937007874015748
		},
		{
		  "duration": 0.09375,
		  "durationTicks": 96,
		  "midi": 45,
		  "name": "A2",
		  "ticks": 94272,
		  "time": 92.0625,
		  "velocity": 0.3937007874015748
		},
		{
		  "duration": 0.09375,
		  "durationTicks": 96,
		  "midi": 81,
		  "name": "A5",
		  "ticks": 94272,
		  "time": 92.0625,
		  "velocity": 0.3937007874015748
		},
		{
		  "duration": 0.09375,
		  "durationTicks": 96,
		  "midi": 84,
		  "name": "C6",
		  "ticks": 94368,
		  "time": 92.15625,
		  "velocity": 0.3937007874015748
		},
		{
		  "duration": 0.09375,
		  "durationTicks": 96,
		  "midi": 35,
		  "name": "B1",
		  "ticks": 94464,
		  "time": 92.25,
		  "velocity": 0.3937007874015748
		},
		{
		  "duration": 0.09375,
		  "durationTicks": 96,
		  "midi": 83,
		  "name": "B5",
		  "ticks": 94464,
		  "time": 92.25,
		  "velocity": 0.3937007874015748
		},
		{
		  "duration": 0.09375,
		  "durationTicks": 96,
		  "midi": 81,
		  "name": "A5",
		  "ticks": 94560,
		  "time": 92.34375,
		  "velocity": 0.3937007874015748
		},
		{
		  "duration": 0.09375,
		  "durationTicks": 96,
		  "midi": 38,
		  "name": "D2",
		  "ticks": 94656,
		  "time": 92.4375,
		  "velocity": 0.3937007874015748
		},
		{
		  "duration": 0.09375,
		  "durationTicks": 96,
		  "midi": 44,
		  "name": "G#2",
		  "ticks": 94656,
		  "time": 92.4375,
		  "velocity": 0.3937007874015748
		},
		{
		  "duration": 0.09375,
		  "durationTicks": 96,
		  "midi": 80,
		  "name": "G#5",
		  "ticks": 94656,
		  "time": 92.4375,
		  "velocity": 0.3937007874015748
		},
		{
		  "duration": 0.09375,
		  "durationTicks": 96,
		  "midi": 83,
		  "name": "B5",
		  "ticks": 94752,
		  "time": 92.53125,
		  "velocity": 0.3937007874015748
		},
		{
		  "duration": 0.09375,
		  "durationTicks": 96,
		  "midi": 33,
		  "name": "A1",
		  "ticks": 94848,
		  "time": 92.625,
		  "velocity": 0.3937007874015748
		},
		{
		  "duration": 0.09375,
		  "durationTicks": 96,
		  "midi": 81,
		  "name": "A5",
		  "ticks": 94848,
		  "time": 92.625,
		  "velocity": 0.3937007874015748
		},
		{
		  "duration": 0.09375,
		  "durationTicks": 96,
		  "midi": 76,
		  "name": "E5",
		  "ticks": 94944,
		  "time": 92.71875,
		  "velocity": 0.3937007874015748
		},
		{
		  "duration": 0.09375,
		  "durationTicks": 96,
		  "midi": 36,
		  "name": "C2",
		  "ticks": 95040,
		  "time": 92.8125,
		  "velocity": 0.3937007874015748
		},
		{
		  "duration": 0.09375,
		  "durationTicks": 96,
		  "midi": 45,
		  "name": "A2",
		  "ticks": 95040,
		  "time": 92.8125,
		  "velocity": 0.3937007874015748
		},
		{
		  "duration": 0.09375,
		  "durationTicks": 96,
		  "midi": 72,
		  "name": "C5",
		  "ticks": 95040,
		  "time": 92.8125,
		  "velocity": 0.3937007874015748
		},
		{
		  "duration": 0.09375,
		  "durationTicks": 96,
		  "midi": 69,
		  "name": "A4",
		  "ticks": 95136,
		  "time": 92.90625,
		  "velocity": 0.3937007874015748
		},
		{
		  "duration": 0.09375,
		  "durationTicks": 96,
		  "midi": 35,
		  "name": "B1",
		  "ticks": 95232,
		  "time": 93,
		  "velocity": 0.3937007874015748
		},
		{
		  "duration": 0.09375,
		  "durationTicks": 96,
		  "midi": 77,
		  "name": "F5",
		  "ticks": 95232,
		  "time": 93,
		  "velocity": 0.3937007874015748
		},
		{
		  "duration": 0.09375,
		  "durationTicks": 96,
		  "midi": 76,
		  "name": "E5",
		  "ticks": 95328,
		  "time": 93.09375,
		  "velocity": 0.3937007874015748
		},
		{
		  "duration": 0.09375,
		  "durationTicks": 96,
		  "midi": 74,
		  "name": "D5",
		  "ticks": 95424,
		  "time": 93.1875,
		  "velocity": 0.3937007874015748
		},
		{
		  "duration": 0.09375,
		  "durationTicks": 96,
		  "midi": 72,
		  "name": "C5",
		  "ticks": 95520,
		  "time": 93.28125,
		  "velocity": 0.3937007874015748
		},
		{
		  "duration": 0.09375,
		  "durationTicks": 96,
		  "midi": 71,
		  "name": "B4",
		  "ticks": 95616,
		  "time": 93.375,
		  "velocity": 0.3937007874015748
		},
		{
		  "duration": 0.375,
		  "durationTicks": 384,
		  "midi": 28,
		  "name": "E1",
		  "ticks": 95616,
		  "time": 93.375,
		  "velocity": 0.3937007874015748
		},
		{
		  "duration": 0.09375,
		  "durationTicks": 96,
		  "midi": 69,
		  "name": "A4",
		  "ticks": 95712,
		  "time": 93.46875,
		  "velocity": 0.3937007874015748
		},
		{
		  "duration": 0.09375,
		  "durationTicks": 96,
		  "midi": 68,
		  "name": "G#4",
		  "ticks": 95808,
		  "time": 93.5625,
		  "velocity": 0.3937007874015748
		},
		{
		  "duration": 0.09375,
		  "durationTicks": 96,
		  "midi": 71,
		  "name": "B4",
		  "ticks": 95904,
		  "time": 93.65625,
		  "velocity": 0.3937007874015748
		},
		{
		  "duration": 0.09375,
		  "durationTicks": 96,
		  "midi": 69,
		  "name": "A4",
		  "ticks": 96000,
		  "time": 93.75,
		  "velocity": 0.3937007874015748
		},
		{
		  "duration": 0.09375,
		  "durationTicks": 96,
		  "midi": 33,
		  "name": "A1",
		  "ticks": 96000,
		  "time": 93.75,
		  "velocity": 0.3937007874015748
		},
		{
		  "duration": 0.09375,
		  "durationTicks": 96,
		  "midi": 28,
		  "name": "E1",
		  "ticks": 96384,
		  "time": 94.125,
		  "velocity": 0.3937007874015748
		},
		{
		  "duration": 0.09375,
		  "durationTicks": 96,
		  "midi": 50,
		  "name": "D3",
		  "ticks": 96768,
		  "time": 94.5,
		  "velocity": 0.3937007874015748
		},
		{
		  "duration": 0.28125,
		  "durationTicks": 288,
		  "midi": 62,
		  "name": "D4",
		  "ticks": 96768,
		  "time": 94.5,
		  "velocity": 0.3937007874015748
		},
		{
		  "duration": 0.09375,
		  "durationTicks": 96,
		  "midi": 53,
		  "name": "F3",
		  "ticks": 96960,
		  "time": 94.6875,
		  "velocity": 0.3937007874015748
		},
		{
		  "duration": 0.09375,
		  "durationTicks": 96,
		  "midi": 57,
		  "name": "A3",
		  "ticks": 96960,
		  "time": 94.6875,
		  "velocity": 0.3937007874015748
		},
		{
		  "duration": 0.09375,
		  "durationTicks": 96,
		  "midi": 61,
		  "name": "C#4",
		  "ticks": 97056,
		  "time": 94.78125,
		  "velocity": 0.3937007874015748
		},
		{
		  "duration": 0.09375,
		  "durationTicks": 96,
		  "midi": 62,
		  "name": "D4",
		  "ticks": 97152,
		  "time": 94.875,
		  "velocity": 0.3937007874015748
		},
		{
		  "duration": 0.09375,
		  "durationTicks": 96,
		  "midi": 53,
		  "name": "F3",
		  "ticks": 97344,
		  "time": 95.0625,
		  "velocity": 0.3937007874015748
		},
		{
		  "duration": 0.09375,
		  "durationTicks": 96,
		  "midi": 57,
		  "name": "A3",
		  "ticks": 97344,
		  "time": 95.0625,
		  "velocity": 0.3937007874015748
		},
		{
		  "duration": 0.09375,
		  "durationTicks": 96,
		  "midi": 64,
		  "name": "E4",
		  "ticks": 97344,
		  "time": 95.0625,
		  "velocity": 0.3937007874015748
		},
		{
		  "duration": 0.09375,
		  "durationTicks": 96,
		  "midi": 65,
		  "name": "F4",
		  "ticks": 97536,
		  "time": 95.25,
		  "velocity": 0.3937007874015748
		},
		{
		  "duration": 0.09375,
		  "durationTicks": 96,
		  "midi": 53,
		  "name": "F3",
		  "ticks": 97728,
		  "time": 95.4375,
		  "velocity": 0.3937007874015748
		},
		{
		  "duration": 0.09375,
		  "durationTicks": 96,
		  "midi": 57,
		  "name": "A3",
		  "ticks": 97728,
		  "time": 95.4375,
		  "velocity": 0.3937007874015748
		},
		{
		  "duration": 0.09375,
		  "durationTicks": 96,
		  "midi": 64,
		  "name": "E4",
		  "ticks": 97728,
		  "time": 95.4375,
		  "velocity": 0.3937007874015748
		},
		{
		  "duration": 0.09375,
		  "durationTicks": 96,
		  "midi": 50,
		  "name": "D3",
		  "ticks": 97920,
		  "time": 95.625,
		  "velocity": 0.3937007874015748
		},
		{
		  "duration": 0.09375,
		  "durationTicks": 96,
		  "midi": 62,
		  "name": "D4",
		  "ticks": 97920,
		  "time": 95.625,
		  "velocity": 0.3937007874015748
		},
		{
		  "duration": 0.09375,
		  "durationTicks": 96,
		  "midi": 53,
		  "name": "F3",
		  "ticks": 98112,
		  "time": 95.8125,
		  "velocity": 0.3937007874015748
		},
		{
		  "duration": 0.09375,
		  "durationTicks": 96,
		  "midi": 57,
		  "name": "A3",
		  "ticks": 98112,
		  "time": 95.8125,
		  "velocity": 0.3937007874015748
		},
		{
		  "duration": 0.09375,
		  "durationTicks": 96,
		  "midi": 65,
		  "name": "F4",
		  "ticks": 98112,
		  "time": 95.8125,
		  "velocity": 0.3937007874015748
		},
		{
		  "duration": 0.09375,
		  "durationTicks": 96,
		  "midi": 45,
		  "name": "A2",
		  "ticks": 98304,
		  "time": 96,
		  "velocity": 0.3937007874015748
		},
		{
		  "duration": 0.28125,
		  "durationTicks": 288,
		  "midi": 64,
		  "name": "E4",
		  "ticks": 98304,
		  "time": 96,
		  "velocity": 0.3937007874015748
		},
		{
		  "duration": 0.09375,
		  "durationTicks": 96,
		  "midi": 48,
		  "name": "C3",
		  "ticks": 98496,
		  "time": 96.1875,
		  "velocity": 0.3937007874015748
		},
		{
		  "duration": 0.09375,
		  "durationTicks": 96,
		  "midi": 57,
		  "name": "A3",
		  "ticks": 98496,
		  "time": 96.1875,
		  "velocity": 0.3937007874015748
		},
		{
		  "duration": 0.09375,
		  "durationTicks": 96,
		  "midi": 62,
		  "name": "D4",
		  "ticks": 98592,
		  "time": 96.28125,
		  "velocity": 0.3937007874015748
		},
		{
		  "duration": 0.09375,
		  "durationTicks": 96,
		  "midi": 60,
		  "name": "C4",
		  "ticks": 98688,
		  "time": 96.375,
		  "velocity": 0.3937007874015748
		},
		{
		  "duration": 0.09375,
		  "durationTicks": 96,
		  "midi": 48,
		  "name": "C3",
		  "ticks": 98880,
		  "time": 96.5625,
		  "velocity": 0.3937007874015748
		},
		{
		  "duration": 0.09375,
		  "durationTicks": 96,
		  "midi": 57,
		  "name": "A3",
		  "ticks": 98880,
		  "time": 96.5625,
		  "velocity": 0.3937007874015748
		},
		{
		  "duration": 0.09375,
		  "durationTicks": 96,
		  "midi": 62,
		  "name": "D4",
		  "ticks": 98880,
		  "time": 96.5625,
		  "velocity": 0.3937007874015748
		},
		{
		  "duration": 0.5625,
		  "durationTicks": 576,
		  "midi": 64,
		  "name": "E4",
		  "ticks": 99072,
		  "time": 96.75,
		  "velocity": 0.3937007874015748
		},
		{
		  "duration": 0.09375,
		  "durationTicks": 96,
		  "midi": 48,
		  "name": "C3",
		  "ticks": 99264,
		  "time": 96.9375,
		  "velocity": 0.3937007874015748
		},
		{
		  "duration": 0.09375,
		  "durationTicks": 96,
		  "midi": 57,
		  "name": "A3",
		  "ticks": 99264,
		  "time": 96.9375,
		  "velocity": 0.3937007874015748
		},
		{
		  "duration": 0.09375,
		  "durationTicks": 96,
		  "midi": 45,
		  "name": "A2",
		  "ticks": 99456,
		  "time": 97.125,
		  "velocity": 0.3937007874015748
		},
		{
		  "duration": 0.09375,
		  "durationTicks": 96,
		  "midi": 48,
		  "name": "C3",
		  "ticks": 99648,
		  "time": 97.3125,
		  "velocity": 0.3937007874015748
		},
		{
		  "duration": 0.09375,
		  "durationTicks": 96,
		  "midi": 57,
		  "name": "A3",
		  "ticks": 99648,
		  "time": 97.3125,
		  "velocity": 0.3937007874015748
		},
		{
		  "duration": 0.09375,
		  "durationTicks": 96,
		  "midi": 60,
		  "name": "C4",
		  "ticks": 99648,
		  "time": 97.3125,
		  "velocity": 0.3937007874015748
		},
		{
		  "duration": 0.09375,
		  "durationTicks": 96,
		  "midi": 44,
		  "name": "G#2",
		  "ticks": 99840,
		  "time": 97.5,
		  "velocity": 0.3937007874015748
		},
		{
		  "duration": 0.28125,
		  "durationTicks": 288,
		  "midi": 59,
		  "name": "B3",
		  "ticks": 99840,
		  "time": 97.5,
		  "velocity": 0.3937007874015748
		},
		{
		  "duration": 0.09375,
		  "durationTicks": 96,
		  "midi": 47,
		  "name": "B2",
		  "ticks": 100032,
		  "time": 97.6875,
		  "velocity": 0.3937007874015748
		},
		{
		  "duration": 0.09375,
		  "durationTicks": 96,
		  "midi": 52,
		  "name": "E3",
		  "ticks": 100032,
		  "time": 97.6875,
		  "velocity": 0.3937007874015748
		},
		{
		  "duration": 0.09375,
		  "durationTicks": 96,
		  "midi": 58,
		  "name": "A#3",
		  "ticks": 100128,
		  "time": 97.78125,
		  "velocity": 0.3937007874015748
		},
		{
		  "duration": 0.09375,
		  "durationTicks": 96,
		  "midi": 59,
		  "name": "B3",
		  "ticks": 100224,
		  "time": 97.875,
		  "velocity": 0.3937007874015748
		},
		{
		  "duration": 0.09375,
		  "durationTicks": 96,
		  "midi": 47,
		  "name": "B2",
		  "ticks": 100416,
		  "time": 98.0625,
		  "velocity": 0.3937007874015748
		},
		{
		  "duration": 0.09375,
		  "durationTicks": 96,
		  "midi": 52,
		  "name": "E3",
		  "ticks": 100416,
		  "time": 98.0625,
		  "velocity": 0.3937007874015748
		},
		{
		  "duration": 0.09375,
		  "durationTicks": 96,
		  "midi": 60,
		  "name": "C4",
		  "ticks": 100416,
		  "time": 98.0625,
		  "velocity": 0.3937007874015748
		},
		{
		  "duration": 0.09375,
		  "durationTicks": 96,
		  "midi": 62,
		  "name": "D4",
		  "ticks": 100608,
		  "time": 98.25,
		  "velocity": 0.3937007874015748
		},
		{
		  "duration": 0.09375,
		  "durationTicks": 96,
		  "midi": 47,
		  "name": "B2",
		  "ticks": 100800,
		  "time": 98.4375,
		  "velocity": 0.3937007874015748
		},
		{
		  "duration": 0.09375,
		  "durationTicks": 96,
		  "midi": 52,
		  "name": "E3",
		  "ticks": 100800,
		  "time": 98.4375,
		  "velocity": 0.3937007874015748
		},
		{
		  "duration": 0.09375,
		  "durationTicks": 96,
		  "midi": 60,
		  "name": "C4",
		  "ticks": 100800,
		  "time": 98.4375,
		  "velocity": 0.3937007874015748
		},
		{
		  "duration": 0.09375,
		  "durationTicks": 96,
		  "midi": 44,
		  "name": "G#2",
		  "ticks": 100992,
		  "time": 98.625,
		  "velocity": 0.3937007874015748
		},
		{
		  "duration": 0.09375,
		  "durationTicks": 96,
		  "midi": 59,
		  "name": "B3",
		  "ticks": 100992,
		  "time": 98.625,
		  "velocity": 0.3937007874015748
		},
		{
		  "duration": 0.09375,
		  "durationTicks": 96,
		  "midi": 47,
		  "name": "B2",
		  "ticks": 101184,
		  "time": 98.8125,
		  "velocity": 0.3937007874015748
		},
		{
		  "duration": 0.09375,
		  "durationTicks": 96,
		  "midi": 52,
		  "name": "E3",
		  "ticks": 101184,
		  "time": 98.8125,
		  "velocity": 0.3937007874015748
		},
		{
		  "duration": 0.09375,
		  "durationTicks": 96,
		  "midi": 62,
		  "name": "D4",
		  "ticks": 101184,
		  "time": 98.8125,
		  "velocity": 0.3937007874015748
		},
		{
		  "duration": 0.09375,
		  "durationTicks": 96,
		  "midi": 45,
		  "name": "A2",
		  "ticks": 101376,
		  "time": 99,
		  "velocity": 0.3937007874015748
		},
		{
		  "duration": 0.09375,
		  "durationTicks": 96,
		  "midi": 60,
		  "name": "C4",
		  "ticks": 101376,
		  "time": 99,
		  "velocity": 0.3937007874015748
		},
		{
		  "duration": 0.09375,
		  "durationTicks": 96,
		  "midi": 45,
		  "name": "A2",
		  "ticks": 101568,
		  "time": 99.1875,
		  "velocity": 0.3937007874015748
		},
		{
		  "duration": 0.09375,
		  "durationTicks": 96,
		  "midi": 57,
		  "name": "A3",
		  "ticks": 101568,
		  "time": 99.1875,
		  "velocity": 0.3937007874015748
		},
		{
		  "duration": 0.09375,
		  "durationTicks": 96,
		  "midi": 48,
		  "name": "C3",
		  "ticks": 101760,
		  "time": 99.375,
		  "velocity": 0.3937007874015748
		},
		{
		  "duration": 0.09375,
		  "durationTicks": 96,
		  "midi": 60,
		  "name": "C4",
		  "ticks": 101760,
		  "time": 99.375,
		  "velocity": 0.3937007874015748
		},
		{
		  "duration": 0.09375,
		  "durationTicks": 96,
		  "midi": 52,
		  "name": "E3",
		  "ticks": 101952,
		  "time": 99.5625,
		  "velocity": 0.3937007874015748
		},
		{
		  "duration": 0.09375,
		  "durationTicks": 96,
		  "midi": 64,
		  "name": "E4",
		  "ticks": 101952,
		  "time": 99.5625,
		  "velocity": 0.3937007874015748
		},
		{
		  "duration": 0.09375,
		  "durationTicks": 96,
		  "midi": 57,
		  "name": "A3",
		  "ticks": 102144,
		  "time": 99.75,
		  "velocity": 0.3937007874015748
		},
		{
		  "duration": 0.09375,
		  "durationTicks": 96,
		  "midi": 45,
		  "name": "A2",
		  "ticks": 102144,
		  "time": 99.75,
		  "velocity": 0.3937007874015748
		},
		{
		  "duration": 0.09375,
		  "durationTicks": 96,
		  "midi": 69,
		  "name": "A4",
		  "ticks": 102144,
		  "time": 99.75,
		  "velocity": 0.3937007874015748
		},
		{
		  "duration": 0.09375,
		  "durationTicks": 96,
		  "midi": 52,
		  "name": "E3",
		  "ticks": 102336,
		  "time": 99.9375,
		  "velocity": 0.3937007874015748
		},
		{
		  "duration": 0.09375,
		  "durationTicks": 96,
		  "midi": 40,
		  "name": "E2",
		  "ticks": 102336,
		  "time": 99.9375,
		  "velocity": 0.3937007874015748
		},
		{
		  "duration": 0.09375,
		  "durationTicks": 96,
		  "midi": 64,
		  "name": "E4",
		  "ticks": 102336,
		  "time": 99.9375,
		  "velocity": 0.3937007874015748
		},
		{
		  "duration": 0.09375,
		  "durationTicks": 96,
		  "midi": 48,
		  "name": "C3",
		  "ticks": 102528,
		  "time": 100.125,
		  "velocity": 0.3937007874015748
		},
		{
		  "duration": 0.09375,
		  "durationTicks": 96,
		  "midi": 36,
		  "name": "C2",
		  "ticks": 102528,
		  "time": 100.125,
		  "velocity": 0.3937007874015748
		},
		{
		  "duration": 0.09375,
		  "durationTicks": 96,
		  "midi": 60,
		  "name": "C4",
		  "ticks": 102528,
		  "time": 100.125,
		  "velocity": 0.3937007874015748
		},
		{
		  "duration": 0.09375,
		  "durationTicks": 96,
		  "midi": 45,
		  "name": "A2",
		  "ticks": 102720,
		  "time": 100.3125,
		  "velocity": 0.3937007874015748
		},
		{
		  "duration": 0.09375,
		  "durationTicks": 96,
		  "midi": 33,
		  "name": "A1",
		  "ticks": 102720,
		  "time": 100.3125,
		  "velocity": 0.3937007874015748
		},
		{
		  "duration": 0.09375,
		  "durationTicks": 96,
		  "midi": 57,
		  "name": "A3",
		  "ticks": 102720,
		  "time": 100.3125,
		  "velocity": 0.3937007874015748
		},
		{
		  "duration": 0.09375,
		  "durationTicks": 96,
		  "midi": 38,
		  "name": "D2",
		  "ticks": 102912,
		  "time": 100.5,
		  "velocity": 0.3937007874015748
		},
		{
		  "duration": 0.28125,
		  "durationTicks": 288,
		  "midi": 62,
		  "name": "D4",
		  "ticks": 102912,
		  "time": 100.5,
		  "velocity": 0.3937007874015748
		},
		{
		  "duration": 0.09375,
		  "durationTicks": 96,
		  "midi": 41,
		  "name": "F2",
		  "ticks": 103104,
		  "time": 100.6875,
		  "velocity": 0.3937007874015748
		},
		{
		  "duration": 0.09375,
		  "durationTicks": 96,
		  "midi": 45,
		  "name": "A2",
		  "ticks": 103104,
		  "time": 100.6875,
		  "velocity": 0.3937007874015748
		},
		{
		  "duration": 0.09375,
		  "durationTicks": 96,
		  "midi": 61,
		  "name": "C#4",
		  "ticks": 103200,
		  "time": 100.78125,
		  "velocity": 0.3937007874015748
		},
		{
		  "duration": 0.09375,
		  "durationTicks": 96,
		  "midi": 33,
		  "name": "A1",
		  "ticks": 103296,
		  "time": 100.875,
		  "velocity": 0.3937007874015748
		},
		{
		  "duration": 0.09375,
		  "durationTicks": 96,
		  "midi": 62,
		  "name": "D4",
		  "ticks": 103296,
		  "time": 100.875,
		  "velocity": 0.3937007874015748
		},
		{
		  "duration": 0.09375,
		  "durationTicks": 96,
		  "midi": 41,
		  "name": "F2",
		  "ticks": 103488,
		  "time": 101.0625,
		  "velocity": 0.3937007874015748
		},
		{
		  "duration": 0.09375,
		  "durationTicks": 96,
		  "midi": 45,
		  "name": "A2",
		  "ticks": 103488,
		  "time": 101.0625,
		  "velocity": 0.3937007874015748
		},
		{
		  "duration": 0.09375,
		  "durationTicks": 96,
		  "midi": 64,
		  "name": "E4",
		  "ticks": 103488,
		  "time": 101.0625,
		  "velocity": 0.3937007874015748
		},
		{
		  "duration": 0.09375,
		  "durationTicks": 96,
		  "midi": 38,
		  "name": "D2",
		  "ticks": 103680,
		  "time": 101.25,
		  "velocity": 0.3937007874015748
		},
		{
		  "duration": 0.09375,
		  "durationTicks": 96,
		  "midi": 65,
		  "name": "F4",
		  "ticks": 103680,
		  "time": 101.25,
		  "velocity": 0.3937007874015748
		},
		{
		  "duration": 0.09375,
		  "durationTicks": 96,
		  "midi": 41,
		  "name": "F2",
		  "ticks": 103872,
		  "time": 101.4375,
		  "velocity": 0.3937007874015748
		},
		{
		  "duration": 0.09375,
		  "durationTicks": 96,
		  "midi": 45,
		  "name": "A2",
		  "ticks": 103872,
		  "time": 101.4375,
		  "velocity": 0.3937007874015748
		},
		{
		  "duration": 0.09375,
		  "durationTicks": 96,
		  "midi": 64,
		  "name": "E4",
		  "ticks": 103872,
		  "time": 101.4375,
		  "velocity": 0.3937007874015748
		},
		{
		  "duration": 0.09375,
		  "durationTicks": 96,
		  "midi": 33,
		  "name": "A1",
		  "ticks": 104064,
		  "time": 101.625,
		  "velocity": 0.3937007874015748
		},
		{
		  "duration": 0.09375,
		  "durationTicks": 96,
		  "midi": 62,
		  "name": "D4",
		  "ticks": 104064,
		  "time": 101.625,
		  "velocity": 0.3937007874015748
		},
		{
		  "duration": 0.09375,
		  "durationTicks": 96,
		  "midi": 41,
		  "name": "F2",
		  "ticks": 104256,
		  "time": 101.8125,
		  "velocity": 0.3937007874015748
		},
		{
		  "duration": 0.09375,
		  "durationTicks": 96,
		  "midi": 45,
		  "name": "A2",
		  "ticks": 104256,
		  "time": 101.8125,
		  "velocity": 0.3937007874015748
		},
		{
		  "duration": 0.09375,
		  "durationTicks": 96,
		  "midi": 65,
		  "name": "F4",
		  "ticks": 104256,
		  "time": 101.8125,
		  "velocity": 0.3937007874015748
		},
		{
		  "duration": 0.09375,
		  "durationTicks": 96,
		  "midi": 36,
		  "name": "C2",
		  "ticks": 104448,
		  "time": 102,
		  "velocity": 0.3937007874015748
		},
		{
		  "duration": 0.28125,
		  "durationTicks": 288,
		  "midi": 64,
		  "name": "E4",
		  "ticks": 104448,
		  "time": 102,
		  "velocity": 0.3937007874015748
		},
		{
		  "duration": 0.09375,
		  "durationTicks": 96,
		  "midi": 40,
		  "name": "E2",
		  "ticks": 104640,
		  "time": 102.1875,
		  "velocity": 0.3937007874015748
		},
		{
		  "duration": 0.09375,
		  "durationTicks": 96,
		  "midi": 45,
		  "name": "A2",
		  "ticks": 104640,
		  "time": 102.1875,
		  "velocity": 0.3937007874015748
		},
		{
		  "duration": 0.09375,
		  "durationTicks": 96,
		  "midi": 62,
		  "name": "D4",
		  "ticks": 104736,
		  "time": 102.28125,
		  "velocity": 0.3937007874015748
		},
		{
		  "duration": 0.09375,
		  "durationTicks": 96,
		  "midi": 33,
		  "name": "A1",
		  "ticks": 104832,
		  "time": 102.375,
		  "velocity": 0.3937007874015748
		},
		{
		  "duration": 0.09375,
		  "durationTicks": 96,
		  "midi": 60,
		  "name": "C4",
		  "ticks": 104832,
		  "time": 102.375,
		  "velocity": 0.3937007874015748
		},
		{
		  "duration": 0.09375,
		  "durationTicks": 96,
		  "midi": 40,
		  "name": "E2",
		  "ticks": 105024,
		  "time": 102.5625,
		  "velocity": 0.3937007874015748
		},
		{
		  "duration": 0.09375,
		  "durationTicks": 96,
		  "midi": 45,
		  "name": "A2",
		  "ticks": 105024,
		  "time": 102.5625,
		  "velocity": 0.3937007874015748
		},
		{
		  "duration": 0.09375,
		  "durationTicks": 96,
		  "midi": 62,
		  "name": "D4",
		  "ticks": 105024,
		  "time": 102.5625,
		  "velocity": 0.3937007874015748
		},
		{
		  "duration": 0.09375,
		  "durationTicks": 96,
		  "midi": 36,
		  "name": "C2",
		  "ticks": 105216,
		  "time": 102.75,
		  "velocity": 0.3937007874015748
		},
		{
		  "duration": 0.09375,
		  "durationTicks": 96,
		  "midi": 64,
		  "name": "E4",
		  "ticks": 105216,
		  "time": 102.75,
		  "velocity": 0.3937007874015748
		},
		{
		  "duration": 0.09375,
		  "durationTicks": 96,
		  "midi": 40,
		  "name": "E2",
		  "ticks": 105408,
		  "time": 102.9375,
		  "velocity": 0.3937007874015748
		},
		{
		  "duration": 0.09375,
		  "durationTicks": 96,
		  "midi": 45,
		  "name": "A2",
		  "ticks": 105408,
		  "time": 102.9375,
		  "velocity": 0.3937007874015748
		},
		{
		  "duration": 0.09375,
		  "durationTicks": 96,
		  "midi": 33,
		  "name": "A1",
		  "ticks": 105600,
		  "time": 103.125,
		  "velocity": 0.3937007874015748
		},
		{
		  "duration": 0.375,
		  "durationTicks": 384,
		  "midi": 69,
		  "name": "A4",
		  "ticks": 105600,
		  "time": 103.125,
		  "velocity": 0.3937007874015748
		},
		{
		  "duration": 0.09375,
		  "durationTicks": 96,
		  "midi": 40,
		  "name": "E2",
		  "ticks": 105792,
		  "time": 103.3125,
		  "velocity": 0.3937007874015748
		},
		{
		  "duration": 0.09375,
		  "durationTicks": 96,
		  "midi": 45,
		  "name": "A2",
		  "ticks": 105792,
		  "time": 103.3125,
		  "velocity": 0.3937007874015748
		},
		{
		  "duration": 0.09375,
		  "durationTicks": 96,
		  "midi": 38,
		  "name": "D2",
		  "ticks": 105984,
		  "time": 103.5,
		  "velocity": 0.3937007874015748
		},
		{
		  "duration": 0.09375,
		  "durationTicks": 96,
		  "midi": 41,
		  "name": "F2",
		  "ticks": 106176,
		  "time": 103.6875,
		  "velocity": 0.3937007874015748
		},
		{
		  "duration": 0.09375,
		  "durationTicks": 96,
		  "midi": 45,
		  "name": "A2",
		  "ticks": 106176,
		  "time": 103.6875,
		  "velocity": 0.3937007874015748
		},
		{
		  "duration": 0.375,
		  "durationTicks": 384,
		  "midi": 62,
		  "name": "D4",
		  "ticks": 106176,
		  "time": 103.6875,
		  "velocity": 0.3937007874015748
		},
		{
		  "duration": 0.09375,
		  "durationTicks": 96,
		  "midi": 35,
		  "name": "B1",
		  "ticks": 106368,
		  "time": 103.875,
		  "velocity": 0.3937007874015748
		},
		{
		  "duration": 0.09375,
		  "durationTicks": 96,
		  "midi": 41,
		  "name": "F2",
		  "ticks": 106560,
		  "time": 104.0625,
		  "velocity": 0.3937007874015748
		},
		{
		  "duration": 0.09375,
		  "durationTicks": 96,
		  "midi": 45,
		  "name": "A2",
		  "ticks": 106560,
		  "time": 104.0625,
		  "velocity": 0.3937007874015748
		},
		{
		  "duration": 0.09375,
		  "durationTicks": 96,
		  "midi": 65,
		  "name": "F4",
		  "ticks": 106560,
		  "time": 104.0625,
		  "velocity": 0.3937007874015748
		},
		{
		  "duration": 0.09375,
		  "durationTicks": 96,
		  "midi": 40,
		  "name": "E2",
		  "ticks": 106752,
		  "time": 104.25,
		  "velocity": 0.3937007874015748
		},
		{
		  "duration": 0.09375,
		  "durationTicks": 96,
		  "midi": 64,
		  "name": "E4",
		  "ticks": 106752,
		  "time": 104.25,
		  "velocity": 0.3937007874015748
		},
		{
		  "duration": 0.09375,
		  "durationTicks": 96,
		  "midi": 36,
		  "name": "C2",
		  "ticks": 106944,
		  "time": 104.4375,
		  "velocity": 0.3937007874015748
		},
		{
		  "duration": 0.09375,
		  "durationTicks": 96,
		  "midi": 60,
		  "name": "C4",
		  "ticks": 106944,
		  "time": 104.4375,
		  "velocity": 0.3937007874015748
		},
		{
		  "duration": 0.09375,
		  "durationTicks": 96,
		  "midi": 38,
		  "name": "D2",
		  "ticks": 107136,
		  "time": 104.625,
		  "velocity": 0.3937007874015748
		},
		{
		  "duration": 0.09375,
		  "durationTicks": 96,
		  "midi": 62,
		  "name": "D4",
		  "ticks": 107136,
		  "time": 104.625,
		  "velocity": 0.3937007874015748
		},
		{
		  "duration": 0.09375,
		  "durationTicks": 96,
		  "midi": 35,
		  "name": "B1",
		  "ticks": 107328,
		  "time": 104.8125,
		  "velocity": 0.3937007874015748
		},
		{
		  "duration": 0.09375,
		  "durationTicks": 96,
		  "midi": 59,
		  "name": "B3",
		  "ticks": 107328,
		  "time": 104.8125,
		  "velocity": 0.3937007874015748
		},
		{
		  "duration": 0.09375,
		  "durationTicks": 96,
		  "midi": 33,
		  "name": "A1",
		  "ticks": 107520,
		  "time": 105,
		  "velocity": 0.3937007874015748
		},
		{
		  "duration": 0.09375,
		  "durationTicks": 96,
		  "midi": 57,
		  "name": "A3",
		  "ticks": 107520,
		  "time": 105,
		  "velocity": 0.3937007874015748
		},
		{
		  "duration": 0.09375,
		  "durationTicks": 96,
		  "midi": 56,
		  "name": "G#3",
		  "ticks": 108096,
		  "time": 105.5625,
		  "velocity": 0.3937007874015748
		},
		{
		  "duration": 0.09375,
		  "durationTicks": 96,
		  "midi": 52,
		  "name": "E3",
		  "ticks": 108096,
		  "time": 105.5625,
		  "velocity": 0.3937007874015748
		},
		{
		  "duration": 0.09375,
		  "durationTicks": 96,
		  "midi": 64,
		  "name": "E4",
		  "ticks": 108096,
		  "time": 105.5625,
		  "velocity": 0.3937007874015748
		},
		{
		  "duration": 0.09375,
		  "durationTicks": 96,
		  "midi": 40,
		  "name": "E2",
		  "ticks": 108096,
		  "time": 105.5625,
		  "velocity": 0.3937007874015748
		},
		{
		  "duration": 0.09375,
		  "durationTicks": 96,
		  "midi": 28,
		  "name": "E1",
		  "ticks": 108096,
		  "time": 105.5625,
		  "velocity": 0.3937007874015748
		},
		{
		  "duration": 0.09375,
		  "durationTicks": 96,
		  "midi": 33,
		  "name": "A1",
		  "ticks": 108288,
		  "time": 105.75,
		  "velocity": 0.3937007874015748
		},
		{
		  "duration": 0.09375,
		  "durationTicks": 96,
		  "midi": 45,
		  "name": "A2",
		  "ticks": 108288,
		  "time": 105.75,
		  "velocity": 0.3937007874015748
		},
		{
		  "duration": 0.09375,
		  "durationTicks": 96,
		  "midi": 57,
		  "name": "A3",
		  "ticks": 108288,
		  "time": 105.75,
		  "velocity": 0.3937007874015748
		},
		{
		  "duration": 0.09375,
		  "durationTicks": 96,
		  "midi": 69,
		  "name": "A4",
		  "ticks": 108288,
		  "time": 105.75,
		  "velocity": 0.3937007874015748
		},
		{
		  "duration": 0.09375,
		  "durationTicks": 96,
		  "midi": 60,
		  "name": "C4",
		  "ticks": 108288,
		  "time": 105.75,
		  "velocity": 0.3937007874015748
		},
		{
		  "duration": 0.375,
		  "durationTicks": 384,
		  "midi": 40,
		  "name": "E2",
		  "ticks": 108672,
		  "time": 106.125,
		  "velocity": 0.3937007874015748
		},
		{
		  "duration": 0.375,
		  "durationTicks": 384,
		  "midi": 28,
		  "name": "E1",
		  "ticks": 108672,
		  "time": 106.125,
		  "velocity": 0.3937007874015748
		},
		{
		  "duration": 0.09375,
		  "durationTicks": 96,
		  "midi": 45,
		  "name": "A2",
		  "ticks": 109056,
		  "time": 106.5,
		  "velocity": 0.3937007874015748
		},
		{
		  "duration": 0.09375,
		  "durationTicks": 96,
		  "midi": 64,
		  "name": "E4",
		  "ticks": 109056,
		  "time": 106.5,
		  "velocity": 0.3937007874015748
		},
		{
		  "duration": 0.09375,
		  "durationTicks": 96,
		  "midi": 60,
		  "name": "C4",
		  "ticks": 109152,
		  "time": 106.59375,
		  "velocity": 0.3937007874015748
		},
		{
		  "duration": 0.09375,
		  "durationTicks": 96,
		  "midi": 57,
		  "name": "A3",
		  "ticks": 109152,
		  "time": 106.59375,
		  "velocity": 0.3937007874015748
		},
		{
		  "duration": 0.09375,
		  "durationTicks": 96,
		  "midi": 48,
		  "name": "C3",
		  "ticks": 109248,
		  "time": 106.6875,
		  "velocity": 0.3937007874015748
		},
		{
		  "duration": 0.09375,
		  "durationTicks": 96,
		  "midi": 52,
		  "name": "E3",
		  "ticks": 109248,
		  "time": 106.6875,
		  "velocity": 0.3937007874015748
		},
		{
		  "duration": 0.09375,
		  "durationTicks": 96,
		  "midi": 64,
		  "name": "E4",
		  "ticks": 109248,
		  "time": 106.6875,
		  "velocity": 0.3937007874015748
		},
		{
		  "duration": 0.09375,
		  "durationTicks": 96,
		  "midi": 60,
		  "name": "C4",
		  "ticks": 109344,
		  "time": 106.78125,
		  "velocity": 0.3937007874015748
		},
		{
		  "duration": 0.09375,
		  "durationTicks": 96,
		  "midi": 57,
		  "name": "A3",
		  "ticks": 109344,
		  "time": 106.78125,
		  "velocity": 0.3937007874015748
		},
		{
		  "duration": 0.09375,
		  "durationTicks": 96,
		  "midi": 40,
		  "name": "E2",
		  "ticks": 109440,
		  "time": 106.875,
		  "velocity": 0.3937007874015748
		},
		{
		  "duration": 0.09375,
		  "durationTicks": 96,
		  "midi": 64,
		  "name": "E4",
		  "ticks": 109440,
		  "time": 106.875,
		  "velocity": 0.3937007874015748
		},
		{
		  "duration": 0.09375,
		  "durationTicks": 96,
		  "midi": 60,
		  "name": "C4",
		  "ticks": 109536,
		  "time": 106.96875,
		  "velocity": 0.3937007874015748
		},
		{
		  "duration": 0.09375,
		  "durationTicks": 96,
		  "midi": 57,
		  "name": "A3",
		  "ticks": 109536,
		  "time": 106.96875,
		  "velocity": 0.3937007874015748
		},
		{
		  "duration": 0.09375,
		  "durationTicks": 96,
		  "midi": 48,
		  "name": "C3",
		  "ticks": 109632,
		  "time": 107.0625,
		  "velocity": 0.3937007874015748
		},
		{
		  "duration": 0.09375,
		  "durationTicks": 96,
		  "midi": 52,
		  "name": "E3",
		  "ticks": 109632,
		  "time": 107.0625,
		  "velocity": 0.3937007874015748
		},
		{
		  "duration": 0.09375,
		  "durationTicks": 96,
		  "midi": 64,
		  "name": "E4",
		  "ticks": 109632,
		  "time": 107.0625,
		  "velocity": 0.3937007874015748
		},
		{
		  "duration": 0.09375,
		  "durationTicks": 96,
		  "midi": 60,
		  "name": "C4",
		  "ticks": 109728,
		  "time": 107.15625,
		  "velocity": 0.3937007874015748
		},
		{
		  "duration": 0.09375,
		  "durationTicks": 96,
		  "midi": 57,
		  "name": "A3",
		  "ticks": 109728,
		  "time": 107.15625,
		  "velocity": 0.3937007874015748
		},
		{
		  "duration": 0.09375,
		  "durationTicks": 96,
		  "midi": 45,
		  "name": "A2",
		  "ticks": 109824,
		  "time": 107.25,
		  "velocity": 0.3937007874015748
		},
		{
		  "duration": 0.09375,
		  "durationTicks": 96,
		  "midi": 64,
		  "name": "E4",
		  "ticks": 109824,
		  "time": 107.25,
		  "velocity": 0.3937007874015748
		},
		{
		  "duration": 0.09375,
		  "durationTicks": 96,
		  "midi": 60,
		  "name": "C4",
		  "ticks": 109920,
		  "time": 107.34375,
		  "velocity": 0.3937007874015748
		},
		{
		  "duration": 0.09375,
		  "durationTicks": 96,
		  "midi": 57,
		  "name": "A3",
		  "ticks": 109920,
		  "time": 107.34375,
		  "velocity": 0.3937007874015748
		},
		{
		  "duration": 0.09375,
		  "durationTicks": 96,
		  "midi": 48,
		  "name": "C3",
		  "ticks": 110016,
		  "time": 107.4375,
		  "velocity": 0.3937007874015748
		},
		{
		  "duration": 0.09375,
		  "durationTicks": 96,
		  "midi": 52,
		  "name": "E3",
		  "ticks": 110016,
		  "time": 107.4375,
		  "velocity": 0.3937007874015748
		},
		{
		  "duration": 0.09375,
		  "durationTicks": 96,
		  "midi": 64,
		  "name": "E4",
		  "ticks": 110016,
		  "time": 107.4375,
		  "velocity": 0.3937007874015748
		},
		{
		  "duration": 0.09375,
		  "durationTicks": 96,
		  "midi": 60,
		  "name": "C4",
		  "ticks": 110112,
		  "time": 107.53125,
		  "velocity": 0.3937007874015748
		},
		{
		  "duration": 0.09375,
		  "durationTicks": 96,
		  "midi": 57,
		  "name": "A3",
		  "ticks": 110112,
		  "time": 107.53125,
		  "velocity": 0.3937007874015748
		},
		{
		  "duration": 0.09375,
		  "durationTicks": 96,
		  "midi": 40,
		  "name": "E2",
		  "ticks": 110208,
		  "time": 107.625,
		  "velocity": 0.3937007874015748
		},
		{
		  "duration": 0.09375,
		  "durationTicks": 96,
		  "midi": 64,
		  "name": "E4",
		  "ticks": 110208,
		  "time": 107.625,
		  "velocity": 0.3937007874015748
		},
		{
		  "duration": 0.09375,
		  "durationTicks": 96,
		  "midi": 60,
		  "name": "C4",
		  "ticks": 110304,
		  "time": 107.71875,
		  "velocity": 0.3937007874015748
		},
		{
		  "duration": 0.09375,
		  "durationTicks": 96,
		  "midi": 57,
		  "name": "A3",
		  "ticks": 110304,
		  "time": 107.71875,
		  "velocity": 0.3937007874015748
		},
		{
		  "duration": 0.09375,
		  "durationTicks": 96,
		  "midi": 48,
		  "name": "C3",
		  "ticks": 110400,
		  "time": 107.8125,
		  "velocity": 0.3937007874015748
		},
		{
		  "duration": 0.09375,
		  "durationTicks": 96,
		  "midi": 52,
		  "name": "E3",
		  "ticks": 110400,
		  "time": 107.8125,
		  "velocity": 0.3937007874015748
		},
		{
		  "duration": 0.09375,
		  "durationTicks": 96,
		  "midi": 64,
		  "name": "E4",
		  "ticks": 110400,
		  "time": 107.8125,
		  "velocity": 0.3937007874015748
		},
		{
		  "duration": 0.09375,
		  "durationTicks": 96,
		  "midi": 60,
		  "name": "C4",
		  "ticks": 110496,
		  "time": 107.90625,
		  "velocity": 0.3937007874015748
		},
		{
		  "duration": 0.09375,
		  "durationTicks": 96,
		  "midi": 57,
		  "name": "A3",
		  "ticks": 110496,
		  "time": 107.90625,
		  "velocity": 0.3937007874015748
		},
		{
		  "duration": 0.09375,
		  "durationTicks": 96,
		  "midi": 45,
		  "name": "A2",
		  "ticks": 110592,
		  "time": 108,
		  "velocity": 0.3937007874015748
		},
		{
		  "duration": 0.09375,
		  "durationTicks": 96,
		  "midi": 64,
		  "name": "E4",
		  "ticks": 110592,
		  "time": 108,
		  "velocity": 0.3937007874015748
		},
		{
		  "duration": 0.09375,
		  "durationTicks": 96,
		  "midi": 60,
		  "name": "C4",
		  "ticks": 110688,
		  "time": 108.09375,
		  "velocity": 0.3937007874015748
		},
		{
		  "duration": 0.09375,
		  "durationTicks": 96,
		  "midi": 57,
		  "name": "A3",
		  "ticks": 110688,
		  "time": 108.09375,
		  "velocity": 0.3937007874015748
		},
		{
		  "duration": 0.09375,
		  "durationTicks": 96,
		  "midi": 48,
		  "name": "C3",
		  "ticks": 110784,
		  "time": 108.1875,
		  "velocity": 0.3937007874015748
		},
		{
		  "duration": 0.09375,
		  "durationTicks": 96,
		  "midi": 52,
		  "name": "E3",
		  "ticks": 110784,
		  "time": 108.1875,
		  "velocity": 0.3937007874015748
		},
		{
		  "duration": 0.09375,
		  "durationTicks": 96,
		  "midi": 64,
		  "name": "E4",
		  "ticks": 110784,
		  "time": 108.1875,
		  "velocity": 0.3937007874015748
		},
		{
		  "duration": 0.09375,
		  "durationTicks": 96,
		  "midi": 60,
		  "name": "C4",
		  "ticks": 110880,
		  "time": 108.28125,
		  "velocity": 0.3937007874015748
		},
		{
		  "duration": 0.09375,
		  "durationTicks": 96,
		  "midi": 57,
		  "name": "A3",
		  "ticks": 110880,
		  "time": 108.28125,
		  "velocity": 0.3937007874015748
		},
		{
		  "duration": 0.09375,
		  "durationTicks": 96,
		  "midi": 40,
		  "name": "E2",
		  "ticks": 110976,
		  "time": 108.375,
		  "velocity": 0.3937007874015748
		},
		{
		  "duration": 0.09375,
		  "durationTicks": 96,
		  "midi": 64,
		  "name": "E4",
		  "ticks": 110976,
		  "time": 108.375,
		  "velocity": 0.3937007874015748
		},
		{
		  "duration": 0.09375,
		  "durationTicks": 96,
		  "midi": 65,
		  "name": "F4",
		  "ticks": 111072,
		  "time": 108.46875,
		  "velocity": 0.3937007874015748
		},
		{
		  "duration": 0.09375,
		  "durationTicks": 96,
		  "midi": 48,
		  "name": "C3",
		  "ticks": 111168,
		  "time": 108.5625,
		  "velocity": 0.3937007874015748
		},
		{
		  "duration": 0.09375,
		  "durationTicks": 96,
		  "midi": 52,
		  "name": "E3",
		  "ticks": 111168,
		  "time": 108.5625,
		  "velocity": 0.3937007874015748
		},
		{
		  "duration": 0.09375,
		  "durationTicks": 96,
		  "midi": 64,
		  "name": "E4",
		  "ticks": 111168,
		  "time": 108.5625,
		  "velocity": 0.3937007874015748
		},
		{
		  "duration": 0.09375,
		  "durationTicks": 96,
		  "midi": 63,
		  "name": "D#4",
		  "ticks": 111264,
		  "time": 108.65625,
		  "velocity": 0.3937007874015748
		},
		{
		  "duration": 0.09375,
		  "durationTicks": 96,
		  "midi": 45,
		  "name": "A2",
		  "ticks": 111360,
		  "time": 108.75,
		  "velocity": 0.3937007874015748
		},
		{
		  "duration": 0.09375,
		  "durationTicks": 96,
		  "midi": 64,
		  "name": "E4",
		  "ticks": 111360,
		  "time": 108.75,
		  "velocity": 0.3937007874015748
		},
		{
		  "duration": 0.09375,
		  "durationTicks": 96,
		  "midi": 48,
		  "name": "C3",
		  "ticks": 111552,
		  "time": 108.9375,
		  "velocity": 0.3937007874015748
		},
		{
		  "duration": 0.09375,
		  "durationTicks": 96,
		  "midi": 52,
		  "name": "E3",
		  "ticks": 111552,
		  "time": 108.9375,
		  "velocity": 0.3937007874015748
		},
		{
		  "duration": 0.09375,
		  "durationTicks": 96,
		  "midi": 69,
		  "name": "A4",
		  "ticks": 111552,
		  "time": 108.9375,
		  "velocity": 0.3937007874015748
		},
		{
		  "duration": 0.09375,
		  "durationTicks": 96,
		  "midi": 40,
		  "name": "E2",
		  "ticks": 111744,
		  "time": 109.125,
		  "velocity": 0.3937007874015748
		},
		{
		  "duration": 0.375,
		  "durationTicks": 384,
		  "midi": 72,
		  "name": "C5",
		  "ticks": 111744,
		  "time": 109.125,
		  "velocity": 0.3937007874015748
		},
		{
		  "duration": 0.09375,
		  "durationTicks": 96,
		  "midi": 48,
		  "name": "C3",
		  "ticks": 111936,
		  "time": 109.3125,
		  "velocity": 0.3937007874015748
		},
		{
		  "duration": 0.09375,
		  "durationTicks": 96,
		  "midi": 52,
		  "name": "E3",
		  "ticks": 111936,
		  "time": 109.3125,
		  "velocity": 0.3937007874015748
		},
		{
		  "duration": 0.09375,
		  "durationTicks": 96,
		  "midi": 47,
		  "name": "B2",
		  "ticks": 112128,
		  "time": 109.5,
		  "velocity": 0.3937007874015748
		},
		{
		  "duration": 0.09375,
		  "durationTicks": 96,
		  "midi": 68,
		  "name": "G#4",
		  "ticks": 112128,
		  "time": 109.5,
		  "velocity": 0.3937007874015748
		},
		{
		  "duration": 0.09375,
		  "durationTicks": 96,
		  "midi": 64,
		  "name": "E4",
		  "ticks": 112128,
		  "time": 109.5,
		  "velocity": 0.3937007874015748
		},
		{
		  "duration": 0.09375,
		  "durationTicks": 96,
		  "midi": 74,
		  "name": "D5",
		  "ticks": 112224,
		  "time": 109.59375,
		  "velocity": 0.3937007874015748
		},
		{
		  "duration": 0.09375,
		  "durationTicks": 96,
		  "midi": 50,
		  "name": "D3",
		  "ticks": 112320,
		  "time": 109.6875,
		  "velocity": 0.3937007874015748
		},
		{
		  "duration": 0.09375,
		  "durationTicks": 96,
		  "midi": 52,
		  "name": "E3",
		  "ticks": 112320,
		  "time": 109.6875,
		  "velocity": 0.3937007874015748
		},
		{
		  "duration": 0.09375,
		  "durationTicks": 96,
		  "midi": 68,
		  "name": "G#4",
		  "ticks": 112320,
		  "time": 109.6875,
		  "velocity": 0.3937007874015748
		},
		{
		  "duration": 0.09375,
		  "durationTicks": 96,
		  "midi": 64,
		  "name": "E4",
		  "ticks": 112320,
		  "time": 109.6875,
		  "velocity": 0.3937007874015748
		},
		{
		  "duration": 0.09375,
		  "durationTicks": 96,
		  "midi": 74,
		  "name": "D5",
		  "ticks": 112416,
		  "time": 109.78125,
		  "velocity": 0.3937007874015748
		},
		{
		  "duration": 0.09375,
		  "durationTicks": 96,
		  "midi": 40,
		  "name": "E2",
		  "ticks": 112512,
		  "time": 109.875,
		  "velocity": 0.3937007874015748
		},
		{
		  "duration": 0.09375,
		  "durationTicks": 96,
		  "midi": 68,
		  "name": "G#4",
		  "ticks": 112512,
		  "time": 109.875,
		  "velocity": 0.3937007874015748
		},
		{
		  "duration": 0.09375,
		  "durationTicks": 96,
		  "midi": 64,
		  "name": "E4",
		  "ticks": 112512,
		  "time": 109.875,
		  "velocity": 0.3937007874015748
		},
		{
		  "duration": 0.09375,
		  "durationTicks": 96,
		  "midi": 74,
		  "name": "D5",
		  "ticks": 112608,
		  "time": 109.96875,
		  "velocity": 0.3937007874015748
		},
		{
		  "duration": 0.09375,
		  "durationTicks": 96,
		  "midi": 50,
		  "name": "D3",
		  "ticks": 112704,
		  "time": 110.0625,
		  "velocity": 0.3937007874015748
		},
		{
		  "duration": 0.09375,
		  "durationTicks": 96,
		  "midi": 52,
		  "name": "E3",
		  "ticks": 112704,
		  "time": 110.0625,
		  "velocity": 0.3937007874015748
		},
		{
		  "duration": 0.09375,
		  "durationTicks": 96,
		  "midi": 68,
		  "name": "G#4",
		  "ticks": 112704,
		  "time": 110.0625,
		  "velocity": 0.3937007874015748
		},
		{
		  "duration": 0.09375,
		  "durationTicks": 96,
		  "midi": 64,
		  "name": "E4",
		  "ticks": 112704,
		  "time": 110.0625,
		  "velocity": 0.3937007874015748
		},
		{
		  "duration": 0.09375,
		  "durationTicks": 96,
		  "midi": 74,
		  "name": "D5",
		  "ticks": 112800,
		  "time": 110.15625,
		  "velocity": 0.3937007874015748
		},
		{
		  "duration": 0.09375,
		  "durationTicks": 96,
		  "midi": 45,
		  "name": "A2",
		  "ticks": 112896,
		  "time": 110.25,
		  "velocity": 0.3937007874015748
		},
		{
		  "duration": 0.09375,
		  "durationTicks": 96,
		  "midi": 64,
		  "name": "E4",
		  "ticks": 112896,
		  "time": 110.25,
		  "velocity": 0.3937007874015748
		},
		{
		  "duration": 0.09375,
		  "durationTicks": 96,
		  "midi": 69,
		  "name": "A4",
		  "ticks": 112896,
		  "time": 110.25,
		  "velocity": 0.3937007874015748
		},
		{
		  "duration": 0.09375,
		  "durationTicks": 96,
		  "midi": 72,
		  "name": "C5",
		  "ticks": 112992,
		  "time": 110.34375,
		  "velocity": 0.3937007874015748
		},
		{
		  "duration": 0.09375,
		  "durationTicks": 96,
		  "midi": 48,
		  "name": "C3",
		  "ticks": 113088,
		  "time": 110.4375,
		  "velocity": 0.3937007874015748
		},
		{
		  "duration": 0.09375,
		  "durationTicks": 96,
		  "midi": 52,
		  "name": "E3",
		  "ticks": 113088,
		  "time": 110.4375,
		  "velocity": 0.3937007874015748
		},
		{
		  "duration": 0.09375,
		  "durationTicks": 96,
		  "midi": 64,
		  "name": "E4",
		  "ticks": 113088,
		  "time": 110.4375,
		  "velocity": 0.3937007874015748
		},
		{
		  "duration": 0.09375,
		  "durationTicks": 96,
		  "midi": 69,
		  "name": "A4",
		  "ticks": 113088,
		  "time": 110.4375,
		  "velocity": 0.3937007874015748
		},
		{
		  "duration": 0.09375,
		  "durationTicks": 96,
		  "midi": 72,
		  "name": "C5",
		  "ticks": 113184,
		  "time": 110.53125,
		  "velocity": 0.3937007874015748
		},
		{
		  "duration": 0.09375,
		  "durationTicks": 96,
		  "midi": 40,
		  "name": "E2",
		  "ticks": 113280,
		  "time": 110.625,
		  "velocity": 0.3937007874015748
		},
		{
		  "duration": 0.09375,
		  "durationTicks": 96,
		  "midi": 64,
		  "name": "E4",
		  "ticks": 113280,
		  "time": 110.625,
		  "velocity": 0.3937007874015748
		},
		{
		  "duration": 0.09375,
		  "durationTicks": 96,
		  "midi": 69,
		  "name": "A4",
		  "ticks": 113280,
		  "time": 110.625,
		  "velocity": 0.3937007874015748
		},
		{
		  "duration": 0.09375,
		  "durationTicks": 96,
		  "midi": 72,
		  "name": "C5",
		  "ticks": 113376,
		  "time": 110.71875,
		  "velocity": 0.3937007874015748
		},
		{
		  "duration": 0.09375,
		  "durationTicks": 96,
		  "midi": 48,
		  "name": "C3",
		  "ticks": 113472,
		  "time": 110.8125,
		  "velocity": 0.3937007874015748
		},
		{
		  "duration": 0.09375,
		  "durationTicks": 96,
		  "midi": 52,
		  "name": "E3",
		  "ticks": 113472,
		  "time": 110.8125,
		  "velocity": 0.3937007874015748
		},
		{
		  "duration": 0.09375,
		  "durationTicks": 96,
		  "midi": 64,
		  "name": "E4",
		  "ticks": 113472,
		  "time": 110.8125,
		  "velocity": 0.3937007874015748
		},
		{
		  "duration": 0.09375,
		  "durationTicks": 96,
		  "midi": 69,
		  "name": "A4",
		  "ticks": 113472,
		  "time": 110.8125,
		  "velocity": 0.3937007874015748
		},
		{
		  "duration": 0.09375,
		  "durationTicks": 96,
		  "midi": 72,
		  "name": "C5",
		  "ticks": 113568,
		  "time": 110.90625,
		  "velocity": 0.3937007874015748
		},
		{
		  "duration": 0.09375,
		  "durationTicks": 96,
		  "midi": 47,
		  "name": "B2",
		  "ticks": 113664,
		  "time": 111,
		  "velocity": 0.3937007874015748
		},
		{
		  "duration": 0.09375,
		  "durationTicks": 96,
		  "midi": 63,
		  "name": "D#4",
		  "ticks": 113664,
		  "time": 111,
		  "velocity": 0.3937007874015748
		},
		{
		  "duration": 0.09375,
		  "durationTicks": 96,
		  "midi": 66,
		  "name": "F#4",
		  "ticks": 113664,
		  "time": 111,
		  "velocity": 0.3937007874015748
		},
		{
		  "duration": 0.09375,
		  "durationTicks": 96,
		  "midi": 71,
		  "name": "B4",
		  "ticks": 113760,
		  "time": 111.09375,
		  "velocity": 0.3937007874015748
		},
		{
		  "duration": 0.09375,
		  "durationTicks": 96,
		  "midi": 51,
		  "name": "D#3",
		  "ticks": 113856,
		  "time": 111.1875,
		  "velocity": 0.3937007874015748
		},
		{
		  "duration": 0.09375,
		  "durationTicks": 96,
		  "midi": 54,
		  "name": "F#3",
		  "ticks": 113856,
		  "time": 111.1875,
		  "velocity": 0.3937007874015748
		},
		{
		  "duration": 0.09375,
		  "durationTicks": 96,
		  "midi": 63,
		  "name": "D#4",
		  "ticks": 113856,
		  "time": 111.1875,
		  "velocity": 0.3937007874015748
		},
		{
		  "duration": 0.09375,
		  "durationTicks": 96,
		  "midi": 66,
		  "name": "F#4",
		  "ticks": 113856,
		  "time": 111.1875,
		  "velocity": 0.3937007874015748
		},
		{
		  "duration": 0.09375,
		  "durationTicks": 96,
		  "midi": 71,
		  "name": "B4",
		  "ticks": 113952,
		  "time": 111.28125,
		  "velocity": 0.3937007874015748
		},
		{
		  "duration": 0.09375,
		  "durationTicks": 96,
		  "midi": 42,
		  "name": "F#2",
		  "ticks": 114048,
		  "time": 111.375,
		  "velocity": 0.3937007874015748
		},
		{
		  "duration": 0.09375,
		  "durationTicks": 96,
		  "midi": 66,
		  "name": "F#4",
		  "ticks": 114048,
		  "time": 111.375,
		  "velocity": 0.3937007874015748
		},
		{
		  "duration": 0.09375,
		  "durationTicks": 96,
		  "midi": 51,
		  "name": "D#3",
		  "ticks": 114240,
		  "time": 111.5625,
		  "velocity": 0.3937007874015748
		},
		{
		  "duration": 0.09375,
		  "durationTicks": 96,
		  "midi": 54,
		  "name": "F#3",
		  "ticks": 114240,
		  "time": 111.5625,
		  "velocity": 0.3937007874015748
		},
		{
		  "duration": 0.09375,
		  "durationTicks": 96,
		  "midi": 71,
		  "name": "B4",
		  "ticks": 114240,
		  "time": 111.5625,
		  "velocity": 0.3937007874015748
		},
		{
		  "duration": 0.09375,
		  "durationTicks": 96,
		  "midi": 52,
		  "name": "E3",
		  "ticks": 114432,
		  "time": 111.75,
		  "velocity": 0.3937007874015748
		},
		{
		  "duration": 0.09375,
		  "durationTicks": 96,
		  "midi": 40,
		  "name": "E2",
		  "ticks": 114432,
		  "time": 111.75,
		  "velocity": 0.3937007874015748
		},
		{
		  "duration": 0.09375,
		  "durationTicks": 96,
		  "midi": 68,
		  "name": "G#4",
		  "ticks": 114432,
		  "time": 111.75,
		  "velocity": 0.3937007874015748
		},
		{
		  "duration": 0.09375,
		  "durationTicks": 96,
		  "midi": 64,
		  "name": "E4",
		  "ticks": 114432,
		  "time": 111.75,
		  "velocity": 0.3937007874015748
		},
		{
		  "duration": 0.09375,
		  "durationTicks": 96,
		  "midi": 40,
		  "name": "E2",
		  "ticks": 114816,
		  "time": 112.125,
		  "velocity": 0.3937007874015748
		},
		{
		  "duration": 0.09375,
		  "durationTicks": 96,
		  "midi": 28,
		  "name": "E1",
		  "ticks": 114816,
		  "time": 112.125,
		  "velocity": 0.3937007874015748
		},
		{
		  "duration": 0.09375,
		  "durationTicks": 96,
		  "midi": 45,
		  "name": "A2",
		  "ticks": 115200,
		  "time": 112.5,
		  "velocity": 0.3937007874015748
		},
		{
		  "duration": 0.09375,
		  "durationTicks": 96,
		  "midi": 64,
		  "name": "E4",
		  "ticks": 115200,
		  "time": 112.5,
		  "velocity": 0.3937007874015748
		},
		{
		  "duration": 0.09375,
		  "durationTicks": 96,
		  "midi": 60,
		  "name": "C4",
		  "ticks": 115296,
		  "time": 112.59375,
		  "velocity": 0.3937007874015748
		},
		{
		  "duration": 0.09375,
		  "durationTicks": 96,
		  "midi": 57,
		  "name": "A3",
		  "ticks": 115296,
		  "time": 112.59375,
		  "velocity": 0.3937007874015748
		},
		{
		  "duration": 0.09375,
		  "durationTicks": 96,
		  "midi": 48,
		  "name": "C3",
		  "ticks": 115392,
		  "time": 112.6875,
		  "velocity": 0.3937007874015748
		},
		{
		  "duration": 0.09375,
		  "durationTicks": 96,
		  "midi": 52,
		  "name": "E3",
		  "ticks": 115392,
		  "time": 112.6875,
		  "velocity": 0.3937007874015748
		},
		{
		  "duration": 0.09375,
		  "durationTicks": 96,
		  "midi": 64,
		  "name": "E4",
		  "ticks": 115392,
		  "time": 112.6875,
		  "velocity": 0.3937007874015748
		},
		{
		  "duration": 0.09375,
		  "durationTicks": 96,
		  "midi": 60,
		  "name": "C4",
		  "ticks": 115488,
		  "time": 112.78125,
		  "velocity": 0.3937007874015748
		},
		{
		  "duration": 0.09375,
		  "durationTicks": 96,
		  "midi": 57,
		  "name": "A3",
		  "ticks": 115488,
		  "time": 112.78125,
		  "velocity": 0.3937007874015748
		},
		{
		  "duration": 0.09375,
		  "durationTicks": 96,
		  "midi": 40,
		  "name": "E2",
		  "ticks": 115584,
		  "time": 112.875,
		  "velocity": 0.3937007874015748
		},
		{
		  "duration": 0.09375,
		  "durationTicks": 96,
		  "midi": 64,
		  "name": "E4",
		  "ticks": 115584,
		  "time": 112.875,
		  "velocity": 0.3937007874015748
		},
		{
		  "duration": 0.09375,
		  "durationTicks": 96,
		  "midi": 60,
		  "name": "C4",
		  "ticks": 115680,
		  "time": 112.96875,
		  "velocity": 0.3937007874015748
		},
		{
		  "duration": 0.09375,
		  "durationTicks": 96,
		  "midi": 57,
		  "name": "A3",
		  "ticks": 115680,
		  "time": 112.96875,
		  "velocity": 0.3937007874015748
		},
		{
		  "duration": 0.09375,
		  "durationTicks": 96,
		  "midi": 48,
		  "name": "C3",
		  "ticks": 115776,
		  "time": 113.0625,
		  "velocity": 0.3937007874015748
		},
		{
		  "duration": 0.09375,
		  "durationTicks": 96,
		  "midi": 52,
		  "name": "E3",
		  "ticks": 115776,
		  "time": 113.0625,
		  "velocity": 0.3937007874015748
		},
		{
		  "duration": 0.09375,
		  "durationTicks": 96,
		  "midi": 64,
		  "name": "E4",
		  "ticks": 115776,
		  "time": 113.0625,
		  "velocity": 0.3937007874015748
		},
		{
		  "duration": 0.09375,
		  "durationTicks": 96,
		  "midi": 60,
		  "name": "C4",
		  "ticks": 115872,
		  "time": 113.15625,
		  "velocity": 0.3937007874015748
		},
		{
		  "duration": 0.09375,
		  "durationTicks": 96,
		  "midi": 57,
		  "name": "A3",
		  "ticks": 115872,
		  "time": 113.15625,
		  "velocity": 0.3937007874015748
		},
		{
		  "duration": 0.09375,
		  "durationTicks": 96,
		  "midi": 45,
		  "name": "A2",
		  "ticks": 115968,
		  "time": 113.25,
		  "velocity": 0.3937007874015748
		},
		{
		  "duration": 0.09375,
		  "durationTicks": 96,
		  "midi": 64,
		  "name": "E4",
		  "ticks": 115968,
		  "time": 113.25,
		  "velocity": 0.3937007874015748
		},
		{
		  "duration": 0.09375,
		  "durationTicks": 96,
		  "midi": 60,
		  "name": "C4",
		  "ticks": 116064,
		  "time": 113.34375,
		  "velocity": 0.3937007874015748
		},
		{
		  "duration": 0.09375,
		  "durationTicks": 96,
		  "midi": 57,
		  "name": "A3",
		  "ticks": 116064,
		  "time": 113.34375,
		  "velocity": 0.3937007874015748
		},
		{
		  "duration": 0.09375,
		  "durationTicks": 96,
		  "midi": 48,
		  "name": "C3",
		  "ticks": 116160,
		  "time": 113.4375,
		  "velocity": 0.3937007874015748
		},
		{
		  "duration": 0.09375,
		  "durationTicks": 96,
		  "midi": 52,
		  "name": "E3",
		  "ticks": 116160,
		  "time": 113.4375,
		  "velocity": 0.3937007874015748
		},
		{
		  "duration": 0.09375,
		  "durationTicks": 96,
		  "midi": 64,
		  "name": "E4",
		  "ticks": 116160,
		  "time": 113.4375,
		  "velocity": 0.3937007874015748
		},
		{
		  "duration": 0.09375,
		  "durationTicks": 96,
		  "midi": 60,
		  "name": "C4",
		  "ticks": 116256,
		  "time": 113.53125,
		  "velocity": 0.3937007874015748
		},
		{
		  "duration": 0.09375,
		  "durationTicks": 96,
		  "midi": 57,
		  "name": "A3",
		  "ticks": 116256,
		  "time": 113.53125,
		  "velocity": 0.3937007874015748
		},
		{
		  "duration": 0.09375,
		  "durationTicks": 96,
		  "midi": 40,
		  "name": "E2",
		  "ticks": 116352,
		  "time": 113.625,
		  "velocity": 0.3937007874015748
		},
		{
		  "duration": 0.09375,
		  "durationTicks": 96,
		  "midi": 64,
		  "name": "E4",
		  "ticks": 116352,
		  "time": 113.625,
		  "velocity": 0.3937007874015748
		},
		{
		  "duration": 0.09375,
		  "durationTicks": 96,
		  "midi": 60,
		  "name": "C4",
		  "ticks": 116448,
		  "time": 113.71875,
		  "velocity": 0.3937007874015748
		},
		{
		  "duration": 0.09375,
		  "durationTicks": 96,
		  "midi": 57,
		  "name": "A3",
		  "ticks": 116448,
		  "time": 113.71875,
		  "velocity": 0.3937007874015748
		},
		{
		  "duration": 0.09375,
		  "durationTicks": 96,
		  "midi": 48,
		  "name": "C3",
		  "ticks": 116544,
		  "time": 113.8125,
		  "velocity": 0.3937007874015748
		},
		{
		  "duration": 0.09375,
		  "durationTicks": 96,
		  "midi": 52,
		  "name": "E3",
		  "ticks": 116544,
		  "time": 113.8125,
		  "velocity": 0.3937007874015748
		},
		{
		  "duration": 0.09375,
		  "durationTicks": 96,
		  "midi": 64,
		  "name": "E4",
		  "ticks": 116544,
		  "time": 113.8125,
		  "velocity": 0.3937007874015748
		},
		{
		  "duration": 0.09375,
		  "durationTicks": 96,
		  "midi": 60,
		  "name": "C4",
		  "ticks": 116640,
		  "time": 113.90625,
		  "velocity": 0.3937007874015748
		},
		{
		  "duration": 0.09375,
		  "durationTicks": 96,
		  "midi": 57,
		  "name": "A3",
		  "ticks": 116640,
		  "time": 113.90625,
		  "velocity": 0.3937007874015748
		},
		{
		  "duration": 0.09375,
		  "durationTicks": 96,
		  "midi": 45,
		  "name": "A2",
		  "ticks": 116736,
		  "time": 114,
		  "velocity": 0.3937007874015748
		},
		{
		  "duration": 0.09375,
		  "durationTicks": 96,
		  "midi": 64,
		  "name": "E4",
		  "ticks": 116736,
		  "time": 114,
		  "velocity": 0.3937007874015748
		},
		{
		  "duration": 0.09375,
		  "durationTicks": 96,
		  "midi": 65,
		  "name": "F4",
		  "ticks": 116832,
		  "time": 114.09375,
		  "velocity": 0.3937007874015748
		},
		{
		  "duration": 0.09375,
		  "durationTicks": 96,
		  "midi": 48,
		  "name": "C3",
		  "ticks": 116928,
		  "time": 114.1875,
		  "velocity": 0.3937007874015748
		},
		{
		  "duration": 0.09375,
		  "durationTicks": 96,
		  "midi": 52,
		  "name": "E3",
		  "ticks": 116928,
		  "time": 114.1875,
		  "velocity": 0.3937007874015748
		},
		{
		  "duration": 0.09375,
		  "durationTicks": 96,
		  "midi": 64,
		  "name": "E4",
		  "ticks": 116928,
		  "time": 114.1875,
		  "velocity": 0.3937007874015748
		},
		{
		  "duration": 0.09375,
		  "durationTicks": 96,
		  "midi": 63,
		  "name": "D#4",
		  "ticks": 117024,
		  "time": 114.28125,
		  "velocity": 0.3937007874015748
		},
		{
		  "duration": 0.09375,
		  "durationTicks": 96,
		  "midi": 40,
		  "name": "E2",
		  "ticks": 117120,
		  "time": 114.375,
		  "velocity": 0.3937007874015748
		},
		{
		  "duration": 0.09375,
		  "durationTicks": 96,
		  "midi": 64,
		  "name": "E4",
		  "ticks": 117120,
		  "time": 114.375,
		  "velocity": 0.3937007874015748
		},
		{
		  "duration": 0.09375,
		  "durationTicks": 96,
		  "midi": 48,
		  "name": "C3",
		  "ticks": 117312,
		  "time": 114.5625,
		  "velocity": 0.3937007874015748
		},
		{
		  "duration": 0.09375,
		  "durationTicks": 96,
		  "midi": 52,
		  "name": "E3",
		  "ticks": 117312,
		  "time": 114.5625,
		  "velocity": 0.3937007874015748
		},
		{
		  "duration": 0.09375,
		  "durationTicks": 96,
		  "midi": 69,
		  "name": "A4",
		  "ticks": 117312,
		  "time": 114.5625,
		  "velocity": 0.3937007874015748
		},
		{
		  "duration": 0.09375,
		  "durationTicks": 96,
		  "midi": 72,
		  "name": "C5",
		  "ticks": 117408,
		  "time": 114.65625,
		  "velocity": 0.3937007874015748
		},
		{
		  "duration": 0.09375,
		  "durationTicks": 96,
		  "midi": 45,
		  "name": "A2",
		  "ticks": 117504,
		  "time": 114.75,
		  "velocity": 0.3937007874015748
		},
		{
		  "duration": 0.09375,
		  "durationTicks": 96,
		  "midi": 76,
		  "name": "E5",
		  "ticks": 117504,
		  "time": 114.75,
		  "velocity": 0.3937007874015748
		},
		{
		  "duration": 0.09375,
		  "durationTicks": 96,
		  "midi": 48,
		  "name": "C3",
		  "ticks": 117696,
		  "time": 114.9375,
		  "velocity": 0.3937007874015748
		},
		{
		  "duration": 0.09375,
		  "durationTicks": 96,
		  "midi": 52,
		  "name": "E3",
		  "ticks": 117696,
		  "time": 114.9375,
		  "velocity": 0.3937007874015748
		},
		{
		  "duration": 0.09375,
		  "durationTicks": 96,
		  "midi": 81,
		  "name": "A5",
		  "ticks": 117696,
		  "time": 114.9375,
		  "velocity": 0.3937007874015748
		},
		{
		  "duration": 0.09375,
		  "durationTicks": 96,
		  "midi": 40,
		  "name": "E2",
		  "ticks": 117888,
		  "time": 115.125,
		  "velocity": 0.3937007874015748
		},
		{
		  "duration": 0.09375,
		  "durationTicks": 96,
		  "midi": 84,
		  "name": "C6",
		  "ticks": 117888,
		  "time": 115.125,
		  "velocity": 0.3937007874015748
		},
		{
		  "duration": 0.09375,
		  "durationTicks": 96,
		  "midi": 48,
		  "name": "C3",
		  "ticks": 118080,
		  "time": 115.3125,
		  "velocity": 0.3937007874015748
		},
		{
		  "duration": 0.09375,
		  "durationTicks": 96,
		  "midi": 52,
		  "name": "E3",
		  "ticks": 118080,
		  "time": 115.3125,
		  "velocity": 0.3937007874015748
		},
		{
		  "duration": 0.09375,
		  "durationTicks": 96,
		  "midi": 50,
		  "name": "D3",
		  "ticks": 118272,
		  "time": 115.5,
		  "velocity": 0.3937007874015748
		},
		{
		  "duration": 0.09375,
		  "durationTicks": 96,
		  "midi": 53,
		  "name": "F3",
		  "ticks": 118272,
		  "time": 115.5,
		  "velocity": 0.3937007874015748
		},
		{
		  "duration": 0.09375,
		  "durationTicks": 96,
		  "midi": 57,
		  "name": "A3",
		  "ticks": 118464,
		  "time": 115.6875,
		  "velocity": 0.3937007874015748
		},
		{
		  "duration": 0.09375,
		  "durationTicks": 96,
		  "midi": 48,
		  "name": "C3",
		  "ticks": 118656,
		  "time": 115.875,
		  "velocity": 0.3937007874015748
		},
		{
		  "duration": 0.09375,
		  "durationTicks": 96,
		  "midi": 52,
		  "name": "E3",
		  "ticks": 118656,
		  "time": 115.875,
		  "velocity": 0.3937007874015748
		},
		{
		  "duration": 0.09375,
		  "durationTicks": 96,
		  "midi": 57,
		  "name": "A3",
		  "ticks": 118848,
		  "time": 116.0625,
		  "velocity": 0.3937007874015748
		},
		{
		  "duration": 0.09375,
		  "durationTicks": 96,
		  "midi": 47,
		  "name": "B2",
		  "ticks": 119040,
		  "time": 116.25,
		  "velocity": 0.3937007874015748
		},
		{
		  "duration": 0.09375,
		  "durationTicks": 96,
		  "midi": 50,
		  "name": "D3",
		  "ticks": 119040,
		  "time": 116.25,
		  "velocity": 0.3937007874015748
		},
		{
		  "duration": 0.09375,
		  "durationTicks": 96,
		  "midi": 52,
		  "name": "E3",
		  "ticks": 119232,
		  "time": 116.4375,
		  "velocity": 0.3937007874015748
		},
		{
		  "duration": 0.09375,
		  "durationTicks": 96,
		  "midi": 45,
		  "name": "A2",
		  "ticks": 119424,
		  "time": 116.625,
		  "velocity": 0.3937007874015748
		},
		{
		  "duration": 0.09375,
		  "durationTicks": 96,
		  "midi": 48,
		  "name": "C3",
		  "ticks": 119424,
		  "time": 116.625,
		  "velocity": 0.3937007874015748
		},
		{
		  "duration": 0.09375,
		  "durationTicks": 96,
		  "midi": 52,
		  "name": "E3",
		  "ticks": 119616,
		  "time": 116.8125,
		  "velocity": 0.3937007874015748
		},
		{
		  "duration": 0.09375,
		  "durationTicks": 96,
		  "midi": 44,
		  "name": "G#2",
		  "ticks": 119808,
		  "time": 117,
		  "velocity": 0.3937007874015748
		},
		{
		  "duration": 0.09375,
		  "durationTicks": 96,
		  "midi": 52,
		  "name": "E3",
		  "ticks": 119808,
		  "time": 117,
		  "velocity": 0.3937007874015748
		},
		{
		  "duration": 0.09375,
		  "durationTicks": 96,
		  "midi": 40,
		  "name": "E2",
		  "ticks": 120192,
		  "time": 117.375,
		  "velocity": 0.3937007874015748
		},
		{
		  "duration": 0.09375,
		  "durationTicks": 96,
		  "midi": 28,
		  "name": "E1",
		  "ticks": 120192,
		  "time": 117.375,
		  "velocity": 0.3937007874015748
		},
		{
		  "duration": 0.09375,
		  "durationTicks": 96,
		  "midi": 45,
		  "name": "A2",
		  "ticks": 120576,
		  "time": 117.75,
		  "velocity": 0.3937007874015748
		},
		{
		  "duration": 0.09375,
		  "durationTicks": 96,
		  "midi": 33,
		  "name": "A1",
		  "ticks": 120576,
		  "time": 117.75,
		  "velocity": 0.3937007874015748
		},
		{
		  "duration": 0.09375,
		  "durationTicks": 96,
		  "midi": 40,
		  "name": "E2",
		  "ticks": 120960,
		  "time": 118.125,
		  "velocity": 0.3937007874015748
		},
		{
		  "duration": 0.09375,
		  "durationTicks": 96,
		  "midi": 28,
		  "name": "E1",
		  "ticks": 120960,
		  "time": 118.125,
		  "velocity": 0.3937007874015748
		}
	  ],
	  "endOfTrackTicks": 121056
	}
  ]
}
