{
  "header": {
	"keySignatures": [],
	"meta": [],
	"name": "Grand Piano (Classic)",
	"ppq": 384,
	"tempos": [
	  {
		"bpm": 140.00014000014,
		"ticks": 0
	  }
	],
	"timeSignatures": [
	  {
		"ticks": 0,
		"timeSignature": [
		  4,
		  4
		],
		"measures": 0
	  }
	]
  },
  "tracks": [
	{
	  "channel": 0,
	  "controlChanges": {},
	  "pitchBends": [],
	  "instrument": {
		"family": "piano",
		"number": 0,
		"name": "acoustic grand piano"
	  },
	  "name": "Grand Piano (Classic)",
	  "notes": [
		{
		  "duration": 0.10714275000000001,
		  "durationTicks": 96,
		  "midi": 71,
		  "name": "B4",
		  "ticks": 0,
		  "time": 0,
		  "velocity": 0.3937007874015748
		},
		{
		  "duration": 0.10714275000000001,
		  "durationTicks": 96,
		  "midi": 69,
		  "name": "A4",
		  "ticks": 96,
		  "time": 0.10714275000000001,
		  "velocity": 0.3937007874015748
		},
		{
		  "duration": 0.10714275000000001,
		  "durationTicks": 96,
		  "midi": 68,
		  "name": "G#4",
		  "ticks": 192,
		  "time": 0.21428550000000002,
		  "velocity": 0.3937007874015748
		},
		{
		  "duration": 0.10714275000000001,
		  "durationTicks": 96,
		  "midi": 69,
		  "name": "A4",
		  "ticks": 288,
		  "time": 0.32142825,
		  "velocity": 0.3937007874015748
		},
		{
		  "duration": 0.10714274999999995,
		  "durationTicks": 96,
		  "midi": 72,
		  "name": "C5",
		  "ticks": 384,
		  "time": 0.42857100000000004,
		  "velocity": 0.3937007874015748
		},
		{
		  "duration": 0.10714274999999995,
		  "durationTicks": 96,
		  "midi": 57,
		  "name": "A3",
		  "ticks": 384,
		  "time": 0.42857100000000004,
		  "velocity": 0.3937007874015748
		},
		{
		  "duration": 0.10714275000000006,
		  "durationTicks": 96,
		  "midi": 60,
		  "name": "C4",
		  "ticks": 576,
		  "time": 0.6428565,
		  "velocity": 0.3937007874015748
		},
		{
		  "duration": 0.10714275000000006,
		  "durationTicks": 96,
		  "midi": 64,
		  "name": "E4",
		  "ticks": 576,
		  "time": 0.6428565,
		  "velocity": 0.3937007874015748
		},
		{
		  "duration": 0.10714274999999995,
		  "durationTicks": 96,
		  "midi": 60,
		  "name": "C4",
		  "ticks": 768,
		  "time": 0.8571420000000001,
		  "velocity": 0.3937007874015748
		},
		{
		  "duration": 0.10714274999999995,
		  "durationTicks": 96,
		  "midi": 64,
		  "name": "E4",
		  "ticks": 768,
		  "time": 0.8571420000000001,
		  "velocity": 0.3937007874015748
		},
		{
		  "duration": 0.10714274999999995,
		  "durationTicks": 96,
		  "midi": 74,
		  "name": "D5",
		  "ticks": 768,
		  "time": 0.8571420000000001,
		  "velocity": 0.3937007874015748
		},
		{
		  "duration": 0.10714274999999995,
		  "durationTicks": 96,
		  "midi": 72,
		  "name": "C5",
		  "ticks": 864,
		  "time": 0.96428475,
		  "velocity": 0.3937007874015748
		},
		{
		  "duration": 0.10714275000000018,
		  "durationTicks": 96,
		  "midi": 60,
		  "name": "C4",
		  "ticks": 960,
		  "time": 1.0714275,
		  "velocity": 0.3937007874015748
		},
		{
		  "duration": 0.10714275000000018,
		  "durationTicks": 96,
		  "midi": 64,
		  "name": "E4",
		  "ticks": 960,
		  "time": 1.0714275,
		  "velocity": 0.3937007874015748
		},
		{
		  "duration": 0.10714275000000018,
		  "durationTicks": 96,
		  "midi": 71,
		  "name": "B4",
		  "ticks": 960,
		  "time": 1.0714275,
		  "velocity": 0.3937007874015748
		},
		{
		  "duration": 0.10714274999999995,
		  "durationTicks": 96,
		  "midi": 72,
		  "name": "C5",
		  "ticks": 1056,
		  "time": 1.1785702500000002,
		  "velocity": 0.3937007874015748
		},
		{
		  "duration": 0.10714274999999995,
		  "durationTicks": 96,
		  "midi": 57,
		  "name": "A3",
		  "ticks": 1152,
		  "time": 1.285713,
		  "velocity": 0.3937007874015748
		},
		{
		  "duration": 0.10714274999999995,
		  "durationTicks": 96,
		  "midi": 76,
		  "name": "E5",
		  "ticks": 1152,
		  "time": 1.285713,
		  "velocity": 0.3937007874015748
		},
		{
		  "duration": 0.10714274999999995,
		  "durationTicks": 96,
		  "midi": 60,
		  "name": "C4",
		  "ticks": 1344,
		  "time": 1.4999985000000002,
		  "velocity": 0.3937007874015748
		},
		{
		  "duration": 0.10714274999999995,
		  "durationTicks": 96,
		  "midi": 64,
		  "name": "E4",
		  "ticks": 1344,
		  "time": 1.4999985000000002,
		  "velocity": 0.3937007874015748
		},
		{
		  "duration": 0.10714274999999995,
		  "durationTicks": 96,
		  "midi": 60,
		  "name": "C4",
		  "ticks": 1536,
		  "time": 1.7142840000000001,
		  "velocity": 0.3937007874015748
		},
		{
		  "duration": 0.10714274999999995,
		  "durationTicks": 96,
		  "midi": 64,
		  "name": "E4",
		  "ticks": 1536,
		  "time": 1.7142840000000001,
		  "velocity": 0.3937007874015748
		},
		{
		  "duration": 0.10714274999999995,
		  "durationTicks": 96,
		  "midi": 77,
		  "name": "F5",
		  "ticks": 1536,
		  "time": 1.7142840000000001,
		  "velocity": 0.3937007874015748
		},
		{
		  "duration": 0.10714274999999995,
		  "durationTicks": 96,
		  "midi": 76,
		  "name": "E5",
		  "ticks": 1632,
		  "time": 1.82142675,
		  "velocity": 0.3937007874015748
		},
		{
		  "duration": 0.10714274999999995,
		  "durationTicks": 96,
		  "midi": 60,
		  "name": "C4",
		  "ticks": 1728,
		  "time": 1.9285695,
		  "velocity": 0.3937007874015748
		},
		{
		  "duration": 0.10714274999999995,
		  "durationTicks": 96,
		  "midi": 64,
		  "name": "E4",
		  "ticks": 1728,
		  "time": 1.9285695,
		  "velocity": 0.3937007874015748
		},
		{
		  "duration": 0.10714274999999995,
		  "durationTicks": 96,
		  "midi": 75,
		  "name": "D#5",
		  "ticks": 1728,
		  "time": 1.9285695,
		  "velocity": 0.3937007874015748
		},
		{
		  "duration": 0.10714274999999995,
		  "durationTicks": 96,
		  "midi": 76,
		  "name": "E5",
		  "ticks": 1824,
		  "time": 2.03571225,
		  "velocity": 0.3937007874015748
		},
		{
		  "duration": 0.1071427500000004,
		  "durationTicks": 96,
		  "midi": 57,
		  "name": "A3",
		  "ticks": 1920,
		  "time": 2.142855,
		  "velocity": 0.3937007874015748
		},
		{
		  "duration": 0.1071427500000004,
		  "durationTicks": 96,
		  "midi": 83,
		  "name": "B5",
		  "ticks": 1920,
		  "time": 2.142855,
		  "velocity": 0.3937007874015748
		},
		{
		  "duration": 0.10714274999999995,
		  "durationTicks": 96,
		  "midi": 81,
		  "name": "A5",
		  "ticks": 2016,
		  "time": 2.2499977500000004,
		  "velocity": 0.3937007874015748
		},
		{
		  "duration": 0.10714274999999995,
		  "durationTicks": 96,
		  "midi": 60,
		  "name": "C4",
		  "ticks": 2112,
		  "time": 2.3571405000000003,
		  "velocity": 0.3937007874015748
		},
		{
		  "duration": 0.10714274999999995,
		  "durationTicks": 96,
		  "midi": 64,
		  "name": "E4",
		  "ticks": 2112,
		  "time": 2.3571405000000003,
		  "velocity": 0.3937007874015748
		},
		{
		  "duration": 0.10714274999999995,
		  "durationTicks": 96,
		  "midi": 80,
		  "name": "G#5",
		  "ticks": 2112,
		  "time": 2.3571405000000003,
		  "velocity": 0.3937007874015748
		},
		{
		  "duration": 0.10714274999999995,
		  "durationTicks": 96,
		  "midi": 81,
		  "name": "A5",
		  "ticks": 2208,
		  "time": 2.4642832500000003,
		  "velocity": 0.3937007874015748
		},
		{
		  "duration": 0.10714274999999995,
		  "durationTicks": 96,
		  "midi": 57,
		  "name": "A3",
		  "ticks": 2304,
		  "time": 2.571426,
		  "velocity": 0.3937007874015748
		},
		{
		  "duration": 0.10714274999999995,
		  "durationTicks": 96,
		  "midi": 83,
		  "name": "B5",
		  "ticks": 2304,
		  "time": 2.571426,
		  "velocity": 0.3937007874015748
		},
		{
		  "duration": 0.10714274999999995,
		  "durationTicks": 96,
		  "midi": 81,
		  "name": "A5",
		  "ticks": 2400,
		  "time": 2.67856875,
		  "velocity": 0.3937007874015748
		},
		{
		  "duration": 0.10714274999999995,
		  "durationTicks": 96,
		  "midi": 60,
		  "name": "C4",
		  "ticks": 2496,
		  "time": 2.7857115,
		  "velocity": 0.3937007874015748
		},
		{
		  "duration": 0.10714274999999995,
		  "durationTicks": 96,
		  "midi": 64,
		  "name": "E4",
		  "ticks": 2496,
		  "time": 2.7857115,
		  "velocity": 0.3937007874015748
		},
		{
		  "duration": 0.10714274999999995,
		  "durationTicks": 96,
		  "midi": 80,
		  "name": "G#5",
		  "ticks": 2496,
		  "time": 2.7857115,
		  "velocity": 0.3937007874015748
		},
		{
		  "duration": 0.1071427500000004,
		  "durationTicks": 96,
		  "midi": 81,
		  "name": "A5",
		  "ticks": 2592,
		  "time": 2.89285425,
		  "velocity": 0.3937007874015748
		},
		{
		  "duration": 0.10714274999999995,
		  "durationTicks": 96,
		  "midi": 57,
		  "name": "A3",
		  "ticks": 2688,
		  "time": 2.9999970000000005,
		  "velocity": 0.3937007874015748
		},
		{
		  "duration": 0.10714274999999995,
		  "durationTicks": 96,
		  "midi": 84,
		  "name": "C6",
		  "ticks": 2688,
		  "time": 2.9999970000000005,
		  "velocity": 0.3937007874015748
		},
		{
		  "duration": 0.10714274999999995,
		  "durationTicks": 96,
		  "midi": 60,
		  "name": "C4",
		  "ticks": 2880,
		  "time": 3.2142825000000004,
		  "velocity": 0.3937007874015748
		},
		{
		  "duration": 0.10714274999999995,
		  "durationTicks": 96,
		  "midi": 64,
		  "name": "E4",
		  "ticks": 2880,
		  "time": 3.2142825000000004,
		  "velocity": 0.3937007874015748
		},
		{
		  "duration": 0.10714274999999995,
		  "durationTicks": 96,
		  "midi": 64,
		  "name": "E4",
		  "ticks": 3072,
		  "time": 3.4285680000000003,
		  "velocity": 0.3937007874015748
		},
		{
		  "duration": 0.10714274999999995,
		  "durationTicks": 96,
		  "midi": 60,
		  "name": "C4",
		  "ticks": 3072,
		  "time": 3.4285680000000003,
		  "velocity": 0.3937007874015748
		},
		{
		  "duration": 0.10714274999999995,
		  "durationTicks": 96,
		  "midi": 81,
		  "name": "A5",
		  "ticks": 3072,
		  "time": 3.4285680000000003,
		  "velocity": 0.3937007874015748
		},
		{
		  "duration": 0.10714274999999995,
		  "durationTicks": 96,
		  "midi": 64,
		  "name": "E4",
		  "ticks": 3264,
		  "time": 3.6428535,
		  "velocity": 0.3937007874015748
		},
		{
		  "duration": 0.10714274999999995,
		  "durationTicks": 96,
		  "midi": 60,
		  "name": "C4",
		  "ticks": 3264,
		  "time": 3.6428535,
		  "velocity": 0.3937007874015748
		},
		{
		  "duration": 0.10714274999999995,
		  "durationTicks": 96,
		  "midi": 84,
		  "name": "C6",
		  "ticks": 3264,
		  "time": 3.6428535,
		  "velocity": 0.3937007874015748
		},
		{
		  "duration": 0.0535713750000002,
		  "durationTicks": 48,
		  "midi": 79,
		  "name": "G5",
		  "ticks": 3456,
		  "time": 3.857139,
		  "velocity": 0.3937007874015748
		},
		{
		  "duration": 0.1071427500000004,
		  "durationTicks": 96,
		  "midi": 52,
		  "name": "E3",
		  "ticks": 3456,
		  "time": 3.857139,
		  "velocity": 0.3937007874015748
		},
		{
		  "duration": 0.0535713750000002,
		  "durationTicks": 48,
		  "midi": 81,
		  "name": "A5",
		  "ticks": 3504,
		  "time": 3.9107103750000003,
		  "velocity": 0.3937007874015748
		},
		{
		  "duration": 0.053571374999999755,
		  "durationTicks": 48,
		  "midi": 83,
		  "name": "B5",
		  "ticks": 3552,
		  "time": 3.9642817500000005,
		  "velocity": 0.3937007874015748
		},
		{
		  "duration": 0.1071427500000004,
		  "durationTicks": 96,
		  "midi": 59,
		  "name": "B3",
		  "ticks": 3648,
		  "time": 4.0714245,
		  "velocity": 0.3937007874015748
		},
		{
		  "duration": 0.1071427500000004,
		  "durationTicks": 96,
		  "midi": 64,
		  "name": "E4",
		  "ticks": 3648,
		  "time": 4.0714245,
		  "velocity": 0.3937007874015748
		},
		{
		  "duration": 0.1071427500000004,
		  "durationTicks": 96,
		  "midi": 78,
		  "name": "F#5",
		  "ticks": 3648,
		  "time": 4.0714245,
		  "velocity": 0.3937007874015748
		},
		{
		  "duration": 0.1071427500000004,
		  "durationTicks": 96,
		  "midi": 81,
		  "name": "A5",
		  "ticks": 3648,
		  "time": 4.0714245,
		  "velocity": 0.3937007874015748
		},
		{
		  "duration": 0.1071427500000004,
		  "durationTicks": 96,
		  "midi": 64,
		  "name": "E4",
		  "ticks": 3840,
		  "time": 4.28571,
		  "velocity": 0.3937007874015748
		},
		{
		  "duration": 0.1071427500000004,
		  "durationTicks": 96,
		  "midi": 59,
		  "name": "B3",
		  "ticks": 3840,
		  "time": 4.28571,
		  "velocity": 0.3937007874015748
		},
		{
		  "duration": 0.1071427500000004,
		  "durationTicks": 96,
		  "midi": 76,
		  "name": "E5",
		  "ticks": 3840,
		  "time": 4.28571,
		  "velocity": 0.3937007874015748
		},
		{
		  "duration": 0.1071427500000004,
		  "durationTicks": 96,
		  "midi": 79,
		  "name": "G5",
		  "ticks": 3840,
		  "time": 4.28571,
		  "velocity": 0.3937007874015748
		},
		{
		  "duration": 0.10714274999999951,
		  "durationTicks": 96,
		  "midi": 64,
		  "name": "E4",
		  "ticks": 4032,
		  "time": 4.499995500000001,
		  "velocity": 0.3937007874015748
		},
		{
		  "duration": 0.10714274999999951,
		  "durationTicks": 96,
		  "midi": 59,
		  "name": "B3",
		  "ticks": 4032,
		  "time": 4.499995500000001,
		  "velocity": 0.3937007874015748
		},
		{
		  "duration": 0.10714274999999951,
		  "durationTicks": 96,
		  "midi": 78,
		  "name": "F#5",
		  "ticks": 4032,
		  "time": 4.499995500000001,
		  "velocity": 0.3937007874015748
		},
		{
		  "duration": 0.10714274999999951,
		  "durationTicks": 96,
		  "midi": 81,
		  "name": "A5",
		  "ticks": 4032,
		  "time": 4.499995500000001,
		  "velocity": 0.3937007874015748
		},
		{
		  "duration": 0.10714274999999951,
		  "durationTicks": 96,
		  "midi": 52,
		  "name": "E3",
		  "ticks": 4224,
		  "time": 4.714281000000001,
		  "velocity": 0.3937007874015748
		},
		{
		  "duration": 0.053571374999999755,
		  "durationTicks": 48,
		  "midi": 79,
		  "name": "G5",
		  "ticks": 4224,
		  "time": 4.714281000000001,
		  "velocity": 0.3937007874015748
		},
		{
		  "duration": 0.053571374999999755,
		  "durationTicks": 48,
		  "midi": 81,
		  "name": "A5",
		  "ticks": 4272,
		  "time": 4.767852375,
		  "velocity": 0.3937007874015748
		},
		{
		  "duration": 0.05357137500000064,
		  "durationTicks": 48,
		  "midi": 83,
		  "name": "B5",
		  "ticks": 4320,
		  "time": 4.82142375,
		  "velocity": 0.3937007874015748
		},
		{
		  "duration": 0.10714274999999951,
		  "durationTicks": 96,
		  "midi": 59,
		  "name": "B3",
		  "ticks": 4416,
		  "time": 4.9285665000000005,
		  "velocity": 0.3937007874015748
		},
		{
		  "duration": 0.10714274999999951,
		  "durationTicks": 96,
		  "midi": 64,
		  "name": "E4",
		  "ticks": 4416,
		  "time": 4.9285665000000005,
		  "velocity": 0.3937007874015748
		},
		{
		  "duration": 0.10714274999999951,
		  "durationTicks": 96,
		  "midi": 78,
		  "name": "F#5",
		  "ticks": 4416,
		  "time": 4.9285665000000005,
		  "velocity": 0.3937007874015748
		},
		{
		  "duration": 0.10714274999999951,
		  "durationTicks": 96,
		  "midi": 81,
		  "name": "A5",
		  "ticks": 4416,
		  "time": 4.9285665000000005,
		  "velocity": 0.3937007874015748
		},
		{
		  "duration": 0.1071427500000004,
		  "durationTicks": 96,
		  "midi": 59,
		  "name": "B3",
		  "ticks": 4608,
		  "time": 5.142852,
		  "velocity": 0.3937007874015748
		},
		{
		  "duration": 0.1071427500000004,
		  "durationTicks": 96,
		  "midi": 64,
		  "name": "E4",
		  "ticks": 4608,
		  "time": 5.142852,
		  "velocity": 0.3937007874015748
		},
		{
		  "duration": 0.1071427500000004,
		  "durationTicks": 96,
		  "midi": 76,
		  "name": "E5",
		  "ticks": 4608,
		  "time": 5.142852,
		  "velocity": 0.3937007874015748
		},
		{
		  "duration": 0.1071427500000004,
		  "durationTicks": 96,
		  "midi": 79,
		  "name": "G5",
		  "ticks": 4608,
		  "time": 5.142852,
		  "velocity": 0.3937007874015748
		},
		{
		  "duration": 0.1071427500000004,
		  "durationTicks": 96,
		  "midi": 59,
		  "name": "B3",
		  "ticks": 4800,
		  "time": 5.3571375,
		  "velocity": 0.3937007874015748
		},
		{
		  "duration": 0.1071427500000004,
		  "durationTicks": 96,
		  "midi": 64,
		  "name": "E4",
		  "ticks": 4800,
		  "time": 5.3571375,
		  "velocity": 0.3937007874015748
		},
		{
		  "duration": 0.1071427500000004,
		  "durationTicks": 96,
		  "midi": 78,
		  "name": "F#5",
		  "ticks": 4800,
		  "time": 5.3571375,
		  "velocity": 0.3937007874015748
		},
		{
		  "duration": 0.1071427500000004,
		  "durationTicks": 96,
		  "midi": 81,
		  "name": "A5",
		  "ticks": 4800,
		  "time": 5.3571375,
		  "velocity": 0.3937007874015748
		},
		{
		  "duration": 0.1071427500000004,
		  "durationTicks": 96,
		  "midi": 52,
		  "name": "E3",
		  "ticks": 4992,
		  "time": 5.571423,
		  "velocity": 0.3937007874015748
		},
		{
		  "duration": 0.05357137500000064,
		  "durationTicks": 48,
		  "midi": 79,
		  "name": "G5",
		  "ticks": 4992,
		  "time": 5.571423,
		  "velocity": 0.3937007874015748
		},
		{
		  "duration": 0.053571374999999755,
		  "durationTicks": 48,
		  "midi": 81,
		  "name": "A5",
		  "ticks": 5040,
		  "time": 5.624994375000001,
		  "velocity": 0.3937007874015748
		},
		{
		  "duration": 0.053571374999999755,
		  "durationTicks": 48,
		  "midi": 83,
		  "name": "B5",
		  "ticks": 5088,
		  "time": 5.678565750000001,
		  "velocity": 0.3937007874015748
		},
		{
		  "duration": 0.1071427500000004,
		  "durationTicks": 96,
		  "midi": 59,
		  "name": "B3",
		  "ticks": 5184,
		  "time": 5.7857085,
		  "velocity": 0.3937007874015748
		},
		{
		  "duration": 0.1071427500000004,
		  "durationTicks": 96,
		  "midi": 64,
		  "name": "E4",
		  "ticks": 5184,
		  "time": 5.7857085,
		  "velocity": 0.3937007874015748
		},
		{
		  "duration": 0.1071427500000004,
		  "durationTicks": 96,
		  "midi": 78,
		  "name": "F#5",
		  "ticks": 5184,
		  "time": 5.7857085,
		  "velocity": 0.3937007874015748
		},
		{
		  "duration": 0.1071427500000004,
		  "durationTicks": 96,
		  "midi": 81,
		  "name": "A5",
		  "ticks": 5184,
		  "time": 5.7857085,
		  "velocity": 0.3937007874015748
		},
		{
		  "duration": 0.10714274999999951,
		  "durationTicks": 96,
		  "midi": 47,
		  "name": "B2",
		  "ticks": 5376,
		  "time": 5.999994000000001,
		  "velocity": 0.3937007874015748
		},
		{
		  "duration": 0.10714274999999951,
		  "durationTicks": 96,
		  "midi": 76,
		  "name": "E5",
		  "ticks": 5376,
		  "time": 5.999994000000001,
		  "velocity": 0.3937007874015748
		},
		{
		  "duration": 0.10714274999999951,
		  "durationTicks": 96,
		  "midi": 79,
		  "name": "G5",
		  "ticks": 5376,
		  "time": 5.999994000000001,
		  "velocity": 0.3937007874015748
		},
		{
		  "duration": 0.10714274999999951,
		  "durationTicks": 96,
		  "midi": 59,
		  "name": "B3",
		  "ticks": 5568,
		  "time": 6.214279500000001,
		  "velocity": 0.3937007874015748
		},
		{
		  "duration": 0.10714274999999951,
		  "durationTicks": 96,
		  "midi": 75,
		  "name": "D#5",
		  "ticks": 5568,
		  "time": 6.214279500000001,
		  "velocity": 0.3937007874015748
		},
		{
		  "duration": 0.10714274999999951,
		  "durationTicks": 96,
		  "midi": 78,
		  "name": "F#5",
		  "ticks": 5568,
		  "time": 6.214279500000001,
		  "velocity": 0.3937007874015748
		},
		{
		  "duration": 0.10714274999999951,
		  "durationTicks": 96,
		  "midi": 52,
		  "name": "E3",
		  "ticks": 5760,
		  "time": 6.428565000000001,
		  "velocity": 0.3937007874015748
		},
		{
		  "duration": 0.10714274999999951,
		  "durationTicks": 96,
		  "midi": 76,
		  "name": "E5",
		  "ticks": 5760,
		  "time": 6.428565000000001,
		  "velocity": 0.3937007874015748
		},
		{
		  "duration": 0.1071427500000004,
		  "durationTicks": 96,
		  "midi": 71,
		  "name": "B4",
		  "ticks": 6144,
		  "time": 6.857136000000001,
		  "velocity": 0.3937007874015748
		},
		{
		  "duration": 0.10714274999999951,
		  "durationTicks": 96,
		  "midi": 69,
		  "name": "A4",
		  "ticks": 6240,
		  "time": 6.964278750000001,
		  "velocity": 0.3937007874015748
		},
		{
		  "duration": 0.1071427500000004,
		  "durationTicks": 96,
		  "midi": 68,
		  "name": "G#4",
		  "ticks": 6336,
		  "time": 7.0714215000000005,
		  "velocity": 0.3937007874015748
		},
		{
		  "duration": 0.10714274999999951,
		  "durationTicks": 96,
		  "midi": 69,
		  "name": "A4",
		  "ticks": 6432,
		  "time": 7.178564250000001,
		  "velocity": 0.3937007874015748
		},
		{
		  "duration": 0.1071427500000004,
		  "durationTicks": 96,
		  "midi": 72,
		  "name": "C5",
		  "ticks": 6528,
		  "time": 7.285707,
		  "velocity": 0.3937007874015748
		},
		{
		  "duration": 0.1071427500000004,
		  "durationTicks": 96,
		  "midi": 57,
		  "name": "A3",
		  "ticks": 6528,
		  "time": 7.285707,
		  "velocity": 0.3937007874015748
		},
		{
		  "duration": 0.1071427500000004,
		  "durationTicks": 96,
		  "midi": 60,
		  "name": "C4",
		  "ticks": 6720,
		  "time": 7.4999925,
		  "velocity": 0.3937007874015748
		},
		{
		  "duration": 0.1071427500000004,
		  "durationTicks": 96,
		  "midi": 64,
		  "name": "E4",
		  "ticks": 6720,
		  "time": 7.4999925,
		  "velocity": 0.3937007874015748
		},
		{
		  "duration": 0.1071427500000004,
		  "durationTicks": 96,
		  "midi": 64,
		  "name": "E4",
		  "ticks": 6912,
		  "time": 7.714278,
		  "velocity": 0.3937007874015748
		},
		{
		  "duration": 0.1071427500000004,
		  "durationTicks": 96,
		  "midi": 60,
		  "name": "C4",
		  "ticks": 6912,
		  "time": 7.714278,
		  "velocity": 0.3937007874015748
		},
		{
		  "duration": 0.1071427500000004,
		  "durationTicks": 96,
		  "midi": 74,
		  "name": "D5",
		  "ticks": 6912,
		  "time": 7.714278,
		  "velocity": 0.3937007874015748
		},
		{
		  "duration": 0.1071427500000004,
		  "durationTicks": 96,
		  "midi": 72,
		  "name": "C5",
		  "ticks": 7008,
		  "time": 7.821420750000001,
		  "velocity": 0.3937007874015748
		},
		{
		  "duration": 0.10714274999999951,
		  "durationTicks": 96,
		  "midi": 60,
		  "name": "C4",
		  "ticks": 7104,
		  "time": 7.928563500000001,
		  "velocity": 0.3937007874015748
		},
		{
		  "duration": 0.10714274999999951,
		  "durationTicks": 96,
		  "midi": 64,
		  "name": "E4",
		  "ticks": 7104,
		  "time": 7.928563500000001,
		  "velocity": 0.3937007874015748
		},
		{
		  "duration": 0.10714274999999951,
		  "durationTicks": 96,
		  "midi": 71,
		  "name": "B4",
		  "ticks": 7104,
		  "time": 7.928563500000001,
		  "velocity": 0.3937007874015748
		},
		{
		  "duration": 0.10714274999999951,
		  "durationTicks": 96,
		  "midi": 72,
		  "name": "C5",
		  "ticks": 7200,
		  "time": 8.03570625,
		  "velocity": 0.3937007874015748
		},
		{
		  "duration": 0.10714275000000129,
		  "durationTicks": 96,
		  "midi": 76,
		  "name": "E5",
		  "ticks": 7296,
		  "time": 8.142849,
		  "velocity": 0.3937007874015748
		},
		{
		  "duration": 0.10714275000000129,
		  "durationTicks": 96,
		  "midi": 57,
		  "name": "A3",
		  "ticks": 7296,
		  "time": 8.142849,
		  "velocity": 0.3937007874015748
		},
		{
		  "duration": 0.10714274999999951,
		  "durationTicks": 96,
		  "midi": 60,
		  "name": "C4",
		  "ticks": 7488,
		  "time": 8.3571345,
		  "velocity": 0.3937007874015748
		},
		{
		  "duration": 0.10714274999999951,
		  "durationTicks": 96,
		  "midi": 64,
		  "name": "E4",
		  "ticks": 7488,
		  "time": 8.3571345,
		  "velocity": 0.3937007874015748
		},
		{
		  "duration": 0.10714275000000129,
		  "durationTicks": 96,
		  "midi": 64,
		  "name": "E4",
		  "ticks": 7680,
		  "time": 8.57142,
		  "velocity": 0.3937007874015748
		},
		{
		  "duration": 0.10714275000000129,
		  "durationTicks": 96,
		  "midi": 60,
		  "name": "C4",
		  "ticks": 7680,
		  "time": 8.57142,
		  "velocity": 0.3937007874015748
		},
		{
		  "duration": 0.10714275000000129,
		  "durationTicks": 96,
		  "midi": 77,
		  "name": "F5",
		  "ticks": 7680,
		  "time": 8.57142,
		  "velocity": 0.3937007874015748
		},
		{
		  "duration": 0.10714274999999951,
		  "durationTicks": 96,
		  "midi": 76,
		  "name": "E5",
		  "ticks": 7776,
		  "time": 8.678562750000001,
		  "velocity": 0.3937007874015748
		},
		{
		  "duration": 0.10714274999999951,
		  "durationTicks": 96,
		  "midi": 64,
		  "name": "E4",
		  "ticks": 7872,
		  "time": 8.7857055,
		  "velocity": 0.3937007874015748
		},
		{
		  "duration": 0.10714274999999951,
		  "durationTicks": 96,
		  "midi": 60,
		  "name": "C4",
		  "ticks": 7872,
		  "time": 8.7857055,
		  "velocity": 0.3937007874015748
		},
		{
		  "duration": 0.10714274999999951,
		  "durationTicks": 96,
		  "midi": 75,
		  "name": "D#5",
		  "ticks": 7872,
		  "time": 8.7857055,
		  "velocity": 0.3937007874015748
		},
		{
		  "duration": 0.10714275000000129,
		  "durationTicks": 96,
		  "midi": 76,
		  "name": "E5",
		  "ticks": 7968,
		  "time": 8.89284825,
		  "velocity": 0.3937007874015748
		},
		{
		  "duration": 0.10714274999999951,
		  "durationTicks": 96,
		  "midi": 83,
		  "name": "B5",
		  "ticks": 8064,
		  "time": 8.999991000000001,
		  "velocity": 0.3937007874015748
		},
		{
		  "duration": 0.10714274999999951,
		  "durationTicks": 96,
		  "midi": 57,
		  "name": "A3",
		  "ticks": 8064,
		  "time": 8.999991000000001,
		  "velocity": 0.3937007874015748
		},
		{
		  "duration": 0.10714274999999951,
		  "durationTicks": 96,
		  "midi": 81,
		  "name": "A5",
		  "ticks": 8160,
		  "time": 9.107133750000001,
		  "velocity": 0.3937007874015748
		},
		{
		  "duration": 0.10714274999999951,
		  "durationTicks": 96,
		  "midi": 80,
		  "name": "G#5",
		  "ticks": 8256,
		  "time": 9.2142765,
		  "velocity": 0.3937007874015748
		},
		{
		  "duration": 0.10714274999999951,
		  "durationTicks": 96,
		  "midi": 60,
		  "name": "C4",
		  "ticks": 8256,
		  "time": 9.2142765,
		  "velocity": 0.3937007874015748
		},
		{
		  "duration": 0.10714274999999951,
		  "durationTicks": 96,
		  "midi": 64,
		  "name": "E4",
		  "ticks": 8256,
		  "time": 9.2142765,
		  "velocity": 0.3937007874015748
		},
		{
		  "duration": 0.10714275000000129,
		  "durationTicks": 96,
		  "midi": 81,
		  "name": "A5",
		  "ticks": 8352,
		  "time": 9.32141925,
		  "velocity": 0.3937007874015748
		},
		{
		  "duration": 0.10714274999999951,
		  "durationTicks": 96,
		  "midi": 83,
		  "name": "B5",
		  "ticks": 8448,
		  "time": 9.428562000000001,
		  "velocity": 0.3937007874015748
		},
		{
		  "duration": 0.10714274999999951,
		  "durationTicks": 96,
		  "midi": 57,
		  "name": "A3",
		  "ticks": 8448,
		  "time": 9.428562000000001,
		  "velocity": 0.3937007874015748
		},
		{
		  "duration": 0.10714274999999951,
		  "durationTicks": 96,
		  "midi": 81,
		  "name": "A5",
		  "ticks": 8544,
		  "time": 9.53570475,
		  "velocity": 0.3937007874015748
		},
		{
		  "duration": 0.10714275000000129,
		  "durationTicks": 96,
		  "midi": 80,
		  "name": "G#5",
		  "ticks": 8640,
		  "time": 9.6428475,
		  "velocity": 0.3937007874015748
		},
		{
		  "duration": 0.10714275000000129,
		  "durationTicks": 96,
		  "midi": 60,
		  "name": "C4",
		  "ticks": 8640,
		  "time": 9.6428475,
		  "velocity": 0.3937007874015748
		},
		{
		  "duration": 0.10714275000000129,
		  "durationTicks": 96,
		  "midi": 64,
		  "name": "E4",
		  "ticks": 8640,
		  "time": 9.6428475,
		  "velocity": 0.3937007874015748
		},
		{
		  "duration": 0.10714274999999951,
		  "durationTicks": 96,
		  "midi": 81,
		  "name": "A5",
		  "ticks": 8736,
		  "time": 9.749990250000002,
		  "velocity": 0.3937007874015748
		},
		{
		  "duration": 0.10714274999999951,
		  "durationTicks": 96,
		  "midi": 84,
		  "name": "C6",
		  "ticks": 8832,
		  "time": 9.857133000000001,
		  "velocity": 0.3937007874015748
		},
		{
		  "duration": 0.10714274999999951,
		  "durationTicks": 96,
		  "midi": 57,
		  "name": "A3",
		  "ticks": 8832,
		  "time": 9.857133000000001,
		  "velocity": 0.3937007874015748
		},
		{
		  "duration": 0.10714275000000129,
		  "durationTicks": 96,
		  "midi": 60,
		  "name": "C4",
		  "ticks": 9024,
		  "time": 10.0714185,
		  "velocity": 0.3937007874015748
		},
		{
		  "duration": 0.10714275000000129,
		  "durationTicks": 96,
		  "midi": 64,
		  "name": "E4",
		  "ticks": 9024,
		  "time": 10.0714185,
		  "velocity": 0.3937007874015748
		},
		{
		  "duration": 0.10714274999999951,
		  "durationTicks": 96,
		  "midi": 64,
		  "name": "E4",
		  "ticks": 9216,
		  "time": 10.285704,
		  "velocity": 0.3937007874015748
		},
		{
		  "duration": 0.10714274999999951,
		  "durationTicks": 96,
		  "midi": 60,
		  "name": "C4",
		  "ticks": 9216,
		  "time": 10.285704,
		  "velocity": 0.3937007874015748
		},
		{
		  "duration": 0.10714274999999951,
		  "durationTicks": 96,
		  "midi": 81,
		  "name": "A5",
		  "ticks": 9216,
		  "time": 10.285704,
		  "velocity": 0.3937007874015748
		},
		{
		  "duration": 0.10714274999999951,
		  "durationTicks": 96,
		  "midi": 64,
		  "name": "E4",
		  "ticks": 9408,
		  "time": 10.499989500000002,
		  "velocity": 0.3937007874015748
		},
		{
		  "duration": 0.10714274999999951,
		  "durationTicks": 96,
		  "midi": 60,
		  "name": "C4",
		  "ticks": 9408,
		  "time": 10.499989500000002,
		  "velocity": 0.3937007874015748
		},
		{
		  "duration": 0.10714274999999951,
		  "durationTicks": 96,
		  "midi": 84,
		  "name": "C6",
		  "ticks": 9408,
		  "time": 10.499989500000002,
		  "velocity": 0.3937007874015748
		},
		{
		  "duration": 0.05357137500000064,
		  "durationTicks": 48,
		  "midi": 79,
		  "name": "G5",
		  "ticks": 9600,
		  "time": 10.714275,
		  "velocity": 0.3937007874015748
		},
		{
		  "duration": 0.10714274999999951,
		  "durationTicks": 96,
		  "midi": 52,
		  "name": "E3",
		  "ticks": 9600,
		  "time": 10.714275,
		  "velocity": 0.3937007874015748
		},
		{
		  "duration": 0.053571374999998866,
		  "durationTicks": 48,
		  "midi": 81,
		  "name": "A5",
		  "ticks": 9648,
		  "time": 10.767846375000001,
		  "velocity": 0.3937007874015748
		},
		{
		  "duration": 0.05357137500000064,
		  "durationTicks": 48,
		  "midi": 83,
		  "name": "B5",
		  "ticks": 9696,
		  "time": 10.82141775,
		  "velocity": 0.3937007874015748
		},
		{
		  "duration": 0.10714274999999951,
		  "durationTicks": 96,
		  "midi": 59,
		  "name": "B3",
		  "ticks": 9792,
		  "time": 10.928560500000001,
		  "velocity": 0.3937007874015748
		},
		{
		  "duration": 0.10714274999999951,
		  "durationTicks": 96,
		  "midi": 64,
		  "name": "E4",
		  "ticks": 9792,
		  "time": 10.928560500000001,
		  "velocity": 0.3937007874015748
		},
		{
		  "duration": 0.10714274999999951,
		  "durationTicks": 96,
		  "midi": 78,
		  "name": "F#5",
		  "ticks": 9792,
		  "time": 10.928560500000001,
		  "velocity": 0.3937007874015748
		},
		{
		  "duration": 0.10714274999999951,
		  "durationTicks": 96,
		  "midi": 81,
		  "name": "A5",
		  "ticks": 9792,
		  "time": 10.928560500000001,
		  "velocity": 0.3937007874015748
		},
		{
		  "duration": 0.10714275000000129,
		  "durationTicks": 96,
		  "midi": 64,
		  "name": "E4",
		  "ticks": 9984,
		  "time": 11.142846,
		  "velocity": 0.3937007874015748
		},
		{
		  "duration": 0.10714275000000129,
		  "durationTicks": 96,
		  "midi": 59,
		  "name": "B3",
		  "ticks": 9984,
		  "time": 11.142846,
		  "velocity": 0.3937007874015748
		},
		{
		  "duration": 0.10714275000000129,
		  "durationTicks": 96,
		  "midi": 76,
		  "name": "E5",
		  "ticks": 9984,
		  "time": 11.142846,
		  "velocity": 0.3937007874015748
		},
		{
		  "duration": 0.10714275000000129,
		  "durationTicks": 96,
		  "midi": 79,
		  "name": "G5",
		  "ticks": 9984,
		  "time": 11.142846,
		  "velocity": 0.3937007874015748
		},
		{
		  "duration": 0.10714274999999951,
		  "durationTicks": 96,
		  "midi": 64,
		  "name": "E4",
		  "ticks": 10176,
		  "time": 11.357131500000001,
		  "velocity": 0.3937007874015748
		},
		{
		  "duration": 0.10714274999999951,
		  "durationTicks": 96,
		  "midi": 59,
		  "name": "B3",
		  "ticks": 10176,
		  "time": 11.357131500000001,
		  "velocity": 0.3937007874015748
		},
		{
		  "duration": 0.10714274999999951,
		  "durationTicks": 96,
		  "midi": 78,
		  "name": "F#5",
		  "ticks": 10176,
		  "time": 11.357131500000001,
		  "velocity": 0.3937007874015748
		},
		{
		  "duration": 0.10714274999999951,
		  "durationTicks": 96,
		  "midi": 81,
		  "name": "A5",
		  "ticks": 10176,
		  "time": 11.357131500000001,
		  "velocity": 0.3937007874015748
		},
		{
		  "duration": 0.10714275000000129,
		  "durationTicks": 96,
		  "midi": 52,
		  "name": "E3",
		  "ticks": 10368,
		  "time": 11.571417,
		  "velocity": 0.3937007874015748
		},
		{
		  "duration": 0.05357137500000064,
		  "durationTicks": 48,
		  "midi": 79,
		  "name": "G5",
		  "ticks": 10368,
		  "time": 11.571417,
		  "velocity": 0.3937007874015748
		},
		{
		  "duration": 0.05357137500000064,
		  "durationTicks": 48,
		  "midi": 81,
		  "name": "A5",
		  "ticks": 10416,
		  "time": 11.624988375000001,
		  "velocity": 0.3937007874015748
		},
		{
		  "duration": 0.053571374999998866,
		  "durationTicks": 48,
		  "midi": 83,
		  "name": "B5",
		  "ticks": 10464,
		  "time": 11.678559750000002,
		  "velocity": 0.3937007874015748
		},
		{
		  "duration": 0.10714274999999951,
		  "durationTicks": 96,
		  "midi": 59,
		  "name": "B3",
		  "ticks": 10560,
		  "time": 11.785702500000001,
		  "velocity": 0.3937007874015748
		},
		{
		  "duration": 0.10714274999999951,
		  "durationTicks": 96,
		  "midi": 64,
		  "name": "E4",
		  "ticks": 10560,
		  "time": 11.785702500000001,
		  "velocity": 0.3937007874015748
		},
		{
		  "duration": 0.10714274999999951,
		  "durationTicks": 96,
		  "midi": 78,
		  "name": "F#5",
		  "ticks": 10560,
		  "time": 11.785702500000001,
		  "velocity": 0.3937007874015748
		},
		{
		  "duration": 0.10714274999999951,
		  "durationTicks": 96,
		  "midi": 81,
		  "name": "A5",
		  "ticks": 10560,
		  "time": 11.785702500000001,
		  "velocity": 0.3937007874015748
		},
		{
		  "duration": 0.10714274999999951,
		  "durationTicks": 96,
		  "midi": 59,
		  "name": "B3",
		  "ticks": 10752,
		  "time": 11.999988000000002,
		  "velocity": 0.3937007874015748
		},
		{
		  "duration": 0.10714274999999951,
		  "durationTicks": 96,
		  "midi": 64,
		  "name": "E4",
		  "ticks": 10752,
		  "time": 11.999988000000002,
		  "velocity": 0.3937007874015748
		},
		{
		  "duration": 0.10714274999999951,
		  "durationTicks": 96,
		  "midi": 76,
		  "name": "E5",
		  "ticks": 10752,
		  "time": 11.999988000000002,
		  "velocity": 0.3937007874015748
		},
		{
		  "duration": 0.10714274999999951,
		  "durationTicks": 96,
		  "midi": 79,
		  "name": "G5",
		  "ticks": 10752,
		  "time": 11.999988000000002,
		  "velocity": 0.3937007874015748
		},
		{
		  "duration": 0.10714274999999951,
		  "durationTicks": 96,
		  "midi": 59,
		  "name": "B3",
		  "ticks": 10944,
		  "time": 12.214273500000001,
		  "velocity": 0.3937007874015748
		},
		{
		  "duration": 0.10714274999999951,
		  "durationTicks": 96,
		  "midi": 64,
		  "name": "E4",
		  "ticks": 10944,
		  "time": 12.214273500000001,
		  "velocity": 0.3937007874015748
		},
		{
		  "duration": 0.10714274999999951,
		  "durationTicks": 96,
		  "midi": 78,
		  "name": "F#5",
		  "ticks": 10944,
		  "time": 12.214273500000001,
		  "velocity": 0.3937007874015748
		},
		{
		  "duration": 0.10714274999999951,
		  "durationTicks": 96,
		  "midi": 81,
		  "name": "A5",
		  "ticks": 10944,
		  "time": 12.214273500000001,
		  "velocity": 0.3937007874015748
		},
		{
		  "duration": 0.10714274999999951,
		  "durationTicks": 96,
		  "midi": 52,
		  "name": "E3",
		  "ticks": 11136,
		  "time": 12.428559000000002,
		  "velocity": 0.3937007874015748
		},
		{
		  "duration": 0.053571374999998866,
		  "durationTicks": 48,
		  "midi": 79,
		  "name": "G5",
		  "ticks": 11136,
		  "time": 12.428559000000002,
		  "velocity": 0.3937007874015748
		},
		{
		  "duration": 0.05357137500000064,
		  "durationTicks": 48,
		  "midi": 81,
		  "name": "A5",
		  "ticks": 11184,
		  "time": 12.482130375,
		  "velocity": 0.3937007874015748
		},
		{
		  "duration": 0.05357137500000064,
		  "durationTicks": 48,
		  "midi": 83,
		  "name": "B5",
		  "ticks": 11232,
		  "time": 12.535701750000001,
		  "velocity": 0.3937007874015748
		},
		{
		  "duration": 0.10714274999999951,
		  "durationTicks": 96,
		  "midi": 59,
		  "name": "B3",
		  "ticks": 11328,
		  "time": 12.6428445,
		  "velocity": 0.3937007874015748
		},
		{
		  "duration": 0.10714274999999951,
		  "durationTicks": 96,
		  "midi": 64,
		  "name": "E4",
		  "ticks": 11328,
		  "time": 12.6428445,
		  "velocity": 0.3937007874015748
		},
		{
		  "duration": 0.10714274999999951,
		  "durationTicks": 96,
		  "midi": 78,
		  "name": "F#5",
		  "ticks": 11328,
		  "time": 12.6428445,
		  "velocity": 0.3937007874015748
		},
		{
		  "duration": 0.10714274999999951,
		  "durationTicks": 96,
		  "midi": 81,
		  "name": "A5",
		  "ticks": 11328,
		  "time": 12.6428445,
		  "velocity": 0.3937007874015748
		},
		{
		  "duration": 0.10714274999999951,
		  "durationTicks": 96,
		  "midi": 47,
		  "name": "B2",
		  "ticks": 11520,
		  "time": 12.857130000000002,
		  "velocity": 0.3937007874015748
		},
		{
		  "duration": 0.10714274999999951,
		  "durationTicks": 96,
		  "midi": 76,
		  "name": "E5",
		  "ticks": 11520,
		  "time": 12.857130000000002,
		  "velocity": 0.3937007874015748
		},
		{
		  "duration": 0.10714274999999951,
		  "durationTicks": 96,
		  "midi": 79,
		  "name": "G5",
		  "ticks": 11520,
		  "time": 12.857130000000002,
		  "velocity": 0.3937007874015748
		},
		{
		  "duration": 0.10714275000000129,
		  "durationTicks": 96,
		  "midi": 59,
		  "name": "B3",
		  "ticks": 11712,
		  "time": 13.0714155,
		  "velocity": 0.3937007874015748
		},
		{
		  "duration": 0.10714275000000129,
		  "durationTicks": 96,
		  "midi": 75,
		  "name": "D#5",
		  "ticks": 11712,
		  "time": 13.0714155,
		  "velocity": 0.3937007874015748
		},
		{
		  "duration": 0.10714275000000129,
		  "durationTicks": 96,
		  "midi": 78,
		  "name": "F#5",
		  "ticks": 11712,
		  "time": 13.0714155,
		  "velocity": 0.3937007874015748
		},
		{
		  "duration": 0.10714274999999951,
		  "durationTicks": 96,
		  "midi": 52,
		  "name": "E3",
		  "ticks": 11904,
		  "time": 13.285701000000001,
		  "velocity": 0.3937007874015748
		},
		{
		  "duration": 0.10714274999999951,
		  "durationTicks": 96,
		  "midi": 76,
		  "name": "E5",
		  "ticks": 11904,
		  "time": 13.285701000000001,
		  "velocity": 0.3937007874015748
		},
		{
		  "duration": 0.10714274999999951,
		  "durationTicks": 96,
		  "midi": 72,
		  "name": "C5",
		  "ticks": 12288,
		  "time": 13.714272000000001,
		  "velocity": 0.3937007874015748
		},
		{
		  "duration": 0.10714274999999951,
		  "durationTicks": 96,
		  "midi": 76,
		  "name": "E5",
		  "ticks": 12288,
		  "time": 13.714272000000001,
		  "velocity": 0.3937007874015748
		},
		{
		  "duration": 0.10714274999999951,
		  "durationTicks": 96,
		  "midi": 74,
		  "name": "D5",
		  "ticks": 12480,
		  "time": 13.928557500000002,
		  "velocity": 0.3937007874015748
		},
		{
		  "duration": 0.10714274999999951,
		  "durationTicks": 96,
		  "midi": 77,
		  "name": "F5",
		  "ticks": 12480,
		  "time": 13.928557500000002,
		  "velocity": 0.3937007874015748
		},
		{
		  "duration": 0.10714274999999951,
		  "durationTicks": 96,
		  "midi": 76,
		  "name": "E5",
		  "ticks": 12672,
		  "time": 14.142843000000001,
		  "velocity": 0.3937007874015748
		},
		{
		  "duration": 0.10714274999999951,
		  "durationTicks": 96,
		  "midi": 79,
		  "name": "G5",
		  "ticks": 12672,
		  "time": 14.142843000000001,
		  "velocity": 0.3937007874015748
		},
		{
		  "duration": 0.10714274999999951,
		  "durationTicks": 96,
		  "midi": 48,
		  "name": "C3",
		  "ticks": 12672,
		  "time": 14.142843000000001,
		  "velocity": 0.3937007874015748
		},
		{
		  "duration": 0.10714274999999951,
		  "durationTicks": 96,
		  "midi": 79,
		  "name": "G5",
		  "ticks": 12864,
		  "time": 14.357128500000002,
		  "velocity": 0.3937007874015748
		},
		{
		  "duration": 0.10714274999999951,
		  "durationTicks": 96,
		  "midi": 76,
		  "name": "E5",
		  "ticks": 12864,
		  "time": 14.357128500000002,
		  "velocity": 0.3937007874015748
		},
		{
		  "duration": 0.10714274999999951,
		  "durationTicks": 96,
		  "midi": 60,
		  "name": "C4",
		  "ticks": 12864,
		  "time": 14.357128500000002,
		  "velocity": 0.3937007874015748
		},
		{
		  "duration": 0.10714275000000129,
		  "durationTicks": 96,
		  "midi": 81,
		  "name": "A5",
		  "ticks": 13056,
		  "time": 14.571414,
		  "velocity": 0.3937007874015748
		},
		{
		  "duration": 0.10714275000000129,
		  "durationTicks": 96,
		  "midi": 52,
		  "name": "E3",
		  "ticks": 13056,
		  "time": 14.571414,
		  "velocity": 0.3937007874015748
		},
		{
		  "duration": 0.10714274999999951,
		  "durationTicks": 96,
		  "midi": 79,
		  "name": "G5",
		  "ticks": 13152,
		  "time": 14.678556750000002,
		  "velocity": 0.3937007874015748
		},
		{
		  "duration": 0.10714274999999951,
		  "durationTicks": 96,
		  "midi": 79,
		  "name": "G5",
		  "ticks": 13152,
		  "time": 14.678556750000002,
		  "velocity": 0.3937007874015748
		},
		{
		  "duration": 0.10714274999999951,
		  "durationTicks": 96,
		  "midi": 77,
		  "name": "F5",
		  "ticks": 13248,
		  "time": 14.785699500000002,
		  "velocity": 0.3937007874015748
		},
		{
		  "duration": 0.10714274999999951,
		  "durationTicks": 96,
		  "midi": 64,
		  "name": "E4",
		  "ticks": 13248,
		  "time": 14.785699500000002,
		  "velocity": 0.3937007874015748
		},
		{
		  "duration": 0.10714274999999951,
		  "durationTicks": 96,
		  "midi": 76,
		  "name": "E5",
		  "ticks": 13344,
		  "time": 14.892842250000001,
		  "velocity": 0.3937007874015748
		},
		{
		  "duration": 0.10714275000000129,
		  "durationTicks": 96,
		  "midi": 74,
		  "name": "D5",
		  "ticks": 13440,
		  "time": 14.999985,
		  "velocity": 0.3937007874015748
		},
		{
		  "duration": 0.10714275000000129,
		  "durationTicks": 96,
		  "midi": 71,
		  "name": "B4",
		  "ticks": 13440,
		  "time": 14.999985,
		  "velocity": 0.3937007874015748
		},
		{
		  "duration": 0.10714275000000129,
		  "durationTicks": 96,
		  "midi": 55,
		  "name": "G3",
		  "ticks": 13440,
		  "time": 14.999985,
		  "velocity": 0.3937007874015748
		},
		{
		  "duration": 0.10714274999999951,
		  "durationTicks": 96,
		  "midi": 67,
		  "name": "G4",
		  "ticks": 13632,
		  "time": 15.214270500000001,
		  "velocity": 0.3937007874015748
		},
		{
		  "duration": 0.10714275000000129,
		  "durationTicks": 96,
		  "midi": 72,
		  "name": "C5",
		  "ticks": 13824,
		  "time": 15.428556,
		  "velocity": 0.3937007874015748
		},
		{
		  "duration": 0.10714275000000129,
		  "durationTicks": 96,
		  "midi": 76,
		  "name": "E5",
		  "ticks": 13824,
		  "time": 15.428556,
		  "velocity": 0.3937007874015748
		},
		{
		  "duration": 0.10714275000000129,
		  "durationTicks": 96,
		  "midi": 72,
		  "name": "C5",
		  "ticks": 13824,
		  "time": 15.428556,
		  "velocity": 0.3937007874015748
		},
		{
		  "duration": 0.10714274999999951,
		  "durationTicks": 96,
		  "midi": 74,
		  "name": "D5",
		  "ticks": 14016,
		  "time": 15.642841500000001,
		  "velocity": 0.3937007874015748
		},
		{
		  "duration": 0.10714274999999951,
		  "durationTicks": 96,
		  "midi": 77,
		  "name": "F5",
		  "ticks": 14016,
		  "time": 15.642841500000001,
		  "velocity": 0.3937007874015748
		},
		{
		  "duration": 0.10714274999999951,
		  "durationTicks": 96,
		  "midi": 76,
		  "name": "E5",
		  "ticks": 14208,
		  "time": 15.857127000000002,
		  "velocity": 0.3937007874015748
		},
		{
		  "duration": 0.10714274999999951,
		  "durationTicks": 96,
		  "midi": 79,
		  "name": "G5",
		  "ticks": 14208,
		  "time": 15.857127000000002,
		  "velocity": 0.3937007874015748
		},
		{
		  "duration": 0.10714274999999951,
		  "durationTicks": 96,
		  "midi": 76,
		  "name": "E5",
		  "ticks": 14208,
		  "time": 15.857127000000002,
		  "velocity": 0.3937007874015748
		},
		{
		  "duration": 0.10714274999999951,
		  "durationTicks": 96,
		  "midi": 48,
		  "name": "C3",
		  "ticks": 14208,
		  "time": 15.857127000000002,
		  "velocity": 0.3937007874015748
		},
		{
		  "duration": 0.10714275000000129,
		  "durationTicks": 96,
		  "midi": 76,
		  "name": "E5",
		  "ticks": 14400,
		  "time": 16.0714125,
		  "velocity": 0.3937007874015748
		},
		{
		  "duration": 0.10714275000000129,
		  "durationTicks": 96,
		  "midi": 79,
		  "name": "G5",
		  "ticks": 14400,
		  "time": 16.0714125,
		  "velocity": 0.3937007874015748
		},
		{
		  "duration": 0.10714275000000129,
		  "durationTicks": 96,
		  "midi": 60,
		  "name": "C4",
		  "ticks": 14400,
		  "time": 16.0714125,
		  "velocity": 0.3937007874015748
		},
		{
		  "duration": 0.10714275000000129,
		  "durationTicks": 96,
		  "midi": 81,
		  "name": "A5",
		  "ticks": 14592,
		  "time": 16.285698,
		  "velocity": 0.3937007874015748
		},
		{
		  "duration": 0.10714275000000129,
		  "durationTicks": 96,
		  "midi": 52,
		  "name": "E3",
		  "ticks": 14592,
		  "time": 16.285698,
		  "velocity": 0.3937007874015748
		},
		{
		  "duration": 0.10714275000000129,
		  "durationTicks": 96,
		  "midi": 79,
		  "name": "G5",
		  "ticks": 14688,
		  "time": 16.39284075,
		  "velocity": 0.3937007874015748
		},
		{
		  "duration": 0.10714274999999773,
		  "durationTicks": 96,
		  "midi": 77,
		  "name": "F5",
		  "ticks": 14784,
		  "time": 16.499983500000003,
		  "velocity": 0.3937007874015748
		},
		{
		  "duration": 0.10714274999999773,
		  "durationTicks": 96,
		  "midi": 64,
		  "name": "E4",
		  "ticks": 14784,
		  "time": 16.499983500000003,
		  "velocity": 0.3937007874015748
		},
		{
		  "duration": 0.10714275000000129,
		  "durationTicks": 96,
		  "midi": 76,
		  "name": "E5",
		  "ticks": 14880,
		  "time": 16.60712625,
		  "velocity": 0.3937007874015748
		},
		{
		  "duration": 0.10714275000000129,
		  "durationTicks": 96,
		  "midi": 74,
		  "name": "D5",
		  "ticks": 14976,
		  "time": 16.714269,
		  "velocity": 0.3937007874015748
		},
		{
		  "duration": 0.10714275000000129,
		  "durationTicks": 96,
		  "midi": 71,
		  "name": "B4",
		  "ticks": 14976,
		  "time": 16.714269,
		  "velocity": 0.3937007874015748
		},
		{
		  "duration": 0.10714275000000129,
		  "durationTicks": 96,
		  "midi": 55,
		  "name": "G3",
		  "ticks": 14976,
		  "time": 16.714269,
		  "velocity": 0.3937007874015748
		},
		{
		  "duration": 0.10714275000000129,
		  "durationTicks": 96,
		  "midi": 69,
		  "name": "A4",
		  "ticks": 15360,
		  "time": 17.14284,
		  "velocity": 0.3937007874015748
		},
		{
		  "duration": 0.10714275000000129,
		  "durationTicks": 96,
		  "midi": 72,
		  "name": "C5",
		  "ticks": 15360,
		  "time": 17.14284,
		  "velocity": 0.3937007874015748
		},
		{
		  "duration": 0.10714274999999773,
		  "durationTicks": 96,
		  "midi": 71,
		  "name": "B4",
		  "ticks": 15552,
		  "time": 17.357125500000002,
		  "velocity": 0.3937007874015748
		},
		{
		  "duration": 0.10714274999999773,
		  "durationTicks": 96,
		  "midi": 74,
		  "name": "D5",
		  "ticks": 15552,
		  "time": 17.357125500000002,
		  "velocity": 0.3937007874015748
		},
		{
		  "duration": 0.10714275000000129,
		  "durationTicks": 96,
		  "midi": 72,
		  "name": "C5",
		  "ticks": 15744,
		  "time": 17.571411,
		  "velocity": 0.3937007874015748
		},
		{
		  "duration": 0.10714275000000129,
		  "durationTicks": 96,
		  "midi": 76,
		  "name": "E5",
		  "ticks": 15744,
		  "time": 17.571411,
		  "velocity": 0.3937007874015748
		},
		{
		  "duration": 0.10714275000000129,
		  "durationTicks": 96,
		  "midi": 45,
		  "name": "A2",
		  "ticks": 15744,
		  "time": 17.571411,
		  "velocity": 0.3937007874015748
		},
		{
		  "duration": 0.10714275000000129,
		  "durationTicks": 96,
		  "midi": 72,
		  "name": "C5",
		  "ticks": 15936,
		  "time": 17.7856965,
		  "velocity": 0.3937007874015748
		},
		{
		  "duration": 0.10714275000000129,
		  "durationTicks": 96,
		  "midi": 76,
		  "name": "E5",
		  "ticks": 15936,
		  "time": 17.7856965,
		  "velocity": 0.3937007874015748
		},
		{
		  "duration": 0.10714275000000129,
		  "durationTicks": 96,
		  "midi": 57,
		  "name": "A3",
		  "ticks": 15936,
		  "time": 17.7856965,
		  "velocity": 0.3937007874015748
		},
		{
		  "duration": 0.10714274999999773,
		  "durationTicks": 96,
		  "midi": 48,
		  "name": "C3",
		  "ticks": 16128,
		  "time": 17.999982000000003,
		  "velocity": 0.3937007874015748
		},
		{
		  "duration": 0.10714274999999773,
		  "durationTicks": 96,
		  "midi": 77,
		  "name": "F5",
		  "ticks": 16128,
		  "time": 17.999982000000003,
		  "velocity": 0.3937007874015748
		},
		{
		  "duration": 0.10714275000000129,
		  "durationTicks": 96,
		  "midi": 76,
		  "name": "E5",
		  "ticks": 16224,
		  "time": 18.10712475,
		  "velocity": 0.3937007874015748
		},
		{
		  "duration": 0.10714275000000129,
		  "durationTicks": 96,
		  "midi": 60,
		  "name": "C4",
		  "ticks": 16320,
		  "time": 18.214267500000002,
		  "velocity": 0.3937007874015748
		},
		{
		  "duration": 0.10714275000000129,
		  "durationTicks": 96,
		  "midi": 74,
		  "name": "D5",
		  "ticks": 16320,
		  "time": 18.214267500000002,
		  "velocity": 0.3937007874015748
		},
		{
		  "duration": 0.10714274999999773,
		  "durationTicks": 96,
		  "midi": 72,
		  "name": "C5",
		  "ticks": 16416,
		  "time": 18.321410250000003,
		  "velocity": 0.3937007874015748
		},
		{
		  "duration": 0.10714275000000129,
		  "durationTicks": 96,
		  "midi": 71,
		  "name": "B4",
		  "ticks": 16512,
		  "time": 18.428553,
		  "velocity": 0.3937007874015748
		},
		{
		  "duration": 0.10714275000000129,
		  "durationTicks": 96,
		  "midi": 68,
		  "name": "G#4",
		  "ticks": 16512,
		  "time": 18.428553,
		  "velocity": 0.3937007874015748
		},
		{
		  "duration": 0.10714275000000129,
		  "durationTicks": 96,
		  "midi": 52,
		  "name": "E3",
		  "ticks": 16512,
		  "time": 18.428553,
		  "velocity": 0.3937007874015748
		},
		{
		  "duration": 0.10714275000000129,
		  "durationTicks": 96,
		  "midi": 64,
		  "name": "E4",
		  "ticks": 16704,
		  "time": 18.6428385,
		  "velocity": 0.3937007874015748
		},
		{
		  "duration": 0.10714274999999773,
		  "durationTicks": 96,
		  "midi": 69,
		  "name": "A4",
		  "ticks": 16896,
		  "time": 18.857124000000002,
		  "velocity": 0.3937007874015748
		},
		{
		  "duration": 0.10714274999999773,
		  "durationTicks": 96,
		  "midi": 72,
		  "name": "C5",
		  "ticks": 16896,
		  "time": 18.857124000000002,
		  "velocity": 0.3937007874015748
		},
		{
		  "duration": 0.10714275000000129,
		  "durationTicks": 96,
		  "midi": 71,
		  "name": "B4",
		  "ticks": 17088,
		  "time": 19.0714095,
		  "velocity": 0.3937007874015748
		},
		{
		  "duration": 0.10714275000000129,
		  "durationTicks": 96,
		  "midi": 74,
		  "name": "D5",
		  "ticks": 17088,
		  "time": 19.0714095,
		  "velocity": 0.3937007874015748
		},
		{
		  "duration": 0.10714275000000129,
		  "durationTicks": 96,
		  "midi": 72,
		  "name": "C5",
		  "ticks": 17280,
		  "time": 19.285695,
		  "velocity": 0.3937007874015748
		},
		{
		  "duration": 0.10714275000000129,
		  "durationTicks": 96,
		  "midi": 76,
		  "name": "E5",
		  "ticks": 17280,
		  "time": 19.285695,
		  "velocity": 0.3937007874015748
		},
		{
		  "duration": 0.10714275000000129,
		  "durationTicks": 96,
		  "midi": 45,
		  "name": "A2",
		  "ticks": 17280,
		  "time": 19.285695,
		  "velocity": 0.3937007874015748
		},
		{
		  "duration": 0.10714274999999773,
		  "durationTicks": 96,
		  "midi": 72,
		  "name": "C5",
		  "ticks": 17472,
		  "time": 19.499980500000003,
		  "velocity": 0.3937007874015748
		},
		{
		  "duration": 0.10714274999999773,
		  "durationTicks": 96,
		  "midi": 76,
		  "name": "E5",
		  "ticks": 17472,
		  "time": 19.499980500000003,
		  "velocity": 0.3937007874015748
		},
		{
		  "duration": 0.10714274999999773,
		  "durationTicks": 96,
		  "midi": 57,
		  "name": "A3",
		  "ticks": 17472,
		  "time": 19.499980500000003,
		  "velocity": 0.3937007874015748
		},
		{
		  "duration": 0.10714275000000129,
		  "durationTicks": 96,
		  "midi": 48,
		  "name": "C3",
		  "ticks": 17664,
		  "time": 19.714266000000002,
		  "velocity": 0.3937007874015748
		},
		{
		  "duration": 0.10714275000000129,
		  "durationTicks": 96,
		  "midi": 77,
		  "name": "F5",
		  "ticks": 17664,
		  "time": 19.714266000000002,
		  "velocity": 0.3937007874015748
		},
		{
		  "duration": 0.10714274999999773,
		  "durationTicks": 96,
		  "midi": 76,
		  "name": "E5",
		  "ticks": 17760,
		  "time": 19.821408750000003,
		  "velocity": 0.3937007874015748
		},
		{
		  "duration": 0.10714275000000129,
		  "durationTicks": 96,
		  "midi": 60,
		  "name": "C4",
		  "ticks": 17856,
		  "time": 19.9285515,
		  "velocity": 0.3937007874015748
		},
		{
		  "duration": 0.10714275000000129,
		  "durationTicks": 96,
		  "midi": 74,
		  "name": "D5",
		  "ticks": 17856,
		  "time": 19.9285515,
		  "velocity": 0.3937007874015748
		},
		{
		  "duration": 0.10714274999999773,
		  "durationTicks": 96,
		  "midi": 72,
		  "name": "C5",
		  "ticks": 17952,
		  "time": 20.035694250000002,
		  "velocity": 0.3937007874015748
		},
		{
		  "duration": 0.10714275000000129,
		  "durationTicks": 96,
		  "midi": 71,
		  "name": "B4",
		  "ticks": 18048,
		  "time": 20.142837,
		  "velocity": 0.3937007874015748
		},
		{
		  "duration": 0.10714275000000129,
		  "durationTicks": 96,
		  "midi": 68,
		  "name": "G#4",
		  "ticks": 18048,
		  "time": 20.142837,
		  "velocity": 0.3937007874015748
		},
		{
		  "duration": 0.10714275000000129,
		  "durationTicks": 96,
		  "midi": 52,
		  "name": "E3",
		  "ticks": 18048,
		  "time": 20.142837,
		  "velocity": 0.3937007874015748
		},
		{
		  "duration": 0.10714275000000129,
		  "durationTicks": 96,
		  "midi": 71,
		  "name": "B4",
		  "ticks": 18432,
		  "time": 20.571408,
		  "velocity": 0.3937007874015748
		},
		{
		  "duration": 0.10714274999999773,
		  "durationTicks": 96,
		  "midi": 69,
		  "name": "A4",
		  "ticks": 18528,
		  "time": 20.678550750000003,
		  "velocity": 0.3937007874015748
		},
		{
		  "duration": 0.10714275000000129,
		  "durationTicks": 96,
		  "midi": 68,
		  "name": "G#4",
		  "ticks": 18624,
		  "time": 20.7856935,
		  "velocity": 0.3937007874015748
		},
		{
		  "duration": 0.10714275000000129,
		  "durationTicks": 96,
		  "midi": 69,
		  "name": "A4",
		  "ticks": 18720,
		  "time": 20.892836250000002,
		  "velocity": 0.3937007874015748
		},
		{
		  "duration": 0.10714274999999773,
		  "durationTicks": 96,
		  "midi": 72,
		  "name": "C5",
		  "ticks": 18816,
		  "time": 20.999979000000003,
		  "velocity": 0.3937007874015748
		},
		{
		  "duration": 0.10714274999999773,
		  "durationTicks": 96,
		  "midi": 57,
		  "name": "A3",
		  "ticks": 18816,
		  "time": 20.999979000000003,
		  "velocity": 0.3937007874015748
		},
		{
		  "duration": 0.10714274999999773,
		  "durationTicks": 96,
		  "midi": 60,
		  "name": "C4",
		  "ticks": 19008,
		  "time": 21.214264500000002,
		  "velocity": 0.3937007874015748
		},
		{
		  "duration": 0.10714274999999773,
		  "durationTicks": 96,
		  "midi": 64,
		  "name": "E4",
		  "ticks": 19008,
		  "time": 21.214264500000002,
		  "velocity": 0.3937007874015748
		},
		{
		  "duration": 0.10714275000000129,
		  "durationTicks": 96,
		  "midi": 64,
		  "name": "E4",
		  "ticks": 19200,
		  "time": 21.42855,
		  "velocity": 0.3937007874015748
		},
		{
		  "duration": 0.10714275000000129,
		  "durationTicks": 96,
		  "midi": 60,
		  "name": "C4",
		  "ticks": 19200,
		  "time": 21.42855,
		  "velocity": 0.3937007874015748
		},
		{
		  "duration": 0.10714275000000129,
		  "durationTicks": 96,
		  "midi": 74,
		  "name": "D5",
		  "ticks": 19200,
		  "time": 21.42855,
		  "velocity": 0.3937007874015748
		},
		{
		  "duration": 0.10714274999999773,
		  "durationTicks": 96,
		  "midi": 72,
		  "name": "C5",
		  "ticks": 19296,
		  "time": 21.535692750000003,
		  "velocity": 0.3937007874015748
		},
		{
		  "duration": 0.10714275000000129,
		  "durationTicks": 96,
		  "midi": 60,
		  "name": "C4",
		  "ticks": 19392,
		  "time": 21.6428355,
		  "velocity": 0.3937007874015748
		},
		{
		  "duration": 0.10714275000000129,
		  "durationTicks": 96,
		  "midi": 64,
		  "name": "E4",
		  "ticks": 19392,
		  "time": 21.6428355,
		  "velocity": 0.3937007874015748
		},
		{
		  "duration": 0.10714275000000129,
		  "durationTicks": 96,
		  "midi": 71,
		  "name": "B4",
		  "ticks": 19392,
		  "time": 21.6428355,
		  "velocity": 0.3937007874015748
		},
		{
		  "duration": 0.10714275000000129,
		  "durationTicks": 96,
		  "midi": 72,
		  "name": "C5",
		  "ticks": 19488,
		  "time": 21.74997825,
		  "velocity": 0.3937007874015748
		},
		{
		  "duration": 0.10714274999999773,
		  "durationTicks": 96,
		  "midi": 76,
		  "name": "E5",
		  "ticks": 19584,
		  "time": 21.857121000000003,
		  "velocity": 0.3937007874015748
		},
		{
		  "duration": 0.10714274999999773,
		  "durationTicks": 96,
		  "midi": 57,
		  "name": "A3",
		  "ticks": 19584,
		  "time": 21.857121000000003,
		  "velocity": 0.3937007874015748
		},
		{
		  "duration": 0.10714275000000129,
		  "durationTicks": 96,
		  "midi": 60,
		  "name": "C4",
		  "ticks": 19776,
		  "time": 22.071406500000002,
		  "velocity": 0.3937007874015748
		},
		{
		  "duration": 0.10714275000000129,
		  "durationTicks": 96,
		  "midi": 64,
		  "name": "E4",
		  "ticks": 19776,
		  "time": 22.071406500000002,
		  "velocity": 0.3937007874015748
		},
		{
		  "duration": 0.10714275000000129,
		  "durationTicks": 96,
		  "midi": 64,
		  "name": "E4",
		  "ticks": 19968,
		  "time": 22.285692,
		  "velocity": 0.3937007874015748
		},
		{
		  "duration": 0.10714275000000129,
		  "durationTicks": 96,
		  "midi": 60,
		  "name": "C4",
		  "ticks": 19968,
		  "time": 22.285692,
		  "velocity": 0.3937007874015748
		},
		{
		  "duration": 0.10714275000000129,
		  "durationTicks": 96,
		  "midi": 77,
		  "name": "F5",
		  "ticks": 19968,
		  "time": 22.285692,
		  "velocity": 0.3937007874015748
		},
		{
		  "duration": 0.10714275000000129,
		  "durationTicks": 96,
		  "midi": 76,
		  "name": "E5",
		  "ticks": 20064,
		  "time": 22.392834750000002,
		  "velocity": 0.3937007874015748
		},
		{
		  "duration": 0.10714274999999773,
		  "durationTicks": 96,
		  "midi": 64,
		  "name": "E4",
		  "ticks": 20160,
		  "time": 22.499977500000004,
		  "velocity": 0.3937007874015748
		},
		{
		  "duration": 0.10714274999999773,
		  "durationTicks": 96,
		  "midi": 60,
		  "name": "C4",
		  "ticks": 20160,
		  "time": 22.499977500000004,
		  "velocity": 0.3937007874015748
		},
		{
		  "duration": 0.10714274999999773,
		  "durationTicks": 96,
		  "midi": 75,
		  "name": "D#5",
		  "ticks": 20160,
		  "time": 22.499977500000004,
		  "velocity": 0.3937007874015748
		},
		{
		  "duration": 0.10714275000000129,
		  "durationTicks": 96,
		  "midi": 76,
		  "name": "E5",
		  "ticks": 20256,
		  "time": 22.60712025,
		  "velocity": 0.3937007874015748
		},
		{
		  "duration": 0.10714274999999773,
		  "durationTicks": 96,
		  "midi": 83,
		  "name": "B5",
		  "ticks": 20352,
		  "time": 22.714263000000003,
		  "velocity": 0.3937007874015748
		},
		{
		  "duration": 0.10714274999999773,
		  "durationTicks": 96,
		  "midi": 57,
		  "name": "A3",
		  "ticks": 20352,
		  "time": 22.714263000000003,
		  "velocity": 0.3937007874015748
		},
		{
		  "duration": 0.10714275000000129,
		  "durationTicks": 96,
		  "midi": 81,
		  "name": "A5",
		  "ticks": 20448,
		  "time": 22.82140575,
		  "velocity": 0.3937007874015748
		},
		{
		  "duration": 0.10714275000000129,
		  "durationTicks": 96,
		  "midi": 80,
		  "name": "G#5",
		  "ticks": 20544,
		  "time": 22.9285485,
		  "velocity": 0.3937007874015748
		},
		{
		  "duration": 0.10714275000000129,
		  "durationTicks": 96,
		  "midi": 60,
		  "name": "C4",
		  "ticks": 20544,
		  "time": 22.9285485,
		  "velocity": 0.3937007874015748
		},
		{
		  "duration": 0.10714275000000129,
		  "durationTicks": 96,
		  "midi": 64,
		  "name": "E4",
		  "ticks": 20544,
		  "time": 22.9285485,
		  "velocity": 0.3937007874015748
		},
		{
		  "duration": 0.10714274999999773,
		  "durationTicks": 96,
		  "midi": 81,
		  "name": "A5",
		  "ticks": 20640,
		  "time": 23.035691250000003,
		  "velocity": 0.3937007874015748
		},
		{
		  "duration": 0.10714275000000129,
		  "durationTicks": 96,
		  "midi": 83,
		  "name": "B5",
		  "ticks": 20736,
		  "time": 23.142834,
		  "velocity": 0.3937007874015748
		},
		{
		  "duration": 0.10714275000000129,
		  "durationTicks": 96,
		  "midi": 57,
		  "name": "A3",
		  "ticks": 20736,
		  "time": 23.142834,
		  "velocity": 0.3937007874015748
		},
		{
		  "duration": 0.10714275000000129,
		  "durationTicks": 96,
		  "midi": 81,
		  "name": "A5",
		  "ticks": 20832,
		  "time": 23.249976750000002,
		  "velocity": 0.3937007874015748
		},
		{
		  "duration": 0.10714274999999773,
		  "durationTicks": 96,
		  "midi": 80,
		  "name": "G#5",
		  "ticks": 20928,
		  "time": 23.357119500000003,
		  "velocity": 0.3937007874015748
		},
		{
		  "duration": 0.10714274999999773,
		  "durationTicks": 96,
		  "midi": 60,
		  "name": "C4",
		  "ticks": 20928,
		  "time": 23.357119500000003,
		  "velocity": 0.3937007874015748
		},
		{
		  "duration": 0.10714274999999773,
		  "durationTicks": 96,
		  "midi": 64,
		  "name": "E4",
		  "ticks": 20928,
		  "time": 23.357119500000003,
		  "velocity": 0.3937007874015748
		},
		{
		  "duration": 0.10714275000000129,
		  "durationTicks": 96,
		  "midi": 81,
		  "name": "A5",
		  "ticks": 21024,
		  "time": 23.46426225,
		  "velocity": 0.3937007874015748
		},
		{
		  "duration": 0.10714275000000129,
		  "durationTicks": 96,
		  "midi": 84,
		  "name": "C6",
		  "ticks": 21120,
		  "time": 23.571405000000002,
		  "velocity": 0.3937007874015748
		},
		{
		  "duration": 0.10714275000000129,
		  "durationTicks": 96,
		  "midi": 53,
		  "name": "F3",
		  "ticks": 21120,
		  "time": 23.571405000000002,
		  "velocity": 0.3937007874015748
		},
		{
		  "duration": 0.10714275000000129,
		  "durationTicks": 96,
		  "midi": 57,
		  "name": "A3",
		  "ticks": 21312,
		  "time": 23.7856905,
		  "velocity": 0.3937007874015748
		},
		{
		  "duration": 0.10714275000000129,
		  "durationTicks": 96,
		  "midi": 63,
		  "name": "D#4",
		  "ticks": 21312,
		  "time": 23.7856905,
		  "velocity": 0.3937007874015748
		},
		{
		  "duration": 0.10714274999999773,
		  "durationTicks": 96,
		  "midi": 57,
		  "name": "A3",
		  "ticks": 21504,
		  "time": 23.999976000000004,
		  "velocity": 0.3937007874015748
		},
		{
		  "duration": 0.10714274999999773,
		  "durationTicks": 96,
		  "midi": 63,
		  "name": "D#4",
		  "ticks": 21504,
		  "time": 23.999976000000004,
		  "velocity": 0.3937007874015748
		},
		{
		  "duration": 0.10714274999999773,
		  "durationTicks": 96,
		  "midi": 81,
		  "name": "A5",
		  "ticks": 21504,
		  "time": 23.999976000000004,
		  "velocity": 0.3937007874015748
		},
		{
		  "duration": 0.10714274999999773,
		  "durationTicks": 96,
		  "midi": 57,
		  "name": "A3",
		  "ticks": 21696,
		  "time": 24.214261500000003,
		  "velocity": 0.3937007874015748
		},
		{
		  "duration": 0.10714274999999773,
		  "durationTicks": 96,
		  "midi": 63,
		  "name": "D#4",
		  "ticks": 21696,
		  "time": 24.214261500000003,
		  "velocity": 0.3937007874015748
		},
		{
		  "duration": 0.10714274999999773,
		  "durationTicks": 96,
		  "midi": 83,
		  "name": "B5",
		  "ticks": 21696,
		  "time": 24.214261500000003,
		  "velocity": 0.3937007874015748
		},
		{
		  "duration": 0.10714275000000129,
		  "durationTicks": 96,
		  "midi": 84,
		  "name": "C6",
		  "ticks": 21888,
		  "time": 24.428547000000002,
		  "velocity": 0.3937007874015748
		},
		{
		  "duration": 0.10714275000000129,
		  "durationTicks": 96,
		  "midi": 52,
		  "name": "E3",
		  "ticks": 21888,
		  "time": 24.428547000000002,
		  "velocity": 0.3937007874015748
		},
		{
		  "duration": 0.10714275000000129,
		  "durationTicks": 96,
		  "midi": 57,
		  "name": "A3",
		  "ticks": 22080,
		  "time": 24.6428325,
		  "velocity": 0.3937007874015748
		},
		{
		  "duration": 0.10714275000000129,
		  "durationTicks": 96,
		  "midi": 64,
		  "name": "E4",
		  "ticks": 22080,
		  "time": 24.6428325,
		  "velocity": 0.3937007874015748
		},
		{
		  "duration": 0.10714275000000129,
		  "durationTicks": 96,
		  "midi": 83,
		  "name": "B5",
		  "ticks": 22080,
		  "time": 24.6428325,
		  "velocity": 0.3937007874015748
		},
		{
		  "duration": 0.10714274999999773,
		  "durationTicks": 96,
		  "midi": 50,
		  "name": "D3",
		  "ticks": 22272,
		  "time": 24.857118000000003,
		  "velocity": 0.3937007874015748
		},
		{
		  "duration": 0.10714274999999773,
		  "durationTicks": 96,
		  "midi": 81,
		  "name": "A5",
		  "ticks": 22272,
		  "time": 24.857118000000003,
		  "velocity": 0.3937007874015748
		},
		{
		  "duration": 0.10714275000000129,
		  "durationTicks": 96,
		  "midi": 53,
		  "name": "F3",
		  "ticks": 22464,
		  "time": 25.071403500000002,
		  "velocity": 0.3937007874015748
		},
		{
		  "duration": 0.10714275000000129,
		  "durationTicks": 96,
		  "midi": 80,
		  "name": "G#5",
		  "ticks": 22464,
		  "time": 25.071403500000002,
		  "velocity": 0.3937007874015748
		},
		{
		  "duration": 0.10714275000000129,
		  "durationTicks": 96,
		  "midi": 59,
		  "name": "B3",
		  "ticks": 22464,
		  "time": 25.071403500000002,
		  "velocity": 0.3937007874015748
		},
		{
		  "duration": 0.10714275000000129,
		  "durationTicks": 96,
		  "midi": 81,
		  "name": "A5",
		  "ticks": 22656,
		  "time": 25.285689,
		  "velocity": 0.3937007874015748
		},
		{
		  "duration": 0.10714275000000129,
		  "durationTicks": 96,
		  "midi": 48,
		  "name": "C3",
		  "ticks": 22656,
		  "time": 25.285689,
		  "velocity": 0.3937007874015748
		},
		{
		  "duration": 0.10714275000000129,
		  "durationTicks": 96,
		  "midi": 52,
		  "name": "E3",
		  "ticks": 22848,
		  "time": 25.4999745,
		  "velocity": 0.3937007874015748
		},
		{
		  "duration": 0.10714275000000129,
		  "durationTicks": 96,
		  "midi": 57,
		  "name": "A3",
		  "ticks": 22848,
		  "time": 25.4999745,
		  "velocity": 0.3937007874015748
		},
		{
		  "duration": 0.10714275000000129,
		  "durationTicks": 96,
		  "midi": 76,
		  "name": "E5",
		  "ticks": 22848,
		  "time": 25.4999745,
		  "velocity": 0.3937007874015748
		},
		{
		  "duration": 0.10714274999999773,
		  "durationTicks": 96,
		  "midi": 77,
		  "name": "F5",
		  "ticks": 23040,
		  "time": 25.714260000000003,
		  "velocity": 0.3937007874015748
		},
		{
		  "duration": 0.10714274999999773,
		  "durationTicks": 96,
		  "midi": 50,
		  "name": "D3",
		  "ticks": 23040,
		  "time": 25.714260000000003,
		  "velocity": 0.3937007874015748
		},
		{
		  "duration": 0.10714275000000129,
		  "durationTicks": 96,
		  "midi": 74,
		  "name": "D5",
		  "ticks": 23232,
		  "time": 25.928545500000002,
		  "velocity": 0.3937007874015748
		},
		{
		  "duration": 0.10714275000000129,
		  "durationTicks": 96,
		  "midi": 53,
		  "name": "F3",
		  "ticks": 23232,
		  "time": 25.928545500000002,
		  "velocity": 0.3937007874015748
		},
		{
		  "duration": 0.10714275000000129,
		  "durationTicks": 96,
		  "midi": 59,
		  "name": "B3",
		  "ticks": 23232,
		  "time": 25.928545500000002,
		  "velocity": 0.3937007874015748
		},
		{
		  "duration": 0.10714275000000129,
		  "durationTicks": 96,
		  "midi": 72,
		  "name": "C5",
		  "ticks": 23424,
		  "time": 26.142831,
		  "velocity": 0.3937007874015748
		},
		{
		  "duration": 0.10714275000000129,
		  "durationTicks": 96,
		  "midi": 52,
		  "name": "E3",
		  "ticks": 23424,
		  "time": 26.142831,
		  "velocity": 0.3937007874015748
		},
		{
		  "duration": 0.10714275000000129,
		  "durationTicks": 96,
		  "midi": 57,
		  "name": "A3",
		  "ticks": 23424,
		  "time": 26.142831,
		  "velocity": 0.3937007874015748
		},
		{
		  "duration": 0.10714274999999773,
		  "durationTicks": 96,
		  "midi": 57,
		  "name": "A3",
		  "ticks": 23616,
		  "time": 26.357116500000004,
		  "velocity": 0.3937007874015748
		},
		{
		  "duration": 0.10714274999999773,
		  "durationTicks": 96,
		  "midi": 52,
		  "name": "E3",
		  "ticks": 23616,
		  "time": 26.357116500000004,
		  "velocity": 0.3937007874015748
		},
		{
		  "duration": 0.10714275000000129,
		  "durationTicks": 96,
		  "midi": 52,
		  "name": "E3",
		  "ticks": 23808,
		  "time": 26.571402000000003,
		  "velocity": 0.3937007874015748
		},
		{
		  "duration": 0.10714275000000129,
		  "durationTicks": 96,
		  "midi": 56,
		  "name": "G#3",
		  "ticks": 23808,
		  "time": 26.571402000000003,
		  "velocity": 0.3937007874015748
		},
		{
		  "duration": 0.05357137500000064,
		  "durationTicks": 48,
		  "midi": 71,
		  "name": "B4",
		  "ticks": 23808,
		  "time": 26.571402000000003,
		  "velocity": 0.3937007874015748
		},
		{
		  "duration": 0.05357137500000064,
		  "durationTicks": 48,
		  "midi": 72,
		  "name": "C5",
		  "ticks": 23856,
		  "time": 26.624973375000003,
		  "velocity": 0.3937007874015748
		},
		{
		  "duration": 0.05357137499999709,
		  "durationTicks": 48,
		  "midi": 71,
		  "name": "B4",
		  "ticks": 23904,
		  "time": 26.678544750000004,
		  "velocity": 0.3937007874015748
		},
		{
		  "duration": 0.10714275000000129,
		  "durationTicks": 96,
		  "midi": 52,
		  "name": "E3",
		  "ticks": 24000,
		  "time": 26.7856875,
		  "velocity": 0.3937007874015748
		},
		{
		  "duration": 0.10714275000000129,
		  "durationTicks": 96,
		  "midi": 56,
		  "name": "G#3",
		  "ticks": 24000,
		  "time": 26.7856875,
		  "velocity": 0.3937007874015748
		},
		{
		  "duration": 0.05357137500000064,
		  "durationTicks": 48,
		  "midi": 69,
		  "name": "A4",
		  "ticks": 24000,
		  "time": 26.7856875,
		  "velocity": 0.3937007874015748
		},
		{
		  "duration": 0.05357137500000064,
		  "durationTicks": 48,
		  "midi": 71,
		  "name": "B4",
		  "ticks": 24048,
		  "time": 26.839258875000002,
		  "velocity": 0.3937007874015748
		},
		{
		  "duration": 0.05357137500000064,
		  "durationTicks": 48,
		  "midi": 69,
		  "name": "A4",
		  "ticks": 24192,
		  "time": 26.999973,
		  "velocity": 0.3937007874015748
		},
		{
		  "duration": 0.10714275000000129,
		  "durationTicks": 96,
		  "midi": 57,
		  "name": "A3",
		  "ticks": 24192,
		  "time": 26.999973,
		  "velocity": 0.3937007874015748
		},
		{
		  "duration": 0.10714275000000129,
		  "durationTicks": 96,
		  "midi": 45,
		  "name": "A2",
		  "ticks": 24192,
		  "time": 26.999973,
		  "velocity": 0.3937007874015748
		},
		{
		  "duration": 0.10714275000000129,
		  "durationTicks": 96,
		  "midi": 69,
		  "name": "A4",
		  "ticks": 24576,
		  "time": 27.428544000000002,
		  "velocity": 0.3937007874015748
		},
		{
		  "duration": 0.10714275000000129,
		  "durationTicks": 96,
		  "midi": 81,
		  "name": "A5",
		  "ticks": 24576,
		  "time": 27.428544000000002,
		  "velocity": 0.3937007874015748
		},
		{
		  "duration": 0.10714275000000129,
		  "durationTicks": 96,
		  "midi": 71,
		  "name": "B4",
		  "ticks": 24768,
		  "time": 27.6428295,
		  "velocity": 0.3937007874015748
		},
		{
		  "duration": 0.10714275000000129,
		  "durationTicks": 96,
		  "midi": 83,
		  "name": "B5",
		  "ticks": 24768,
		  "time": 27.6428295,
		  "velocity": 0.3937007874015748
		},
		{
		  "duration": 0.10714274999999773,
		  "durationTicks": 96,
		  "midi": 85,
		  "name": "C#6",
		  "ticks": 24960,
		  "time": 27.857115000000004,
		  "velocity": 0.3937007874015748
		},
		{
		  "duration": 0.10714274999999773,
		  "durationTicks": 96,
		  "midi": 73,
		  "name": "C#5",
		  "ticks": 24960,
		  "time": 27.857115000000004,
		  "velocity": 0.3937007874015748
		},
		{
		  "duration": 0.026785687499998545,
		  "durationTicks": 24,
		  "midi": 45,
		  "name": "A2",
		  "ticks": 24960,
		  "time": 27.857115000000004,
		  "velocity": 0.3937007874015748
		},
		{
		  "duration": 0.026785687499998545,
		  "durationTicks": 24,
		  "midi": 49,
		  "name": "C#3",
		  "ticks": 24984,
		  "time": 27.883900687500002,
		  "velocity": 0.3937007874015748
		},
		{
		  "duration": 0.026785687500002098,
		  "durationTicks": 24,
		  "midi": 52,
		  "name": "E3",
		  "ticks": 25008,
		  "time": 27.910686375,
		  "velocity": 0.3937007874015748
		},
		{
		  "duration": 0.026785687499998545,
		  "durationTicks": 24,
		  "midi": 57,
		  "name": "A3",
		  "ticks": 25032,
		  "time": 27.937472062500003,
		  "velocity": 0.3937007874015748
		},
		{
		  "duration": 0.10714274999999773,
		  "durationTicks": 96,
		  "midi": 57,
		  "name": "A3",
		  "ticks": 25152,
		  "time": 28.071400500000003,
		  "velocity": 0.3937007874015748
		},
		{
		  "duration": 0.10714275000000129,
		  "durationTicks": 96,
		  "midi": 57,
		  "name": "A3",
		  "ticks": 25344,
		  "time": 28.285686000000002,
		  "velocity": 0.3937007874015748
		},
		{
		  "duration": 0.10714275000000129,
		  "durationTicks": 96,
		  "midi": 69,
		  "name": "A4",
		  "ticks": 25344,
		  "time": 28.285686000000002,
		  "velocity": 0.3937007874015748
		},
		{
		  "duration": 0.10714275000000129,
		  "durationTicks": 96,
		  "midi": 81,
		  "name": "A5",
		  "ticks": 25344,
		  "time": 28.285686000000002,
		  "velocity": 0.3937007874015748
		},
		{
		  "duration": 0.10714275000000129,
		  "durationTicks": 96,
		  "midi": 57,
		  "name": "A3",
		  "ticks": 25536,
		  "time": 28.4999715,
		  "velocity": 0.3937007874015748
		},
		{
		  "duration": 0.10714275000000129,
		  "durationTicks": 96,
		  "midi": 71,
		  "name": "B4",
		  "ticks": 25536,
		  "time": 28.4999715,
		  "velocity": 0.3937007874015748
		},
		{
		  "duration": 0.10714275000000129,
		  "durationTicks": 96,
		  "midi": 83,
		  "name": "B5",
		  "ticks": 25536,
		  "time": 28.4999715,
		  "velocity": 0.3937007874015748
		},
		{
		  "duration": 0.10714274999999773,
		  "durationTicks": 96,
		  "midi": 73,
		  "name": "C#5",
		  "ticks": 25728,
		  "time": 28.714257000000003,
		  "velocity": 0.3937007874015748
		},
		{
		  "duration": 0.026785687499998545,
		  "durationTicks": 24,
		  "midi": 45,
		  "name": "A2",
		  "ticks": 25728,
		  "time": 28.714257000000003,
		  "velocity": 0.3937007874015748
		},
		{
		  "duration": 0.10714274999999773,
		  "durationTicks": 96,
		  "midi": 85,
		  "name": "C#6",
		  "ticks": 25728,
		  "time": 28.714257000000003,
		  "velocity": 0.3937007874015748
		},
		{
		  "duration": 0.026785687500002098,
		  "durationTicks": 24,
		  "midi": 49,
		  "name": "C#3",
		  "ticks": 25752,
		  "time": 28.741042687500002,
		  "velocity": 0.3937007874015748
		},
		{
		  "duration": 0.026785687499998545,
		  "durationTicks": 24,
		  "midi": 52,
		  "name": "E3",
		  "ticks": 25776,
		  "time": 28.767828375000004,
		  "velocity": 0.3937007874015748
		},
		{
		  "duration": 0.026785687499998545,
		  "durationTicks": 24,
		  "midi": 57,
		  "name": "A3",
		  "ticks": 25800,
		  "time": 28.794614062500003,
		  "velocity": 0.3937007874015748
		},
		{
		  "duration": 0.10714275000000129,
		  "durationTicks": 96,
		  "midi": 71,
		  "name": "B4",
		  "ticks": 25920,
		  "time": 28.928542500000002,
		  "velocity": 0.3937007874015748
		},
		{
		  "duration": 0.10714275000000129,
		  "durationTicks": 96,
		  "midi": 57,
		  "name": "A3",
		  "ticks": 25920,
		  "time": 28.928542500000002,
		  "velocity": 0.3937007874015748
		},
		{
		  "duration": 0.10714275000000129,
		  "durationTicks": 96,
		  "midi": 83,
		  "name": "B5",
		  "ticks": 25920,
		  "time": 28.928542500000002,
		  "velocity": 0.3937007874015748
		},
		{
		  "duration": 0.10714275000000129,
		  "durationTicks": 96,
		  "midi": 69,
		  "name": "A4",
		  "ticks": 26112,
		  "time": 29.142828,
		  "velocity": 0.3937007874015748
		},
		{
		  "duration": 0.10714275000000129,
		  "durationTicks": 96,
		  "midi": 57,
		  "name": "A3",
		  "ticks": 26112,
		  "time": 29.142828,
		  "velocity": 0.3937007874015748
		},
		{
		  "duration": 0.10714275000000129,
		  "durationTicks": 96,
		  "midi": 81,
		  "name": "A5",
		  "ticks": 26112,
		  "time": 29.142828,
		  "velocity": 0.3937007874015748
		},
		{
		  "duration": 0.10714274999999773,
		  "durationTicks": 96,
		  "midi": 68,
		  "name": "G#4",
		  "ticks": 26304,
		  "time": 29.357113500000004,
		  "velocity": 0.3937007874015748
		},
		{
		  "duration": 0.10714274999999773,
		  "durationTicks": 96,
		  "midi": 57,
		  "name": "A3",
		  "ticks": 26304,
		  "time": 29.357113500000004,
		  "velocity": 0.3937007874015748
		},
		{
		  "duration": 0.10714274999999773,
		  "durationTicks": 96,
		  "midi": 80,
		  "name": "G#5",
		  "ticks": 26304,
		  "time": 29.357113500000004,
		  "velocity": 0.3937007874015748
		},
		{
		  "duration": 0.10714274999999773,
		  "durationTicks": 96,
		  "midi": 66,
		  "name": "F#4",
		  "ticks": 26496,
		  "time": 29.571399000000003,
		  "velocity": 0.3937007874015748
		},
		{
		  "duration": 0.10714274999999773,
		  "durationTicks": 96,
		  "midi": 78,
		  "name": "F#5",
		  "ticks": 26496,
		  "time": 29.571399000000003,
		  "velocity": 0.3937007874015748
		},
		{
		  "duration": 0.026785687499998545,
		  "durationTicks": 24,
		  "midi": 38,
		  "name": "D2",
		  "ticks": 26496,
		  "time": 29.571399000000003,
		  "velocity": 0.3937007874015748
		},
		{
		  "duration": 0.026785687500002098,
		  "durationTicks": 24,
		  "midi": 42,
		  "name": "F#2",
		  "ticks": 26520,
		  "time": 29.5981846875,
		  "velocity": 0.3937007874015748
		},
		{
		  "duration": 0.026785687499998545,
		  "durationTicks": 24,
		  "midi": 45,
		  "name": "A2",
		  "ticks": 26544,
		  "time": 29.624970375000004,
		  "velocity": 0.3937007874015748
		},
		{
		  "duration": 0.026785687499998545,
		  "durationTicks": 24,
		  "midi": 50,
		  "name": "D3",
		  "ticks": 26568,
		  "time": 29.651756062500002,
		  "velocity": 0.3937007874015748
		},
		{
		  "duration": 0.10714275000000129,
		  "durationTicks": 96,
		  "midi": 68,
		  "name": "G#4",
		  "ticks": 26688,
		  "time": 29.785684500000002,
		  "velocity": 0.3937007874015748
		},
		{
		  "duration": 0.10714275000000129,
		  "durationTicks": 96,
		  "midi": 80,
		  "name": "G#5",
		  "ticks": 26688,
		  "time": 29.785684500000002,
		  "velocity": 0.3937007874015748
		},
		{
		  "duration": 0.10714275000000129,
		  "durationTicks": 96,
		  "midi": 50,
		  "name": "D3",
		  "ticks": 26688,
		  "time": 29.785684500000002,
		  "velocity": 0.3937007874015748
		},
		{
		  "duration": 0.10714275000000129,
		  "durationTicks": 96,
		  "midi": 69,
		  "name": "A4",
		  "ticks": 26880,
		  "time": 29.99997,
		  "velocity": 0.3937007874015748
		},
		{
		  "duration": 0.10714275000000129,
		  "durationTicks": 96,
		  "midi": 81,
		  "name": "A5",
		  "ticks": 26880,
		  "time": 29.99997,
		  "velocity": 0.3937007874015748
		},
		{
		  "duration": 0.026785687500002098,
		  "durationTicks": 24,
		  "midi": 39,
		  "name": "D#2",
		  "ticks": 26880,
		  "time": 29.99997,
		  "velocity": 0.3937007874015748
		},
		{
		  "duration": 0.026785687499998545,
		  "durationTicks": 24,
		  "midi": 42,
		  "name": "F#2",
		  "ticks": 26904,
		  "time": 30.026755687500003,
		  "velocity": 0.3937007874015748
		},
		{
		  "duration": 0.026785687500002098,
		  "durationTicks": 24,
		  "midi": 45,
		  "name": "A2",
		  "ticks": 26928,
		  "time": 30.053541375000002,
		  "velocity": 0.3937007874015748
		},
		{
		  "duration": 0.026785687499998545,
		  "durationTicks": 24,
		  "midi": 51,
		  "name": "D#3",
		  "ticks": 26952,
		  "time": 30.080327062500004,
		  "velocity": 0.3937007874015748
		},
		{
		  "duration": 0.10714274999999773,
		  "durationTicks": 96,
		  "midi": 71,
		  "name": "B4",
		  "ticks": 27072,
		  "time": 30.214255500000004,
		  "velocity": 0.3937007874015748
		},
		{
		  "duration": 0.10714274999999773,
		  "durationTicks": 96,
		  "midi": 83,
		  "name": "B5",
		  "ticks": 27072,
		  "time": 30.214255500000004,
		  "velocity": 0.3937007874015748
		},
		{
		  "duration": 0.10714274999999773,
		  "durationTicks": 96,
		  "midi": 51,
		  "name": "D#3",
		  "ticks": 27072,
		  "time": 30.214255500000004,
		  "velocity": 0.3937007874015748
		},
		{
		  "duration": 0.10714275000000129,
		  "durationTicks": 96,
		  "midi": 80,
		  "name": "G#5",
		  "ticks": 27264,
		  "time": 30.428541000000003,
		  "velocity": 0.3937007874015748
		},
		{
		  "duration": 0.10714275000000129,
		  "durationTicks": 96,
		  "midi": 68,
		  "name": "G#4",
		  "ticks": 27264,
		  "time": 30.428541000000003,
		  "velocity": 0.3937007874015748
		},
		{
		  "duration": 0.026785687499998545,
		  "durationTicks": 24,
		  "midi": 40,
		  "name": "E2",
		  "ticks": 27264,
		  "time": 30.428541000000003,
		  "velocity": 0.3937007874015748
		},
		{
		  "duration": 0.026785687500002098,
		  "durationTicks": 24,
		  "midi": 44,
		  "name": "G#2",
		  "ticks": 27288,
		  "time": 30.4553266875,
		  "velocity": 0.3937007874015748
		},
		{
		  "duration": 0.026785687499998545,
		  "durationTicks": 24,
		  "midi": 47,
		  "name": "B2",
		  "ticks": 27312,
		  "time": 30.482112375000003,
		  "velocity": 0.3937007874015748
		},
		{
		  "duration": 0.026785687500002098,
		  "durationTicks": 24,
		  "midi": 52,
		  "name": "E3",
		  "ticks": 27336,
		  "time": 30.508898062500002,
		  "velocity": 0.3937007874015748
		},
		{
		  "duration": 0.10714275000000129,
		  "durationTicks": 96,
		  "midi": 76,
		  "name": "E5",
		  "ticks": 27456,
		  "time": 30.6428265,
		  "velocity": 0.3937007874015748
		},
		{
		  "duration": 0.10714275000000129,
		  "durationTicks": 96,
		  "midi": 64,
		  "name": "E4",
		  "ticks": 27456,
		  "time": 30.6428265,
		  "velocity": 0.3937007874015748
		},
		{
		  "duration": 0.10714275000000129,
		  "durationTicks": 96,
		  "midi": 52,
		  "name": "E3",
		  "ticks": 27456,
		  "time": 30.6428265,
		  "velocity": 0.3937007874015748
		},
		{
		  "duration": 0.10714275000000129,
		  "durationTicks": 96,
		  "midi": 52,
		  "name": "E3",
		  "ticks": 27648,
		  "time": 30.857112,
		  "velocity": 0.3937007874015748
		},
		{
		  "duration": 0.10714275000000129,
		  "durationTicks": 96,
		  "midi": 69,
		  "name": "A4",
		  "ticks": 27648,
		  "time": 30.857112,
		  "velocity": 0.3937007874015748
		},
		{
		  "duration": 0.10714275000000129,
		  "durationTicks": 96,
		  "midi": 81,
		  "name": "A5",
		  "ticks": 27648,
		  "time": 30.857112,
		  "velocity": 0.3937007874015748
		},
		{
		  "duration": 0.10714274999999773,
		  "durationTicks": 96,
		  "midi": 52,
		  "name": "E3",
		  "ticks": 27840,
		  "time": 31.071397500000003,
		  "velocity": 0.3937007874015748
		},
		{
		  "duration": 0.10714274999999773,
		  "durationTicks": 96,
		  "midi": 71,
		  "name": "B4",
		  "ticks": 27840,
		  "time": 31.071397500000003,
		  "velocity": 0.3937007874015748
		},
		{
		  "duration": 0.10714274999999773,
		  "durationTicks": 96,
		  "midi": 83,
		  "name": "B5",
		  "ticks": 27840,
		  "time": 31.071397500000003,
		  "velocity": 0.3937007874015748
		},
		{
		  "duration": 0.10714275000000129,
		  "durationTicks": 96,
		  "midi": 73,
		  "name": "C#5",
		  "ticks": 28032,
		  "time": 31.285683000000002,
		  "velocity": 0.3937007874015748
		},
		{
		  "duration": 0.10714275000000129,
		  "durationTicks": 96,
		  "midi": 85,
		  "name": "C#6",
		  "ticks": 28032,
		  "time": 31.285683000000002,
		  "velocity": 0.3937007874015748
		},
		{
		  "duration": 0.026785687499998545,
		  "durationTicks": 24,
		  "midi": 45,
		  "name": "A2",
		  "ticks": 28032,
		  "time": 31.285683000000002,
		  "velocity": 0.3937007874015748
		},
		{
		  "duration": 0.026785687500002098,
		  "durationTicks": 24,
		  "midi": 49,
		  "name": "C#3",
		  "ticks": 28056,
		  "time": 31.3124686875,
		  "velocity": 0.3937007874015748
		},
		{
		  "duration": 0.026785687499998545,
		  "durationTicks": 24,
		  "midi": 52,
		  "name": "E3",
		  "ticks": 28080,
		  "time": 31.339254375000003,
		  "velocity": 0.3937007874015748
		},
		{
		  "duration": 0.026785687500002098,
		  "durationTicks": 24,
		  "midi": 57,
		  "name": "A3",
		  "ticks": 28104,
		  "time": 31.3660400625,
		  "velocity": 0.3937007874015748
		},
		{
		  "duration": 0.10714275000000129,
		  "durationTicks": 96,
		  "midi": 57,
		  "name": "A3",
		  "ticks": 28224,
		  "time": 31.4999685,
		  "velocity": 0.3937007874015748
		},
		{
		  "duration": 0.10714274999999773,
		  "durationTicks": 96,
		  "midi": 57,
		  "name": "A3",
		  "ticks": 28416,
		  "time": 31.714254000000004,
		  "velocity": 0.3937007874015748
		},
		{
		  "duration": 0.10714274999999773,
		  "durationTicks": 96,
		  "midi": 69,
		  "name": "A4",
		  "ticks": 28416,
		  "time": 31.714254000000004,
		  "velocity": 0.3937007874015748
		},
		{
		  "duration": 0.10714274999999773,
		  "durationTicks": 96,
		  "midi": 81,
		  "name": "A5",
		  "ticks": 28416,
		  "time": 31.714254000000004,
		  "velocity": 0.3937007874015748
		},
		{
		  "duration": 0.10714274999999773,
		  "durationTicks": 96,
		  "midi": 57,
		  "name": "A3",
		  "ticks": 28608,
		  "time": 31.928539500000003,
		  "velocity": 0.3937007874015748
		},
		{
		  "duration": 0.10714274999999773,
		  "durationTicks": 96,
		  "midi": 71,
		  "name": "B4",
		  "ticks": 28608,
		  "time": 31.928539500000003,
		  "velocity": 0.3937007874015748
		},
		{
		  "duration": 0.10714274999999773,
		  "durationTicks": 96,
		  "midi": 83,
		  "name": "B5",
		  "ticks": 28608,
		  "time": 31.928539500000003,
		  "velocity": 0.3937007874015748
		},
		{
		  "duration": 0.10714275000000129,
		  "durationTicks": 96,
		  "midi": 73,
		  "name": "C#5",
		  "ticks": 28800,
		  "time": 32.142825,
		  "velocity": 0.3937007874015748
		},
		{
		  "duration": 0.10714275000000129,
		  "durationTicks": 96,
		  "midi": 85,
		  "name": "C#6",
		  "ticks": 28800,
		  "time": 32.142825,
		  "velocity": 0.3937007874015748
		},
		{
		  "duration": 0.026785687500002098,
		  "durationTicks": 24,
		  "midi": 45,
		  "name": "A2",
		  "ticks": 28800,
		  "time": 32.142825,
		  "velocity": 0.3937007874015748
		},
		{
		  "duration": 0.026785687500002098,
		  "durationTicks": 24,
		  "midi": 49,
		  "name": "C#3",
		  "ticks": 28824,
		  "time": 32.169610687500004,
		  "velocity": 0.3937007874015748
		},
		{
		  "duration": 0.026785687499994992,
		  "durationTicks": 24,
		  "midi": 52,
		  "name": "E3",
		  "ticks": 28848,
		  "time": 32.196396375000006,
		  "velocity": 0.3937007874015748
		},
		{
		  "duration": 0.026785687500002098,
		  "durationTicks": 24,
		  "midi": 57,
		  "name": "A3",
		  "ticks": 28872,
		  "time": 32.2231820625,
		  "velocity": 0.3937007874015748
		},
		{
		  "duration": 0.10714275000000129,
		  "durationTicks": 96,
		  "midi": 57,
		  "name": "A3",
		  "ticks": 28992,
		  "time": 32.357110500000005,
		  "velocity": 0.3937007874015748
		},
		{
		  "duration": 0.10714275000000129,
		  "durationTicks": 96,
		  "midi": 83,
		  "name": "B5",
		  "ticks": 28992,
		  "time": 32.357110500000005,
		  "velocity": 0.3937007874015748
		},
		{
		  "duration": 0.10714275000000129,
		  "durationTicks": 96,
		  "midi": 71,
		  "name": "B4",
		  "ticks": 28992,
		  "time": 32.357110500000005,
		  "velocity": 0.3937007874015748
		},
		{
		  "duration": 0.10714275000000129,
		  "durationTicks": 96,
		  "midi": 57,
		  "name": "A3",
		  "ticks": 29184,
		  "time": 32.571396,
		  "velocity": 0.3937007874015748
		},
		{
		  "duration": 0.10714275000000129,
		  "durationTicks": 96,
		  "midi": 81,
		  "name": "A5",
		  "ticks": 29184,
		  "time": 32.571396,
		  "velocity": 0.3937007874015748
		},
		{
		  "duration": 0.10714275000000129,
		  "durationTicks": 96,
		  "midi": 69,
		  "name": "A4",
		  "ticks": 29184,
		  "time": 32.571396,
		  "velocity": 0.3937007874015748
		},
		{
		  "duration": 0.10714275000000129,
		  "durationTicks": 96,
		  "midi": 57,
		  "name": "A3",
		  "ticks": 29376,
		  "time": 32.7856815,
		  "velocity": 0.3937007874015748
		},
		{
		  "duration": 0.10714275000000129,
		  "durationTicks": 96,
		  "midi": 80,
		  "name": "G#5",
		  "ticks": 29376,
		  "time": 32.7856815,
		  "velocity": 0.3937007874015748
		},
		{
		  "duration": 0.10714275000000129,
		  "durationTicks": 96,
		  "midi": 68,
		  "name": "G#4",
		  "ticks": 29376,
		  "time": 32.7856815,
		  "velocity": 0.3937007874015748
		},
		{
		  "duration": 0.10714274999999418,
		  "durationTicks": 96,
		  "midi": 78,
		  "name": "F#5",
		  "ticks": 29568,
		  "time": 32.999967000000005,
		  "velocity": 0.3937007874015748
		},
		{
		  "duration": 0.10714274999999418,
		  "durationTicks": 96,
		  "midi": 66,
		  "name": "F#4",
		  "ticks": 29568,
		  "time": 32.999967000000005,
		  "velocity": 0.3937007874015748
		},
		{
		  "duration": 0.026785687499994992,
		  "durationTicks": 24,
		  "midi": 38,
		  "name": "D2",
		  "ticks": 29568,
		  "time": 32.999967000000005,
		  "velocity": 0.3937007874015748
		},
		{
		  "duration": 0.026785687500002098,
		  "durationTicks": 24,
		  "midi": 42,
		  "name": "F#2",
		  "ticks": 29592,
		  "time": 33.0267526875,
		  "velocity": 0.3937007874015748
		},
		{
		  "duration": 0.026785687500002098,
		  "durationTicks": 24,
		  "midi": 45,
		  "name": "A2",
		  "ticks": 29616,
		  "time": 33.053538375,
		  "velocity": 0.3937007874015748
		},
		{
		  "duration": 0.026785687499994992,
		  "durationTicks": 24,
		  "midi": 50,
		  "name": "D3",
		  "ticks": 29640,
		  "time": 33.080324062500004,
		  "velocity": 0.3937007874015748
		},
		{
		  "duration": 0.10714275000000129,
		  "durationTicks": 96,
		  "midi": 50,
		  "name": "D3",
		  "ticks": 29760,
		  "time": 33.2142525,
		  "velocity": 0.3937007874015748
		},
		{
		  "duration": 0.10714275000000129,
		  "durationTicks": 96,
		  "midi": 71,
		  "name": "B4",
		  "ticks": 29760,
		  "time": 33.2142525,
		  "velocity": 0.3937007874015748
		},
		{
		  "duration": 0.10714275000000129,
		  "durationTicks": 96,
		  "midi": 83,
		  "name": "B5",
		  "ticks": 29760,
		  "time": 33.2142525,
		  "velocity": 0.3937007874015748
		},
		{
		  "duration": 0.026785687500002098,
		  "durationTicks": 24,
		  "midi": 40,
		  "name": "E2",
		  "ticks": 29952,
		  "time": 33.428538,
		  "velocity": 0.3937007874015748
		},
		{
		  "duration": 0.10714275000000129,
		  "durationTicks": 96,
		  "midi": 68,
		  "name": "G#4",
		  "ticks": 29952,
		  "time": 33.428538,
		  "velocity": 0.3937007874015748
		},
		{
		  "duration": 0.10714275000000129,
		  "durationTicks": 96,
		  "midi": 80,
		  "name": "G#5",
		  "ticks": 29952,
		  "time": 33.428538,
		  "velocity": 0.3937007874015748
		},
		{
		  "duration": 0.026785687499994992,
		  "durationTicks": 24,
		  "midi": 44,
		  "name": "G#2",
		  "ticks": 29976,
		  "time": 33.455323687500005,
		  "velocity": 0.3937007874015748
		},
		{
		  "duration": 0.026785687500002098,
		  "durationTicks": 24,
		  "midi": 47,
		  "name": "B2",
		  "ticks": 30000,
		  "time": 33.482109375,
		  "velocity": 0.3937007874015748
		},
		{
		  "duration": 0.026785687500002098,
		  "durationTicks": 24,
		  "midi": 52,
		  "name": "E3",
		  "ticks": 30024,
		  "time": 33.5088950625,
		  "velocity": 0.3937007874015748
		},
		{
		  "duration": 0.10714274999999418,
		  "durationTicks": 96,
		  "midi": 52,
		  "name": "E3",
		  "ticks": 30144,
		  "time": 33.642823500000006,
		  "velocity": 0.3937007874015748
		},
		{
		  "duration": 0.10714274999999418,
		  "durationTicks": 96,
		  "midi": 64,
		  "name": "E4",
		  "ticks": 30144,
		  "time": 33.642823500000006,
		  "velocity": 0.3937007874015748
		},
		{
		  "duration": 0.10714274999999418,
		  "durationTicks": 96,
		  "midi": 76,
		  "name": "E5",
		  "ticks": 30144,
		  "time": 33.642823500000006,
		  "velocity": 0.3937007874015748
		},
		{
		  "duration": 0.10714275000000129,
		  "durationTicks": 96,
		  "midi": 69,
		  "name": "A4",
		  "ticks": 30336,
		  "time": 33.857109,
		  "velocity": 0.3937007874015748
		},
		{
		  "duration": 0.10714275000000129,
		  "durationTicks": 96,
		  "midi": 81,
		  "name": "A5",
		  "ticks": 30336,
		  "time": 33.857109,
		  "velocity": 0.3937007874015748
		},
		{
		  "duration": 0.10714275000000129,
		  "durationTicks": 96,
		  "midi": 45,
		  "name": "A2",
		  "ticks": 30336,
		  "time": 33.857109,
		  "velocity": 0.3937007874015748
		},
		{
		  "duration": 0.10714275000000129,
		  "durationTicks": 96,
		  "midi": 69,
		  "name": "A4",
		  "ticks": 30720,
		  "time": 34.28568,
		  "velocity": 0.3937007874015748
		},
		{
		  "duration": 0.10714275000000129,
		  "durationTicks": 96,
		  "midi": 81,
		  "name": "A5",
		  "ticks": 30720,
		  "time": 34.28568,
		  "velocity": 0.3937007874015748
		},
		{
		  "duration": 0.10714275000000129,
		  "durationTicks": 96,
		  "midi": 71,
		  "name": "B4",
		  "ticks": 30912,
		  "time": 34.4999655,
		  "velocity": 0.3937007874015748
		},
		{
		  "duration": 0.10714275000000129,
		  "durationTicks": 96,
		  "midi": 83,
		  "name": "B5",
		  "ticks": 30912,
		  "time": 34.4999655,
		  "velocity": 0.3937007874015748
		},
		{
		  "duration": 0.10714275000000129,
		  "durationTicks": 96,
		  "midi": 85,
		  "name": "C#6",
		  "ticks": 31104,
		  "time": 34.714251000000004,
		  "velocity": 0.3937007874015748
		},
		{
		  "duration": 0.10714275000000129,
		  "durationTicks": 96,
		  "midi": 73,
		  "name": "C#5",
		  "ticks": 31104,
		  "time": 34.714251000000004,
		  "velocity": 0.3937007874015748
		},
		{
		  "duration": 0.026785687499994992,
		  "durationTicks": 24,
		  "midi": 45,
		  "name": "A2",
		  "ticks": 31104,
		  "time": 34.714251000000004,
		  "velocity": 0.3937007874015748
		},
		{
		  "duration": 0.026785687500002098,
		  "durationTicks": 24,
		  "midi": 49,
		  "name": "C#3",
		  "ticks": 31128,
		  "time": 34.7410366875,
		  "velocity": 0.3937007874015748
		},
		{
		  "duration": 0.026785687500002098,
		  "durationTicks": 24,
		  "midi": 52,
		  "name": "E3",
		  "ticks": 31152,
		  "time": 34.767822375,
		  "velocity": 0.3937007874015748
		},
		{
		  "duration": 0.026785687500002098,
		  "durationTicks": 24,
		  "midi": 57,
		  "name": "A3",
		  "ticks": 31176,
		  "time": 34.794608062500004,
		  "velocity": 0.3937007874015748
		},
		{
		  "duration": 0.10714275000000129,
		  "durationTicks": 96,
		  "midi": 57,
		  "name": "A3",
		  "ticks": 31296,
		  "time": 34.9285365,
		  "velocity": 0.3937007874015748
		},
		{
		  "duration": 0.10714275000000129,
		  "durationTicks": 96,
		  "midi": 57,
		  "name": "A3",
		  "ticks": 31488,
		  "time": 35.142822,
		  "velocity": 0.3937007874015748
		},
		{
		  "duration": 0.10714275000000129,
		  "durationTicks": 96,
		  "midi": 69,
		  "name": "A4",
		  "ticks": 31488,
		  "time": 35.142822,
		  "velocity": 0.3937007874015748
		},
		{
		  "duration": 0.10714275000000129,
		  "durationTicks": 96,
		  "midi": 81,
		  "name": "A5",
		  "ticks": 31488,
		  "time": 35.142822,
		  "velocity": 0.3937007874015748
		},
		{
		  "duration": 0.10714275000000129,
		  "durationTicks": 96,
		  "midi": 57,
		  "name": "A3",
		  "ticks": 31680,
		  "time": 35.357107500000005,
		  "velocity": 0.3937007874015748
		},
		{
		  "duration": 0.10714275000000129,
		  "durationTicks": 96,
		  "midi": 71,
		  "name": "B4",
		  "ticks": 31680,
		  "time": 35.357107500000005,
		  "velocity": 0.3937007874015748
		},
		{
		  "duration": 0.10714275000000129,
		  "durationTicks": 96,
		  "midi": 83,
		  "name": "B5",
		  "ticks": 31680,
		  "time": 35.357107500000005,
		  "velocity": 0.3937007874015748
		},
		{
		  "duration": 0.10714275000000129,
		  "durationTicks": 96,
		  "midi": 73,
		  "name": "C#5",
		  "ticks": 31872,
		  "time": 35.571393,
		  "velocity": 0.3937007874015748
		},
		{
		  "duration": 0.026785687500002098,
		  "durationTicks": 24,
		  "midi": 45,
		  "name": "A2",
		  "ticks": 31872,
		  "time": 35.571393,
		  "velocity": 0.3937007874015748
		},
		{
		  "duration": 0.10714275000000129,
		  "durationTicks": 96,
		  "midi": 85,
		  "name": "C#6",
		  "ticks": 31872,
		  "time": 35.571393,
		  "velocity": 0.3937007874015748
		},
		{
		  "duration": 0.026785687500002098,
		  "durationTicks": 24,
		  "midi": 49,
		  "name": "C#3",
		  "ticks": 31896,
		  "time": 35.5981786875,
		  "velocity": 0.3937007874015748
		},
		{
		  "duration": 0.026785687499994992,
		  "durationTicks": 24,
		  "midi": 52,
		  "name": "E3",
		  "ticks": 31920,
		  "time": 35.624964375000005,
		  "velocity": 0.3937007874015748
		},
		{
		  "duration": 0.026785687500002098,
		  "durationTicks": 24,
		  "midi": 57,
		  "name": "A3",
		  "ticks": 31944,
		  "time": 35.6517500625,
		  "velocity": 0.3937007874015748
		},
		{
		  "duration": 0.10714275000000129,
		  "durationTicks": 96,
		  "midi": 71,
		  "name": "B4",
		  "ticks": 32064,
		  "time": 35.7856785,
		  "velocity": 0.3937007874015748
		},
		{
		  "duration": 0.10714275000000129,
		  "durationTicks": 96,
		  "midi": 57,
		  "name": "A3",
		  "ticks": 32064,
		  "time": 35.7856785,
		  "velocity": 0.3937007874015748
		},
		{
		  "duration": 0.10714275000000129,
		  "durationTicks": 96,
		  "midi": 83,
		  "name": "B5",
		  "ticks": 32064,
		  "time": 35.7856785,
		  "velocity": 0.3937007874015748
		},
		{
		  "duration": 0.10714274999999418,
		  "durationTicks": 96,
		  "midi": 69,
		  "name": "A4",
		  "ticks": 32256,
		  "time": 35.999964000000006,
		  "velocity": 0.3937007874015748
		},
		{
		  "duration": 0.10714274999999418,
		  "durationTicks": 96,
		  "midi": 57,
		  "name": "A3",
		  "ticks": 32256,
		  "time": 35.999964000000006,
		  "velocity": 0.3937007874015748
		},
		{
		  "duration": 0.10714274999999418,
		  "durationTicks": 96,
		  "midi": 81,
		  "name": "A5",
		  "ticks": 32256,
		  "time": 35.999964000000006,
		  "velocity": 0.3937007874015748
		},
		{
		  "duration": 0.10714275000000129,
		  "durationTicks": 96,
		  "midi": 68,
		  "name": "G#4",
		  "ticks": 32448,
		  "time": 36.2142495,
		  "velocity": 0.3937007874015748
		},
		{
		  "duration": 0.10714275000000129,
		  "durationTicks": 96,
		  "midi": 57,
		  "name": "A3",
		  "ticks": 32448,
		  "time": 36.2142495,
		  "velocity": 0.3937007874015748
		},
		{
		  "duration": 0.10714275000000129,
		  "durationTicks": 96,
		  "midi": 80,
		  "name": "G#5",
		  "ticks": 32448,
		  "time": 36.2142495,
		  "velocity": 0.3937007874015748
		},
		{
		  "duration": 0.10714275000000129,
		  "durationTicks": 96,
		  "midi": 66,
		  "name": "F#4",
		  "ticks": 32640,
		  "time": 36.428535000000004,
		  "velocity": 0.3937007874015748
		},
		{
		  "duration": 0.10714275000000129,
		  "durationTicks": 96,
		  "midi": 78,
		  "name": "F#5",
		  "ticks": 32640,
		  "time": 36.428535000000004,
		  "velocity": 0.3937007874015748
		},
		{
		  "duration": 0.026785687500002098,
		  "durationTicks": 24,
		  "midi": 38,
		  "name": "D2",
		  "ticks": 32640,
		  "time": 36.428535000000004,
		  "velocity": 0.3937007874015748
		},
		{
		  "duration": 0.026785687499994992,
		  "durationTicks": 24,
		  "midi": 42,
		  "name": "F#2",
		  "ticks": 32664,
		  "time": 36.455320687500006,
		  "velocity": 0.3937007874015748
		},
		{
		  "duration": 0.026785687500002098,
		  "durationTicks": 24,
		  "midi": 45,
		  "name": "A2",
		  "ticks": 32688,
		  "time": 36.482106375,
		  "velocity": 0.3937007874015748
		},
		{
		  "duration": 0.026785687500002098,
		  "durationTicks": 24,
		  "midi": 50,
		  "name": "D3",
		  "ticks": 32712,
		  "time": 36.5088920625,
		  "velocity": 0.3937007874015748
		},
		{
		  "duration": 0.10714274999999418,
		  "durationTicks": 96,
		  "midi": 68,
		  "name": "G#4",
		  "ticks": 32832,
		  "time": 36.642820500000006,
		  "velocity": 0.3937007874015748
		},
		{
		  "duration": 0.10714274999999418,
		  "durationTicks": 96,
		  "midi": 80,
		  "name": "G#5",
		  "ticks": 32832,
		  "time": 36.642820500000006,
		  "velocity": 0.3937007874015748
		},
		{
		  "duration": 0.10714274999999418,
		  "durationTicks": 96,
		  "midi": 50,
		  "name": "D3",
		  "ticks": 32832,
		  "time": 36.642820500000006,
		  "velocity": 0.3937007874015748
		},
		{
		  "duration": 0.10714275000000129,
		  "durationTicks": 96,
		  "midi": 69,
		  "name": "A4",
		  "ticks": 33024,
		  "time": 36.857106,
		  "velocity": 0.3937007874015748
		},
		{
		  "duration": 0.10714275000000129,
		  "durationTicks": 96,
		  "midi": 81,
		  "name": "A5",
		  "ticks": 33024,
		  "time": 36.857106,
		  "velocity": 0.3937007874015748
		},
		{
		  "duration": 0.026785687500002098,
		  "durationTicks": 24,
		  "midi": 39,
		  "name": "D#2",
		  "ticks": 33024,
		  "time": 36.857106,
		  "velocity": 0.3937007874015748
		},
		{
		  "duration": 0.026785687500002098,
		  "durationTicks": 24,
		  "midi": 42,
		  "name": "F#2",
		  "ticks": 33048,
		  "time": 36.883891687500004,
		  "velocity": 0.3937007874015748
		},
		{
		  "duration": 0.026785687499994992,
		  "durationTicks": 24,
		  "midi": 45,
		  "name": "A2",
		  "ticks": 33072,
		  "time": 36.910677375000006,
		  "velocity": 0.3937007874015748
		},
		{
		  "duration": 0.026785687500002098,
		  "durationTicks": 24,
		  "midi": 51,
		  "name": "D#3",
		  "ticks": 33096,
		  "time": 36.9374630625,
		  "velocity": 0.3937007874015748
		},
		{
		  "duration": 0.10714275000000129,
		  "durationTicks": 96,
		  "midi": 71,
		  "name": "B4",
		  "ticks": 33216,
		  "time": 37.071391500000004,
		  "velocity": 0.3937007874015748
		},
		{
		  "duration": 0.10714275000000129,
		  "durationTicks": 96,
		  "midi": 83,
		  "name": "B5",
		  "ticks": 33216,
		  "time": 37.071391500000004,
		  "velocity": 0.3937007874015748
		},
		{
		  "duration": 0.10714275000000129,
		  "durationTicks": 96,
		  "midi": 51,
		  "name": "D#3",
		  "ticks": 33216,
		  "time": 37.071391500000004,
		  "velocity": 0.3937007874015748
		},
		{
		  "duration": 0.10714275000000129,
		  "durationTicks": 96,
		  "midi": 80,
		  "name": "G#5",
		  "ticks": 33408,
		  "time": 37.285677,
		  "velocity": 0.3937007874015748
		},
		{
		  "duration": 0.10714275000000129,
		  "durationTicks": 96,
		  "midi": 68,
		  "name": "G#4",
		  "ticks": 33408,
		  "time": 37.285677,
		  "velocity": 0.3937007874015748
		},
		{
		  "duration": 0.026785687500002098,
		  "durationTicks": 24,
		  "midi": 40,
		  "name": "E2",
		  "ticks": 33408,
		  "time": 37.285677,
		  "velocity": 0.3937007874015748
		},
		{
		  "duration": 0.026785687500002098,
		  "durationTicks": 24,
		  "midi": 44,
		  "name": "G#2",
		  "ticks": 33432,
		  "time": 37.3124626875,
		  "velocity": 0.3937007874015748
		},
		{
		  "duration": 0.026785687500002098,
		  "durationTicks": 24,
		  "midi": 47,
		  "name": "B2",
		  "ticks": 33456,
		  "time": 37.339248375000004,
		  "velocity": 0.3937007874015748
		},
		{
		  "duration": 0.026785687499994992,
		  "durationTicks": 24,
		  "midi": 52,
		  "name": "E3",
		  "ticks": 33480,
		  "time": 37.366034062500006,
		  "velocity": 0.3937007874015748
		},
		{
		  "duration": 0.10714275000000129,
		  "durationTicks": 96,
		  "midi": 76,
		  "name": "E5",
		  "ticks": 33600,
		  "time": 37.4999625,
		  "velocity": 0.3937007874015748
		},
		{
		  "duration": 0.10714275000000129,
		  "durationTicks": 96,
		  "midi": 64,
		  "name": "E4",
		  "ticks": 33600,
		  "time": 37.4999625,
		  "velocity": 0.3937007874015748
		},
		{
		  "duration": 0.10714275000000129,
		  "durationTicks": 96,
		  "midi": 52,
		  "name": "E3",
		  "ticks": 33600,
		  "time": 37.4999625,
		  "velocity": 0.3937007874015748
		},
		{
		  "duration": 0.10714275000000129,
		  "durationTicks": 96,
		  "midi": 52,
		  "name": "E3",
		  "ticks": 33792,
		  "time": 37.714248000000005,
		  "velocity": 0.3937007874015748
		},
		{
		  "duration": 0.10714275000000129,
		  "durationTicks": 96,
		  "midi": 69,
		  "name": "A4",
		  "ticks": 33792,
		  "time": 37.714248000000005,
		  "velocity": 0.3937007874015748
		},
		{
		  "duration": 0.10714275000000129,
		  "durationTicks": 96,
		  "midi": 81,
		  "name": "A5",
		  "ticks": 33792,
		  "time": 37.714248000000005,
		  "velocity": 0.3937007874015748
		},
		{
		  "duration": 0.10714275000000129,
		  "durationTicks": 96,
		  "midi": 52,
		  "name": "E3",
		  "ticks": 33984,
		  "time": 37.9285335,
		  "velocity": 0.3937007874015748
		},
		{
		  "duration": 0.10714275000000129,
		  "durationTicks": 96,
		  "midi": 71,
		  "name": "B4",
		  "ticks": 33984,
		  "time": 37.9285335,
		  "velocity": 0.3937007874015748
		},
		{
		  "duration": 0.10714275000000129,
		  "durationTicks": 96,
		  "midi": 83,
		  "name": "B5",
		  "ticks": 33984,
		  "time": 37.9285335,
		  "velocity": 0.3937007874015748
		},
		{
		  "duration": 0.10714275000000129,
		  "durationTicks": 96,
		  "midi": 73,
		  "name": "C#5",
		  "ticks": 34176,
		  "time": 38.142819,
		  "velocity": 0.3937007874015748
		},
		{
		  "duration": 0.10714275000000129,
		  "durationTicks": 96,
		  "midi": 85,
		  "name": "C#6",
		  "ticks": 34176,
		  "time": 38.142819,
		  "velocity": 0.3937007874015748
		},
		{
		  "duration": 0.026785687500002098,
		  "durationTicks": 24,
		  "midi": 45,
		  "name": "A2",
		  "ticks": 34176,
		  "time": 38.142819,
		  "velocity": 0.3937007874015748
		},
		{
		  "duration": 0.026785687499994992,
		  "durationTicks": 24,
		  "midi": 49,
		  "name": "C#3",
		  "ticks": 34200,
		  "time": 38.169604687500005,
		  "velocity": 0.3937007874015748
		},
		{
		  "duration": 0.026785687500002098,
		  "durationTicks": 24,
		  "midi": 52,
		  "name": "E3",
		  "ticks": 34224,
		  "time": 38.196390375,
		  "velocity": 0.3937007874015748
		},
		{
		  "duration": 0.026785687500002098,
		  "durationTicks": 24,
		  "midi": 57,
		  "name": "A3",
		  "ticks": 34248,
		  "time": 38.2231760625,
		  "velocity": 0.3937007874015748
		},
		{
		  "duration": 0.10714274999999418,
		  "durationTicks": 96,
		  "midi": 57,
		  "name": "A3",
		  "ticks": 34368,
		  "time": 38.357104500000005,
		  "velocity": 0.3937007874015748
		},
		{
		  "duration": 0.10714275000000129,
		  "durationTicks": 96,
		  "midi": 57,
		  "name": "A3",
		  "ticks": 34560,
		  "time": 38.57139,
		  "velocity": 0.3937007874015748
		},
		{
		  "duration": 0.10714275000000129,
		  "durationTicks": 96,
		  "midi": 69,
		  "name": "A4",
		  "ticks": 34560,
		  "time": 38.57139,
		  "velocity": 0.3937007874015748
		},
		{
		  "duration": 0.10714275000000129,
		  "durationTicks": 96,
		  "midi": 81,
		  "name": "A5",
		  "ticks": 34560,
		  "time": 38.57139,
		  "velocity": 0.3937007874015748
		},
		{
		  "duration": 0.10714275000000129,
		  "durationTicks": 96,
		  "midi": 57,
		  "name": "A3",
		  "ticks": 34752,
		  "time": 38.7856755,
		  "velocity": 0.3937007874015748
		},
		{
		  "duration": 0.10714275000000129,
		  "durationTicks": 96,
		  "midi": 71,
		  "name": "B4",
		  "ticks": 34752,
		  "time": 38.7856755,
		  "velocity": 0.3937007874015748
		},
		{
		  "duration": 0.10714275000000129,
		  "durationTicks": 96,
		  "midi": 83,
		  "name": "B5",
		  "ticks": 34752,
		  "time": 38.7856755,
		  "velocity": 0.3937007874015748
		},
		{
		  "duration": 0.10714274999999418,
		  "durationTicks": 96,
		  "midi": 73,
		  "name": "C#5",
		  "ticks": 34944,
		  "time": 38.999961000000006,
		  "velocity": 0.3937007874015748
		},
		{
		  "duration": 0.10714274999999418,
		  "durationTicks": 96,
		  "midi": 85,
		  "name": "C#6",
		  "ticks": 34944,
		  "time": 38.999961000000006,
		  "velocity": 0.3937007874015748
		},
		{
		  "duration": 0.026785687499994992,
		  "durationTicks": 24,
		  "midi": 45,
		  "name": "A2",
		  "ticks": 34944,
		  "time": 38.999961000000006,
		  "velocity": 0.3937007874015748
		},
		{
		  "duration": 0.026785687500002098,
		  "durationTicks": 24,
		  "midi": 49,
		  "name": "C#3",
		  "ticks": 34968,
		  "time": 39.0267466875,
		  "velocity": 0.3937007874015748
		},
		{
		  "duration": 0.026785687500002098,
		  "durationTicks": 24,
		  "midi": 52,
		  "name": "E3",
		  "ticks": 34992,
		  "time": 39.053532375,
		  "velocity": 0.3937007874015748
		},
		{
		  "duration": 0.026785687499994992,
		  "durationTicks": 24,
		  "midi": 57,
		  "name": "A3",
		  "ticks": 35016,
		  "time": 39.080318062500005,
		  "velocity": 0.3937007874015748
		},
		{
		  "duration": 0.10714275000000129,
		  "durationTicks": 96,
		  "midi": 57,
		  "name": "A3",
		  "ticks": 35136,
		  "time": 39.2142465,
		  "velocity": 0.3937007874015748
		},
		{
		  "duration": 0.10714275000000129,
		  "durationTicks": 96,
		  "midi": 83,
		  "name": "B5",
		  "ticks": 35136,
		  "time": 39.2142465,
		  "velocity": 0.3937007874015748
		},
		{
		  "duration": 0.10714275000000129,
		  "durationTicks": 96,
		  "midi": 71,
		  "name": "B4",
		  "ticks": 35136,
		  "time": 39.2142465,
		  "velocity": 0.3937007874015748
		},
		{
		  "duration": 0.10714275000000129,
		  "durationTicks": 96,
		  "midi": 57,
		  "name": "A3",
		  "ticks": 35328,
		  "time": 39.428532000000004,
		  "velocity": 0.3937007874015748
		},
		{
		  "duration": 0.10714275000000129,
		  "durationTicks": 96,
		  "midi": 81,
		  "name": "A5",
		  "ticks": 35328,
		  "time": 39.428532000000004,
		  "velocity": 0.3937007874015748
		},
		{
		  "duration": 0.10714275000000129,
		  "durationTicks": 96,
		  "midi": 69,
		  "name": "A4",
		  "ticks": 35328,
		  "time": 39.428532000000004,
		  "velocity": 0.3937007874015748
		},
		{
		  "duration": 0.10714274999999418,
		  "durationTicks": 96,
		  "midi": 57,
		  "name": "A3",
		  "ticks": 35520,
		  "time": 39.64281750000001,
		  "velocity": 0.3937007874015748
		},
		{
		  "duration": 0.10714274999999418,
		  "durationTicks": 96,
		  "midi": 80,
		  "name": "G#5",
		  "ticks": 35520,
		  "time": 39.64281750000001,
		  "velocity": 0.3937007874015748
		},
		{
		  "duration": 0.10714274999999418,
		  "durationTicks": 96,
		  "midi": 68,
		  "name": "G#4",
		  "ticks": 35520,
		  "time": 39.64281750000001,
		  "velocity": 0.3937007874015748
		},
		{
		  "duration": 0.10714275000000129,
		  "durationTicks": 96,
		  "midi": 78,
		  "name": "F#5",
		  "ticks": 35712,
		  "time": 39.857103,
		  "velocity": 0.3937007874015748
		},
		{
		  "duration": 0.10714275000000129,
		  "durationTicks": 96,
		  "midi": 66,
		  "name": "F#4",
		  "ticks": 35712,
		  "time": 39.857103,
		  "velocity": 0.3937007874015748
		},
		{
		  "duration": 0.026785687500002098,
		  "durationTicks": 24,
		  "midi": 38,
		  "name": "D2",
		  "ticks": 35712,
		  "time": 39.857103,
		  "velocity": 0.3937007874015748
		},
		{
		  "duration": 0.026785687500002098,
		  "durationTicks": 24,
		  "midi": 42,
		  "name": "F#2",
		  "ticks": 35736,
		  "time": 39.883888687500004,
		  "velocity": 0.3937007874015748
		},
		{
		  "duration": 0.026785687499994992,
		  "durationTicks": 24,
		  "midi": 45,
		  "name": "A2",
		  "ticks": 35760,
		  "time": 39.910674375000006,
		  "velocity": 0.3937007874015748
		},
		{
		  "duration": 0.026785687500002098,
		  "durationTicks": 24,
		  "midi": 50,
		  "name": "D3",
		  "ticks": 35784,
		  "time": 39.9374600625,
		  "velocity": 0.3937007874015748
		},
		{
		  "duration": 0.10714275000000129,
		  "durationTicks": 96,
		  "midi": 50,
		  "name": "D3",
		  "ticks": 35904,
		  "time": 40.071388500000005,
		  "velocity": 0.3937007874015748
		},
		{
		  "duration": 0.10714275000000129,
		  "durationTicks": 96,
		  "midi": 71,
		  "name": "B4",
		  "ticks": 35904,
		  "time": 40.071388500000005,
		  "velocity": 0.3937007874015748
		},
		{
		  "duration": 0.10714275000000129,
		  "durationTicks": 96,
		  "midi": 83,
		  "name": "B5",
		  "ticks": 35904,
		  "time": 40.071388500000005,
		  "velocity": 0.3937007874015748
		},
		{
		  "duration": 0.026785687500002098,
		  "durationTicks": 24,
		  "midi": 40,
		  "name": "E2",
		  "ticks": 36096,
		  "time": 40.285674,
		  "velocity": 0.3937007874015748
		},
		{
		  "duration": 0.10714275000000129,
		  "durationTicks": 96,
		  "midi": 68,
		  "name": "G#4",
		  "ticks": 36096,
		  "time": 40.285674,
		  "velocity": 0.3937007874015748
		},
		{
		  "duration": 0.10714275000000129,
		  "durationTicks": 96,
		  "midi": 80,
		  "name": "G#5",
		  "ticks": 36096,
		  "time": 40.285674,
		  "velocity": 0.3937007874015748
		},
		{
		  "duration": 0.026785687500002098,
		  "durationTicks": 24,
		  "midi": 44,
		  "name": "G#2",
		  "ticks": 36120,
		  "time": 40.3124596875,
		  "velocity": 0.3937007874015748
		},
		{
		  "duration": 0.026785687500002098,
		  "durationTicks": 24,
		  "midi": 47,
		  "name": "B2",
		  "ticks": 36144,
		  "time": 40.339245375000004,
		  "velocity": 0.3937007874015748
		},
		{
		  "duration": 0.026785687499994992,
		  "durationTicks": 24,
		  "midi": 52,
		  "name": "E3",
		  "ticks": 36168,
		  "time": 40.36603106250001,
		  "velocity": 0.3937007874015748
		},
		{
		  "duration": 0.10714275000000129,
		  "durationTicks": 96,
		  "midi": 52,
		  "name": "E3",
		  "ticks": 36288,
		  "time": 40.4999595,
		  "velocity": 0.3937007874015748
		},
		{
		  "duration": 0.10714275000000129,
		  "durationTicks": 96,
		  "midi": 64,
		  "name": "E4",
		  "ticks": 36288,
		  "time": 40.4999595,
		  "velocity": 0.3937007874015748
		},
		{
		  "duration": 0.10714275000000129,
		  "durationTicks": 96,
		  "midi": 76,
		  "name": "E5",
		  "ticks": 36288,
		  "time": 40.4999595,
		  "velocity": 0.3937007874015748
		},
		{
		  "duration": 0.10714275000000129,
		  "durationTicks": 96,
		  "midi": 69,
		  "name": "A4",
		  "ticks": 36480,
		  "time": 40.714245000000005,
		  "velocity": 0.3937007874015748
		},
		{
		  "duration": 0.10714275000000129,
		  "durationTicks": 96,
		  "midi": 81,
		  "name": "A5",
		  "ticks": 36480,
		  "time": 40.714245000000005,
		  "velocity": 0.3937007874015748
		},
		{
		  "duration": 0.10714275000000129,
		  "durationTicks": 96,
		  "midi": 45,
		  "name": "A2",
		  "ticks": 36480,
		  "time": 40.714245000000005,
		  "velocity": 0.3937007874015748
		},
		{
		  "duration": 0.10714275000000129,
		  "durationTicks": 96,
		  "midi": 85,
		  "name": "C#6",
		  "ticks": 36864,
		  "time": 41.142816,
		  "velocity": 0.3937007874015748
		},
		{
		  "duration": 0.10714275000000129,
		  "durationTicks": 96,
		  "midi": 86,
		  "name": "D6",
		  "ticks": 36960,
		  "time": 41.249958750000005,
		  "velocity": 0.3937007874015748
		},
		{
		  "duration": 0.10714274999999418,
		  "durationTicks": 96,
		  "midi": 85,
		  "name": "C#6",
		  "ticks": 37056,
		  "time": 41.357101500000006,
		  "velocity": 0.3937007874015748
		},
		{
		  "duration": 0.10714275000000129,
		  "durationTicks": 96,
		  "midi": 83,
		  "name": "B5",
		  "ticks": 37152,
		  "time": 41.46424425,
		  "velocity": 0.3937007874015748
		},
		{
		  "duration": 0.10714275000000129,
		  "durationTicks": 96,
		  "midi": 81,
		  "name": "A5",
		  "ticks": 37248,
		  "time": 41.571387,
		  "velocity": 0.3937007874015748
		},
		{
		  "duration": 0.10714275000000129,
		  "durationTicks": 96,
		  "midi": 54,
		  "name": "F#3",
		  "ticks": 37248,
		  "time": 41.571387,
		  "velocity": 0.3937007874015748
		},
		{
		  "duration": 0.10714275000000129,
		  "durationTicks": 96,
		  "midi": 83,
		  "name": "B5",
		  "ticks": 37344,
		  "time": 41.67852975,
		  "velocity": 0.3937007874015748
		},
		{
		  "duration": 0.10714275000000129,
		  "durationTicks": 96,
		  "midi": 81,
		  "name": "A5",
		  "ticks": 37440,
		  "time": 41.785672500000004,
		  "velocity": 0.3937007874015748
		},
		{
		  "duration": 0.10714275000000129,
		  "durationTicks": 96,
		  "midi": 57,
		  "name": "A3",
		  "ticks": 37440,
		  "time": 41.785672500000004,
		  "velocity": 0.3937007874015748
		},
		{
		  "duration": 0.10714275000000129,
		  "durationTicks": 96,
		  "midi": 61,
		  "name": "C#4",
		  "ticks": 37440,
		  "time": 41.785672500000004,
		  "velocity": 0.3937007874015748
		},
		{
		  "duration": 0.10714275000000129,
		  "durationTicks": 96,
		  "midi": 80,
		  "name": "G#5",
		  "ticks": 37536,
		  "time": 41.892815250000005,
		  "velocity": 0.3937007874015748
		},
		{
		  "duration": 0.10714274999999418,
		  "durationTicks": 96,
		  "midi": 78,
		  "name": "F#5",
		  "ticks": 37632,
		  "time": 41.99995800000001,
		  "velocity": 0.3937007874015748
		},
		{
		  "duration": 0.10714274999999418,
		  "durationTicks": 96,
		  "midi": 57,
		  "name": "A3",
		  "ticks": 37632,
		  "time": 41.99995800000001,
		  "velocity": 0.3937007874015748
		},
		{
		  "duration": 0.10714274999999418,
		  "durationTicks": 96,
		  "midi": 61,
		  "name": "C#4",
		  "ticks": 37632,
		  "time": 41.99995800000001,
		  "velocity": 0.3937007874015748
		},
		{
		  "duration": 0.10714275000000129,
		  "durationTicks": 96,
		  "midi": 81,
		  "name": "A5",
		  "ticks": 37728,
		  "time": 42.10710075,
		  "velocity": 0.3937007874015748
		},
		{
		  "duration": 0.10714275000000129,
		  "durationTicks": 96,
		  "midi": 61,
		  "name": "C#4",
		  "ticks": 37824,
		  "time": 42.2142435,
		  "velocity": 0.3937007874015748
		},
		{
		  "duration": 0.10714275000000129,
		  "durationTicks": 96,
		  "midi": 57,
		  "name": "A3",
		  "ticks": 37824,
		  "time": 42.2142435,
		  "velocity": 0.3937007874015748
		},
		{
		  "duration": 0.10714275000000129,
		  "durationTicks": 96,
		  "midi": 80,
		  "name": "G#5",
		  "ticks": 37824,
		  "time": 42.2142435,
		  "velocity": 0.3937007874015748
		},
		{
		  "duration": 0.10714275000000129,
		  "durationTicks": 96,
		  "midi": 78,
		  "name": "F#5",
		  "ticks": 37920,
		  "time": 42.32138625,
		  "velocity": 0.3937007874015748
		},
		{
		  "duration": 0.10714275000000129,
		  "durationTicks": 96,
		  "midi": 77,
		  "name": "F5",
		  "ticks": 38016,
		  "time": 42.428529000000005,
		  "velocity": 0.3937007874015748
		},
		{
		  "duration": 0.10714275000000129,
		  "durationTicks": 96,
		  "midi": 56,
		  "name": "G#3",
		  "ticks": 38016,
		  "time": 42.428529000000005,
		  "velocity": 0.3937007874015748
		},
		{
		  "duration": 0.10714274999999418,
		  "durationTicks": 96,
		  "midi": 78,
		  "name": "F#5",
		  "ticks": 38112,
		  "time": 42.535671750000006,
		  "velocity": 0.3937007874015748
		},
		{
		  "duration": 0.10714275000000129,
		  "durationTicks": 96,
		  "midi": 80,
		  "name": "G#5",
		  "ticks": 38208,
		  "time": 42.6428145,
		  "velocity": 0.3937007874015748
		},
		{
		  "duration": 0.10714275000000129,
		  "durationTicks": 96,
		  "midi": 59,
		  "name": "B3",
		  "ticks": 38208,
		  "time": 42.6428145,
		  "velocity": 0.3937007874015748
		},
		{
		  "duration": 0.10714275000000129,
		  "durationTicks": 96,
		  "midi": 61,
		  "name": "C#4",
		  "ticks": 38208,
		  "time": 42.6428145,
		  "velocity": 0.3937007874015748
		},
		{
		  "duration": 0.10714275000000129,
		  "durationTicks": 96,
		  "midi": 77,
		  "name": "F5",
		  "ticks": 38304,
		  "time": 42.74995725,
		  "velocity": 0.3937007874015748
		},
		{
		  "duration": 0.10714275000000129,
		  "durationTicks": 96,
		  "midi": 59,
		  "name": "B3",
		  "ticks": 38400,
		  "time": 42.8571,
		  "velocity": 0.3937007874015748
		},
		{
		  "duration": 0.10714275000000129,
		  "durationTicks": 96,
		  "midi": 61,
		  "name": "C#4",
		  "ticks": 38400,
		  "time": 42.8571,
		  "velocity": 0.3937007874015748
		},
		{
		  "duration": 0.10714275000000129,
		  "durationTicks": 96,
		  "midi": 73,
		  "name": "C#5",
		  "ticks": 38400,
		  "time": 42.8571,
		  "velocity": 0.3937007874015748
		},
		{
		  "duration": 0.10714275000000129,
		  "durationTicks": 96,
		  "midi": 75,
		  "name": "D#5",
		  "ticks": 38496,
		  "time": 42.964242750000004,
		  "velocity": 0.3937007874015748
		},
		{
		  "duration": 0.10714275000000129,
		  "durationTicks": 96,
		  "midi": 59,
		  "name": "B3",
		  "ticks": 38592,
		  "time": 43.071385500000005,
		  "velocity": 0.3937007874015748
		},
		{
		  "duration": 0.10714275000000129,
		  "durationTicks": 96,
		  "midi": 61,
		  "name": "C#4",
		  "ticks": 38592,
		  "time": 43.071385500000005,
		  "velocity": 0.3937007874015748
		},
		{
		  "duration": 0.10714275000000129,
		  "durationTicks": 96,
		  "midi": 77,
		  "name": "F5",
		  "ticks": 38592,
		  "time": 43.071385500000005,
		  "velocity": 0.3937007874015748
		},
		{
		  "duration": 0.10714274999999418,
		  "durationTicks": 96,
		  "midi": 73,
		  "name": "C#5",
		  "ticks": 38688,
		  "time": 43.17852825000001,
		  "velocity": 0.3937007874015748
		},
		{
		  "duration": 0.10714275000000129,
		  "durationTicks": 96,
		  "midi": 78,
		  "name": "F#5",
		  "ticks": 38784,
		  "time": 43.285671,
		  "velocity": 0.3937007874015748
		},
		{
		  "duration": 0.10714275000000129,
		  "durationTicks": 96,
		  "midi": 54,
		  "name": "F#3",
		  "ticks": 38784,
		  "time": 43.285671,
		  "velocity": 0.3937007874015748
		},
		{
		  "duration": 0.10714275000000129,
		  "durationTicks": 96,
		  "midi": 77,
		  "name": "F5",
		  "ticks": 38880,
		  "time": 43.39281375,
		  "velocity": 0.3937007874015748
		},
		{
		  "duration": 0.10714275000000129,
		  "durationTicks": 96,
		  "midi": 78,
		  "name": "F#5",
		  "ticks": 38976,
		  "time": 43.4999565,
		  "velocity": 0.3937007874015748
		},
		{
		  "duration": 0.10714275000000129,
		  "durationTicks": 96,
		  "midi": 57,
		  "name": "A3",
		  "ticks": 38976,
		  "time": 43.4999565,
		  "velocity": 0.3937007874015748
		},
		{
		  "duration": 0.10714275000000129,
		  "durationTicks": 96,
		  "midi": 61,
		  "name": "C#4",
		  "ticks": 38976,
		  "time": 43.4999565,
		  "velocity": 0.3937007874015748
		},
		{
		  "duration": 0.10714275000000129,
		  "durationTicks": 96,
		  "midi": 80,
		  "name": "G#5",
		  "ticks": 39072,
		  "time": 43.607099250000005,
		  "velocity": 0.3937007874015748
		},
		{
		  "duration": 0.10714275000000129,
		  "durationTicks": 96,
		  "midi": 81,
		  "name": "A5",
		  "ticks": 39168,
		  "time": 43.714242000000006,
		  "velocity": 0.3937007874015748
		},
		{
		  "duration": 0.10714275000000129,
		  "durationTicks": 96,
		  "midi": 57,
		  "name": "A3",
		  "ticks": 39168,
		  "time": 43.714242000000006,
		  "velocity": 0.3937007874015748
		},
		{
		  "duration": 0.10714275000000129,
		  "durationTicks": 96,
		  "midi": 61,
		  "name": "C#4",
		  "ticks": 39168,
		  "time": 43.714242000000006,
		  "velocity": 0.3937007874015748
		},
		{
		  "duration": 0.10714274999999418,
		  "durationTicks": 96,
		  "midi": 80,
		  "name": "G#5",
		  "ticks": 39264,
		  "time": 43.82138475000001,
		  "velocity": 0.3937007874015748
		},
		{
		  "duration": 0.10714275000000129,
		  "durationTicks": 96,
		  "midi": 81,
		  "name": "A5",
		  "ticks": 39360,
		  "time": 43.9285275,
		  "velocity": 0.3937007874015748
		},
		{
		  "duration": 0.10714275000000129,
		  "durationTicks": 96,
		  "midi": 57,
		  "name": "A3",
		  "ticks": 39360,
		  "time": 43.9285275,
		  "velocity": 0.3937007874015748
		},
		{
		  "duration": 0.10714275000000129,
		  "durationTicks": 96,
		  "midi": 61,
		  "name": "C#4",
		  "ticks": 39360,
		  "time": 43.9285275,
		  "velocity": 0.3937007874015748
		},
		{
		  "duration": 0.10714275000000129,
		  "durationTicks": 96,
		  "midi": 83,
		  "name": "B5",
		  "ticks": 39456,
		  "time": 44.03567025,
		  "velocity": 0.3937007874015748
		},
		{
		  "duration": 0.10714275000000129,
		  "durationTicks": 96,
		  "midi": 85,
		  "name": "C#6",
		  "ticks": 39552,
		  "time": 44.142813000000004,
		  "velocity": 0.3937007874015748
		},
		{
		  "duration": 0.10714275000000129,
		  "durationTicks": 96,
		  "midi": 53,
		  "name": "F3",
		  "ticks": 39552,
		  "time": 44.142813000000004,
		  "velocity": 0.3937007874015748
		},
		{
		  "duration": 0.10714275000000129,
		  "durationTicks": 96,
		  "midi": 84,
		  "name": "C6",
		  "ticks": 39648,
		  "time": 44.249955750000005,
		  "velocity": 0.3937007874015748
		},
		{
		  "duration": 0.10714274999999418,
		  "durationTicks": 96,
		  "midi": 85,
		  "name": "C#6",
		  "ticks": 39744,
		  "time": 44.357098500000006,
		  "velocity": 0.3937007874015748
		},
		{
		  "duration": 0.10714274999999418,
		  "durationTicks": 96,
		  "midi": 56,
		  "name": "G#3",
		  "ticks": 39744,
		  "time": 44.357098500000006,
		  "velocity": 0.3937007874015748
		},
		{
		  "duration": 0.10714274999999418,
		  "durationTicks": 96,
		  "midi": 61,
		  "name": "C#4",
		  "ticks": 39744,
		  "time": 44.357098500000006,
		  "velocity": 0.3937007874015748
		},
		{
		  "duration": 0.10714275000000129,
		  "durationTicks": 96,
		  "midi": 84,
		  "name": "C6",
		  "ticks": 39840,
		  "time": 44.46424125,
		  "velocity": 0.3937007874015748
		},
		{
		  "duration": 0.10714275000000129,
		  "durationTicks": 96,
		  "midi": 85,
		  "name": "C#6",
		  "ticks": 39936,
		  "time": 44.571384,
		  "velocity": 0.3937007874015748
		},
		{
		  "duration": 0.10714275000000129,
		  "durationTicks": 96,
		  "midi": 56,
		  "name": "G#3",
		  "ticks": 39936,
		  "time": 44.571384,
		  "velocity": 0.3937007874015748
		},
		{
		  "duration": 0.10714275000000129,
		  "durationTicks": 96,
		  "midi": 61,
		  "name": "C#4",
		  "ticks": 39936,
		  "time": 44.571384,
		  "velocity": 0.3937007874015748
		},
		{
		  "duration": 0.10714275000000129,
		  "durationTicks": 96,
		  "midi": 86,
		  "name": "D6",
		  "ticks": 40032,
		  "time": 44.67852675,
		  "velocity": 0.3937007874015748
		},
		{
		  "duration": 0.10714275000000129,
		  "durationTicks": 96,
		  "midi": 85,
		  "name": "C#6",
		  "ticks": 40128,
		  "time": 44.785669500000004,
		  "velocity": 0.3937007874015748
		},
		{
		  "duration": 0.10714275000000129,
		  "durationTicks": 96,
		  "midi": 56,
		  "name": "G#3",
		  "ticks": 40128,
		  "time": 44.785669500000004,
		  "velocity": 0.3937007874015748
		},
		{
		  "duration": 0.10714275000000129,
		  "durationTicks": 96,
		  "midi": 61,
		  "name": "C#4",
		  "ticks": 40128,
		  "time": 44.785669500000004,
		  "velocity": 0.3937007874015748
		},
		{
		  "duration": 0.10714275000000129,
		  "durationTicks": 96,
		  "midi": 83,
		  "name": "B5",
		  "ticks": 40224,
		  "time": 44.892812250000006,
		  "velocity": 0.3937007874015748
		},
		{
		  "duration": 0.10714274999999418,
		  "durationTicks": 96,
		  "midi": 81,
		  "name": "A5",
		  "ticks": 40320,
		  "time": 44.99995500000001,
		  "velocity": 0.3937007874015748
		},
		{
		  "duration": 0.10714274999999418,
		  "durationTicks": 96,
		  "midi": 54,
		  "name": "F#3",
		  "ticks": 40320,
		  "time": 44.99995500000001,
		  "velocity": 0.3937007874015748
		},
		{
		  "duration": 0.10714275000000129,
		  "durationTicks": 96,
		  "midi": 83,
		  "name": "B5",
		  "ticks": 40416,
		  "time": 45.10709775,
		  "velocity": 0.3937007874015748
		},
		{
		  "duration": 0.10714275000000129,
		  "durationTicks": 96,
		  "midi": 57,
		  "name": "A3",
		  "ticks": 40512,
		  "time": 45.2142405,
		  "velocity": 0.3937007874015748
		},
		{
		  "duration": 0.10714275000000129,
		  "durationTicks": 96,
		  "midi": 61,
		  "name": "C#4",
		  "ticks": 40512,
		  "time": 45.2142405,
		  "velocity": 0.3937007874015748
		},
		{
		  "duration": 0.10714275000000129,
		  "durationTicks": 96,
		  "midi": 81,
		  "name": "A5",
		  "ticks": 40512,
		  "time": 45.2142405,
		  "velocity": 0.3937007874015748
		},
		{
		  "duration": 0.10714275000000129,
		  "durationTicks": 96,
		  "midi": 80,
		  "name": "G#5",
		  "ticks": 40608,
		  "time": 45.321383250000004,
		  "velocity": 0.3937007874015748
		},
		{
		  "duration": 0.10714275000000129,
		  "durationTicks": 96,
		  "midi": 57,
		  "name": "A3",
		  "ticks": 40704,
		  "time": 45.428526000000005,
		  "velocity": 0.3937007874015748
		},
		{
		  "duration": 0.10714275000000129,
		  "durationTicks": 96,
		  "midi": 61,
		  "name": "C#4",
		  "ticks": 40704,
		  "time": 45.428526000000005,
		  "velocity": 0.3937007874015748
		},
		{
		  "duration": 0.10714275000000129,
		  "durationTicks": 96,
		  "midi": 78,
		  "name": "F#5",
		  "ticks": 40704,
		  "time": 45.428526000000005,
		  "velocity": 0.3937007874015748
		},
		{
		  "duration": 0.10714274999999418,
		  "durationTicks": 96,
		  "midi": 81,
		  "name": "A5",
		  "ticks": 40800,
		  "time": 45.535668750000006,
		  "velocity": 0.3937007874015748
		},
		{
		  "duration": 0.10714275000000129,
		  "durationTicks": 96,
		  "midi": 57,
		  "name": "A3",
		  "ticks": 40896,
		  "time": 45.6428115,
		  "velocity": 0.3937007874015748
		},
		{
		  "duration": 0.10714275000000129,
		  "durationTicks": 96,
		  "midi": 61,
		  "name": "C#4",
		  "ticks": 40896,
		  "time": 45.6428115,
		  "velocity": 0.3937007874015748
		},
		{
		  "duration": 0.10714275000000129,
		  "durationTicks": 96,
		  "midi": 80,
		  "name": "G#5",
		  "ticks": 40896,
		  "time": 45.6428115,
		  "velocity": 0.3937007874015748
		},
		{
		  "duration": 0.10714275000000129,
		  "durationTicks": 96,
		  "midi": 78,
		  "name": "F#5",
		  "ticks": 40992,
		  "time": 45.74995425,
		  "velocity": 0.3937007874015748
		},
		{
		  "duration": 0.10714275000000129,
		  "durationTicks": 96,
		  "midi": 76,
		  "name": "E5",
		  "ticks": 41088,
		  "time": 45.857097,
		  "velocity": 0.3937007874015748
		},
		{
		  "duration": 0.10714275000000129,
		  "durationTicks": 96,
		  "midi": 56,
		  "name": "G#3",
		  "ticks": 41088,
		  "time": 45.857097,
		  "velocity": 0.3937007874015748
		},
		{
		  "duration": 0.10714275000000129,
		  "durationTicks": 96,
		  "midi": 78,
		  "name": "F#5",
		  "ticks": 41184,
		  "time": 45.964239750000004,
		  "velocity": 0.3937007874015748
		},
		{
		  "duration": 0.10714275000000129,
		  "durationTicks": 96,
		  "midi": 80,
		  "name": "G#5",
		  "ticks": 41280,
		  "time": 46.071382500000006,
		  "velocity": 0.3937007874015748
		},
		{
		  "duration": 0.10714275000000129,
		  "durationTicks": 96,
		  "midi": 61,
		  "name": "C#4",
		  "ticks": 41280,
		  "time": 46.071382500000006,
		  "velocity": 0.3937007874015748
		},
		{
		  "duration": 0.10714275000000129,
		  "durationTicks": 96,
		  "midi": 64,
		  "name": "E4",
		  "ticks": 41280,
		  "time": 46.071382500000006,
		  "velocity": 0.3937007874015748
		},
		{
		  "duration": 0.10714274999999418,
		  "durationTicks": 96,
		  "midi": 76,
		  "name": "E5",
		  "ticks": 41376,
		  "time": 46.17852525000001,
		  "velocity": 0.3937007874015748
		},
		{
		  "duration": 0.10714275000000129,
		  "durationTicks": 96,
		  "midi": 73,
		  "name": "C#5",
		  "ticks": 41472,
		  "time": 46.285668,
		  "velocity": 0.3937007874015748
		},
		{
		  "duration": 0.10714275000000129,
		  "durationTicks": 96,
		  "midi": 61,
		  "name": "C#4",
		  "ticks": 41472,
		  "time": 46.285668,
		  "velocity": 0.3937007874015748
		},
		{
		  "duration": 0.10714275000000129,
		  "durationTicks": 96,
		  "midi": 64,
		  "name": "E4",
		  "ticks": 41472,
		  "time": 46.285668,
		  "velocity": 0.3937007874015748
		},
		{
		  "duration": 0.10714275000000129,
		  "durationTicks": 96,
		  "midi": 75,
		  "name": "D#5",
		  "ticks": 41568,
		  "time": 46.39281075,
		  "velocity": 0.3937007874015748
		},
		{
		  "duration": 0.10714275000000129,
		  "durationTicks": 96,
		  "midi": 76,
		  "name": "E5",
		  "ticks": 41664,
		  "time": 46.499953500000004,
		  "velocity": 0.3937007874015748
		},
		{
		  "duration": 0.10714275000000129,
		  "durationTicks": 96,
		  "midi": 61,
		  "name": "C#4",
		  "ticks": 41664,
		  "time": 46.499953500000004,
		  "velocity": 0.3937007874015748
		},
		{
		  "duration": 0.10714275000000129,
		  "durationTicks": 96,
		  "midi": 64,
		  "name": "E4",
		  "ticks": 41664,
		  "time": 46.499953500000004,
		  "velocity": 0.3937007874015748
		},
		{
		  "duration": 0.10714275000000129,
		  "durationTicks": 96,
		  "midi": 73,
		  "name": "C#5",
		  "ticks": 41760,
		  "time": 46.607096250000005,
		  "velocity": 0.3937007874015748
		},
		{
		  "duration": 0.10714274999999418,
		  "durationTicks": 96,
		  "midi": 75,
		  "name": "D#5",
		  "ticks": 41856,
		  "time": 46.714239000000006,
		  "velocity": 0.3937007874015748
		},
		{
		  "duration": 0.10714274999999418,
		  "durationTicks": 96,
		  "midi": 56,
		  "name": "G#3",
		  "ticks": 41856,
		  "time": 46.714239000000006,
		  "velocity": 0.3937007874015748
		},
		{
		  "duration": 0.10714275000000129,
		  "durationTicks": 96,
		  "midi": 76,
		  "name": "E5",
		  "ticks": 41952,
		  "time": 46.82138175,
		  "velocity": 0.3937007874015748
		},
		{
		  "duration": 0.10714275000000129,
		  "durationTicks": 96,
		  "midi": 78,
		  "name": "F#5",
		  "ticks": 42048,
		  "time": 46.9285245,
		  "velocity": 0.3937007874015748
		},
		{
		  "duration": 0.10714275000000129,
		  "durationTicks": 96,
		  "midi": 63,
		  "name": "D#4",
		  "ticks": 42048,
		  "time": 46.9285245,
		  "velocity": 0.3937007874015748
		},
		{
		  "duration": 0.10714275000000129,
		  "durationTicks": 96,
		  "midi": 66,
		  "name": "F#4",
		  "ticks": 42048,
		  "time": 46.9285245,
		  "velocity": 0.3937007874015748
		},
		{
		  "duration": 0.10714275000000129,
		  "durationTicks": 96,
		  "midi": 75,
		  "name": "D#5",
		  "ticks": 42144,
		  "time": 47.03566725,
		  "velocity": 0.3937007874015748
		},
		{
		  "duration": 0.10714275000000129,
		  "durationTicks": 96,
		  "midi": 72,
		  "name": "C5",
		  "ticks": 42240,
		  "time": 47.142810000000004,
		  "velocity": 0.3937007874015748
		},
		{
		  "duration": 0.10714275000000129,
		  "durationTicks": 96,
		  "midi": 63,
		  "name": "D#4",
		  "ticks": 42240,
		  "time": 47.142810000000004,
		  "velocity": 0.3937007874015748
		},
		{
		  "duration": 0.10714275000000129,
		  "durationTicks": 96,
		  "midi": 66,
		  "name": "F#4",
		  "ticks": 42240,
		  "time": 47.142810000000004,
		  "velocity": 0.3937007874015748
		},
		{
		  "duration": 0.10714275000000129,
		  "durationTicks": 96,
		  "midi": 73,
		  "name": "C#5",
		  "ticks": 42336,
		  "time": 47.249952750000006,
		  "velocity": 0.3937007874015748
		},
		{
		  "duration": 0.10714274999999418,
		  "durationTicks": 96,
		  "midi": 75,
		  "name": "D#5",
		  "ticks": 42432,
		  "time": 47.35709550000001,
		  "velocity": 0.3937007874015748
		},
		{
		  "duration": 0.10714274999999418,
		  "durationTicks": 96,
		  "midi": 63,
		  "name": "D#4",
		  "ticks": 42432,
		  "time": 47.35709550000001,
		  "velocity": 0.3937007874015748
		},
		{
		  "duration": 0.10714274999999418,
		  "durationTicks": 96,
		  "midi": 66,
		  "name": "F#4",
		  "ticks": 42432,
		  "time": 47.35709550000001,
		  "velocity": 0.3937007874015748
		},
		{
		  "duration": 0.10714275000000129,
		  "durationTicks": 96,
		  "midi": 72,
		  "name": "C5",
		  "ticks": 42528,
		  "time": 47.46423825,
		  "velocity": 0.3937007874015748
		},
		{
		  "duration": 0.10714275000000129,
		  "durationTicks": 96,
		  "midi": 73,
		  "name": "C#5",
		  "ticks": 42624,
		  "time": 47.571381,
		  "velocity": 0.3937007874015748
		},
		{
		  "duration": 0.10714275000000129,
		  "durationTicks": 96,
		  "midi": 64,
		  "name": "E4",
		  "ticks": 42624,
		  "time": 47.571381,
		  "velocity": 0.3937007874015748
		},
		{
		  "duration": 0.10714275000000129,
		  "durationTicks": 96,
		  "midi": 61,
		  "name": "C#4",
		  "ticks": 42624,
		  "time": 47.571381,
		  "velocity": 0.3937007874015748
		},
		{
		  "duration": 0.10714274999999418,
		  "durationTicks": 96,
		  "midi": 85,
		  "name": "C#6",
		  "ticks": 43008,
		  "time": 47.99995200000001,
		  "velocity": 0.3937007874015748
		},
		{
		  "duration": 0.10714275000000129,
		  "durationTicks": 96,
		  "midi": 86,
		  "name": "D6",
		  "ticks": 43104,
		  "time": 48.10709475,
		  "velocity": 0.3937007874015748
		},
		{
		  "duration": 0.10714275000000129,
		  "durationTicks": 96,
		  "midi": 85,
		  "name": "C#6",
		  "ticks": 43200,
		  "time": 48.2142375,
		  "velocity": 0.3937007874015748
		},
		{
		  "duration": 0.10714275000000129,
		  "durationTicks": 96,
		  "midi": 83,
		  "name": "B5",
		  "ticks": 43296,
		  "time": 48.321380250000004,
		  "velocity": 0.3937007874015748
		},
		{
		  "duration": 0.10714275000000129,
		  "durationTicks": 96,
		  "midi": 81,
		  "name": "A5",
		  "ticks": 43392,
		  "time": 48.428523000000006,
		  "velocity": 0.3937007874015748
		},
		{
		  "duration": 0.10714275000000129,
		  "durationTicks": 96,
		  "midi": 54,
		  "name": "F#3",
		  "ticks": 43392,
		  "time": 48.428523000000006,
		  "velocity": 0.3937007874015748
		},
		{
		  "duration": 0.10714274999999418,
		  "durationTicks": 96,
		  "midi": 83,
		  "name": "B5",
		  "ticks": 43488,
		  "time": 48.53566575000001,
		  "velocity": 0.3937007874015748
		},
		{
		  "duration": 0.10714275000000129,
		  "durationTicks": 96,
		  "midi": 81,
		  "name": "A5",
		  "ticks": 43584,
		  "time": 48.6428085,
		  "velocity": 0.3937007874015748
		},
		{
		  "duration": 0.10714275000000129,
		  "durationTicks": 96,
		  "midi": 57,
		  "name": "A3",
		  "ticks": 43584,
		  "time": 48.6428085,
		  "velocity": 0.3937007874015748
		},
		{
		  "duration": 0.10714275000000129,
		  "durationTicks": 96,
		  "midi": 61,
		  "name": "C#4",
		  "ticks": 43584,
		  "time": 48.6428085,
		  "velocity": 0.3937007874015748
		},
		{
		  "duration": 0.10714275000000129,
		  "durationTicks": 96,
		  "midi": 80,
		  "name": "G#5",
		  "ticks": 43680,
		  "time": 48.74995125,
		  "velocity": 0.3937007874015748
		},
		{
		  "duration": 0.10714275000000129,
		  "durationTicks": 96,
		  "midi": 78,
		  "name": "F#5",
		  "ticks": 43776,
		  "time": 48.857094000000004,
		  "velocity": 0.3937007874015748
		},
		{
		  "duration": 0.10714275000000129,
		  "durationTicks": 96,
		  "midi": 57,
		  "name": "A3",
		  "ticks": 43776,
		  "time": 48.857094000000004,
		  "velocity": 0.3937007874015748
		},
		{
		  "duration": 0.10714275000000129,
		  "durationTicks": 96,
		  "midi": 61,
		  "name": "C#4",
		  "ticks": 43776,
		  "time": 48.857094000000004,
		  "velocity": 0.3937007874015748
		},
		{
		  "duration": 0.10714275000000129,
		  "durationTicks": 96,
		  "midi": 81,
		  "name": "A5",
		  "ticks": 43872,
		  "time": 48.964236750000005,
		  "velocity": 0.3937007874015748
		},
		{
		  "duration": 0.10714275000000129,
		  "durationTicks": 96,
		  "midi": 61,
		  "name": "C#4",
		  "ticks": 43968,
		  "time": 49.071379500000006,
		  "velocity": 0.3937007874015748
		},
		{
		  "duration": 0.10714275000000129,
		  "durationTicks": 96,
		  "midi": 57,
		  "name": "A3",
		  "ticks": 43968,
		  "time": 49.071379500000006,
		  "velocity": 0.3937007874015748
		},
		{
		  "duration": 0.10714275000000129,
		  "durationTicks": 96,
		  "midi": 80,
		  "name": "G#5",
		  "ticks": 43968,
		  "time": 49.071379500000006,
		  "velocity": 0.3937007874015748
		},
		{
		  "duration": 0.10714274999999418,
		  "durationTicks": 96,
		  "midi": 78,
		  "name": "F#5",
		  "ticks": 44064,
		  "time": 49.17852225000001,
		  "velocity": 0.3937007874015748
		},
		{
		  "duration": 0.10714275000000129,
		  "durationTicks": 96,
		  "midi": 77,
		  "name": "F5",
		  "ticks": 44160,
		  "time": 49.285665,
		  "velocity": 0.3937007874015748
		},
		{
		  "duration": 0.10714275000000129,
		  "durationTicks": 96,
		  "midi": 56,
		  "name": "G#3",
		  "ticks": 44160,
		  "time": 49.285665,
		  "velocity": 0.3937007874015748
		},
		{
		  "duration": 0.10714275000000129,
		  "durationTicks": 96,
		  "midi": 78,
		  "name": "F#5",
		  "ticks": 44256,
		  "time": 49.39280775,
		  "velocity": 0.3937007874015748
		},
		{
		  "duration": 0.10714275000000129,
		  "durationTicks": 96,
		  "midi": 80,
		  "name": "G#5",
		  "ticks": 44352,
		  "time": 49.499950500000004,
		  "velocity": 0.3937007874015748
		},
		{
		  "duration": 0.10714275000000129,
		  "durationTicks": 96,
		  "midi": 59,
		  "name": "B3",
		  "ticks": 44352,
		  "time": 49.499950500000004,
		  "velocity": 0.3937007874015748
		},
		{
		  "duration": 0.10714275000000129,
		  "durationTicks": 96,
		  "midi": 61,
		  "name": "C#4",
		  "ticks": 44352,
		  "time": 49.499950500000004,
		  "velocity": 0.3937007874015748
		},
		{
		  "duration": 0.10714275000000129,
		  "durationTicks": 96,
		  "midi": 77,
		  "name": "F5",
		  "ticks": 44448,
		  "time": 49.607093250000005,
		  "velocity": 0.3937007874015748
		},
		{
		  "duration": 0.10714274999999418,
		  "durationTicks": 96,
		  "midi": 59,
		  "name": "B3",
		  "ticks": 44544,
		  "time": 49.71423600000001,
		  "velocity": 0.3937007874015748
		},
		{
		  "duration": 0.10714274999999418,
		  "durationTicks": 96,
		  "midi": 61,
		  "name": "C#4",
		  "ticks": 44544,
		  "time": 49.71423600000001,
		  "velocity": 0.3937007874015748
		},
		{
		  "duration": 0.10714274999999418,
		  "durationTicks": 96,
		  "midi": 73,
		  "name": "C#5",
		  "ticks": 44544,
		  "time": 49.71423600000001,
		  "velocity": 0.3937007874015748
		},
		{
		  "duration": 0.10714275000000129,
		  "durationTicks": 96,
		  "midi": 75,
		  "name": "D#5",
		  "ticks": 44640,
		  "time": 49.82137875,
		  "velocity": 0.3937007874015748
		},
		{
		  "duration": 0.10714275000000129,
		  "durationTicks": 96,
		  "midi": 59,
		  "name": "B3",
		  "ticks": 44736,
		  "time": 49.9285215,
		  "velocity": 0.3937007874015748
		},
		{
		  "duration": 0.10714275000000129,
		  "durationTicks": 96,
		  "midi": 61,
		  "name": "C#4",
		  "ticks": 44736,
		  "time": 49.9285215,
		  "velocity": 0.3937007874015748
		},
		{
		  "duration": 0.10714275000000129,
		  "durationTicks": 96,
		  "midi": 77,
		  "name": "F5",
		  "ticks": 44736,
		  "time": 49.9285215,
		  "velocity": 0.3937007874015748
		},
		{
		  "duration": 0.10714275000000129,
		  "durationTicks": 96,
		  "midi": 73,
		  "name": "C#5",
		  "ticks": 44832,
		  "time": 50.03566425,
		  "velocity": 0.3937007874015748
		},
		{
		  "duration": 0.10714275000000129,
		  "durationTicks": 96,
		  "midi": 78,
		  "name": "F#5",
		  "ticks": 44928,
		  "time": 50.142807000000005,
		  "velocity": 0.3937007874015748
		},
		{
		  "duration": 0.10714275000000129,
		  "durationTicks": 96,
		  "midi": 54,
		  "name": "F#3",
		  "ticks": 44928,
		  "time": 50.142807000000005,
		  "velocity": 0.3937007874015748
		},
		{
		  "duration": 0.10714275000000129,
		  "durationTicks": 96,
		  "midi": 77,
		  "name": "F5",
		  "ticks": 45024,
		  "time": 50.249949750000006,
		  "velocity": 0.3937007874015748
		},
		{
		  "duration": 0.10714274999999418,
		  "durationTicks": 96,
		  "midi": 78,
		  "name": "F#5",
		  "ticks": 45120,
		  "time": 50.35709250000001,
		  "velocity": 0.3937007874015748
		},
		{
		  "duration": 0.10714274999999418,
		  "durationTicks": 96,
		  "midi": 57,
		  "name": "A3",
		  "ticks": 45120,
		  "time": 50.35709250000001,
		  "velocity": 0.3937007874015748
		},
		{
		  "duration": 0.10714274999999418,
		  "durationTicks": 96,
		  "midi": 61,
		  "name": "C#4",
		  "ticks": 45120,
		  "time": 50.35709250000001,
		  "velocity": 0.3937007874015748
		},
		{
		  "duration": 0.10714275000000129,
		  "durationTicks": 96,
		  "midi": 80,
		  "name": "G#5",
		  "ticks": 45216,
		  "time": 50.46423525,
		  "velocity": 0.3937007874015748
		},
		{
		  "duration": 0.10714275000000129,
		  "durationTicks": 96,
		  "midi": 81,
		  "name": "A5",
		  "ticks": 45312,
		  "time": 50.571378,
		  "velocity": 0.3937007874015748
		},
		{
		  "duration": 0.10714275000000129,
		  "durationTicks": 96,
		  "midi": 57,
		  "name": "A3",
		  "ticks": 45312,
		  "time": 50.571378,
		  "velocity": 0.3937007874015748
		},
		{
		  "duration": 0.10714275000000129,
		  "durationTicks": 96,
		  "midi": 61,
		  "name": "C#4",
		  "ticks": 45312,
		  "time": 50.571378,
		  "velocity": 0.3937007874015748
		},
		{
		  "duration": 0.10714275000000129,
		  "durationTicks": 96,
		  "midi": 80,
		  "name": "G#5",
		  "ticks": 45408,
		  "time": 50.678520750000004,
		  "velocity": 0.3937007874015748
		},
		{
		  "duration": 0.10714275000000129,
		  "durationTicks": 96,
		  "midi": 81,
		  "name": "A5",
		  "ticks": 45504,
		  "time": 50.785663500000005,
		  "velocity": 0.3937007874015748
		},
		{
		  "duration": 0.10714275000000129,
		  "durationTicks": 96,
		  "midi": 57,
		  "name": "A3",
		  "ticks": 45504,
		  "time": 50.785663500000005,
		  "velocity": 0.3937007874015748
		},
		{
		  "duration": 0.10714275000000129,
		  "durationTicks": 96,
		  "midi": 61,
		  "name": "C#4",
		  "ticks": 45504,
		  "time": 50.785663500000005,
		  "velocity": 0.3937007874015748
		},
		{
		  "duration": 0.10714274999999418,
		  "durationTicks": 96,
		  "midi": 83,
		  "name": "B5",
		  "ticks": 45600,
		  "time": 50.89280625000001,
		  "velocity": 0.3937007874015748
		},
		{
		  "duration": 0.10714275000000129,
		  "durationTicks": 96,
		  "midi": 85,
		  "name": "C#6",
		  "ticks": 45696,
		  "time": 50.999949,
		  "velocity": 0.3937007874015748
		},
		{
		  "duration": 0.10714275000000129,
		  "durationTicks": 96,
		  "midi": 53,
		  "name": "F3",
		  "ticks": 45696,
		  "time": 50.999949,
		  "velocity": 0.3937007874015748
		},
		{
		  "duration": 0.10714275000000129,
		  "durationTicks": 96,
		  "midi": 84,
		  "name": "C6",
		  "ticks": 45792,
		  "time": 51.10709175,
		  "velocity": 0.3937007874015748
		},
		{
		  "duration": 0.10714275000000129,
		  "durationTicks": 96,
		  "midi": 85,
		  "name": "C#6",
		  "ticks": 45888,
		  "time": 51.2142345,
		  "velocity": 0.3937007874015748
		},
		{
		  "duration": 0.10714275000000129,
		  "durationTicks": 96,
		  "midi": 56,
		  "name": "G#3",
		  "ticks": 45888,
		  "time": 51.2142345,
		  "velocity": 0.3937007874015748
		},
		{
		  "duration": 0.10714275000000129,
		  "durationTicks": 96,
		  "midi": 61,
		  "name": "C#4",
		  "ticks": 45888,
		  "time": 51.2142345,
		  "velocity": 0.3937007874015748
		},
		{
		  "duration": 0.10714275000000129,
		  "durationTicks": 96,
		  "midi": 84,
		  "name": "C6",
		  "ticks": 45984,
		  "time": 51.321377250000005,
		  "velocity": 0.3937007874015748
		},
		{
		  "duration": 0.10714275000000129,
		  "durationTicks": 96,
		  "midi": 85,
		  "name": "C#6",
		  "ticks": 46080,
		  "time": 51.428520000000006,
		  "velocity": 0.3937007874015748
		},
		{
		  "duration": 0.10714275000000129,
		  "durationTicks": 96,
		  "midi": 56,
		  "name": "G#3",
		  "ticks": 46080,
		  "time": 51.428520000000006,
		  "velocity": 0.3937007874015748
		},
		{
		  "duration": 0.10714275000000129,
		  "durationTicks": 96,
		  "midi": 61,
		  "name": "C#4",
		  "ticks": 46080,
		  "time": 51.428520000000006,
		  "velocity": 0.3937007874015748
		},
		{
		  "duration": 0.10714274999999418,
		  "durationTicks": 96,
		  "midi": 86,
		  "name": "D6",
		  "ticks": 46176,
		  "time": 51.53566275000001,
		  "velocity": 0.3937007874015748
		},
		{
		  "duration": 0.10714275000000129,
		  "durationTicks": 96,
		  "midi": 85,
		  "name": "C#6",
		  "ticks": 46272,
		  "time": 51.6428055,
		  "velocity": 0.3937007874015748
		},
		{
		  "duration": 0.10714275000000129,
		  "durationTicks": 96,
		  "midi": 56,
		  "name": "G#3",
		  "ticks": 46272,
		  "time": 51.6428055,
		  "velocity": 0.3937007874015748
		},
		{
		  "duration": 0.10714275000000129,
		  "durationTicks": 96,
		  "midi": 61,
		  "name": "C#4",
		  "ticks": 46272,
		  "time": 51.6428055,
		  "velocity": 0.3937007874015748
		},
		{
		  "duration": 0.10714275000000129,
		  "durationTicks": 96,
		  "midi": 83,
		  "name": "B5",
		  "ticks": 46368,
		  "time": 51.74994825,
		  "velocity": 0.3937007874015748
		},
		{
		  "duration": 0.10714275000000129,
		  "durationTicks": 96,
		  "midi": 81,
		  "name": "A5",
		  "ticks": 46464,
		  "time": 51.857091000000004,
		  "velocity": 0.3937007874015748
		},
		{
		  "duration": 0.10714275000000129,
		  "durationTicks": 96,
		  "midi": 54,
		  "name": "F#3",
		  "ticks": 46464,
		  "time": 51.857091000000004,
		  "velocity": 0.3937007874015748
		},
		{
		  "duration": 0.10714275000000129,
		  "durationTicks": 96,
		  "midi": 83,
		  "name": "B5",
		  "ticks": 46560,
		  "time": 51.964233750000005,
		  "velocity": 0.3937007874015748
		},
		{
		  "duration": 0.10714274999999418,
		  "durationTicks": 96,
		  "midi": 57,
		  "name": "A3",
		  "ticks": 46656,
		  "time": 52.07137650000001,
		  "velocity": 0.3937007874015748
		},
		{
		  "duration": 0.10714274999999418,
		  "durationTicks": 96,
		  "midi": 61,
		  "name": "C#4",
		  "ticks": 46656,
		  "time": 52.07137650000001,
		  "velocity": 0.3937007874015748
		},
		{
		  "duration": 0.10714274999999418,
		  "durationTicks": 96,
		  "midi": 81,
		  "name": "A5",
		  "ticks": 46656,
		  "time": 52.07137650000001,
		  "velocity": 0.3937007874015748
		},
		{
		  "duration": 0.10714275000000129,
		  "durationTicks": 96,
		  "midi": 80,
		  "name": "G#5",
		  "ticks": 46752,
		  "time": 52.17851925,
		  "velocity": 0.3937007874015748
		},
		{
		  "duration": 0.10714275000000129,
		  "durationTicks": 96,
		  "midi": 57,
		  "name": "A3",
		  "ticks": 46848,
		  "time": 52.285662,
		  "velocity": 0.3937007874015748
		},
		{
		  "duration": 0.10714275000000129,
		  "durationTicks": 96,
		  "midi": 61,
		  "name": "C#4",
		  "ticks": 46848,
		  "time": 52.285662,
		  "velocity": 0.3937007874015748
		},
		{
		  "duration": 0.10714275000000129,
		  "durationTicks": 96,
		  "midi": 78,
		  "name": "F#5",
		  "ticks": 46848,
		  "time": 52.285662,
		  "velocity": 0.3937007874015748
		},
		{
		  "duration": 0.10714275000000129,
		  "durationTicks": 96,
		  "midi": 81,
		  "name": "A5",
		  "ticks": 46944,
		  "time": 52.39280475,
		  "velocity": 0.3937007874015748
		},
		{
		  "duration": 0.10714275000000129,
		  "durationTicks": 96,
		  "midi": 57,
		  "name": "A3",
		  "ticks": 47040,
		  "time": 52.499947500000005,
		  "velocity": 0.3937007874015748
		},
		{
		  "duration": 0.10714275000000129,
		  "durationTicks": 96,
		  "midi": 61,
		  "name": "C#4",
		  "ticks": 47040,
		  "time": 52.499947500000005,
		  "velocity": 0.3937007874015748
		},
		{
		  "duration": 0.10714275000000129,
		  "durationTicks": 96,
		  "midi": 80,
		  "name": "G#5",
		  "ticks": 47040,
		  "time": 52.499947500000005,
		  "velocity": 0.3937007874015748
		},
		{
		  "duration": 0.10714275000000129,
		  "durationTicks": 96,
		  "midi": 78,
		  "name": "F#5",
		  "ticks": 47136,
		  "time": 52.607090250000006,
		  "velocity": 0.3937007874015748
		},
		{
		  "duration": 0.10714274999999418,
		  "durationTicks": 96,
		  "midi": 76,
		  "name": "E5",
		  "ticks": 47232,
		  "time": 52.71423300000001,
		  "velocity": 0.3937007874015748
		},
		{
		  "duration": 0.10714274999999418,
		  "durationTicks": 96,
		  "midi": 56,
		  "name": "G#3",
		  "ticks": 47232,
		  "time": 52.71423300000001,
		  "velocity": 0.3937007874015748
		},
		{
		  "duration": 0.10714275000000129,
		  "durationTicks": 96,
		  "midi": 78,
		  "name": "F#5",
		  "ticks": 47328,
		  "time": 52.82137575,
		  "velocity": 0.3937007874015748
		},
		{
		  "duration": 0.10714275000000129,
		  "durationTicks": 96,
		  "midi": 80,
		  "name": "G#5",
		  "ticks": 47424,
		  "time": 52.9285185,
		  "velocity": 0.3937007874015748
		},
		{
		  "duration": 0.10714275000000129,
		  "durationTicks": 96,
		  "midi": 61,
		  "name": "C#4",
		  "ticks": 47424,
		  "time": 52.9285185,
		  "velocity": 0.3937007874015748
		},
		{
		  "duration": 0.10714275000000129,
		  "durationTicks": 96,
		  "midi": 64,
		  "name": "E4",
		  "ticks": 47424,
		  "time": 52.9285185,
		  "velocity": 0.3937007874015748
		},
		{
		  "duration": 0.10714275000000129,
		  "durationTicks": 96,
		  "midi": 76,
		  "name": "E5",
		  "ticks": 47520,
		  "time": 53.035661250000004,
		  "velocity": 0.3937007874015748
		},
		{
		  "duration": 0.10714275000000129,
		  "durationTicks": 96,
		  "midi": 73,
		  "name": "C#5",
		  "ticks": 47616,
		  "time": 53.142804000000005,
		  "velocity": 0.3937007874015748
		},
		{
		  "duration": 0.10714275000000129,
		  "durationTicks": 96,
		  "midi": 61,
		  "name": "C#4",
		  "ticks": 47616,
		  "time": 53.142804000000005,
		  "velocity": 0.3937007874015748
		},
		{
		  "duration": 0.10714275000000129,
		  "durationTicks": 96,
		  "midi": 64,
		  "name": "E4",
		  "ticks": 47616,
		  "time": 53.142804000000005,
		  "velocity": 0.3937007874015748
		},
		{
		  "duration": 0.10714275000000129,
		  "durationTicks": 96,
		  "midi": 75,
		  "name": "D#5",
		  "ticks": 47712,
		  "time": 53.24994675000001,
		  "velocity": 0.3937007874015748
		},
		{
		  "duration": 0.10714274999999418,
		  "durationTicks": 96,
		  "midi": 76,
		  "name": "E5",
		  "ticks": 47808,
		  "time": 53.35708950000001,
		  "velocity": 0.3937007874015748
		},
		{
		  "duration": 0.10714274999999418,
		  "durationTicks": 96,
		  "midi": 61,
		  "name": "C#4",
		  "ticks": 47808,
		  "time": 53.35708950000001,
		  "velocity": 0.3937007874015748
		},
		{
		  "duration": 0.10714274999999418,
		  "durationTicks": 96,
		  "midi": 64,
		  "name": "E4",
		  "ticks": 47808,
		  "time": 53.35708950000001,
		  "velocity": 0.3937007874015748
		},
		{
		  "duration": 0.10714275000000129,
		  "durationTicks": 96,
		  "midi": 73,
		  "name": "C#5",
		  "ticks": 47904,
		  "time": 53.46423225,
		  "velocity": 0.3937007874015748
		},
		{
		  "duration": 0.10714275000000129,
		  "durationTicks": 96,
		  "midi": 75,
		  "name": "D#5",
		  "ticks": 48000,
		  "time": 53.571375,
		  "velocity": 0.3937007874015748
		},
		{
		  "duration": 0.10714275000000129,
		  "durationTicks": 96,
		  "midi": 56,
		  "name": "G#3",
		  "ticks": 48000,
		  "time": 53.571375,
		  "velocity": 0.3937007874015748
		},
		{
		  "duration": 0.10714275000000129,
		  "durationTicks": 96,
		  "midi": 76,
		  "name": "E5",
		  "ticks": 48096,
		  "time": 53.678517750000005,
		  "velocity": 0.3937007874015748
		},
		{
		  "duration": 0.10714275000000129,
		  "durationTicks": 96,
		  "midi": 78,
		  "name": "F#5",
		  "ticks": 48192,
		  "time": 53.785660500000006,
		  "velocity": 0.3937007874015748
		},
		{
		  "duration": 0.10714275000000129,
		  "durationTicks": 96,
		  "midi": 63,
		  "name": "D#4",
		  "ticks": 48192,
		  "time": 53.785660500000006,
		  "velocity": 0.3937007874015748
		},
		{
		  "duration": 0.10714275000000129,
		  "durationTicks": 96,
		  "midi": 66,
		  "name": "F#4",
		  "ticks": 48192,
		  "time": 53.785660500000006,
		  "velocity": 0.3937007874015748
		},
		{
		  "duration": 0.10714274999999418,
		  "durationTicks": 96,
		  "midi": 75,
		  "name": "D#5",
		  "ticks": 48288,
		  "time": 53.89280325000001,
		  "velocity": 0.3937007874015748
		},
		{
		  "duration": 0.10714275000000129,
		  "durationTicks": 96,
		  "midi": 72,
		  "name": "C5",
		  "ticks": 48384,
		  "time": 53.999946,
		  "velocity": 0.3937007874015748
		},
		{
		  "duration": 0.10714275000000129,
		  "durationTicks": 96,
		  "midi": 63,
		  "name": "D#4",
		  "ticks": 48384,
		  "time": 53.999946,
		  "velocity": 0.3937007874015748
		},
		{
		  "duration": 0.10714275000000129,
		  "durationTicks": 96,
		  "midi": 66,
		  "name": "F#4",
		  "ticks": 48384,
		  "time": 53.999946,
		  "velocity": 0.3937007874015748
		},
		{
		  "duration": 0.10714275000000129,
		  "durationTicks": 96,
		  "midi": 73,
		  "name": "C#5",
		  "ticks": 48480,
		  "time": 54.10708875,
		  "velocity": 0.3937007874015748
		},
		{
		  "duration": 0.10714275000000129,
		  "durationTicks": 96,
		  "midi": 75,
		  "name": "D#5",
		  "ticks": 48576,
		  "time": 54.214231500000004,
		  "velocity": 0.3937007874015748
		},
		{
		  "duration": 0.10714275000000129,
		  "durationTicks": 96,
		  "midi": 63,
		  "name": "D#4",
		  "ticks": 48576,
		  "time": 54.214231500000004,
		  "velocity": 0.3937007874015748
		},
		{
		  "duration": 0.10714275000000129,
		  "durationTicks": 96,
		  "midi": 66,
		  "name": "F#4",
		  "ticks": 48576,
		  "time": 54.214231500000004,
		  "velocity": 0.3937007874015748
		},
		{
		  "duration": 0.10714275000000129,
		  "durationTicks": 96,
		  "midi": 72,
		  "name": "C5",
		  "ticks": 48672,
		  "time": 54.321374250000005,
		  "velocity": 0.3937007874015748
		},
		{
		  "duration": 0.10714275000000129,
		  "durationTicks": 96,
		  "midi": 73,
		  "name": "C#5",
		  "ticks": 48768,
		  "time": 54.42851700000001,
		  "velocity": 0.3937007874015748
		},
		{
		  "duration": 0.10714275000000129,
		  "durationTicks": 96,
		  "midi": 64,
		  "name": "E4",
		  "ticks": 48768,
		  "time": 54.42851700000001,
		  "velocity": 0.3937007874015748
		},
		{
		  "duration": 0.10714275000000129,
		  "durationTicks": 96,
		  "midi": 61,
		  "name": "C#4",
		  "ticks": 48768,
		  "time": 54.42851700000001,
		  "velocity": 0.3937007874015748
		},
		{
		  "duration": 0.10714275000000129,
		  "durationTicks": 96,
		  "midi": 76,
		  "name": "E5",
		  "ticks": 49152,
		  "time": 54.857088000000005,
		  "velocity": 0.3937007874015748
		},
		{
		  "duration": 0.10714275000000129,
		  "durationTicks": 96,
		  "midi": 74,
		  "name": "D5",
		  "ticks": 49248,
		  "time": 54.964230750000006,
		  "velocity": 0.3937007874015748
		},
		{
		  "duration": 0.10714274999999418,
		  "durationTicks": 96,
		  "midi": 73,
		  "name": "C#5",
		  "ticks": 49344,
		  "time": 55.07137350000001,
		  "velocity": 0.3937007874015748
		},
		{
		  "duration": 0.10714275000000129,
		  "durationTicks": 96,
		  "midi": 71,
		  "name": "B4",
		  "ticks": 49440,
		  "time": 55.17851625,
		  "velocity": 0.3937007874015748
		},
		{
		  "duration": 0.10714275000000129,
		  "durationTicks": 96,
		  "midi": 69,
		  "name": "A4",
		  "ticks": 49536,
		  "time": 55.285659,
		  "velocity": 0.3937007874015748
		},
		{
		  "duration": 0.10714275000000129,
		  "durationTicks": 96,
		  "midi": 57,
		  "name": "A3",
		  "ticks": 49536,
		  "time": 55.285659,
		  "velocity": 0.3937007874015748
		},
		{
		  "duration": 0.10714275000000129,
		  "durationTicks": 96,
		  "midi": 71,
		  "name": "B4",
		  "ticks": 49632,
		  "time": 55.392801750000004,
		  "velocity": 0.3937007874015748
		},
		{
		  "duration": 0.10714275000000129,
		  "durationTicks": 96,
		  "midi": 61,
		  "name": "C#4",
		  "ticks": 49728,
		  "time": 55.499944500000005,
		  "velocity": 0.3937007874015748
		},
		{
		  "duration": 0.10714275000000129,
		  "durationTicks": 96,
		  "midi": 64,
		  "name": "E4",
		  "ticks": 49728,
		  "time": 55.499944500000005,
		  "velocity": 0.3937007874015748
		},
		{
		  "duration": 0.10714275000000129,
		  "durationTicks": 96,
		  "midi": 73,
		  "name": "C#5",
		  "ticks": 49728,
		  "time": 55.499944500000005,
		  "velocity": 0.3937007874015748
		},
		{
		  "duration": 0.10714275000000129,
		  "durationTicks": 96,
		  "midi": 74,
		  "name": "D5",
		  "ticks": 49824,
		  "time": 55.607087250000006,
		  "velocity": 0.3937007874015748
		},
		{
		  "duration": 0.10714274999999418,
		  "durationTicks": 96,
		  "midi": 61,
		  "name": "C#4",
		  "ticks": 49920,
		  "time": 55.71423000000001,
		  "velocity": 0.3937007874015748
		},
		{
		  "duration": 0.10714274999999418,
		  "durationTicks": 96,
		  "midi": 64,
		  "name": "E4",
		  "ticks": 49920,
		  "time": 55.71423000000001,
		  "velocity": 0.3937007874015748
		},
		{
		  "duration": 0.10714274999999418,
		  "durationTicks": 96,
		  "midi": 76,
		  "name": "E5",
		  "ticks": 49920,
		  "time": 55.71423000000001,
		  "velocity": 0.3937007874015748
		},
		{
		  "duration": 0.10714275000000129,
		  "durationTicks": 96,
		  "midi": 78,
		  "name": "F#5",
		  "ticks": 50016,
		  "time": 55.82137275,
		  "velocity": 0.3937007874015748
		},
		{
		  "duration": 0.10714275000000129,
		  "durationTicks": 96,
		  "midi": 61,
		  "name": "C#4",
		  "ticks": 50112,
		  "time": 55.9285155,
		  "velocity": 0.3937007874015748
		},
		{
		  "duration": 0.10714275000000129,
		  "durationTicks": 96,
		  "midi": 64,
		  "name": "E4",
		  "ticks": 50112,
		  "time": 55.9285155,
		  "velocity": 0.3937007874015748
		},
		{
		  "duration": 0.10714275000000129,
		  "durationTicks": 96,
		  "midi": 80,
		  "name": "G#5",
		  "ticks": 50112,
		  "time": 55.9285155,
		  "velocity": 0.3937007874015748
		},
		{
		  "duration": 0.10714275000000129,
		  "durationTicks": 96,
		  "midi": 81,
		  "name": "A5",
		  "ticks": 50208,
		  "time": 56.035658250000004,
		  "velocity": 0.3937007874015748
		},
		{
		  "duration": 0.10714275000000129,
		  "durationTicks": 96,
		  "midi": 59,
		  "name": "B3",
		  "ticks": 50304,
		  "time": 56.142801000000006,
		  "velocity": 0.3937007874015748
		},
		{
		  "duration": 0.10714275000000129,
		  "durationTicks": 96,
		  "midi": 81,
		  "name": "A5",
		  "ticks": 50304,
		  "time": 56.142801000000006,
		  "velocity": 0.3937007874015748
		},
		{
		  "duration": 0.10714274999999418,
		  "durationTicks": 96,
		  "midi": 80,
		  "name": "G#5",
		  "ticks": 50400,
		  "time": 56.24994375000001,
		  "velocity": 0.3937007874015748
		},
		{
		  "duration": 0.10714275000000129,
		  "durationTicks": 96,
		  "midi": 62,
		  "name": "D4",
		  "ticks": 50496,
		  "time": 56.3570865,
		  "velocity": 0.3937007874015748
		},
		{
		  "duration": 0.10714275000000129,
		  "durationTicks": 96,
		  "midi": 64,
		  "name": "E4",
		  "ticks": 50496,
		  "time": 56.3570865,
		  "velocity": 0.3937007874015748
		},
		{
		  "duration": 0.10714275000000129,
		  "durationTicks": 96,
		  "midi": 78,
		  "name": "F#5",
		  "ticks": 50496,
		  "time": 56.3570865,
		  "velocity": 0.3937007874015748
		},
		{
		  "duration": 0.10714275000000129,
		  "durationTicks": 96,
		  "midi": 76,
		  "name": "E5",
		  "ticks": 50592,
		  "time": 56.46422925,
		  "velocity": 0.3937007874015748
		},
		{
		  "duration": 0.10714275000000129,
		  "durationTicks": 96,
		  "midi": 76,
		  "name": "E5",
		  "ticks": 50688,
		  "time": 56.571372000000004,
		  "velocity": 0.3937007874015748
		},
		{
		  "duration": 0.10714275000000129,
		  "durationTicks": 96,
		  "midi": 56,
		  "name": "G#3",
		  "ticks": 50688,
		  "time": 56.571372000000004,
		  "velocity": 0.3937007874015748
		},
		{
		  "duration": 0.10714275000000129,
		  "durationTicks": 96,
		  "midi": 74,
		  "name": "D5",
		  "ticks": 50784,
		  "time": 56.678514750000005,
		  "velocity": 0.3937007874015748
		},
		{
		  "duration": 0.10714275000000129,
		  "durationTicks": 96,
		  "midi": 73,
		  "name": "C#5",
		  "ticks": 50880,
		  "time": 56.785657500000006,
		  "velocity": 0.3937007874015748
		},
		{
		  "duration": 0.10714275000000129,
		  "durationTicks": 96,
		  "midi": 62,
		  "name": "D4",
		  "ticks": 50880,
		  "time": 56.785657500000006,
		  "velocity": 0.3937007874015748
		},
		{
		  "duration": 0.10714275000000129,
		  "durationTicks": 96,
		  "midi": 64,
		  "name": "E4",
		  "ticks": 50880,
		  "time": 56.785657500000006,
		  "velocity": 0.3937007874015748
		},
		{
		  "duration": 0.10714274999999418,
		  "durationTicks": 96,
		  "midi": 71,
		  "name": "B4",
		  "ticks": 50976,
		  "time": 56.89280025000001,
		  "velocity": 0.3937007874015748
		},
		{
		  "duration": 0.10714275000000129,
		  "durationTicks": 96,
		  "midi": 69,
		  "name": "A4",
		  "ticks": 51072,
		  "time": 56.999943,
		  "velocity": 0.3937007874015748
		},
		{
		  "duration": 0.10714275000000129,
		  "durationTicks": 96,
		  "midi": 57,
		  "name": "A3",
		  "ticks": 51072,
		  "time": 56.999943,
		  "velocity": 0.3937007874015748
		},
		{
		  "duration": 0.10714275000000129,
		  "durationTicks": 96,
		  "midi": 71,
		  "name": "B4",
		  "ticks": 51168,
		  "time": 57.10708575,
		  "velocity": 0.3937007874015748
		},
		{
		  "duration": 0.10714275000000129,
		  "durationTicks": 96,
		  "midi": 61,
		  "name": "C#4",
		  "ticks": 51264,
		  "time": 57.214228500000004,
		  "velocity": 0.3937007874015748
		},
		{
		  "duration": 0.10714275000000129,
		  "durationTicks": 96,
		  "midi": 64,
		  "name": "E4",
		  "ticks": 51264,
		  "time": 57.214228500000004,
		  "velocity": 0.3937007874015748
		},
		{
		  "duration": 0.10714275000000129,
		  "durationTicks": 96,
		  "midi": 73,
		  "name": "C#5",
		  "ticks": 51264,
		  "time": 57.214228500000004,
		  "velocity": 0.3937007874015748
		},
		{
		  "duration": 0.10714275000000129,
		  "durationTicks": 96,
		  "midi": 74,
		  "name": "D5",
		  "ticks": 51360,
		  "time": 57.321371250000006,
		  "velocity": 0.3937007874015748
		},
		{
		  "duration": 0.10714275000000129,
		  "durationTicks": 96,
		  "midi": 61,
		  "name": "C#4",
		  "ticks": 51456,
		  "time": 57.42851400000001,
		  "velocity": 0.3937007874015748
		},
		{
		  "duration": 0.10714275000000129,
		  "durationTicks": 96,
		  "midi": 64,
		  "name": "E4",
		  "ticks": 51456,
		  "time": 57.42851400000001,
		  "velocity": 0.3937007874015748
		},
		{
		  "duration": 0.10714275000000129,
		  "durationTicks": 96,
		  "midi": 76,
		  "name": "E5",
		  "ticks": 51456,
		  "time": 57.42851400000001,
		  "velocity": 0.3937007874015748
		},
		{
		  "duration": 0.10714274999999418,
		  "durationTicks": 96,
		  "midi": 78,
		  "name": "F#5",
		  "ticks": 51552,
		  "time": 57.53565675000001,
		  "velocity": 0.3937007874015748
		},
		{
		  "duration": 0.10714275000000129,
		  "durationTicks": 96,
		  "midi": 61,
		  "name": "C#4",
		  "ticks": 51648,
		  "time": 57.6427995,
		  "velocity": 0.3937007874015748
		},
		{
		  "duration": 0.10714275000000129,
		  "durationTicks": 96,
		  "midi": 64,
		  "name": "E4",
		  "ticks": 51648,
		  "time": 57.6427995,
		  "velocity": 0.3937007874015748
		},
		{
		  "duration": 0.10714275000000129,
		  "durationTicks": 96,
		  "midi": 80,
		  "name": "G#5",
		  "ticks": 51648,
		  "time": 57.6427995,
		  "velocity": 0.3937007874015748
		},
		{
		  "duration": 0.10714275000000129,
		  "durationTicks": 96,
		  "midi": 81,
		  "name": "A5",
		  "ticks": 51744,
		  "time": 57.749942250000004,
		  "velocity": 0.3937007874015748
		},
		{
		  "duration": 0.10714275000000129,
		  "durationTicks": 96,
		  "midi": 82,
		  "name": "A#5",
		  "ticks": 51840,
		  "time": 57.857085000000005,
		  "velocity": 0.3937007874015748
		},
		{
		  "duration": 0.10714275000000129,
		  "durationTicks": 96,
		  "midi": 52,
		  "name": "E3",
		  "ticks": 51840,
		  "time": 57.857085000000005,
		  "velocity": 0.3937007874015748
		},
		{
		  "duration": 0.10714274999999418,
		  "durationTicks": 96,
		  "midi": 83,
		  "name": "B5",
		  "ticks": 52032,
		  "time": 58.07137050000001,
		  "velocity": 0.3937007874015748
		},
		{
		  "duration": 0.10714274999999418,
		  "durationTicks": 96,
		  "midi": 56,
		  "name": "G#3",
		  "ticks": 52032,
		  "time": 58.07137050000001,
		  "velocity": 0.3937007874015748
		},
		{
		  "duration": 0.10714274999999418,
		  "durationTicks": 96,
		  "midi": 62,
		  "name": "D4",
		  "ticks": 52032,
		  "time": 58.07137050000001,
		  "velocity": 0.3937007874015748
		},
		{
		  "duration": 0.10714275000000129,
		  "durationTicks": 96,
		  "midi": 56,
		  "name": "G#3",
		  "ticks": 52224,
		  "time": 58.285656,
		  "velocity": 0.3937007874015748
		},
		{
		  "duration": 0.10714275000000129,
		  "durationTicks": 96,
		  "midi": 62,
		  "name": "D4",
		  "ticks": 52224,
		  "time": 58.285656,
		  "velocity": 0.3937007874015748
		},
		{
		  "duration": 0.10714275000000129,
		  "durationTicks": 96,
		  "midi": 76,
		  "name": "E5",
		  "ticks": 52224,
		  "time": 58.285656,
		  "velocity": 0.3937007874015748
		},
		{
		  "duration": 0.10714275000000129,
		  "durationTicks": 96,
		  "midi": 74,
		  "name": "D5",
		  "ticks": 52320,
		  "time": 58.392798750000004,
		  "velocity": 0.3937007874015748
		},
		{
		  "duration": 0.10714275000000129,
		  "durationTicks": 96,
		  "midi": 56,
		  "name": "G#3",
		  "ticks": 52416,
		  "time": 58.499941500000006,
		  "velocity": 0.3937007874015748
		},
		{
		  "duration": 0.10714275000000129,
		  "durationTicks": 96,
		  "midi": 62,
		  "name": "D4",
		  "ticks": 52416,
		  "time": 58.499941500000006,
		  "velocity": 0.3937007874015748
		},
		{
		  "duration": 0.10714275000000129,
		  "durationTicks": 96,
		  "midi": 73,
		  "name": "C#5",
		  "ticks": 52416,
		  "time": 58.499941500000006,
		  "velocity": 0.3937007874015748
		},
		{
		  "duration": 0.10714275000000129,
		  "durationTicks": 96,
		  "midi": 71,
		  "name": "B4",
		  "ticks": 52512,
		  "time": 58.60708425000001,
		  "velocity": 0.3937007874015748
		},
		{
		  "duration": 0.10714274999999418,
		  "durationTicks": 96,
		  "midi": 69,
		  "name": "A4",
		  "ticks": 52608,
		  "time": 58.71422700000001,
		  "velocity": 0.3937007874015748
		},
		{
		  "duration": 0.10714274999999418,
		  "durationTicks": 96,
		  "midi": 57,
		  "name": "A3",
		  "ticks": 52608,
		  "time": 58.71422700000001,
		  "velocity": 0.3937007874015748
		},
		{
		  "duration": 0.10714275000000129,
		  "durationTicks": 96,
		  "midi": 71,
		  "name": "B4",
		  "ticks": 52704,
		  "time": 58.82136975,
		  "velocity": 0.3937007874015748
		},
		{
		  "duration": 0.10714275000000129,
		  "durationTicks": 96,
		  "midi": 73,
		  "name": "C#5",
		  "ticks": 52800,
		  "time": 58.928512500000004,
		  "velocity": 0.3937007874015748
		},
		{
		  "duration": 0.10714275000000129,
		  "durationTicks": 96,
		  "midi": 61,
		  "name": "C#4",
		  "ticks": 52800,
		  "time": 58.928512500000004,
		  "velocity": 0.3937007874015748
		},
		{
		  "duration": 0.10714275000000129,
		  "durationTicks": 96,
		  "midi": 64,
		  "name": "E4",
		  "ticks": 52800,
		  "time": 58.928512500000004,
		  "velocity": 0.3937007874015748
		},
		{
		  "duration": 0.10714275000000129,
		  "durationTicks": 96,
		  "midi": 74,
		  "name": "D5",
		  "ticks": 52896,
		  "time": 59.035655250000005,
		  "velocity": 0.3937007874015748
		},
		{
		  "duration": 0.10714275000000129,
		  "durationTicks": 96,
		  "midi": 61,
		  "name": "C#4",
		  "ticks": 52992,
		  "time": 59.142798000000006,
		  "velocity": 0.3937007874015748
		},
		{
		  "duration": 0.10714275000000129,
		  "durationTicks": 96,
		  "midi": 64,
		  "name": "E4",
		  "ticks": 52992,
		  "time": 59.142798000000006,
		  "velocity": 0.3937007874015748
		},
		{
		  "duration": 0.10714275000000129,
		  "durationTicks": 96,
		  "midi": 76,
		  "name": "E5",
		  "ticks": 52992,
		  "time": 59.142798000000006,
		  "velocity": 0.3937007874015748
		},
		{
		  "duration": 0.10714274999999418,
		  "durationTicks": 96,
		  "midi": 78,
		  "name": "F#5",
		  "ticks": 53088,
		  "time": 59.24994075000001,
		  "velocity": 0.3937007874015748
		},
		{
		  "duration": 0.10714275000000129,
		  "durationTicks": 96,
		  "midi": 61,
		  "name": "C#4",
		  "ticks": 53184,
		  "time": 59.3570835,
		  "velocity": 0.3937007874015748
		},
		{
		  "duration": 0.10714275000000129,
		  "durationTicks": 96,
		  "midi": 64,
		  "name": "E4",
		  "ticks": 53184,
		  "time": 59.3570835,
		  "velocity": 0.3937007874015748
		},
		{
		  "duration": 0.10714275000000129,
		  "durationTicks": 96,
		  "midi": 80,
		  "name": "G#5",
		  "ticks": 53184,
		  "time": 59.3570835,
		  "velocity": 0.3937007874015748
		},
		{
		  "duration": 0.10714275000000129,
		  "durationTicks": 96,
		  "midi": 81,
		  "name": "A5",
		  "ticks": 53280,
		  "time": 59.46422625,
		  "velocity": 0.3937007874015748
		},
		{
		  "duration": 0.10714275000000129,
		  "durationTicks": 96,
		  "midi": 81,
		  "name": "A5",
		  "ticks": 53376,
		  "time": 59.571369000000004,
		  "velocity": 0.3937007874015748
		},
		{
		  "duration": 0.10714275000000129,
		  "durationTicks": 96,
		  "midi": 59,
		  "name": "B3",
		  "ticks": 53376,
		  "time": 59.571369000000004,
		  "velocity": 0.3937007874015748
		},
		{
		  "duration": 0.10714275000000129,
		  "durationTicks": 96,
		  "midi": 80,
		  "name": "G#5",
		  "ticks": 53472,
		  "time": 59.678511750000006,
		  "velocity": 0.3937007874015748
		},
		{
		  "duration": 0.10714275000000129,
		  "durationTicks": 96,
		  "midi": 62,
		  "name": "D4",
		  "ticks": 53568,
		  "time": 59.78565450000001,
		  "velocity": 0.3937007874015748
		},
		{
		  "duration": 0.10714275000000129,
		  "durationTicks": 96,
		  "midi": 64,
		  "name": "E4",
		  "ticks": 53568,
		  "time": 59.78565450000001,
		  "velocity": 0.3937007874015748
		},
		{
		  "duration": 0.10714275000000129,
		  "durationTicks": 96,
		  "midi": 78,
		  "name": "F#5",
		  "ticks": 53568,
		  "time": 59.78565450000001,
		  "velocity": 0.3937007874015748
		},
		{
		  "duration": 0.10714274999999418,
		  "durationTicks": 96,
		  "midi": 76,
		  "name": "E5",
		  "ticks": 53664,
		  "time": 59.89279725000001,
		  "velocity": 0.3937007874015748
		},
		{
		  "duration": 0.10714275000000129,
		  "durationTicks": 96,
		  "midi": 56,
		  "name": "G#3",
		  "ticks": 53760,
		  "time": 59.99994,
		  "velocity": 0.3937007874015748
		},
		{
		  "duration": 0.10714275000000129,
		  "durationTicks": 96,
		  "midi": 76,
		  "name": "E5",
		  "ticks": 53760,
		  "time": 59.99994,
		  "velocity": 0.3937007874015748
		},
		{
		  "duration": 0.10714275000000129,
		  "durationTicks": 96,
		  "midi": 74,
		  "name": "D5",
		  "ticks": 53856,
		  "time": 60.107082750000004,
		  "velocity": 0.3937007874015748
		},
		{
		  "duration": 0.10714275000000129,
		  "durationTicks": 96,
		  "midi": 62,
		  "name": "D4",
		  "ticks": 53952,
		  "time": 60.214225500000005,
		  "velocity": 0.3937007874015748
		},
		{
		  "duration": 0.10714275000000129,
		  "durationTicks": 96,
		  "midi": 64,
		  "name": "E4",
		  "ticks": 53952,
		  "time": 60.214225500000005,
		  "velocity": 0.3937007874015748
		},
		{
		  "duration": 0.10714275000000129,
		  "durationTicks": 96,
		  "midi": 73,
		  "name": "C#5",
		  "ticks": 53952,
		  "time": 60.214225500000005,
		  "velocity": 0.3937007874015748
		},
		{
		  "duration": 0.10714275000000129,
		  "durationTicks": 96,
		  "midi": 71,
		  "name": "B4",
		  "ticks": 54048,
		  "time": 60.321368250000006,
		  "velocity": 0.3937007874015748
		},
		{
		  "duration": 0.10714274999999418,
		  "durationTicks": 96,
		  "midi": 73,
		  "name": "C#5",
		  "ticks": 54144,
		  "time": 60.42851100000001,
		  "velocity": 0.3937007874015748
		},
		{
		  "duration": 0.10714274999999418,
		  "durationTicks": 96,
		  "midi": 57,
		  "name": "A3",
		  "ticks": 54144,
		  "time": 60.42851100000001,
		  "velocity": 0.3937007874015748
		},
		{
		  "duration": 0.10714275000000129,
		  "durationTicks": 96,
		  "midi": 76,
		  "name": "E5",
		  "ticks": 54240,
		  "time": 60.53565375,
		  "velocity": 0.3937007874015748
		},
		{
		  "duration": 0.10714275000000129,
		  "durationTicks": 96,
		  "midi": 69,
		  "name": "A4",
		  "ticks": 54336,
		  "time": 60.6427965,
		  "velocity": 0.3937007874015748
		},
		{
		  "duration": 0.10714275000000129,
		  "durationTicks": 96,
		  "midi": 54,
		  "name": "F#3",
		  "ticks": 54336,
		  "time": 60.6427965,
		  "velocity": 0.3937007874015748
		},
		{
		  "duration": 0.10714275000000129,
		  "durationTicks": 96,
		  "midi": 73,
		  "name": "C#5",
		  "ticks": 54432,
		  "time": 60.749939250000004,
		  "velocity": 0.3937007874015748
		},
		{
		  "duration": 0.10714275000000129,
		  "durationTicks": 96,
		  "midi": 50,
		  "name": "D3",
		  "ticks": 54528,
		  "time": 60.857082000000005,
		  "velocity": 0.3937007874015748
		},
		{
		  "duration": 0.10714275000000129,
		  "durationTicks": 96,
		  "midi": 71,
		  "name": "B4",
		  "ticks": 54528,
		  "time": 60.857082000000005,
		  "velocity": 0.3937007874015748
		},
		{
		  "duration": 0.10714275000000129,
		  "durationTicks": 96,
		  "midi": 74,
		  "name": "D5",
		  "ticks": 54624,
		  "time": 60.96422475000001,
		  "velocity": 0.3937007874015748
		},
		{
		  "duration": 0.10714274999999418,
		  "durationTicks": 96,
		  "midi": 52,
		  "name": "E3",
		  "ticks": 54720,
		  "time": 61.07136750000001,
		  "velocity": 0.3937007874015748
		},
		{
		  "duration": 0.10714274999999418,
		  "durationTicks": 96,
		  "midi": 68,
		  "name": "G#4",
		  "ticks": 54720,
		  "time": 61.07136750000001,
		  "velocity": 0.3937007874015748
		},
		{
		  "duration": 0.10714275000000129,
		  "durationTicks": 96,
		  "midi": 71,
		  "name": "B4",
		  "ticks": 54816,
		  "time": 61.17851025,
		  "velocity": 0.3937007874015748
		},
		{
		  "duration": 0.10714275000000129,
		  "durationTicks": 96,
		  "midi": 45,
		  "name": "A2",
		  "ticks": 54912,
		  "time": 61.285653,
		  "velocity": 0.3937007874015748
		},
		{
		  "duration": 0.10714275000000129,
		  "durationTicks": 96,
		  "midi": 69,
		  "name": "A4",
		  "ticks": 54912,
		  "time": 61.285653,
		  "velocity": 0.3937007874015748
		},
		{
		  "duration": 0.10714275000000129,
		  "durationTicks": 96,
		  "midi": 57,
		  "name": "A3",
		  "ticks": 55104,
		  "time": 61.499938500000006,
		  "velocity": 0.3937007874015748
		},
		{
		  "duration": 0.10714275000000129,
		  "durationTicks": 96,
		  "midi": 85,
		  "name": "C#6",
		  "ticks": 55296,
		  "time": 61.714224,
		  "velocity": 0.3937007874015748
		},
		{
		  "duration": 0.10714275000000129,
		  "durationTicks": 96,
		  "midi": 86,
		  "name": "D6",
		  "ticks": 55392,
		  "time": 61.82136675,
		  "velocity": 0.3937007874015748
		},
		{
		  "duration": 0.10714275000000129,
		  "durationTicks": 96,
		  "midi": 85,
		  "name": "C#6",
		  "ticks": 55488,
		  "time": 61.928509500000004,
		  "velocity": 0.3937007874015748
		},
		{
		  "duration": 0.10714275000000129,
		  "durationTicks": 96,
		  "midi": 83,
		  "name": "B5",
		  "ticks": 55584,
		  "time": 62.035652250000005,
		  "velocity": 0.3937007874015748
		},
		{
		  "duration": 0.10714275000000129,
		  "durationTicks": 96,
		  "midi": 81,
		  "name": "A5",
		  "ticks": 55680,
		  "time": 62.14279500000001,
		  "velocity": 0.3937007874015748
		},
		{
		  "duration": 0.10714275000000129,
		  "durationTicks": 96,
		  "midi": 54,
		  "name": "F#3",
		  "ticks": 55680,
		  "time": 62.14279500000001,
		  "velocity": 0.3937007874015748
		},
		{
		  "duration": 0.10714274999999418,
		  "durationTicks": 96,
		  "midi": 83,
		  "name": "B5",
		  "ticks": 55776,
		  "time": 62.24993775000001,
		  "velocity": 0.3937007874015748
		},
		{
		  "duration": 0.10714275000000129,
		  "durationTicks": 96,
		  "midi": 57,
		  "name": "A3",
		  "ticks": 55872,
		  "time": 62.3570805,
		  "velocity": 0.3937007874015748
		},
		{
		  "duration": 0.10714275000000129,
		  "durationTicks": 96,
		  "midi": 61,
		  "name": "C#4",
		  "ticks": 55872,
		  "time": 62.3570805,
		  "velocity": 0.3937007874015748
		},
		{
		  "duration": 0.10714275000000129,
		  "durationTicks": 96,
		  "midi": 81,
		  "name": "A5",
		  "ticks": 55872,
		  "time": 62.3570805,
		  "velocity": 0.3937007874015748
		},
		{
		  "duration": 0.10714275000000129,
		  "durationTicks": 96,
		  "midi": 80,
		  "name": "G#5",
		  "ticks": 55968,
		  "time": 62.46422325,
		  "velocity": 0.3937007874015748
		},
		{
		  "duration": 0.10714275000000129,
		  "durationTicks": 96,
		  "midi": 57,
		  "name": "A3",
		  "ticks": 56064,
		  "time": 62.571366000000005,
		  "velocity": 0.3937007874015748
		},
		{
		  "duration": 0.10714275000000129,
		  "durationTicks": 96,
		  "midi": 61,
		  "name": "C#4",
		  "ticks": 56064,
		  "time": 62.571366000000005,
		  "velocity": 0.3937007874015748
		},
		{
		  "duration": 0.10714275000000129,
		  "durationTicks": 96,
		  "midi": 78,
		  "name": "F#5",
		  "ticks": 56064,
		  "time": 62.571366000000005,
		  "velocity": 0.3937007874015748
		},
		{
		  "duration": 0.10714275000000129,
		  "durationTicks": 96,
		  "midi": 81,
		  "name": "A5",
		  "ticks": 56160,
		  "time": 62.678508750000006,
		  "velocity": 0.3937007874015748
		},
		{
		  "duration": 0.10714275000000129,
		  "durationTicks": 96,
		  "midi": 57,
		  "name": "A3",
		  "ticks": 56256,
		  "time": 62.78565150000001,
		  "velocity": 0.3937007874015748
		},
		{
		  "duration": 0.10714275000000129,
		  "durationTicks": 96,
		  "midi": 61,
		  "name": "C#4",
		  "ticks": 56256,
		  "time": 62.78565150000001,
		  "velocity": 0.3937007874015748
		},
		{
		  "duration": 0.10714275000000129,
		  "durationTicks": 96,
		  "midi": 80,
		  "name": "G#5",
		  "ticks": 56256,
		  "time": 62.78565150000001,
		  "velocity": 0.3937007874015748
		},
		{
		  "duration": 0.10714274999999418,
		  "durationTicks": 96,
		  "midi": 78,
		  "name": "F#5",
		  "ticks": 56352,
		  "time": 62.89279425000001,
		  "velocity": 0.3937007874015748
		},
		{
		  "duration": 0.10714275000000129,
		  "durationTicks": 96,
		  "midi": 77,
		  "name": "F5",
		  "ticks": 56448,
		  "time": 62.999937,
		  "velocity": 0.3937007874015748
		},
		{
		  "duration": 0.10714275000000129,
		  "durationTicks": 96,
		  "midi": 56,
		  "name": "G#3",
		  "ticks": 56448,
		  "time": 62.999937,
		  "velocity": 0.3937007874015748
		},
		{
		  "duration": 0.10714275000000129,
		  "durationTicks": 96,
		  "midi": 78,
		  "name": "F#5",
		  "ticks": 56544,
		  "time": 63.107079750000004,
		  "velocity": 0.3937007874015748
		},
		{
		  "duration": 0.10714275000000129,
		  "durationTicks": 96,
		  "midi": 80,
		  "name": "G#5",
		  "ticks": 56640,
		  "time": 63.214222500000005,
		  "velocity": 0.3937007874015748
		},
		{
		  "duration": 0.10714275000000129,
		  "durationTicks": 96,
		  "midi": 59,
		  "name": "B3",
		  "ticks": 56640,
		  "time": 63.214222500000005,
		  "velocity": 0.3937007874015748
		},
		{
		  "duration": 0.10714275000000129,
		  "durationTicks": 96,
		  "midi": 61,
		  "name": "C#4",
		  "ticks": 56640,
		  "time": 63.214222500000005,
		  "velocity": 0.3937007874015748
		},
		{
		  "duration": 0.10714275000000129,
		  "durationTicks": 96,
		  "midi": 77,
		  "name": "F5",
		  "ticks": 56736,
		  "time": 63.32136525000001,
		  "velocity": 0.3937007874015748
		},
		{
		  "duration": 0.10714274999999418,
		  "durationTicks": 96,
		  "midi": 59,
		  "name": "B3",
		  "ticks": 56832,
		  "time": 63.42850800000001,
		  "velocity": 0.3937007874015748
		},
		{
		  "duration": 0.10714274999999418,
		  "durationTicks": 96,
		  "midi": 61,
		  "name": "C#4",
		  "ticks": 56832,
		  "time": 63.42850800000001,
		  "velocity": 0.3937007874015748
		},
		{
		  "duration": 0.10714274999999418,
		  "durationTicks": 96,
		  "midi": 73,
		  "name": "C#5",
		  "ticks": 56832,
		  "time": 63.42850800000001,
		  "velocity": 0.3937007874015748
		},
		{
		  "duration": 0.10714275000000129,
		  "durationTicks": 96,
		  "midi": 75,
		  "name": "D#5",
		  "ticks": 56928,
		  "time": 63.53565075,
		  "velocity": 0.3937007874015748
		},
		{
		  "duration": 0.10714275000000129,
		  "durationTicks": 96,
		  "midi": 59,
		  "name": "B3",
		  "ticks": 57024,
		  "time": 63.6427935,
		  "velocity": 0.3937007874015748
		},
		{
		  "duration": 0.10714275000000129,
		  "durationTicks": 96,
		  "midi": 61,
		  "name": "C#4",
		  "ticks": 57024,
		  "time": 63.6427935,
		  "velocity": 0.3937007874015748
		},
		{
		  "duration": 0.10714275000000129,
		  "durationTicks": 96,
		  "midi": 77,
		  "name": "F5",
		  "ticks": 57024,
		  "time": 63.6427935,
		  "velocity": 0.3937007874015748
		},
		{
		  "duration": 0.10714275000000129,
		  "durationTicks": 96,
		  "midi": 73,
		  "name": "C#5",
		  "ticks": 57120,
		  "time": 63.749936250000005,
		  "velocity": 0.3937007874015748
		},
		{
		  "duration": 0.10714275000000129,
		  "durationTicks": 96,
		  "midi": 78,
		  "name": "F#5",
		  "ticks": 57216,
		  "time": 63.857079000000006,
		  "velocity": 0.3937007874015748
		},
		{
		  "duration": 0.10714275000000129,
		  "durationTicks": 96,
		  "midi": 54,
		  "name": "F#3",
		  "ticks": 57216,
		  "time": 63.857079000000006,
		  "velocity": 0.3937007874015748
		},
		{
		  "duration": 0.10714274999999418,
		  "durationTicks": 96,
		  "midi": 77,
		  "name": "F5",
		  "ticks": 57312,
		  "time": 63.96422175000001,
		  "velocity": 0.3937007874015748
		},
		{
		  "duration": 0.10714275000000839,
		  "durationTicks": 96,
		  "midi": 78,
		  "name": "F#5",
		  "ticks": 57408,
		  "time": 64.0713645,
		  "velocity": 0.3937007874015748
		},
		{
		  "duration": 0.10714275000000839,
		  "durationTicks": 96,
		  "midi": 57,
		  "name": "A3",
		  "ticks": 57408,
		  "time": 64.0713645,
		  "velocity": 0.3937007874015748
		},
		{
		  "duration": 0.10714275000000839,
		  "durationTicks": 96,
		  "midi": 61,
		  "name": "C#4",
		  "ticks": 57408,
		  "time": 64.0713645,
		  "velocity": 0.3937007874015748
		},
		{
		  "duration": 0.10714274999999418,
		  "durationTicks": 96,
		  "midi": 80,
		  "name": "G#5",
		  "ticks": 57504,
		  "time": 64.17850725000001,
		  "velocity": 0.3937007874015748
		},
		{
		  "duration": 0.10714275000000839,
		  "durationTicks": 96,
		  "midi": 81,
		  "name": "A5",
		  "ticks": 57600,
		  "time": 64.28565,
		  "velocity": 0.3937007874015748
		},
		{
		  "duration": 0.10714275000000839,
		  "durationTicks": 96,
		  "midi": 57,
		  "name": "A3",
		  "ticks": 57600,
		  "time": 64.28565,
		  "velocity": 0.3937007874015748
		},
		{
		  "duration": 0.10714275000000839,
		  "durationTicks": 96,
		  "midi": 61,
		  "name": "C#4",
		  "ticks": 57600,
		  "time": 64.28565,
		  "velocity": 0.3937007874015748
		},
		{
		  "duration": 0.10714274999999418,
		  "durationTicks": 96,
		  "midi": 80,
		  "name": "G#5",
		  "ticks": 57696,
		  "time": 64.39279275000001,
		  "velocity": 0.3937007874015748
		},
		{
		  "duration": 0.10714274999999418,
		  "durationTicks": 96,
		  "midi": 81,
		  "name": "A5",
		  "ticks": 57792,
		  "time": 64.4999355,
		  "velocity": 0.3937007874015748
		},
		{
		  "duration": 0.10714274999999418,
		  "durationTicks": 96,
		  "midi": 57,
		  "name": "A3",
		  "ticks": 57792,
		  "time": 64.4999355,
		  "velocity": 0.3937007874015748
		},
		{
		  "duration": 0.10714274999999418,
		  "durationTicks": 96,
		  "midi": 61,
		  "name": "C#4",
		  "ticks": 57792,
		  "time": 64.4999355,
		  "velocity": 0.3937007874015748
		},
		{
		  "duration": 0.10714275000000839,
		  "durationTicks": 96,
		  "midi": 83,
		  "name": "B5",
		  "ticks": 57888,
		  "time": 64.60707825,
		  "velocity": 0.3937007874015748
		},
		{
		  "duration": 0.10714274999999418,
		  "durationTicks": 96,
		  "midi": 85,
		  "name": "C#6",
		  "ticks": 57984,
		  "time": 64.71422100000001,
		  "velocity": 0.3937007874015748
		},
		{
		  "duration": 0.10714274999999418,
		  "durationTicks": 96,
		  "midi": 49,
		  "name": "C#3",
		  "ticks": 57984,
		  "time": 64.71422100000001,
		  "velocity": 0.3937007874015748
		},
		{
		  "duration": 0.10714275000000839,
		  "durationTicks": 96,
		  "midi": 84,
		  "name": "C6",
		  "ticks": 58080,
		  "time": 64.82136375,
		  "velocity": 0.3937007874015748
		},
		{
		  "duration": 0.10714274999999418,
		  "durationTicks": 96,
		  "midi": 85,
		  "name": "C#6",
		  "ticks": 58176,
		  "time": 64.92850650000001,
		  "velocity": 0.3937007874015748
		},
		{
		  "duration": 0.10714274999999418,
		  "durationTicks": 96,
		  "midi": 56,
		  "name": "G#3",
		  "ticks": 58176,
		  "time": 64.92850650000001,
		  "velocity": 0.3937007874015748
		},
		{
		  "duration": 0.10714274999999418,
		  "durationTicks": 96,
		  "midi": 61,
		  "name": "C#4",
		  "ticks": 58176,
		  "time": 64.92850650000001,
		  "velocity": 0.3937007874015748
		},
		{
		  "duration": 0.10714274999999418,
		  "durationTicks": 96,
		  "midi": 84,
		  "name": "C6",
		  "ticks": 58272,
		  "time": 65.03564925,
		  "velocity": 0.3937007874015748
		},
		{
		  "duration": 0.10714275000000839,
		  "durationTicks": 96,
		  "midi": 85,
		  "name": "C#6",
		  "ticks": 58368,
		  "time": 65.142792,
		  "velocity": 0.3937007874015748
		},
		{
		  "duration": 0.10714275000000839,
		  "durationTicks": 96,
		  "midi": 61,
		  "name": "C#4",
		  "ticks": 58368,
		  "time": 65.142792,
		  "velocity": 0.3937007874015748
		},
		{
		  "duration": 0.10714275000000839,
		  "durationTicks": 96,
		  "midi": 55,
		  "name": "G3",
		  "ticks": 58368,
		  "time": 65.142792,
		  "velocity": 0.3937007874015748
		},
		{
		  "duration": 0.10714274999999418,
		  "durationTicks": 96,
		  "midi": 84,
		  "name": "C6",
		  "ticks": 58464,
		  "time": 65.24993475000001,
		  "velocity": 0.3937007874015748
		},
		{
		  "duration": 0.10714275000000839,
		  "durationTicks": 96,
		  "midi": 85,
		  "name": "C#6",
		  "ticks": 58560,
		  "time": 65.3570775,
		  "velocity": 0.3937007874015748
		},
		{
		  "duration": 0.10714275000000839,
		  "durationTicks": 96,
		  "midi": 61,
		  "name": "C#4",
		  "ticks": 58560,
		  "time": 65.3570775,
		  "velocity": 0.3937007874015748
		},
		{
		  "duration": 0.10714275000000839,
		  "durationTicks": 96,
		  "midi": 54,
		  "name": "F#3",
		  "ticks": 58560,
		  "time": 65.3570775,
		  "velocity": 0.3937007874015748
		},
		{
		  "duration": 0.10714274999999418,
		  "durationTicks": 96,
		  "midi": 82,
		  "name": "A#5",
		  "ticks": 58656,
		  "time": 65.46422025000001,
		  "velocity": 0.3937007874015748
		},
		{
		  "duration": 0.10714274999999418,
		  "durationTicks": 96,
		  "midi": 86,
		  "name": "D6",
		  "ticks": 58752,
		  "time": 65.571363,
		  "velocity": 0.3937007874015748
		},
		{
		  "duration": 0.10714274999999418,
		  "durationTicks": 96,
		  "midi": 47,
		  "name": "B2",
		  "ticks": 58752,
		  "time": 65.571363,
		  "velocity": 0.3937007874015748
		},
		{
		  "duration": 0.10714275000000839,
		  "durationTicks": 96,
		  "midi": 85,
		  "name": "C#6",
		  "ticks": 58848,
		  "time": 65.67850575,
		  "velocity": 0.3937007874015748
		},
		{
		  "duration": 0.10714274999999418,
		  "durationTicks": 96,
		  "midi": 86,
		  "name": "D6",
		  "ticks": 58944,
		  "time": 65.78564850000001,
		  "velocity": 0.3937007874015748
		},
		{
		  "duration": 0.10714274999999418,
		  "durationTicks": 96,
		  "midi": 54,
		  "name": "F#3",
		  "ticks": 58944,
		  "time": 65.78564850000001,
		  "velocity": 0.3937007874015748
		},
		{
		  "duration": 0.10714274999999418,
		  "durationTicks": 96,
		  "midi": 59,
		  "name": "B3",
		  "ticks": 58944,
		  "time": 65.78564850000001,
		  "velocity": 0.3937007874015748
		},
		{
		  "duration": 0.10714275000000839,
		  "durationTicks": 96,
		  "midi": 85,
		  "name": "C#6",
		  "ticks": 59040,
		  "time": 65.89279125,
		  "velocity": 0.3937007874015748
		},
		{
		  "duration": 0.10714274999999418,
		  "durationTicks": 96,
		  "midi": 86,
		  "name": "D6",
		  "ticks": 59136,
		  "time": 65.99993400000001,
		  "velocity": 0.3937007874015748
		},
		{
		  "duration": 0.10714274999999418,
		  "durationTicks": 96,
		  "midi": 54,
		  "name": "F#3",
		  "ticks": 59136,
		  "time": 65.99993400000001,
		  "velocity": 0.3937007874015748
		},
		{
		  "duration": 0.10714274999999418,
		  "durationTicks": 96,
		  "midi": 59,
		  "name": "B3",
		  "ticks": 59136,
		  "time": 65.99993400000001,
		  "velocity": 0.3937007874015748
		},
		{
		  "duration": 0.10714274999999418,
		  "durationTicks": 96,
		  "midi": 85,
		  "name": "C#6",
		  "ticks": 59232,
		  "time": 66.10707675,
		  "velocity": 0.3937007874015748
		},
		{
		  "duration": 0.10714275000000839,
		  "durationTicks": 96,
		  "midi": 86,
		  "name": "D6",
		  "ticks": 59328,
		  "time": 66.2142195,
		  "velocity": 0.3937007874015748
		},
		{
		  "duration": 0.10714275000000839,
		  "durationTicks": 96,
		  "midi": 54,
		  "name": "F#3",
		  "ticks": 59328,
		  "time": 66.2142195,
		  "velocity": 0.3937007874015748
		},
		{
		  "duration": 0.10714275000000839,
		  "durationTicks": 96,
		  "midi": 59,
		  "name": "B3",
		  "ticks": 59328,
		  "time": 66.2142195,
		  "velocity": 0.3937007874015748
		},
		{
		  "duration": 0.10714274999999418,
		  "durationTicks": 96,
		  "midi": 85,
		  "name": "C#6",
		  "ticks": 59424,
		  "time": 66.32136225,
		  "velocity": 0.3937007874015748
		},
		{
		  "duration": 0.10714275000000839,
		  "durationTicks": 96,
		  "midi": 86,
		  "name": "D6",
		  "ticks": 59520,
		  "time": 66.428505,
		  "velocity": 0.3937007874015748
		},
		{
		  "duration": 0.10714275000000839,
		  "durationTicks": 96,
		  "midi": 47,
		  "name": "B2",
		  "ticks": 59520,
		  "time": 66.428505,
		  "velocity": 0.3937007874015748
		},
		{
		  "duration": 0.10714274999999418,
		  "durationTicks": 96,
		  "midi": 85,
		  "name": "C#6",
		  "ticks": 59616,
		  "time": 66.53564775000001,
		  "velocity": 0.3937007874015748
		},
		{
		  "duration": 0.10714275000000839,
		  "durationTicks": 96,
		  "midi": 83,
		  "name": "B5",
		  "ticks": 59712,
		  "time": 66.6427905,
		  "velocity": 0.3937007874015748
		},
		{
		  "duration": 0.10714275000000839,
		  "durationTicks": 96,
		  "midi": 56,
		  "name": "G#3",
		  "ticks": 59712,
		  "time": 66.6427905,
		  "velocity": 0.3937007874015748
		},
		{
		  "duration": 0.10714275000000839,
		  "durationTicks": 96,
		  "midi": 59,
		  "name": "B3",
		  "ticks": 59712,
		  "time": 66.6427905,
		  "velocity": 0.3937007874015748
		},
		{
		  "duration": 0.10714274999999418,
		  "durationTicks": 96,
		  "midi": 81,
		  "name": "A5",
		  "ticks": 59808,
		  "time": 66.74993325000001,
		  "velocity": 0.3937007874015748
		},
		{
		  "duration": 0.10714274999999418,
		  "durationTicks": 96,
		  "midi": 56,
		  "name": "G#3",
		  "ticks": 59904,
		  "time": 66.857076,
		  "velocity": 0.3937007874015748
		},
		{
		  "duration": 0.10714274999999418,
		  "durationTicks": 96,
		  "midi": 59,
		  "name": "B3",
		  "ticks": 59904,
		  "time": 66.857076,
		  "velocity": 0.3937007874015748
		},
		{
		  "duration": 0.10714274999999418,
		  "durationTicks": 96,
		  "midi": 80,
		  "name": "G#5",
		  "ticks": 59904,
		  "time": 66.857076,
		  "velocity": 0.3937007874015748
		},
		{
		  "duration": 0.10714275000000839,
		  "durationTicks": 96,
		  "midi": 81,
		  "name": "A5",
		  "ticks": 60000,
		  "time": 66.96421875,
		  "velocity": 0.3937007874015748
		},
		{
		  "duration": 0.10714274999999418,
		  "durationTicks": 96,
		  "midi": 56,
		  "name": "G#3",
		  "ticks": 60096,
		  "time": 67.07136150000001,
		  "velocity": 0.3937007874015748
		},
		{
		  "duration": 0.10714274999999418,
		  "durationTicks": 96,
		  "midi": 59,
		  "name": "B3",
		  "ticks": 60096,
		  "time": 67.07136150000001,
		  "velocity": 0.3937007874015748
		},
		{
		  "duration": 0.10714274999999418,
		  "durationTicks": 96,
		  "midi": 83,
		  "name": "B5",
		  "ticks": 60096,
		  "time": 67.07136150000001,
		  "velocity": 0.3937007874015748
		},
		{
		  "duration": 0.10714275000000839,
		  "durationTicks": 96,
		  "midi": 80,
		  "name": "G#5",
		  "ticks": 60192,
		  "time": 67.17850425,
		  "velocity": 0.3937007874015748
		},
		{
		  "duration": 0.10714274999999418,
		  "durationTicks": 96,
		  "midi": 81,
		  "name": "A5",
		  "ticks": 60288,
		  "time": 67.28564700000001,
		  "velocity": 0.3937007874015748
		},
		{
		  "duration": 0.10714274999999418,
		  "durationTicks": 96,
		  "midi": 49,
		  "name": "C#3",
		  "ticks": 60288,
		  "time": 67.28564700000001,
		  "velocity": 0.3937007874015748
		},
		{
		  "duration": 0.10714274999999418,
		  "durationTicks": 96,
		  "midi": 83,
		  "name": "B5",
		  "ticks": 60384,
		  "time": 67.39278975,
		  "velocity": 0.3937007874015748
		},
		{
		  "duration": 0.10714275000000839,
		  "durationTicks": 96,
		  "midi": 54,
		  "name": "F#3",
		  "ticks": 60480,
		  "time": 67.4999325,
		  "velocity": 0.3937007874015748
		},
		{
		  "duration": 0.10714275000000839,
		  "durationTicks": 96,
		  "midi": 57,
		  "name": "A3",
		  "ticks": 60480,
		  "time": 67.4999325,
		  "velocity": 0.3937007874015748
		},
		{
		  "duration": 0.10714275000000839,
		  "durationTicks": 96,
		  "midi": 85,
		  "name": "C#6",
		  "ticks": 60480,
		  "time": 67.4999325,
		  "velocity": 0.3937007874015748
		},
		{
		  "duration": 0.10714274999999418,
		  "durationTicks": 96,
		  "midi": 78,
		  "name": "F#5",
		  "ticks": 60576,
		  "time": 67.60707525000001,
		  "velocity": 0.3937007874015748
		},
		{
		  "duration": 0.10714275000000839,
		  "durationTicks": 96,
		  "midi": 49,
		  "name": "C#3",
		  "ticks": 60672,
		  "time": 67.714218,
		  "velocity": 0.3937007874015748
		},
		{
		  "duration": 0.10714275000000839,
		  "durationTicks": 96,
		  "midi": 77,
		  "name": "F5",
		  "ticks": 60672,
		  "time": 67.714218,
		  "velocity": 0.3937007874015748
		},
		{
		  "duration": 0.10714274999999418,
		  "durationTicks": 96,
		  "midi": 78,
		  "name": "F#5",
		  "ticks": 60768,
		  "time": 67.82136075000001,
		  "velocity": 0.3937007874015748
		},
		{
		  "duration": 0.10714274999999418,
		  "durationTicks": 96,
		  "midi": 56,
		  "name": "G#3",
		  "ticks": 60864,
		  "time": 67.9285035,
		  "velocity": 0.3937007874015748
		},
		{
		  "duration": 0.10714274999999418,
		  "durationTicks": 96,
		  "midi": 59,
		  "name": "B3",
		  "ticks": 60864,
		  "time": 67.9285035,
		  "velocity": 0.3937007874015748
		},
		{
		  "duration": 0.10714274999999418,
		  "durationTicks": 96,
		  "midi": 80,
		  "name": "G#5",
		  "ticks": 60864,
		  "time": 67.9285035,
		  "velocity": 0.3937007874015748
		},
		{
		  "duration": 0.10714275000000839,
		  "durationTicks": 96,
		  "midi": 77,
		  "name": "F5",
		  "ticks": 60960,
		  "time": 68.03564625,
		  "velocity": 0.3937007874015748
		},
		{
		  "duration": 0.10714274999999418,
		  "durationTicks": 96,
		  "midi": 78,
		  "name": "F#5",
		  "ticks": 61056,
		  "time": 68.14278900000001,
		  "velocity": 0.3937007874015748
		},
		{
		  "duration": 0.10714274999999418,
		  "durationTicks": 96,
		  "midi": 54,
		  "name": "F#3",
		  "ticks": 61056,
		  "time": 68.14278900000001,
		  "velocity": 0.3937007874015748
		},
		{
		  "duration": 0.10714274999999418,
		  "durationTicks": 96,
		  "midi": 57,
		  "name": "A3",
		  "ticks": 61056,
		  "time": 68.14278900000001,
		  "velocity": 0.3937007874015748
		},
		{
		  "duration": 0.10714275000000839,
		  "durationTicks": 96,
		  "midi": 76,
		  "name": "E5",
		  "ticks": 61440,
		  "time": 68.57136,
		  "velocity": 0.3937007874015748
		},
		{
		  "duration": 0.10714274999999418,
		  "durationTicks": 96,
		  "midi": 74,
		  "name": "D5",
		  "ticks": 61536,
		  "time": 68.67850275,
		  "velocity": 0.3937007874015748
		},
		{
		  "duration": 0.10714275000000839,
		  "durationTicks": 96,
		  "midi": 73,
		  "name": "C#5",
		  "ticks": 61632,
		  "time": 68.7856455,
		  "velocity": 0.3937007874015748
		},
		{
		  "duration": 0.10714274999999418,
		  "durationTicks": 96,
		  "midi": 71,
		  "name": "B4",
		  "ticks": 61728,
		  "time": 68.89278825000001,
		  "velocity": 0.3937007874015748
		},
		{
		  "duration": 0.10714275000000839,
		  "durationTicks": 96,
		  "midi": 69,
		  "name": "A4",
		  "ticks": 61824,
		  "time": 68.999931,
		  "velocity": 0.3937007874015748
		},
		{
		  "duration": 0.10714275000000839,
		  "durationTicks": 96,
		  "midi": 57,
		  "name": "A3",
		  "ticks": 61824,
		  "time": 68.999931,
		  "velocity": 0.3937007874015748
		},
		{
		  "duration": 0.10714274999999418,
		  "durationTicks": 96,
		  "midi": 71,
		  "name": "B4",
		  "ticks": 61920,
		  "time": 69.10707375000001,
		  "velocity": 0.3937007874015748
		},
		{
		  "duration": 0.10714274999999418,
		  "durationTicks": 96,
		  "midi": 61,
		  "name": "C#4",
		  "ticks": 62016,
		  "time": 69.2142165,
		  "velocity": 0.3937007874015748
		},
		{
		  "duration": 0.10714274999999418,
		  "durationTicks": 96,
		  "midi": 64,
		  "name": "E4",
		  "ticks": 62016,
		  "time": 69.2142165,
		  "velocity": 0.3937007874015748
		},
		{
		  "duration": 0.10714274999999418,
		  "durationTicks": 96,
		  "midi": 73,
		  "name": "C#5",
		  "ticks": 62016,
		  "time": 69.2142165,
		  "velocity": 0.3937007874015748
		},
		{
		  "duration": 0.10714275000000839,
		  "durationTicks": 96,
		  "midi": 74,
		  "name": "D5",
		  "ticks": 62112,
		  "time": 69.32135925,
		  "velocity": 0.3937007874015748
		},
		{
		  "duration": 0.10714274999999418,
		  "durationTicks": 96,
		  "midi": 61,
		  "name": "C#4",
		  "ticks": 62208,
		  "time": 69.42850200000001,
		  "velocity": 0.3937007874015748
		},
		{
		  "duration": 0.10714274999999418,
		  "durationTicks": 96,
		  "midi": 64,
		  "name": "E4",
		  "ticks": 62208,
		  "time": 69.42850200000001,
		  "velocity": 0.3937007874015748
		},
		{
		  "duration": 0.10714274999999418,
		  "durationTicks": 96,
		  "midi": 76,
		  "name": "E5",
		  "ticks": 62208,
		  "time": 69.42850200000001,
		  "velocity": 0.3937007874015748
		},
		{
		  "duration": 0.10714275000000839,
		  "durationTicks": 96,
		  "midi": 78,
		  "name": "F#5",
		  "ticks": 62304,
		  "time": 69.53564475,
		  "velocity": 0.3937007874015748
		},
		{
		  "duration": 0.10714274999999418,
		  "durationTicks": 96,
		  "midi": 61,
		  "name": "C#4",
		  "ticks": 62400,
		  "time": 69.64278750000001,
		  "velocity": 0.3937007874015748
		},
		{
		  "duration": 0.10714274999999418,
		  "durationTicks": 96,
		  "midi": 64,
		  "name": "E4",
		  "ticks": 62400,
		  "time": 69.64278750000001,
		  "velocity": 0.3937007874015748
		},
		{
		  "duration": 0.10714274999999418,
		  "durationTicks": 96,
		  "midi": 80,
		  "name": "G#5",
		  "ticks": 62400,
		  "time": 69.64278750000001,
		  "velocity": 0.3937007874015748
		},
		{
		  "duration": 0.10714274999999418,
		  "durationTicks": 96,
		  "midi": 81,
		  "name": "A5",
		  "ticks": 62496,
		  "time": 69.74993025,
		  "velocity": 0.3937007874015748
		},
		{
		  "duration": 0.10714275000000839,
		  "durationTicks": 96,
		  "midi": 59,
		  "name": "B3",
		  "ticks": 62592,
		  "time": 69.857073,
		  "velocity": 0.3937007874015748
		},
		{
		  "duration": 0.10714275000000839,
		  "durationTicks": 96,
		  "midi": 81,
		  "name": "A5",
		  "ticks": 62592,
		  "time": 69.857073,
		  "velocity": 0.3937007874015748
		},
		{
		  "duration": 0.10714274999999418,
		  "durationTicks": 96,
		  "midi": 80,
		  "name": "G#5",
		  "ticks": 62688,
		  "time": 69.96421575000001,
		  "velocity": 0.3937007874015748
		},
		{
		  "duration": 0.10714275000000839,
		  "durationTicks": 96,
		  "midi": 62,
		  "name": "D4",
		  "ticks": 62784,
		  "time": 70.0713585,
		  "velocity": 0.3937007874015748
		},
		{
		  "duration": 0.10714275000000839,
		  "durationTicks": 96,
		  "midi": 64,
		  "name": "E4",
		  "ticks": 62784,
		  "time": 70.0713585,
		  "velocity": 0.3937007874015748
		},
		{
		  "duration": 0.10714275000000839,
		  "durationTicks": 96,
		  "midi": 78,
		  "name": "F#5",
		  "ticks": 62784,
		  "time": 70.0713585,
		  "velocity": 0.3937007874015748
		},
		{
		  "duration": 0.10714274999999418,
		  "durationTicks": 96,
		  "midi": 76,
		  "name": "E5",
		  "ticks": 62880,
		  "time": 70.17850125000001,
		  "velocity": 0.3937007874015748
		},
		{
		  "duration": 0.10714274999999418,
		  "durationTicks": 96,
		  "midi": 76,
		  "name": "E5",
		  "ticks": 62976,
		  "time": 70.285644,
		  "velocity": 0.3937007874015748
		},
		{
		  "duration": 0.10714274999999418,
		  "durationTicks": 96,
		  "midi": 56,
		  "name": "G#3",
		  "ticks": 62976,
		  "time": 70.285644,
		  "velocity": 0.3937007874015748
		},
		{
		  "duration": 0.10714275000000839,
		  "durationTicks": 96,
		  "midi": 74,
		  "name": "D5",
		  "ticks": 63072,
		  "time": 70.39278675,
		  "velocity": 0.3937007874015748
		},
		{
		  "duration": 0.10714274999999418,
		  "durationTicks": 96,
		  "midi": 73,
		  "name": "C#5",
		  "ticks": 63168,
		  "time": 70.49992950000001,
		  "velocity": 0.3937007874015748
		},
		{
		  "duration": 0.10714274999999418,
		  "durationTicks": 96,
		  "midi": 62,
		  "name": "D4",
		  "ticks": 63168,
		  "time": 70.49992950000001,
		  "velocity": 0.3937007874015748
		},
		{
		  "duration": 0.10714274999999418,
		  "durationTicks": 96,
		  "midi": 64,
		  "name": "E4",
		  "ticks": 63168,
		  "time": 70.49992950000001,
		  "velocity": 0.3937007874015748
		},
		{
		  "duration": 0.10714275000000839,
		  "durationTicks": 96,
		  "midi": 71,
		  "name": "B4",
		  "ticks": 63264,
		  "time": 70.60707225,
		  "velocity": 0.3937007874015748
		},
		{
		  "duration": 0.10714274999999418,
		  "durationTicks": 96,
		  "midi": 69,
		  "name": "A4",
		  "ticks": 63360,
		  "time": 70.71421500000001,
		  "velocity": 0.3937007874015748
		},
		{
		  "duration": 0.10714274999999418,
		  "durationTicks": 96,
		  "midi": 57,
		  "name": "A3",
		  "ticks": 63360,
		  "time": 70.71421500000001,
		  "velocity": 0.3937007874015748
		},
		{
		  "duration": 0.10714275000000839,
		  "durationTicks": 96,
		  "midi": 71,
		  "name": "B4",
		  "ticks": 63456,
		  "time": 70.82135775,
		  "velocity": 0.3937007874015748
		},
		{
		  "duration": 0.10714274999999418,
		  "durationTicks": 96,
		  "midi": 61,
		  "name": "C#4",
		  "ticks": 63552,
		  "time": 70.92850050000001,
		  "velocity": 0.3937007874015748
		},
		{
		  "duration": 0.10714274999999418,
		  "durationTicks": 96,
		  "midi": 64,
		  "name": "E4",
		  "ticks": 63552,
		  "time": 70.92850050000001,
		  "velocity": 0.3937007874015748
		},
		{
		  "duration": 0.10714274999999418,
		  "durationTicks": 96,
		  "midi": 73,
		  "name": "C#5",
		  "ticks": 63552,
		  "time": 70.92850050000001,
		  "velocity": 0.3937007874015748
		},
		{
		  "duration": 0.10714274999999418,
		  "durationTicks": 96,
		  "midi": 74,
		  "name": "D5",
		  "ticks": 63648,
		  "time": 71.03564325,
		  "velocity": 0.3937007874015748
		},
		{
		  "duration": 0.10714275000000839,
		  "durationTicks": 96,
		  "midi": 61,
		  "name": "C#4",
		  "ticks": 63744,
		  "time": 71.142786,
		  "velocity": 0.3937007874015748
		},
		{
		  "duration": 0.10714275000000839,
		  "durationTicks": 96,
		  "midi": 64,
		  "name": "E4",
		  "ticks": 63744,
		  "time": 71.142786,
		  "velocity": 0.3937007874015748
		},
		{
		  "duration": 0.10714275000000839,
		  "durationTicks": 96,
		  "midi": 76,
		  "name": "E5",
		  "ticks": 63744,
		  "time": 71.142786,
		  "velocity": 0.3937007874015748
		},
		{
		  "duration": 0.10714274999999418,
		  "durationTicks": 96,
		  "midi": 78,
		  "name": "F#5",
		  "ticks": 63840,
		  "time": 71.24992875000001,
		  "velocity": 0.3937007874015748
		},
		{
		  "duration": 0.10714275000000839,
		  "durationTicks": 96,
		  "midi": 61,
		  "name": "C#4",
		  "ticks": 63936,
		  "time": 71.3570715,
		  "velocity": 0.3937007874015748
		},
		{
		  "duration": 0.10714275000000839,
		  "durationTicks": 96,
		  "midi": 64,
		  "name": "E4",
		  "ticks": 63936,
		  "time": 71.3570715,
		  "velocity": 0.3937007874015748
		},
		{
		  "duration": 0.10714275000000839,
		  "durationTicks": 96,
		  "midi": 80,
		  "name": "G#5",
		  "ticks": 63936,
		  "time": 71.3570715,
		  "velocity": 0.3937007874015748
		},
		{
		  "duration": 0.10714274999999418,
		  "durationTicks": 96,
		  "midi": 81,
		  "name": "A5",
		  "ticks": 64032,
		  "time": 71.46421425000001,
		  "velocity": 0.3937007874015748
		},
		{
		  "duration": 0.10714274999999418,
		  "durationTicks": 96,
		  "midi": 82,
		  "name": "A#5",
		  "ticks": 64128,
		  "time": 71.571357,
		  "velocity": 0.3937007874015748
		},
		{
		  "duration": 0.10714274999999418,
		  "durationTicks": 96,
		  "midi": 52,
		  "name": "E3",
		  "ticks": 64128,
		  "time": 71.571357,
		  "velocity": 0.3937007874015748
		},
		{
		  "duration": 0.10714274999999418,
		  "durationTicks": 96,
		  "midi": 83,
		  "name": "B5",
		  "ticks": 64320,
		  "time": 71.78564250000001,
		  "velocity": 0.3937007874015748
		},
		{
		  "duration": 0.10714274999999418,
		  "durationTicks": 96,
		  "midi": 56,
		  "name": "G#3",
		  "ticks": 64320,
		  "time": 71.78564250000001,
		  "velocity": 0.3937007874015748
		},
		{
		  "duration": 0.10714274999999418,
		  "durationTicks": 96,
		  "midi": 62,
		  "name": "D4",
		  "ticks": 64320,
		  "time": 71.78564250000001,
		  "velocity": 0.3937007874015748
		},
		{
		  "duration": 0.10714274999999418,
		  "durationTicks": 96,
		  "midi": 56,
		  "name": "G#3",
		  "ticks": 64512,
		  "time": 71.99992800000001,
		  "velocity": 0.3937007874015748
		},
		{
		  "duration": 0.10714274999999418,
		  "durationTicks": 96,
		  "midi": 62,
		  "name": "D4",
		  "ticks": 64512,
		  "time": 71.99992800000001,
		  "velocity": 0.3937007874015748
		},
		{
		  "duration": 0.10714274999999418,
		  "durationTicks": 96,
		  "midi": 76,
		  "name": "E5",
		  "ticks": 64512,
		  "time": 71.99992800000001,
		  "velocity": 0.3937007874015748
		},
		{
		  "duration": 0.10714274999999418,
		  "durationTicks": 96,
		  "midi": 74,
		  "name": "D5",
		  "ticks": 64608,
		  "time": 72.10707075,
		  "velocity": 0.3937007874015748
		},
		{
		  "duration": 0.10714275000000839,
		  "durationTicks": 96,
		  "midi": 56,
		  "name": "G#3",
		  "ticks": 64704,
		  "time": 72.2142135,
		  "velocity": 0.3937007874015748
		},
		{
		  "duration": 0.10714275000000839,
		  "durationTicks": 96,
		  "midi": 62,
		  "name": "D4",
		  "ticks": 64704,
		  "time": 72.2142135,
		  "velocity": 0.3937007874015748
		},
		{
		  "duration": 0.10714275000000839,
		  "durationTicks": 96,
		  "midi": 73,
		  "name": "C#5",
		  "ticks": 64704,
		  "time": 72.2142135,
		  "velocity": 0.3937007874015748
		},
		{
		  "duration": 0.10714274999999418,
		  "durationTicks": 96,
		  "midi": 71,
		  "name": "B4",
		  "ticks": 64800,
		  "time": 72.32135625000001,
		  "velocity": 0.3937007874015748
		},
		{
		  "duration": 0.10714275000000839,
		  "durationTicks": 96,
		  "midi": 69,
		  "name": "A4",
		  "ticks": 64896,
		  "time": 72.428499,
		  "velocity": 0.3937007874015748
		},
		{
		  "duration": 0.10714275000000839,
		  "durationTicks": 96,
		  "midi": 57,
		  "name": "A3",
		  "ticks": 64896,
		  "time": 72.428499,
		  "velocity": 0.3937007874015748
		},
		{
		  "duration": 0.10714274999999418,
		  "durationTicks": 96,
		  "midi": 71,
		  "name": "B4",
		  "ticks": 64992,
		  "time": 72.53564175000001,
		  "velocity": 0.3937007874015748
		},
		{
		  "duration": 0.10714274999999418,
		  "durationTicks": 96,
		  "midi": 73,
		  "name": "C#5",
		  "ticks": 65088,
		  "time": 72.6427845,
		  "velocity": 0.3937007874015748
		},
		{
		  "duration": 0.10714274999999418,
		  "durationTicks": 96,
		  "midi": 61,
		  "name": "C#4",
		  "ticks": 65088,
		  "time": 72.6427845,
		  "velocity": 0.3937007874015748
		},
		{
		  "duration": 0.10714274999999418,
		  "durationTicks": 96,
		  "midi": 64,
		  "name": "E4",
		  "ticks": 65088,
		  "time": 72.6427845,
		  "velocity": 0.3937007874015748
		},
		{
		  "duration": 0.10714275000000839,
		  "durationTicks": 96,
		  "midi": 74,
		  "name": "D5",
		  "ticks": 65184,
		  "time": 72.74992725,
		  "velocity": 0.3937007874015748
		},
		{
		  "duration": 0.10714274999999418,
		  "durationTicks": 96,
		  "midi": 61,
		  "name": "C#4",
		  "ticks": 65280,
		  "time": 72.85707000000001,
		  "velocity": 0.3937007874015748
		},
		{
		  "duration": 0.10714274999999418,
		  "durationTicks": 96,
		  "midi": 64,
		  "name": "E4",
		  "ticks": 65280,
		  "time": 72.85707000000001,
		  "velocity": 0.3937007874015748
		},
		{
		  "duration": 0.10714274999999418,
		  "durationTicks": 96,
		  "midi": 76,
		  "name": "E5",
		  "ticks": 65280,
		  "time": 72.85707000000001,
		  "velocity": 0.3937007874015748
		},
		{
		  "duration": 0.10714275000000839,
		  "durationTicks": 96,
		  "midi": 78,
		  "name": "F#5",
		  "ticks": 65376,
		  "time": 72.96421275,
		  "velocity": 0.3937007874015748
		},
		{
		  "duration": 0.10714274999999418,
		  "durationTicks": 96,
		  "midi": 61,
		  "name": "C#4",
		  "ticks": 65472,
		  "time": 73.07135550000001,
		  "velocity": 0.3937007874015748
		},
		{
		  "duration": 0.10714274999999418,
		  "durationTicks": 96,
		  "midi": 64,
		  "name": "E4",
		  "ticks": 65472,
		  "time": 73.07135550000001,
		  "velocity": 0.3937007874015748
		},
		{
		  "duration": 0.10714274999999418,
		  "durationTicks": 96,
		  "midi": 80,
		  "name": "G#5",
		  "ticks": 65472,
		  "time": 73.07135550000001,
		  "velocity": 0.3937007874015748
		},
		{
		  "duration": 0.10714275000000839,
		  "durationTicks": 96,
		  "midi": 81,
		  "name": "A5",
		  "ticks": 65568,
		  "time": 73.17849825,
		  "velocity": 0.3937007874015748
		},
		{
		  "duration": 0.10714274999999418,
		  "durationTicks": 96,
		  "midi": 81,
		  "name": "A5",
		  "ticks": 65664,
		  "time": 73.28564100000001,
		  "velocity": 0.3937007874015748
		},
		{
		  "duration": 0.10714274999999418,
		  "durationTicks": 96,
		  "midi": 59,
		  "name": "B3",
		  "ticks": 65664,
		  "time": 73.28564100000001,
		  "velocity": 0.3937007874015748
		},
		{
		  "duration": 0.10714274999999418,
		  "durationTicks": 96,
		  "midi": 80,
		  "name": "G#5",
		  "ticks": 65760,
		  "time": 73.39278375,
		  "velocity": 0.3937007874015748
		},
		{
		  "duration": 0.10714275000000839,
		  "durationTicks": 96,
		  "midi": 62,
		  "name": "D4",
		  "ticks": 65856,
		  "time": 73.4999265,
		  "velocity": 0.3937007874015748
		},
		{
		  "duration": 0.10714275000000839,
		  "durationTicks": 96,
		  "midi": 64,
		  "name": "E4",
		  "ticks": 65856,
		  "time": 73.4999265,
		  "velocity": 0.3937007874015748
		},
		{
		  "duration": 0.10714275000000839,
		  "durationTicks": 96,
		  "midi": 78,
		  "name": "F#5",
		  "ticks": 65856,
		  "time": 73.4999265,
		  "velocity": 0.3937007874015748
		},
		{
		  "duration": 0.10714274999999418,
		  "durationTicks": 96,
		  "midi": 76,
		  "name": "E5",
		  "ticks": 65952,
		  "time": 73.60706925000001,
		  "velocity": 0.3937007874015748
		},
		{
		  "duration": 0.10714275000000839,
		  "durationTicks": 96,
		  "midi": 56,
		  "name": "G#3",
		  "ticks": 66048,
		  "time": 73.714212,
		  "velocity": 0.3937007874015748
		},
		{
		  "duration": 0.10714275000000839,
		  "durationTicks": 96,
		  "midi": 76,
		  "name": "E5",
		  "ticks": 66048,
		  "time": 73.714212,
		  "velocity": 0.3937007874015748
		},
		{
		  "duration": 0.10714274999999418,
		  "durationTicks": 96,
		  "midi": 74,
		  "name": "D5",
		  "ticks": 66144,
		  "time": 73.82135475000001,
		  "velocity": 0.3937007874015748
		},
		{
		  "duration": 0.10714274999999418,
		  "durationTicks": 96,
		  "midi": 62,
		  "name": "D4",
		  "ticks": 66240,
		  "time": 73.9284975,
		  "velocity": 0.3937007874015748
		},
		{
		  "duration": 0.10714274999999418,
		  "durationTicks": 96,
		  "midi": 64,
		  "name": "E4",
		  "ticks": 66240,
		  "time": 73.9284975,
		  "velocity": 0.3937007874015748
		},
		{
		  "duration": 0.10714274999999418,
		  "durationTicks": 96,
		  "midi": 73,
		  "name": "C#5",
		  "ticks": 66240,
		  "time": 73.9284975,
		  "velocity": 0.3937007874015748
		},
		{
		  "duration": 0.10714275000000839,
		  "durationTicks": 96,
		  "midi": 71,
		  "name": "B4",
		  "ticks": 66336,
		  "time": 74.03564025,
		  "velocity": 0.3937007874015748
		},
		{
		  "duration": 0.10714274999999418,
		  "durationTicks": 96,
		  "midi": 73,
		  "name": "C#5",
		  "ticks": 66432,
		  "time": 74.14278300000001,
		  "velocity": 0.3937007874015748
		},
		{
		  "duration": 0.10714274999999418,
		  "durationTicks": 96,
		  "midi": 57,
		  "name": "A3",
		  "ticks": 66432,
		  "time": 74.14278300000001,
		  "velocity": 0.3937007874015748
		},
		{
		  "duration": 0.10714275000000839,
		  "durationTicks": 96,
		  "midi": 76,
		  "name": "E5",
		  "ticks": 66528,
		  "time": 74.24992575,
		  "velocity": 0.3937007874015748
		},
		{
		  "duration": 0.10714274999999418,
		  "durationTicks": 96,
		  "midi": 69,
		  "name": "A4",
		  "ticks": 66624,
		  "time": 74.35706850000001,
		  "velocity": 0.3937007874015748
		},
		{
		  "duration": 0.10714274999999418,
		  "durationTicks": 96,
		  "midi": 54,
		  "name": "F#3",
		  "ticks": 66624,
		  "time": 74.35706850000001,
		  "velocity": 0.3937007874015748
		},
		{
		  "duration": 0.10714274999999418,
		  "durationTicks": 96,
		  "midi": 73,
		  "name": "C#5",
		  "ticks": 66720,
		  "time": 74.46421125,
		  "velocity": 0.3937007874015748
		},
		{
		  "duration": 0.10714275000000839,
		  "durationTicks": 96,
		  "midi": 50,
		  "name": "D3",
		  "ticks": 66816,
		  "time": 74.571354,
		  "velocity": 0.3937007874015748
		},
		{
		  "duration": 0.10714275000000839,
		  "durationTicks": 96,
		  "midi": 71,
		  "name": "B4",
		  "ticks": 66816,
		  "time": 74.571354,
		  "velocity": 0.3937007874015748
		},
		{
		  "duration": 0.10714274999999418,
		  "durationTicks": 96,
		  "midi": 74,
		  "name": "D5",
		  "ticks": 66912,
		  "time": 74.67849675000001,
		  "velocity": 0.3937007874015748
		},
		{
		  "duration": 0.10714275000000839,
		  "durationTicks": 96,
		  "midi": 52,
		  "name": "E3",
		  "ticks": 67008,
		  "time": 74.7856395,
		  "velocity": 0.3937007874015748
		},
		{
		  "duration": 0.10714275000000839,
		  "durationTicks": 96,
		  "midi": 68,
		  "name": "G#4",
		  "ticks": 67008,
		  "time": 74.7856395,
		  "velocity": 0.3937007874015748
		},
		{
		  "duration": 0.10714274999999418,
		  "durationTicks": 96,
		  "midi": 71,
		  "name": "B4",
		  "ticks": 67104,
		  "time": 74.89278225000001,
		  "velocity": 0.3937007874015748
		},
		{
		  "duration": 0.10714275000000839,
		  "durationTicks": 96,
		  "midi": 45,
		  "name": "A2",
		  "ticks": 67200,
		  "time": 74.999925,
		  "velocity": 0.3937007874015748
		},
		{
		  "duration": 0.10714275000000839,
		  "durationTicks": 96,
		  "midi": 69,
		  "name": "A4",
		  "ticks": 67200,
		  "time": 74.999925,
		  "velocity": 0.3937007874015748
		},
		{
		  "duration": 0.10714274999999418,
		  "durationTicks": 96,
		  "midi": 57,
		  "name": "A3",
		  "ticks": 67392,
		  "time": 75.21421050000001,
		  "velocity": 0.3937007874015748
		},
		{
		  "duration": 0.10714274999999418,
		  "durationTicks": 96,
		  "midi": 85,
		  "name": "C#6",
		  "ticks": 67584,
		  "time": 75.42849600000001,
		  "velocity": 0.3937007874015748
		},
		{
		  "duration": 0.10714275000000839,
		  "durationTicks": 96,
		  "midi": 86,
		  "name": "D6",
		  "ticks": 67680,
		  "time": 75.53563875,
		  "velocity": 0.3937007874015748
		},
		{
		  "duration": 0.10714274999999418,
		  "durationTicks": 96,
		  "midi": 85,
		  "name": "C#6",
		  "ticks": 67776,
		  "time": 75.64278150000001,
		  "velocity": 0.3937007874015748
		},
		{
		  "duration": 0.10714274999999418,
		  "durationTicks": 96,
		  "midi": 83,
		  "name": "B5",
		  "ticks": 67872,
		  "time": 75.74992425,
		  "velocity": 0.3937007874015748
		},
		{
		  "duration": 0.10714275000000839,
		  "durationTicks": 96,
		  "midi": 81,
		  "name": "A5",
		  "ticks": 67968,
		  "time": 75.857067,
		  "velocity": 0.3937007874015748
		},
		{
		  "duration": 0.10714275000000839,
		  "durationTicks": 96,
		  "midi": 54,
		  "name": "F#3",
		  "ticks": 67968,
		  "time": 75.857067,
		  "velocity": 0.3937007874015748
		},
		{
		  "duration": 0.10714274999999418,
		  "durationTicks": 96,
		  "midi": 83,
		  "name": "B5",
		  "ticks": 68064,
		  "time": 75.96420975000001,
		  "velocity": 0.3937007874015748
		},
		{
		  "duration": 0.10714275000000839,
		  "durationTicks": 96,
		  "midi": 57,
		  "name": "A3",
		  "ticks": 68160,
		  "time": 76.0713525,
		  "velocity": 0.3937007874015748
		},
		{
		  "duration": 0.10714275000000839,
		  "durationTicks": 96,
		  "midi": 61,
		  "name": "C#4",
		  "ticks": 68160,
		  "time": 76.0713525,
		  "velocity": 0.3937007874015748
		},
		{
		  "duration": 0.10714275000000839,
		  "durationTicks": 96,
		  "midi": 81,
		  "name": "A5",
		  "ticks": 68160,
		  "time": 76.0713525,
		  "velocity": 0.3937007874015748
		},
		{
		  "duration": 0.10714274999999418,
		  "durationTicks": 96,
		  "midi": 80,
		  "name": "G#5",
		  "ticks": 68256,
		  "time": 76.17849525000001,
		  "velocity": 0.3937007874015748
		},
		{
		  "duration": 0.10714274999999418,
		  "durationTicks": 96,
		  "midi": 57,
		  "name": "A3",
		  "ticks": 68352,
		  "time": 76.285638,
		  "velocity": 0.3937007874015748
		},
		{
		  "duration": 0.10714274999999418,
		  "durationTicks": 96,
		  "midi": 61,
		  "name": "C#4",
		  "ticks": 68352,
		  "time": 76.285638,
		  "velocity": 0.3937007874015748
		},
		{
		  "duration": 0.10714274999999418,
		  "durationTicks": 96,
		  "midi": 78,
		  "name": "F#5",
		  "ticks": 68352,
		  "time": 76.285638,
		  "velocity": 0.3937007874015748
		},
		{
		  "duration": 0.10714275000000839,
		  "durationTicks": 96,
		  "midi": 81,
		  "name": "A5",
		  "ticks": 68448,
		  "time": 76.39278075,
		  "velocity": 0.3937007874015748
		},
		{
		  "duration": 0.10714274999999418,
		  "durationTicks": 96,
		  "midi": 57,
		  "name": "A3",
		  "ticks": 68544,
		  "time": 76.49992350000001,
		  "velocity": 0.3937007874015748
		},
		{
		  "duration": 0.10714274999999418,
		  "durationTicks": 96,
		  "midi": 61,
		  "name": "C#4",
		  "ticks": 68544,
		  "time": 76.49992350000001,
		  "velocity": 0.3937007874015748
		},
		{
		  "duration": 0.10714274999999418,
		  "durationTicks": 96,
		  "midi": 80,
		  "name": "G#5",
		  "ticks": 68544,
		  "time": 76.49992350000001,
		  "velocity": 0.3937007874015748
		},
		{
		  "duration": 0.10714275000000839,
		  "durationTicks": 96,
		  "midi": 78,
		  "name": "F#5",
		  "ticks": 68640,
		  "time": 76.60706625,
		  "velocity": 0.3937007874015748
		},
		{
		  "duration": 0.10714274999999418,
		  "durationTicks": 96,
		  "midi": 77,
		  "name": "F5",
		  "ticks": 68736,
		  "time": 76.71420900000001,
		  "velocity": 0.3937007874015748
		},
		{
		  "duration": 0.10714274999999418,
		  "durationTicks": 96,
		  "midi": 56,
		  "name": "G#3",
		  "ticks": 68736,
		  "time": 76.71420900000001,
		  "velocity": 0.3937007874015748
		},
		{
		  "duration": 0.10714274999999418,
		  "durationTicks": 96,
		  "midi": 78,
		  "name": "F#5",
		  "ticks": 68832,
		  "time": 76.82135175,
		  "velocity": 0.3937007874015748
		},
		{
		  "duration": 0.10714275000000839,
		  "durationTicks": 96,
		  "midi": 80,
		  "name": "G#5",
		  "ticks": 68928,
		  "time": 76.9284945,
		  "velocity": 0.3937007874015748
		},
		{
		  "duration": 0.10714275000000839,
		  "durationTicks": 96,
		  "midi": 59,
		  "name": "B3",
		  "ticks": 68928,
		  "time": 76.9284945,
		  "velocity": 0.3937007874015748
		},
		{
		  "duration": 0.10714275000000839,
		  "durationTicks": 96,
		  "midi": 61,
		  "name": "C#4",
		  "ticks": 68928,
		  "time": 76.9284945,
		  "velocity": 0.3937007874015748
		},
		{
		  "duration": 0.10714274999999418,
		  "durationTicks": 96,
		  "midi": 77,
		  "name": "F5",
		  "ticks": 69024,
		  "time": 77.03563725000001,
		  "velocity": 0.3937007874015748
		},
		{
		  "duration": 0.10714275000000839,
		  "durationTicks": 96,
		  "midi": 59,
		  "name": "B3",
		  "ticks": 69120,
		  "time": 77.14278,
		  "velocity": 0.3937007874015748
		},
		{
		  "duration": 0.10714275000000839,
		  "durationTicks": 96,
		  "midi": 61,
		  "name": "C#4",
		  "ticks": 69120,
		  "time": 77.14278,
		  "velocity": 0.3937007874015748
		},
		{
		  "duration": 0.10714275000000839,
		  "durationTicks": 96,
		  "midi": 73,
		  "name": "C#5",
		  "ticks": 69120,
		  "time": 77.14278,
		  "velocity": 0.3937007874015748
		},
		{
		  "duration": 0.10714274999999418,
		  "durationTicks": 96,
		  "midi": 75,
		  "name": "D#5",
		  "ticks": 69216,
		  "time": 77.24992275000001,
		  "velocity": 0.3937007874015748
		},
		{
		  "duration": 0.10714275000000839,
		  "durationTicks": 96,
		  "midi": 59,
		  "name": "B3",
		  "ticks": 69312,
		  "time": 77.3570655,
		  "velocity": 0.3937007874015748
		},
		{
		  "duration": 0.10714275000000839,
		  "durationTicks": 96,
		  "midi": 61,
		  "name": "C#4",
		  "ticks": 69312,
		  "time": 77.3570655,
		  "velocity": 0.3937007874015748
		},
		{
		  "duration": 0.10714275000000839,
		  "durationTicks": 96,
		  "midi": 77,
		  "name": "F5",
		  "ticks": 69312,
		  "time": 77.3570655,
		  "velocity": 0.3937007874015748
		},
		{
		  "duration": 0.10714274999999418,
		  "durationTicks": 96,
		  "midi": 73,
		  "name": "C#5",
		  "ticks": 69408,
		  "time": 77.46420825000001,
		  "velocity": 0.3937007874015748
		},
		{
		  "duration": 0.10714274999999418,
		  "durationTicks": 96,
		  "midi": 78,
		  "name": "F#5",
		  "ticks": 69504,
		  "time": 77.571351,
		  "velocity": 0.3937007874015748
		},
		{
		  "duration": 0.10714274999999418,
		  "durationTicks": 96,
		  "midi": 54,
		  "name": "F#3",
		  "ticks": 69504,
		  "time": 77.571351,
		  "velocity": 0.3937007874015748
		},
		{
		  "duration": 0.10714275000000839,
		  "durationTicks": 96,
		  "midi": 77,
		  "name": "F5",
		  "ticks": 69600,
		  "time": 77.67849375,
		  "velocity": 0.3937007874015748
		},
		{
		  "duration": 0.10714274999999418,
		  "durationTicks": 96,
		  "midi": 78,
		  "name": "F#5",
		  "ticks": 69696,
		  "time": 77.78563650000001,
		  "velocity": 0.3937007874015748
		},
		{
		  "duration": 0.10714274999999418,
		  "durationTicks": 96,
		  "midi": 57,
		  "name": "A3",
		  "ticks": 69696,
		  "time": 77.78563650000001,
		  "velocity": 0.3937007874015748
		},
		{
		  "duration": 0.10714274999999418,
		  "durationTicks": 96,
		  "midi": 61,
		  "name": "C#4",
		  "ticks": 69696,
		  "time": 77.78563650000001,
		  "velocity": 0.3937007874015748
		},
		{
		  "duration": 0.10714275000000839,
		  "durationTicks": 96,
		  "midi": 80,
		  "name": "G#5",
		  "ticks": 69792,
		  "time": 77.89277925,
		  "velocity": 0.3937007874015748
		},
		{
		  "duration": 0.10714274999999418,
		  "durationTicks": 96,
		  "midi": 81,
		  "name": "A5",
		  "ticks": 69888,
		  "time": 77.99992200000001,
		  "velocity": 0.3937007874015748
		},
		{
		  "duration": 0.10714274999999418,
		  "durationTicks": 96,
		  "midi": 57,
		  "name": "A3",
		  "ticks": 69888,
		  "time": 77.99992200000001,
		  "velocity": 0.3937007874015748
		},
		{
		  "duration": 0.10714274999999418,
		  "durationTicks": 96,
		  "midi": 61,
		  "name": "C#4",
		  "ticks": 69888,
		  "time": 77.99992200000001,
		  "velocity": 0.3937007874015748
		},
		{
		  "duration": 0.10714274999999418,
		  "durationTicks": 96,
		  "midi": 80,
		  "name": "G#5",
		  "ticks": 69984,
		  "time": 78.10706475,
		  "velocity": 0.3937007874015748
		},
		{
		  "duration": 0.10714275000000839,
		  "durationTicks": 96,
		  "midi": 81,
		  "name": "A5",
		  "ticks": 70080,
		  "time": 78.2142075,
		  "velocity": 0.3937007874015748
		},
		{
		  "duration": 0.10714275000000839,
		  "durationTicks": 96,
		  "midi": 57,
		  "name": "A3",
		  "ticks": 70080,
		  "time": 78.2142075,
		  "velocity": 0.3937007874015748
		},
		{
		  "duration": 0.10714275000000839,
		  "durationTicks": 96,
		  "midi": 61,
		  "name": "C#4",
		  "ticks": 70080,
		  "time": 78.2142075,
		  "velocity": 0.3937007874015748
		},
		{
		  "duration": 0.10714274999999418,
		  "durationTicks": 96,
		  "midi": 83,
		  "name": "B5",
		  "ticks": 70176,
		  "time": 78.32135025000001,
		  "velocity": 0.3937007874015748
		},
		{
		  "duration": 0.10714275000000839,
		  "durationTicks": 96,
		  "midi": 85,
		  "name": "C#6",
		  "ticks": 70272,
		  "time": 78.428493,
		  "velocity": 0.3937007874015748
		},
		{
		  "duration": 0.10714275000000839,
		  "durationTicks": 96,
		  "midi": 49,
		  "name": "C#3",
		  "ticks": 70272,
		  "time": 78.428493,
		  "velocity": 0.3937007874015748
		},
		{
		  "duration": 0.10714274999999418,
		  "durationTicks": 96,
		  "midi": 84,
		  "name": "C6",
		  "ticks": 70368,
		  "time": 78.53563575000001,
		  "velocity": 0.3937007874015748
		},
		{
		  "duration": 0.10714274999999418,
		  "durationTicks": 96,
		  "midi": 85,
		  "name": "C#6",
		  "ticks": 70464,
		  "time": 78.6427785,
		  "velocity": 0.3937007874015748
		},
		{
		  "duration": 0.10714274999999418,
		  "durationTicks": 96,
		  "midi": 56,
		  "name": "G#3",
		  "ticks": 70464,
		  "time": 78.6427785,
		  "velocity": 0.3937007874015748
		},
		{
		  "duration": 0.10714274999999418,
		  "durationTicks": 96,
		  "midi": 61,
		  "name": "C#4",
		  "ticks": 70464,
		  "time": 78.6427785,
		  "velocity": 0.3937007874015748
		},
		{
		  "duration": 0.10714275000000839,
		  "durationTicks": 96,
		  "midi": 84,
		  "name": "C6",
		  "ticks": 70560,
		  "time": 78.74992125,
		  "velocity": 0.3937007874015748
		},
		{
		  "duration": 0.10714274999999418,
		  "durationTicks": 96,
		  "midi": 85,
		  "name": "C#6",
		  "ticks": 70656,
		  "time": 78.85706400000001,
		  "velocity": 0.3937007874015748
		},
		{
		  "duration": 0.10714274999999418,
		  "durationTicks": 96,
		  "midi": 61,
		  "name": "C#4",
		  "ticks": 70656,
		  "time": 78.85706400000001,
		  "velocity": 0.3937007874015748
		},
		{
		  "duration": 0.10714274999999418,
		  "durationTicks": 96,
		  "midi": 55,
		  "name": "G3",
		  "ticks": 70656,
		  "time": 78.85706400000001,
		  "velocity": 0.3937007874015748
		},
		{
		  "duration": 0.10714275000000839,
		  "durationTicks": 96,
		  "midi": 84,
		  "name": "C6",
		  "ticks": 70752,
		  "time": 78.96420675,
		  "velocity": 0.3937007874015748
		},
		{
		  "duration": 0.10714274999999418,
		  "durationTicks": 96,
		  "midi": 85,
		  "name": "C#6",
		  "ticks": 70848,
		  "time": 79.07134950000001,
		  "velocity": 0.3937007874015748
		},
		{
		  "duration": 0.10714274999999418,
		  "durationTicks": 96,
		  "midi": 61,
		  "name": "C#4",
		  "ticks": 70848,
		  "time": 79.07134950000001,
		  "velocity": 0.3937007874015748
		},
		{
		  "duration": 0.10714274999999418,
		  "durationTicks": 96,
		  "midi": 54,
		  "name": "F#3",
		  "ticks": 70848,
		  "time": 79.07134950000001,
		  "velocity": 0.3937007874015748
		},
		{
		  "duration": 0.10714275000000839,
		  "durationTicks": 96,
		  "midi": 82,
		  "name": "A#5",
		  "ticks": 70944,
		  "time": 79.17849225,
		  "velocity": 0.3937007874015748
		},
		{
		  "duration": 0.10714274999999418,
		  "durationTicks": 96,
		  "midi": 86,
		  "name": "D6",
		  "ticks": 71040,
		  "time": 79.28563500000001,
		  "velocity": 0.3937007874015748
		},
		{
		  "duration": 0.10714274999999418,
		  "durationTicks": 96,
		  "midi": 47,
		  "name": "B2",
		  "ticks": 71040,
		  "time": 79.28563500000001,
		  "velocity": 0.3937007874015748
		},
		{
		  "duration": 0.10714274999999418,
		  "durationTicks": 96,
		  "midi": 85,
		  "name": "C#6",
		  "ticks": 71136,
		  "time": 79.39277775000001,
		  "velocity": 0.3937007874015748
		},
		{
		  "duration": 0.10714275000000839,
		  "durationTicks": 96,
		  "midi": 86,
		  "name": "D6",
		  "ticks": 71232,
		  "time": 79.4999205,
		  "velocity": 0.3937007874015748
		},
		{
		  "duration": 0.10714275000000839,
		  "durationTicks": 96,
		  "midi": 54,
		  "name": "F#3",
		  "ticks": 71232,
		  "time": 79.4999205,
		  "velocity": 0.3937007874015748
		},
		{
		  "duration": 0.10714275000000839,
		  "durationTicks": 96,
		  "midi": 59,
		  "name": "B3",
		  "ticks": 71232,
		  "time": 79.4999205,
		  "velocity": 0.3937007874015748
		},
		{
		  "duration": 0.10714274999999418,
		  "durationTicks": 96,
		  "midi": 85,
		  "name": "C#6",
		  "ticks": 71328,
		  "time": 79.60706325000001,
		  "velocity": 0.3937007874015748
		},
		{
		  "duration": 0.10714275000000839,
		  "durationTicks": 96,
		  "midi": 86,
		  "name": "D6",
		  "ticks": 71424,
		  "time": 79.714206,
		  "velocity": 0.3937007874015748
		},
		{
		  "duration": 0.10714275000000839,
		  "durationTicks": 96,
		  "midi": 54,
		  "name": "F#3",
		  "ticks": 71424,
		  "time": 79.714206,
		  "velocity": 0.3937007874015748
		},
		{
		  "duration": 0.10714275000000839,
		  "durationTicks": 96,
		  "midi": 59,
		  "name": "B3",
		  "ticks": 71424,
		  "time": 79.714206,
		  "velocity": 0.3937007874015748
		},
		{
		  "duration": 0.10714274999999418,
		  "durationTicks": 96,
		  "midi": 85,
		  "name": "C#6",
		  "ticks": 71520,
		  "time": 79.82134875000001,
		  "velocity": 0.3937007874015748
		},
		{
		  "duration": 0.10714274999999418,
		  "durationTicks": 96,
		  "midi": 86,
		  "name": "D6",
		  "ticks": 71616,
		  "time": 79.9284915,
		  "velocity": 0.3937007874015748
		},
		{
		  "duration": 0.10714274999999418,
		  "durationTicks": 96,
		  "midi": 54,
		  "name": "F#3",
		  "ticks": 71616,
		  "time": 79.9284915,
		  "velocity": 0.3937007874015748
		},
		{
		  "duration": 0.10714274999999418,
		  "durationTicks": 96,
		  "midi": 59,
		  "name": "B3",
		  "ticks": 71616,
		  "time": 79.9284915,
		  "velocity": 0.3937007874015748
		},
		{
		  "duration": 0.10714275000000839,
		  "durationTicks": 96,
		  "midi": 85,
		  "name": "C#6",
		  "ticks": 71712,
		  "time": 80.03563425,
		  "velocity": 0.3937007874015748
		},
		{
		  "duration": 0.10714274999999418,
		  "durationTicks": 96,
		  "midi": 86,
		  "name": "D6",
		  "ticks": 71808,
		  "time": 80.14277700000001,
		  "velocity": 0.3937007874015748
		},
		{
		  "duration": 0.10714274999999418,
		  "durationTicks": 96,
		  "midi": 47,
		  "name": "B2",
		  "ticks": 71808,
		  "time": 80.14277700000001,
		  "velocity": 0.3937007874015748
		},
		{
		  "duration": 0.10714275000000839,
		  "durationTicks": 96,
		  "midi": 85,
		  "name": "C#6",
		  "ticks": 71904,
		  "time": 80.24991975,
		  "velocity": 0.3937007874015748
		},
		{
		  "duration": 0.10714274999999418,
		  "durationTicks": 96,
		  "midi": 83,
		  "name": "B5",
		  "ticks": 72000,
		  "time": 80.35706250000001,
		  "velocity": 0.3937007874015748
		},
		{
		  "duration": 0.10714274999999418,
		  "durationTicks": 96,
		  "midi": 56,
		  "name": "G#3",
		  "ticks": 72000,
		  "time": 80.35706250000001,
		  "velocity": 0.3937007874015748
		},
		{
		  "duration": 0.10714274999999418,
		  "durationTicks": 96,
		  "midi": 59,
		  "name": "B3",
		  "ticks": 72000,
		  "time": 80.35706250000001,
		  "velocity": 0.3937007874015748
		},
		{
		  "duration": 0.10714274999999418,
		  "durationTicks": 96,
		  "midi": 81,
		  "name": "A5",
		  "ticks": 72096,
		  "time": 80.46420525,
		  "velocity": 0.3937007874015748
		},
		{
		  "duration": 0.10714275000000839,
		  "durationTicks": 96,
		  "midi": 56,
		  "name": "G#3",
		  "ticks": 72192,
		  "time": 80.571348,
		  "velocity": 0.3937007874015748
		},
		{
		  "duration": 0.10714275000000839,
		  "durationTicks": 96,
		  "midi": 59,
		  "name": "B3",
		  "ticks": 72192,
		  "time": 80.571348,
		  "velocity": 0.3937007874015748
		},
		{
		  "duration": 0.10714275000000839,
		  "durationTicks": 96,
		  "midi": 80,
		  "name": "G#5",
		  "ticks": 72192,
		  "time": 80.571348,
		  "velocity": 0.3937007874015748
		},
		{
		  "duration": 0.10714274999999418,
		  "durationTicks": 96,
		  "midi": 81,
		  "name": "A5",
		  "ticks": 72288,
		  "time": 80.67849075000001,
		  "velocity": 0.3937007874015748
		},
		{
		  "duration": 0.10714275000000839,
		  "durationTicks": 96,
		  "midi": 56,
		  "name": "G#3",
		  "ticks": 72384,
		  "time": 80.7856335,
		  "velocity": 0.3937007874015748
		},
		{
		  "duration": 0.10714275000000839,
		  "durationTicks": 96,
		  "midi": 59,
		  "name": "B3",
		  "ticks": 72384,
		  "time": 80.7856335,
		  "velocity": 0.3937007874015748
		},
		{
		  "duration": 0.10714275000000839,
		  "durationTicks": 96,
		  "midi": 83,
		  "name": "B5",
		  "ticks": 72384,
		  "time": 80.7856335,
		  "velocity": 0.3937007874015748
		},
		{
		  "duration": 0.10714274999999418,
		  "durationTicks": 96,
		  "midi": 80,
		  "name": "G#5",
		  "ticks": 72480,
		  "time": 80.89277625000001,
		  "velocity": 0.3937007874015748
		},
		{
		  "duration": 0.10714274999999418,
		  "durationTicks": 96,
		  "midi": 81,
		  "name": "A5",
		  "ticks": 72576,
		  "time": 80.999919,
		  "velocity": 0.3937007874015748
		},
		{
		  "duration": 0.10714274999999418,
		  "durationTicks": 96,
		  "midi": 49,
		  "name": "C#3",
		  "ticks": 72576,
		  "time": 80.999919,
		  "velocity": 0.3937007874015748
		},
		{
		  "duration": 0.10714275000000839,
		  "durationTicks": 96,
		  "midi": 83,
		  "name": "B5",
		  "ticks": 72672,
		  "time": 81.10706175,
		  "velocity": 0.3937007874015748
		},
		{
		  "duration": 0.10714274999999418,
		  "durationTicks": 96,
		  "midi": 54,
		  "name": "F#3",
		  "ticks": 72768,
		  "time": 81.21420450000001,
		  "velocity": 0.3937007874015748
		},
		{
		  "duration": 0.10714274999999418,
		  "durationTicks": 96,
		  "midi": 57,
		  "name": "A3",
		  "ticks": 72768,
		  "time": 81.21420450000001,
		  "velocity": 0.3937007874015748
		},
		{
		  "duration": 0.10714274999999418,
		  "durationTicks": 96,
		  "midi": 85,
		  "name": "C#6",
		  "ticks": 72768,
		  "time": 81.21420450000001,
		  "velocity": 0.3937007874015748
		},
		{
		  "duration": 0.10714275000000839,
		  "durationTicks": 96,
		  "midi": 78,
		  "name": "F#5",
		  "ticks": 72864,
		  "time": 81.32134725,
		  "velocity": 0.3937007874015748
		},
		{
		  "duration": 0.10714274999999418,
		  "durationTicks": 96,
		  "midi": 49,
		  "name": "C#3",
		  "ticks": 72960,
		  "time": 81.42849000000001,
		  "velocity": 0.3937007874015748
		},
		{
		  "duration": 0.10714274999999418,
		  "durationTicks": 96,
		  "midi": 77,
		  "name": "F5",
		  "ticks": 72960,
		  "time": 81.42849000000001,
		  "velocity": 0.3937007874015748
		},
		{
		  "duration": 0.10714275000000839,
		  "durationTicks": 96,
		  "midi": 78,
		  "name": "F#5",
		  "ticks": 73056,
		  "time": 81.53563275,
		  "velocity": 0.3937007874015748
		},
		{
		  "duration": 0.10714274999999418,
		  "durationTicks": 96,
		  "midi": 56,
		  "name": "G#3",
		  "ticks": 73152,
		  "time": 81.64277550000001,
		  "velocity": 0.3937007874015748
		},
		{
		  "duration": 0.10714274999999418,
		  "durationTicks": 96,
		  "midi": 59,
		  "name": "B3",
		  "ticks": 73152,
		  "time": 81.64277550000001,
		  "velocity": 0.3937007874015748
		},
		{
		  "duration": 0.10714274999999418,
		  "durationTicks": 96,
		  "midi": 80,
		  "name": "G#5",
		  "ticks": 73152,
		  "time": 81.64277550000001,
		  "velocity": 0.3937007874015748
		},
		{
		  "duration": 0.10714274999999418,
		  "durationTicks": 96,
		  "midi": 77,
		  "name": "F5",
		  "ticks": 73248,
		  "time": 81.74991825000001,
		  "velocity": 0.3937007874015748
		},
		{
		  "duration": 0.10714275000000839,
		  "durationTicks": 96,
		  "midi": 78,
		  "name": "F#5",
		  "ticks": 73344,
		  "time": 81.857061,
		  "velocity": 0.3937007874015748
		},
		{
		  "duration": 0.10714275000000839,
		  "durationTicks": 96,
		  "midi": 54,
		  "name": "F#3",
		  "ticks": 73344,
		  "time": 81.857061,
		  "velocity": 0.3937007874015748
		},
		{
		  "duration": 0.10714275000000839,
		  "durationTicks": 96,
		  "midi": 57,
		  "name": "A3",
		  "ticks": 73344,
		  "time": 81.857061,
		  "velocity": 0.3937007874015748
		},
		{
		  "duration": 0.10714274999999418,
		  "durationTicks": 96,
		  "midi": 69,
		  "name": "A4",
		  "ticks": 73728,
		  "time": 82.285632,
		  "velocity": 0.3937007874015748
		},
		{
		  "duration": 0.10714274999999418,
		  "durationTicks": 96,
		  "midi": 81,
		  "name": "A5",
		  "ticks": 73728,
		  "time": 82.285632,
		  "velocity": 0.3937007874015748
		},
		{
		  "duration": 0.10714274999999418,
		  "durationTicks": 96,
		  "midi": 71,
		  "name": "B4",
		  "ticks": 73920,
		  "time": 82.49991750000001,
		  "velocity": 0.3937007874015748
		},
		{
		  "duration": 0.10714274999999418,
		  "durationTicks": 96,
		  "midi": 83,
		  "name": "B5",
		  "ticks": 73920,
		  "time": 82.49991750000001,
		  "velocity": 0.3937007874015748
		},
		{
		  "duration": 0.10714274999999418,
		  "durationTicks": 96,
		  "midi": 85,
		  "name": "C#6",
		  "ticks": 74112,
		  "time": 82.71420300000001,
		  "velocity": 0.3937007874015748
		},
		{
		  "duration": 0.10714274999999418,
		  "durationTicks": 96,
		  "midi": 73,
		  "name": "C#5",
		  "ticks": 74112,
		  "time": 82.71420300000001,
		  "velocity": 0.3937007874015748
		},
		{
		  "duration": 0.10714274999999418,
		  "durationTicks": 96,
		  "midi": 45,
		  "name": "A2",
		  "ticks": 74112,
		  "time": 82.71420300000001,
		  "velocity": 0.3937007874015748
		},
		{
		  "duration": 0.10714274999999418,
		  "durationTicks": 96,
		  "midi": 49,
		  "name": "C#3",
		  "ticks": 74136,
		  "time": 82.7409886875,
		  "velocity": 0.3937007874015748
		},
		{
		  "duration": 0.10714275000000839,
		  "durationTicks": 96,
		  "midi": 52,
		  "name": "E3",
		  "ticks": 74160,
		  "time": 82.767774375,
		  "velocity": 0.3937007874015748
		},
		{
		  "duration": 0.10714274999999418,
		  "durationTicks": 96,
		  "midi": 57,
		  "name": "A3",
		  "ticks": 74184,
		  "time": 82.79456006250001,
		  "velocity": 0.3937007874015748
		},
		{
		  "duration": 0.10714275000000839,
		  "durationTicks": 96,
		  "midi": 57,
		  "name": "A3",
		  "ticks": 74304,
		  "time": 82.9284885,
		  "velocity": 0.3937007874015748
		},
		{
		  "duration": 0.10714275000000839,
		  "durationTicks": 96,
		  "midi": 57,
		  "name": "A3",
		  "ticks": 74496,
		  "time": 83.142774,
		  "velocity": 0.3937007874015748
		},
		{
		  "duration": 0.10714275000000839,
		  "durationTicks": 96,
		  "midi": 69,
		  "name": "A4",
		  "ticks": 74496,
		  "time": 83.142774,
		  "velocity": 0.3937007874015748
		},
		{
		  "duration": 0.10714275000000839,
		  "durationTicks": 96,
		  "midi": 81,
		  "name": "A5",
		  "ticks": 74496,
		  "time": 83.142774,
		  "velocity": 0.3937007874015748
		},
		{
		  "duration": 0.10714275000000839,
		  "durationTicks": 96,
		  "midi": 57,
		  "name": "A3",
		  "ticks": 74688,
		  "time": 83.3570595,
		  "velocity": 0.3937007874015748
		},
		{
		  "duration": 0.10714275000000839,
		  "durationTicks": 96,
		  "midi": 71,
		  "name": "B4",
		  "ticks": 74688,
		  "time": 83.3570595,
		  "velocity": 0.3937007874015748
		},
		{
		  "duration": 0.10714275000000839,
		  "durationTicks": 96,
		  "midi": 83,
		  "name": "B5",
		  "ticks": 74688,
		  "time": 83.3570595,
		  "velocity": 0.3937007874015748
		},
		{
		  "duration": 0.10714274999999418,
		  "durationTicks": 96,
		  "midi": 73,
		  "name": "C#5",
		  "ticks": 74880,
		  "time": 83.57134500000001,
		  "velocity": 0.3937007874015748
		},
		{
		  "duration": 0.10714274999999418,
		  "durationTicks": 96,
		  "midi": 45,
		  "name": "A2",
		  "ticks": 74880,
		  "time": 83.57134500000001,
		  "velocity": 0.3937007874015748
		},
		{
		  "duration": 0.10714274999999418,
		  "durationTicks": 96,
		  "midi": 85,
		  "name": "C#6",
		  "ticks": 74880,
		  "time": 83.57134500000001,
		  "velocity": 0.3937007874015748
		},
		{
		  "duration": 0.10714275000000839,
		  "durationTicks": 96,
		  "midi": 49,
		  "name": "C#3",
		  "ticks": 74904,
		  "time": 83.5981306875,
		  "velocity": 0.3937007874015748
		},
		{
		  "duration": 0.10714274999999418,
		  "durationTicks": 96,
		  "midi": 52,
		  "name": "E3",
		  "ticks": 74928,
		  "time": 83.62491637500001,
		  "velocity": 0.3937007874015748
		},
		{
		  "duration": 0.10714274999999418,
		  "durationTicks": 96,
		  "midi": 57,
		  "name": "A3",
		  "ticks": 74952,
		  "time": 83.65170206250001,
		  "velocity": 0.3937007874015748
		},
		{
		  "duration": 0.10714274999999418,
		  "durationTicks": 96,
		  "midi": 71,
		  "name": "B4",
		  "ticks": 75072,
		  "time": 83.78563050000001,
		  "velocity": 0.3937007874015748
		},
		{
		  "duration": 0.10714274999999418,
		  "durationTicks": 96,
		  "midi": 57,
		  "name": "A3",
		  "ticks": 75072,
		  "time": 83.78563050000001,
		  "velocity": 0.3937007874015748
		},
		{
		  "duration": 0.10714274999999418,
		  "durationTicks": 96,
		  "midi": 83,
		  "name": "B5",
		  "ticks": 75072,
		  "time": 83.78563050000001,
		  "velocity": 0.3937007874015748
		},
		{
		  "duration": 0.10714274999999418,
		  "durationTicks": 96,
		  "midi": 69,
		  "name": "A4",
		  "ticks": 75264,
		  "time": 83.99991600000001,
		  "velocity": 0.3937007874015748
		},
		{
		  "duration": 0.10714274999999418,
		  "durationTicks": 96,
		  "midi": 57,
		  "name": "A3",
		  "ticks": 75264,
		  "time": 83.99991600000001,
		  "velocity": 0.3937007874015748
		},
		{
		  "duration": 0.10714274999999418,
		  "durationTicks": 96,
		  "midi": 81,
		  "name": "A5",
		  "ticks": 75264,
		  "time": 83.99991600000001,
		  "velocity": 0.3937007874015748
		},
		{
		  "duration": 0.10714275000000839,
		  "durationTicks": 96,
		  "midi": 68,
		  "name": "G#4",
		  "ticks": 75456,
		  "time": 84.2142015,
		  "velocity": 0.3937007874015748
		},
		{
		  "duration": 0.10714275000000839,
		  "durationTicks": 96,
		  "midi": 57,
		  "name": "A3",
		  "ticks": 75456,
		  "time": 84.2142015,
		  "velocity": 0.3937007874015748
		},
		{
		  "duration": 0.10714275000000839,
		  "durationTicks": 96,
		  "midi": 80,
		  "name": "G#5",
		  "ticks": 75456,
		  "time": 84.2142015,
		  "velocity": 0.3937007874015748
		},
		{
		  "duration": 0.10714275000000839,
		  "durationTicks": 96,
		  "midi": 66,
		  "name": "F#4",
		  "ticks": 75648,
		  "time": 84.428487,
		  "velocity": 0.3937007874015748
		},
		{
		  "duration": 0.10714275000000839,
		  "durationTicks": 96,
		  "midi": 78,
		  "name": "F#5",
		  "ticks": 75648,
		  "time": 84.428487,
		  "velocity": 0.3937007874015748
		},
		{
		  "duration": 0.10714275000000839,
		  "durationTicks": 96,
		  "midi": 38,
		  "name": "D2",
		  "ticks": 75648,
		  "time": 84.428487,
		  "velocity": 0.3937007874015748
		},
		{
		  "duration": 0.10714274999999418,
		  "durationTicks": 96,
		  "midi": 42,
		  "name": "F#2",
		  "ticks": 75672,
		  "time": 84.45527268750001,
		  "velocity": 0.3937007874015748
		},
		{
		  "duration": 0.10714274999999418,
		  "durationTicks": 96,
		  "midi": 45,
		  "name": "A2",
		  "ticks": 75696,
		  "time": 84.48205837500001,
		  "velocity": 0.3937007874015748
		},
		{
		  "duration": 0.10714275000000839,
		  "durationTicks": 96,
		  "midi": 50,
		  "name": "D3",
		  "ticks": 75720,
		  "time": 84.5088440625,
		  "velocity": 0.3937007874015748
		},
		{
		  "duration": 0.10714274999999418,
		  "durationTicks": 96,
		  "midi": 68,
		  "name": "G#4",
		  "ticks": 75840,
		  "time": 84.6427725,
		  "velocity": 0.3937007874015748
		},
		{
		  "duration": 0.10714274999999418,
		  "durationTicks": 96,
		  "midi": 80,
		  "name": "G#5",
		  "ticks": 75840,
		  "time": 84.6427725,
		  "velocity": 0.3937007874015748
		},
		{
		  "duration": 0.10714274999999418,
		  "durationTicks": 96,
		  "midi": 50,
		  "name": "D3",
		  "ticks": 75840,
		  "time": 84.6427725,
		  "velocity": 0.3937007874015748
		},
		{
		  "duration": 0.10714274999999418,
		  "durationTicks": 96,
		  "midi": 69,
		  "name": "A4",
		  "ticks": 76032,
		  "time": 84.85705800000001,
		  "velocity": 0.3937007874015748
		},
		{
		  "duration": 0.10714274999999418,
		  "durationTicks": 96,
		  "midi": 81,
		  "name": "A5",
		  "ticks": 76032,
		  "time": 84.85705800000001,
		  "velocity": 0.3937007874015748
		},
		{
		  "duration": 0.10714274999999418,
		  "durationTicks": 96,
		  "midi": 39,
		  "name": "D#2",
		  "ticks": 76032,
		  "time": 84.85705800000001,
		  "velocity": 0.3937007874015748
		},
		{
		  "duration": 0.10714275000000839,
		  "durationTicks": 96,
		  "midi": 42,
		  "name": "F#2",
		  "ticks": 76056,
		  "time": 84.8838436875,
		  "velocity": 0.3937007874015748
		},
		{
		  "duration": 0.10714274999999418,
		  "durationTicks": 96,
		  "midi": 45,
		  "name": "A2",
		  "ticks": 76080,
		  "time": 84.91062937500001,
		  "velocity": 0.3937007874015748
		},
		{
		  "duration": 0.10714274999999418,
		  "durationTicks": 96,
		  "midi": 51,
		  "name": "D#3",
		  "ticks": 76104,
		  "time": 84.93741506250001,
		  "velocity": 0.3937007874015748
		},
		{
		  "duration": 0.10714274999999418,
		  "durationTicks": 96,
		  "midi": 71,
		  "name": "B4",
		  "ticks": 76224,
		  "time": 85.07134350000001,
		  "velocity": 0.3937007874015748
		},
		{
		  "duration": 0.10714274999999418,
		  "durationTicks": 96,
		  "midi": 83,
		  "name": "B5",
		  "ticks": 76224,
		  "time": 85.07134350000001,
		  "velocity": 0.3937007874015748
		},
		{
		  "duration": 0.10714274999999418,
		  "durationTicks": 96,
		  "midi": 51,
		  "name": "D#3",
		  "ticks": 76224,
		  "time": 85.07134350000001,
		  "velocity": 0.3937007874015748
		},
		{
		  "duration": 0.10714275000000839,
		  "durationTicks": 96,
		  "midi": 80,
		  "name": "G#5",
		  "ticks": 76416,
		  "time": 85.285629,
		  "velocity": 0.3937007874015748
		},
		{
		  "duration": 0.10714275000000839,
		  "durationTicks": 96,
		  "midi": 68,
		  "name": "G#4",
		  "ticks": 76416,
		  "time": 85.285629,
		  "velocity": 0.3937007874015748
		},
		{
		  "duration": 0.10714275000000839,
		  "durationTicks": 96,
		  "midi": 40,
		  "name": "E2",
		  "ticks": 76416,
		  "time": 85.285629,
		  "velocity": 0.3937007874015748
		},
		{
		  "duration": 0.10714274999999418,
		  "durationTicks": 96,
		  "midi": 44,
		  "name": "G#2",
		  "ticks": 76440,
		  "time": 85.31241468750001,
		  "velocity": 0.3937007874015748
		},
		{
		  "duration": 0.10714275000000839,
		  "durationTicks": 96,
		  "midi": 47,
		  "name": "B2",
		  "ticks": 76464,
		  "time": 85.339200375,
		  "velocity": 0.3937007874015748
		},
		{
		  "duration": 0.10714274999999418,
		  "durationTicks": 96,
		  "midi": 52,
		  "name": "E3",
		  "ticks": 76488,
		  "time": 85.36598606250001,
		  "velocity": 0.3937007874015748
		},
		{
		  "duration": 0.10714275000000839,
		  "durationTicks": 96,
		  "midi": 76,
		  "name": "E5",
		  "ticks": 76608,
		  "time": 85.4999145,
		  "velocity": 0.3937007874015748
		},
		{
		  "duration": 0.10714275000000839,
		  "durationTicks": 96,
		  "midi": 64,
		  "name": "E4",
		  "ticks": 76608,
		  "time": 85.4999145,
		  "velocity": 0.3937007874015748
		},
		{
		  "duration": 0.10714275000000839,
		  "durationTicks": 96,
		  "midi": 52,
		  "name": "E3",
		  "ticks": 76608,
		  "time": 85.4999145,
		  "velocity": 0.3937007874015748
		},
		{
		  "duration": 0.10714275000000839,
		  "durationTicks": 96,
		  "midi": 52,
		  "name": "E3",
		  "ticks": 76800,
		  "time": 85.7142,
		  "velocity": 0.3937007874015748
		},
		{
		  "duration": 0.10714275000000839,
		  "durationTicks": 96,
		  "midi": 69,
		  "name": "A4",
		  "ticks": 76800,
		  "time": 85.7142,
		  "velocity": 0.3937007874015748
		},
		{
		  "duration": 0.10714275000000839,
		  "durationTicks": 96,
		  "midi": 81,
		  "name": "A5",
		  "ticks": 76800,
		  "time": 85.7142,
		  "velocity": 0.3937007874015748
		},
		{
		  "duration": 0.10714274999999418,
		  "durationTicks": 96,
		  "midi": 52,
		  "name": "E3",
		  "ticks": 76992,
		  "time": 85.92848550000001,
		  "velocity": 0.3937007874015748
		},
		{
		  "duration": 0.10714274999999418,
		  "durationTicks": 96,
		  "midi": 71,
		  "name": "B4",
		  "ticks": 76992,
		  "time": 85.92848550000001,
		  "velocity": 0.3937007874015748
		},
		{
		  "duration": 0.10714274999999418,
		  "durationTicks": 96,
		  "midi": 83,
		  "name": "B5",
		  "ticks": 76992,
		  "time": 85.92848550000001,
		  "velocity": 0.3937007874015748
		},
		{
		  "duration": 0.10714274999999418,
		  "durationTicks": 96,
		  "midi": 73,
		  "name": "C#5",
		  "ticks": 77184,
		  "time": 86.14277100000001,
		  "velocity": 0.3937007874015748
		},
		{
		  "duration": 0.10714274999999418,
		  "durationTicks": 96,
		  "midi": 85,
		  "name": "C#6",
		  "ticks": 77184,
		  "time": 86.14277100000001,
		  "velocity": 0.3937007874015748
		},
		{
		  "duration": 0.10714274999999418,
		  "durationTicks": 96,
		  "midi": 45,
		  "name": "A2",
		  "ticks": 77184,
		  "time": 86.14277100000001,
		  "velocity": 0.3937007874015748
		},
		{
		  "duration": 0.10714275000000839,
		  "durationTicks": 96,
		  "midi": 49,
		  "name": "C#3",
		  "ticks": 77208,
		  "time": 86.1695566875,
		  "velocity": 0.3937007874015748
		},
		{
		  "duration": 0.10714275000000839,
		  "durationTicks": 96,
		  "midi": 52,
		  "name": "E3",
		  "ticks": 77232,
		  "time": 86.196342375,
		  "velocity": 0.3937007874015748
		},
		{
		  "duration": 0.10714274999999418,
		  "durationTicks": 96,
		  "midi": 57,
		  "name": "A3",
		  "ticks": 77256,
		  "time": 86.22312806250001,
		  "velocity": 0.3937007874015748
		},
		{
		  "duration": 0.10714274999999418,
		  "durationTicks": 96,
		  "midi": 57,
		  "name": "A3",
		  "ticks": 77376,
		  "time": 86.35705650000001,
		  "velocity": 0.3937007874015748
		},
		{
		  "duration": 0.10714275000000839,
		  "durationTicks": 96,
		  "midi": 57,
		  "name": "A3",
		  "ticks": 77568,
		  "time": 86.571342,
		  "velocity": 0.3937007874015748
		},
		{
		  "duration": 0.10714275000000839,
		  "durationTicks": 96,
		  "midi": 69,
		  "name": "A4",
		  "ticks": 77568,
		  "time": 86.571342,
		  "velocity": 0.3937007874015748
		},
		{
		  "duration": 0.10714275000000839,
		  "durationTicks": 96,
		  "midi": 81,
		  "name": "A5",
		  "ticks": 77568,
		  "time": 86.571342,
		  "velocity": 0.3937007874015748
		},
		{
		  "duration": 0.10714275000000839,
		  "durationTicks": 96,
		  "midi": 57,
		  "name": "A3",
		  "ticks": 77760,
		  "time": 86.7856275,
		  "velocity": 0.3937007874015748
		},
		{
		  "duration": 0.10714275000000839,
		  "durationTicks": 96,
		  "midi": 71,
		  "name": "B4",
		  "ticks": 77760,
		  "time": 86.7856275,
		  "velocity": 0.3937007874015748
		},
		{
		  "duration": 0.10714275000000839,
		  "durationTicks": 96,
		  "midi": 83,
		  "name": "B5",
		  "ticks": 77760,
		  "time": 86.7856275,
		  "velocity": 0.3937007874015748
		},
		{
		  "duration": 0.10714274999999418,
		  "durationTicks": 96,
		  "midi": 73,
		  "name": "C#5",
		  "ticks": 77952,
		  "time": 86.999913,
		  "velocity": 0.3937007874015748
		},
		{
		  "duration": 0.10714274999999418,
		  "durationTicks": 96,
		  "midi": 85,
		  "name": "C#6",
		  "ticks": 77952,
		  "time": 86.999913,
		  "velocity": 0.3937007874015748
		},
		{
		  "duration": 0.10714274999999418,
		  "durationTicks": 96,
		  "midi": 45,
		  "name": "A2",
		  "ticks": 77952,
		  "time": 86.999913,
		  "velocity": 0.3937007874015748
		},
		{
		  "duration": 0.10714275000000839,
		  "durationTicks": 96,
		  "midi": 49,
		  "name": "C#3",
		  "ticks": 77976,
		  "time": 87.0266986875,
		  "velocity": 0.3937007874015748
		},
		{
		  "duration": 0.10714274999999418,
		  "durationTicks": 96,
		  "midi": 52,
		  "name": "E3",
		  "ticks": 78000,
		  "time": 87.05348437500001,
		  "velocity": 0.3937007874015748
		},
		{
		  "duration": 0.10714275000000839,
		  "durationTicks": 96,
		  "midi": 57,
		  "name": "A3",
		  "ticks": 78024,
		  "time": 87.0802700625,
		  "velocity": 0.3937007874015748
		},
		{
		  "duration": 0.10714274999999418,
		  "durationTicks": 96,
		  "midi": 57,
		  "name": "A3",
		  "ticks": 78144,
		  "time": 87.21419850000001,
		  "velocity": 0.3937007874015748
		},
		{
		  "duration": 0.10714274999999418,
		  "durationTicks": 96,
		  "midi": 83,
		  "name": "B5",
		  "ticks": 78144,
		  "time": 87.21419850000001,
		  "velocity": 0.3937007874015748
		},
		{
		  "duration": 0.10714274999999418,
		  "durationTicks": 96,
		  "midi": 71,
		  "name": "B4",
		  "ticks": 78144,
		  "time": 87.21419850000001,
		  "velocity": 0.3937007874015748
		},
		{
		  "duration": 0.10714274999999418,
		  "durationTicks": 96,
		  "midi": 57,
		  "name": "A3",
		  "ticks": 78336,
		  "time": 87.42848400000001,
		  "velocity": 0.3937007874015748
		},
		{
		  "duration": 0.10714274999999418,
		  "durationTicks": 96,
		  "midi": 81,
		  "name": "A5",
		  "ticks": 78336,
		  "time": 87.42848400000001,
		  "velocity": 0.3937007874015748
		},
		{
		  "duration": 0.10714274999999418,
		  "durationTicks": 96,
		  "midi": 69,
		  "name": "A4",
		  "ticks": 78336,
		  "time": 87.42848400000001,
		  "velocity": 0.3937007874015748
		},
		{
		  "duration": 0.10714274999999418,
		  "durationTicks": 96,
		  "midi": 57,
		  "name": "A3",
		  "ticks": 78528,
		  "time": 87.64276950000001,
		  "velocity": 0.3937007874015748
		},
		{
		  "duration": 0.10714274999999418,
		  "durationTicks": 96,
		  "midi": 80,
		  "name": "G#5",
		  "ticks": 78528,
		  "time": 87.64276950000001,
		  "velocity": 0.3937007874015748
		},
		{
		  "duration": 0.10714274999999418,
		  "durationTicks": 96,
		  "midi": 68,
		  "name": "G#4",
		  "ticks": 78528,
		  "time": 87.64276950000001,
		  "velocity": 0.3937007874015748
		},
		{
		  "duration": 0.10714275000000839,
		  "durationTicks": 96,
		  "midi": 78,
		  "name": "F#5",
		  "ticks": 78720,
		  "time": 87.857055,
		  "velocity": 0.3937007874015748
		},
		{
		  "duration": 0.10714275000000839,
		  "durationTicks": 96,
		  "midi": 66,
		  "name": "F#4",
		  "ticks": 78720,
		  "time": 87.857055,
		  "velocity": 0.3937007874015748
		},
		{
		  "duration": 0.10714275000000839,
		  "durationTicks": 96,
		  "midi": 38,
		  "name": "D2",
		  "ticks": 78720,
		  "time": 87.857055,
		  "velocity": 0.3937007874015748
		},
		{
		  "duration": 0.10714274999999418,
		  "durationTicks": 96,
		  "midi": 42,
		  "name": "F#2",
		  "ticks": 78744,
		  "time": 87.88384068750001,
		  "velocity": 0.3937007874015748
		},
		{
		  "duration": 0.10714274999999418,
		  "durationTicks": 96,
		  "midi": 45,
		  "name": "A2",
		  "ticks": 78768,
		  "time": 87.910626375,
		  "velocity": 0.3937007874015748
		},
		{
		  "duration": 0.10714275000000839,
		  "durationTicks": 96,
		  "midi": 50,
		  "name": "D3",
		  "ticks": 78792,
		  "time": 87.9374120625,
		  "velocity": 0.3937007874015748
		},
		{
		  "duration": 0.10714275000000839,
		  "durationTicks": 96,
		  "midi": 50,
		  "name": "D3",
		  "ticks": 78912,
		  "time": 88.0713405,
		  "velocity": 0.3937007874015748
		},
		{
		  "duration": 0.10714275000000839,
		  "durationTicks": 96,
		  "midi": 71,
		  "name": "B4",
		  "ticks": 78912,
		  "time": 88.0713405,
		  "velocity": 0.3937007874015748
		},
		{
		  "duration": 0.10714275000000839,
		  "durationTicks": 96,
		  "midi": 83,
		  "name": "B5",
		  "ticks": 78912,
		  "time": 88.0713405,
		  "velocity": 0.3937007874015748
		},
		{
		  "duration": 0.10714274999999418,
		  "durationTicks": 96,
		  "midi": 40,
		  "name": "E2",
		  "ticks": 79104,
		  "time": 88.28562600000001,
		  "velocity": 0.3937007874015748
		},
		{
		  "duration": 0.10714274999999418,
		  "durationTicks": 96,
		  "midi": 68,
		  "name": "G#4",
		  "ticks": 79104,
		  "time": 88.28562600000001,
		  "velocity": 0.3937007874015748
		},
		{
		  "duration": 0.10714274999999418,
		  "durationTicks": 96,
		  "midi": 80,
		  "name": "G#5",
		  "ticks": 79104,
		  "time": 88.28562600000001,
		  "velocity": 0.3937007874015748
		},
		{
		  "duration": 0.10714275000000839,
		  "durationTicks": 96,
		  "midi": 44,
		  "name": "G#2",
		  "ticks": 79128,
		  "time": 88.3124116875,
		  "velocity": 0.3937007874015748
		},
		{
		  "duration": 0.10714274999999418,
		  "durationTicks": 96,
		  "midi": 47,
		  "name": "B2",
		  "ticks": 79152,
		  "time": 88.33919737500001,
		  "velocity": 0.3937007874015748
		},
		{
		  "duration": 0.10714274999999418,
		  "durationTicks": 96,
		  "midi": 52,
		  "name": "E3",
		  "ticks": 79176,
		  "time": 88.3659830625,
		  "velocity": 0.3937007874015748
		},
		{
		  "duration": 0.10714274999999418,
		  "durationTicks": 96,
		  "midi": 52,
		  "name": "E3",
		  "ticks": 79296,
		  "time": 88.49991150000001,
		  "velocity": 0.3937007874015748
		},
		{
		  "duration": 0.10714274999999418,
		  "durationTicks": 96,
		  "midi": 64,
		  "name": "E4",
		  "ticks": 79296,
		  "time": 88.49991150000001,
		  "velocity": 0.3937007874015748
		},
		{
		  "duration": 0.10714274999999418,
		  "durationTicks": 96,
		  "midi": 76,
		  "name": "E5",
		  "ticks": 79296,
		  "time": 88.49991150000001,
		  "velocity": 0.3937007874015748
		},
		{
		  "duration": 0.10714274999999418,
		  "durationTicks": 96,
		  "midi": 69,
		  "name": "A4",
		  "ticks": 79488,
		  "time": 88.71419700000001,
		  "velocity": 0.3937007874015748
		},
		{
		  "duration": 0.10714274999999418,
		  "durationTicks": 96,
		  "midi": 81,
		  "name": "A5",
		  "ticks": 79488,
		  "time": 88.71419700000001,
		  "velocity": 0.3937007874015748
		},
		{
		  "duration": 0.10714274999999418,
		  "durationTicks": 96,
		  "midi": 45,
		  "name": "A2",
		  "ticks": 79488,
		  "time": 88.71419700000001,
		  "velocity": 0.3937007874015748
		},
		{
		  "duration": 0.10714275000000839,
		  "durationTicks": 96,
		  "midi": 69,
		  "name": "A4",
		  "ticks": 79872,
		  "time": 89.142768,
		  "velocity": 0.3937007874015748
		},
		{
		  "duration": 0.10714275000000839,
		  "durationTicks": 96,
		  "midi": 81,
		  "name": "A5",
		  "ticks": 79872,
		  "time": 89.142768,
		  "velocity": 0.3937007874015748
		},
		{
		  "duration": 0.10714274999999418,
		  "durationTicks": 96,
		  "midi": 71,
		  "name": "B4",
		  "ticks": 80064,
		  "time": 89.3570535,
		  "velocity": 0.3937007874015748
		},
		{
		  "duration": 0.10714274999999418,
		  "durationTicks": 96,
		  "midi": 83,
		  "name": "B5",
		  "ticks": 80064,
		  "time": 89.3570535,
		  "velocity": 0.3937007874015748
		},
		{
		  "duration": 0.10714274999999418,
		  "durationTicks": 96,
		  "midi": 85,
		  "name": "C#6",
		  "ticks": 80256,
		  "time": 89.57133900000001,
		  "velocity": 0.3937007874015748
		},
		{
		  "duration": 0.10714274999999418,
		  "durationTicks": 96,
		  "midi": 73,
		  "name": "C#5",
		  "ticks": 80256,
		  "time": 89.57133900000001,
		  "velocity": 0.3937007874015748
		},
		{
		  "duration": 0.10714274999999418,
		  "durationTicks": 96,
		  "midi": 45,
		  "name": "A2",
		  "ticks": 80256,
		  "time": 89.57133900000001,
		  "velocity": 0.3937007874015748
		},
		{
		  "duration": 0.10714275000000839,
		  "durationTicks": 96,
		  "midi": 49,
		  "name": "C#3",
		  "ticks": 80280,
		  "time": 89.5981246875,
		  "velocity": 0.3937007874015748
		},
		{
		  "duration": 0.10714274999999418,
		  "durationTicks": 96,
		  "midi": 52,
		  "name": "E3",
		  "ticks": 80304,
		  "time": 89.62491037500001,
		  "velocity": 0.3937007874015748
		},
		{
		  "duration": 0.10714274999999418,
		  "durationTicks": 96,
		  "midi": 57,
		  "name": "A3",
		  "ticks": 80328,
		  "time": 89.65169606250001,
		  "velocity": 0.3937007874015748
		},
		{
		  "duration": 0.10714274999999418,
		  "durationTicks": 96,
		  "midi": 57,
		  "name": "A3",
		  "ticks": 80448,
		  "time": 89.78562450000001,
		  "velocity": 0.3937007874015748
		},
		{
		  "duration": 0.10714274999999418,
		  "durationTicks": 96,
		  "midi": 57,
		  "name": "A3",
		  "ticks": 80640,
		  "time": 89.99991000000001,
		  "velocity": 0.3937007874015748
		},
		{
		  "duration": 0.10714274999999418,
		  "durationTicks": 96,
		  "midi": 69,
		  "name": "A4",
		  "ticks": 80640,
		  "time": 89.99991000000001,
		  "velocity": 0.3937007874015748
		},
		{
		  "duration": 0.10714274999999418,
		  "durationTicks": 96,
		  "midi": 81,
		  "name": "A5",
		  "ticks": 80640,
		  "time": 89.99991000000001,
		  "velocity": 0.3937007874015748
		},
		{
		  "duration": 0.10714275000000839,
		  "durationTicks": 96,
		  "midi": 57,
		  "name": "A3",
		  "ticks": 80832,
		  "time": 90.2141955,
		  "velocity": 0.3937007874015748
		},
		{
		  "duration": 0.10714275000000839,
		  "durationTicks": 96,
		  "midi": 71,
		  "name": "B4",
		  "ticks": 80832,
		  "time": 90.2141955,
		  "velocity": 0.3937007874015748
		},
		{
		  "duration": 0.10714275000000839,
		  "durationTicks": 96,
		  "midi": 83,
		  "name": "B5",
		  "ticks": 80832,
		  "time": 90.2141955,
		  "velocity": 0.3937007874015748
		},
		{
		  "duration": 0.10714275000000839,
		  "durationTicks": 96,
		  "midi": 73,
		  "name": "C#5",
		  "ticks": 81024,
		  "time": 90.428481,
		  "velocity": 0.3937007874015748
		},
		{
		  "duration": 0.10714275000000839,
		  "durationTicks": 96,
		  "midi": 45,
		  "name": "A2",
		  "ticks": 81024,
		  "time": 90.428481,
		  "velocity": 0.3937007874015748
		},
		{
		  "duration": 0.10714275000000839,
		  "durationTicks": 96,
		  "midi": 85,
		  "name": "C#6",
		  "ticks": 81024,
		  "time": 90.428481,
		  "velocity": 0.3937007874015748
		},
		{
		  "duration": 0.10714274999999418,
		  "durationTicks": 96,
		  "midi": 49,
		  "name": "C#3",
		  "ticks": 81048,
		  "time": 90.45526668750001,
		  "velocity": 0.3937007874015748
		},
		{
		  "duration": 0.10714274999999418,
		  "durationTicks": 96,
		  "midi": 52,
		  "name": "E3",
		  "ticks": 81072,
		  "time": 90.48205237500001,
		  "velocity": 0.3937007874015748
		},
		{
		  "duration": 0.10714275000000839,
		  "durationTicks": 96,
		  "midi": 57,
		  "name": "A3",
		  "ticks": 81096,
		  "time": 90.5088380625,
		  "velocity": 0.3937007874015748
		},
		{
		  "duration": 0.10714274999999418,
		  "durationTicks": 96,
		  "midi": 71,
		  "name": "B4",
		  "ticks": 81216,
		  "time": 90.64276650000001,
		  "velocity": 0.3937007874015748
		},
		{
		  "duration": 0.10714274999999418,
		  "durationTicks": 96,
		  "midi": 57,
		  "name": "A3",
		  "ticks": 81216,
		  "time": 90.64276650000001,
		  "velocity": 0.3937007874015748
		},
		{
		  "duration": 0.10714274999999418,
		  "durationTicks": 96,
		  "midi": 83,
		  "name": "B5",
		  "ticks": 81216,
		  "time": 90.64276650000001,
		  "velocity": 0.3937007874015748
		},
		{
		  "duration": 0.10714274999999418,
		  "durationTicks": 96,
		  "midi": 69,
		  "name": "A4",
		  "ticks": 81408,
		  "time": 90.85705200000001,
		  "velocity": 0.3937007874015748
		},
		{
		  "duration": 0.10714274999999418,
		  "durationTicks": 96,
		  "midi": 57,
		  "name": "A3",
		  "ticks": 81408,
		  "time": 90.85705200000001,
		  "velocity": 0.3937007874015748
		},
		{
		  "duration": 0.10714274999999418,
		  "durationTicks": 96,
		  "midi": 81,
		  "name": "A5",
		  "ticks": 81408,
		  "time": 90.85705200000001,
		  "velocity": 0.3937007874015748
		},
		{
		  "duration": 0.10714274999999418,
		  "durationTicks": 96,
		  "midi": 68,
		  "name": "G#4",
		  "ticks": 81600,
		  "time": 91.07133750000001,
		  "velocity": 0.3937007874015748
		},
		{
		  "duration": 0.10714274999999418,
		  "durationTicks": 96,
		  "midi": 57,
		  "name": "A3",
		  "ticks": 81600,
		  "time": 91.07133750000001,
		  "velocity": 0.3937007874015748
		},
		{
		  "duration": 0.10714274999999418,
		  "durationTicks": 96,
		  "midi": 80,
		  "name": "G#5",
		  "ticks": 81600,
		  "time": 91.07133750000001,
		  "velocity": 0.3937007874015748
		},
		{
		  "duration": 0.10714275000000839,
		  "durationTicks": 96,
		  "midi": 66,
		  "name": "F#4",
		  "ticks": 81792,
		  "time": 91.285623,
		  "velocity": 0.3937007874015748
		},
		{
		  "duration": 0.10714275000000839,
		  "durationTicks": 96,
		  "midi": 78,
		  "name": "F#5",
		  "ticks": 81792,
		  "time": 91.285623,
		  "velocity": 0.3937007874015748
		},
		{
		  "duration": 0.10714275000000839,
		  "durationTicks": 96,
		  "midi": 38,
		  "name": "D2",
		  "ticks": 81792,
		  "time": 91.285623,
		  "velocity": 0.3937007874015748
		},
		{
		  "duration": 0.10714274999999418,
		  "durationTicks": 96,
		  "midi": 42,
		  "name": "F#2",
		  "ticks": 81816,
		  "time": 91.31240868750001,
		  "velocity": 0.3937007874015748
		},
		{
		  "duration": 0.10714275000000839,
		  "durationTicks": 96,
		  "midi": 45,
		  "name": "A2",
		  "ticks": 81840,
		  "time": 91.339194375,
		  "velocity": 0.3937007874015748
		},
		{
		  "duration": 0.10714274999999418,
		  "durationTicks": 96,
		  "midi": 50,
		  "name": "D3",
		  "ticks": 81864,
		  "time": 91.36598006250001,
		  "velocity": 0.3937007874015748
		},
		{
		  "duration": 0.10714275000000839,
		  "durationTicks": 96,
		  "midi": 68,
		  "name": "G#4",
		  "ticks": 81984,
		  "time": 91.4999085,
		  "velocity": 0.3937007874015748
		},
		{
		  "duration": 0.10714275000000839,
		  "durationTicks": 96,
		  "midi": 80,
		  "name": "G#5",
		  "ticks": 81984,
		  "time": 91.4999085,
		  "velocity": 0.3937007874015748
		},
		{
		  "duration": 0.10714275000000839,
		  "durationTicks": 96,
		  "midi": 50,
		  "name": "D3",
		  "ticks": 81984,
		  "time": 91.4999085,
		  "velocity": 0.3937007874015748
		},
		{
		  "duration": 0.10714275000000839,
		  "durationTicks": 96,
		  "midi": 69,
		  "name": "A4",
		  "ticks": 82176,
		  "time": 91.714194,
		  "velocity": 0.3937007874015748
		},
		{
		  "duration": 0.10714275000000839,
		  "durationTicks": 96,
		  "midi": 81,
		  "name": "A5",
		  "ticks": 82176,
		  "time": 91.714194,
		  "velocity": 0.3937007874015748
		},
		{
		  "duration": 0.10714275000000839,
		  "durationTicks": 96,
		  "midi": 39,
		  "name": "D#2",
		  "ticks": 82176,
		  "time": 91.714194,
		  "velocity": 0.3937007874015748
		},
		{
		  "duration": 0.10714275000000839,
		  "durationTicks": 96,
		  "midi": 42,
		  "name": "F#2",
		  "ticks": 82200,
		  "time": 91.7409796875,
		  "velocity": 0.3937007874015748
		},
		{
		  "duration": 0.10714274999999418,
		  "durationTicks": 96,
		  "midi": 45,
		  "name": "A2",
		  "ticks": 82224,
		  "time": 91.76776537500001,
		  "velocity": 0.3937007874015748
		},
		{
		  "duration": 0.10714275000000839,
		  "durationTicks": 96,
		  "midi": 51,
		  "name": "D#3",
		  "ticks": 82248,
		  "time": 91.7945510625,
		  "velocity": 0.3937007874015748
		},
		{
		  "duration": 0.10714274999999418,
		  "durationTicks": 96,
		  "midi": 71,
		  "name": "B4",
		  "ticks": 82368,
		  "time": 91.92847950000001,
		  "velocity": 0.3937007874015748
		},
		{
		  "duration": 0.10714274999999418,
		  "durationTicks": 96,
		  "midi": 83,
		  "name": "B5",
		  "ticks": 82368,
		  "time": 91.92847950000001,
		  "velocity": 0.3937007874015748
		},
		{
		  "duration": 0.10714274999999418,
		  "durationTicks": 96,
		  "midi": 51,
		  "name": "D#3",
		  "ticks": 82368,
		  "time": 91.92847950000001,
		  "velocity": 0.3937007874015748
		},
		{
		  "duration": 0.10714274999999418,
		  "durationTicks": 96,
		  "midi": 80,
		  "name": "G#5",
		  "ticks": 82560,
		  "time": 92.14276500000001,
		  "velocity": 0.3937007874015748
		},
		{
		  "duration": 0.10714274999999418,
		  "durationTicks": 96,
		  "midi": 68,
		  "name": "G#4",
		  "ticks": 82560,
		  "time": 92.14276500000001,
		  "velocity": 0.3937007874015748
		},
		{
		  "duration": 0.10714274999999418,
		  "durationTicks": 96,
		  "midi": 40,
		  "name": "E2",
		  "ticks": 82560,
		  "time": 92.14276500000001,
		  "velocity": 0.3937007874015748
		},
		{
		  "duration": 0.10714274999999418,
		  "durationTicks": 96,
		  "midi": 44,
		  "name": "G#2",
		  "ticks": 82584,
		  "time": 92.1695506875,
		  "velocity": 0.3937007874015748
		},
		{
		  "duration": 0.10714275000000839,
		  "durationTicks": 96,
		  "midi": 47,
		  "name": "B2",
		  "ticks": 82608,
		  "time": 92.196336375,
		  "velocity": 0.3937007874015748
		},
		{
		  "duration": 0.10714274999999418,
		  "durationTicks": 96,
		  "midi": 52,
		  "name": "E3",
		  "ticks": 82632,
		  "time": 92.22312206250001,
		  "velocity": 0.3937007874015748
		},
		{
		  "duration": 0.10714274999999418,
		  "durationTicks": 96,
		  "midi": 76,
		  "name": "E5",
		  "ticks": 82752,
		  "time": 92.35705050000001,
		  "velocity": 0.3937007874015748
		},
		{
		  "duration": 0.10714274999999418,
		  "durationTicks": 96,
		  "midi": 64,
		  "name": "E4",
		  "ticks": 82752,
		  "time": 92.35705050000001,
		  "velocity": 0.3937007874015748
		},
		{
		  "duration": 0.10714274999999418,
		  "durationTicks": 96,
		  "midi": 52,
		  "name": "E3",
		  "ticks": 82752,
		  "time": 92.35705050000001,
		  "velocity": 0.3937007874015748
		},
		{
		  "duration": 0.10714275000000839,
		  "durationTicks": 96,
		  "midi": 52,
		  "name": "E3",
		  "ticks": 82944,
		  "time": 92.571336,
		  "velocity": 0.3937007874015748
		},
		{
		  "duration": 0.10714275000000839,
		  "durationTicks": 96,
		  "midi": 69,
		  "name": "A4",
		  "ticks": 82944,
		  "time": 92.571336,
		  "velocity": 0.3937007874015748
		},
		{
		  "duration": 0.10714275000000839,
		  "durationTicks": 96,
		  "midi": 81,
		  "name": "A5",
		  "ticks": 82944,
		  "time": 92.571336,
		  "velocity": 0.3937007874015748
		},
		{
		  "duration": 0.10714275000000839,
		  "durationTicks": 96,
		  "midi": 52,
		  "name": "E3",
		  "ticks": 83136,
		  "time": 92.7856215,
		  "velocity": 0.3937007874015748
		},
		{
		  "duration": 0.10714275000000839,
		  "durationTicks": 96,
		  "midi": 71,
		  "name": "B4",
		  "ticks": 83136,
		  "time": 92.7856215,
		  "velocity": 0.3937007874015748
		},
		{
		  "duration": 0.10714275000000839,
		  "durationTicks": 96,
		  "midi": 83,
		  "name": "B5",
		  "ticks": 83136,
		  "time": 92.7856215,
		  "velocity": 0.3937007874015748
		},
		{
		  "duration": 0.10714274999999418,
		  "durationTicks": 96,
		  "midi": 73,
		  "name": "C#5",
		  "ticks": 83328,
		  "time": 92.99990700000001,
		  "velocity": 0.3937007874015748
		},
		{
		  "duration": 0.10714274999999418,
		  "durationTicks": 96,
		  "midi": 85,
		  "name": "C#6",
		  "ticks": 83328,
		  "time": 92.99990700000001,
		  "velocity": 0.3937007874015748
		},
		{
		  "duration": 0.10714274999999418,
		  "durationTicks": 96,
		  "midi": 45,
		  "name": "A2",
		  "ticks": 83328,
		  "time": 92.99990700000001,
		  "velocity": 0.3937007874015748
		},
		{
		  "duration": 0.10714275000000839,
		  "durationTicks": 96,
		  "midi": 49,
		  "name": "C#3",
		  "ticks": 83352,
		  "time": 93.0266926875,
		  "velocity": 0.3937007874015748
		},
		{
		  "duration": 0.10714274999999418,
		  "durationTicks": 96,
		  "midi": 52,
		  "name": "E3",
		  "ticks": 83376,
		  "time": 93.05347837500001,
		  "velocity": 0.3937007874015748
		},
		{
		  "duration": 0.10714274999999418,
		  "durationTicks": 96,
		  "midi": 57,
		  "name": "A3",
		  "ticks": 83400,
		  "time": 93.0802640625,
		  "velocity": 0.3937007874015748
		},
		{
		  "duration": 0.10714274999999418,
		  "durationTicks": 96,
		  "midi": 57,
		  "name": "A3",
		  "ticks": 83520,
		  "time": 93.21419250000001,
		  "velocity": 0.3937007874015748
		},
		{
		  "duration": 0.10714274999999418,
		  "durationTicks": 96,
		  "midi": 57,
		  "name": "A3",
		  "ticks": 83712,
		  "time": 93.42847800000001,
		  "velocity": 0.3937007874015748
		},
		{
		  "duration": 0.10714274999999418,
		  "durationTicks": 96,
		  "midi": 69,
		  "name": "A4",
		  "ticks": 83712,
		  "time": 93.42847800000001,
		  "velocity": 0.3937007874015748
		},
		{
		  "duration": 0.10714274999999418,
		  "durationTicks": 96,
		  "midi": 81,
		  "name": "A5",
		  "ticks": 83712,
		  "time": 93.42847800000001,
		  "velocity": 0.3937007874015748
		},
		{
		  "duration": 0.10714275000000839,
		  "durationTicks": 96,
		  "midi": 57,
		  "name": "A3",
		  "ticks": 83904,
		  "time": 93.6427635,
		  "velocity": 0.3937007874015748
		},
		{
		  "duration": 0.10714275000000839,
		  "durationTicks": 96,
		  "midi": 71,
		  "name": "B4",
		  "ticks": 83904,
		  "time": 93.6427635,
		  "velocity": 0.3937007874015748
		},
		{
		  "duration": 0.10714275000000839,
		  "durationTicks": 96,
		  "midi": 83,
		  "name": "B5",
		  "ticks": 83904,
		  "time": 93.6427635,
		  "velocity": 0.3937007874015748
		},
		{
		  "duration": 0.10714275000000839,
		  "durationTicks": 96,
		  "midi": 73,
		  "name": "C#5",
		  "ticks": 84096,
		  "time": 93.857049,
		  "velocity": 0.3937007874015748
		},
		{
		  "duration": 0.10714275000000839,
		  "durationTicks": 96,
		  "midi": 85,
		  "name": "C#6",
		  "ticks": 84096,
		  "time": 93.857049,
		  "velocity": 0.3937007874015748
		},
		{
		  "duration": 0.10714275000000839,
		  "durationTicks": 96,
		  "midi": 45,
		  "name": "A2",
		  "ticks": 84096,
		  "time": 93.857049,
		  "velocity": 0.3937007874015748
		},
		{
		  "duration": 0.10714274999999418,
		  "durationTicks": 96,
		  "midi": 49,
		  "name": "C#3",
		  "ticks": 84120,
		  "time": 93.88383468750001,
		  "velocity": 0.3937007874015748
		},
		{
		  "duration": 0.10714274999999418,
		  "durationTicks": 96,
		  "midi": 52,
		  "name": "E3",
		  "ticks": 84144,
		  "time": 93.91062037500001,
		  "velocity": 0.3937007874015748
		},
		{
		  "duration": 0.10714275000000839,
		  "durationTicks": 96,
		  "midi": 57,
		  "name": "A3",
		  "ticks": 84168,
		  "time": 93.9374060625,
		  "velocity": 0.3937007874015748
		},
		{
		  "duration": 0.10714275000000839,
		  "durationTicks": 96,
		  "midi": 57,
		  "name": "A3",
		  "ticks": 84288,
		  "time": 94.0713345,
		  "velocity": 0.3937007874015748
		},
		{
		  "duration": 0.10714275000000839,
		  "durationTicks": 96,
		  "midi": 83,
		  "name": "B5",
		  "ticks": 84288,
		  "time": 94.0713345,
		  "velocity": 0.3937007874015748
		},
		{
		  "duration": 0.10714275000000839,
		  "durationTicks": 96,
		  "midi": 71,
		  "name": "B4",
		  "ticks": 84288,
		  "time": 94.0713345,
		  "velocity": 0.3937007874015748
		},
		{
		  "duration": 0.10714274999999418,
		  "durationTicks": 96,
		  "midi": 57,
		  "name": "A3",
		  "ticks": 84480,
		  "time": 94.28562000000001,
		  "velocity": 0.3937007874015748
		},
		{
		  "duration": 0.10714274999999418,
		  "durationTicks": 96,
		  "midi": 81,
		  "name": "A5",
		  "ticks": 84480,
		  "time": 94.28562000000001,
		  "velocity": 0.3937007874015748
		},
		{
		  "duration": 0.10714274999999418,
		  "durationTicks": 96,
		  "midi": 69,
		  "name": "A4",
		  "ticks": 84480,
		  "time": 94.28562000000001,
		  "velocity": 0.3937007874015748
		},
		{
		  "duration": 0.10714274999999418,
		  "durationTicks": 96,
		  "midi": 57,
		  "name": "A3",
		  "ticks": 84672,
		  "time": 94.49990550000001,
		  "velocity": 0.3937007874015748
		},
		{
		  "duration": 0.10714274999999418,
		  "durationTicks": 96,
		  "midi": 80,
		  "name": "G#5",
		  "ticks": 84672,
		  "time": 94.49990550000001,
		  "velocity": 0.3937007874015748
		},
		{
		  "duration": 0.10714274999999418,
		  "durationTicks": 96,
		  "midi": 68,
		  "name": "G#4",
		  "ticks": 84672,
		  "time": 94.49990550000001,
		  "velocity": 0.3937007874015748
		},
		{
		  "duration": 0.10714274999999418,
		  "durationTicks": 96,
		  "midi": 78,
		  "name": "F#5",
		  "ticks": 84864,
		  "time": 94.71419100000001,
		  "velocity": 0.3937007874015748
		},
		{
		  "duration": 0.10714274999999418,
		  "durationTicks": 96,
		  "midi": 66,
		  "name": "F#4",
		  "ticks": 84864,
		  "time": 94.71419100000001,
		  "velocity": 0.3937007874015748
		},
		{
		  "duration": 0.10714274999999418,
		  "durationTicks": 96,
		  "midi": 38,
		  "name": "D2",
		  "ticks": 84864,
		  "time": 94.71419100000001,
		  "velocity": 0.3937007874015748
		},
		{
		  "duration": 0.10714274999999418,
		  "durationTicks": 96,
		  "midi": 42,
		  "name": "F#2",
		  "ticks": 84888,
		  "time": 94.74097668750001,
		  "velocity": 0.3937007874015748
		},
		{
		  "duration": 0.10714275000000839,
		  "durationTicks": 96,
		  "midi": 45,
		  "name": "A2",
		  "ticks": 84912,
		  "time": 94.767762375,
		  "velocity": 0.3937007874015748
		},
		{
		  "duration": 0.10714274999999418,
		  "durationTicks": 96,
		  "midi": 50,
		  "name": "D3",
		  "ticks": 84936,
		  "time": 94.79454806250001,
		  "velocity": 0.3937007874015748
		},
		{
		  "duration": 0.10714275000000839,
		  "durationTicks": 96,
		  "midi": 50,
		  "name": "D3",
		  "ticks": 85056,
		  "time": 94.9284765,
		  "velocity": 0.3937007874015748
		},
		{
		  "duration": 0.10714275000000839,
		  "durationTicks": 96,
		  "midi": 71,
		  "name": "B4",
		  "ticks": 85056,
		  "time": 94.9284765,
		  "velocity": 0.3937007874015748
		},
		{
		  "duration": 0.10714275000000839,
		  "durationTicks": 96,
		  "midi": 83,
		  "name": "B5",
		  "ticks": 85056,
		  "time": 94.9284765,
		  "velocity": 0.3937007874015748
		},
		{
		  "duration": 0.10714275000000839,
		  "durationTicks": 96,
		  "midi": 40,
		  "name": "E2",
		  "ticks": 85248,
		  "time": 95.142762,
		  "velocity": 0.3937007874015748
		},
		{
		  "duration": 0.10714275000000839,
		  "durationTicks": 96,
		  "midi": 68,
		  "name": "G#4",
		  "ticks": 85248,
		  "time": 95.142762,
		  "velocity": 0.3937007874015748
		},
		{
		  "duration": 0.10714275000000839,
		  "durationTicks": 96,
		  "midi": 80,
		  "name": "G#5",
		  "ticks": 85248,
		  "time": 95.142762,
		  "velocity": 0.3937007874015748
		},
		{
		  "duration": 0.10714274999999418,
		  "durationTicks": 96,
		  "midi": 44,
		  "name": "G#2",
		  "ticks": 85272,
		  "time": 95.16954768750001,
		  "velocity": 0.3937007874015748
		},
		{
		  "duration": 0.10714274999999418,
		  "durationTicks": 96,
		  "midi": 47,
		  "name": "B2",
		  "ticks": 85296,
		  "time": 95.19633337500001,
		  "velocity": 0.3937007874015748
		},
		{
		  "duration": 0.10714275000000839,
		  "durationTicks": 96,
		  "midi": 52,
		  "name": "E3",
		  "ticks": 85320,
		  "time": 95.2231190625,
		  "velocity": 0.3937007874015748
		},
		{
		  "duration": 0.10714274999999418,
		  "durationTicks": 96,
		  "midi": 52,
		  "name": "E3",
		  "ticks": 85440,
		  "time": 95.35704750000001,
		  "velocity": 0.3937007874015748
		},
		{
		  "duration": 0.10714274999999418,
		  "durationTicks": 96,
		  "midi": 64,
		  "name": "E4",
		  "ticks": 85440,
		  "time": 95.35704750000001,
		  "velocity": 0.3937007874015748
		},
		{
		  "duration": 0.10714274999999418,
		  "durationTicks": 96,
		  "midi": 76,
		  "name": "E5",
		  "ticks": 85440,
		  "time": 95.35704750000001,
		  "velocity": 0.3937007874015748
		},
		{
		  "duration": 0.10714274999999418,
		  "durationTicks": 96,
		  "midi": 69,
		  "name": "A4",
		  "ticks": 85632,
		  "time": 95.57133300000001,
		  "velocity": 0.3937007874015748
		},
		{
		  "duration": 0.10714274999999418,
		  "durationTicks": 96,
		  "midi": 81,
		  "name": "A5",
		  "ticks": 85632,
		  "time": 95.57133300000001,
		  "velocity": 0.3937007874015748
		},
		{
		  "duration": 0.10714274999999418,
		  "durationTicks": 96,
		  "midi": 45,
		  "name": "A2",
		  "ticks": 85632,
		  "time": 95.57133300000001,
		  "velocity": 0.3937007874015748
		},
		{
		  "duration": 0.10714274999999418,
		  "durationTicks": 96,
		  "midi": 71,
		  "name": "B4",
		  "ticks": 86016,
		  "time": 95.99990400000002,
		  "velocity": 0.3937007874015748
		},
		{
		  "duration": 0.10714274999999418,
		  "durationTicks": 96,
		  "midi": 69,
		  "name": "A4",
		  "ticks": 86112,
		  "time": 96.10704675000001,
		  "velocity": 0.3937007874015748
		},
		{
		  "duration": 0.10714275000000839,
		  "durationTicks": 96,
		  "midi": 68,
		  "name": "G#4",
		  "ticks": 86208,
		  "time": 96.2141895,
		  "velocity": 0.3937007874015748
		},
		{
		  "duration": 0.10714274999999418,
		  "durationTicks": 96,
		  "midi": 69,
		  "name": "A4",
		  "ticks": 86304,
		  "time": 96.32133225000001,
		  "velocity": 0.3937007874015748
		},
		{
		  "duration": 0.10714275000000839,
		  "durationTicks": 96,
		  "midi": 72,
		  "name": "C5",
		  "ticks": 86400,
		  "time": 96.428475,
		  "velocity": 0.3937007874015748
		},
		{
		  "duration": 0.10714275000000839,
		  "durationTicks": 96,
		  "midi": 57,
		  "name": "A3",
		  "ticks": 86400,
		  "time": 96.428475,
		  "velocity": 0.3937007874015748
		},
		{
		  "duration": 0.10714274999999418,
		  "durationTicks": 96,
		  "midi": 60,
		  "name": "C4",
		  "ticks": 86592,
		  "time": 96.64276050000001,
		  "velocity": 0.3937007874015748
		},
		{
		  "duration": 0.10714274999999418,
		  "durationTicks": 96,
		  "midi": 64,
		  "name": "E4",
		  "ticks": 86592,
		  "time": 96.64276050000001,
		  "velocity": 0.3937007874015748
		},
		{
		  "duration": 0.10714274999999418,
		  "durationTicks": 96,
		  "midi": 60,
		  "name": "C4",
		  "ticks": 86784,
		  "time": 96.85704600000001,
		  "velocity": 0.3937007874015748
		},
		{
		  "duration": 0.10714274999999418,
		  "durationTicks": 96,
		  "midi": 64,
		  "name": "E4",
		  "ticks": 86784,
		  "time": 96.85704600000001,
		  "velocity": 0.3937007874015748
		},
		{
		  "duration": 0.10714274999999418,
		  "durationTicks": 96,
		  "midi": 74,
		  "name": "D5",
		  "ticks": 86784,
		  "time": 96.85704600000001,
		  "velocity": 0.3937007874015748
		},
		{
		  "duration": 0.10714275000000839,
		  "durationTicks": 96,
		  "midi": 72,
		  "name": "C5",
		  "ticks": 86880,
		  "time": 96.96418875,
		  "velocity": 0.3937007874015748
		},
		{
		  "duration": 0.10714274999999418,
		  "durationTicks": 96,
		  "midi": 60,
		  "name": "C4",
		  "ticks": 86976,
		  "time": 97.07133150000001,
		  "velocity": 0.3937007874015748
		},
		{
		  "duration": 0.10714274999999418,
		  "durationTicks": 96,
		  "midi": 64,
		  "name": "E4",
		  "ticks": 86976,
		  "time": 97.07133150000001,
		  "velocity": 0.3937007874015748
		},
		{
		  "duration": 0.10714274999999418,
		  "durationTicks": 96,
		  "midi": 71,
		  "name": "B4",
		  "ticks": 86976,
		  "time": 97.07133150000001,
		  "velocity": 0.3937007874015748
		},
		{
		  "duration": 0.10714274999999418,
		  "durationTicks": 96,
		  "midi": 72,
		  "name": "C5",
		  "ticks": 87072,
		  "time": 97.17847425000001,
		  "velocity": 0.3937007874015748
		},
		{
		  "duration": 0.10714275000000839,
		  "durationTicks": 96,
		  "midi": 57,
		  "name": "A3",
		  "ticks": 87168,
		  "time": 97.285617,
		  "velocity": 0.3937007874015748
		},
		{
		  "duration": 0.10714275000000839,
		  "durationTicks": 96,
		  "midi": 76,
		  "name": "E5",
		  "ticks": 87168,
		  "time": 97.285617,
		  "velocity": 0.3937007874015748
		},
		{
		  "duration": 0.10714275000000839,
		  "durationTicks": 96,
		  "midi": 60,
		  "name": "C4",
		  "ticks": 87360,
		  "time": 97.4999025,
		  "velocity": 0.3937007874015748
		},
		{
		  "duration": 0.10714275000000839,
		  "durationTicks": 96,
		  "midi": 64,
		  "name": "E4",
		  "ticks": 87360,
		  "time": 97.4999025,
		  "velocity": 0.3937007874015748
		},
		{
		  "duration": 0.10714274999999418,
		  "durationTicks": 96,
		  "midi": 60,
		  "name": "C4",
		  "ticks": 87552,
		  "time": 97.71418800000001,
		  "velocity": 0.3937007874015748
		},
		{
		  "duration": 0.10714274999999418,
		  "durationTicks": 96,
		  "midi": 64,
		  "name": "E4",
		  "ticks": 87552,
		  "time": 97.71418800000001,
		  "velocity": 0.3937007874015748
		},
		{
		  "duration": 0.10714274999999418,
		  "durationTicks": 96,
		  "midi": 77,
		  "name": "F5",
		  "ticks": 87552,
		  "time": 97.71418800000001,
		  "velocity": 0.3937007874015748
		},
		{
		  "duration": 0.10714275000000839,
		  "durationTicks": 96,
		  "midi": 76,
		  "name": "E5",
		  "ticks": 87648,
		  "time": 97.82133075,
		  "velocity": 0.3937007874015748
		},
		{
		  "duration": 0.10714274999999418,
		  "durationTicks": 96,
		  "midi": 60,
		  "name": "C4",
		  "ticks": 87744,
		  "time": 97.92847350000001,
		  "velocity": 0.3937007874015748
		},
		{
		  "duration": 0.10714274999999418,
		  "durationTicks": 96,
		  "midi": 64,
		  "name": "E4",
		  "ticks": 87744,
		  "time": 97.92847350000001,
		  "velocity": 0.3937007874015748
		},
		{
		  "duration": 0.10714274999999418,
		  "durationTicks": 96,
		  "midi": 75,
		  "name": "D#5",
		  "ticks": 87744,
		  "time": 97.92847350000001,
		  "velocity": 0.3937007874015748
		},
		{
		  "duration": 0.10714275000000839,
		  "durationTicks": 96,
		  "midi": 76,
		  "name": "E5",
		  "ticks": 87840,
		  "time": 98.03561625,
		  "velocity": 0.3937007874015748
		},
		{
		  "duration": 0.10714274999999418,
		  "durationTicks": 96,
		  "midi": 57,
		  "name": "A3",
		  "ticks": 87936,
		  "time": 98.14275900000001,
		  "velocity": 0.3937007874015748
		},
		{
		  "duration": 0.10714274999999418,
		  "durationTicks": 96,
		  "midi": 83,
		  "name": "B5",
		  "ticks": 87936,
		  "time": 98.14275900000001,
		  "velocity": 0.3937007874015748
		},
		{
		  "duration": 0.10714275000000839,
		  "durationTicks": 96,
		  "midi": 81,
		  "name": "A5",
		  "ticks": 88032,
		  "time": 98.24990175,
		  "velocity": 0.3937007874015748
		},
		{
		  "duration": 0.10714274999999418,
		  "durationTicks": 96,
		  "midi": 60,
		  "name": "C4",
		  "ticks": 88128,
		  "time": 98.35704450000001,
		  "velocity": 0.3937007874015748
		},
		{
		  "duration": 0.10714274999999418,
		  "durationTicks": 96,
		  "midi": 64,
		  "name": "E4",
		  "ticks": 88128,
		  "time": 98.35704450000001,
		  "velocity": 0.3937007874015748
		},
		{
		  "duration": 0.10714274999999418,
		  "durationTicks": 96,
		  "midi": 80,
		  "name": "G#5",
		  "ticks": 88128,
		  "time": 98.35704450000001,
		  "velocity": 0.3937007874015748
		},
		{
		  "duration": 0.10714274999999418,
		  "durationTicks": 96,
		  "midi": 81,
		  "name": "A5",
		  "ticks": 88224,
		  "time": 98.46418725000001,
		  "velocity": 0.3937007874015748
		},
		{
		  "duration": 0.10714275000000839,
		  "durationTicks": 96,
		  "midi": 57,
		  "name": "A3",
		  "ticks": 88320,
		  "time": 98.57133,
		  "velocity": 0.3937007874015748
		},
		{
		  "duration": 0.10714275000000839,
		  "durationTicks": 96,
		  "midi": 83,
		  "name": "B5",
		  "ticks": 88320,
		  "time": 98.57133,
		  "velocity": 0.3937007874015748
		},
		{
		  "duration": 0.10714274999999418,
		  "durationTicks": 96,
		  "midi": 81,
		  "name": "A5",
		  "ticks": 88416,
		  "time": 98.67847275000001,
		  "velocity": 0.3937007874015748
		},
		{
		  "duration": 0.10714275000000839,
		  "durationTicks": 96,
		  "midi": 60,
		  "name": "C4",
		  "ticks": 88512,
		  "time": 98.7856155,
		  "velocity": 0.3937007874015748
		},
		{
		  "duration": 0.10714275000000839,
		  "durationTicks": 96,
		  "midi": 64,
		  "name": "E4",
		  "ticks": 88512,
		  "time": 98.7856155,
		  "velocity": 0.3937007874015748
		},
		{
		  "duration": 0.10714275000000839,
		  "durationTicks": 96,
		  "midi": 80,
		  "name": "G#5",
		  "ticks": 88512,
		  "time": 98.7856155,
		  "velocity": 0.3937007874015748
		},
		{
		  "duration": 0.10714274999999418,
		  "durationTicks": 96,
		  "midi": 81,
		  "name": "A5",
		  "ticks": 88608,
		  "time": 98.89275825000001,
		  "velocity": 0.3937007874015748
		},
		{
		  "duration": 0.10714274999999418,
		  "durationTicks": 96,
		  "midi": 57,
		  "name": "A3",
		  "ticks": 88704,
		  "time": 98.99990100000001,
		  "velocity": 0.3937007874015748
		},
		{
		  "duration": 0.10714274999999418,
		  "durationTicks": 96,
		  "midi": 84,
		  "name": "C6",
		  "ticks": 88704,
		  "time": 98.99990100000001,
		  "velocity": 0.3937007874015748
		},
		{
		  "duration": 0.10714274999999418,
		  "durationTicks": 96,
		  "midi": 60,
		  "name": "C4",
		  "ticks": 88896,
		  "time": 99.21418650000001,
		  "velocity": 0.3937007874015748
		},
		{
		  "duration": 0.10714274999999418,
		  "durationTicks": 96,
		  "midi": 64,
		  "name": "E4",
		  "ticks": 88896,
		  "time": 99.21418650000001,
		  "velocity": 0.3937007874015748
		},
		{
		  "duration": 0.10714274999999418,
		  "durationTicks": 96,
		  "midi": 64,
		  "name": "E4",
		  "ticks": 89088,
		  "time": 99.42847200000001,
		  "velocity": 0.3937007874015748
		},
		{
		  "duration": 0.10714274999999418,
		  "durationTicks": 96,
		  "midi": 60,
		  "name": "C4",
		  "ticks": 89088,
		  "time": 99.42847200000001,
		  "velocity": 0.3937007874015748
		},
		{
		  "duration": 0.10714274999999418,
		  "durationTicks": 96,
		  "midi": 81,
		  "name": "A5",
		  "ticks": 89088,
		  "time": 99.42847200000001,
		  "velocity": 0.3937007874015748
		},
		{
		  "duration": 0.10714275000000839,
		  "durationTicks": 96,
		  "midi": 64,
		  "name": "E4",
		  "ticks": 89280,
		  "time": 99.6427575,
		  "velocity": 0.3937007874015748
		},
		{
		  "duration": 0.10714275000000839,
		  "durationTicks": 96,
		  "midi": 60,
		  "name": "C4",
		  "ticks": 89280,
		  "time": 99.6427575,
		  "velocity": 0.3937007874015748
		},
		{
		  "duration": 0.10714275000000839,
		  "durationTicks": 96,
		  "midi": 84,
		  "name": "C6",
		  "ticks": 89280,
		  "time": 99.6427575,
		  "velocity": 0.3937007874015748
		},
		{
		  "duration": 0.053571375000004195,
		  "durationTicks": 48,
		  "midi": 79,
		  "name": "G5",
		  "ticks": 89472,
		  "time": 99.857043,
		  "velocity": 0.3937007874015748
		},
		{
		  "duration": 0.10714275000000839,
		  "durationTicks": 96,
		  "midi": 52,
		  "name": "E3",
		  "ticks": 89472,
		  "time": 99.857043,
		  "velocity": 0.3937007874015748
		},
		{
		  "duration": 0.053571375000004195,
		  "durationTicks": 48,
		  "midi": 81,
		  "name": "A5",
		  "ticks": 89520,
		  "time": 99.91061437500001,
		  "velocity": 0.3937007874015748
		},
		{
		  "duration": 0.053571374999989985,
		  "durationTicks": 48,
		  "midi": 83,
		  "name": "B5",
		  "ticks": 89568,
		  "time": 99.96418575000001,
		  "velocity": 0.3937007874015748
		},
		{
		  "duration": 0.10714274999999418,
		  "durationTicks": 96,
		  "midi": 59,
		  "name": "B3",
		  "ticks": 89664,
		  "time": 100.0713285,
		  "velocity": 0.3937007874015748
		},
		{
		  "duration": 0.10714274999999418,
		  "durationTicks": 96,
		  "midi": 64,
		  "name": "E4",
		  "ticks": 89664,
		  "time": 100.0713285,
		  "velocity": 0.3937007874015748
		},
		{
		  "duration": 0.10714274999999418,
		  "durationTicks": 96,
		  "midi": 78,
		  "name": "F#5",
		  "ticks": 89664,
		  "time": 100.0713285,
		  "velocity": 0.3937007874015748
		},
		{
		  "duration": 0.10714274999999418,
		  "durationTicks": 96,
		  "midi": 81,
		  "name": "A5",
		  "ticks": 89664,
		  "time": 100.0713285,
		  "velocity": 0.3937007874015748
		},
		{
		  "duration": 0.10714274999999418,
		  "durationTicks": 96,
		  "midi": 64,
		  "name": "E4",
		  "ticks": 89856,
		  "time": 100.28561400000001,
		  "velocity": 0.3937007874015748
		},
		{
		  "duration": 0.10714274999999418,
		  "durationTicks": 96,
		  "midi": 59,
		  "name": "B3",
		  "ticks": 89856,
		  "time": 100.28561400000001,
		  "velocity": 0.3937007874015748
		},
		{
		  "duration": 0.10714274999999418,
		  "durationTicks": 96,
		  "midi": 76,
		  "name": "E5",
		  "ticks": 89856,
		  "time": 100.28561400000001,
		  "velocity": 0.3937007874015748
		},
		{
		  "duration": 0.10714274999999418,
		  "durationTicks": 96,
		  "midi": 79,
		  "name": "G5",
		  "ticks": 89856,
		  "time": 100.28561400000001,
		  "velocity": 0.3937007874015748
		},
		{
		  "duration": 0.10714274999999418,
		  "durationTicks": 96,
		  "midi": 64,
		  "name": "E4",
		  "ticks": 90048,
		  "time": 100.49989950000001,
		  "velocity": 0.3937007874015748
		},
		{
		  "duration": 0.10714274999999418,
		  "durationTicks": 96,
		  "midi": 59,
		  "name": "B3",
		  "ticks": 90048,
		  "time": 100.49989950000001,
		  "velocity": 0.3937007874015748
		},
		{
		  "duration": 0.10714274999999418,
		  "durationTicks": 96,
		  "midi": 78,
		  "name": "F#5",
		  "ticks": 90048,
		  "time": 100.49989950000001,
		  "velocity": 0.3937007874015748
		},
		{
		  "duration": 0.10714274999999418,
		  "durationTicks": 96,
		  "midi": 81,
		  "name": "A5",
		  "ticks": 90048,
		  "time": 100.49989950000001,
		  "velocity": 0.3937007874015748
		},
		{
		  "duration": 0.10714274999999418,
		  "durationTicks": 96,
		  "midi": 52,
		  "name": "E3",
		  "ticks": 90240,
		  "time": 100.71418500000001,
		  "velocity": 0.3937007874015748
		},
		{
		  "duration": 0.053571374999989985,
		  "durationTicks": 48,
		  "midi": 79,
		  "name": "G5",
		  "ticks": 90240,
		  "time": 100.71418500000001,
		  "velocity": 0.3937007874015748
		},
		{
		  "duration": 0.053571375000004195,
		  "durationTicks": 48,
		  "midi": 81,
		  "name": "A5",
		  "ticks": 90288,
		  "time": 100.767756375,
		  "velocity": 0.3937007874015748
		},
		{
		  "duration": 0.053571375000004195,
		  "durationTicks": 48,
		  "midi": 83,
		  "name": "B5",
		  "ticks": 90336,
		  "time": 100.82132775000001,
		  "velocity": 0.3937007874015748
		},
		{
		  "duration": 0.10714275000000839,
		  "durationTicks": 96,
		  "midi": 59,
		  "name": "B3",
		  "ticks": 90432,
		  "time": 100.9284705,
		  "velocity": 0.3937007874015748
		},
		{
		  "duration": 0.10714275000000839,
		  "durationTicks": 96,
		  "midi": 64,
		  "name": "E4",
		  "ticks": 90432,
		  "time": 100.9284705,
		  "velocity": 0.3937007874015748
		},
		{
		  "duration": 0.10714275000000839,
		  "durationTicks": 96,
		  "midi": 78,
		  "name": "F#5",
		  "ticks": 90432,
		  "time": 100.9284705,
		  "velocity": 0.3937007874015748
		},
		{
		  "duration": 0.10714275000000839,
		  "durationTicks": 96,
		  "midi": 81,
		  "name": "A5",
		  "ticks": 90432,
		  "time": 100.9284705,
		  "velocity": 0.3937007874015748
		},
		{
		  "duration": 0.10714275000000839,
		  "durationTicks": 96,
		  "midi": 59,
		  "name": "B3",
		  "ticks": 90624,
		  "time": 101.142756,
		  "velocity": 0.3937007874015748
		},
		{
		  "duration": 0.10714275000000839,
		  "durationTicks": 96,
		  "midi": 64,
		  "name": "E4",
		  "ticks": 90624,
		  "time": 101.142756,
		  "velocity": 0.3937007874015748
		},
		{
		  "duration": 0.10714275000000839,
		  "durationTicks": 96,
		  "midi": 76,
		  "name": "E5",
		  "ticks": 90624,
		  "time": 101.142756,
		  "velocity": 0.3937007874015748
		},
		{
		  "duration": 0.10714275000000839,
		  "durationTicks": 96,
		  "midi": 79,
		  "name": "G5",
		  "ticks": 90624,
		  "time": 101.142756,
		  "velocity": 0.3937007874015748
		},
		{
		  "duration": 0.10714274999999418,
		  "durationTicks": 96,
		  "midi": 59,
		  "name": "B3",
		  "ticks": 90816,
		  "time": 101.35704150000001,
		  "velocity": 0.3937007874015748
		},
		{
		  "duration": 0.10714274999999418,
		  "durationTicks": 96,
		  "midi": 64,
		  "name": "E4",
		  "ticks": 90816,
		  "time": 101.35704150000001,
		  "velocity": 0.3937007874015748
		},
		{
		  "duration": 0.10714274999999418,
		  "durationTicks": 96,
		  "midi": 78,
		  "name": "F#5",
		  "ticks": 90816,
		  "time": 101.35704150000001,
		  "velocity": 0.3937007874015748
		},
		{
		  "duration": 0.10714274999999418,
		  "durationTicks": 96,
		  "midi": 81,
		  "name": "A5",
		  "ticks": 90816,
		  "time": 101.35704150000001,
		  "velocity": 0.3937007874015748
		},
		{
		  "duration": 0.10714274999999418,
		  "durationTicks": 96,
		  "midi": 52,
		  "name": "E3",
		  "ticks": 91008,
		  "time": 101.57132700000001,
		  "velocity": 0.3937007874015748
		},
		{
		  "duration": 0.053571375000004195,
		  "durationTicks": 48,
		  "midi": 79,
		  "name": "G5",
		  "ticks": 91008,
		  "time": 101.57132700000001,
		  "velocity": 0.3937007874015748
		},
		{
		  "duration": 0.053571374999989985,
		  "durationTicks": 48,
		  "midi": 81,
		  "name": "A5",
		  "ticks": 91056,
		  "time": 101.62489837500001,
		  "velocity": 0.3937007874015748
		},
		{
		  "duration": 0.053571375000004195,
		  "durationTicks": 48,
		  "midi": 83,
		  "name": "B5",
		  "ticks": 91104,
		  "time": 101.67846975,
		  "velocity": 0.3937007874015748
		},
		{
		  "duration": 0.10714274999999418,
		  "durationTicks": 96,
		  "midi": 59,
		  "name": "B3",
		  "ticks": 91200,
		  "time": 101.78561250000001,
		  "velocity": 0.3937007874015748
		},
		{
		  "duration": 0.10714274999999418,
		  "durationTicks": 96,
		  "midi": 64,
		  "name": "E4",
		  "ticks": 91200,
		  "time": 101.78561250000001,
		  "velocity": 0.3937007874015748
		},
		{
		  "duration": 0.10714274999999418,
		  "durationTicks": 96,
		  "midi": 78,
		  "name": "F#5",
		  "ticks": 91200,
		  "time": 101.78561250000001,
		  "velocity": 0.3937007874015748
		},
		{
		  "duration": 0.10714274999999418,
		  "durationTicks": 96,
		  "midi": 81,
		  "name": "A5",
		  "ticks": 91200,
		  "time": 101.78561250000001,
		  "velocity": 0.3937007874015748
		},
		{
		  "duration": 0.10714275000000839,
		  "durationTicks": 96,
		  "midi": 47,
		  "name": "B2",
		  "ticks": 91392,
		  "time": 101.999898,
		  "velocity": 0.3937007874015748
		},
		{
		  "duration": 0.10714275000000839,
		  "durationTicks": 96,
		  "midi": 76,
		  "name": "E5",
		  "ticks": 91392,
		  "time": 101.999898,
		  "velocity": 0.3937007874015748
		},
		{
		  "duration": 0.10714275000000839,
		  "durationTicks": 96,
		  "midi": 79,
		  "name": "G5",
		  "ticks": 91392,
		  "time": 101.999898,
		  "velocity": 0.3937007874015748
		},
		{
		  "duration": 0.10714275000000839,
		  "durationTicks": 96,
		  "midi": 59,
		  "name": "B3",
		  "ticks": 91584,
		  "time": 102.2141835,
		  "velocity": 0.3937007874015748
		},
		{
		  "duration": 0.10714275000000839,
		  "durationTicks": 96,
		  "midi": 75,
		  "name": "D#5",
		  "ticks": 91584,
		  "time": 102.2141835,
		  "velocity": 0.3937007874015748
		},
		{
		  "duration": 0.10714275000000839,
		  "durationTicks": 96,
		  "midi": 78,
		  "name": "F#5",
		  "ticks": 91584,
		  "time": 102.2141835,
		  "velocity": 0.3937007874015748
		},
		{
		  "duration": 0.10714275000000839,
		  "durationTicks": 96,
		  "midi": 52,
		  "name": "E3",
		  "ticks": 91776,
		  "time": 102.428469,
		  "velocity": 0.3937007874015748
		},
		{
		  "duration": 0.10714275000000839,
		  "durationTicks": 96,
		  "midi": 76,
		  "name": "E5",
		  "ticks": 91776,
		  "time": 102.428469,
		  "velocity": 0.3937007874015748
		},
		{
		  "duration": 0.10714274999999418,
		  "durationTicks": 96,
		  "midi": 71,
		  "name": "B4",
		  "ticks": 92160,
		  "time": 102.85704000000001,
		  "velocity": 0.3937007874015748
		},
		{
		  "duration": 0.10714275000000839,
		  "durationTicks": 96,
		  "midi": 69,
		  "name": "A4",
		  "ticks": 92256,
		  "time": 102.96418275,
		  "velocity": 0.3937007874015748
		},
		{
		  "duration": 0.10714274999999418,
		  "durationTicks": 96,
		  "midi": 68,
		  "name": "G#4",
		  "ticks": 92352,
		  "time": 103.07132550000001,
		  "velocity": 0.3937007874015748
		},
		{
		  "duration": 0.10714274999999418,
		  "durationTicks": 96,
		  "midi": 69,
		  "name": "A4",
		  "ticks": 92448,
		  "time": 103.17846825000001,
		  "velocity": 0.3937007874015748
		},
		{
		  "duration": 0.10714275000000839,
		  "durationTicks": 96,
		  "midi": 72,
		  "name": "C5",
		  "ticks": 92544,
		  "time": 103.285611,
		  "velocity": 0.3937007874015748
		},
		{
		  "duration": 0.10714275000000839,
		  "durationTicks": 96,
		  "midi": 57,
		  "name": "A3",
		  "ticks": 92544,
		  "time": 103.285611,
		  "velocity": 0.3937007874015748
		},
		{
		  "duration": 0.10714275000000839,
		  "durationTicks": 96,
		  "midi": 60,
		  "name": "C4",
		  "ticks": 92736,
		  "time": 103.4998965,
		  "velocity": 0.3937007874015748
		},
		{
		  "duration": 0.10714275000000839,
		  "durationTicks": 96,
		  "midi": 64,
		  "name": "E4",
		  "ticks": 92736,
		  "time": 103.4998965,
		  "velocity": 0.3937007874015748
		},
		{
		  "duration": 0.10714274999999418,
		  "durationTicks": 96,
		  "midi": 64,
		  "name": "E4",
		  "ticks": 92928,
		  "time": 103.71418200000001,
		  "velocity": 0.3937007874015748
		},
		{
		  "duration": 0.10714274999999418,
		  "durationTicks": 96,
		  "midi": 60,
		  "name": "C4",
		  "ticks": 92928,
		  "time": 103.71418200000001,
		  "velocity": 0.3937007874015748
		},
		{
		  "duration": 0.10714274999999418,
		  "durationTicks": 96,
		  "midi": 74,
		  "name": "D5",
		  "ticks": 92928,
		  "time": 103.71418200000001,
		  "velocity": 0.3937007874015748
		},
		{
		  "duration": 0.10714275000000839,
		  "durationTicks": 96,
		  "midi": 72,
		  "name": "C5",
		  "ticks": 93024,
		  "time": 103.82132475,
		  "velocity": 0.3937007874015748
		},
		{
		  "duration": 0.10714274999999418,
		  "durationTicks": 96,
		  "midi": 60,
		  "name": "C4",
		  "ticks": 93120,
		  "time": 103.92846750000001,
		  "velocity": 0.3937007874015748
		},
		{
		  "duration": 0.10714274999999418,
		  "durationTicks": 96,
		  "midi": 64,
		  "name": "E4",
		  "ticks": 93120,
		  "time": 103.92846750000001,
		  "velocity": 0.3937007874015748
		},
		{
		  "duration": 0.10714274999999418,
		  "durationTicks": 96,
		  "midi": 71,
		  "name": "B4",
		  "ticks": 93120,
		  "time": 103.92846750000001,
		  "velocity": 0.3937007874015748
		},
		{
		  "duration": 0.10714275000000839,
		  "durationTicks": 96,
		  "midi": 72,
		  "name": "C5",
		  "ticks": 93216,
		  "time": 104.03561025,
		  "velocity": 0.3937007874015748
		},
		{
		  "duration": 0.10714274999999418,
		  "durationTicks": 96,
		  "midi": 76,
		  "name": "E5",
		  "ticks": 93312,
		  "time": 104.14275300000001,
		  "velocity": 0.3937007874015748
		},
		{
		  "duration": 0.10714274999999418,
		  "durationTicks": 96,
		  "midi": 57,
		  "name": "A3",
		  "ticks": 93312,
		  "time": 104.14275300000001,
		  "velocity": 0.3937007874015748
		},
		{
		  "duration": 0.10714275000000839,
		  "durationTicks": 96,
		  "midi": 60,
		  "name": "C4",
		  "ticks": 93504,
		  "time": 104.3570385,
		  "velocity": 0.3937007874015748
		},
		{
		  "duration": 0.10714275000000839,
		  "durationTicks": 96,
		  "midi": 64,
		  "name": "E4",
		  "ticks": 93504,
		  "time": 104.3570385,
		  "velocity": 0.3937007874015748
		},
		{
		  "duration": 0.10714275000000839,
		  "durationTicks": 96,
		  "midi": 64,
		  "name": "E4",
		  "ticks": 93696,
		  "time": 104.571324,
		  "velocity": 0.3937007874015748
		},
		{
		  "duration": 0.10714275000000839,
		  "durationTicks": 96,
		  "midi": 60,
		  "name": "C4",
		  "ticks": 93696,
		  "time": 104.571324,
		  "velocity": 0.3937007874015748
		},
		{
		  "duration": 0.10714275000000839,
		  "durationTicks": 96,
		  "midi": 77,
		  "name": "F5",
		  "ticks": 93696,
		  "time": 104.571324,
		  "velocity": 0.3937007874015748
		},
		{
		  "duration": 0.10714274999999418,
		  "durationTicks": 96,
		  "midi": 76,
		  "name": "E5",
		  "ticks": 93792,
		  "time": 104.67846675000001,
		  "velocity": 0.3937007874015748
		},
		{
		  "duration": 0.10714275000000839,
		  "durationTicks": 96,
		  "midi": 64,
		  "name": "E4",
		  "ticks": 93888,
		  "time": 104.7856095,
		  "velocity": 0.3937007874015748
		},
		{
		  "duration": 0.10714275000000839,
		  "durationTicks": 96,
		  "midi": 60,
		  "name": "C4",
		  "ticks": 93888,
		  "time": 104.7856095,
		  "velocity": 0.3937007874015748
		},
		{
		  "duration": 0.10714275000000839,
		  "durationTicks": 96,
		  "midi": 75,
		  "name": "D#5",
		  "ticks": 93888,
		  "time": 104.7856095,
		  "velocity": 0.3937007874015748
		},
		{
		  "duration": 0.10714274999999418,
		  "durationTicks": 96,
		  "midi": 76,
		  "name": "E5",
		  "ticks": 93984,
		  "time": 104.89275225000002,
		  "velocity": 0.3937007874015748
		},
		{
		  "duration": 0.10714274999999418,
		  "durationTicks": 96,
		  "midi": 83,
		  "name": "B5",
		  "ticks": 94080,
		  "time": 104.99989500000001,
		  "velocity": 0.3937007874015748
		},
		{
		  "duration": 0.10714274999999418,
		  "durationTicks": 96,
		  "midi": 57,
		  "name": "A3",
		  "ticks": 94080,
		  "time": 104.99989500000001,
		  "velocity": 0.3937007874015748
		},
		{
		  "duration": 0.10714275000000839,
		  "durationTicks": 96,
		  "midi": 81,
		  "name": "A5",
		  "ticks": 94176,
		  "time": 105.10703775,
		  "velocity": 0.3937007874015748
		},
		{
		  "duration": 0.10714274999999418,
		  "durationTicks": 96,
		  "midi": 80,
		  "name": "G#5",
		  "ticks": 94272,
		  "time": 105.21418050000001,
		  "velocity": 0.3937007874015748
		},
		{
		  "duration": 0.10714274999999418,
		  "durationTicks": 96,
		  "midi": 60,
		  "name": "C4",
		  "ticks": 94272,
		  "time": 105.21418050000001,
		  "velocity": 0.3937007874015748
		},
		{
		  "duration": 0.10714274999999418,
		  "durationTicks": 96,
		  "midi": 64,
		  "name": "E4",
		  "ticks": 94272,
		  "time": 105.21418050000001,
		  "velocity": 0.3937007874015748
		},
		{
		  "duration": 0.10714275000000839,
		  "durationTicks": 96,
		  "midi": 81,
		  "name": "A5",
		  "ticks": 94368,
		  "time": 105.32132325,
		  "velocity": 0.3937007874015748
		},
		{
		  "duration": 0.10714274999999418,
		  "durationTicks": 96,
		  "midi": 83,
		  "name": "B5",
		  "ticks": 94464,
		  "time": 105.42846600000001,
		  "velocity": 0.3937007874015748
		},
		{
		  "duration": 0.10714274999999418,
		  "durationTicks": 96,
		  "midi": 57,
		  "name": "A3",
		  "ticks": 94464,
		  "time": 105.42846600000001,
		  "velocity": 0.3937007874015748
		},
		{
		  "duration": 0.10714274999999418,
		  "durationTicks": 96,
		  "midi": 81,
		  "name": "A5",
		  "ticks": 94560,
		  "time": 105.53560875000001,
		  "velocity": 0.3937007874015748
		},
		{
		  "duration": 0.10714275000000839,
		  "durationTicks": 96,
		  "midi": 80,
		  "name": "G#5",
		  "ticks": 94656,
		  "time": 105.6427515,
		  "velocity": 0.3937007874015748
		},
		{
		  "duration": 0.10714275000000839,
		  "durationTicks": 96,
		  "midi": 60,
		  "name": "C4",
		  "ticks": 94656,
		  "time": 105.6427515,
		  "velocity": 0.3937007874015748
		},
		{
		  "duration": 0.10714275000000839,
		  "durationTicks": 96,
		  "midi": 64,
		  "name": "E4",
		  "ticks": 94656,
		  "time": 105.6427515,
		  "velocity": 0.3937007874015748
		},
		{
		  "duration": 0.10714274999999418,
		  "durationTicks": 96,
		  "midi": 81,
		  "name": "A5",
		  "ticks": 94752,
		  "time": 105.74989425000001,
		  "velocity": 0.3937007874015748
		},
		{
		  "duration": 0.10714275000000839,
		  "durationTicks": 96,
		  "midi": 84,
		  "name": "C6",
		  "ticks": 94848,
		  "time": 105.857037,
		  "velocity": 0.3937007874015748
		},
		{
		  "duration": 0.10714275000000839,
		  "durationTicks": 96,
		  "midi": 57,
		  "name": "A3",
		  "ticks": 94848,
		  "time": 105.857037,
		  "velocity": 0.3937007874015748
		},
		{
		  "duration": 0.10714274999999418,
		  "durationTicks": 96,
		  "midi": 60,
		  "name": "C4",
		  "ticks": 95040,
		  "time": 106.07132250000001,
		  "velocity": 0.3937007874015748
		},
		{
		  "duration": 0.10714274999999418,
		  "durationTicks": 96,
		  "midi": 64,
		  "name": "E4",
		  "ticks": 95040,
		  "time": 106.07132250000001,
		  "velocity": 0.3937007874015748
		},
		{
		  "duration": 0.10714274999999418,
		  "durationTicks": 96,
		  "midi": 64,
		  "name": "E4",
		  "ticks": 95232,
		  "time": 106.28560800000001,
		  "velocity": 0.3937007874015748
		},
		{
		  "duration": 0.10714274999999418,
		  "durationTicks": 96,
		  "midi": 60,
		  "name": "C4",
		  "ticks": 95232,
		  "time": 106.28560800000001,
		  "velocity": 0.3937007874015748
		},
		{
		  "duration": 0.10714274999999418,
		  "durationTicks": 96,
		  "midi": 81,
		  "name": "A5",
		  "ticks": 95232,
		  "time": 106.28560800000001,
		  "velocity": 0.3937007874015748
		},
		{
		  "duration": 0.10714274999999418,
		  "durationTicks": 96,
		  "midi": 64,
		  "name": "E4",
		  "ticks": 95424,
		  "time": 106.49989350000001,
		  "velocity": 0.3937007874015748
		},
		{
		  "duration": 0.10714274999999418,
		  "durationTicks": 96,
		  "midi": 60,
		  "name": "C4",
		  "ticks": 95424,
		  "time": 106.49989350000001,
		  "velocity": 0.3937007874015748
		},
		{
		  "duration": 0.10714274999999418,
		  "durationTicks": 96,
		  "midi": 84,
		  "name": "C6",
		  "ticks": 95424,
		  "time": 106.49989350000001,
		  "velocity": 0.3937007874015748
		},
		{
		  "duration": 0.053571374999989985,
		  "durationTicks": 48,
		  "midi": 79,
		  "name": "G5",
		  "ticks": 95616,
		  "time": 106.71417900000002,
		  "velocity": 0.3937007874015748
		},
		{
		  "duration": 0.10714274999999418,
		  "durationTicks": 96,
		  "midi": 52,
		  "name": "E3",
		  "ticks": 95616,
		  "time": 106.71417900000002,
		  "velocity": 0.3937007874015748
		},
		{
		  "duration": 0.053571375000004195,
		  "durationTicks": 48,
		  "midi": 81,
		  "name": "A5",
		  "ticks": 95664,
		  "time": 106.767750375,
		  "velocity": 0.3937007874015748
		},
		{
		  "duration": 0.053571375000004195,
		  "durationTicks": 48,
		  "midi": 83,
		  "name": "B5",
		  "ticks": 95712,
		  "time": 106.82132175000001,
		  "velocity": 0.3937007874015748
		},
		{
		  "duration": 0.10714275000000839,
		  "durationTicks": 96,
		  "midi": 59,
		  "name": "B3",
		  "ticks": 95808,
		  "time": 106.9284645,
		  "velocity": 0.3937007874015748
		},
		{
		  "duration": 0.10714275000000839,
		  "durationTicks": 96,
		  "midi": 64,
		  "name": "E4",
		  "ticks": 95808,
		  "time": 106.9284645,
		  "velocity": 0.3937007874015748
		},
		{
		  "duration": 0.10714275000000839,
		  "durationTicks": 96,
		  "midi": 78,
		  "name": "F#5",
		  "ticks": 95808,
		  "time": 106.9284645,
		  "velocity": 0.3937007874015748
		},
		{
		  "duration": 0.10714275000000839,
		  "durationTicks": 96,
		  "midi": 81,
		  "name": "A5",
		  "ticks": 95808,
		  "time": 106.9284645,
		  "velocity": 0.3937007874015748
		},
		{
		  "duration": 0.10714275000000839,
		  "durationTicks": 96,
		  "midi": 64,
		  "name": "E4",
		  "ticks": 96000,
		  "time": 107.14275,
		  "velocity": 0.3937007874015748
		},
		{
		  "duration": 0.10714275000000839,
		  "durationTicks": 96,
		  "midi": 59,
		  "name": "B3",
		  "ticks": 96000,
		  "time": 107.14275,
		  "velocity": 0.3937007874015748
		},
		{
		  "duration": 0.10714275000000839,
		  "durationTicks": 96,
		  "midi": 76,
		  "name": "E5",
		  "ticks": 96000,
		  "time": 107.14275,
		  "velocity": 0.3937007874015748
		},
		{
		  "duration": 0.10714275000000839,
		  "durationTicks": 96,
		  "midi": 79,
		  "name": "G5",
		  "ticks": 96000,
		  "time": 107.14275,
		  "velocity": 0.3937007874015748
		},
		{
		  "duration": 0.10714274999999418,
		  "durationTicks": 96,
		  "midi": 64,
		  "name": "E4",
		  "ticks": 96192,
		  "time": 107.35703550000001,
		  "velocity": 0.3937007874015748
		},
		{
		  "duration": 0.10714274999999418,
		  "durationTicks": 96,
		  "midi": 59,
		  "name": "B3",
		  "ticks": 96192,
		  "time": 107.35703550000001,
		  "velocity": 0.3937007874015748
		},
		{
		  "duration": 0.10714274999999418,
		  "durationTicks": 96,
		  "midi": 78,
		  "name": "F#5",
		  "ticks": 96192,
		  "time": 107.35703550000001,
		  "velocity": 0.3937007874015748
		},
		{
		  "duration": 0.10714274999999418,
		  "durationTicks": 96,
		  "midi": 81,
		  "name": "A5",
		  "ticks": 96192,
		  "time": 107.35703550000001,
		  "velocity": 0.3937007874015748
		},
		{
		  "duration": 0.10714274999999418,
		  "durationTicks": 96,
		  "midi": 52,
		  "name": "E3",
		  "ticks": 96384,
		  "time": 107.57132100000001,
		  "velocity": 0.3937007874015748
		},
		{
		  "duration": 0.053571375000004195,
		  "durationTicks": 48,
		  "midi": 79,
		  "name": "G5",
		  "ticks": 96384,
		  "time": 107.57132100000001,
		  "velocity": 0.3937007874015748
		},
		{
		  "duration": 0.053571374999989985,
		  "durationTicks": 48,
		  "midi": 81,
		  "name": "A5",
		  "ticks": 96432,
		  "time": 107.62489237500002,
		  "velocity": 0.3937007874015748
		},
		{
		  "duration": 0.053571375000004195,
		  "durationTicks": 48,
		  "midi": 83,
		  "name": "B5",
		  "ticks": 96480,
		  "time": 107.67846375,
		  "velocity": 0.3937007874015748
		},
		{
		  "duration": 0.10714274999999418,
		  "durationTicks": 96,
		  "midi": 59,
		  "name": "B3",
		  "ticks": 96576,
		  "time": 107.78560650000001,
		  "velocity": 0.3937007874015748
		},
		{
		  "duration": 0.10714274999999418,
		  "durationTicks": 96,
		  "midi": 64,
		  "name": "E4",
		  "ticks": 96576,
		  "time": 107.78560650000001,
		  "velocity": 0.3937007874015748
		},
		{
		  "duration": 0.10714274999999418,
		  "durationTicks": 96,
		  "midi": 78,
		  "name": "F#5",
		  "ticks": 96576,
		  "time": 107.78560650000001,
		  "velocity": 0.3937007874015748
		},
		{
		  "duration": 0.10714274999999418,
		  "durationTicks": 96,
		  "midi": 81,
		  "name": "A5",
		  "ticks": 96576,
		  "time": 107.78560650000001,
		  "velocity": 0.3937007874015748
		},
		{
		  "duration": 0.10714275000000839,
		  "durationTicks": 96,
		  "midi": 59,
		  "name": "B3",
		  "ticks": 96768,
		  "time": 107.999892,
		  "velocity": 0.3937007874015748
		},
		{
		  "duration": 0.10714275000000839,
		  "durationTicks": 96,
		  "midi": 64,
		  "name": "E4",
		  "ticks": 96768,
		  "time": 107.999892,
		  "velocity": 0.3937007874015748
		},
		{
		  "duration": 0.10714275000000839,
		  "durationTicks": 96,
		  "midi": 76,
		  "name": "E5",
		  "ticks": 96768,
		  "time": 107.999892,
		  "velocity": 0.3937007874015748
		},
		{
		  "duration": 0.10714275000000839,
		  "durationTicks": 96,
		  "midi": 79,
		  "name": "G5",
		  "ticks": 96768,
		  "time": 107.999892,
		  "velocity": 0.3937007874015748
		},
		{
		  "duration": 0.10714275000000839,
		  "durationTicks": 96,
		  "midi": 59,
		  "name": "B3",
		  "ticks": 96960,
		  "time": 108.2141775,
		  "velocity": 0.3937007874015748
		},
		{
		  "duration": 0.10714275000000839,
		  "durationTicks": 96,
		  "midi": 64,
		  "name": "E4",
		  "ticks": 96960,
		  "time": 108.2141775,
		  "velocity": 0.3937007874015748
		},
		{
		  "duration": 0.10714275000000839,
		  "durationTicks": 96,
		  "midi": 78,
		  "name": "F#5",
		  "ticks": 96960,
		  "time": 108.2141775,
		  "velocity": 0.3937007874015748
		},
		{
		  "duration": 0.10714275000000839,
		  "durationTicks": 96,
		  "midi": 81,
		  "name": "A5",
		  "ticks": 96960,
		  "time": 108.2141775,
		  "velocity": 0.3937007874015748
		},
		{
		  "duration": 0.10714274999999418,
		  "durationTicks": 96,
		  "midi": 52,
		  "name": "E3",
		  "ticks": 97152,
		  "time": 108.42846300000001,
		  "velocity": 0.3937007874015748
		},
		{
		  "duration": 0.053571375000004195,
		  "durationTicks": 48,
		  "midi": 79,
		  "name": "G5",
		  "ticks": 97152,
		  "time": 108.42846300000001,
		  "velocity": 0.3937007874015748
		},
		{
		  "duration": 0.053571374999989985,
		  "durationTicks": 48,
		  "midi": 81,
		  "name": "A5",
		  "ticks": 97200,
		  "time": 108.48203437500001,
		  "velocity": 0.3937007874015748
		},
		{
		  "duration": 0.053571375000004195,
		  "durationTicks": 48,
		  "midi": 83,
		  "name": "B5",
		  "ticks": 97248,
		  "time": 108.53560575,
		  "velocity": 0.3937007874015748
		},
		{
		  "duration": 0.10714274999999418,
		  "durationTicks": 96,
		  "midi": 59,
		  "name": "B3",
		  "ticks": 97344,
		  "time": 108.64274850000001,
		  "velocity": 0.3937007874015748
		},
		{
		  "duration": 0.10714274999999418,
		  "durationTicks": 96,
		  "midi": 64,
		  "name": "E4",
		  "ticks": 97344,
		  "time": 108.64274850000001,
		  "velocity": 0.3937007874015748
		},
		{
		  "duration": 0.10714274999999418,
		  "durationTicks": 96,
		  "midi": 78,
		  "name": "F#5",
		  "ticks": 97344,
		  "time": 108.64274850000001,
		  "velocity": 0.3937007874015748
		},
		{
		  "duration": 0.10714274999999418,
		  "durationTicks": 96,
		  "midi": 81,
		  "name": "A5",
		  "ticks": 97344,
		  "time": 108.64274850000001,
		  "velocity": 0.3937007874015748
		},
		{
		  "duration": 0.10714274999999418,
		  "durationTicks": 96,
		  "midi": 47,
		  "name": "B2",
		  "ticks": 97536,
		  "time": 108.85703400000001,
		  "velocity": 0.3937007874015748
		},
		{
		  "duration": 0.10714274999999418,
		  "durationTicks": 96,
		  "midi": 76,
		  "name": "E5",
		  "ticks": 97536,
		  "time": 108.85703400000001,
		  "velocity": 0.3937007874015748
		},
		{
		  "duration": 0.10714274999999418,
		  "durationTicks": 96,
		  "midi": 79,
		  "name": "G5",
		  "ticks": 97536,
		  "time": 108.85703400000001,
		  "velocity": 0.3937007874015748
		},
		{
		  "duration": 0.10714274999999418,
		  "durationTicks": 96,
		  "midi": 59,
		  "name": "B3",
		  "ticks": 97728,
		  "time": 109.07131950000002,
		  "velocity": 0.3937007874015748
		},
		{
		  "duration": 0.10714274999999418,
		  "durationTicks": 96,
		  "midi": 75,
		  "name": "D#5",
		  "ticks": 97728,
		  "time": 109.07131950000002,
		  "velocity": 0.3937007874015748
		},
		{
		  "duration": 0.10714274999999418,
		  "durationTicks": 96,
		  "midi": 78,
		  "name": "F#5",
		  "ticks": 97728,
		  "time": 109.07131950000002,
		  "velocity": 0.3937007874015748
		},
		{
		  "duration": 0.10714275000000839,
		  "durationTicks": 96,
		  "midi": 52,
		  "name": "E3",
		  "ticks": 97920,
		  "time": 109.285605,
		  "velocity": 0.3937007874015748
		},
		{
		  "duration": 0.10714275000000839,
		  "durationTicks": 96,
		  "midi": 76,
		  "name": "E5",
		  "ticks": 97920,
		  "time": 109.285605,
		  "velocity": 0.3937007874015748
		},
		{
		  "duration": 0.10714274999999418,
		  "durationTicks": 96,
		  "midi": 72,
		  "name": "C5",
		  "ticks": 98304,
		  "time": 109.71417600000001,
		  "velocity": 0.3937007874015748
		},
		{
		  "duration": 0.10714274999999418,
		  "durationTicks": 96,
		  "midi": 76,
		  "name": "E5",
		  "ticks": 98304,
		  "time": 109.71417600000001,
		  "velocity": 0.3937007874015748
		},
		{
		  "duration": 0.10714274999999418,
		  "durationTicks": 96,
		  "midi": 74,
		  "name": "D5",
		  "ticks": 98496,
		  "time": 109.92846150000001,
		  "velocity": 0.3937007874015748
		},
		{
		  "duration": 0.10714274999999418,
		  "durationTicks": 96,
		  "midi": 77,
		  "name": "F5",
		  "ticks": 98496,
		  "time": 109.92846150000001,
		  "velocity": 0.3937007874015748
		},
		{
		  "duration": 0.10714274999999418,
		  "durationTicks": 96,
		  "midi": 76,
		  "name": "E5",
		  "ticks": 98688,
		  "time": 110.14274700000001,
		  "velocity": 0.3937007874015748
		},
		{
		  "duration": 0.10714274999999418,
		  "durationTicks": 96,
		  "midi": 79,
		  "name": "G5",
		  "ticks": 98688,
		  "time": 110.14274700000001,
		  "velocity": 0.3937007874015748
		},
		{
		  "duration": 0.10714274999999418,
		  "durationTicks": 96,
		  "midi": 48,
		  "name": "C3",
		  "ticks": 98688,
		  "time": 110.14274700000001,
		  "velocity": 0.3937007874015748
		},
		{
		  "duration": 0.10714275000000839,
		  "durationTicks": 96,
		  "midi": 79,
		  "name": "G5",
		  "ticks": 98880,
		  "time": 110.3570325,
		  "velocity": 0.3937007874015748
		},
		{
		  "duration": 0.10714275000000839,
		  "durationTicks": 96,
		  "midi": 76,
		  "name": "E5",
		  "ticks": 98880,
		  "time": 110.3570325,
		  "velocity": 0.3937007874015748
		},
		{
		  "duration": 0.10714275000000839,
		  "durationTicks": 96,
		  "midi": 60,
		  "name": "C4",
		  "ticks": 98880,
		  "time": 110.3570325,
		  "velocity": 0.3937007874015748
		},
		{
		  "duration": 0.10714275000000839,
		  "durationTicks": 96,
		  "midi": 81,
		  "name": "A5",
		  "ticks": 99072,
		  "time": 110.571318,
		  "velocity": 0.3937007874015748
		},
		{
		  "duration": 0.10714275000000839,
		  "durationTicks": 96,
		  "midi": 52,
		  "name": "E3",
		  "ticks": 99072,
		  "time": 110.571318,
		  "velocity": 0.3937007874015748
		},
		{
		  "duration": 0.10714274999999418,
		  "durationTicks": 96,
		  "midi": 79,
		  "name": "G5",
		  "ticks": 99168,
		  "time": 110.67846075000001,
		  "velocity": 0.3937007874015748
		},
		{
		  "duration": 0.10714274999999418,
		  "durationTicks": 96,
		  "midi": 79,
		  "name": "G5",
		  "ticks": 99168,
		  "time": 110.67846075000001,
		  "velocity": 0.3937007874015748
		},
		{
		  "duration": 0.10714275000000839,
		  "durationTicks": 96,
		  "midi": 77,
		  "name": "F5",
		  "ticks": 99264,
		  "time": 110.78560350000001,
		  "velocity": 0.3937007874015748
		},
		{
		  "duration": 0.10714275000000839,
		  "durationTicks": 96,
		  "midi": 64,
		  "name": "E4",
		  "ticks": 99264,
		  "time": 110.78560350000001,
		  "velocity": 0.3937007874015748
		},
		{
		  "duration": 0.10714274999999418,
		  "durationTicks": 96,
		  "midi": 76,
		  "name": "E5",
		  "ticks": 99360,
		  "time": 110.89274625000002,
		  "velocity": 0.3937007874015748
		},
		{
		  "duration": 0.10714274999999418,
		  "durationTicks": 96,
		  "midi": 74,
		  "name": "D5",
		  "ticks": 99456,
		  "time": 110.99988900000001,
		  "velocity": 0.3937007874015748
		},
		{
		  "duration": 0.10714274999999418,
		  "durationTicks": 96,
		  "midi": 71,
		  "name": "B4",
		  "ticks": 99456,
		  "time": 110.99988900000001,
		  "velocity": 0.3937007874015748
		},
		{
		  "duration": 0.10714274999999418,
		  "durationTicks": 96,
		  "midi": 55,
		  "name": "G3",
		  "ticks": 99456,
		  "time": 110.99988900000001,
		  "velocity": 0.3937007874015748
		},
		{
		  "duration": 0.10714274999999418,
		  "durationTicks": 96,
		  "midi": 67,
		  "name": "G4",
		  "ticks": 99648,
		  "time": 111.21417450000001,
		  "velocity": 0.3937007874015748
		},
		{
		  "duration": 0.10714274999999418,
		  "durationTicks": 96,
		  "midi": 72,
		  "name": "C5",
		  "ticks": 99840,
		  "time": 111.42846000000002,
		  "velocity": 0.3937007874015748
		},
		{
		  "duration": 0.10714274999999418,
		  "durationTicks": 96,
		  "midi": 76,
		  "name": "E5",
		  "ticks": 99840,
		  "time": 111.42846000000002,
		  "velocity": 0.3937007874015748
		},
		{
		  "duration": 0.10714274999999418,
		  "durationTicks": 96,
		  "midi": 72,
		  "name": "C5",
		  "ticks": 99840,
		  "time": 111.42846000000002,
		  "velocity": 0.3937007874015748
		},
		{
		  "duration": 0.10714275000000839,
		  "durationTicks": 96,
		  "midi": 74,
		  "name": "D5",
		  "ticks": 100032,
		  "time": 111.6427455,
		  "velocity": 0.3937007874015748
		},
		{
		  "duration": 0.10714275000000839,
		  "durationTicks": 96,
		  "midi": 77,
		  "name": "F5",
		  "ticks": 100032,
		  "time": 111.6427455,
		  "velocity": 0.3937007874015748
		},
		{
		  "duration": 0.10714275000000839,
		  "durationTicks": 96,
		  "midi": 76,
		  "name": "E5",
		  "ticks": 100224,
		  "time": 111.857031,
		  "velocity": 0.3937007874015748
		},
		{
		  "duration": 0.10714275000000839,
		  "durationTicks": 96,
		  "midi": 79,
		  "name": "G5",
		  "ticks": 100224,
		  "time": 111.857031,
		  "velocity": 0.3937007874015748
		},
		{
		  "duration": 0.10714275000000839,
		  "durationTicks": 96,
		  "midi": 76,
		  "name": "E5",
		  "ticks": 100224,
		  "time": 111.857031,
		  "velocity": 0.3937007874015748
		},
		{
		  "duration": 0.10714275000000839,
		  "durationTicks": 96,
		  "midi": 48,
		  "name": "C3",
		  "ticks": 100224,
		  "time": 111.857031,
		  "velocity": 0.3937007874015748
		},
		{
		  "duration": 0.10714274999999418,
		  "durationTicks": 96,
		  "midi": 76,
		  "name": "E5",
		  "ticks": 100416,
		  "time": 112.07131650000001,
		  "velocity": 0.3937007874015748
		},
		{
		  "duration": 0.10714274999999418,
		  "durationTicks": 96,
		  "midi": 79,
		  "name": "G5",
		  "ticks": 100416,
		  "time": 112.07131650000001,
		  "velocity": 0.3937007874015748
		},
		{
		  "duration": 0.10714274999999418,
		  "durationTicks": 96,
		  "midi": 60,
		  "name": "C4",
		  "ticks": 100416,
		  "time": 112.07131650000001,
		  "velocity": 0.3937007874015748
		},
		{
		  "duration": 0.10714274999999418,
		  "durationTicks": 96,
		  "midi": 81,
		  "name": "A5",
		  "ticks": 100608,
		  "time": 112.28560200000001,
		  "velocity": 0.3937007874015748
		},
		{
		  "duration": 0.10714274999999418,
		  "durationTicks": 96,
		  "midi": 52,
		  "name": "E3",
		  "ticks": 100608,
		  "time": 112.28560200000001,
		  "velocity": 0.3937007874015748
		},
		{
		  "duration": 0.10714275000000839,
		  "durationTicks": 96,
		  "midi": 79,
		  "name": "G5",
		  "ticks": 100704,
		  "time": 112.39274475,
		  "velocity": 0.3937007874015748
		},
		{
		  "duration": 0.10714274999999418,
		  "durationTicks": 96,
		  "midi": 77,
		  "name": "F5",
		  "ticks": 100800,
		  "time": 112.49988750000001,
		  "velocity": 0.3937007874015748
		},
		{
		  "duration": 0.10714274999999418,
		  "durationTicks": 96,
		  "midi": 64,
		  "name": "E4",
		  "ticks": 100800,
		  "time": 112.49988750000001,
		  "velocity": 0.3937007874015748
		},
		{
		  "duration": 0.10714274999999418,
		  "durationTicks": 96,
		  "midi": 76,
		  "name": "E5",
		  "ticks": 100896,
		  "time": 112.60703025000001,
		  "velocity": 0.3937007874015748
		},
		{
		  "duration": 0.10714275000000839,
		  "durationTicks": 96,
		  "midi": 74,
		  "name": "D5",
		  "ticks": 100992,
		  "time": 112.714173,
		  "velocity": 0.3937007874015748
		},
		{
		  "duration": 0.10714275000000839,
		  "durationTicks": 96,
		  "midi": 71,
		  "name": "B4",
		  "ticks": 100992,
		  "time": 112.714173,
		  "velocity": 0.3937007874015748
		},
		{
		  "duration": 0.10714275000000839,
		  "durationTicks": 96,
		  "midi": 55,
		  "name": "G3",
		  "ticks": 100992,
		  "time": 112.714173,
		  "velocity": 0.3937007874015748
		},
		{
		  "duration": 0.10714275000000839,
		  "durationTicks": 96,
		  "midi": 69,
		  "name": "A4",
		  "ticks": 101376,
		  "time": 113.14274400000001,
		  "velocity": 0.3937007874015748
		},
		{
		  "duration": 0.10714275000000839,
		  "durationTicks": 96,
		  "midi": 72,
		  "name": "C5",
		  "ticks": 101376,
		  "time": 113.14274400000001,
		  "velocity": 0.3937007874015748
		},
		{
		  "duration": 0.10714274999999418,
		  "durationTicks": 96,
		  "midi": 71,
		  "name": "B4",
		  "ticks": 101568,
		  "time": 113.35702950000001,
		  "velocity": 0.3937007874015748
		},
		{
		  "duration": 0.10714274999999418,
		  "durationTicks": 96,
		  "midi": 74,
		  "name": "D5",
		  "ticks": 101568,
		  "time": 113.35702950000001,
		  "velocity": 0.3937007874015748
		},
		{
		  "duration": 0.10714274999999418,
		  "durationTicks": 96,
		  "midi": 72,
		  "name": "C5",
		  "ticks": 101760,
		  "time": 113.57131500000001,
		  "velocity": 0.3937007874015748
		},
		{
		  "duration": 0.10714274999999418,
		  "durationTicks": 96,
		  "midi": 76,
		  "name": "E5",
		  "ticks": 101760,
		  "time": 113.57131500000001,
		  "velocity": 0.3937007874015748
		},
		{
		  "duration": 0.10714274999999418,
		  "durationTicks": 96,
		  "midi": 45,
		  "name": "A2",
		  "ticks": 101760,
		  "time": 113.57131500000001,
		  "velocity": 0.3937007874015748
		},
		{
		  "duration": 0.10714274999999418,
		  "durationTicks": 96,
		  "midi": 72,
		  "name": "C5",
		  "ticks": 101952,
		  "time": 113.78560050000002,
		  "velocity": 0.3937007874015748
		},
		{
		  "duration": 0.10714274999999418,
		  "durationTicks": 96,
		  "midi": 76,
		  "name": "E5",
		  "ticks": 101952,
		  "time": 113.78560050000002,
		  "velocity": 0.3937007874015748
		},
		{
		  "duration": 0.10714274999999418,
		  "durationTicks": 96,
		  "midi": 57,
		  "name": "A3",
		  "ticks": 101952,
		  "time": 113.78560050000002,
		  "velocity": 0.3937007874015748
		},
		{
		  "duration": 0.10714275000000839,
		  "durationTicks": 96,
		  "midi": 48,
		  "name": "C3",
		  "ticks": 102144,
		  "time": 113.999886,
		  "velocity": 0.3937007874015748
		},
		{
		  "duration": 0.10714275000000839,
		  "durationTicks": 96,
		  "midi": 77,
		  "name": "F5",
		  "ticks": 102144,
		  "time": 113.999886,
		  "velocity": 0.3937007874015748
		},
		{
		  "duration": 0.10714274999999418,
		  "durationTicks": 96,
		  "midi": 76,
		  "name": "E5",
		  "ticks": 102240,
		  "time": 114.10702875000001,
		  "velocity": 0.3937007874015748
		},
		{
		  "duration": 0.10714275000000839,
		  "durationTicks": 96,
		  "midi": 60,
		  "name": "C4",
		  "ticks": 102336,
		  "time": 114.2141715,
		  "velocity": 0.3937007874015748
		},
		{
		  "duration": 0.10714275000000839,
		  "durationTicks": 96,
		  "midi": 74,
		  "name": "D5",
		  "ticks": 102336,
		  "time": 114.2141715,
		  "velocity": 0.3937007874015748
		},
		{
		  "duration": 0.10714274999999418,
		  "durationTicks": 96,
		  "midi": 72,
		  "name": "C5",
		  "ticks": 102432,
		  "time": 114.32131425000001,
		  "velocity": 0.3937007874015748
		},
		{
		  "duration": 0.10714274999999418,
		  "durationTicks": 96,
		  "midi": 71,
		  "name": "B4",
		  "ticks": 102528,
		  "time": 114.42845700000001,
		  "velocity": 0.3937007874015748
		},
		{
		  "duration": 0.10714274999999418,
		  "durationTicks": 96,
		  "midi": 68,
		  "name": "G#4",
		  "ticks": 102528,
		  "time": 114.42845700000001,
		  "velocity": 0.3937007874015748
		},
		{
		  "duration": 0.10714274999999418,
		  "durationTicks": 96,
		  "midi": 52,
		  "name": "E3",
		  "ticks": 102528,
		  "time": 114.42845700000001,
		  "velocity": 0.3937007874015748
		},
		{
		  "duration": 0.10714274999999418,
		  "durationTicks": 96,
		  "midi": 64,
		  "name": "E4",
		  "ticks": 102720,
		  "time": 114.64274250000001,
		  "velocity": 0.3937007874015748
		},
		{
		  "duration": 0.10714274999999418,
		  "durationTicks": 96,
		  "midi": 69,
		  "name": "A4",
		  "ticks": 102912,
		  "time": 114.85702800000001,
		  "velocity": 0.3937007874015748
		},
		{
		  "duration": 0.10714274999999418,
		  "durationTicks": 96,
		  "midi": 72,
		  "name": "C5",
		  "ticks": 102912,
		  "time": 114.85702800000001,
		  "velocity": 0.3937007874015748
		},
		{
		  "duration": 0.10714274999999418,
		  "durationTicks": 96,
		  "midi": 71,
		  "name": "B4",
		  "ticks": 103104,
		  "time": 115.07131350000002,
		  "velocity": 0.3937007874015748
		},
		{
		  "duration": 0.10714274999999418,
		  "durationTicks": 96,
		  "midi": 74,
		  "name": "D5",
		  "ticks": 103104,
		  "time": 115.07131350000002,
		  "velocity": 0.3937007874015748
		},
		{
		  "duration": 0.10714275000000839,
		  "durationTicks": 96,
		  "midi": 72,
		  "name": "C5",
		  "ticks": 103296,
		  "time": 115.285599,
		  "velocity": 0.3937007874015748
		},
		{
		  "duration": 0.10714275000000839,
		  "durationTicks": 96,
		  "midi": 76,
		  "name": "E5",
		  "ticks": 103296,
		  "time": 115.285599,
		  "velocity": 0.3937007874015748
		},
		{
		  "duration": 0.10714275000000839,
		  "durationTicks": 96,
		  "midi": 45,
		  "name": "A2",
		  "ticks": 103296,
		  "time": 115.285599,
		  "velocity": 0.3937007874015748
		},
		{
		  "duration": 0.10714275000000839,
		  "durationTicks": 96,
		  "midi": 72,
		  "name": "C5",
		  "ticks": 103488,
		  "time": 115.49988450000001,
		  "velocity": 0.3937007874015748
		},
		{
		  "duration": 0.10714275000000839,
		  "durationTicks": 96,
		  "midi": 76,
		  "name": "E5",
		  "ticks": 103488,
		  "time": 115.49988450000001,
		  "velocity": 0.3937007874015748
		},
		{
		  "duration": 0.10714275000000839,
		  "durationTicks": 96,
		  "midi": 57,
		  "name": "A3",
		  "ticks": 103488,
		  "time": 115.49988450000001,
		  "velocity": 0.3937007874015748
		},
		{
		  "duration": 0.10714274999999418,
		  "durationTicks": 96,
		  "midi": 48,
		  "name": "C3",
		  "ticks": 103680,
		  "time": 115.71417000000001,
		  "velocity": 0.3937007874015748
		},
		{
		  "duration": 0.10714274999999418,
		  "durationTicks": 96,
		  "midi": 77,
		  "name": "F5",
		  "ticks": 103680,
		  "time": 115.71417000000001,
		  "velocity": 0.3937007874015748
		},
		{
		  "duration": 0.10714275000000839,
		  "durationTicks": 96,
		  "midi": 76,
		  "name": "E5",
		  "ticks": 103776,
		  "time": 115.82131275,
		  "velocity": 0.3937007874015748
		},
		{
		  "duration": 0.10714274999999418,
		  "durationTicks": 96,
		  "midi": 60,
		  "name": "C4",
		  "ticks": 103872,
		  "time": 115.92845550000001,
		  "velocity": 0.3937007874015748
		},
		{
		  "duration": 0.10714274999999418,
		  "durationTicks": 96,
		  "midi": 74,
		  "name": "D5",
		  "ticks": 103872,
		  "time": 115.92845550000001,
		  "velocity": 0.3937007874015748
		},
		{
		  "duration": 0.10714275000000839,
		  "durationTicks": 96,
		  "midi": 72,
		  "name": "C5",
		  "ticks": 103968,
		  "time": 116.03559825,
		  "velocity": 0.3937007874015748
		},
		{
		  "duration": 0.10714274999999418,
		  "durationTicks": 96,
		  "midi": 71,
		  "name": "B4",
		  "ticks": 104064,
		  "time": 116.14274100000002,
		  "velocity": 0.3937007874015748
		},
		{
		  "duration": 0.10714274999999418,
		  "durationTicks": 96,
		  "midi": 68,
		  "name": "G#4",
		  "ticks": 104064,
		  "time": 116.14274100000002,
		  "velocity": 0.3937007874015748
		},
		{
		  "duration": 0.10714274999999418,
		  "durationTicks": 96,
		  "midi": 52,
		  "name": "E3",
		  "ticks": 104064,
		  "time": 116.14274100000002,
		  "velocity": 0.3937007874015748
		},
		{
		  "duration": 0.10714275000000839,
		  "durationTicks": 96,
		  "midi": 71,
		  "name": "B4",
		  "ticks": 104448,
		  "time": 116.571312,
		  "velocity": 0.3937007874015748
		},
		{
		  "duration": 0.10714274999999418,
		  "durationTicks": 96,
		  "midi": 69,
		  "name": "A4",
		  "ticks": 104544,
		  "time": 116.67845475000001,
		  "velocity": 0.3937007874015748
		},
		{
		  "duration": 0.10714274999999418,
		  "durationTicks": 96,
		  "midi": 68,
		  "name": "G#4",
		  "ticks": 104640,
		  "time": 116.78559750000001,
		  "velocity": 0.3937007874015748
		},
		{
		  "duration": 0.10714275000000839,
		  "durationTicks": 96,
		  "midi": 69,
		  "name": "A4",
		  "ticks": 104736,
		  "time": 116.89274025,
		  "velocity": 0.3937007874015748
		},
		{
		  "duration": 0.10714274999999418,
		  "durationTicks": 96,
		  "midi": 72,
		  "name": "C5",
		  "ticks": 104832,
		  "time": 116.99988300000001,
		  "velocity": 0.3937007874015748
		},
		{
		  "duration": 0.10714274999999418,
		  "durationTicks": 96,
		  "midi": 57,
		  "name": "A3",
		  "ticks": 104832,
		  "time": 116.99988300000001,
		  "velocity": 0.3937007874015748
		},
		{
		  "duration": 0.10714274999999418,
		  "durationTicks": 96,
		  "midi": 60,
		  "name": "C4",
		  "ticks": 105024,
		  "time": 117.21416850000001,
		  "velocity": 0.3937007874015748
		},
		{
		  "duration": 0.10714274999999418,
		  "durationTicks": 96,
		  "midi": 64,
		  "name": "E4",
		  "ticks": 105024,
		  "time": 117.21416850000001,
		  "velocity": 0.3937007874015748
		},
		{
		  "duration": 0.10714274999999418,
		  "durationTicks": 96,
		  "midi": 64,
		  "name": "E4",
		  "ticks": 105216,
		  "time": 117.42845400000002,
		  "velocity": 0.3937007874015748
		},
		{
		  "duration": 0.10714274999999418,
		  "durationTicks": 96,
		  "midi": 60,
		  "name": "C4",
		  "ticks": 105216,
		  "time": 117.42845400000002,
		  "velocity": 0.3937007874015748
		},
		{
		  "duration": 0.10714274999999418,
		  "durationTicks": 96,
		  "midi": 74,
		  "name": "D5",
		  "ticks": 105216,
		  "time": 117.42845400000002,
		  "velocity": 0.3937007874015748
		},
		{
		  "duration": 0.10714274999999418,
		  "durationTicks": 96,
		  "midi": 72,
		  "name": "C5",
		  "ticks": 105312,
		  "time": 117.53559675000001,
		  "velocity": 0.3937007874015748
		},
		{
		  "duration": 0.10714275000000839,
		  "durationTicks": 96,
		  "midi": 60,
		  "name": "C4",
		  "ticks": 105408,
		  "time": 117.6427395,
		  "velocity": 0.3937007874015748
		},
		{
		  "duration": 0.10714275000000839,
		  "durationTicks": 96,
		  "midi": 64,
		  "name": "E4",
		  "ticks": 105408,
		  "time": 117.6427395,
		  "velocity": 0.3937007874015748
		},
		{
		  "duration": 0.10714275000000839,
		  "durationTicks": 96,
		  "midi": 71,
		  "name": "B4",
		  "ticks": 105408,
		  "time": 117.6427395,
		  "velocity": 0.3937007874015748
		},
		{
		  "duration": 0.10714274999999418,
		  "durationTicks": 96,
		  "midi": 72,
		  "name": "C5",
		  "ticks": 105504,
		  "time": 117.74988225000001,
		  "velocity": 0.3937007874015748
		},
		{
		  "duration": 0.10714275000000839,
		  "durationTicks": 96,
		  "midi": 76,
		  "name": "E5",
		  "ticks": 105600,
		  "time": 117.85702500000001,
		  "velocity": 0.3937007874015748
		},
		{
		  "duration": 0.10714275000000839,
		  "durationTicks": 96,
		  "midi": 57,
		  "name": "A3",
		  "ticks": 105600,
		  "time": 117.85702500000001,
		  "velocity": 0.3937007874015748
		},
		{
		  "duration": 0.10714274999999418,
		  "durationTicks": 96,
		  "midi": 60,
		  "name": "C4",
		  "ticks": 105792,
		  "time": 118.07131050000001,
		  "velocity": 0.3937007874015748
		},
		{
		  "duration": 0.10714274999999418,
		  "durationTicks": 96,
		  "midi": 64,
		  "name": "E4",
		  "ticks": 105792,
		  "time": 118.07131050000001,
		  "velocity": 0.3937007874015748
		},
		{
		  "duration": 0.10714274999999418,
		  "durationTicks": 96,
		  "midi": 64,
		  "name": "E4",
		  "ticks": 105984,
		  "time": 118.28559600000001,
		  "velocity": 0.3937007874015748
		},
		{
		  "duration": 0.10714274999999418,
		  "durationTicks": 96,
		  "midi": 60,
		  "name": "C4",
		  "ticks": 105984,
		  "time": 118.28559600000001,
		  "velocity": 0.3937007874015748
		},
		{
		  "duration": 0.10714274999999418,
		  "durationTicks": 96,
		  "midi": 77,
		  "name": "F5",
		  "ticks": 105984,
		  "time": 118.28559600000001,
		  "velocity": 0.3937007874015748
		},
		{
		  "duration": 0.10714275000000839,
		  "durationTicks": 96,
		  "midi": 76,
		  "name": "E5",
		  "ticks": 106080,
		  "time": 118.39273875,
		  "velocity": 0.3937007874015748
		},
		{
		  "duration": 0.10714274999999418,
		  "durationTicks": 96,
		  "midi": 64,
		  "name": "E4",
		  "ticks": 106176,
		  "time": 118.49988150000001,
		  "velocity": 0.3937007874015748
		},
		{
		  "duration": 0.10714274999999418,
		  "durationTicks": 96,
		  "midi": 60,
		  "name": "C4",
		  "ticks": 106176,
		  "time": 118.49988150000001,
		  "velocity": 0.3937007874015748
		},
		{
		  "duration": 0.10714274999999418,
		  "durationTicks": 96,
		  "midi": 75,
		  "name": "D#5",
		  "ticks": 106176,
		  "time": 118.49988150000001,
		  "velocity": 0.3937007874015748
		},
		{
		  "duration": 0.10714274999999418,
		  "durationTicks": 96,
		  "midi": 76,
		  "name": "E5",
		  "ticks": 106272,
		  "time": 118.60702425000001,
		  "velocity": 0.3937007874015748
		},
		{
		  "duration": 0.10714275000000839,
		  "durationTicks": 96,
		  "midi": 83,
		  "name": "B5",
		  "ticks": 106368,
		  "time": 118.714167,
		  "velocity": 0.3937007874015748
		},
		{
		  "duration": 0.10714275000000839,
		  "durationTicks": 96,
		  "midi": 57,
		  "name": "A3",
		  "ticks": 106368,
		  "time": 118.714167,
		  "velocity": 0.3937007874015748
		},
		{
		  "duration": 0.10714274999999418,
		  "durationTicks": 96,
		  "midi": 81,
		  "name": "A5",
		  "ticks": 106464,
		  "time": 118.82130975000001,
		  "velocity": 0.3937007874015748
		},
		{
		  "duration": 0.10714275000000839,
		  "durationTicks": 96,
		  "midi": 80,
		  "name": "G#5",
		  "ticks": 106560,
		  "time": 118.9284525,
		  "velocity": 0.3937007874015748
		},
		{
		  "duration": 0.10714275000000839,
		  "durationTicks": 96,
		  "midi": 60,
		  "name": "C4",
		  "ticks": 106560,
		  "time": 118.9284525,
		  "velocity": 0.3937007874015748
		},
		{
		  "duration": 0.10714275000000839,
		  "durationTicks": 96,
		  "midi": 64,
		  "name": "E4",
		  "ticks": 106560,
		  "time": 118.9284525,
		  "velocity": 0.3937007874015748
		},
		{
		  "duration": 0.10714274999999418,
		  "durationTicks": 96,
		  "midi": 81,
		  "name": "A5",
		  "ticks": 106656,
		  "time": 119.03559525000001,
		  "velocity": 0.3937007874015748
		},
		{
		  "duration": 0.10714275000000839,
		  "durationTicks": 96,
		  "midi": 83,
		  "name": "B5",
		  "ticks": 106752,
		  "time": 119.14273800000001,
		  "velocity": 0.3937007874015748
		},
		{
		  "duration": 0.10714275000000839,
		  "durationTicks": 96,
		  "midi": 57,
		  "name": "A3",
		  "ticks": 106752,
		  "time": 119.14273800000001,
		  "velocity": 0.3937007874015748
		},
		{
		  "duration": 0.10714274999999418,
		  "durationTicks": 96,
		  "midi": 81,
		  "name": "A5",
		  "ticks": 106848,
		  "time": 119.24988075000002,
		  "velocity": 0.3937007874015748
		},
		{
		  "duration": 0.10714274999999418,
		  "durationTicks": 96,
		  "midi": 80,
		  "name": "G#5",
		  "ticks": 106944,
		  "time": 119.35702350000001,
		  "velocity": 0.3937007874015748
		},
		{
		  "duration": 0.10714274999999418,
		  "durationTicks": 96,
		  "midi": 60,
		  "name": "C4",
		  "ticks": 106944,
		  "time": 119.35702350000001,
		  "velocity": 0.3937007874015748
		},
		{
		  "duration": 0.10714274999999418,
		  "durationTicks": 96,
		  "midi": 64,
		  "name": "E4",
		  "ticks": 106944,
		  "time": 119.35702350000001,
		  "velocity": 0.3937007874015748
		},
		{
		  "duration": 0.10714275000000839,
		  "durationTicks": 96,
		  "midi": 81,
		  "name": "A5",
		  "ticks": 107040,
		  "time": 119.46416625,
		  "velocity": 0.3937007874015748
		},
		{
		  "duration": 0.10714274999999418,
		  "durationTicks": 96,
		  "midi": 84,
		  "name": "C6",
		  "ticks": 107136,
		  "time": 119.57130900000001,
		  "velocity": 0.3937007874015748
		},
		{
		  "duration": 0.10714274999999418,
		  "durationTicks": 96,
		  "midi": 53,
		  "name": "F3",
		  "ticks": 107136,
		  "time": 119.57130900000001,
		  "velocity": 0.3937007874015748
		},
		{
		  "duration": 0.10714274999999418,
		  "durationTicks": 96,
		  "midi": 57,
		  "name": "A3",
		  "ticks": 107328,
		  "time": 119.78559450000002,
		  "velocity": 0.3937007874015748
		},
		{
		  "duration": 0.10714274999999418,
		  "durationTicks": 96,
		  "midi": 63,
		  "name": "D#4",
		  "ticks": 107328,
		  "time": 119.78559450000002,
		  "velocity": 0.3937007874015748
		},
		{
		  "duration": 0.10714275000000839,
		  "durationTicks": 96,
		  "midi": 57,
		  "name": "A3",
		  "ticks": 107520,
		  "time": 119.99988,
		  "velocity": 0.3937007874015748
		},
		{
		  "duration": 0.10714275000000839,
		  "durationTicks": 96,
		  "midi": 63,
		  "name": "D#4",
		  "ticks": 107520,
		  "time": 119.99988,
		  "velocity": 0.3937007874015748
		},
		{
		  "duration": 0.10714275000000839,
		  "durationTicks": 96,
		  "midi": 81,
		  "name": "A5",
		  "ticks": 107520,
		  "time": 119.99988,
		  "velocity": 0.3937007874015748
		},
		{
		  "duration": 0.10714275000000839,
		  "durationTicks": 96,
		  "midi": 57,
		  "name": "A3",
		  "ticks": 107712,
		  "time": 120.21416550000001,
		  "velocity": 0.3937007874015748
		},
		{
		  "duration": 0.10714275000000839,
		  "durationTicks": 96,
		  "midi": 63,
		  "name": "D#4",
		  "ticks": 107712,
		  "time": 120.21416550000001,
		  "velocity": 0.3937007874015748
		},
		{
		  "duration": 0.10714275000000839,
		  "durationTicks": 96,
		  "midi": 83,
		  "name": "B5",
		  "ticks": 107712,
		  "time": 120.21416550000001,
		  "velocity": 0.3937007874015748
		},
		{
		  "duration": 0.10714274999999418,
		  "durationTicks": 96,
		  "midi": 84,
		  "name": "C6",
		  "ticks": 107904,
		  "time": 120.42845100000001,
		  "velocity": 0.3937007874015748
		},
		{
		  "duration": 0.10714274999999418,
		  "durationTicks": 96,
		  "midi": 52,
		  "name": "E3",
		  "ticks": 107904,
		  "time": 120.42845100000001,
		  "velocity": 0.3937007874015748
		},
		{
		  "duration": 0.10714274999999418,
		  "durationTicks": 96,
		  "midi": 57,
		  "name": "A3",
		  "ticks": 108096,
		  "time": 120.64273650000001,
		  "velocity": 0.3937007874015748
		},
		{
		  "duration": 0.10714274999999418,
		  "durationTicks": 96,
		  "midi": 64,
		  "name": "E4",
		  "ticks": 108096,
		  "time": 120.64273650000001,
		  "velocity": 0.3937007874015748
		},
		{
		  "duration": 0.10714274999999418,
		  "durationTicks": 96,
		  "midi": 83,
		  "name": "B5",
		  "ticks": 108096,
		  "time": 120.64273650000001,
		  "velocity": 0.3937007874015748
		},
		{
		  "duration": 0.10714274999999418,
		  "durationTicks": 96,
		  "midi": 50,
		  "name": "D3",
		  "ticks": 108288,
		  "time": 120.85702200000001,
		  "velocity": 0.3937007874015748
		},
		{
		  "duration": 0.10714274999999418,
		  "durationTicks": 96,
		  "midi": 81,
		  "name": "A5",
		  "ticks": 108288,
		  "time": 120.85702200000001,
		  "velocity": 0.3937007874015748
		},
		{
		  "duration": 0.10714275000000839,
		  "durationTicks": 96,
		  "midi": 53,
		  "name": "F3",
		  "ticks": 108480,
		  "time": 121.0713075,
		  "velocity": 0.3937007874015748
		},
		{
		  "duration": 0.10714275000000839,
		  "durationTicks": 96,
		  "midi": 80,
		  "name": "G#5",
		  "ticks": 108480,
		  "time": 121.0713075,
		  "velocity": 0.3937007874015748
		},
		{
		  "duration": 0.10714275000000839,
		  "durationTicks": 96,
		  "midi": 59,
		  "name": "B3",
		  "ticks": 108480,
		  "time": 121.0713075,
		  "velocity": 0.3937007874015748
		},
		{
		  "duration": 0.10714275000000839,
		  "durationTicks": 96,
		  "midi": 81,
		  "name": "A5",
		  "ticks": 108672,
		  "time": 121.285593,
		  "velocity": 0.3937007874015748
		},
		{
		  "duration": 0.10714275000000839,
		  "durationTicks": 96,
		  "midi": 48,
		  "name": "C3",
		  "ticks": 108672,
		  "time": 121.285593,
		  "velocity": 0.3937007874015748
		},
		{
		  "duration": 0.10714275000000839,
		  "durationTicks": 96,
		  "midi": 52,
		  "name": "E3",
		  "ticks": 108864,
		  "time": 121.49987850000001,
		  "velocity": 0.3937007874015748
		},
		{
		  "duration": 0.10714275000000839,
		  "durationTicks": 96,
		  "midi": 57,
		  "name": "A3",
		  "ticks": 108864,
		  "time": 121.49987850000001,
		  "velocity": 0.3937007874015748
		},
		{
		  "duration": 0.10714275000000839,
		  "durationTicks": 96,
		  "midi": 76,
		  "name": "E5",
		  "ticks": 108864,
		  "time": 121.49987850000001,
		  "velocity": 0.3937007874015748
		},
		{
		  "duration": 0.10714274999999418,
		  "durationTicks": 96,
		  "midi": 77,
		  "name": "F5",
		  "ticks": 109056,
		  "time": 121.71416400000001,
		  "velocity": 0.3937007874015748
		},
		{
		  "duration": 0.10714274999999418,
		  "durationTicks": 96,
		  "midi": 50,
		  "name": "D3",
		  "ticks": 109056,
		  "time": 121.71416400000001,
		  "velocity": 0.3937007874015748
		},
		{
		  "duration": 0.10714274999999418,
		  "durationTicks": 96,
		  "midi": 74,
		  "name": "D5",
		  "ticks": 109248,
		  "time": 121.92844950000001,
		  "velocity": 0.3937007874015748
		},
		{
		  "duration": 0.10714274999999418,
		  "durationTicks": 96,
		  "midi": 53,
		  "name": "F3",
		  "ticks": 109248,
		  "time": 121.92844950000001,
		  "velocity": 0.3937007874015748
		},
		{
		  "duration": 0.10714274999999418,
		  "durationTicks": 96,
		  "midi": 59,
		  "name": "B3",
		  "ticks": 109248,
		  "time": 121.92844950000001,
		  "velocity": 0.3937007874015748
		},
		{
		  "duration": 0.10714274999999418,
		  "durationTicks": 96,
		  "midi": 72,
		  "name": "C5",
		  "ticks": 109440,
		  "time": 122.14273500000002,
		  "velocity": 0.3937007874015748
		},
		{
		  "duration": 0.10714274999999418,
		  "durationTicks": 96,
		  "midi": 52,
		  "name": "E3",
		  "ticks": 109440,
		  "time": 122.14273500000002,
		  "velocity": 0.3937007874015748
		},
		{
		  "duration": 0.10714274999999418,
		  "durationTicks": 96,
		  "midi": 57,
		  "name": "A3",
		  "ticks": 109440,
		  "time": 122.14273500000002,
		  "velocity": 0.3937007874015748
		},
		{
		  "duration": 0.10714275000000839,
		  "durationTicks": 96,
		  "midi": 57,
		  "name": "A3",
		  "ticks": 109632,
		  "time": 122.3570205,
		  "velocity": 0.3937007874015748
		},
		{
		  "duration": 0.10714275000000839,
		  "durationTicks": 96,
		  "midi": 52,
		  "name": "E3",
		  "ticks": 109632,
		  "time": 122.3570205,
		  "velocity": 0.3937007874015748
		},
		{
		  "duration": 0.10714275000000839,
		  "durationTicks": 96,
		  "midi": 52,
		  "name": "E3",
		  "ticks": 109824,
		  "time": 122.571306,
		  "velocity": 0.3937007874015748
		},
		{
		  "duration": 0.10714275000000839,
		  "durationTicks": 96,
		  "midi": 56,
		  "name": "G#3",
		  "ticks": 109824,
		  "time": 122.571306,
		  "velocity": 0.3937007874015748
		},
		{
		  "duration": 0.053571375000004195,
		  "durationTicks": 48,
		  "midi": 71,
		  "name": "B4",
		  "ticks": 109824,
		  "time": 122.571306,
		  "velocity": 0.3937007874015748
		},
		{
		  "duration": 0.053571375000004195,
		  "durationTicks": 48,
		  "midi": 72,
		  "name": "C5",
		  "ticks": 109872,
		  "time": 122.62487737500001,
		  "velocity": 0.3937007874015748
		},
		{
		  "duration": 0.053571374999989985,
		  "durationTicks": 48,
		  "midi": 71,
		  "name": "B4",
		  "ticks": 109920,
		  "time": 122.67844875000002,
		  "velocity": 0.3937007874015748
		},
		{
		  "duration": 0.10714274999999418,
		  "durationTicks": 96,
		  "midi": 52,
		  "name": "E3",
		  "ticks": 110016,
		  "time": 122.78559150000001,
		  "velocity": 0.3937007874015748
		},
		{
		  "duration": 0.10714274999999418,
		  "durationTicks": 96,
		  "midi": 56,
		  "name": "G#3",
		  "ticks": 110016,
		  "time": 122.78559150000001,
		  "velocity": 0.3937007874015748
		},
		{
		  "duration": 0.053571375000004195,
		  "durationTicks": 48,
		  "midi": 69,
		  "name": "A4",
		  "ticks": 110016,
		  "time": 122.78559150000001,
		  "velocity": 0.3937007874015748
		},
		{
		  "duration": 0.053571374999989985,
		  "durationTicks": 48,
		  "midi": 71,
		  "name": "B4",
		  "ticks": 110064,
		  "time": 122.83916287500001,
		  "velocity": 0.3937007874015748
		},
		{
		  "duration": 0.053571375000004195,
		  "durationTicks": 48,
		  "midi": 69,
		  "name": "A4",
		  "ticks": 110208,
		  "time": 122.99987700000001,
		  "velocity": 0.3937007874015748
		},
		{
		  "duration": 0.10714274999999418,
		  "durationTicks": 96,
		  "midi": 57,
		  "name": "A3",
		  "ticks": 110208,
		  "time": 122.99987700000001,
		  "velocity": 0.3937007874015748
		},
		{
		  "duration": 0.10714274999999418,
		  "durationTicks": 96,
		  "midi": 45,
		  "name": "A2",
		  "ticks": 110208,
		  "time": 122.99987700000001,
		  "velocity": 0.3937007874015748
		},
		{
		  "duration": 0.10714275000000839,
		  "durationTicks": 96,
		  "midi": 69,
		  "name": "A4",
		  "ticks": 110592,
		  "time": 123.428448,
		  "velocity": 0.3937007874015748
		},
		{
		  "duration": 0.10714274999999418,
		  "durationTicks": 96,
		  "midi": 81,
		  "name": "A5",
		  "ticks": 110664,
		  "time": 123.50880506250002,
		  "velocity": 0.3937007874015748
		},
		{
		  "duration": 0.10714275000000839,
		  "durationTicks": 96,
		  "midi": 71,
		  "name": "B4",
		  "ticks": 110784,
		  "time": 123.6427335,
		  "velocity": 0.3937007874015748
		},
		{
		  "duration": 0.10714275000000839,
		  "durationTicks": 96,
		  "midi": 83,
		  "name": "B5",
		  "ticks": 110856,
		  "time": 123.7230905625,
		  "velocity": 0.3937007874015748
		},
		{
		  "duration": 0.026785687499994992,
		  "durationTicks": 24,
		  "midi": 45,
		  "name": "A2",
		  "ticks": 110880,
		  "time": 123.74987625000001,
		  "velocity": 0.3937007874015748
		},
		{
		  "duration": 0.10714275000000839,
		  "durationTicks": 96,
		  "midi": 73,
		  "name": "C#5",
		  "ticks": 110976,
		  "time": 123.85701900000001,
		  "velocity": 0.3937007874015748
		},
		{
		  "duration": 0.10714275000000839,
		  "durationTicks": 96,
		  "midi": 45,
		  "name": "A2",
		  "ticks": 110976,
		  "time": 123.85701900000001,
		  "velocity": 0.3937007874015748
		},
		{
		  "duration": 0.10714275000000839,
		  "durationTicks": 96,
		  "midi": 49,
		  "name": "C#3",
		  "ticks": 111000,
		  "time": 123.8838046875,
		  "velocity": 0.3937007874015748
		},
		{
		  "duration": 0.10714274999999418,
		  "durationTicks": 96,
		  "midi": 52,
		  "name": "E3",
		  "ticks": 111024,
		  "time": 123.91059037500001,
		  "velocity": 0.3937007874015748
		},
		{
		  "duration": 0.10714275000000839,
		  "durationTicks": 96,
		  "midi": 85,
		  "name": "C#6",
		  "ticks": 111048,
		  "time": 123.93737606250001,
		  "velocity": 0.3937007874015748
		},
		{
		  "duration": 0.10714275000000839,
		  "durationTicks": 96,
		  "midi": 57,
		  "name": "A3",
		  "ticks": 111048,
		  "time": 123.93737606250001,
		  "velocity": 0.3937007874015748
		},
		{
		  "duration": 0.10714274999999418,
		  "durationTicks": 96,
		  "midi": 57,
		  "name": "A3",
		  "ticks": 111168,
		  "time": 124.07130450000001,
		  "velocity": 0.3937007874015748
		},
		{
		  "duration": 0.10714274999999418,
		  "durationTicks": 96,
		  "midi": 57,
		  "name": "A3",
		  "ticks": 111360,
		  "time": 124.28559000000001,
		  "velocity": 0.3937007874015748
		},
		{
		  "duration": 0.10714274999999418,
		  "durationTicks": 96,
		  "midi": 69,
		  "name": "A4",
		  "ticks": 111360,
		  "time": 124.28559000000001,
		  "velocity": 0.3937007874015748
		},
		{
		  "duration": 0.10714274999999418,
		  "durationTicks": 96,
		  "midi": 81,
		  "name": "A5",
		  "ticks": 111432,
		  "time": 124.36594706250001,
		  "velocity": 0.3937007874015748
		},
		{
		  "duration": 0.10714274999999418,
		  "durationTicks": 96,
		  "midi": 57,
		  "name": "A3",
		  "ticks": 111552,
		  "time": 124.49987550000002,
		  "velocity": 0.3937007874015748
		},
		{
		  "duration": 0.10714274999999418,
		  "durationTicks": 96,
		  "midi": 71,
		  "name": "B4",
		  "ticks": 111552,
		  "time": 124.49987550000002,
		  "velocity": 0.3937007874015748
		},
		{
		  "duration": 0.10714274999999418,
		  "durationTicks": 96,
		  "midi": 83,
		  "name": "B5",
		  "ticks": 111624,
		  "time": 124.58023256250002,
		  "velocity": 0.3937007874015748
		},
		{
		  "duration": 0.026785687500009203,
		  "durationTicks": 24,
		  "midi": 45,
		  "name": "A2",
		  "ticks": 111744,
		  "time": 124.714161,
		  "velocity": 0.3937007874015748
		},
		{
		  "duration": 0.10714275000000839,
		  "durationTicks": 96,
		  "midi": 73,
		  "name": "C#5",
		  "ticks": 111744,
		  "time": 124.714161,
		  "velocity": 0.3937007874015748
		},
		{
		  "duration": 0.10714275000000839,
		  "durationTicks": 96,
		  "midi": 45,
		  "name": "A2",
		  "ticks": 111744,
		  "time": 124.714161,
		  "velocity": 0.3937007874015748
		},
		{
		  "duration": 0.10714274999999418,
		  "durationTicks": 96,
		  "midi": 49,
		  "name": "C#3",
		  "ticks": 111768,
		  "time": 124.74094668750001,
		  "velocity": 0.3937007874015748
		},
		{
		  "duration": 0.10714275000000839,
		  "durationTicks": 96,
		  "midi": 52,
		  "name": "E3",
		  "ticks": 111792,
		  "time": 124.76773237500001,
		  "velocity": 0.3937007874015748
		},
		{
		  "duration": 0.10714275000000839,
		  "durationTicks": 96,
		  "midi": 57,
		  "name": "A3",
		  "ticks": 111816,
		  "time": 124.7945180625,
		  "velocity": 0.3937007874015748
		},
		{
		  "duration": 0.10714275000000839,
		  "durationTicks": 96,
		  "midi": 85,
		  "name": "C#6",
		  "ticks": 111816,
		  "time": 124.7945180625,
		  "velocity": 0.3937007874015748
		},
		{
		  "duration": 0.10714275000000839,
		  "durationTicks": 96,
		  "midi": 71,
		  "name": "B4",
		  "ticks": 111936,
		  "time": 124.9284465,
		  "velocity": 0.3937007874015748
		},
		{
		  "duration": 0.10714275000000839,
		  "durationTicks": 96,
		  "midi": 57,
		  "name": "A3",
		  "ticks": 111936,
		  "time": 124.9284465,
		  "velocity": 0.3937007874015748
		},
		{
		  "duration": 0.10714275000000839,
		  "durationTicks": 96,
		  "midi": 83,
		  "name": "B5",
		  "ticks": 112008,
		  "time": 125.0088035625,
		  "velocity": 0.3937007874015748
		},
		{
		  "duration": 0.10714274999999418,
		  "durationTicks": 96,
		  "midi": 69,
		  "name": "A4",
		  "ticks": 112128,
		  "time": 125.14273200000001,
		  "velocity": 0.3937007874015748
		},
		{
		  "duration": 0.10714274999999418,
		  "durationTicks": 96,
		  "midi": 57,
		  "name": "A3",
		  "ticks": 112128,
		  "time": 125.14273200000001,
		  "velocity": 0.3937007874015748
		},
		{
		  "duration": 0.10714275000000839,
		  "durationTicks": 96,
		  "midi": 81,
		  "name": "A5",
		  "ticks": 112200,
		  "time": 125.22308906250001,
		  "velocity": 0.3937007874015748
		},
		{
		  "duration": 0.10714274999999418,
		  "durationTicks": 96,
		  "midi": 68,
		  "name": "G#4",
		  "ticks": 112320,
		  "time": 125.35701750000001,
		  "velocity": 0.3937007874015748
		},
		{
		  "duration": 0.10714274999999418,
		  "durationTicks": 96,
		  "midi": 57,
		  "name": "A3",
		  "ticks": 112320,
		  "time": 125.35701750000001,
		  "velocity": 0.3937007874015748
		},
		{
		  "duration": 0.10714274999999418,
		  "durationTicks": 96,
		  "midi": 80,
		  "name": "G#5",
		  "ticks": 112392,
		  "time": 125.43737456250001,
		  "velocity": 0.3937007874015748
		},
		{
		  "duration": 0.10714274999999418,
		  "durationTicks": 96,
		  "midi": 66,
		  "name": "F#4",
		  "ticks": 112512,
		  "time": 125.57130300000001,
		  "velocity": 0.3937007874015748
		},
		{
		  "duration": 0.10714274999999418,
		  "durationTicks": 96,
		  "midi": 38,
		  "name": "D2",
		  "ticks": 112512,
		  "time": 125.57130300000001,
		  "velocity": 0.3937007874015748
		},
		{
		  "duration": 0.10714274999999418,
		  "durationTicks": 96,
		  "midi": 42,
		  "name": "F#2",
		  "ticks": 112536,
		  "time": 125.59808868750001,
		  "velocity": 0.3937007874015748
		},
		{
		  "duration": 0.10714275000000839,
		  "durationTicks": 96,
		  "midi": 45,
		  "name": "A2",
		  "ticks": 112560,
		  "time": 125.624874375,
		  "velocity": 0.3937007874015748
		},
		{
		  "duration": 0.10714274999999418,
		  "durationTicks": 96,
		  "midi": 78,
		  "name": "F#5",
		  "ticks": 112584,
		  "time": 125.65166006250001,
		  "velocity": 0.3937007874015748
		},
		{
		  "duration": 0.10714274999999418,
		  "durationTicks": 96,
		  "midi": 50,
		  "name": "D3",
		  "ticks": 112584,
		  "time": 125.65166006250001,
		  "velocity": 0.3937007874015748
		},
		{
		  "duration": 0.10714274999999418,
		  "durationTicks": 96,
		  "midi": 68,
		  "name": "G#4",
		  "ticks": 112704,
		  "time": 125.78558850000002,
		  "velocity": 0.3937007874015748
		},
		{
		  "duration": 0.10714274999999418,
		  "durationTicks": 96,
		  "midi": 50,
		  "name": "D3",
		  "ticks": 112704,
		  "time": 125.78558850000002,
		  "velocity": 0.3937007874015748
		},
		{
		  "duration": 0.10714274999999418,
		  "durationTicks": 96,
		  "midi": 80,
		  "name": "G#5",
		  "ticks": 112776,
		  "time": 125.86594556250002,
		  "velocity": 0.3937007874015748
		},
		{
		  "duration": 0.10714275000000839,
		  "durationTicks": 96,
		  "midi": 69,
		  "name": "A4",
		  "ticks": 112896,
		  "time": 125.999874,
		  "velocity": 0.3937007874015748
		},
		{
		  "duration": 0.10714275000000839,
		  "durationTicks": 96,
		  "midi": 39,
		  "name": "D#2",
		  "ticks": 112896,
		  "time": 125.999874,
		  "velocity": 0.3937007874015748
		},
		{
		  "duration": 0.10714274999999418,
		  "durationTicks": 96,
		  "midi": 42,
		  "name": "F#2",
		  "ticks": 112920,
		  "time": 126.02665968750001,
		  "velocity": 0.3937007874015748
		},
		{
		  "duration": 0.10714274999999418,
		  "durationTicks": 96,
		  "midi": 45,
		  "name": "A2",
		  "ticks": 112944,
		  "time": 126.05344537500001,
		  "velocity": 0.3937007874015748
		},
		{
		  "duration": 0.10714275000000839,
		  "durationTicks": 96,
		  "midi": 81,
		  "name": "A5",
		  "ticks": 112968,
		  "time": 126.0802310625,
		  "velocity": 0.3937007874015748
		},
		{
		  "duration": 0.10714275000000839,
		  "durationTicks": 96,
		  "midi": 51,
		  "name": "D#3",
		  "ticks": 112968,
		  "time": 126.0802310625,
		  "velocity": 0.3937007874015748
		},
		{
		  "duration": 0.10714275000000839,
		  "durationTicks": 96,
		  "midi": 71,
		  "name": "B4",
		  "ticks": 113088,
		  "time": 126.21415950000001,
		  "velocity": 0.3937007874015748
		},
		{
		  "duration": 0.10714275000000839,
		  "durationTicks": 96,
		  "midi": 51,
		  "name": "D#3",
		  "ticks": 113088,
		  "time": 126.21415950000001,
		  "velocity": 0.3937007874015748
		},
		{
		  "duration": 0.10714275000000839,
		  "durationTicks": 96,
		  "midi": 83,
		  "name": "B5",
		  "ticks": 113160,
		  "time": 126.29451656250001,
		  "velocity": 0.3937007874015748
		},
		{
		  "duration": 0.10714274999999418,
		  "durationTicks": 96,
		  "midi": 68,
		  "name": "G#4",
		  "ticks": 113280,
		  "time": 126.42844500000001,
		  "velocity": 0.3937007874015748
		},
		{
		  "duration": 0.10714274999999418,
		  "durationTicks": 96,
		  "midi": 40,
		  "name": "E2",
		  "ticks": 113280,
		  "time": 126.42844500000001,
		  "velocity": 0.3937007874015748
		},
		{
		  "duration": 0.10714275000000839,
		  "durationTicks": 96,
		  "midi": 44,
		  "name": "G#2",
		  "ticks": 113304,
		  "time": 126.4552306875,
		  "velocity": 0.3937007874015748
		},
		{
		  "duration": 0.10714274999999418,
		  "durationTicks": 96,
		  "midi": 47,
		  "name": "B2",
		  "ticks": 113328,
		  "time": 126.48201637500001,
		  "velocity": 0.3937007874015748
		},
		{
		  "duration": 0.10714274999999418,
		  "durationTicks": 96,
		  "midi": 80,
		  "name": "G#5",
		  "ticks": 113352,
		  "time": 126.50880206250001,
		  "velocity": 0.3937007874015748
		},
		{
		  "duration": 0.10714274999999418,
		  "durationTicks": 96,
		  "midi": 52,
		  "name": "E3",
		  "ticks": 113352,
		  "time": 126.50880206250001,
		  "velocity": 0.3937007874015748
		},
		{
		  "duration": 0.10714274999999418,
		  "durationTicks": 96,
		  "midi": 64,
		  "name": "E4",
		  "ticks": 113472,
		  "time": 126.64273050000001,
		  "velocity": 0.3937007874015748
		},
		{
		  "duration": 0.10714274999999418,
		  "durationTicks": 96,
		  "midi": 52,
		  "name": "E3",
		  "ticks": 113472,
		  "time": 126.64273050000001,
		  "velocity": 0.3937007874015748
		},
		{
		  "duration": 0.10714274999999418,
		  "durationTicks": 96,
		  "midi": 76,
		  "name": "E5",
		  "ticks": 113544,
		  "time": 126.72308756250001,
		  "velocity": 0.3937007874015748
		},
		{
		  "duration": 0.10714274999999418,
		  "durationTicks": 96,
		  "midi": 52,
		  "name": "E3",
		  "ticks": 113664,
		  "time": 126.85701600000002,
		  "velocity": 0.3937007874015748
		},
		{
		  "duration": 0.10714274999999418,
		  "durationTicks": 96,
		  "midi": 69,
		  "name": "A4",
		  "ticks": 113664,
		  "time": 126.85701600000002,
		  "velocity": 0.3937007874015748
		},
		{
		  "duration": 0.10714274999999418,
		  "durationTicks": 96,
		  "midi": 81,
		  "name": "A5",
		  "ticks": 113736,
		  "time": 126.93737306250001,
		  "velocity": 0.3937007874015748
		},
		{
		  "duration": 0.10714275000000839,
		  "durationTicks": 96,
		  "midi": 52,
		  "name": "E3",
		  "ticks": 113856,
		  "time": 127.0713015,
		  "velocity": 0.3937007874015748
		},
		{
		  "duration": 0.10714275000000839,
		  "durationTicks": 96,
		  "midi": 71,
		  "name": "B4",
		  "ticks": 113856,
		  "time": 127.0713015,
		  "velocity": 0.3937007874015748
		},
		{
		  "duration": 0.10714274999999418,
		  "durationTicks": 96,
		  "midi": 83,
		  "name": "B5",
		  "ticks": 113928,
		  "time": 127.15165856250002,
		  "velocity": 0.3937007874015748
		},
		{
		  "duration": 0.10714275000000839,
		  "durationTicks": 96,
		  "midi": 73,
		  "name": "C#5",
		  "ticks": 114048,
		  "time": 127.285587,
		  "velocity": 0.3937007874015748
		},
		{
		  "duration": 0.10714275000000839,
		  "durationTicks": 96,
		  "midi": 45,
		  "name": "A2",
		  "ticks": 114048,
		  "time": 127.285587,
		  "velocity": 0.3937007874015748
		},
		{
		  "duration": 0.10714274999999418,
		  "durationTicks": 96,
		  "midi": 49,
		  "name": "C#3",
		  "ticks": 114072,
		  "time": 127.31237268750002,
		  "velocity": 0.3937007874015748
		},
		{
		  "duration": 0.10714274999999418,
		  "durationTicks": 96,
		  "midi": 52,
		  "name": "E3",
		  "ticks": 114096,
		  "time": 127.33915837500001,
		  "velocity": 0.3937007874015748
		},
		{
		  "duration": 0.10714275000000839,
		  "durationTicks": 96,
		  "midi": 85,
		  "name": "C#6",
		  "ticks": 114120,
		  "time": 127.3659440625,
		  "velocity": 0.3937007874015748
		},
		{
		  "duration": 0.10714275000000839,
		  "durationTicks": 96,
		  "midi": 57,
		  "name": "A3",
		  "ticks": 114120,
		  "time": 127.3659440625,
		  "velocity": 0.3937007874015748
		},
		{
		  "duration": 0.10714274999999418,
		  "durationTicks": 96,
		  "midi": 57,
		  "name": "A3",
		  "ticks": 114240,
		  "time": 127.49987250000001,
		  "velocity": 0.3937007874015748
		},
		{
		  "duration": 0.10714274999999418,
		  "durationTicks": 96,
		  "midi": 57,
		  "name": "A3",
		  "ticks": 114432,
		  "time": 127.71415800000001,
		  "velocity": 0.3937007874015748
		},
		{
		  "duration": 0.10714274999999418,
		  "durationTicks": 96,
		  "midi": 69,
		  "name": "A4",
		  "ticks": 114432,
		  "time": 127.71415800000001,
		  "velocity": 0.3937007874015748
		},
		{
		  "duration": 0.10714274999999418,
		  "durationTicks": 96,
		  "midi": 81,
		  "name": "A5",
		  "ticks": 114504,
		  "time": 127.79451506250001,
		  "velocity": 0.3937007874015748
		},
		{
		  "duration": 0.10714275000000839,
		  "durationTicks": 96,
		  "midi": 57,
		  "name": "A3",
		  "ticks": 114624,
		  "time": 127.92844350000001,
		  "velocity": 0.3937007874015748
		},
		{
		  "duration": 0.10714275000000839,
		  "durationTicks": 96,
		  "midi": 71,
		  "name": "B4",
		  "ticks": 114624,
		  "time": 127.92844350000001,
		  "velocity": 0.3937007874015748
		},
		{
		  "duration": 0.10714275000000839,
		  "durationTicks": 96,
		  "midi": 83,
		  "name": "B5",
		  "ticks": 114696,
		  "time": 128.0088005625,
		  "velocity": 0.3937007874015748
		},
		{
		  "duration": 0.10714275000000839,
		  "durationTicks": 96,
		  "midi": 73,
		  "name": "C#5",
		  "ticks": 114816,
		  "time": 128.142729,
		  "velocity": 0.3937007874015748
		},
		{
		  "duration": 0.10714275000000839,
		  "durationTicks": 96,
		  "midi": 45,
		  "name": "A2",
		  "ticks": 114816,
		  "time": 128.142729,
		  "velocity": 0.3937007874015748
		},
		{
		  "duration": 0.10714275000000839,
		  "durationTicks": 96,
		  "midi": 49,
		  "name": "C#3",
		  "ticks": 114840,
		  "time": 128.1695146875,
		  "velocity": 0.3937007874015748
		},
		{
		  "duration": 0.10714274999997997,
		  "durationTicks": 96,
		  "midi": 52,
		  "name": "E3",
		  "ticks": 114864,
		  "time": 128.19630037500002,
		  "velocity": 0.3937007874015748
		},
		{
		  "duration": 0.10714275000000839,
		  "durationTicks": 96,
		  "midi": 85,
		  "name": "C#6",
		  "ticks": 114888,
		  "time": 128.22308606250002,
		  "velocity": 0.3937007874015748
		},
		{
		  "duration": 0.10714275000000839,
		  "durationTicks": 96,
		  "midi": 57,
		  "name": "A3",
		  "ticks": 114888,
		  "time": 128.22308606250002,
		  "velocity": 0.3937007874015748
		},
		{
		  "duration": 0.10714274999997997,
		  "durationTicks": 96,
		  "midi": 57,
		  "name": "A3",
		  "ticks": 115008,
		  "time": 128.35701450000002,
		  "velocity": 0.3937007874015748
		},
		{
		  "duration": 0.10714274999997997,
		  "durationTicks": 96,
		  "midi": 71,
		  "name": "B4",
		  "ticks": 115008,
		  "time": 128.35701450000002,
		  "velocity": 0.3937007874015748
		},
		{
		  "duration": 0.10714275000000839,
		  "durationTicks": 96,
		  "midi": 83,
		  "name": "B5",
		  "ticks": 115080,
		  "time": 128.4373715625,
		  "velocity": 0.3937007874015748
		},
		{
		  "duration": 0.10714275000000839,
		  "durationTicks": 96,
		  "midi": 57,
		  "name": "A3",
		  "ticks": 115200,
		  "time": 128.5713,
		  "velocity": 0.3937007874015748
		},
		{
		  "duration": 0.10714275000000839,
		  "durationTicks": 96,
		  "midi": 69,
		  "name": "A4",
		  "ticks": 115200,
		  "time": 128.5713,
		  "velocity": 0.3937007874015748
		},
		{
		  "duration": 0.10714274999997997,
		  "durationTicks": 96,
		  "midi": 81,
		  "name": "A5",
		  "ticks": 115272,
		  "time": 128.65165706250002,
		  "velocity": 0.3937007874015748
		},
		{
		  "duration": 0.10714274999997997,
		  "durationTicks": 96,
		  "midi": 57,
		  "name": "A3",
		  "ticks": 115392,
		  "time": 128.78558550000002,
		  "velocity": 0.3937007874015748
		},
		{
		  "duration": 0.10714274999997997,
		  "durationTicks": 96,
		  "midi": 68,
		  "name": "G#4",
		  "ticks": 115392,
		  "time": 128.78558550000002,
		  "velocity": 0.3937007874015748
		},
		{
		  "duration": 0.10714275000000839,
		  "durationTicks": 96,
		  "midi": 80,
		  "name": "G#5",
		  "ticks": 115440,
		  "time": 128.83915687500001,
		  "velocity": 0.3937007874015748
		},
		{
		  "duration": 0.10714275000000839,
		  "durationTicks": 96,
		  "midi": 66,
		  "name": "F#4",
		  "ticks": 115584,
		  "time": 128.999871,
		  "velocity": 0.3937007874015748
		},
		{
		  "duration": 0.10714275000000839,
		  "durationTicks": 96,
		  "midi": 38,
		  "name": "D2",
		  "ticks": 115584,
		  "time": 128.999871,
		  "velocity": 0.3937007874015748
		},
		{
		  "duration": 0.10714275000000839,
		  "durationTicks": 96,
		  "midi": 42,
		  "name": "F#2",
		  "ticks": 115608,
		  "time": 129.0266566875,
		  "velocity": 0.3937007874015748
		},
		{
		  "duration": 0.10714275000000839,
		  "durationTicks": 96,
		  "midi": 45,
		  "name": "A2",
		  "ticks": 115632,
		  "time": 129.053442375,
		  "velocity": 0.3937007874015748
		},
		{
		  "duration": 0.10714275000000839,
		  "durationTicks": 96,
		  "midi": 78,
		  "name": "F#5",
		  "ticks": 115656,
		  "time": 129.0802280625,
		  "velocity": 0.3937007874015748
		},
		{
		  "duration": 0.10714275000000839,
		  "durationTicks": 96,
		  "midi": 50,
		  "name": "D3",
		  "ticks": 115656,
		  "time": 129.0802280625,
		  "velocity": 0.3937007874015748
		},
		{
		  "duration": 0.10714275000000839,
		  "durationTicks": 96,
		  "midi": 50,
		  "name": "D3",
		  "ticks": 115776,
		  "time": 129.2141565,
		  "velocity": 0.3937007874015748
		},
		{
		  "duration": 0.10714275000000839,
		  "durationTicks": 96,
		  "midi": 71,
		  "name": "B4",
		  "ticks": 115776,
		  "time": 129.2141565,
		  "velocity": 0.3937007874015748
		},
		{
		  "duration": 0.10714275000000839,
		  "durationTicks": 96,
		  "midi": 83,
		  "name": "B5",
		  "ticks": 115848,
		  "time": 129.29451356250001,
		  "velocity": 0.3937007874015748
		},
		{
		  "duration": 0.10714274999997997,
		  "durationTicks": 96,
		  "midi": 40,
		  "name": "E2",
		  "ticks": 115968,
		  "time": 129.42844200000002,
		  "velocity": 0.3937007874015748
		},
		{
		  "duration": 0.10714274999997997,
		  "durationTicks": 96,
		  "midi": 68,
		  "name": "G#4",
		  "ticks": 115968,
		  "time": 129.42844200000002,
		  "velocity": 0.3937007874015748
		},
		{
		  "duration": 0.10714275000000839,
		  "durationTicks": 96,
		  "midi": 44,
		  "name": "G#2",
		  "ticks": 115992,
		  "time": 129.4552276875,
		  "velocity": 0.3937007874015748
		},
		{
		  "duration": 0.10714275000000839,
		  "durationTicks": 96,
		  "midi": 47,
		  "name": "B2",
		  "ticks": 116016,
		  "time": 129.482013375,
		  "velocity": 0.3937007874015748
		},
		{
		  "duration": 0.10714275000000839,
		  "durationTicks": 96,
		  "midi": 52,
		  "name": "E3",
		  "ticks": 116040,
		  "time": 129.5087990625,
		  "velocity": 0.3937007874015748
		},
		{
		  "duration": 0.10714275000000839,
		  "durationTicks": 96,
		  "midi": 80,
		  "name": "G#5",
		  "ticks": 116040,
		  "time": 129.5087990625,
		  "velocity": 0.3937007874015748
		},
		{
		  "duration": 0.10714275000000839,
		  "durationTicks": 96,
		  "midi": 52,
		  "name": "E3",
		  "ticks": 116160,
		  "time": 129.6427275,
		  "velocity": 0.3937007874015748
		},
		{
		  "duration": 0.10714275000000839,
		  "durationTicks": 96,
		  "midi": 64,
		  "name": "E4",
		  "ticks": 116160,
		  "time": 129.6427275,
		  "velocity": 0.3937007874015748
		},
		{
		  "duration": 0.10714274999997997,
		  "durationTicks": 96,
		  "midi": 76,
		  "name": "E5",
		  "ticks": 116232,
		  "time": 129.72308456250002,
		  "velocity": 0.3937007874015748
		},
		{
		  "duration": 0.10714274999997997,
		  "durationTicks": 96,
		  "midi": 69,
		  "name": "A4",
		  "ticks": 116352,
		  "time": 129.85701300000002,
		  "velocity": 0.3937007874015748
		},
		{
		  "duration": 0.10714274999997997,
		  "durationTicks": 96,
		  "midi": 45,
		  "name": "A2",
		  "ticks": 116352,
		  "time": 129.85701300000002,
		  "velocity": 0.3937007874015748
		},
		{
		  "duration": 0.10714275000000839,
		  "durationTicks": 96,
		  "midi": 81,
		  "name": "A5",
		  "ticks": 116424,
		  "time": 129.9373700625,
		  "velocity": 0.3937007874015748
		},
		{
		  "duration": 0.10714275000000839,
		  "durationTicks": 96,
		  "midi": 69,
		  "name": "A4",
		  "ticks": 116736,
		  "time": 130.285584,
		  "velocity": 0.3937007874015748
		},
		{
		  "duration": 0.10714275000000839,
		  "durationTicks": 96,
		  "midi": 81,
		  "name": "A5",
		  "ticks": 116808,
		  "time": 130.3659410625,
		  "velocity": 0.3937007874015748
		},
		{
		  "duration": 0.10714274999997997,
		  "durationTicks": 96,
		  "midi": 71,
		  "name": "B4",
		  "ticks": 116928,
		  "time": 130.49986950000002,
		  "velocity": 0.3937007874015748
		},
		{
		  "duration": 0.10714275000000839,
		  "durationTicks": 96,
		  "midi": 83,
		  "name": "B5",
		  "ticks": 117000,
		  "time": 130.5802265625,
		  "velocity": 0.3937007874015748
		},
		{
		  "duration": 0.10714275000000839,
		  "durationTicks": 96,
		  "midi": 73,
		  "name": "C#5",
		  "ticks": 117120,
		  "time": 130.714155,
		  "velocity": 0.3937007874015748
		},
		{
		  "duration": 0.10714275000000839,
		  "durationTicks": 96,
		  "midi": 45,
		  "name": "A2",
		  "ticks": 117120,
		  "time": 130.714155,
		  "velocity": 0.3937007874015748
		},
		{
		  "duration": 0.10714275000000839,
		  "durationTicks": 96,
		  "midi": 49,
		  "name": "C#3",
		  "ticks": 117144,
		  "time": 130.7409406875,
		  "velocity": 0.3937007874015748
		},
		{
		  "duration": 0.10714274999997997,
		  "durationTicks": 96,
		  "midi": 52,
		  "name": "E3",
		  "ticks": 117168,
		  "time": 130.76772637500002,
		  "velocity": 0.3937007874015748
		},
		{
		  "duration": 0.10714274999997997,
		  "durationTicks": 96,
		  "midi": 85,
		  "name": "C#6",
		  "ticks": 117192,
		  "time": 130.79451206250002,
		  "velocity": 0.3937007874015748
		},
		{
		  "duration": 0.10714274999997997,
		  "durationTicks": 96,
		  "midi": 57,
		  "name": "A3",
		  "ticks": 117192,
		  "time": 130.79451206250002,
		  "velocity": 0.3937007874015748
		},
		{
		  "duration": 0.10714274999997997,
		  "durationTicks": 96,
		  "midi": 57,
		  "name": "A3",
		  "ticks": 117312,
		  "time": 130.92844050000002,
		  "velocity": 0.3937007874015748
		},
		{
		  "duration": 0.10714275000000839,
		  "durationTicks": 96,
		  "midi": 57,
		  "name": "A3",
		  "ticks": 117504,
		  "time": 131.142726,
		  "velocity": 0.3937007874015748
		},
		{
		  "duration": 0.10714275000000839,
		  "durationTicks": 96,
		  "midi": 69,
		  "name": "A4",
		  "ticks": 117504,
		  "time": 131.142726,
		  "velocity": 0.3937007874015748
		},
		{
		  "duration": 0.10714274999997997,
		  "durationTicks": 96,
		  "midi": 81,
		  "name": "A5",
		  "ticks": 117576,
		  "time": 131.22308306250002,
		  "velocity": 0.3937007874015748
		},
		{
		  "duration": 0.10714275000000839,
		  "durationTicks": 96,
		  "midi": 57,
		  "name": "A3",
		  "ticks": 117696,
		  "time": 131.3570115,
		  "velocity": 0.3937007874015748
		},
		{
		  "duration": 0.10714275000000839,
		  "durationTicks": 96,
		  "midi": 71,
		  "name": "B4",
		  "ticks": 117696,
		  "time": 131.3570115,
		  "velocity": 0.3937007874015748
		},
		{
		  "duration": 0.10714275000000839,
		  "durationTicks": 96,
		  "midi": 83,
		  "name": "B5",
		  "ticks": 117768,
		  "time": 131.4373685625,
		  "velocity": 0.3937007874015748
		},
		{
		  "duration": 0.10714275000000839,
		  "durationTicks": 96,
		  "midi": 73,
		  "name": "C#5",
		  "ticks": 117888,
		  "time": 131.57129700000002,
		  "velocity": 0.3937007874015748
		},
		{
		  "duration": 0.10714275000000839,
		  "durationTicks": 96,
		  "midi": 45,
		  "name": "A2",
		  "ticks": 117888,
		  "time": 131.57129700000002,
		  "velocity": 0.3937007874015748
		},
		{
		  "duration": 0.10714275000000839,
		  "durationTicks": 96,
		  "midi": 49,
		  "name": "C#3",
		  "ticks": 117912,
		  "time": 131.5980826875,
		  "velocity": 0.3937007874015748
		},
		{
		  "duration": 0.10714275000000839,
		  "durationTicks": 96,
		  "midi": 52,
		  "name": "E3",
		  "ticks": 117936,
		  "time": 131.624868375,
		  "velocity": 0.3937007874015748
		},
		{
		  "duration": 0.10714275000000839,
		  "durationTicks": 96,
		  "midi": 57,
		  "name": "A3",
		  "ticks": 117960,
		  "time": 131.6516540625,
		  "velocity": 0.3937007874015748
		},
		{
		  "duration": 0.10714275000000839,
		  "durationTicks": 96,
		  "midi": 85,
		  "name": "C#6",
		  "ticks": 117960,
		  "time": 131.6516540625,
		  "velocity": 0.3937007874015748
		},
		{
		  "duration": 0.10714275000000839,
		  "durationTicks": 96,
		  "midi": 71,
		  "name": "B4",
		  "ticks": 118080,
		  "time": 131.7855825,
		  "velocity": 0.3937007874015748
		},
		{
		  "duration": 0.10714275000000839,
		  "durationTicks": 96,
		  "midi": 57,
		  "name": "A3",
		  "ticks": 118080,
		  "time": 131.7855825,
		  "velocity": 0.3937007874015748
		},
		{
		  "duration": 0.10714274999997997,
		  "durationTicks": 96,
		  "midi": 83,
		  "name": "B5",
		  "ticks": 118152,
		  "time": 131.86593956250002,
		  "velocity": 0.3937007874015748
		},
		{
		  "duration": 0.10714274999997997,
		  "durationTicks": 96,
		  "midi": 69,
		  "name": "A4",
		  "ticks": 118272,
		  "time": 131.99986800000002,
		  "velocity": 0.3937007874015748
		},
		{
		  "duration": 0.10714274999997997,
		  "durationTicks": 96,
		  "midi": 57,
		  "name": "A3",
		  "ticks": 118272,
		  "time": 131.99986800000002,
		  "velocity": 0.3937007874015748
		},
		{
		  "duration": 0.10714275000000839,
		  "durationTicks": 96,
		  "midi": 81,
		  "name": "A5",
		  "ticks": 118344,
		  "time": 132.0802250625,
		  "velocity": 0.3937007874015748
		},
		{
		  "duration": 0.10714275000000839,
		  "durationTicks": 96,
		  "midi": 68,
		  "name": "G#4",
		  "ticks": 118464,
		  "time": 132.2141535,
		  "velocity": 0.3937007874015748
		},
		{
		  "duration": 0.10714275000000839,
		  "durationTicks": 96,
		  "midi": 57,
		  "name": "A3",
		  "ticks": 118464,
		  "time": 132.2141535,
		  "velocity": 0.3937007874015748
		},
		{
		  "duration": 0.10714274999997997,
		  "durationTicks": 96,
		  "midi": 80,
		  "name": "G#5",
		  "ticks": 118536,
		  "time": 132.29451056250002,
		  "velocity": 0.3937007874015748
		},
		{
		  "duration": 0.10714275000000839,
		  "durationTicks": 96,
		  "midi": 66,
		  "name": "F#4",
		  "ticks": 118656,
		  "time": 132.428439,
		  "velocity": 0.3937007874015748
		},
		{
		  "duration": 0.10714275000000839,
		  "durationTicks": 96,
		  "midi": 38,
		  "name": "D2",
		  "ticks": 118656,
		  "time": 132.428439,
		  "velocity": 0.3937007874015748
		},
		{
		  "duration": 0.10714274999997997,
		  "durationTicks": 96,
		  "midi": 42,
		  "name": "F#2",
		  "ticks": 118680,
		  "time": 132.45522468750002,
		  "velocity": 0.3937007874015748
		},
		{
		  "duration": 0.10714275000000839,
		  "durationTicks": 96,
		  "midi": 45,
		  "name": "A2",
		  "ticks": 118704,
		  "time": 132.48201037500002,
		  "velocity": 0.3937007874015748
		},
		{
		  "duration": 0.10714275000000839,
		  "durationTicks": 96,
		  "midi": 78,
		  "name": "F#5",
		  "ticks": 118728,
		  "time": 132.5087960625,
		  "velocity": 0.3937007874015748
		},
		{
		  "duration": 0.10714275000000839,
		  "durationTicks": 96,
		  "midi": 50,
		  "name": "D3",
		  "ticks": 118728,
		  "time": 132.5087960625,
		  "velocity": 0.3937007874015748
		},
		{
		  "duration": 0.10714275000000839,
		  "durationTicks": 96,
		  "midi": 68,
		  "name": "G#4",
		  "ticks": 118848,
		  "time": 132.6427245,
		  "velocity": 0.3937007874015748
		},
		{
		  "duration": 0.10714275000000839,
		  "durationTicks": 96,
		  "midi": 50,
		  "name": "D3",
		  "ticks": 118848,
		  "time": 132.6427245,
		  "velocity": 0.3937007874015748
		},
		{
		  "duration": 0.10714275000000839,
		  "durationTicks": 96,
		  "midi": 80,
		  "name": "G#5",
		  "ticks": 118920,
		  "time": 132.7230815625,
		  "velocity": 0.3937007874015748
		},
		{
		  "duration": 0.10714275000000839,
		  "durationTicks": 96,
		  "midi": 69,
		  "name": "A4",
		  "ticks": 119040,
		  "time": 132.85701,
		  "velocity": 0.3937007874015748
		},
		{
		  "duration": 0.10714275000000839,
		  "durationTicks": 96,
		  "midi": 39,
		  "name": "D#2",
		  "ticks": 119040,
		  "time": 132.85701,
		  "velocity": 0.3937007874015748
		},
		{
		  "duration": 0.10714275000000839,
		  "durationTicks": 96,
		  "midi": 42,
		  "name": "F#2",
		  "ticks": 119064,
		  "time": 132.8837956875,
		  "velocity": 0.3937007874015748
		},
		{
		  "duration": 0.10714274999997997,
		  "durationTicks": 96,
		  "midi": 45,
		  "name": "A2",
		  "ticks": 119088,
		  "time": 132.91058137500002,
		  "velocity": 0.3937007874015748
		},
		{
		  "duration": 0.10714275000000839,
		  "durationTicks": 96,
		  "midi": 81,
		  "name": "A5",
		  "ticks": 119112,
		  "time": 132.93736706250002,
		  "velocity": 0.3937007874015748
		},
		{
		  "duration": 0.10714275000000839,
		  "durationTicks": 96,
		  "midi": 51,
		  "name": "D#3",
		  "ticks": 119112,
		  "time": 132.93736706250002,
		  "velocity": 0.3937007874015748
		},
		{
		  "duration": 0.10714274999997997,
		  "durationTicks": 96,
		  "midi": 71,
		  "name": "B4",
		  "ticks": 119232,
		  "time": 133.07129550000002,
		  "velocity": 0.3937007874015748
		},
		{
		  "duration": 0.10714274999997997,
		  "durationTicks": 96,
		  "midi": 51,
		  "name": "D#3",
		  "ticks": 119232,
		  "time": 133.07129550000002,
		  "velocity": 0.3937007874015748
		},
		{
		  "duration": 0.10714275000000839,
		  "durationTicks": 96,
		  "midi": 83,
		  "name": "B5",
		  "ticks": 119304,
		  "time": 133.1516525625,
		  "velocity": 0.3937007874015748
		},
		{
		  "duration": 0.10714275000000839,
		  "durationTicks": 96,
		  "midi": 68,
		  "name": "G#4",
		  "ticks": 119424,
		  "time": 133.285581,
		  "velocity": 0.3937007874015748
		},
		{
		  "duration": 0.10714275000000839,
		  "durationTicks": 96,
		  "midi": 40,
		  "name": "E2",
		  "ticks": 119424,
		  "time": 133.285581,
		  "velocity": 0.3937007874015748
		},
		{
		  "duration": 0.10714275000000839,
		  "durationTicks": 96,
		  "midi": 44,
		  "name": "G#2",
		  "ticks": 119448,
		  "time": 133.3123666875,
		  "velocity": 0.3937007874015748
		},
		{
		  "duration": 0.10714275000000839,
		  "durationTicks": 96,
		  "midi": 47,
		  "name": "B2",
		  "ticks": 119472,
		  "time": 133.339152375,
		  "velocity": 0.3937007874015748
		},
		{
		  "duration": 0.10714274999997997,
		  "durationTicks": 96,
		  "midi": 52,
		  "name": "E3",
		  "ticks": 119496,
		  "time": 133.36593806250002,
		  "velocity": 0.3937007874015748
		},
		{
		  "duration": 0.10714274999997997,
		  "durationTicks": 96,
		  "midi": 80,
		  "name": "G#5",
		  "ticks": 119496,
		  "time": 133.36593806250002,
		  "velocity": 0.3937007874015748
		},
		{
		  "duration": 0.10714274999997997,
		  "durationTicks": 96,
		  "midi": 64,
		  "name": "E4",
		  "ticks": 119616,
		  "time": 133.49986650000002,
		  "velocity": 0.3937007874015748
		},
		{
		  "duration": 0.10714274999997997,
		  "durationTicks": 96,
		  "midi": 52,
		  "name": "E3",
		  "ticks": 119616,
		  "time": 133.49986650000002,
		  "velocity": 0.3937007874015748
		},
		{
		  "duration": 0.10714275000000839,
		  "durationTicks": 96,
		  "midi": 76,
		  "name": "E5",
		  "ticks": 119688,
		  "time": 133.5802235625,
		  "velocity": 0.3937007874015748
		},
		{
		  "duration": 0.10714275000000839,
		  "durationTicks": 96,
		  "midi": 52,
		  "name": "E3",
		  "ticks": 119808,
		  "time": 133.714152,
		  "velocity": 0.3937007874015748
		},
		{
		  "duration": 0.10714275000000839,
		  "durationTicks": 96,
		  "midi": 69,
		  "name": "A4",
		  "ticks": 119808,
		  "time": 133.714152,
		  "velocity": 0.3937007874015748
		},
		{
		  "duration": 0.10714275000000839,
		  "durationTicks": 96,
		  "midi": 81,
		  "name": "A5",
		  "ticks": 119880,
		  "time": 133.7945090625,
		  "velocity": 0.3937007874015748
		},
		{
		  "duration": 0.10714275000000839,
		  "durationTicks": 96,
		  "midi": 52,
		  "name": "E3",
		  "ticks": 120000,
		  "time": 133.9284375,
		  "velocity": 0.3937007874015748
		},
		{
		  "duration": 0.10714275000000839,
		  "durationTicks": 96,
		  "midi": 71,
		  "name": "B4",
		  "ticks": 120000,
		  "time": 133.9284375,
		  "velocity": 0.3937007874015748
		},
		{
		  "duration": 0.10714275000000839,
		  "durationTicks": 96,
		  "midi": 83,
		  "name": "B5",
		  "ticks": 120072,
		  "time": 134.00879456250001,
		  "velocity": 0.3937007874015748
		},
		{
		  "duration": 0.10714274999997997,
		  "durationTicks": 96,
		  "midi": 73,
		  "name": "C#5",
		  "ticks": 120192,
		  "time": 134.14272300000002,
		  "velocity": 0.3937007874015748
		},
		{
		  "duration": 0.10714274999997997,
		  "durationTicks": 96,
		  "midi": 45,
		  "name": "A2",
		  "ticks": 120192,
		  "time": 134.14272300000002,
		  "velocity": 0.3937007874015748
		},
		{
		  "duration": 0.10714275000000839,
		  "durationTicks": 96,
		  "midi": 49,
		  "name": "C#3",
		  "ticks": 120216,
		  "time": 134.1695086875,
		  "velocity": 0.3937007874015748
		},
		{
		  "duration": 0.10714275000000839,
		  "durationTicks": 96,
		  "midi": 52,
		  "name": "E3",
		  "ticks": 120240,
		  "time": 134.196294375,
		  "velocity": 0.3937007874015748
		},
		{
		  "duration": 0.10714275000000839,
		  "durationTicks": 96,
		  "midi": 85,
		  "name": "C#6",
		  "ticks": 120264,
		  "time": 134.2230800625,
		  "velocity": 0.3937007874015748
		},
		{
		  "duration": 0.10714275000000839,
		  "durationTicks": 96,
		  "midi": 57,
		  "name": "A3",
		  "ticks": 120264,
		  "time": 134.2230800625,
		  "velocity": 0.3937007874015748
		},
		{
		  "duration": 0.10714275000000839,
		  "durationTicks": 96,
		  "midi": 57,
		  "name": "A3",
		  "ticks": 120384,
		  "time": 134.3570085,
		  "velocity": 0.3937007874015748
		},
		{
		  "duration": 0.10714274999997997,
		  "durationTicks": 96,
		  "midi": 57,
		  "name": "A3",
		  "ticks": 120576,
		  "time": 134.57129400000002,
		  "velocity": 0.3937007874015748
		},
		{
		  "duration": 0.10714274999997997,
		  "durationTicks": 96,
		  "midi": 69,
		  "name": "A4",
		  "ticks": 120576,
		  "time": 134.57129400000002,
		  "velocity": 0.3937007874015748
		},
		{
		  "duration": 0.10714275000000839,
		  "durationTicks": 96,
		  "midi": 81,
		  "name": "A5",
		  "ticks": 120648,
		  "time": 134.6516510625,
		  "velocity": 0.3937007874015748
		},
		{
		  "duration": 0.10714275000000839,
		  "durationTicks": 96,
		  "midi": 57,
		  "name": "A3",
		  "ticks": 120768,
		  "time": 134.7855795,
		  "velocity": 0.3937007874015748
		},
		{
		  "duration": 0.10714275000000839,
		  "durationTicks": 96,
		  "midi": 71,
		  "name": "B4",
		  "ticks": 120768,
		  "time": 134.7855795,
		  "velocity": 0.3937007874015748
		},
		{
		  "duration": 0.10714274999997997,
		  "durationTicks": 96,
		  "midi": 83,
		  "name": "B5",
		  "ticks": 120840,
		  "time": 134.86593656250002,
		  "velocity": 0.3937007874015748
		},
		{
		  "duration": 0.10714275000000839,
		  "durationTicks": 96,
		  "midi": 73,
		  "name": "C#5",
		  "ticks": 120960,
		  "time": 134.999865,
		  "velocity": 0.3937007874015748
		},
		{
		  "duration": 0.10714275000000839,
		  "durationTicks": 96,
		  "midi": 45,
		  "name": "A2",
		  "ticks": 120960,
		  "time": 134.999865,
		  "velocity": 0.3937007874015748
		},
		{
		  "duration": 0.10714274999997997,
		  "durationTicks": 96,
		  "midi": 49,
		  "name": "C#3",
		  "ticks": 120984,
		  "time": 135.02665068750002,
		  "velocity": 0.3937007874015748
		},
		{
		  "duration": 0.10714274999997997,
		  "durationTicks": 96,
		  "midi": 52,
		  "name": "E3",
		  "ticks": 121008,
		  "time": 135.05343637500002,
		  "velocity": 0.3937007874015748
		},
		{
		  "duration": 0.10714275000000839,
		  "durationTicks": 96,
		  "midi": 85,
		  "name": "C#6",
		  "ticks": 121032,
		  "time": 135.0802220625,
		  "velocity": 0.3937007874015748
		},
		{
		  "duration": 0.10714275000000839,
		  "durationTicks": 96,
		  "midi": 57,
		  "name": "A3",
		  "ticks": 121032,
		  "time": 135.0802220625,
		  "velocity": 0.3937007874015748
		},
		{
		  "duration": 0.10714275000000839,
		  "durationTicks": 96,
		  "midi": 57,
		  "name": "A3",
		  "ticks": 121152,
		  "time": 135.21415050000002,
		  "velocity": 0.3937007874015748
		},
		{
		  "duration": 0.10714275000000839,
		  "durationTicks": 96,
		  "midi": 71,
		  "name": "B4",
		  "ticks": 121152,
		  "time": 135.21415050000002,
		  "velocity": 0.3937007874015748
		},
		{
		  "duration": 0.10714275000000839,
		  "durationTicks": 96,
		  "midi": 83,
		  "name": "B5",
		  "ticks": 121224,
		  "time": 135.2945075625,
		  "velocity": 0.3937007874015748
		},
		{
		  "duration": 0.10714275000000839,
		  "durationTicks": 96,
		  "midi": 57,
		  "name": "A3",
		  "ticks": 121344,
		  "time": 135.428436,
		  "velocity": 0.3937007874015748
		},
		{
		  "duration": 0.10714275000000839,
		  "durationTicks": 96,
		  "midi": 69,
		  "name": "A4",
		  "ticks": 121344,
		  "time": 135.428436,
		  "velocity": 0.3937007874015748
		},
		{
		  "duration": 0.10714274999997997,
		  "durationTicks": 96,
		  "midi": 81,
		  "name": "A5",
		  "ticks": 121416,
		  "time": 135.50879306250002,
		  "velocity": 0.3937007874015748
		},
		{
		  "duration": 0.10714274999997997,
		  "durationTicks": 96,
		  "midi": 57,
		  "name": "A3",
		  "ticks": 121536,
		  "time": 135.64272150000002,
		  "velocity": 0.3937007874015748
		},
		{
		  "duration": 0.10714274999997997,
		  "durationTicks": 96,
		  "midi": 68,
		  "name": "G#4",
		  "ticks": 121536,
		  "time": 135.64272150000002,
		  "velocity": 0.3937007874015748
		},
		{
		  "duration": 0.10714275000000839,
		  "durationTicks": 96,
		  "midi": 80,
		  "name": "G#5",
		  "ticks": 121608,
		  "time": 135.7230785625,
		  "velocity": 0.3937007874015748
		},
		{
		  "duration": 0.10714275000000839,
		  "durationTicks": 96,
		  "midi": 66,
		  "name": "F#4",
		  "ticks": 121728,
		  "time": 135.857007,
		  "velocity": 0.3937007874015748
		},
		{
		  "duration": 0.10714275000000839,
		  "durationTicks": 96,
		  "midi": 38,
		  "name": "D2",
		  "ticks": 121728,
		  "time": 135.857007,
		  "velocity": 0.3937007874015748
		},
		{
		  "duration": 0.10714275000000839,
		  "durationTicks": 96,
		  "midi": 42,
		  "name": "F#2",
		  "ticks": 121752,
		  "time": 135.8837926875,
		  "velocity": 0.3937007874015748
		},
		{
		  "duration": 0.10714275000000839,
		  "durationTicks": 96,
		  "midi": 45,
		  "name": "A2",
		  "ticks": 121776,
		  "time": 135.910578375,
		  "velocity": 0.3937007874015748
		},
		{
		  "duration": 0.10714274999997997,
		  "durationTicks": 96,
		  "midi": 78,
		  "name": "F#5",
		  "ticks": 121800,
		  "time": 135.93736406250002,
		  "velocity": 0.3937007874015748
		},
		{
		  "duration": 0.10714274999997997,
		  "durationTicks": 96,
		  "midi": 50,
		  "name": "D3",
		  "ticks": 121800,
		  "time": 135.93736406250002,
		  "velocity": 0.3937007874015748
		},
		{
		  "duration": 0.10714275000000839,
		  "durationTicks": 96,
		  "midi": 50,
		  "name": "D3",
		  "ticks": 121920,
		  "time": 136.0712925,
		  "velocity": 0.3937007874015748
		},
		{
		  "duration": 0.10714275000000839,
		  "durationTicks": 96,
		  "midi": 71,
		  "name": "B4",
		  "ticks": 121920,
		  "time": 136.0712925,
		  "velocity": 0.3937007874015748
		},
		{
		  "duration": 0.10714275000000839,
		  "durationTicks": 96,
		  "midi": 83,
		  "name": "B5",
		  "ticks": 121992,
		  "time": 136.1516495625,
		  "velocity": 0.3937007874015748
		},
		{
		  "duration": 0.10714275000000839,
		  "durationTicks": 96,
		  "midi": 40,
		  "name": "E2",
		  "ticks": 122112,
		  "time": 136.28557800000002,
		  "velocity": 0.3937007874015748
		},
		{
		  "duration": 0.10714275000000839,
		  "durationTicks": 96,
		  "midi": 68,
		  "name": "G#4",
		  "ticks": 122112,
		  "time": 136.28557800000002,
		  "velocity": 0.3937007874015748
		},
		{
		  "duration": 0.10714275000000839,
		  "durationTicks": 96,
		  "midi": 44,
		  "name": "G#2",
		  "ticks": 122136,
		  "time": 136.3123636875,
		  "velocity": 0.3937007874015748
		},
		{
		  "duration": 0.10714275000000839,
		  "durationTicks": 96,
		  "midi": 47,
		  "name": "B2",
		  "ticks": 122160,
		  "time": 136.339149375,
		  "velocity": 0.3937007874015748
		},
		{
		  "duration": 0.10714275000000839,
		  "durationTicks": 96,
		  "midi": 52,
		  "name": "E3",
		  "ticks": 122184,
		  "time": 136.3659350625,
		  "velocity": 0.3937007874015748
		},
		{
		  "duration": 0.10714275000000839,
		  "durationTicks": 96,
		  "midi": 80,
		  "name": "G#5",
		  "ticks": 122184,
		  "time": 136.3659350625,
		  "velocity": 0.3937007874015748
		},
		{
		  "duration": 0.10714275000000839,
		  "durationTicks": 96,
		  "midi": 52,
		  "name": "E3",
		  "ticks": 122304,
		  "time": 136.4998635,
		  "velocity": 0.3937007874015748
		},
		{
		  "duration": 0.10714275000000839,
		  "durationTicks": 96,
		  "midi": 64,
		  "name": "E4",
		  "ticks": 122304,
		  "time": 136.4998635,
		  "velocity": 0.3937007874015748
		},
		{
		  "duration": 0.10714275000000839,
		  "durationTicks": 96,
		  "midi": 76,
		  "name": "E5",
		  "ticks": 122376,
		  "time": 136.58022056250002,
		  "velocity": 0.3937007874015748
		},
		{
		  "duration": 0.10714274999997997,
		  "durationTicks": 96,
		  "midi": 69,
		  "name": "A4",
		  "ticks": 122496,
		  "time": 136.71414900000002,
		  "velocity": 0.3937007874015748
		},
		{
		  "duration": 0.10714274999997997,
		  "durationTicks": 96,
		  "midi": 81,
		  "name": "A5",
		  "ticks": 122496,
		  "time": 136.71414900000002,
		  "velocity": 0.3937007874015748
		},
		{
		  "duration": 0.10714274999997997,
		  "durationTicks": 96,
		  "midi": 45,
		  "name": "A2",
		  "ticks": 122496,
		  "time": 136.71414900000002,
		  "velocity": 0.3937007874015748
		},
		{
		  "duration": 0.10714275000000839,
		  "durationTicks": 96,
		  "midi": 49,
		  "name": "C#3",
		  "ticks": 122520,
		  "time": 136.74093468750002,
		  "velocity": 0.3937007874015748
		},
		{
		  "duration": 0.10714275000000839,
		  "durationTicks": 96,
		  "midi": 52,
		  "name": "E3",
		  "ticks": 122544,
		  "time": 136.767720375,
		  "velocity": 0.3937007874015748
		},
		{
		  "duration": 0.10714275000000839,
		  "durationTicks": 96,
		  "midi": 57,
		  "name": "A3",
		  "ticks": 122568,
		  "time": 136.7945060625,
		  "velocity": 0.3937007874015748
		},
		{
		  "duration": 0.10714275000000839,
		  "durationTicks": 96,
		  "midi": 57,
		  "name": "A3",
		  "ticks": 122688,
		  "time": 136.9284345,
		  "velocity": 0.3937007874015748
		},
		{
		  "duration": 0.10714275000000839,
		  "durationTicks": 96,
		  "midi": 57,
		  "name": "A3",
		  "ticks": 122880,
		  "time": 137.14272,
		  "velocity": 0.3937007874015748
		},
		{
		  "duration": 0.10714275000000839,
		  "durationTicks": 96,
		  "midi": 73,
		  "name": "C#5",
		  "ticks": 122880,
		  "time": 137.14272,
		  "velocity": 0.3937007874015748
		},
		{
		  "duration": 0.10714275000000839,
		  "durationTicks": 96,
		  "midi": 85,
		  "name": "C#6",
		  "ticks": 122880,
		  "time": 137.14272,
		  "velocity": 0.3937007874015748
		},
		{
		  "duration": 0.10714275000000839,
		  "durationTicks": 96,
		  "midi": 57,
		  "name": "A3",
		  "ticks": 123072,
		  "time": 137.3570055,
		  "velocity": 0.3937007874015748
		},
		{
		  "duration": 0.10714275000000839,
		  "durationTicks": 96,
		  "midi": 81,
		  "name": "A5",
		  "ticks": 123120,
		  "time": 137.410576875,
		  "velocity": 0.3937007874015748
		},
		{
		  "duration": 0.10714275000000839,
		  "durationTicks": 96,
		  "midi": 85,
		  "name": "C#6",
		  "ticks": 123120,
		  "time": 137.410576875,
		  "velocity": 0.3937007874015748
		},
		{
		  "duration": 0.10714275000000839,
		  "durationTicks": 96,
		  "midi": 45,
		  "name": "A2",
		  "ticks": 123264,
		  "time": 137.571291,
		  "velocity": 0.3937007874015748
		},
		{
		  "duration": 0.10714275000000839,
		  "durationTicks": 96,
		  "midi": 85,
		  "name": "C#6",
		  "ticks": 123264,
		  "time": 137.571291,
		  "velocity": 0.3937007874015748
		},
		{
		  "duration": 0.10714275000000839,
		  "durationTicks": 96,
		  "midi": 81,
		  "name": "A5",
		  "ticks": 123264,
		  "time": 137.571291,
		  "velocity": 0.3937007874015748
		},
		{
		  "duration": 0.10714275000000839,
		  "durationTicks": 96,
		  "midi": 76,
		  "name": "E5",
		  "ticks": 123264,
		  "time": 137.571291,
		  "velocity": 0.3937007874015748
		},
		{
		  "duration": 0.10714275000000839,
		  "durationTicks": 96,
		  "midi": 73,
		  "name": "C#5",
		  "ticks": 123264,
		  "time": 137.571291,
		  "velocity": 0.3937007874015748
		},
		{
		  "duration": 0.10714275000000839,
		  "durationTicks": 96,
		  "midi": 49,
		  "name": "C#3",
		  "ticks": 123288,
		  "time": 137.5980766875,
		  "velocity": 0.3937007874015748
		},
		{
		  "duration": 0.10714274999997997,
		  "durationTicks": 96,
		  "midi": 52,
		  "name": "E3",
		  "ticks": 123312,
		  "time": 137.62486237500002,
		  "velocity": 0.3937007874015748
		},
		{
		  "duration": 0.10714275000000839,
		  "durationTicks": 96,
		  "midi": 57,
		  "name": "A3",
		  "ticks": 123336,
		  "time": 137.65164806250002,
		  "velocity": 0.3937007874015748
		},
		{
		  "duration": 0.10714274999997997,
		  "durationTicks": 96,
		  "midi": 57,
		  "name": "A3",
		  "ticks": 123456,
		  "time": 137.78557650000002,
		  "velocity": 0.3937007874015748
		},
		{
		  "duration": 0.10714275000000839,
		  "durationTicks": 96,
		  "midi": 57,
		  "name": "A3",
		  "ticks": 123648,
		  "time": 137.999862,
		  "velocity": 0.3937007874015748
		},
		{
		  "duration": 0.10714274999997997,
		  "durationTicks": 96,
		  "midi": 57,
		  "name": "A3",
		  "ticks": 123840,
		  "time": 138.21414750000002,
		  "velocity": 0.3937007874015748
		},
		{
		  "duration": 0.10714275000000839,
		  "durationTicks": 96,
		  "midi": 57,
		  "name": "A3",
		  "ticks": 124032,
		  "time": 138.428433,
		  "velocity": 0.3937007874015748
		},
		{
		  "duration": 0.10714275000000839,
		  "durationTicks": 96,
		  "midi": 73,
		  "name": "C#5",
		  "ticks": 124032,
		  "time": 138.428433,
		  "velocity": 0.3937007874015748
		},
		{
		  "duration": 0.10714275000000839,
		  "durationTicks": 96,
		  "midi": 76,
		  "name": "E5",
		  "ticks": 124032,
		  "time": 138.428433,
		  "velocity": 0.3937007874015748
		},
		{
		  "duration": 0.10714275000000839,
		  "durationTicks": 96,
		  "midi": 81,
		  "name": "A5",
		  "ticks": 124032,
		  "time": 138.428433,
		  "velocity": 0.3937007874015748
		},
		{
		  "duration": 0.10714275000000839,
		  "durationTicks": 96,
		  "midi": 85,
		  "name": "C#6",
		  "ticks": 124032,
		  "time": 138.428433,
		  "velocity": 0.3937007874015748
		}
	  ],
	  "endOfTrackTicks": 124128
	}
  ]
}
